<svg xmlns="http://www.w3.org/2000/svg" width="566" height="232" viewBox="0 0 566 232">
  <g id="Grupo_146533" data-name="Grupo 146533" transform="translate(-7796.658 -9824)">
    <g id="Grupo_141934" data-name="Grupo 141934" transform="translate(6986.658 9099.879)">
      <rect id="Rectángulo_42499" data-name="Rectángulo 42499" width="521" height="2" transform="translate(855 724.121)" fill="#4dd0e1" opacity="0.2"/>
      <rect id="Rectángulo_42500" data-name="Rectángulo 42500" width="521" height="2" transform="translate(855 954.121)" fill="#4dd0e1" opacity="0.2"/>
      <rect id="Rectángulo_42501" data-name="Rectángulo 42501" width="190" height="232" transform="translate(1186 724.121)" fill="#4dd0e1"/>
      <rect id="_30" data-name="30" width="555" height="214" rx="15" transform="translate(810 733.121)" fill="#fff"/>
    </g>
    <g id="_5" data-name="5" transform="translate(7973.658 9841.021)">
      <path id="Shadow" d="M476.051,449.792c-9.447,5.454-24.765,5.454-34.211,0s-9.447-14.294,0-19.748,24.765-5.454,34.211,0S485.5,444.337,476.051,449.792Z" transform="translate(-292.482 -255.924)" fill="#e1e1e1"/>
      <g id="Window" transform="translate(0 0)">
        <g id="Window-2">
          <path id="Trazado_196678" data-name="Trazado 196678" d="M229.991,41.4l-2.566-1.493L96.49,115.5v96.719a1.929,1.929,0,0,0,.8,1.77h0l2.566,1.493h0a1.928,1.928,0,0,0,1.935-.189l125.464-72.425a6.05,6.05,0,0,0,2.738-4.739Z" transform="translate(-96.49 -32.226)" fill="#feca2e"/>
          <path id="Trazado_196679" data-name="Trazado 196679" d="M229.991,41.4l-2.566-1.493L96.49,115.5v96.719a1.929,1.929,0,0,0,.8,1.77h0l2.566,1.493h0a1.928,1.928,0,0,0,1.935-.189l125.464-72.425a6.05,6.05,0,0,0,2.738-4.739Z" transform="translate(-96.49 -32.226)" fill="#0f2771"/>
          <path id="Trazado_196680" data-name="Trazado 196680" d="M99.817,334.388l-2.528-1.472a1.925,1.925,0,0,1-.8-1.77v-86l2.57,1.48v86a1.972,1.972,0,0,0,.761,1.754Z" transform="translate(-96.49 -151.155)" fill="#feca2e"/>
          <g id="Grupo_142153" data-name="Grupo 142153" transform="translate(0 93.995)" opacity="0.65">
            <path id="Trazado_196681" data-name="Trazado 196681" d="M99.817,334.388l-2.528-1.472a1.925,1.925,0,0,1-.8-1.77v-86l2.57,1.48v86a1.972,1.972,0,0,0,.761,1.754Z" transform="translate(-96.49 -245.15)" fill="#fff"/>
          </g>
          <path id="Trazado_196682" data-name="Trazado 196682" d="M99.817,334.388l-2.528-1.472a1.925,1.925,0,0,1-.8-1.77v-86l2.57,1.48v86a1.972,1.972,0,0,0,.761,1.754Z" transform="translate(-96.49 -151.155)" fill="#0f2771"/>
          <path id="Trazado_196683" data-name="Trazado 196683" d="M102.59,215.766c0,1.745,1.224,2.452,2.738,1.581l125.464-72.425a6.05,6.05,0,0,0,2.738-4.739V43.46L102.59,119.043v96.719Z" transform="translate(-100.024 -34.283)" fill="#feca2e"/>
          <g id="Grupo_142154" data-name="Grupo 142154" transform="translate(2.566 9.177)" opacity="0.75">
            <path id="Trazado_196684" data-name="Trazado 196684" d="M102.59,215.766c0,1.745,1.224,2.452,2.738,1.581l125.464-72.425a6.05,6.05,0,0,0,2.738-4.739V43.46L102.59,119.043v96.719Z" transform="translate(-102.59 -43.46)" fill="#fff"/>
          </g>
          <g id="Grupo_142159" data-name="Grupo 142159">
            <path id="Trazado_196685" data-name="Trazado 196685" d="M102.59,119.043v10.719L233.526,54.179V43.46Z" transform="translate(-100.024 -34.283)" fill="#feca2e"/>
            <g id="Grupo_142155" data-name="Grupo 142155" transform="translate(108.24 14.284)">
              <path id="Trazado_196686" data-name="Trazado 196686" d="M353.844,72.9v2.548c0,.521.37.736.82.475L371.4,66.235V61.79L354.66,71.475a1.823,1.823,0,0,0-.82,1.421Z" transform="translate(-353.84 -59.189)" fill="#fafafa"/>
              <path id="Trazado_196687" data-name="Trazado 196687" d="M399.905,55.716c.454-.261.82-.05.82.475V58.74a1.812,1.812,0,0,1-.82,1.421l-4.315,2.49V58.206l4.315-2.49Z" transform="translate(-378.03 -55.604)" fill="#bddcf6"/>
              <path id="Trazado_196688" data-name="Trazado 196688" d="M401.637,61.6l-.479-.151a2.59,2.59,0,0,0,.076-.618,1.131,1.131,0,0,0-.437-1.026.684.684,0,0,0-.7.034,2.463,2.463,0,0,0-.963,2,1.131,1.131,0,0,0,.437,1.026.6.6,0,0,0,.307.08.754.754,0,0,0,.4-.118,2.013,2.013,0,0,0,.778-1.039l.484.151a.294.294,0,0,0,.055.008.184.184,0,0,0,.172-.126.18.18,0,0,0-.118-.223Zm-1.544.921a.338.338,0,0,1-.345.034.835.835,0,0,1-.261-.719,2.138,2.138,0,0,1,.782-1.691.434.434,0,0,1,.215-.067.257.257,0,0,1,.126.034.835.835,0,0,1,.261.719,2.138,2.138,0,0,1-.782,1.691Z" transform="translate(-380.081 -57.993)" fill="#fafafa"/>
            </g>
            <g id="Grupo_142156" data-name="Grupo 142156" transform="translate(8.765 81.189)">
              <path id="Trazado_196689" data-name="Trazado 196689" d="M121.473,214.821l-3.251,1.871a1.983,1.983,0,0,0-.892,1.552V222c0,.572.4.8.892.517l3.251-1.876a1.983,1.983,0,0,0,.892-1.552v-3.751C122.365,214.766,121.965,214.535,121.473,214.821Zm-1.624,6.052c-1.056.61-1.91.118-1.91-1.1a4.232,4.232,0,0,1,1.91-3.31c1.056-.61,1.91-.118,1.91,1.106A4.218,4.218,0,0,1,119.849,220.873Z" transform="translate(-117.33 -214.698)" fill="#fafafa"/>
              <path id="Trazado_196690" data-name="Trazado 196690" d="M120.38,222.653c0,.786.551,1.106,1.232.711a2.728,2.728,0,0,0,1.232-2.136c0-.786-.551-1.106-1.232-.711A2.728,2.728,0,0,0,120.38,222.653Z" transform="translate(-119.097 -217.971)" fill="#fafafa"/>
            </g>
            <path id="Trazado_196691" data-name="Trazado 196691" d="M135.41,205.57v.315c0,.345.244.484.543.311l9.085-5.244a1.2,1.2,0,0,0,.543-.938V199.7c0-.345-.244-.484-.543-.311l-9.085,5.244A1.2,1.2,0,0,0,135.41,205.57Z" transform="translate(-119.04 -124.595)" fill="#bddcf6"/>
            <g id="Grupo_142157" data-name="Grupo 142157" transform="translate(57.037 32.489)">
              <path id="Trazado_196692" data-name="Trazado 196692" d="M232.1,154.222v.315c0,.345.244.484.543.311l7.049-4.067a1.2,1.2,0,0,0,.543-.938v-.315c0-.345-.244-.484-.543-.311l-7.049,4.067A1.2,1.2,0,0,0,232.1,154.222Z" transform="translate(-232.1 -128.012)" fill="#bddcf6"/>
              <path id="Trazado_196693" data-name="Trazado 196693" d="M261.11,137.472v.315c0,.345.244.484.543.311l7.049-4.067a1.2,1.2,0,0,0,.543-.938v-.315c0-.345-.244-.484-.543-.311l-7.049,4.067A1.2,1.2,0,0,0,261.11,137.472Z" transform="translate(-248.909 -118.306)" fill="#bddcf6"/>
              <path id="Trazado_196694" data-name="Trazado 196694" d="M290.12,120.722v.315c0,.345.244.484.543.311l7.049-4.067a1.2,1.2,0,0,0,.543-.938v-.315c0-.345-.244-.484-.543-.311l-7.049,4.067A1.2,1.2,0,0,0,290.12,120.722Z" transform="translate(-265.717 -108.6)" fill="#fafafa"/>
              <path id="Trazado_196695" data-name="Trazado 196695" d="M319.13,103.972v.315c0,.345.244.484.543.311l7.049-4.067a1.2,1.2,0,0,0,.543-.938v-.315c0-.345-.244-.484-.543-.311l-7.049,4.067A1.2,1.2,0,0,0,319.13,103.972Z" transform="translate(-282.526 -98.894)" fill="#bddcf6"/>
            </g>
            <path id="Trazado_196696" data-name="Trazado 196696" d="M135.41,215.695v.21c0,.231.16.324.362.21l6.052-3.495a.8.8,0,0,0,.362-.627v-.21c0-.231-.16-.324-.362-.21l-6.052,3.495A.8.8,0,0,0,135.41,215.695Z" transform="translate(-119.04 -131.671)" fill="#fff" opacity="0.7"/>
            <path id="Trazado_196697" data-name="Trazado 196697" d="M226.652,21.837a1.907,1.907,0,0,0-1.96.172L99.228,94.434a6.05,6.05,0,0,0-2.738,4.739v5.732l2.566,1.493L229.991,30.815V25.083a1.923,1.923,0,0,0-.791-1.762c-.458-.269-2.1-1.211-2.549-1.48Z" transform="translate(-96.49 -21.638)" fill="#1a2e35"/>
            <path id="Trazado_196698" data-name="Trazado 196698" d="M102.59,102.721a6.039,6.039,0,0,1,2.738-4.739L230.792,25.557c1.51-.871,2.738-.164,2.738,1.581V32.87L102.59,108.453Z" transform="translate(-100.024 -23.693)" fill="#0f2771"/>
            <path id="Trazado_196699" data-name="Trazado 196699" d="M230.321,23.334a1.892,1.892,0,0,0-1.973.172L102.889,95.927a5.62,5.62,0,0,0-1.935,2.04L98.38,96.482a5.659,5.659,0,0,1,1.939-2.048L225.783,22.009a1.908,1.908,0,0,1,1.96-.172c.45.273,2.09,1.215,2.553,1.48A.132.132,0,0,0,230.321,23.334Z" transform="translate(-97.585 -21.638)" fill="#bddcf6"/>
            <g id="Grupo_142158" data-name="Grupo 142158" transform="translate(116.816 6.784)">
              <path id="Trazado_196700" data-name="Trazado 196700" d="M375.513,50.246a2.829,2.829,0,0,0-1.283,2.225c0,.82.576,1.152,1.283.74a2.83,2.83,0,0,0,1.283-2.225C376.8,50.166,376.219,49.834,375.513,50.246Z" transform="translate(-374.23 -44.896)" fill="#feca2e"/>
              <path id="Trazado_196701" data-name="Trazado 196701" d="M386.193,44.1a2.829,2.829,0,0,0-1.283,2.225c0,.82.576,1.152,1.283.74a2.829,2.829,0,0,0,1.283-2.225C387.476,44.016,386.9,43.684,386.193,44.1Z" transform="translate(-380.418 -41.333)" fill="#feca2e"/>
              <path id="Trazado_196702" data-name="Trazado 196702" d="M396.873,37.946a2.829,2.829,0,0,0-1.283,2.225c0,.82.576,1.152,1.283.74a2.829,2.829,0,0,0,1.283-2.225C398.156,37.866,397.579,37.534,396.873,37.946Z" transform="translate(-386.606 -37.769)" fill="#feca2e"/>
            </g>
          </g>
        </g>
        <g id="Grupo_142171" data-name="Grupo 142171" transform="translate(8.765 27.34)">
          <path id="Trazado_196703" data-name="Trazado 196703" d="M117.33,155.139,235.854,86.65V165.9L117.33,234.4Z" transform="translate(-117.33 -86.65)" fill="#fafafa"/>
          <g id="Grupo_142169" data-name="Grupo 142169" transform="translate(4.837 8.622)">
            <g id="Grupo_142161" data-name="Grupo 142161" transform="translate(70.197 13.529)">
              <g id="Grupo_142160" data-name="Grupo 142160">
                <path id="Trazado_196704" data-name="Trazado 196704" d="M297.53,156.066a1.649,1.649,0,0,1-.854-.223,2.208,2.208,0,0,1-.946-2.035,6.52,6.52,0,0,1,2.948-5.105,1.953,1.953,0,0,1,3.18,1.838,6.526,6.526,0,0,1-2.948,5.105A2.825,2.825,0,0,1,297.53,156.066Zm2.528-7.309a2.331,2.331,0,0,0-1.148.357h0a6,6,0,0,0-2.713,4.7,1.5,1.5,0,0,0,2.477,1.43,6,6,0,0,0,2.713-4.7,1.78,1.78,0,0,0-.711-1.632,1.224,1.224,0,0,0-.622-.16Z" transform="translate(-295.73 -144.514)" fill="#e1e1e1"/>
                <path id="Trazado_196705" data-name="Trazado 196705" d="M314.33,144.077v.294c0,.324.227.454.5.29l6.578-3.81a1.121,1.121,0,0,0,.5-.875v-.294c0-.324-.227-.454-.5-.29l-6.578,3.81A1.121,1.121,0,0,0,314.33,144.077Z" transform="translate(-306.507 -139.321)" fill="#e1e1e1"/>
              </g>
              <path id="Trazado_196706" data-name="Trazado 196706" d="M301.84,156.633a.05.05,0,0,1-.059,0,.1.1,0,0,1-.025-.076v-.564l-.942.542a.05.05,0,0,1-.059,0,.1.1,0,0,1-.025-.076v-.332a.44.44,0,0,1,.021-.126c.013-.042.029-.084.046-.13l.93-2.321a.4.4,0,0,1,.126-.189l.231-.135a.05.05,0,0,1,.059,0,.1.1,0,0,1,.025.076v1.867l.261-.151a.05.05,0,0,1,.059,0,.1.1,0,0,1,.025.076v.332a.224.224,0,0,1-.025.1.147.147,0,0,1-.059.071l-.261.151v.564a.224.224,0,0,1-.025.1.147.147,0,0,1-.059.071l-.244.143Zm-.08-1.228v-1l-.517,1.3.517-.3Z" transform="translate(-298.627 -147.374)" fill="#e1e1e1"/>
            </g>
            <g id="Grupo_142163" data-name="Grupo 142163" transform="translate(46.8 27.045)">
              <g id="Grupo_142162" data-name="Grupo 142162">
                <path id="Trazado_196707" data-name="Trazado 196707" d="M241.9,188.206a1.649,1.649,0,0,1-.854-.223,2.208,2.208,0,0,1-.946-2.035,6.526,6.526,0,0,1,2.948-5.105,1.953,1.953,0,0,1,3.18,1.838,6.526,6.526,0,0,1-2.948,5.105A2.825,2.825,0,0,1,241.9,188.206Zm2.528-7.309a2.331,2.331,0,0,0-1.148.357,6,6,0,0,0-2.713,4.7,1.5,1.5,0,0,0,2.477,1.434,6,6,0,0,0,2.713-4.7,1.775,1.775,0,0,0-.711-1.632,1.224,1.224,0,0,0-.622-.16Z" transform="translate(-240.1 -176.654)" fill="#feca2e"/>
                <path id="Trazado_196708" data-name="Trazado 196708" d="M258.69,176.217v.294c0,.324.227.454.5.29l6.578-3.81a1.121,1.121,0,0,0,.5-.875v-.294c0-.324-.227-.454-.5-.29l-6.578,3.81A1.121,1.121,0,0,0,258.69,176.217Z" transform="translate(-250.871 -171.461)" fill="#feca2e"/>
              </g>
              <path id="Trazado_196709" data-name="Trazado 196709" d="M246.9,185.037a.05.05,0,0,1,.059,0,.1.1,0,0,1,.025.076v.332a.358.358,0,0,1-.021.109c-.017.038-.029.071-.042.1l-.442.976a.543.543,0,0,1,.248-.038.3.3,0,0,1,.189.084.464.464,0,0,1,.122.21,1.141,1.141,0,0,1,.042.341,1.692,1.692,0,0,1-.063.467,1.962,1.962,0,0,1-.172.421,1.827,1.827,0,0,1-.261.353,1.446,1.446,0,0,1-.328.257.951.951,0,0,1-.37.135.462.462,0,0,1-.261-.046.386.386,0,0,1-.16-.185.7.7,0,0,1-.063-.265.225.225,0,0,1,.021-.105.158.158,0,0,1,.059-.067l.24-.139s.038-.013.05,0a.321.321,0,0,1,.042.063.239.239,0,0,0,.05.076.163.163,0,0,0,.08.042.34.34,0,0,0,.126-.008.755.755,0,0,0,.185-.084.884.884,0,0,0,.3-.286.729.729,0,0,0,.114-.391c0-.139-.038-.219-.114-.236a.437.437,0,0,0-.3.08l-.252.147a.045.045,0,0,1-.059,0,.1.1,0,0,1-.025-.076v-.332a.274.274,0,0,1,.025-.109c.013-.038.029-.071.042-.1l.425-.934-.837.484a.05.05,0,0,1-.059,0,.1.1,0,0,1-.025-.076v-.332a.224.224,0,0,1,.025-.1.147.147,0,0,1,.059-.071l1.329-.765Z" transform="translate(-243.171 -179.322)" fill="#feca2e"/>
            </g>
            <g id="Grupo_142164" data-name="Grupo 142164" transform="translate(93.578)">
              <path id="Trazado_196710" data-name="Trazado 196710" d="M353.12,123.9a1.649,1.649,0,0,1-.854-.223,2.208,2.208,0,0,1-.946-2.035,6.52,6.52,0,0,1,2.948-5.105,1.953,1.953,0,0,1,3.18,1.838,6.526,6.526,0,0,1-2.948,5.105A2.825,2.825,0,0,1,353.12,123.9Zm2.528-7.309a2.331,2.331,0,0,0-1.148.357h0a6,6,0,0,0-2.713,4.7,1.5,1.5,0,0,0,2.477,1.43,6,6,0,0,0,2.713-4.7,1.78,1.78,0,0,0-.711-1.632,1.224,1.224,0,0,0-.622-.16Z" transform="translate(-351.32 -112.344)" fill="#e1e1e1"/>
              <path id="Trazado_196711" data-name="Trazado 196711" d="M356.8,121.57a.224.224,0,0,1,.025-.1.146.146,0,0,1,.059-.071l1.14-.66a.05.05,0,0,1,.059,0,.1.1,0,0,1,.025.076v.332a.224.224,0,0,1-.025.1.146.146,0,0,1-.059.071l-.854.492-.034.618a.8.8,0,0,1,.164-.156,1.252,1.252,0,0,1,.13-.084.822.822,0,0,1,.315-.114.368.368,0,0,1,.252.063.5.5,0,0,1,.168.244,1.226,1.226,0,0,1,.059.429,2.216,2.216,0,0,1-.063.547,2.036,2.036,0,0,1-.168.45,1.433,1.433,0,0,1-.252.345,1.5,1.5,0,0,1-.311.24.929.929,0,0,1-.358.135.36.36,0,0,1-.248-.059.415.415,0,0,1-.147-.21.917.917,0,0,1-.055-.315.225.225,0,0,1,.021-.105.158.158,0,0,1,.059-.067l.244-.143s.038-.013.055,0a.092.092,0,0,1,.034.063.267.267,0,0,0,.059.143.143.143,0,0,0,.088.055.241.241,0,0,0,.118-.013,1.262,1.262,0,0,0,.135-.063.708.708,0,0,0,.278-.307.981.981,0,0,0,.105-.458.344.344,0,0,0-.105-.29.243.243,0,0,0-.278.017.7.7,0,0,0-.143.105.954.954,0,0,0-.088.1c-.021.029-.042.059-.059.084a.21.21,0,0,1-.072.063l-.278.16a.05.05,0,0,1-.059,0,.1.1,0,0,1-.025-.076l.088-1.636Z" transform="translate(-354.391 -115.018)" fill="#e1e1e1"/>
              <path id="Trazado_196712" data-name="Trazado 196712" d="M369.92,111.907v.294c0,.324.227.454.5.29l6.578-3.81a1.121,1.121,0,0,0,.5-.875v-.294c0-.324-.227-.454-.5-.29l-6.578,3.81A1.121,1.121,0,0,0,369.92,111.907Z" transform="translate(-362.097 -107.151)" fill="#e1e1e1"/>
            </g>
            <g id="Grupo_142166" data-name="Grupo 142166" transform="translate(23.398 40.561)">
              <g id="Grupo_142165" data-name="Grupo 142165">
                <path id="Trazado_196713" data-name="Trazado 196713" d="M186.26,220.342a1.687,1.687,0,0,1-.854-.219,2.212,2.212,0,0,1-.946-2.035,6.526,6.526,0,0,1,2.948-5.105,1.953,1.953,0,0,1,3.18,1.838,6.526,6.526,0,0,1-2.948,5.105,2.825,2.825,0,0,1-1.38.421Z" transform="translate(-184.46 -208.794)" fill="#feca2e"/>
                <path id="Trazado_196714" data-name="Trazado 196714" d="M203.06,208.357v.294c0,.324.227.454.5.29l6.578-3.81a1.121,1.121,0,0,0,.5-.875v-.294c0-.324-.227-.454-.5-.29l-6.578,3.81A1.121,1.121,0,0,0,203.06,208.357Z" transform="translate(-195.237 -203.601)" fill="#feca2e"/>
              </g>
              <path id="Check" d="M190.926,216.33a.376.376,0,0,0-.492.2l-1.422,3.377-.336-.328a.375.375,0,1,0-.522.538l.732.711a.38.38,0,0,0,.261.105.233.233,0,0,0,.076-.008.386.386,0,0,0,.273-.223l1.632-3.886a.375.375,0,0,0-.2-.492Z" transform="translate(-186.535 -210.96)" fill="#fafafa"/>
            </g>
            <g id="Grupo_142168" data-name="Grupo 142168" transform="translate(0 54.077)">
              <g id="Grupo_142167" data-name="Grupo 142167">
                <path id="Trazado_196715" data-name="Trazado 196715" d="M130.63,252.482a1.687,1.687,0,0,1-.854-.219,2.208,2.208,0,0,1-.946-2.035,6.526,6.526,0,0,1,2.948-5.105h0a1.953,1.953,0,0,1,3.18,1.838,6.526,6.526,0,0,1-2.948,5.105,2.812,2.812,0,0,1-1.38.421Z" transform="translate(-128.83 -240.934)" fill="#feca2e"/>
                <path id="Trazado_196716" data-name="Trazado 196716" d="M147.43,240.5v.294c0,.324.227.454.5.29l6.578-3.81a1.121,1.121,0,0,0,.5-.875V236.1c0-.324-.227-.454-.5-.29l-6.578,3.81A1.121,1.121,0,0,0,147.43,240.5Z" transform="translate(-139.607 -235.741)" fill="#feca2e"/>
              </g>
              <path id="Check-2" d="M135.286,248.46a.376.376,0,0,0-.492.2l-1.422,3.377-.336-.328a.375.375,0,1,0-.522.538l.732.711a.38.38,0,0,0,.261.105.233.233,0,0,0,.076-.008.386.386,0,0,0,.273-.223l1.632-3.886a.375.375,0,0,0-.2-.492Z" transform="translate(-130.899 -243.094)" fill="#fafafa"/>
            </g>
          </g>
          <g id="Grupo_142170" data-name="Grupo 142170" transform="translate(0 12.633)">
            <path id="Trazado_196717" data-name="Trazado 196717" d="M117.33,185.183,235.854,116.69v.664L117.33,185.847Z" transform="translate(-117.33 -116.69)" fill="#e1e1e1"/>
            <path id="Trazado_196718" data-name="Trazado 196718" d="M117.33,223.791v.278l70.622-40.758v-.66L117.33,223.4Z" transform="translate(-117.33 -154.911)" fill="#feca2e"/>
          </g>
        </g>
      </g>
      <g id="Grupo_142175" data-name="Grupo 142175" transform="translate(26.439 58.674)">
        <path id="Trazado_196719" data-name="Trazado 196719" d="M241,161.24a.67.67,0,0,0-.715.055L160.326,207.44a2.159,2.159,0,0,0-.976,1.691v51.974a.69.69,0,0,0,.278.627c.177.109,1.661.955,1.838,1.06a.675.675,0,0,0,.694-.067l79.959-46.15a2.159,2.159,0,0,0,.976-1.691V162.91a.683.683,0,0,0-.286-.631c-.177-.105-1.649-.938-1.813-1.043Z" transform="translate(-159.35 -161.161)" fill="#feca2e"/>
        <g id="Grupo_142172" data-name="Grupo 142172" transform="translate(1.834 0.999)" opacity="0.9">
          <path id="Trazado_196720" data-name="Trazado 196720" d="M245.343,163.659c-.177-.105-.358-.2-.05-.029a.721.721,0,0,0-.639.1l-79.964,46.15a2.191,2.191,0,0,0-.98,1.695v51.974a.741.741,0,0,0,.236.6.3.3,0,0,1,.046.029.675.675,0,0,0,.694-.067l79.959-46.15a2.159,2.159,0,0,0,.976-1.691V164.294a.683.683,0,0,0-.286-.631Z" transform="translate(-163.71 -163.536)" fill="#fff"/>
        </g>
        <g id="Grupo_142173" data-name="Grupo 142173" transform="translate(0.004 47.007)" opacity="0.8">
          <path id="Trazado_196721" data-name="Trazado 196721" d="M161.19,274.963a1.964,1.964,0,0,1,.29-.963l-1.834-1.06a2,2,0,0,0-.286.963v51.974a.69.69,0,0,0,.278.627c.168.1,1.48.854,1.788,1.03a.741.741,0,0,1-.236-.6V274.959Z" transform="translate(-159.36 -272.94)" fill="#fff"/>
        </g>
        <g id="Grupo_142174" data-name="Grupo 142174" transform="translate(0.282)" opacity="0.95">
          <path id="Trazado_196722" data-name="Trazado 196722" d="M241.393,161.24c.151.105,1.451.841,1.758,1.013a.721.721,0,0,0-.639.1L162.548,208.5a1.967,1.967,0,0,0-.69.732l-1.838-1.06a2.042,2.042,0,0,1,.694-.732l79.964-46.145A.67.67,0,0,1,241.393,161.24Z" transform="translate(-160.02 -161.161)" fill="#fff"/>
        </g>
      </g>
      <g id="Grupo_142179" data-name="Grupo 142179" transform="translate(39.957 67.182)">
        <path id="Trazado_196723" data-name="Trazado 196723" d="M273.144,181.47a.67.67,0,0,0-.715.055L192.466,227.67a2.159,2.159,0,0,0-.976,1.691v51.974a.69.69,0,0,0,.278.627c.177.109,1.661.955,1.838,1.06a.675.675,0,0,0,.694-.067l79.959-46.15a2.159,2.159,0,0,0,.976-1.691V183.14a.683.683,0,0,0-.286-.631c-.177-.105-1.649-.938-1.813-1.043Z" transform="translate(-191.49 -181.391)" fill="#feca2e"/>
        <g id="Grupo_142176" data-name="Grupo 142176" transform="translate(1.83 0.999)" opacity="0.7">
          <path id="Trazado_196724" data-name="Trazado 196724" d="M277.473,183.889c-.177-.105-.358-.2-.05-.029a.721.721,0,0,0-.639.1l-79.964,46.15a2.191,2.191,0,0,0-.98,1.695v51.974a.741.741,0,0,0,.236.6.3.3,0,0,1,.046.029.675.675,0,0,0,.694-.067l79.959-46.15a2.159,2.159,0,0,0,.976-1.691V184.524a.683.683,0,0,0-.286-.631Z" transform="translate(-195.84 -183.766)" fill="#fff"/>
        </g>
        <g id="Grupo_142177" data-name="Grupo 142177" transform="translate(0 47.012)" opacity="0.6">
          <path id="Trazado_196725" data-name="Trazado 196725" d="M193.32,295.2a1.964,1.964,0,0,1,.29-.963l-1.834-1.06a2,2,0,0,0-.286.963v51.974a.69.69,0,0,0,.278.627c.168.1,1.48.854,1.788,1.03a.741.741,0,0,1-.236-.6V295.2Z" transform="translate(-191.49 -293.18)" fill="#fff"/>
        </g>
        <g id="Grupo_142178" data-name="Grupo 142178" transform="translate(0.282 0.004)" opacity="0.8">
          <path id="Trazado_196726" data-name="Trazado 196726" d="M273.533,181.48c.151.105,1.451.841,1.758,1.013a.721.721,0,0,0-.639.1l-79.964,46.15a1.967,1.967,0,0,0-.69.732l-1.838-1.06a2.042,2.042,0,0,1,.694-.732l79.964-46.145A.67.67,0,0,1,273.533,181.48Z" transform="translate(-192.16 -181.401)" fill="#fff"/>
        </g>
      </g>
      <g id="Grupo_142184" data-name="Grupo 142184" transform="translate(54.471 75.193)">
        <g id="Grupo_142180" data-name="Grupo 142180">
          <path id="Trazado_196727" data-name="Trazado 196727" d="M307.654,200.52a.67.67,0,0,0-.715.055L226.976,246.72a2.159,2.159,0,0,0-.976,1.691v51.974a.69.69,0,0,0,.278.627c.177.109,1.661.955,1.838,1.06a.675.675,0,0,0,.694-.067l79.959-46.15a2.159,2.159,0,0,0,.976-1.691V202.19a.683.683,0,0,0-.286-.631c-.177-.105-1.649-.938-1.813-1.043Z" transform="translate(-226 -200.441)" fill="#feca2e"/>
          <path id="Trazado_196728" data-name="Trazado 196728" d="M308.043,200.52c.151.105,1.451.841,1.758,1.013a.721.721,0,0,0-.639.1L229.2,247.78a1.966,1.966,0,0,0-.69.732l-1.838-1.06a2.043,2.043,0,0,1,.694-.732l79.964-46.145A.67.67,0,0,1,308.043,200.52Z" transform="translate(-226.388 -200.441)" fill="#feca2e"/>
          <path id="Trazado_196729" data-name="Trazado 196729" d="M308.043,200.52c.151.105,1.451.841,1.758,1.013a.721.721,0,0,0-.639.1L229.2,247.78a1.966,1.966,0,0,0-.69.732l-1.838-1.06a2.043,2.043,0,0,1,.694-.732l79.964-46.145A.67.67,0,0,1,308.043,200.52Z" transform="translate(-226.388 -200.441)" fill="#0f2771"/>
          <path id="Trazado_196730" data-name="Trazado 196730" d="M227.834,366.217a.733.733,0,0,0,.24.606c-.311-.181-1.624-.934-1.792-1.035a.692.692,0,0,1-.282-.627V313.183a2,2,0,0,1,.286-.963l1.838,1.06a1.964,1.964,0,0,0-.29.963Z" transform="translate(-226 -265.213)" fill="#0f2771"/>
        </g>
        <g id="Grupo_142181" data-name="Grupo 142181" transform="translate(11.516 45.645)">
          <path id="Trazado_196731" data-name="Trazado 196731" d="M254.579,309.144c.66-.383,1.2-.072,1.2.694a2.63,2.63,0,0,1-1.2,2.073c-.66.378-1.2.072-1.2-.694A2.637,2.637,0,0,1,254.579,309.144Z" transform="translate(-253.38 -308.981)" fill="#fafafa"/>
          <path id="Trazado_196732" data-name="Trazado 196732" d="M255.483,311.058c.3-.172.543-.034.543.315a1.2,1.2,0,0,1-.543.942c-.3.172-.543.034-.543-.315A1.2,1.2,0,0,1,255.483,311.058Z" transform="translate(-254.284 -310.142)" fill="#bddcf6"/>
        </g>
        <path id="Trazado_196733" data-name="Trazado 196733" d="M261.87,303.149v.269c0,.294.206.412.463.265l5.993-3.457a1.027,1.027,0,0,0,.463-.8v-.269c0-.294-.206-.412-.458-.265l-5.993,3.457a1.028,1.028,0,0,0-.463.8Z" transform="translate(-246.783 -257.453)" fill="#fafafa"/>
        <g id="Grupo_142182" data-name="Grupo 142182" transform="translate(60.297 13.187)">
          <path id="Trazado_196734" data-name="Trazado 196734" d="M370.559,242.1c.66-.383,1.2-.072,1.2.694a2.63,2.63,0,0,1-1.2,2.073c-.66.378-1.2.072-1.2-.694A2.637,2.637,0,0,1,370.559,242.1Z" transform="translate(-369.36 -237.676)" fill="#fafafa"/>
          <path id="Trazado_196735" data-name="Trazado 196735" d="M377.86,236.119v.269c0,.294.206.412.463.265l5.993-3.457a1.027,1.027,0,0,0,.463-.8v-.269c0-.294-.206-.412-.458-.265l-5.993,3.457a1.027,1.027,0,0,0-.463.8Z" transform="translate(-374.285 -231.799)" fill="#fff" opacity="0.7"/>
        </g>
        <path id="Trazado_196736" data-name="Trazado 196736" d="M230.36,304.764l40.667-23.474v.778L230.36,305.547Z" transform="translate(-228.526 -247.29)" fill="#0f2771"/>
        <path id="Trazado_196737" data-name="Trazado 196737" d="M327.05,248.475,368.3,224.66v.782L327.05,249.253Z" transform="translate(-284.549 -214.475)" fill="#fff" opacity="0.7"/>
        <g id="Grupo_142183" data-name="Grupo 142183" transform="translate(9.968 25.543)">
          <path id="Trazado_196738" data-name="Trazado 196738" d="M249.7,332.489v.269c0,.294.206.412.463.265l5.993-3.457a1.027,1.027,0,0,0,.463-.8V328.5c0-.294-.206-.412-.458-.265l-5.993,3.457a1.027,1.027,0,0,0-.463.8Z" transform="translate(-249.7 -299.998)" fill="#0f2771"/>
          <path id="Trazado_196739" data-name="Trazado 196739" d="M307.72,298.989v.269c0,.294.206.412.463.265l5.994-3.457a1.027,1.027,0,0,0,.463-.8V295c0-.294-.206-.412-.458-.265l-5.993,3.457a1.027,1.027,0,0,0-.463.8Z" transform="translate(-283.317 -280.586)" fill="#0f2771"/>
          <path id="Trazado_196740" data-name="Trazado 196740" d="M365.73,265.5v.269c0,.294.206.412.463.265l5.993-3.457a1.028,1.028,0,0,0,.463-.8v-.269c0-.294-.206-.412-.458-.265L366.2,264.7a1.028,1.028,0,0,0-.463.8Z" transform="translate(-316.928 -261.179)" fill="#0f2771"/>
          <path id="Trazado_196741" data-name="Trazado 196741" d="M249.7,354.859v.269c0,.294.206.412.463.265l5.993-3.457a1.027,1.027,0,0,0,.463-.8v-.269c0-.294-.206-.412-.458-.265l-5.993,3.457a1.027,1.027,0,0,0-.463.8Z" transform="translate(-249.7 -312.96)" fill="#0f2771"/>
          <path id="Trazado_196742" data-name="Trazado 196742" d="M249.7,377.169v.269c0,.294.206.412.463.265l5.993-3.457a1.027,1.027,0,0,0,.463-.8v-.269c0-.294-.206-.412-.458-.265l-5.993,3.457a1.027,1.027,0,0,0-.463.8Z" transform="translate(-249.7 -325.888)" fill="#0f2771"/>
          <path id="Trazado_196743" data-name="Trazado 196743" d="M307.72,321.359v.269c0,.294.206.412.463.265l5.994-3.457a1.027,1.027,0,0,0,.463-.8v-.269c0-.294-.206-.412-.458-.265l-5.993,3.457a1.027,1.027,0,0,0-.463.8Z" transform="translate(-283.317 -293.548)" fill="#0f2771"/>
          <path id="Trazado_196744" data-name="Trazado 196744" d="M365.73,287.859v.269c0,.294.206.412.463.265l5.993-3.457a1.028,1.028,0,0,0,.463-.8v-.269c0-.294-.206-.412-.458-.265L366.2,287.06a1.027,1.027,0,0,0-.463.8Z" transform="translate(-316.928 -274.136)" fill="#0f2771"/>
        </g>
        <path id="Trazado_196745" data-name="Trazado 196745" d="M250.133,329.968l16.365-9.445c.252-.147.463-.029.463.265v1.93a1.016,1.016,0,0,1-.463.8l-16.365,9.445c-.252.147-.463.029-.463-.265v-1.93A1.016,1.016,0,0,1,250.133,329.968Z" transform="translate(-239.715 -269.987)" fill="#fff" opacity="0.7"/>
        <path id="Trazado_196746" data-name="Trazado 196746" d="M308.153,296.468l16.365-9.445c.252-.147.463-.029.463.265v1.93a1.016,1.016,0,0,1-.463.8l-16.365,9.445c-.252.147-.463.029-.463-.265v-1.93A1.016,1.016,0,0,1,308.153,296.468Z" transform="translate(-273.332 -250.575)" fill="#fff" opacity="0.7"/>
        <path id="Trazado_196747" data-name="Trazado 196747" d="M366.173,262.968l16.365-9.445c.252-.147.463-.029.463.265v1.93a1.016,1.016,0,0,1-.463.8l-16.365,9.445c-.252.147-.463.029-.463-.265v-1.93A1.016,1.016,0,0,1,366.173,262.968Z" transform="translate(-306.949 -231.163)" fill="#fff" opacity="0.7"/>
        <path id="Trazado_196748" data-name="Trazado 196748" d="M250.133,352.328l16.365-9.445c.252-.147.463-.029.463.265v1.93a1.016,1.016,0,0,1-.463.8l-16.365,9.445c-.252.147-.463.029-.463-.265v-1.93A1.016,1.016,0,0,1,250.133,352.328Z" transform="translate(-239.715 -282.944)" fill="#fff" opacity="0.7"/>
        <path id="Trazado_196749" data-name="Trazado 196749" d="M250.133,336.4l65.167-37.63c.252-.147.463-.029.463.265v12.393a1.016,1.016,0,0,1-.463.8l-65.167,37.63c-.252.147-.463.029-.463-.265V337.2a1.016,1.016,0,0,1,.463-.8Z" transform="translate(-239.715 -257.384)" fill="#fff" opacity="0.7"/>
        <path id="Trazado_196750" data-name="Trazado 196750" d="M308.153,318.828l16.365-9.445c.252-.147.463-.029.463.265v1.93a1.016,1.016,0,0,1-.463.8l-16.365,9.445c-.252.147-.463.029-.463-.265v-1.93A1.016,1.016,0,0,1,308.153,318.828Z" transform="translate(-273.332 -263.532)" fill="#fff" opacity="0.7"/>
        <path id="Trazado_196751" data-name="Trazado 196751" d="M366.173,285.338l16.365-9.445c.252-.147.463-.029.463.265v1.93a1.016,1.016,0,0,1-.463.8l-16.365,9.445c-.252.147-.463.029-.463-.265v-1.93A1.016,1.016,0,0,1,366.173,285.338Z" transform="translate(-306.949 -244.126)" fill="#fff" opacity="0.7"/>
      </g>
      <g id="Grupo_142187" data-name="Grupo 142187" transform="translate(120.03 136.075)">
        <g id="Speach_Bubble">
          <g id="Grupo_142185" data-name="Grupo 142185">
            <path id="Trazado_196752" data-name="Trazado 196752" d="M397.461,345.327,382.286,354.1a.921.921,0,0,0-.416.719v7.292a.9.9,0,0,0,.416.715l.976.555a.949.949,0,0,0,.833,0l15.175-8.777a.921.921,0,0,0,.416-.719V346.6a.9.9,0,0,0-.416-.715l-.976-.555a.949.949,0,0,0-.833,0Z" transform="translate(-381.87 -345.224)" fill="#1a2e35"/>
            <path id="Trazado_196753" data-name="Trazado 196753" d="M386.18,364.6v-7.292a.917.917,0,0,1,.416-.719l15.175-8.777c.227-.13.416-.025.416.24v7.292a.917.917,0,0,1-.416.719L386.6,364.841C386.369,364.971,386.18,364.866,386.18,364.6Z" transform="translate(-384.367 -346.688)" fill="#bddcf6"/>
            <path id="Trazado_196754" data-name="Trazado 196754" d="M384.1,376.008a.949.949,0,0,1-.833,0l-.976-.555a.9.9,0,0,1-.416-.711v-7.292a.861.861,0,0,1,.13-.425l1.8,1.043a.846.846,0,0,0-.122.408v7.292c0,.244.172.383.416.24Z" transform="translate(-381.876 -357.855)" fill="#0f2771"/>
            <path id="Trazado_196755" data-name="Trazado 196755" d="M399.873,346.5c-.034-.21-.2-.282-.408-.164l-15.171,8.777a.876.876,0,0,0-.294.311l-1.8-1.043a.8.8,0,0,1,.286-.294l15.175-8.777a.922.922,0,0,1,.833,0l.976.555a.908.908,0,0,1,.412.639Z" transform="translate(-382.061 -345.214)" fill="#0f2771"/>
          </g>
        </g>
        <g id="Grupo_142186" data-name="Grupo 142186" transform="translate(4.694 4.48)">
          <path id="Trazado_196756" data-name="Trazado 196756" d="M395.133,370.544c-.055.029-.093.034-.122,0a.368.368,0,0,1-.059-.067l-1.3-2.212V371.2a.353.353,0,0,1-.038.156.266.266,0,0,1-.088.109l-.374.215a.069.069,0,0,1-.088,0,.154.154,0,0,1-.038-.114v-4.6a.353.353,0,0,1,.038-.156.241.241,0,0,1,.088-.109l.324-.189a.1.1,0,0,1,.122,0,.653.653,0,0,1,.059.063l1.3,2.212v-2.931a.352.352,0,0,1,.038-.156.265.265,0,0,1,.088-.109l.374-.215a.065.065,0,0,1,.088.008.148.148,0,0,1,.038.114v4.6a.353.353,0,0,1-.038.156.226.226,0,0,1-.088.105l-.324.185Z" transform="translate(-393.03 -361.367)" fill="#feca2e"/>
          <path id="Trazado_196757" data-name="Trazado 196757" d="M400.408,368.185a3.919,3.919,0,0,1,.08-.795,3.483,3.483,0,0,1,.227-.744,2.643,2.643,0,0,1,.358-.614,1.633,1.633,0,0,1,.471-.421.761.761,0,0,1,.471-.126.551.551,0,0,1,.358.185,1.059,1.059,0,0,1,.227.446,2.332,2.332,0,0,1,.08.648v.32a.353.353,0,0,1-.038.156.265.265,0,0,1-.088.109l-1.544.892a.673.673,0,0,0,.042.265.29.29,0,0,0,.118.143.261.261,0,0,0,.172.029.565.565,0,0,0,.2-.072.925.925,0,0,0,.24-.185.957.957,0,0,0,.151-.206.908.908,0,0,1,.084-.126.312.312,0,0,1,.088-.072l.37-.214a.069.069,0,0,1,.088,0,.133.133,0,0,1,.034.114,1.012,1.012,0,0,1-.072.3,2.514,2.514,0,0,1-.2.421,2.849,2.849,0,0,1-.332.446,1.845,1.845,0,0,1-.454.37.8.8,0,0,1-.471.13.521.521,0,0,1-.357-.189,1.213,1.213,0,0,1-.227-.479,2.883,2.883,0,0,1-.08-.732Zm1.131-1.72a.841.841,0,0,0-.227.193,1.19,1.19,0,0,0-.16.248,1.381,1.381,0,0,0-.1.269,1.223,1.223,0,0,0-.042.248l1.043-.6a1.688,1.688,0,0,0-.034-.2.379.379,0,0,0-.084-.164.213.213,0,0,0-.151-.067.453.453,0,0,0-.244.08Z" transform="translate(-397.3 -361.438)" fill="#feca2e"/>
          <path id="Trazado_196758" data-name="Trazado 196758" d="M407.6,364.02l-.547,1.354a.48.48,0,0,1-.1.164.559.559,0,0,1-.109.088l-.358.206a.059.059,0,0,1-.084-.008.169.169,0,0,1-.034-.122.314.314,0,0,1,.017-.109l.833-2.069-.795-1.056a.346.346,0,0,1-.017-.088.457.457,0,0,1,.034-.164.221.221,0,0,1,.084-.105l.358-.206a.213.213,0,0,1,.109-.038.129.129,0,0,1,.1.055l.522.694.517-1.3a.48.48,0,0,1,.1-.164.559.559,0,0,1,.109-.088l.357-.206a.059.059,0,0,1,.084.008.17.17,0,0,1,.034.122.457.457,0,0,1-.017.109l-.8,2.006.824,1.085a.345.345,0,0,1,.017.088.423.423,0,0,1-.034.164.244.244,0,0,1-.084.105l-.357.206a.34.34,0,0,1-.109.038.116.116,0,0,1-.093-.055l-.551-.719Z" transform="translate(-400.759 -358.753)" fill="#feca2e"/>
          <path id="Trazado_196759" data-name="Trazado 196759" d="M413.785,359.535a.475.475,0,0,0,.076.307c.05.059.147.046.286-.034l.282-.164a.069.069,0,0,1,.088,0,.154.154,0,0,1,.038.114v.471a.34.34,0,0,1-.038.156.227.227,0,0,1-.088.105l-.341.2q-.435.252-.669.063a1.116,1.116,0,0,1-.236-.858v-1.531l-.307.177a.065.065,0,0,1-.088-.008.154.154,0,0,1-.038-.114v-.471a.353.353,0,0,1,.038-.156.265.265,0,0,1,.088-.109l.307-.177v-1.161a.353.353,0,0,1,.038-.156.265.265,0,0,1,.088-.109l.349-.2a.069.069,0,0,1,.088,0,.154.154,0,0,1,.038.114v1.161l.6-.345a.069.069,0,0,1,.088,0,.154.154,0,0,1,.038.114v.471a.34.34,0,0,1-.038.156.266.266,0,0,1-.088.109l-.6.345v1.51Z" transform="translate(-404.456 -355.867)" fill="#feca2e"/>
        </g>
      </g>
      <g id="Magic_Wand" transform="translate(144.301 7.328)">
        <ellipse id="Elipse_5003" data-name="Elipse 5003" cx="8.087" cy="4.669" rx="8.087" ry="4.669" transform="matrix(0.502, -0.865, 0.865, 0.502, 11.623, 30.311)" fill="#feca2e"/>
        <ellipse id="Elipse_5004" data-name="Elipse 5004" cx="8.087" cy="4.669" rx="8.087" ry="4.669" transform="matrix(0.502, -0.865, 0.865, 0.502, 11.623, 30.311)" fill="#fff" opacity="0.8"/>
        <g id="Grupo_142188" data-name="Grupo 142188" transform="translate(5.165 6.901)">
          <path id="Trazado_196760" data-name="Trazado 196760" d="M478.075,69.4a2.737,2.737,0,0,1,.744-1.51l1.607-1.712a1.873,1.873,0,0,0,.517-1.506l-.576-3.339a.554.554,0,0,0-.913-.4l-1.607.913a.9.9,0,0,1-1.228-.273,4.908,4.908,0,0,0-.6-.732,1.507,1.507,0,0,1-.357-1.455l.719-2.326a.778.778,0,0,0-.572-1.051L473.5,55.5a1.253,1.253,0,0,0-1.308.606l-1.325,2.237a2.244,2.244,0,0,1-1.312.984,10.6,10.6,0,0,0-1.422.471.792.792,0,0,1-1.089-.5l-.5-1.043a.58.58,0,0,0-.976-.307l-3.453,2.717a1.94,1.94,0,0,0-.656,1.468l-.072,1.737a2.549,2.549,0,0,1-.543,1.585c-.559.681-1.1,1.388-1.6,2.128a1.757,1.757,0,0,1-1.4.711l-.984-.114a1.414,1.414,0,0,0-1.279.782l-2.263,5.055a.892.892,0,0,0,.467,1.186l.736.4a1.124,1.124,0,0,1,.614,1.241,20.417,20.417,0,0,0-.387,2.237,2.763,2.763,0,0,1-.753,1.51l-1.6,1.733a1.849,1.849,0,0,0-.517,1.51l.576,3.339a.552.552,0,0,0,.913.4l1.6-.938a.9.9,0,0,1,1.228.273,6.788,6.788,0,0,0,.589.732,1.527,1.527,0,0,1,.362,1.455l-.761,2.389a.771.771,0,0,0,.572,1.051l2.3.517a1.257,1.257,0,0,0,1.308-.606l1.371-2.3a2.245,2.245,0,0,1,1.312-.984,10.606,10.606,0,0,0,1.422-.471.781.781,0,0,1,1.085.5l.471,1.337a.576.576,0,0,0,.976.3l3.663-2.868c.391-.307.875-.921.656-1.463l-.32-.362-2.582-3.1a14.45,14.45,0,0,1-2.217,1.59c-4.984,2.876-9.026.559-9.026-5.177s4.042-12.717,9.026-15.6,9.026-.559,9.026,5.177a17.558,17.558,0,0,1-1.872,7.414l2.448,2.94.437.021a1.409,1.409,0,0,0,1.27-.782l1.846-4.1a.886.886,0,0,0-.467-1.186l-.8-.45a1.106,1.106,0,0,1-.614-1.236,22.585,22.585,0,0,0,.387-2.233Z" transform="translate(-451.858 -55.472)" fill="#feca2e"/>
          <path id="Trazado_196761" data-name="Trazado 196761" d="M487.844,104.578l-3.634-4.395a.958.958,0,0,1-.088-1.022l2.116-2.637a.408.408,0,0,1,.715-.059l3.638,4.395-2.747,3.722Z" transform="translate(-470.489 -79.119)" fill="#fafafa"/>
          <path id="Trazado_196762" data-name="Trazado 196762" d="M511.639,127.021l-2.116,2.637a.408.408,0,0,1-.715.059l-14.1-16.935,2.742-3.722L511.551,126a.958.958,0,0,1,.084,1.022Z" transform="translate(-476.687 -86.524)" fill="#bddcf6"/>
        </g>
        <g id="Shine" transform="translate(33.628)">
          <path id="Trazado_196763" data-name="Trazado 196763" d="M520.317,43.1a.308.308,0,0,1-.109-.4l.139-.265a1.563,1.563,0,0,0-.45-1.989l-.24-.177a.308.308,0,0,1,.324-.521l.265.139h0a1.56,1.56,0,0,0,1.989-.454l.177-.24a.3.3,0,0,1,.412-.076h0a.312.312,0,0,1,.109.4l-.139.265a1.559,1.559,0,0,0,.454,1.989l.24.177a.3.3,0,0,1,.076.412.308.308,0,0,1-.4.109l-.265-.139a1.56,1.56,0,0,0-1.989.454l-.177.24a.3.3,0,0,1-.412.076Zm.58-2.414a2.117,2.117,0,0,1,.248,1.1,2.118,2.118,0,0,1,1.1-.248,2.117,2.117,0,0,1-.248-1.1A2.118,2.118,0,0,1,520.9,40.685Z" transform="translate(-519.53 -39.063)" fill="#feca2e"/>
        </g>
        <g id="Shine-2" transform="translate(0 44.007)">
          <path id="Trazado_196764" data-name="Trazado 196764" d="M441.454,143.713a.306.306,0,0,1,.353.223l.08.286a1.557,1.557,0,0,0,1.687,1.144l.294-.034a.307.307,0,0,1,.118.6l-.286.08h0a1.559,1.559,0,0,0-1.144,1.691l.034.294a.306.306,0,0,1-.248.336h0a.309.309,0,0,1-.353-.223l-.08-.286a1.559,1.559,0,0,0-1.691-1.144l-.3.034a.307.307,0,0,1-.114-.6l.286-.08a1.563,1.563,0,0,0,1.144-1.691l-.034-.294a.307.307,0,0,1,.248-.336h0Zm1.228,2.157a.8.8,0,0,0-1.565.3.8.8,0,0,0,1.565-.3Z" transform="translate(-439.578 -143.707)" fill="#feca2e"/>
        </g>
        <g id="Shine-3" transform="translate(36.626 28.986)">
          <path id="Trazado_196765" data-name="Trazado 196765" d="M529.486,112.582a.3.3,0,0,1-.362-.21l-.088-.286a1.554,1.554,0,0,0-1.729-1.081l-.294.046a.308.308,0,0,1-.139-.6l.286-.088h0a1.553,1.553,0,0,0,1.081-1.728l-.046-.294a.307.307,0,0,1,.6-.135l.088.286a1.554,1.554,0,0,0,1.729,1.081l.294-.046a.307.307,0,0,1,.135.6l-.286.088a1.553,1.553,0,0,0-1.081,1.728l.046.294a.3.3,0,0,1-.236.345Zm-1.3-2.115a.8.8,0,0,0,1.552-.357.8.8,0,0,0-1.552.357Z" transform="translate(-526.66 -107.99)" fill="#feca2e"/>
        </g>
        <g id="Shine-4" transform="translate(2.629 11.71)">
          <path id="Trazado_196766" data-name="Trazado 196766" d="M449.236,70.509l-.008.008a.31.31,0,0,1-.416-.008l-.215-.21h0a1.561,1.561,0,0,0-2.036-.13l-.24.181a.308.308,0,0,1-.408-.458l.206-.214a1.561,1.561,0,0,0,.13-2.035l-.181-.24a.315.315,0,0,1,.042-.416.31.31,0,0,1,.416.008l.215.206a1.561,1.561,0,0,0,2.036.13l.24-.181a.306.306,0,0,1,.4.458l-.21.214a1.555,1.555,0,0,0-.126,2.035l.181.24a.309.309,0,0,1-.034.408Zm-2.162-1.228a2.168,2.168,0,0,1,1.123.071,2.167,2.167,0,0,1,.072-1.123,2.168,2.168,0,0,1-1.123-.071A2.168,2.168,0,0,1,447.074,69.281Z" transform="translate(-445.829 -66.909)" fill="#feca2e"/>
        </g>
        <ellipse id="Elipse_5005" data-name="Elipse 5005" cx="0.479" cy="0.479" rx="0.479" ry="0.479" transform="translate(4.96 47.595)" fill="#feca2e"/>
        <path id="Trazado_196767" data-name="Trazado 196767" d="M525.8,53.889a.479.479,0,1,1-.479-.479A.479.479,0,0,1,525.8,53.889Z" transform="translate(-488.979 -47.377)" fill="#feca2e"/>
        <path id="Trazado_196768" data-name="Trazado 196768" d="M524.239,106.589a.479.479,0,1,1-.479-.479A.479.479,0,0,1,524.239,106.589Z" transform="translate(-488.075 -77.914)" fill="#feca2e"/>
        <path id="Trazado_196769" data-name="Trazado 196769" d="M448.609,82.089a.479.479,0,1,1-.479-.479A.479.479,0,0,1,448.609,82.089Z" transform="translate(-444.255 -63.717)" fill="#feca2e"/>
      </g>
      <g id="Character" transform="translate(134.05 79.38)">
        <g id="Grupo_142189" data-name="Grupo 142189" transform="translate(17.125 105.536)">
          <path id="Trazado_196770" data-name="Trazado 196770" d="M456.029,470.49c-.13.042-.147.782-.034,1.022a3.846,3.846,0,0,0,2.578,1.48,20.538,20.538,0,0,0,4.87-.059,46.707,46.707,0,0,1,5,.446,4.007,4.007,0,0,0,3.264-.681,1.007,1.007,0,0,0,.227-.8c-.025-.643-.088-.774-.16-.765l-15.743-.639Z" transform="translate(-455.92 -466.648)" fill="#1a2e35"/>
          <path id="Trazado_196771" data-name="Trazado 196771" d="M471.67,463.921c.029.126.059.252.084.383a6.414,6.414,0,0,1,.143,1.981,1.779,1.779,0,0,1-1.173.883,6.02,6.02,0,0,1-3.293.063,23.289,23.289,0,0,0-3.865-.235,23.968,23.968,0,0,1-3.382.168,8.055,8.055,0,0,1-2.486-.509c-.669-.286-1.35-.652-1.514-1.342a2.266,2.266,0,0,1,1.258-2.262,5.107,5.107,0,0,1,2.515-.543c.946,0,1.661.122,2.5.059a12.059,12.059,0,0,0,2.158-.3c.631-.2,1.573-.816,1.842-.845,0,0,3.966-.1,4.366-.063.463.038.547,1.03.606,1.346.046.244.055.5.118.744C471.59,463.606,471.633,463.766,471.67,463.921Z" transform="translate(-456.071 -461.353)" fill="#0f2771"/>
          <path id="Trazado_196772" data-name="Trazado 196772" d="M471.948,463.843a2.864,2.864,0,0,0-1.035,1.779c.025.484-.829.526-.854.042a4.137,4.137,0,0,1,.753-1.7,2.1,2.1,0,0,1,1.136-.122Z" transform="translate(-464.113 -462.772)" fill="#fafafa"/>
          <path id="Trazado_196773" data-name="Trazado 196773" d="M467.741,464.127a3.03,3.03,0,0,0-.917,1.64c-.013.357-.757.328-.744-.029a2.311,2.311,0,0,1,.917-1.632c.236-.164.665-.118.74.021Z" transform="translate(-461.807 -462.888)" fill="#fafafa"/>
        </g>
        <g id="Grupo_142190" data-name="Grupo 142190" transform="translate(35.554 95.361)">
          <path id="Trazado_196774" data-name="Trazado 196774" d="M499.827,440.06a4.67,4.67,0,0,0,.177,2.616,5.436,5.436,0,0,0,1.905,2.363,9.668,9.668,0,0,1,1.682,1.96,8.4,8.4,0,0,0,1.758,2.111,3.42,3.42,0,0,0,2.776.143c.723-.32.959-.6.892-1.758-.067-1.135-3.6-1.485-3.6-1.485l-5.59-5.946Z" transform="translate(-499.737 -438.84)" fill="#1a2e35"/>
          <path id="Trazado_196775" data-name="Trazado 196775" d="M508.6,442.358c.3.109.391.677.458,1.817.05.862.437,2.115-.736,2.679a2.9,2.9,0,0,1-3.146-.6c-.829-1-1.392-1.876-2.566-3.091-1.022-1.051-2.069-1.392-2.553-3.528-.311-1.371-.1-1.947.82-2.359,1.266-.568,3.3,1.165,4.307,1.426.866.223,3.117,3.549,3.419,3.659Z" transform="translate(-499.843 -437.16)" fill="#0f2771"/>
          <path id="Trazado_196776" data-name="Trazado 196776" d="M508.385,440.745c-.055-.013-.109-.034-.172-.055a3.3,3.3,0,0,0-2.725,1.867c-.164.378.366.66.673.362a3.507,3.507,0,0,1,2.721-1.855,1.461,1.461,0,0,0-.5-.315Z" transform="translate(-503.051 -439.206)" fill="#fafafa"/>
          <path id="Trazado_196777" data-name="Trazado 196777" d="M510.885,442.32a3.259,3.259,0,0,0-2.528,1.846c-.164.379.366.66.673.362a3.349,3.349,0,0,1,2.267-1.762C511.159,442.606,511.02,442.455,510.885,442.32Z" transform="translate(-504.714 -440.15)" fill="#fafafa"/>
        </g>
        <path id="Trazado_196778" data-name="Trazado 196778" d="M514.588,397.55l-7.138.925s.189,4.395.627,9.193c.366,4,.812,9.7,1.039,11.51a3.98,3.98,0,0,0,.072.572c.118,1.068,3.768,1.4,3.768.156l.072-1.451C513.326,414.136,514.945,404.014,514.588,397.55Z" transform="translate(-468.652 -318.846)" fill="#c76668"/>
        <path id="Trazado_196779" data-name="Trazado 196779" d="M485.34,400.76l-5.93.828.488,24.257-.017.429c.038,1.081.622,1.434,2.111,1.493,1.813.072,2.486-.711,2.5-1.3,0-.055,0-.118,0-.181.635-5.631,1.594-14.958,1.724-18.033a23.6,23.6,0,0,0-.883-7.486Z" transform="translate(-452.406 -320.706)" fill="#c76668"/>
        <g id="Grupo_142191" data-name="Grupo 142191" transform="translate(41.225 20.356)">
          <path id="Trazado_196780" data-name="Trazado 196780" d="M527.767,277.969c-2.431-14.059-5.047-16.632-9.287-18.449l1.009,7.839s3.613,9.21,4.067,12.427a44.948,44.948,0,0,1,.622,8.768,1.742,1.742,0,0,1-.547,1.106,9.939,9.939,0,0,0-1.653,2.359c-.442.7-.887.938-.778,1.11a.941.941,0,0,0,1.262.181,6.455,6.455,0,0,0,1.2-1,8.739,8.739,0,0,1-.9,2.645c-1,1.9-.858,2.91,1.83,2.393,1.687-.324,2.818-1.627,3.34-5.589a30.908,30.908,0,0,0,.349-4.4,76.252,76.252,0,0,0-.509-9.391Z" transform="translate(-516.268 -259.218)" fill="#c76668"/>
          <path id="Trazado_196781" data-name="Trazado 196781" d="M535.595,315.37s-.025,3.2-.177,4.353c0,0-2.523.656-4.134-.1l-.484-3.739,4.795-.517Z" transform="translate(-523.406 -291.581)" fill="#1a2e35"/>
          <path id="Trazado_196782" data-name="Trazado 196782" d="M513.22,258.814c1.649-.055,5.308-.067,7.234,3.739a48.349,48.349,0,0,1,4.959,20.261,11.713,11.713,0,0,1-4.8.3,40.59,40.59,0,0,0-1.876-7.755c-1.035-2.569-3.323-8.987-3.482-9.95-.164-.988-2.031-6.59-2.031-6.59Z" transform="translate(-513.22 -258.803)" fill="#0f2771"/>
        </g>
        <g id="Grupo_142193" data-name="Grupo 142193" transform="translate(26.194 43.858)">
          <g id="Grupo_142192" data-name="Grupo 142192">
            <path id="Trazado_196783" data-name="Trazado 196783" d="M497.482,350.217c-.172-4.142-.614-4.235-1.279-7.477.336-3.949.652-7.271.791-11.552.151-4.622-.046-10.185-.046-15.1-5.06-.336-17.715-4.525-19.3,3.432-.463,6.422.177,19.13.252,27.886s-.046,15.959.467,25.354c1.455.53,4.126.761,5.548-.193,1.148-5.875,1.792-11.8,2.2-15.442.5-4.449-.017-6.237.025-8.264.244-3.495.551-7.3.82-10.719s1.022-10.547,1.022-10.547.517,8.293.8,12.46.618,7.288,1.056,12.053c.4,4.4.854,9.492,1.279,14.58a5.862,5.862,0,0,0,5.005-.08,76.325,76.325,0,0,0,1.35-16.384Z" transform="translate(-477.484 -314.69)" fill="#feca2e"/>
            <path id="Trazado_196784" data-name="Trazado 196784" d="M497.482,350.217c-.172-4.142-.614-4.235-1.279-7.477.336-3.949.652-7.271.791-11.552.151-4.622-.046-10.185-.046-15.1-5.06-.336-17.715-4.525-19.3,3.432-.463,6.422.177,19.13.252,27.886s-.046,15.959.467,25.354c1.455.53,4.126.761,5.548-.193,1.148-5.875,1.792-11.8,2.2-15.442.5-4.449-.017-6.237.025-8.264.244-3.495.551-7.3.82-10.719s1.022-10.547,1.022-10.547c.257,4.067.517,8.293.8,12.46s.618,7.288,1.056,12.053c.4,4.4.854,9.492,1.279,14.58a5.862,5.862,0,0,0,5.005-.08,76.325,76.325,0,0,0,1.35-16.384Z" transform="translate(-477.484 -314.69)" fill="#fff" opacity="0.5"/>
          </g>
          <path id="Trazado_196785" data-name="Trazado 196785" d="M502.46,341.866a6.393,6.393,0,0,0,4.749-2.536,4.521,4.521,0,0,1-3.474,3.255c-.093.551-.627,9.487-.627,9.487l-.644-10.206Z" transform="translate(-491.955 -328.968)" fill="#0f2771"/>
        </g>
        <path id="Trazado_196786" data-name="Trazado 196786" d="M495.95,261.945c-.568-1.72-2.751-3.6-4.938-3.192a64.571,64.571,0,0,0-9.573,2.389c-2,.715-3.823,2.443-3.991,9.029,0,0-1.338,16.355-.311,18.525a22.578,22.578,0,0,0,12.769,1.085c6.015-1.312,6.742-3.81,6.742-3.81s.076-11.035-.1-15.8c-.151-4.05-.206-7.044-.6-8.23Z" transform="translate(-450.864 -238.386)" fill="#bddcf6"/>
        <g id="Grupo_142195" data-name="Grupo 142195" transform="translate(31.156 17.306)">
          <path id="Trazado_196787" data-name="Trazado 196787" d="M492.38,252.357l.652,6.148,5.51,0-.639-6.96Z" transform="translate(-491.076 -251.55)" fill="#c76668"/>
          <g id="Grupo_142194" data-name="Grupo 142194" transform="translate(0 1.678)">
            <path id="Trazado_196788" data-name="Trazado 196788" d="M489.28,259.114c.4-.837.715-1.951,1.489-2.094a10.209,10.209,0,0,0,4.038-.151,3.5,3.5,0,0,0,1.7-1.186,1.862,1.862,0,0,1,1.981.357c.808.854,3.2,2.271,3.836,4.782s1.144,7.145-1.754,8.045c-4.248,1.312-7.272-.681-8.286-4.2C491.169,260.817,491.48,259.812,489.28,259.114Z" transform="translate(-489.28 -255.539)" fill="#0f2771"/>
            <path id="Trazado_196789" data-name="Trazado 196789" d="M497.18,264.8c.694.955,1.43,5.093,3.079,6.708s5.228,1.228,5.88-.421a2.663,2.663,0,0,1-2.65,2.351,5.15,5.15,0,0,1-5.371-4C497.487,266.983,497.575,265.919,497.18,264.8Z" transform="translate(-493.857 -260.905)" fill="#1a2e35"/>
          </g>
        </g>
        <g id="Grupo_142198" data-name="Grupo 142198" transform="translate(26.255)">
          <g id="Grupo_142196" data-name="Grupo 142196" transform="translate(0.439 4.468)">
            <path id="Trazado_196790" data-name="Trazado 196790" d="M480.059,236.26s-1.56,2.49-1.371,2.725,1.384.429,1.384.429Z" transform="translate(-478.672 -229.852)" fill="#b0494c"/>
            <path id="Trazado_196791" data-name="Trazado 196791" d="M485.643,221.367c-2.906.681-3.718,1.985-3.89,6.628-.177,4.853.349,6.363,1,7,.442.429,2.831.458,4.025.1,1.5-.45,4.879-1.733,6.418-4.205,1.813-2.91,2.217-6.808.172-8.356-2.877-2.178-6.549-1.438-7.731-1.161Z" transform="translate(-480.437 -221.023)" fill="#c76668"/>
          </g>
          <g id="Grupo_142197" data-name="Grupo 142197">
            <path id="Trazado_196792" data-name="Trazado 196792" d="M479.152,217.187a2.514,2.514,0,0,0,1.8.555c-.126.013-.084.542-.072.614a1.076,1.076,0,0,0,.353.572,1.117,1.117,0,0,0,1.312.227c-.4.324-.1,1.312.042,1.712.164.479.231.988.765,1.2,0,0,.421-1.8,1.935-1.611s1.775,2.124.841,3.322-1.834.765-1.834.765a7.947,7.947,0,0,0,1.27,3.982,8.3,8.3,0,0,0,3.853-.135,53.049,53.049,0,0,0,3.6-4.235c2.662-3.6,2.292-7.772-.341-8.814a11.346,11.346,0,0,0-.084-1.648,2.4,2.4,0,0,0-.845-1.316,5.619,5.619,0,0,0-3.213-1.1c-1.329-.084-2.658.109-3.987.1a13.323,13.323,0,0,1-4.273-.736c-.585-.2-1.3-.425-1.762-.013a1.348,1.348,0,0,0-.3,1.207,3.522,3.522,0,0,0,1.325,2.258,1.3,1.3,0,0,1-.866-.227.637.637,0,0,0-1.014.744,4.337,4.337,0,0,0,1.493,2.565Z" transform="translate(-477.629 -210.399)" fill="#1a2e35"/>
            <path id="Trazado_196793" data-name="Trazado 196793" d="M513.351,221.547l1.724-1.068a1.014,1.014,0,0,0-1.724,1.068Z" transform="translate(-498.239 -215.962)" fill="#1a2e35"/>
          </g>
        </g>
        <g id="Grupo_142199" data-name="Grupo 142199" transform="translate(0 22.546)">
          <path id="Trazado_196794" data-name="Trazado 196794" d="M421.588,275.873c.942.416,12.025,8.608,13.753,7.654s10.595-11.312,10.595-11.312a7.16,7.16,0,0,0,0-7.772,6.03,6.03,0,0,0-5.056,2.645c-1.581,2.183-7.268,9.635-7.268,9.635-1.586-.795-7.264-2.956-8.534-3.68a4.9,4.9,0,0,1-1-.618c-.627-.618-.517-2.12-.509-2.935,0-.383.013-.765.055-1.144.055-.467.143-1.607-.694-1.245a1.066,1.066,0,0,0-.4.336,1.858,1.858,0,0,0-.3.572c-.16.492-.105,1.035-.252,1.531a.394.394,0,0,1-.105.2.346.346,0,0,1-.265.08c-1.22-.038-2.376-1.749-2.94-2.658a2.49,2.49,0,0,0-.925-1.056,1.652,1.652,0,0,0-1.9.736,3.874,3.874,0,0,0-.606,2.691,5.341,5.341,0,0,0,1.594,3.373,16.387,16.387,0,0,0,4.757,2.961Z" transform="translate(-415.205 -264.258)" fill="#c76668"/>
          <path id="Trazado_196795" data-name="Trazado 196795" d="M442.7,288.042l-2.772-1.152a4.606,4.606,0,0,0-2.191,4.037l2.683,1.783,2.28-4.664Z" transform="translate(-428.261 -277.268)" fill="#1a2e35"/>
          <path id="Trazado_196796" data-name="Trazado 196796" d="M463.073,264.023s-2.7-.219-4.282,1.165-8.555,10.909-8.555,10.909l-3.882-1.312a5.415,5.415,0,0,0-2.28,4.664s2.73,2.023,4.214,2.893a8.829,8.829,0,0,0,3.621,1.384c.66-.034,10.46-10.724,10.46-10.724s1.952-2.49,1.771-5a9.6,9.6,0,0,0-1.073-3.982Z" transform="translate(-431.917 -264.01)" fill="#0f2771"/>
        </g>
      </g>
    </g>
  </g>
</svg>
