<svg xmlns="http://www.w3.org/2000/svg" width="566" height="232" viewBox="0 0 566 232">
  <g id="Grupo_146531" data-name="Grupo 146531" transform="translate(-7796.658 -8906)">
    <g id="Grupo_141918" data-name="Grupo 141918" transform="translate(6986.658 8181.879)">
      <rect id="Rectángulo_42499" data-name="Rectángulo 42499" width="521" height="2" transform="translate(855 724.121)" fill="#4dd0e1" opacity="0.2"/>
      <rect id="Rectángulo_42500" data-name="Rectángulo 42500" width="521" height="2" transform="translate(855 954.121)" fill="#4dd0e1" opacity="0.2"/>
      <rect id="Rectángulo_42501" data-name="Rectángulo 42501" width="190" height="232" transform="translate(1186 724.121)" fill="#4dd0e1"/>
      <rect id="_30" data-name="30" width="555" height="214" rx="15" transform="translate(810 733.121)" fill="#fff"/>
    </g>
    <g id="_3" data-name="3" transform="translate(7967.004 8924.037)">
      <g id="Grupo_142085" data-name="Grupo 142085" transform="translate(78.778 11.878)" opacity="0.6">
        <path id="Trazado_196388" data-name="Trazado 196388" d="M244.07,81.017l20.85-12.037c1.01-.585,1.83-.111,1.83,1.054v.02a4.038,4.038,0,0,1-1.83,3.166L244.07,85.258c-1.011.585-1.83.111-1.83-1.054v-.02A4.037,4.037,0,0,1,244.07,81.017Z" transform="translate(-242.24 -68.73)" fill="#fff"/>
      </g>
      <ellipse id="Elipse_5002" data-name="Elipse 5002" cx="25.199" cy="14.547" rx="25.199" ry="14.547" transform="translate(117.937 165.405)" fill="#e1e1e1"/>
      <g id="Grupo_142088" data-name="Grupo 142088" transform="translate(0 49.372)">
        <path id="Trazado_196389" data-name="Trazado 196389" d="M48.289,227.127l.1.06c-.044-.028-.088-.048-.123-.072-.08-.048-.155-.091-.231-.135Z" transform="translate(-46.515 -201.526)" fill="#0f2771"/>
        <path id="Trazado_196390" data-name="Trazado 196390" d="M44.241,222.179a.361.361,0,0,0,0,.195.325.325,0,0,1,0-.195l.358-1.189-.35,1.189Z" transform="translate(-44.222 -197.918)" fill="#feca2e"/>
        <path id="Trazado_196391" data-name="Trazado 196391" d="M44.241,222.179a.361.361,0,0,0,0,.195.325.325,0,0,1,0-.195l.358-1.189-.35,1.189Z" transform="translate(-44.222 -197.918)" fill="#fff" opacity="0.4"/>
        <g id="Grupo_142086" data-name="Grupo 142086" transform="translate(0.011 0.004)">
          <path id="Trazado_196392" data-name="Trazado 196392" d="M79.618,170.119l-6.64-3.847a.6.6,0,0,0-.076-.048.321.321,0,0,0-.123-.02c-.163-.091-.334-.195-.513-.29-.227-.131-.465-.27-.708-.41-.971-.569-2.041-1.181-2.864-1.659l-.442-.259c-.529-.306-.879-.509-.9-.525a.526.526,0,0,0-.33-.06l-3.342.33a.976.976,0,0,0-.557.267.618.618,0,0,0-.171.243L61.135,168.7a.071.071,0,0,1-.016.032c-.016.032-.032.06-.048.091a.374.374,0,0,1-.072.1,1.345,1.345,0,0,1-.123.139,1.911,1.911,0,0,1-.346.274c-.044.028-.08.048-.123.072-.35.163-.708.35-1.062.557l-3.5-2.033a.27.27,0,0,0-.151-.044.56.56,0,0,0-.39.207h0L53.1,170.414l-1.476,1.555a1.172,1.172,0,0,0-.259.457.589.589,0,0,0-.028.346l1.026,3.457a.318.318,0,0,1,.012.123.551.551,0,0,1-.016.223.633.633,0,0,1-.032.139c0,.016,0,.028,0,.032a.264.264,0,0,1-.02.06.322.322,0,0,1-.044.107.685.685,0,0,1-.08.151A26.683,26.683,0,0,0,50.5,180a.5.5,0,0,1-.08.115.9.9,0,0,1-.1.115,1.358,1.358,0,0,1-.617.362l-3.139.756a1.171,1.171,0,0,0-.6.382.693.693,0,0,0-.115.211l-.195.66-1.03,3.473-.35,1.189a.361.361,0,0,0,0,.195.3.3,0,0,0,.044.1.331.331,0,0,0,.08.088.563.563,0,0,0,.056.04l.529.306.147.08h0l.422.247.227.135.259.147.1.06.275.155,1.528.879.016.012A13.913,13.913,0,0,0,48,191.13a.992.992,0,0,1-.064.39,1.46,1.46,0,0,1-.243.453l-3.2,3.878a.988.988,0,0,0-.2.4c0,.04-.016.076-.02.115a.467.467,0,0,0,.028.282l1.524,3.365a.2.2,0,0,0,.044.064.16.16,0,0,0,.056.044l.012.012c.123.072,1.1.632,2.276,1.317.195.107.394.227.6.346.756.438,1.552.891,2.216,1.281.088.048.171.1.259.151.728.422,1.269.736,1.377.8a.249.249,0,0,1-.088-.1l-1.52-3.361a.61.61,0,0,1,0-.406,1.1,1.1,0,0,1,.2-.39l3.2-3.878a1.6,1.6,0,0,0,.255-.465.926.926,0,0,0,.06-.382,15.609,15.609,0,0,1,0-2.761.467.467,0,0,0-.481-.469l-2.872-.163a.5.5,0,0,1-.227-.064.021.021,0,0,1-.016-.012.342.342,0,0,1-.147-.4L52.41,186.5l.195-.652a.62.62,0,0,1,.131-.223,1.121,1.121,0,0,1,.577-.366l3.143-.756a1.406,1.406,0,0,0,.629-.374.837.837,0,0,0,.167-.223,28.019,28.019,0,0,1,1.691-2.928,1.243,1.243,0,0,0,.2-.724h0a.337.337,0,0,0-.016-.115L58.1,176.679a.672.672,0,0,1,.032-.378,1.116,1.116,0,0,1,.255-.426l.048-.048L62.058,172a.5.5,0,0,1,.509-.179l.028.016a.236.236,0,0,1,.088.08l1.707,2.609c.123.191.438.171.72-.016a15.027,15.027,0,0,1,2.069-1.2,1.579,1.579,0,0,0,.72-.68.053.053,0,0,0,.012-.02l1.814-4.861a.636.636,0,0,1,.179-.255.963.963,0,0,1,.553-.255l3.342-.334a.511.511,0,0,1,.29.044c.012,0,.016,0,.02.012a.306.306,0,0,1,.147.342L73.2,172.084a.544.544,0,0,0,.346.6,5.427,5.427,0,0,1,1.46.847.611.611,0,0,0,.752-.123l3.413-3.123a.489.489,0,0,1,.469-.163Z" transform="translate(-44.251 -162.999)" fill="#feca2e"/>
          <path id="Trazado_196393" data-name="Trazado 196393" d="M128.042,207.12c0,.438-.028.887-.064,1.34a.472.472,0,0,0,.481.469l2.868.163a.5.5,0,0,1,.211.048l-3.493-2.021Z" transform="translate(-94.668 -189.569)" fill="#feca2e"/>
          <path id="Trazado_196394" data-name="Trazado 196394" d="M101.179,254.9c-.119-.191-.434-.171-.712.016-.334.227-.676.442-1.007.636l3.517,2.041h0a.406.406,0,0,1-.088-.08l-1.711-2.613Z" transform="translate(-77.496 -218.261)" fill="#feca2e"/>
          <path id="Trazado_196395" data-name="Trazado 196395" d="M71.705,258.331a5.33,5.33,0,0,1-1.464-.855.6.6,0,0,0-.744.131l-3.413,3.123a.6.6,0,0,1-.374.171c1.906,1.106,5.212,3.019,5.422,3.138a.289.289,0,0,1-.139-.322l1.054-4.789a.53.53,0,0,0-.342-.593Z" transform="translate(-57.173 -219.846)" fill="#feca2e"/>
        </g>
        <g id="Grupo_142087" data-name="Grupo 142087" transform="translate(6.761 3.234)">
          <path id="Trazado_196396" data-name="Trazado 196396" d="M91.794,216.108a9.611,9.611,0,0,1-4.348,2.82c-.06.016-.119.032-.183.044-.044.016-.088.02-.131.032l-.3.048c-.119.016-.231.028-.346.032-.076,0-.147,0-.215,0a.448.448,0,0,1-.1,0,3.357,3.357,0,0,1-3.151-2.112,5.72,5.72,0,0,1-.458-1.754c.259-.119.525-.259.8-.41a14.836,14.836,0,0,0,6.715-11.627c0-.322-.012-.629-.04-.911a5.246,5.246,0,0,1,2.371-.5h.028c.04,0,.076,0,.119,0s.08.012.119.016a.494.494,0,0,1,.131.016,3.372,3.372,0,0,1,2.63,2.072C96.846,207.018,95.219,212.5,91.794,216.108Z" transform="translate(-74.069 -189.576)" fill="#feca2e"/>
          <path id="Trazado_196397" data-name="Trazado 196397" d="M91.794,216.108a9.611,9.611,0,0,1-4.348,2.82c-.06.016-.119.032-.183.044-.044.016-.088.02-.131.032l-.3.048c-.119.016-.231.028-.346.032-.076,0-.147,0-.215,0a.448.448,0,0,1-.1,0,3.357,3.357,0,0,1-3.151-2.112,5.72,5.72,0,0,1-.458-1.754c.259-.119.525-.259.8-.41a14.836,14.836,0,0,0,6.715-11.627c0-.322-.012-.629-.04-.911a5.246,5.246,0,0,1,2.371-.5h.028c.04,0,.076,0,.119,0s.08.012.119.016a.494.494,0,0,1,.131.016,3.372,3.372,0,0,1,2.63,2.072C96.846,207.018,95.219,212.5,91.794,216.108Z" transform="translate(-74.069 -189.576)" fill="#0f2771"/>
          <path id="Trazado_196398" data-name="Trazado 196398" d="M91.35,188.487a.028.028,0,0,0-.016-.008.527.527,0,0,0-.207-.052l-2.864-.163a.464.464,0,0,1-.481-.465c.04-.453.064-.9.068-1.341a13.9,13.9,0,0,0-.064-1.424,1.394,1.394,0,0,1,.314-.847l3.2-3.874a.878.878,0,0,0,.195-.8l-1.52-3.361a.222.222,0,0,0-.092-.107c-.008,0-.012-.008-.02-.008a.467.467,0,0,0-.489.151l-3.417,3.119a.607.607,0,0,1-.748.127,5.38,5.38,0,0,0-1.46-.851.541.541,0,0,1-.342-.6l1.054-4.781a.3.3,0,0,0-.147-.338.534.534,0,0,0-.318-.056l-3.342.334a.923.923,0,0,0-.732.509l-1.81,4.861a1.556,1.556,0,0,1-.732.7,14.672,14.672,0,0,0-2.069,1.2c-.282.187-.6.2-.716.016l-1.711-2.609c-.123-.187-.4-.147-.617.084L68.6,181.793a.958.958,0,0,0-.282.8l1.022,3.461a1.168,1.168,0,0,1-.187.831,28.013,28.013,0,0,0-1.691,2.928,1.369,1.369,0,0,1-.8.6l-3.139.756a1.044,1.044,0,0,0-.712.589l-1.579,5.322a.38.38,0,0,0,.39.481l2.868.163a.464.464,0,0,1,.481.465,15.293,15.293,0,0,0-.008,2.765,1.347,1.347,0,0,1-.31.847l-3.2,3.878a.876.876,0,0,0-.195.8l1.52,3.357a.222.222,0,0,0,.092.107h.008a.24.24,0,0,0,.119.028h0a.6.6,0,0,0,.374-.175l3.413-3.123a.613.613,0,0,1,.748-.127,5.5,5.5,0,0,0,1.46.851.535.535,0,0,1,.342.6l-1.054,4.785a.3.3,0,0,0,.139.326.008.008,0,0,1,.008.008.516.516,0,0,0,.314.056l3.342-.33a.941.941,0,0,0,.732-.509l1.814-4.861a1.582,1.582,0,0,1,.732-.708c.35-.167.708-.354,1.062-.557.334-.195.672-.41,1.007-.636.278-.191.6-.207.712-.02l1.711,2.613a.218.218,0,0,0,.084.076c.139.087.354.028.533-.163l3.672-3.878a.98.98,0,0,0,.282-.8l-1.022-3.457a1.181,1.181,0,0,1,.187-.831,27.349,27.349,0,0,0,1.687-2.932,1.333,1.333,0,0,1,.8-.593l3.139-.756a1.03,1.03,0,0,0,.712-.593l1.583-5.318a.361.361,0,0,0-.167-.422Zm-16.757,13-.187.048c-.048.012-.088.02-.131.028q-.149.03-.3.048c-.115.016-.231.024-.346.032-.072,0-.143.008-.215.008h-.1a3.363,3.363,0,0,1-3.151-2.116,5.811,5.811,0,0,1-.462-1.75,7.044,7.044,0,0,1-.052-.971,14.952,14.952,0,0,1,4.145-9.5,11.583,11.583,0,0,1,2.534-2.053,7.335,7.335,0,0,1,.843-.43,5.3,5.3,0,0,1,2.371-.5h.028a.6.6,0,0,1,.119.008,1.186,1.186,0,0,1,.123.012.656.656,0,0,1,.127.016,3.356,3.356,0,0,1,2.63,2.076c1.416,3.138-.207,8.612-3.632,12.224a9.565,9.565,0,0,1-4.348,2.82Z" transform="translate(-61.216 -172.139)" fill="#feca2e"/>
          <line id="Línea_259" data-name="Línea 259" x2="6.755" y2="3.91" transform="translate(21.902)" fill="#12263f"/>
        </g>
        <path id="Trazado_196399" data-name="Trazado 196399" d="M59.636,210.208a1.421,1.421,0,0,1-.629.374l-3.143.756a1.13,1.13,0,0,0-.577.366L48.52,207.81a1.094,1.094,0,0,1,.6-.382l3.139-.756a1.358,1.358,0,0,0,.617-.362h0l6.759,3.9Z" transform="translate(-46.81 -189.078)" fill="#0f2771"/>
        <path id="Trazado_196400" data-name="Trazado 196400" d="M69.827,194.52l-6.751-3.894a.311.311,0,0,0-.012-.123l-1.026-3.457a.591.591,0,0,1,.028-.346l5.16,2.959,1.6.919a.672.672,0,0,0-.032.378l1.022,3.457a.291.291,0,0,1,.016.107Z" transform="translate(-54.941 -177.268)" fill="#0f2771"/>
        <path id="Trazado_196401" data-name="Trazado 196401" d="M95.4,168.4a.678.678,0,0,0-.179.255l-1.814,4.861s0,.016-.012.02l-6.759-3.9a.221.221,0,0,0,.016-.032l1.814-4.861a.618.618,0,0,1,.171-.243l6.759,3.9Z" transform="translate(-69.765 -163.899)" fill="#0f2771"/>
        <path id="Trazado_196402" data-name="Trazado 196402" d="M122.8,174.968a.48.48,0,0,0-.469.163l-3.413,3.123a.606.606,0,0,1-.752.123,5.265,5.265,0,0,0-1.46-.847.546.546,0,0,1-.346-.6l1.054-4.781a.306.306,0,0,0-.147-.342s-.012,0-.02-.012c-.1-.06-.6-.346-1.285-.744a.309.309,0,0,1,.123.02.6.6,0,0,1,.076.048l6.64,3.847Z" transform="translate(-87.42 -167.843)" fill="#0f2771"/>
        <path id="Trazado_196403" data-name="Trazado 196403" d="M131.539,209.131a.5.5,0,0,0-.211-.048l-2.868-.163a.472.472,0,0,1-.481-.469c.036-.453.064-.9.064-1.341,1.627.939,3.294,1.905,3.493,2.021Z" transform="translate(-94.656 -189.559)" fill="#0f2771"/>
        <path id="Trazado_196404" data-name="Trazado 196404" d="M102.977,257.584h0l-3.517-2.037c.33-.195.668-.41,1.007-.636.282-.191.593-.207.712-.016l1.711,2.613a.306.306,0,0,0,.088.076Z" transform="translate(-77.485 -218.255)" fill="#0f2771"/>
        <path id="Trazado_196405" data-name="Trazado 196405" d="M72.048,258.921l-1.054,4.789a.292.292,0,0,0,.139.322c-.211-.119-3.517-2.033-5.422-3.138a.625.625,0,0,0,.374-.171L69.5,257.6a.6.6,0,0,1,.744-.131,5.43,5.43,0,0,0,1.464.855.534.534,0,0,1,.342.593Z" transform="translate(-57.162 -219.838)" fill="#0f2771"/>
        <path id="Trazado_196406" data-name="Trazado 196406" d="M54.733,238.6a1.6,1.6,0,0,1-.255.465l-3.2,3.878a1.038,1.038,0,0,0-.2.39l-6.751-3.9a.963.963,0,0,1,.2-.4l3.2-3.878a1.382,1.382,0,0,0,.243-.453l6.759,3.9Z" transform="translate(-44.287 -206.181)" fill="#0f2771"/>
        <path id="Trazado_196407" data-name="Trazado 196407" d="M90.7,181.308a1.56,1.56,0,0,1-.72.68,15.03,15.03,0,0,0-2.069,1.2c-.282.191-.593.207-.72.016l-1.707-2.609a.186.186,0,0,0-.088-.08l-.028-.016-3.211-1.858c.358-.207.712-.394,1.062-.557a.984.984,0,0,0,.123-.072,1.909,1.909,0,0,0,.346-.274,1.342,1.342,0,0,0,.123-.139.374.374,0,0,0,.072-.1c.016-.032.032-.06.048-.091l6.759,3.9Z" transform="translate(-67.067 -171.674)" fill="#0f2771"/>
        <path id="Trazado_196408" data-name="Trazado 196408" d="M60.309,235.46a.926.926,0,0,1-.06.382l-6.759-3.9a.992.992,0,0,0,.064-.39,13.961,13.961,0,0,1-.06-1.424l3.218,1.862s.012.012.016.012a.459.459,0,0,0,.227.064l2.872.163a.467.467,0,0,1,.481.469,14.884,14.884,0,0,0,0,2.761Z" transform="translate(-49.803 -203.423)" fill="#0f2771"/>
        <path id="Trazado_196409" data-name="Trazado 196409" d="M68.3,200.464h0a1.27,1.27,0,0,1-.2.728,28.019,28.019,0,0,0-1.691,2.928.931.931,0,0,1-.167.223l-6.759-3.9a.37.37,0,0,0,.1-.115.429.429,0,0,0,.08-.115,26.324,26.324,0,0,1,1.687-2.932.683.683,0,0,0,.08-.151.507.507,0,0,0,.044-.107.151.151,0,0,0,.02-.06s0-.016,0-.032a.635.635,0,0,0,.032-.139.543.543,0,0,0,.016-.223l6.751,3.894Z" transform="translate(-53.41 -183.212)" fill="#0f2771"/>
        <path id="Trazado_196410" data-name="Trazado 196410" d="M59.569,206.02a.508.508,0,0,1-.1.115h0a1.356,1.356,0,0,0,.1-.115Z" transform="translate(-53.404 -188.903)" fill="#0f2771"/>
        <path id="Trazado_196411" data-name="Trazado 196411" d="M52.627,254.343c-.107-.06-.648-.374-1.377-.8-.088-.048-.171-.1-.259-.151-.664-.39-1.46-.843-2.216-1.281-.207-.119-.406-.239-.6-.346-1.174-.684-2.148-1.249-2.276-1.317l-.012-.012a.209.209,0,0,1-.056-.044.3.3,0,0,1-.044-.064l-1.524-3.365a.464.464,0,0,1-.028-.282c0-.04.016-.076.02-.115l6.751,3.9a.61.61,0,0,0,0,.406l1.52,3.361a.223.223,0,0,0,.088.1Z" transform="translate(-44.226 -213.323)" fill="#0f2771"/>
        <path id="Trazado_196412" data-name="Trazado 196412" d="M45.937,210.08a.694.694,0,0,0-.115.211l-.195.66-1.03,3.473-.35,1.189a.361.361,0,0,0,0,.195.3.3,0,0,0,.044.1.331.331,0,0,0,.08.087.559.559,0,0,0,.056.04l.529.306.147.08h0l.422.247.227.135.259.147.1.06.275.155,1.528.879.016.012,3.218,1.862a.342.342,0,0,1-.147-.4l1.388-4.674.195-.652a.619.619,0,0,1,.131-.223Z" transform="translate(-44.228 -191.348)" fill="#0f2771"/>
        <path id="Trazado_196413" data-name="Trazado 196413" d="M70.107,177.356l-3.5-2.033a.27.27,0,0,0-.151-.044.56.56,0,0,0-.39.207h0l-2.192,2.319-1.476,1.555a1.172,1.172,0,0,0-.259.457l5.16,2.959,1.6.919a1.116,1.116,0,0,1,.255-.426l.048-.048,3.62-3.831a.5.5,0,0,1,.509-.179l-3.211-1.858Z" transform="translate(-55.006 -170.391)" fill="#fff" opacity="0.5"/>
        <path id="Trazado_196414" data-name="Trazado 196414" d="M102.624,166.943a.517.517,0,0,0-.29-.044l-3.342.334a.975.975,0,0,0-.553.255l-6.759-3.9a1.029,1.029,0,0,1,.557-.267l3.342-.33a.532.532,0,0,1,.33.06c.02.016.374.215.9.525l.442.259c.82.473,1.89,1.09,2.864,1.659.243.139.481.282.708.41.179.1.35.2.513.29.684.4,1.19.684,1.285.744Z" transform="translate(-72.8 -162.989)" fill="#fff" opacity="0.5"/>
        <line id="Línea_260" data-name="Línea 260" x1="0.084" y1="0.044" transform="translate(28.659 3.234)" fill="#12263f"/>
      </g>
      <g id="Device" transform="translate(43.077 4.933)">
        <path id="Trazado_196415" data-name="Trazado 196415" d="M220.764,56.441c-.147-1.086-1.018-1.48-2.069-.871l-57.519,33.2a4.641,4.641,0,0,0-2.089,3.624V219.3c0,1.229.8,1.786,1.826,1.337a4.66,4.66,0,0,1-3.923-.131l-2.395-1.38a4.615,4.615,0,0,1-2.1-3.624V88.6a4.615,4.615,0,0,1,2.1-3.624l57.515-33.2a4.619,4.619,0,0,1,4.185,0l2.4,1.38a4.667,4.667,0,0,1,2.069,3.29Z" transform="translate(-152.5 -51.27)" fill="#0f2771"/>
        <path id="Trazado_196416" data-name="Trazado 196416" d="M228.678,61.642l-57.519,33.2a4.641,4.641,0,0,0-2.089,3.624V225.372c0,1.333.939,1.874,2.089,1.205l57.519-33.2a4.641,4.641,0,0,0,2.089-3.624V62.852c0-1.333-.939-1.874-2.089-1.205ZM227.755,177.8a2.9,2.9,0,0,1-1.794,2.438l-52.3,30.187c-.987.569-1.794.111-1.794-1.038v-98.8a3.988,3.988,0,0,1,1.794-3.111l52.3-30.183c.991-.577,1.794-.111,1.794,1.03Z" transform="translate(-162.478 -57.346)" fill="#bddcf6"/>
        <path id="Trazado_196417" data-name="Trazado 196417" d="M160.924,274.013a4.66,4.66,0,0,1-3.923-.131l-2.395-1.38a4.621,4.621,0,0,1-2.1-3.624v-126.9a4.318,4.318,0,0,1,.613-2.068l6.584,3.8a4.289,4.289,0,0,0-.613,2.06V272.677c0,1.229.8,1.786,1.826,1.337Z" transform="translate(-152.506 -104.651)" fill="#1a2e35"/>
        <path id="Trazado_196418" data-name="Trazado 196418" d="M244.49,111.952c.776-.446,1.4-.084,1.4.811a3.1,3.1,0,0,1-1.4,2.426c-.776.446-1.4.084-1.4-.811A3.1,3.1,0,0,1,244.49,111.952Z" transform="translate(-207.05 -87.699)" fill="#1a2e35"/>
        <g id="Grupo_142089" data-name="Grupo 142089" transform="translate(29.885 24.873)">
          <path id="Trazado_196419" data-name="Trazado 196419" d="M235.087,120.18c2.848-1.575,7.933-4.6,10.742-6.253.477-.278.863-.088.863.434a1.857,1.857,0,0,1-.867,1.44l-10.757,6.213c-.477.278-.867.08-.867-.438a1.789,1.789,0,0,1,.891-1.4Z" transform="translate(-231.582 -113.799)" fill="#1a2e35"/>
          <path id="Trazado_196420" data-name="Trazado 196420" d="M228.408,133.627c.434-.251.788-.048.788.453a1.746,1.746,0,0,1-.788,1.364c-.434.251-.788.048-.788-.453A1.746,1.746,0,0,1,228.408,133.627Z" transform="translate(-227.62 -125.675)" fill="#1a2e35"/>
        </g>
        <path id="Trazado_196421" data-name="Trazado 196421" d="M242.862,405.647c1.822-1.054,3.3-.2,3.3,1.905a7.309,7.309,0,0,1-3.3,5.72c-1.822,1.054-3.3.2-3.3-1.905A7.308,7.308,0,0,1,242.862,405.647Z" transform="translate(-204.924 -264.411)" fill="#12263f" stroke="#e6e6e6" stroke-miterlimit="10" stroke-width="1.36"/>
        <path id="Trazado_196422" data-name="Trazado 196422" d="M231.994,102.083v99.477a3.933,3.933,0,0,1-1.794,3.1L177.9,234.85c-.987.569-1.794.107-1.794-1.038v-6.205L223.6,200.2a2.9,2.9,0,0,0,1.794-2.434V103.825l4.806-2.777c.995-.573,1.794-.107,1.794,1.03Z" transform="translate(-166.717 -81.1)" fill="#0f2771"/>
        <path id="Trazado_196423" data-name="Trazado 196423" d="M302.941,101.059l-4.806,2.777v93.936a2.521,2.521,0,0,1-1.225,2.068l6.946,4.01a3.909,3.909,0,0,0,.879-2.279V102.089C304.735,100.951,303.936,100.486,302.941,101.059Z" transform="translate(-239.459 -81.106)" fill="#1a2e35"/>
      </g>
      <g id="Grupo_142097" data-name="Grupo 142097" transform="translate(6.531 94.424)">
        <g id="Grupo_142092" data-name="Grupo 142092" transform="translate(27.904 5.991)">
          <g id="Grupo_142090" data-name="Grupo 142090">
            <path id="Trazado_196424" data-name="Trazado 196424" d="M182.57,351.769l-2.992-1.726a.281.281,0,0,1-.139-.123l-.549-.963,1.778-1.026-.056.155,1.961,3.683Z" transform="translate(-159.75 -325.407)" fill="#e1e1e1"/>
            <path id="Trazado_196425" data-name="Trazado 196425" d="M182.66,344.08l2.073,3.588a.311.311,0,0,0,.561-.052l2.188-6.317-4.822,2.784Z" transform="translate(-162.02 -321.414)" fill="#ececec"/>
            <path id="Trazado_196426" data-name="Trazado 196426" d="M161.2,294.842a3.2,3.2,0,0,0-1.448-2.506l-1.178-.68a3.2,3.2,0,0,0-2.9,0l-23.436,13.517a3.2,3.2,0,0,0-1.448,2.506v11.866a3.2,3.2,0,0,0,1.448,2.506l1.178.68a3.2,3.2,0,0,0,2.9,0l23.572-13.616a2.242,2.242,0,0,0,1.313-2.407Z" transform="translate(-130.786 -291.309)" fill="#ececec"/>
            <path id="Trazado_196427" data-name="Trazado 196427" d="M130.788,342.164a3.2,3.2,0,0,0,1.448,2.506l1.178.68a3.24,3.24,0,0,0,2.646.123c-.68.259-1.2-.131-1.2-.959V332.649a3,3,0,0,1,.422-1.428l-4.074-2.351a2.959,2.959,0,0,0-.426,1.428v11.866Z" transform="translate(-130.78 -313.928)" fill="#e1e1e1"/>
            <path id="Trazado_196428" data-name="Trazado 196428" d="M161.805,294.427c-.167-.613-.728-.811-1.4-.426l-23.44,13.52a2.85,2.85,0,0,0-1.018,1.082l-4.07-2.351a2.943,2.943,0,0,1,1.018-1.082l23.432-13.52a3.227,3.227,0,0,1,2.9,0l1.182.68a3.182,3.182,0,0,1,1.4,2.092Z" transform="translate(-131.442 -291.307)" fill="#fafafa"/>
          </g>
          <g id="Grupo_142091" data-name="Grupo 142091" transform="translate(7.093 9.722)">
            <path id="Trazado_196429" data-name="Trazado 196429" d="M149.485,325.607l16.741-9.71c.485-.278.875-.151.875.286a1.757,1.757,0,0,1-.875,1.3l-16.741,9.71c-.485.278-.875.151-.875-.286A1.757,1.757,0,0,1,149.485,325.607Z" transform="translate(-148.61 -315.749)" fill="#bddcf6"/>
            <path id="Trazado_196430" data-name="Trazado 196430" d="M149.485,335.6l16.741-9.706c.485-.278.875-.151.875.286a1.757,1.757,0,0,1-.875,1.3l-16.741,9.706c-.485.278-.875.151-.875-.286A1.757,1.757,0,0,1,149.485,335.6Z" transform="translate(-148.61 -321.772)" fill="#bddcf6"/>
          </g>
        </g>
        <g id="Grupo_142096" data-name="Grupo 142096">
          <g id="Grupo_142094" data-name="Grupo 142094">
            <g id="Grupo_142093" data-name="Grupo 142093" transform="translate(8.732 32.893)">
              <path id="Trazado_196431" data-name="Trazado 196431" d="M86.27,362.779l-2.992-1.726a.281.281,0,0,1-.139-.123l-.549-.963,1.778-1.026-.056.155,1.961,3.683Z" transform="translate(-82.59 -358.94)" fill="#feca2e"/>
              <path id="Trazado_196432" data-name="Trazado 196432" d="M86.27,362.779l-2.992-1.726a.281.281,0,0,1-.139-.123l-.549-.963,1.778-1.026-.056.155,1.961,3.683Z" transform="translate(-82.59 -358.94)" fill="#0f2771"/>
            </g>
            <path id="Trazado_196433" data-name="Trazado 196433" d="M86.36,355.09l2.073,3.588a.311.311,0,0,0,.561-.052l2.188-6.317-4.822,2.784Z" transform="translate(-76.128 -322.054)" fill="#feca2e"/>
            <path id="Trazado_196434" data-name="Trazado 196434" d="M95.445,279.782A3.2,3.2,0,0,0,94,277.276l-1.178-.68a3.2,3.2,0,0,0-2.9,0L62.1,292.662a3.2,3.2,0,0,0-1.448,2.506v13.656A3.2,3.2,0,0,0,62.1,311.33l1.178.68a3.2,3.2,0,0,0,2.9,0l27.96-16.166a2.242,2.242,0,0,0,1.313-2.407Z" transform="translate(-60.646 -276.249)" fill="#feca2e"/>
            <path id="Trazado_196435" data-name="Trazado 196435" d="M60.648,335.3A3.2,3.2,0,0,0,62.1,337.81l1.178.68a3.24,3.24,0,0,0,2.646.123c-.68.259-1.2-.131-1.2-.959V324a3,3,0,0,1,.422-1.428l-4.074-2.351a2.959,2.959,0,0,0-.426,1.428V335.3Z" transform="translate(-60.64 -302.729)" fill="#0f2771"/>
            <path id="Trazado_196436" data-name="Trazado 196436" d="M96.069,279.367c-.167-.613-.728-.811-1.4-.426l-27.825,16.07a2.851,2.851,0,0,0-1.018,1.082l-4.07-2.351a2.943,2.943,0,0,1,1.018-1.082L90.6,276.591a3.228,3.228,0,0,1,2.9,0l1.182.68a3.182,3.182,0,0,1,1.4,2.092Z" transform="translate(-61.314 -276.247)" fill="#fff" opacity="0.4"/>
          </g>
          <g id="Grupo_142095" data-name="Grupo 142095" transform="translate(7.097 8.525)">
            <path id="Trazado_196437" data-name="Trazado 196437" d="M79.355,325.948,94.4,317.237c.485-.278.875-.151.875.286a1.757,1.757,0,0,1-.875,1.3l-15.046,8.711c-.485.278-.875.151-.875-.286A1.757,1.757,0,0,1,79.355,325.948Z" transform="translate(-78.48 -309.368)" fill="#fff"/>
            <path id="Trazado_196438" data-name="Trazado 196438" d="M79.355,330.566l21.129-12.26c.485-.278.875-.151.875.286a1.757,1.757,0,0,1-.875,1.3L79.355,332.15c-.485.278-.875.151-.875-.286A1.757,1.757,0,0,1,79.355,330.566Z" transform="translate(-78.48 -310.013)" fill="#fff"/>
            <path id="Trazado_196439" data-name="Trazado 196439" d="M79.355,310.086l21.129-12.26c.485-.278.875-.151.875.286a1.757,1.757,0,0,1-.875,1.3L79.355,311.669c-.485.278-.875.151-.875-.286A1.757,1.757,0,0,1,79.355,310.086Z" transform="translate(-78.48 -297.679)" fill="#fff"/>
          </g>
        </g>
      </g>
      <g id="Grupo_142100" data-name="Grupo 142100" transform="translate(154.096 26.295)">
        <path id="Trazado_196440" data-name="Trazado 196440" d="M483.812,106.332l-2.192-1.265h0a.99.99,0,0,0-.995.1l-47.661,27.514a3.1,3.1,0,0,0-1.4,2.43v24.626a.972.972,0,0,0,.426.915h0l2.184,1.265v-2.064l46.455-26.818a3.1,3.1,0,0,0,1.4-2.43V107.243l1.782-.907Z" transform="translate(-431.56 -104.973)" fill="#e1e1e1"/>
        <path id="Trazado_196441" data-name="Trazado 196441" d="M436.574,136.018l46.081-26.6v-2.18l1.782-.907-2.192-1.265h0a.99.99,0,0,0-.995.1l-47.661,27.514a2.857,2.857,0,0,0-.991,1.046l3.978,2.3Z" transform="translate(-432.186 -104.973)" fill="#fafafa"/>
        <path id="Trazado_196442" data-name="Trazado 196442" d="M438.474,135.856l47.661-27.514c.776-.446,1.4-.084,1.4.811v24.626a3.1,3.1,0,0,1-1.4,2.43l-47.661,27.514c-.776.446-1.4.084-1.4-.811V138.286a3.1,3.1,0,0,1,1.4-2.43Z" transform="translate(-434.878 -106.887)" fill="#f5f5f5"/>
        <g id="Grupo_142099" data-name="Grupo 142099" transform="translate(4.388 22.903)">
          <path id="Trazado_196443" data-name="Trazado 196443" d="M444.229,171.014l14.278-8.242c.9-.521,1.639-.1,1.639.947v16.488a3.615,3.615,0,0,1-1.639,2.836l-14.278,8.242c-.9.521-1.639.1-1.639-.947V173.854a3.615,3.615,0,0,1,1.639-2.836Z" transform="translate(-442.59 -162.549)" fill="#feca2e"/>
          <g id="Grupo_142098" data-name="Grupo 142098" transform="translate(3.489 7.485)">
            <path id="Trazado_196444" data-name="Trazado 196444" d="M460.2,181.742c1.516-.875,2.741-.167,2.741,1.583a6.066,6.066,0,0,1-2.741,4.749c-1.516.875-2.741.167-2.741-1.583A6.066,6.066,0,0,1,460.2,181.742Z" transform="translate(-455.033 -181.367)" fill="#fafafa"/>
            <path id="Trazado_196445" data-name="Trazado 196445" d="M461.93,200.816c0-2.872-2.017-4.149-4.507-2.713l-1.556.9a9.962,9.962,0,0,0-4.507,7.8v.772l10.566-6.094v-.664Z" transform="translate(-451.36 -191.089)" fill="#fafafa"/>
          </g>
        </g>
        <path id="Trazado_196446" data-name="Trazado 196446" d="M498.92,138.461l19.6-11.317c.645-.374,1.17-.107,1.17.593a2.511,2.511,0,0,1-1.17,1.941l-19.6,11.317c-.644.374-1.17.107-1.17-.593A2.5,2.5,0,0,1,498.92,138.461Z" transform="translate(-471.417 -118.223)" fill="#e1e1e1"/>
        <path id="Trazado_196447" data-name="Trazado 196447" d="M498.92,151.191l19.6-11.317c.645-.374,1.17-.107,1.17.593a2.511,2.511,0,0,1-1.17,1.941l-19.6,11.317c-.644.374-1.17.107-1.17-.593A2.5,2.5,0,0,1,498.92,151.191Z" transform="translate(-471.417 -125.889)" fill="#e1e1e1"/>
        <path id="Trazado_196448" data-name="Trazado 196448" d="M498.92,163.931l19.6-11.317c.645-.374,1.17-.107,1.17.593a2.511,2.511,0,0,1-1.17,1.941l-19.6,11.317c-.644.374-1.17.107-1.17-.593A2.5,2.5,0,0,1,498.92,163.931Z" transform="translate(-471.417 -133.561)" fill="#e1e1e1"/>
        <path id="Trazado_196449" data-name="Trazado 196449" d="M498.92,176.671l19.6-11.317c.645-.374,1.17-.107,1.17.593a2.511,2.511,0,0,1-1.17,1.941L498.92,179.2c-.644.374-1.17.107-1.17-.593A2.5,2.5,0,0,1,498.92,176.671Z" transform="translate(-471.417 -141.233)" fill="#e1e1e1"/>
      </g>
      <g id="Grupo_142101" data-name="Grupo 142101" transform="translate(70.316 20.89)">
        <path id="Trazado_196450" data-name="Trazado 196450" d="M277.518,192.812a2.9,2.9,0,0,1-1.794,2.438l-52.3,30.187c-.987.569-1.794.111-1.794-1.038V125.6a3.988,3.988,0,0,1,1.794-3.111l52.3-30.183c.991-.577,1.794-.111,1.794,1.03Z" transform="translate(-221.367 -91.789)" fill="#feca2e" opacity="0.2"/>
        <path id="Trazado_196451" data-name="Trazado 196451" d="M222.231,225.549a1.15,1.15,0,0,1-.6-.159,1.515,1.515,0,0,1-.66-1.4v-98.8a4.218,4.218,0,0,1,1.929-3.341l52.3-30.183a1.356,1.356,0,0,1,2.2,1.265v99.477a3.209,3.209,0,0,1-1.929,2.673l-52.3,30.187a1.909,1.909,0,0,1-.935.282Zm53.9-133.626a1.355,1.355,0,0,0-.664.211l-52.3,30.183a3.687,3.687,0,0,0-1.659,2.876V224a.833.833,0,0,0,1.388.8l52.3-30.187c1.146-.66,1.659-1.341,1.659-2.2V92.93a1.013,1.013,0,0,0-.39-.927.647.647,0,0,0-.33-.084Z" transform="translate(-220.97 -91.384)" fill="#feca2e"/>
      </g>
      <g id="Character" transform="translate(106.514 76.006)">
        <path id="Trazado_196452" data-name="Trazado 196452" d="M419.558,302.016c.378-14.065-.748-17.439-4.5-20.016l-1.452,8.15s1.707,9.606,1.524,12.8a44.012,44.012,0,0,1-1.1,8.6,1.727,1.727,0,0,1-.744.963,9.865,9.865,0,0,0-2.057,1.961c-.561.589-1.042.736-.967.923a.928.928,0,0,0,1.186.422,6.5,6.5,0,0,0,1.353-.736,8.559,8.559,0,0,1-1.384,2.383c-1.337,1.639-1.4,2.645,1.3,2.669,1.691.016,3.043-1.03,4.316-4.757a30.241,30.241,0,0,0,1.19-4.185,74.711,74.711,0,0,0,1.329-9.181Z" transform="translate(-371.152 -261.294)" fill="#ffa8a7"/>
        <path id="Trazado_196453" data-name="Trazado 196453" d="M414.41,279.207a5.4,5.4,0,0,1,5.788,2.924c1.571,2.808,1.953,7.637,2.132,12.439a7.627,7.627,0,0,1-6.859,1.325l-1.062-16.687Z" transform="translate(-373.651 -259.57)" fill="#0f2771"/>
        <g id="Grupo_142105" data-name="Grupo 142105" transform="translate(20.638)">
          <g id="Grupo_142102" data-name="Grupo 142102" transform="translate(0 43.728)">
            <path id="Trazado_196454" data-name="Trazado 196454" d="M415.269,466.182c.282.107.354.648.4,1.722.032.815.207,2.232-.748,2.518a2.983,2.983,0,0,1-2.96-.628c-.764-.959-1.277-1.8-2.367-2.967a8.276,8.276,0,0,1-2.347-3.377c-.346-1.285-.056-1.842.82-2.216,1.205-.513,3.1,1.165,4.042,1.428.812.227,2.876,3.413,3.159,3.52Z" transform="translate(-389.889 -412.901)" fill="#1a2e35"/>
            <path id="Trazado_196455" data-name="Trazado 196455" d="M422.054,470.6v1.321a3.237,3.237,0,0,1-3.338.091c-.06-.127-.346-1.889-.346-1.889l3.684.477Z" transform="translate(-396.674 -418.311)" fill="#ffa8a7"/>
            <path id="Trazado_196456" data-name="Trazado 196456" d="M378.524,492.94s.378,1.15.585,2.152a5.823,5.823,0,0,1,.115,2.733c-.278.6-1.369.987-3.059.975a9.943,9.943,0,0,0-3.97,1.388,10.486,10.486,0,0,1-4.993.792c-1.5-.175-3.063-1.05-3.306-1.671s.08-1.269,3.624-2.781c.032-.012,4.925-1.607,6.64-3.5l4.36-.088Z" transform="translate(-363.833 -432.054)" fill="#1a2e35"/>
            <path id="Trazado_196457" data-name="Trazado 196457" d="M394.157,489.36s0,.979,0,1.539-.656,1.392-2.367,1.333c-1.2-.044-2.041-.366-1.993-1.356v-1.428Z" transform="translate(-379.467 -429.898)" fill="#ffa8a7"/>
            <path id="Trazado_196458" data-name="Trazado 196458" d="M398.34,374.643a35.869,35.869,0,0,0-1.56-6.874s.469-5.931.7-11.555c.243-6.074-.012-13.711.1-15.223,0,0-19.605-3.966-19.951,3.055s.776,24.9,1.007,27.98.764,5.812,1.4,10.812c.629,4.932,2.391,16.587,2.391,16.587a4.632,4.632,0,0,0,4.36-.087s1.38-14.042,1.233-17.6a30.323,30.323,0,0,0-1.349-7.769s.37-5.792.7-10.828.676-7.454.752-9.646l.422-.211s.43,8.688.66,11.774.724,6.042,1.615,11.77c.776,4.972,3.079,15.485,3.079,15.485a2.945,2.945,0,0,0,3.577-.159s1.464-13.2.859-17.518Z" transform="translate(-372.1 -339.875)" fill="#0f2771"/>
            <path id="Trazado_196459" data-name="Trazado 196459" d="M404.12,367.375a41.154,41.154,0,0,0,7.137-4.455,15.753,15.753,0,0,1-5.112,4.495s-1.03,10.792-1.026,10.577l-.6-10.633Z" transform="translate(-388.093 -353.753)" fill="#1a2e35"/>
          </g>
          <path id="Trazado_196460" data-name="Trazado 196460" d="M393.48,271.793l1.158,6.384,5.769-.422L399.2,270.52Z" transform="translate(-381.686 -254.38)" fill="#ffa8a7"/>
          <path id="Trazado_196461" data-name="Trazado 196461" d="M396.929,282.588c-.573-1.734-2.773-3.624-4.977-3.214a64.83,64.83,0,0,0-9.651,2.411c-2.017.72-3.855,2.462-4.022,9.1,0,0-.676,15.47-.688,18.461a24.458,24.458,0,0,0,13.248,1.3c6.063-1.325,6.795-3.839,6.795-3.839s.08-11.126-.1-15.931c-.155-4.081-.207-7.1-.6-8.294Z" transform="translate(-372.117 -259.678)" fill="#feca2e"/>
          <g id="Grupo_142103" data-name="Grupo 142103" transform="translate(6.042 2.837)">
            <path id="Trazado_196462" data-name="Trazado 196462" d="M380.322,254.2s-1.464,2.331-1.285,2.554,1.3.4,1.3.4l-.012-2.952Z" transform="translate(-379.022 -247.388)" fill="#f28f8f"/>
            <path id="Trazado_196463" data-name="Trazado 196463" d="M386.266,237.44c-3.051.716-3.9,2.08-4.082,6.957-.187,5.092.37,6.679,1.05,7.347.461.453,2.972.477,4.225.1,1.571-.473,5.12-1.818,6.739-4.415,1.9-3.055,2.327-7.144.183-8.771C391.359,236.374,387.508,237.149,386.266,237.44Z" transform="translate(-380.904 -237.076)" fill="#ffa8a7"/>
          </g>
          <g id="Grupo_142104" data-name="Grupo 142104" transform="translate(6.746)">
            <path id="Trazado_196464" data-name="Trazado 196464" d="M381.4,234.41a6.219,6.219,0,0,0,2.837,2.263c.585.664.263,3.266,1.293,3.675,0,0,.442-1.889,2.033-1.691s1.862,2.232.883,3.489-1.926.8-1.926.8a8.355,8.355,0,0,0,1.333,4.181,8.094,8.094,0,0,0,3.843-.179c1.524-.362,3.648-2.323,4.511-4.372,1.83-4.332,1.878-8.194-.887-9.288-.342-1.969-1.918-2.82-3.7-3.186-3.839-.792-6.314,1.6-9.266,1.4-1.691-.119-2.009,1.114-.959,2.908Z" transform="translate(-380.791 -229.945)" fill="#1a2e35"/>
            <path id="Trazado_196465" data-name="Trazado 196465" d="M417.242,237.57l1.81-1.122a1.063,1.063,0,0,0-1.806,1.122Z" transform="translate(-402.646 -233.559)" fill="#1a2e35"/>
          </g>
        </g>
        <path id="Trazado_196466" data-name="Trazado 196466" d="M318.392,296.966c.947.422,12.122,8.68,13.865,7.717s10.678-11.4,10.678-11.4a7.215,7.215,0,0,0,0-7.832,7.354,7.354,0,0,0-4.364,2.8c-1.5,2.267-7.977,10.39-7.977,10.39q-2.4-1.2-4.782-2.434c-1.309-.676-2.622-1.356-3.9-2.084a4.826,4.826,0,0,1-1.007-.621c-.633-.625-.525-2.136-.513-2.959a11.063,11.063,0,0,1,.056-1.15c.056-.469.143-1.619-.7-1.253a1.066,1.066,0,0,0-.4.338,1.949,1.949,0,0,0-.3.577c-.159.5-.107,1.042-.255,1.543a.417.417,0,0,1-.1.2.371.371,0,0,1-.267.083c-1.233-.036-2.395-1.762-2.964-2.677a2.5,2.5,0,0,0-.935-1.066,1.668,1.668,0,0,0-1.918.74,3.886,3.886,0,0,0-.609,2.713,5.4,5.4,0,0,0,1.6,3.4,16.552,16.552,0,0,0,4.8,2.987Z" transform="translate(-311.958 -263.371)" fill="#ffa8a7"/>
        <path id="Trazado_196467" data-name="Trazado 196467" d="M375.882,284.6a7.191,7.191,0,0,0-5.287,2.506c-2.343,2.657-5.434,6.993-5.434,6.993a6.848,6.848,0,0,0,5.4,5.088s4.229-4.332,5.4-6.715,1.365-6.257-.088-7.868Z" transform="translate(-343.994 -262.859)" fill="#0f2771"/>
      </g>
      <g id="Grupo_142110" data-name="Grupo 142110" transform="translate(138.45 0)">
        <g id="Grupo_142106" data-name="Grupo 142106" transform="translate(17.488 23.374)">
          <path id="Trazado_196468" data-name="Trazado 196468" d="M446.3,120.509V103.48l10.061,6.647A32.139,32.139,0,0,1,446.3,120.509Z" transform="translate(-442.278 -101.153)" fill="#bddcf6"/>
          <path id="Trazado_196469" data-name="Trazado 196469" d="M440.212,99.953,436.19,97.63v17.033l4.022,2.323Z" transform="translate(-436.19 -97.63)" fill="#0f2771"/>
        </g>
        <g id="Grupo_142107" data-name="Grupo 142107" transform="translate(18.307 10.478)">
          <path id="Trazado_196470" data-name="Trazado 196470" d="M457.354,67.533,442.276,78.373l-4.026-2.323L453.332,65.21Z" transform="translate(-438.25 -65.21)" fill="#feca2e"/>
          <path id="Trazado_196471" data-name="Trazado 196471" d="M457.354,67.533,442.276,78.373l-4.026-2.323L453.332,65.21Z" transform="translate(-438.25 -65.21)" fill="#0f2771"/>
          <path id="Trazado_196472" data-name="Trazado 196472" d="M463.448,71.044c.41,5.5-1.213,11.575-4.718,17.689l-6.29-4.157-4.07-2.693L463.448,71.04Z" transform="translate(-444.344 -68.721)" fill="#feca2e"/>
          <path id="Trazado_196473" data-name="Trazado 196473" d="M463.448,71.044c.41,5.5-1.213,11.575-4.718,17.689l-6.29-4.157-4.07-2.693L463.448,71.04Z" transform="translate(-444.344 -68.721)" fill="#0f2771"/>
          <path id="Trazado_196474" data-name="Trazado 196474" d="M452.636,101.633l-4.022-2.323L438.25,92.46l4.026,2.323Z" transform="translate(-438.25 -81.621)" fill="#feca2e"/>
          <path id="Trazado_196475" data-name="Trazado 196475" d="M452.636,101.633l-4.022-2.323L438.25,92.46l4.026,2.323Z" transform="translate(-438.25 -81.621)" fill="#0f2771"/>
        </g>
        <g id="Grupo_142108" data-name="Grupo 142108" transform="translate(13.422)">
          <path id="Trazado_196476" data-name="Trazado 196476" d="M428.846,55.071,425.97,43.42c.406-.326.792-.625,1.257-.959,5.307-3.819,10.352-4.507,13.868-2.474l3.978,2.3c1.186,1.444.282,3,.668,5.41L430,59.013l-.159.111-1-4.057Z" transform="translate(-425.97 -38.868)" fill="#feca2e"/>
          <path id="Trazado_196477" data-name="Trazado 196477" d="M428.846,55.071,425.97,43.42c.406-.326.792-.625,1.257-.959,5.307-3.819,10.352-4.507,13.868-2.474l3.978,2.3c1.186,1.444.282,3,.668,5.41L430,59.013l-.159.111-1-4.057Z" transform="translate(-425.97 -38.868)" fill="#fff" opacity="0.7"/>
          <path id="Trazado_196478" data-name="Trazado 196478" d="M438.956,60.91,436.08,49.26c.406-.33.792-.625,1.257-.959,8.888-6.4,17.035-4.01,18.515,5.235L440.11,64.852l-.159.111-1-4.057Z" transform="translate(-432.058 -42.385)" fill="#feca2e"/>
          <path id="Trazado_196479" data-name="Trazado 196479" d="M438.956,60.91,436.08,49.26c.406-.33.792-.625,1.257-.959,8.888-6.4,17.035-4.01,18.515,5.235L440.11,64.852l-.159.111-1-4.057Z" transform="translate(-432.058 -42.385)" fill="#fff" opacity="0.5"/>
          <path id="Trazado_196480" data-name="Trazado 196480" d="M425.98,50.3,430,52.623l3.875,15.708-4.022-2.319Z" transform="translate(-425.976 -45.753)" fill="#feca2e"/>
          <path id="Trazado_196481" data-name="Trazado 196481" d="M425.98,50.3,430,52.623l3.875,15.708-4.022-2.319Z" transform="translate(-425.976 -45.753)" fill="#0f2771"/>
        </g>
        <g id="Grupo_142109" data-name="Grupo 142109" transform="translate(0 5.836)">
          <path id="Trazado_196482" data-name="Trazado 196482" d="M408.185,88.994c-2.6,1.372-4.838,3.266-6.99,3.186l-4.022-2.323c-2.1-1.2-3.66-3.413-4.436-6.555-1.082-4.38-.41-9.952,1.89-15.7A39.149,39.149,0,0,1,404.17,53.54l4.022,2.323L406.7,63.8l1.484,6.022V88.99Z" transform="translate(-392.232 -53.54)" fill="#feca2e"/>
          <path id="Trazado_196483" data-name="Trazado 196483" d="M408.185,88.994c-2.6,1.372-4.838,3.266-6.99,3.186l-4.022-2.323c-2.1-1.2-3.66-3.413-4.436-6.555-1.082-4.38-.41-9.952,1.89-15.7A39.149,39.149,0,0,1,404.17,53.54l4.022,2.323L406.7,63.8l1.484,6.022V88.99Z" transform="translate(-392.232 -53.54)" fill="#0f2771"/>
          <path id="Trazado_196484" data-name="Trazado 196484" d="M418.288,94.834c-7.467,3.938-13.622,1.714-15.452-5.692-1.082-4.38-.41-9.952,1.89-15.7A39.148,39.148,0,0,1,414.27,59.38l2.53,10.259,1.484,6.022V94.83Z" transform="translate(-398.314 -57.057)" fill="#feca2e"/>
        </g>
      </g>
      <g id="Grupo_142112" data-name="Grupo 142112" transform="translate(167.456 66.593)">
        <g id="Grupo_142111" data-name="Grupo 142111">
          <path id="Trazado_196485" data-name="Trazado 196485" d="M465.14,228.277a1.544,1.544,0,0,1,.7-1.209l35.722-20.621a1.543,1.543,0,0,1,1.4,0l.788.453a1.544,1.544,0,0,1,.7,1.209v27.375a1.557,1.557,0,0,1-.7,1.209l-35.722,20.621a1.543,1.543,0,0,1-1.4,0l-.788-.453a1.55,1.55,0,0,1-.7-1.209V228.277Z" transform="translate(-465.14 -206.28)" fill="#feca2e"/>
          <path id="Trazado_196486" data-name="Trazado 196486" d="M465.14,228.277a1.544,1.544,0,0,1,.7-1.209l35.722-20.621a1.543,1.543,0,0,1,1.4,0l.788.453a1.544,1.544,0,0,1,.7,1.209v27.375a1.557,1.557,0,0,1-.7,1.209l-35.722,20.621a1.543,1.543,0,0,1-1.4,0l-.788-.453a1.55,1.55,0,0,1-.7-1.209V228.277Z" transform="translate(-465.14 -206.28)" fill="#fff" opacity="0.4"/>
          <path id="Trazado_196487" data-name="Trazado 196487" d="M468.414,261.624l-3.071-1.774a1.414,1.414,0,0,0-.2.688v27.375a1.551,1.551,0,0,0,.7,1.209l.788.453a1.543,1.543,0,0,0,1.4,0l.394-.227V261.62Z" transform="translate(-465.14 -238.541)" fill="#feca2e"/>
          <path id="Trazado_196488" data-name="Trazado 196488" d="M468.414,261.624l-3.071-1.774a1.414,1.414,0,0,0-.2.688v27.375a1.551,1.551,0,0,0,.7,1.209l.788.453a1.543,1.543,0,0,0,1.4,0l.394-.227V261.62Z" transform="translate(-465.14 -238.541)" fill="#0f2771"/>
          <path id="Trazado_196489" data-name="Trazado 196489" d="M507.736,210.309v27.375a1.426,1.426,0,0,1-.219.708,1.523,1.523,0,0,1-.41.457l-.028.016a.3.3,0,0,1-.048.028L471.31,259.511h0a.5.5,0,0,1-.477.056.482.482,0,0,1-.219-.461V231.73a.6.6,0,0,1,.784-.617l15.022,3.572,1.965.469a1.291,1.291,0,0,0,1.253-.469l2.28-3.174,15.341-21.353c.259-.362.469-.294.469.155Z" transform="translate(-468.434 -208.476)" fill="#feca2e"/>
          <path id="Trazado_196490" data-name="Trazado 196490" d="M539.3,271.573a.294.294,0,0,1,.048-.028l.028-.016a1.524,1.524,0,0,0,.41-.457,1.408,1.408,0,0,0,.215-.7l-15.81-6.185,10.586,10Z" transform="translate(-500.698 -241.155)" fill="#feca2e"/>
          <path id="Trazado_196491" data-name="Trazado 196491" d="M539.3,271.573a.294.294,0,0,1,.048-.028l.028-.016a1.524,1.524,0,0,0,.41-.457,1.408,1.408,0,0,0,.215-.7l-15.81-6.185,10.586,10Z" transform="translate(-500.698 -241.155)" fill="#0f2771"/>
          <path id="Trazado_196492" data-name="Trazado 196492" d="M470.63,296.594a.486.486,0,0,0,.219.461.5.5,0,0,0,.477-.056h0l12.3-7.1,2.809-17.729L470.63,296.14Z" transform="translate(-468.446 -245.96)" fill="#feca2e"/>
          <path id="Trazado_196493" data-name="Trazado 196493" d="M470.63,296.594a.486.486,0,0,0,.219.461.5.5,0,0,0,.477-.056h0l12.3-7.1,2.809-17.729L470.63,296.14Z" transform="translate(-468.446 -245.96)" fill="#0f2771"/>
          <path id="Trazado_196494" data-name="Trazado 196494" d="M507.854,270.308a1.524,1.524,0,0,1-.41.457l-.028.016L471.651,291.43h0a.5.5,0,0,1-.477.056l17.1-27.3a2.685,2.685,0,0,1,3.362-1.03l16.216,7.156Z" transform="translate(-468.771 -240.391)" fill="#feca2e"/>
        </g>
        <path id="Trazado_196495" data-name="Trazado 196495" d="M470.63,230.345l16.427,7.252a2.688,2.688,0,0,0,3.366-1.034l17.25-27.6Z" transform="translate(-468.446 -207.894)" fill="#feca2e"/>
        <path id="Trazado_196496" data-name="Trazado 196496" d="M470.63,230.345l16.427,7.252a2.688,2.688,0,0,0,3.366-1.034l17.25-27.6Z" transform="translate(-468.446 -207.894)" fill="#0f2771"/>
        <path id="Trazado_196497" data-name="Trazado 196497" d="M470.63,230.339l16.542,6.178a2.685,2.685,0,0,0,3.191-1.05l17.31-26.516L470.63,230.335Z" transform="translate(-468.446 -207.888)" fill="#feca2e"/>
      </g>
    </g>
  </g>
</svg>
