<svg xmlns="http://www.w3.org/2000/svg" width="400" height="238.81" viewBox="0 0 400 238.81">
  <g id="Grupo_146518" data-name="Grupo 146518" transform="translate(-285 -400)">
    <g id="Pitch_meeting-pana" data-name="Pitch meeting-pana" transform="translate(267.37 374.95)">
      <g id="freepik--background-complete--inject-61" transform="translate(30.979 25.05)">
        <rect id="Rectángulo_45908" data-name="Rectángulo 45908" width="82.734" height="74.016" transform="translate(0.101 25.604)" fill="#fafafa"/>
        <path id="Trazado_207987" data-name="Trazado 207987" d="M124.275,144.49v-5.343c0-3.476-.028-8.555-.05-15.025,0-12.928-.056-31.4-.1-53.648l.191.185-82.728.034h0l.224-.219c0,26.911,0,52.263-.028,74l-.2-.2,59.837.1,16.875.056h.112l-16.819.05-59.96.1h-.2V70.16h.224l82.728.034h.185v.191c-.039,22.285-.073,40.809-.1,53.765,0,6.453-.039,11.521-.05,14.986v3.924A5.547,5.547,0,0,1,124.275,144.49Z" transform="translate(-41.44 -44.87)" fill="#e0e0e0"/>
        <path id="Trazado_207988" data-name="Trazado 207988" d="M82.959,94c0,.123-4.351.224-9.722.224s-9.727-.1-9.727-.224,4.351-.219,9.727-.219S82.959,93.9,82.959,94Z" transform="translate(-51.137 -55.247)" fill="#e0e0e0"/>
        <path id="Trazado_207989" data-name="Trazado 207989" d="M118.855,103.914c0,.118-11.964.219-26.72.219s-26.715-.1-26.715-.219,11.958-.224,26.715-.224S118.855,103.791,118.855,103.914Z" transform="translate(-51.976 -59.601)" fill="#e0e0e0"/>
        <rect id="Rectángulo_45909" data-name="Rectángulo 45909" width="3.487" height="3.487" transform="translate(12.513 53.726)" fill="#e0e0e0"/>
        <rect id="Rectángulo_45910" data-name="Rectángulo 45910" width="3.487" height="3.487" transform="translate(21.097 53.726)" fill="#e0e0e0"/>
        <rect id="Rectángulo_45911" data-name="Rectángulo 45911" width="3.487" height="3.487" transform="translate(29.832 53.564)" fill="#e0e0e0"/>
        <rect id="Rectángulo_45912" data-name="Rectángulo 45912" width="3.487" height="3.487" transform="translate(38.252 53.726)" fill="#e0e0e0"/>
        <rect id="Rectángulo_45913" data-name="Rectángulo 45913" width="3.487" height="3.487" transform="translate(46.836 53.726)" fill="#e0e0e0"/>
        <rect id="Rectángulo_45914" data-name="Rectángulo 45914" width="3.487" height="3.487" transform="translate(55.414 53.726)" fill="#e0e0e0"/>
        <rect id="Rectángulo_45915" data-name="Rectángulo 45915" width="3.487" height="3.487" transform="translate(63.991 53.726)" fill="#ebebeb"/>
        <rect id="Rectángulo_45916" data-name="Rectángulo 45916" width="3.487" height="3.487" transform="translate(12.513 61.132)" fill="#ebebeb"/>
        <rect id="Rectángulo_45917" data-name="Rectángulo 45917" width="3.487" height="3.487" transform="translate(21.097 61.132)" fill="#e0e0e0"/>
        <rect id="Rectángulo_45918" data-name="Rectángulo 45918" width="3.487" height="3.487" transform="translate(29.675 61.132)" fill="#ebebeb"/>
        <rect id="Rectángulo_45919" data-name="Rectángulo 45919" width="3.487" height="3.487" transform="translate(38.252 61.132)" fill="#e0e0e0"/>
        <rect id="Rectángulo_45920" data-name="Rectángulo 45920" width="3.487" height="3.487" transform="translate(46.836 61.132)" fill="#e0e0e0"/>
        <rect id="Rectángulo_45921" data-name="Rectángulo 45921" width="3.487" height="3.487" transform="translate(55.571 60.975)" fill="#e0e0e0"/>
        <rect id="Rectángulo_45922" data-name="Rectángulo 45922" width="3.487" height="3.487" transform="translate(63.991 61.132)" fill="#e0e0e0"/>
        <rect id="Rectángulo_45923" data-name="Rectángulo 45923" width="3.487" height="3.487" transform="translate(12.513 68.544)" fill="#e0e0e0"/>
        <rect id="Rectángulo_45924" data-name="Rectángulo 45924" width="3.487" height="3.487" transform="translate(21.254 68.387)" fill="#e0e0e0"/>
        <rect id="Rectángulo_45925" data-name="Rectángulo 45925" width="3.487" height="3.487" transform="translate(29.675 68.544)" fill="#e0e0e0"/>
        <rect id="Rectángulo_45926" data-name="Rectángulo 45926" width="3.487" height="3.487" transform="translate(38.252 68.544)" fill="#ebebeb"/>
        <rect id="Rectángulo_45927" data-name="Rectángulo 45927" width="3.487" height="3.487" transform="translate(46.836 68.544)" fill="#e0e0e0"/>
        <rect id="Rectángulo_45928" data-name="Rectángulo 45928" width="3.487" height="3.487" transform="translate(55.414 68.544)" fill="#e0e0e0"/>
        <rect id="Rectángulo_45929" data-name="Rectángulo 45929" width="3.487" height="3.487" transform="translate(63.991 68.544)" fill="#e0e0e0"/>
        <rect id="Rectángulo_45930" data-name="Rectángulo 45930" width="3.487" height="3.487" transform="translate(12.513 75.956)" fill="#e0e0e0"/>
        <rect id="Rectángulo_45931" data-name="Rectángulo 45931" width="3.487" height="3.487" transform="translate(21.097 75.956)" fill="#e0e0e0"/>
        <rect id="Rectángulo_45932" data-name="Rectángulo 45932" width="3.487" height="3.487" transform="translate(29.675 75.956)" fill="#e0e0e0"/>
        <rect id="Rectángulo_45933" data-name="Rectángulo 45933" width="3.487" height="3.487" transform="translate(38.409 75.793)" fill="#e0e0e0"/>
        <rect id="Rectángulo_45934" data-name="Rectángulo 45934" width="3.487" height="3.487" transform="translate(46.836 75.956)" fill="#e0e0e0"/>
        <rect id="Rectángulo_45935" data-name="Rectángulo 45935" width="3.487" height="3.487" transform="translate(55.414 75.956)" fill="#ebebeb"/>
        <rect id="Rectángulo_45936" data-name="Rectángulo 45936" width="3.487" height="3.487" transform="translate(63.991 75.956)" fill="#e0e0e0"/>
        <rect id="Rectángulo_45937" data-name="Rectángulo 45937" width="3.487" height="3.487" transform="translate(12.513 83.362)" fill="#e0e0e0"/>
        <rect id="Rectángulo_45938" data-name="Rectángulo 45938" width="3.487" height="3.487" transform="translate(21.097 83.362)" fill="#ebebeb"/>
        <rect id="Rectángulo_45939" data-name="Rectángulo 45939" width="3.487" height="3.487" transform="translate(29.675 83.362)" fill="#e0e0e0"/>
        <rect id="Rectángulo_45940" data-name="Rectángulo 45940" width="3.487" height="3.487" transform="translate(38.252 83.362)" fill="#e0e0e0"/>
        <rect id="Rectángulo_45941" data-name="Rectángulo 45941" width="3.487" height="3.487" transform="translate(46.836 83.362)" fill="#e0e0e0"/>
        <rect id="Rectángulo_45942" data-name="Rectángulo 45942" width="3.487" height="3.487" transform="translate(55.571 83.205)" fill="#e0e0e0"/>
        <rect id="Rectángulo_45943" data-name="Rectángulo 45943" width="3.487" height="3.487" transform="translate(63.991 83.362)" fill="#e0e0e0"/>
        <rect id="Rectángulo_45944" data-name="Rectángulo 45944" width="3.986" height="85.716" transform="translate(376.913 32.119)" fill="#e0e0e0"/>
        <rect id="Rectángulo_45945" data-name="Rectángulo 45945" width="57.225" height="85.172" rx="0.1" transform="translate(319.083 32.781)" fill="#f5f5f5"/>
        <path id="Trazado_207990" data-name="Trazado 207990" d="M667.887,168.836H609.452a.056.056,0,0,1-.062-.056V82.4a.062.062,0,0,1,.062-.056h58.436a.062.062,0,0,1,.056.056v86.383A.056.056,0,0,1,667.887,168.836Zm-57.112-1.323h55.784a.056.056,0,0,0,.056-.056V83.725a.05.05,0,0,0-.056-.056H610.775a.056.056,0,0,0-.056.056v83.732a.062.062,0,0,0,.056.056Z" transform="translate(-290.974 -50.221)" fill="#ebebeb"/>
        <rect id="Rectángulo_45946" data-name="Rectángulo 45946" width="45.799" height="74.604" rx="0.1" transform="translate(324.84 38.039)" fill="#fff"/>
        <rect id="Rectángulo_45947" data-name="Rectángulo 45947" width="25.717" height="30.14" rx="0.06" transform="translate(334.837 59.187)" fill="#ebebeb"/>
        <path id="Trazado_207991" data-name="Trazado 207991" d="M662.7,159.19c.034.1-1.239.65-3.655.37a8.908,8.908,0,0,1-4.1-1.643,8.354,8.354,0,0,1-3.19-5.018,7.221,7.221,0,0,1,2.444-6.857,6.419,6.419,0,0,1,1.844-1.082,4.922,4.922,0,0,1,2.315-.269,4.115,4.115,0,0,1,2.315,1.015,3.011,3.011,0,0,1,.908,2.691,4.4,4.4,0,0,1-1.267,2.315,8.179,8.179,0,0,1-1.94,1.424,10.557,10.557,0,0,1-4.62,1.323,9.188,9.188,0,0,1-4.928-1.121,8.937,8.937,0,0,1-3.622-3.756,7.63,7.63,0,0,1-.65-5.264,7.849,7.849,0,0,1,2.77-4.334,6.794,6.794,0,0,1,2.327-1.172,5.735,5.735,0,0,1,2.618-.084,4.255,4.255,0,0,1,2.377,1.34,3.924,3.924,0,0,1,.931,2.54,4.844,4.844,0,0,1-.622,2.416,6.5,6.5,0,0,1-1.463,1.766,9.9,9.9,0,0,1-3.644,1.934,9.34,9.34,0,0,1-3.835.3,7.849,7.849,0,0,1-3.336-1.278,7.232,7.232,0,0,1-3.185-5.046,6.1,6.1,0,0,1,1.183-4.328,5.186,5.186,0,0,1,2.181-1.744c.6-.23.942-.219.959-.163s-.269.213-.757.561a5.669,5.669,0,0,0-1.682,1.828,5.394,5.394,0,0,0-.7,3.695,6.032,6.032,0,0,0,2.8,3.964,6.985,6.985,0,0,0,5.842.561,8.23,8.23,0,0,0,2.927-1.682,3.588,3.588,0,0,0,1.362-2.742,1.962,1.962,0,0,0-1.755-1.945,3.891,3.891,0,0,0-1.682.078,4.844,4.844,0,0,0-1.587.83,5.819,5.819,0,0,0-2,3.19,5.606,5.606,0,0,0,.488,3.824,6.952,6.952,0,0,0,2.77,2.876,7.2,7.2,0,0,0,3.807.886,8.713,8.713,0,0,0,3.745-1.026,6.314,6.314,0,0,0,1.491-1.054,2.5,2.5,0,0,0,.757-1.233,1.054,1.054,0,0,0-.3-.992,2.243,2.243,0,0,0-1.239-.561,3.173,3.173,0,0,0-1.458.123,4.7,4.7,0,0,0-1.357.746,5.685,5.685,0,0,0-2.074,5.248,7.288,7.288,0,0,0,2.45,4.339,8.611,8.611,0,0,0,3.526,1.755C661.378,159.257,662.685,159,662.7,159.19Z" transform="translate(-304.184 -73.546)" fill="#e0e0e0"/>
        <rect id="Rectángulo_45948" data-name="Rectángulo 45948" width="27.275" height="7.215" transform="translate(51.31 147.028)" fill="#f5f5f5"/>
        <rect id="Rectángulo_45949" data-name="Rectángulo 45949" width="27.275" height="7.215" transform="translate(114.937)" fill="#f5f5f5"/>
        <path id="Trazado_207992" data-name="Trazado 207992" d="M253.085,45.724V43.8c0-1.245,0-3.039-.045-5.292l.084.084-27.275.05.14-.135h0v7.2l-.135-.14,19.437.062,5.735.039h.067l-5.707.039-19.533.062h-.135V38.52h0l.14-.14,27.275.05h.084v.084c0,2.276-.034,4.087-.045,5.343v1.755A.477.477,0,0,1,253.085,45.724Z" transform="translate(-122.405 -30.907)" fill="#e0e0e0"/>
        <path id="Trazado_207993" data-name="Trazado 207993" d="M677.075,297.344a1.165,1.165,0,0,1,0-.129v-1.794c0-1.245,0-3.033-.045-5.292l.084.084-27.275.056.14-.14h0v7.2l-.135-.135,19.437.062,5.735.039h.067l-5.707.034-19.533.062h-.135V290.05h0l.14-.14,27.275.056h.084v.084c0,2.282-.034,4.087-.045,5.343v1.856A.341.341,0,0,0,677.075,297.344Z" transform="translate(-308.69 -141.419)" fill="#e0e0e0"/>
        <path id="Trazado_207994" data-name="Trazado 207994" d="M692.225,284.483a.751.751,0,0,1,0-.135v-1.833c0-1.261-.034-3.05-.056-5.248l.1.1-16.388.039c-.123.123.168-.168.135-.14h0v7.2l-.129-.129,11.723.062,3.414.034h1.25a1.833,1.833,0,0,1-.3,0h-.9l-3.364.034-11.813.067h-.135V277.2h0l.14-.14,16.388.039h.1v.1c0,2.243-.045,4.031-.056,5.309v1.424A1.068,1.068,0,0,1,692.225,284.483Z" transform="translate(-320.139 -135.773)" fill="#e0e0e0"/>
        <path id="Trazado_207995" data-name="Trazado 207995" d="M431,377.222a1.151,1.151,0,0,1,0-.129V375.3c0-1.245,0-3.033-.045-5.292l.084.084-27.275.056.14-.14h0v7.215l-.135-.135,19.437.062,5.735.039h.067l-5.707.039-19.533.062h-.135v-7.3h0l.14-.14,27.275.056h.084v.084c0,2.282-.034,4.087-.045,5.343v1.76A.251.251,0,0,0,431,377.222Z" transform="translate(-200.576 -176.541)" fill="#e0e0e0"/>
        <path id="Trazado_207996" data-name="Trazado 207996" d="M446.137,364.263a.432.432,0,0,1,0-.14v-.381l-.028-1.446c0-1.261,0-3.05-.05-5.248l.1.1-16.388.039c-.129.123.168-.174.135-.14h0v7.2l-.129-.135,11.723.067,3.414.034h1.25a1.844,1.844,0,0,1-.3,0h-.9l-3.364.034-11.813.067h-.135V356.98h0l.14-.14,16.388.039h.1v.1c0,2.243-.045,4.031-.056,5.309v1.424A1.249,1.249,0,0,1,446.137,364.263Z" transform="translate(-212.008 -170.825)" fill="#e0e0e0"/>
        <rect id="Rectángulo_45950" data-name="Rectángulo 45950" width="27.275" height="7.215" transform="translate(282.512 7.473)" fill="#f5f5f5"/>
      </g>
      <g id="freepik--Line--inject-61" transform="translate(17.63 263.569)">
        <path id="Trazado_207997" data-name="Trazado 207997" d="M417.63,450.636c0,.078-89.551.146-199.992.146s-200.008-.067-200.008-.146,89.529-.146,200.008-.146S417.63,450.552,417.63,450.636Z" transform="translate(-17.63 -450.49)" fill="#263238"/>
      </g>
      <g id="freepik--Board--inject-61" transform="translate(154.023 52.953)">
        <rect id="Rectángulo_45951" data-name="Rectángulo 45951" width="177.106" height="146.607" transform="translate(5.421 2.68)" fill="#fff"/>
        <path id="Trazado_207998" data-name="Trazado 207998" d="M447.611,226.076c0-1.026-.05-58.256-.123-146.607l.123.123H270.522l.146-.146V226.053l-.129-.135,177.106.135-177.106.129h-.129V79.3H447.785v.123C447.662,167.819,447.611,225.05,447.611,226.076Z" transform="translate(-265.084 -76.788)" fill="#263238"/>
        <path id="Trazado_207999" data-name="Trazado 207999" d="M439.029,150.086c0,.078-31.755.146-70.91.146s-70.91-.067-70.91-.146,31.743-.146,70.91-.146S439.029,150.007,439.029,150.086Z" transform="translate(-276.859 -107.825)" fill="#e0e0e0"/>
        <path id="Trazado_208000" data-name="Trazado 208000" d="M439.029,178.016c0,.084-31.755.146-70.91.146s-70.91-.062-70.91-.146,31.743-.146,70.91-.146S439.029,177.943,439.029,178.016Z" transform="translate(-276.859 -120.096)" fill="#e0e0e0"/>
        <path id="Trazado_208001" data-name="Trazado 208001" d="M439.029,205.946c0,.084-31.755.146-70.91.146s-70.91-.062-70.91-.146,31.743-.146,70.91-.146S439.029,205.867,439.029,205.946Z" transform="translate(-276.859 -132.367)" fill="#e0e0e0"/>
        <path id="Trazado_208002" data-name="Trazado 208002" d="M439.029,233.886c0,.078-31.755.146-70.91.146s-70.91-.067-70.91-.146,31.743-.146,70.91-.146S439.029,233.8,439.029,233.886Z" transform="translate(-276.859 -144.643)" fill="#e0e0e0"/>
        <path id="Trazado_208003" data-name="Trazado 208003" d="M439.029,261.816c0,.078-31.755.146-70.91.146s-70.91-.067-70.91-.146,31.743-.146,70.91-.146S439.029,261.732,439.029,261.816Z" transform="translate(-276.859 -156.914)" fill="#e0e0e0"/>
        <path id="Trazado_208004" data-name="Trazado 208004" d="M439.029,289.746c0,.078-31.755.146-70.91.146s-70.91-.067-70.91-.146,31.743-.146,70.91-.146S439.029,289.667,439.029,289.746Z" transform="translate(-276.859 -169.186)" fill="#e0e0e0"/>
        <rect id="Rectángulo_45952" data-name="Rectángulo 45952" width="14.128" height="45.49" transform="translate(107.43 90.583)" fill="#455a64"/>
        <rect id="Rectángulo_45953" data-name="Rectángulo 45953" width="14.128" height="60.521" transform="translate(134.111 75.552)" fill="#455a64"/>
        <rect id="Rectángulo_45954" data-name="Rectángulo 45954" width="14.128" height="21.293" transform="translate(33.055 114.78)" fill="#455a64"/>
        <rect id="Rectángulo_45955" data-name="Rectángulo 45955" width="14.128" height="27.645" transform="translate(56.428 108.428)" fill="#455a64"/>
        <rect id="Rectángulo_45956" data-name="Rectángulo 45956" width="14.128" height="35.69" transform="translate(80.654 100.383)" fill="#455a64"/>
        <rect id="Rectángulo_45957" data-name="Rectángulo 45957" width="188.011" height="10.804" rx="5.402" fill="#263238"/>
        <path id="Trazado_208005" data-name="Trazado 208005" d="M439.954,232.663h-2.562l-7.333.028-26.967.045-88.985.073H296.38v-.146c0-30.633.034-57.7.045-77.11,0-9.7.034-17.492.045-22.857v-6.167c0,1.407,0,3.482.028,6.167,0,5.365,0,13.153.045,22.857,0,19.409.028,46.477.045,77.11l-.14-.146h17.66l88.985.045,26.967.045,7.333.028H439.3Z" transform="translate(-276.494 -96.59)" fill="#263238"/>
        <path id="Trazado_208006" data-name="Trazado 208006" d="M390.653,230s-.073.078-.224.219l-.684.634-2.635,2.411c-2.315,2.086-5.657,5.1-9.783,8.824l-32.517,29.153-.106.09-.1-.1L343.379,270,327.39,253.62h.185l-22.224,18.916-6.391,5.41-1.71,1.43-.443.364-.157.118a1.479,1.479,0,0,1,.146-.135l.426-.381,1.682-1.463,6.335-5.466L327.4,253.418l.1-.084.09.09,15.995,16.382,1.222,1.25h-.2l32.573-29.1,9.85-8.757,2.68-2.366.706-.611C390.568,230.067,390.653,230,390.653,230Z" transform="translate(-276.613 -143)" fill="#feca2e"/>
        <path id="Trazado_208007" data-name="Trazado 208007" d="M474.7,198.959l-17.027-6.789c-5.461.482-7.131,6.358-6.072,10.092a6.167,6.167,0,0,0-6.358,9.89,5.528,5.528,0,1,0,4.081,10.2c1.805-.97,3.016-2.91,4.95-3.577,1.817-.622,3.784,0,5.7.2,4.749.432,9.469-2.282,12.093-6.262A19.856,19.856,0,0,0,474.7,198.959Z" transform="translate(-340.145 -126.379)" fill="#ebebeb"/>
        <path id="Trazado_208008" data-name="Trazado 208008" d="M475.64,196.77a13.86,13.86,0,0,0-4.216,3.454,1.245,1.245,0,0,0,1.278,1.99h0a51.173,51.173,0,0,0-4.222,5.236,1.536,1.536,0,0,0,1.643,2.371,23.457,23.457,0,0,0,13.455-9.581Z" transform="translate(-351.985 -128.4)" fill="#feca2e"/>
        <g id="Grupo_146449" data-name="Grupo 146449" transform="translate(121.187 70.601)" opacity="0.3">
          <path id="Trazado_208009" data-name="Trazado 208009" d="M479.15,200.75a2.39,2.39,0,0,0-.757.561.8.8,0,0,0-.129.875c.224.4.863.449,1.071.869s-.191.931-.561,1.256l-1.183,1.026c-.292.252-.611.6-.5.97s.673.482,1.121.432a6.117,6.117,0,0,0,4.681-3.24Z" transform="translate(-477.069 -200.75)"/>
        </g>
        <path id="Trazado_208010" data-name="Trazado 208010" d="M520.582,188.54v.118a23.082,23.082,0,0,1-5.225,19.269l-2.865,3.325-2.652-10.277Z" transform="translate(-370.28 -124.784)" fill="#feca2e"/>
        <path id="Trazado_208011" data-name="Trazado 208011" d="M520.569,188.54l-.05.067-.157.179-.561.69-2.2,2.585c-1.889,2.2-4.552,5.309-7.675,8.97v-.056c.74,2.882,1.559,6.049,2.416,9.368.078.314.163.622.235.908h-.112l1.682-1.962c.561-.645,1.121-1.267,1.626-1.912a23.546,23.546,0,0,0,2.585-3.924,22.216,22.216,0,0,0,1.592-3.924c.213-.634.342-1.267.488-1.867a12.824,12.824,0,0,0,.3-1.749,22.675,22.675,0,0,0,.1-5.348c-.045-.634-.14-1.121-.185-1.441s-.056-.432-.067-.5,0,.039.028.123a3.43,3.43,0,0,1,.067.376c.05.331.151.807.207,1.441a22.423,22.423,0,0,1-.056,5.365c-.056.561-.179,1.149-.286,1.76a13.822,13.822,0,0,1-.482,1.878,22.184,22.184,0,0,1-1.6,3.969,23.063,23.063,0,0,1-2.59,3.964c-.51.65-1.071,1.267-1.62,1.917l-1.682,1.962-.079.1-.034-.123c-.073-.286-.151-.6-.235-.908l-2.405-9.374v-.028h0l7.759-8.97,2.243-2.551.561-.673.151-.168Z" transform="translate(-370.267 -124.784)" fill="#263238"/>
        <path id="Trazado_208012" data-name="Trazado 208012" d="M478.962,159.53h-.123a22.784,22.784,0,0,0-18.036,7.894L458,170.7l10.417,1.093Z" transform="translate(-347.503 -112.032)" fill="#feca2e"/>
        <path id="Trazado_208013" data-name="Trazado 208013" d="M478.866,159.5l-.05.056-.14.174-.561.667-2.164,2.534-7.6,8.875h-.028l-9.5-.987-.919-.1h-.123l.078-.1,1.682-1.929c.561-.634,1.076-1.273,1.631-1.867a23.212,23.212,0,0,1,3.493-3.1,21.624,21.624,0,0,1,3.644-2.13c.594-.3,1.194-.516,1.76-.746a15.561,15.561,0,0,1,1.682-.561,22.111,22.111,0,0,1,5.225-.83c.622-.039,1.121,0,1.435,0h0c-.325,0-.813,0-1.43.034a22.269,22.269,0,0,0-5.2.869,14.081,14.081,0,0,0-1.682.561,18.166,18.166,0,0,0-1.749.746,21.976,21.976,0,0,0-3.616,2.13,23.033,23.033,0,0,0-3.47,3.095c-.561.589-1.076,1.228-1.631,1.861l-1.682,1.934-.045-.112.925.1,9.492,1h-.05l7.574-8.74,2.2-2.529c.258-.292.454-.521.589-.678l.157-.174C478.843,159.522,478.86,159.5,478.866,159.5Z" transform="translate(-347.407 -112.003)" fill="#263238"/>
        <path id="Trazado_208014" data-name="Trazado 208014" d="M521.105,115.648c-1.491-1.289-7.563.2-15.7,4.451a50.759,50.759,0,0,0-12.895,9.609L468.59,157.455l7.288,6.3,4.238,3.655,7.288,6.3,21.781-25.19a50.635,50.635,0,0,0,5.606-7.927,60.631,60.631,0,0,0,4.194-8.808c3.19-8.539,3.594-14.868,2.1-16.152" transform="translate(-352.156 -92.561)" fill="#f5f5f5"/>
        <line id="Línea_401" data-name="Línea 401" x2="18.765" y2="15.984" transform="translate(120.257 60.487)" fill="#f5f5f5"/>
        <path id="Trazado_208015" data-name="Trazado 208015" d="M494.175,198.694c-.028.028-4.244-3.532-9.424-7.944s-9.363-8.012-9.34-8.04,4.255,3.526,9.424,7.939S494.2,198.666,494.175,198.694Z" transform="translate(-355.153 -122.222)" fill="#263238"/>
        <line id="Línea_402" data-name="Línea 402" x2="18.759" y2="15.984" transform="translate(119.45 61.256)" fill="#f5f5f5"/>
        <path id="Trazado_208016" data-name="Trazado 208016" d="M492.729,200.064s-4.238-3.526-9.419-7.944-9.363-8.012-9.34-8.04,4.244,3.526,9.424,7.944S492.757,200.036,492.729,200.064Z" transform="translate(-354.52 -122.824)" fill="#263238"/>
        <line id="Línea_403" data-name="Línea 403" x2="18.765" y2="15.989" transform="translate(118.699 62.153)" fill="#f5f5f5"/>
        <path id="Trazado_208017" data-name="Trazado 208017" d="M491.395,201.669c-.028,0-4.244-3.532-9.424-7.944s-9.363-8.017-9.34-8.045,4.244,3.532,9.424,7.944S491.417,201.641,491.395,201.669Z" transform="translate(-353.931 -123.527)" fill="#263238"/>
        <line id="Línea_404" data-name="Línea 404" x2="18.765" y2="15.984" transform="translate(117.947 63.055)" fill="#f5f5f5"/>
        <path id="Trazado_208018" data-name="Trazado 208018" d="M490.055,203.274s-4.244-3.526-9.424-7.944-9.363-8.012-9.34-8.04,4.244,3.526,9.424,7.944S490.077,203.246,490.055,203.274Z" transform="translate(-353.342 -124.235)" fill="#263238"/>
        <line id="Línea_405" data-name="Línea 405" x2="18.759" y2="15.989" transform="translate(117.202 63.952)" fill="#f5f5f5"/>
        <path id="Trazado_208019" data-name="Trazado 208019" d="M488.719,204.879c0,.028-4.244-3.532-9.424-7.944s-9.363-8.017-9.335-8.045,4.238,3.532,9.419,7.944S488.741,204.851,488.719,204.879Z" transform="translate(-352.758 -124.938)" fill="#263238"/>
        <path id="Trazado_208020" data-name="Trazado 208020" d="M503.479,174.139l-.09.146c-.062.1-.174.224-.3.392-.269.342-.673.819-1.172,1.407-.992,1.172-2.388,2.8-3.924,4.547s-2.971,3.364-4,4.485l-1.222,1.357-.342.359a.994.994,0,0,1-.123.123,1.117,1.117,0,0,1,.107-.14l.32-.376,1.194-1.385,3.969-4.524,3.975-4.524,1.2-1.374c.135-.168.252-.292.32-.381S503.474,174.134,503.479,174.139Z" transform="translate(-362.574 -118.457)" fill="#263238"/>
        <path id="Trazado_208021" data-name="Trazado 208021" d="M514.339,175.917c0,.028-4.233-3.554-9.4-8s-9.335-8.079-9.312-8.107,4.227,3.56,9.4,8.006S514.372,175.889,514.339,175.917Z" transform="translate(-364.036 -112.161)" fill="#263238"/>
        <path id="Trazado_208022" data-name="Trazado 208022" d="M500.178,192.752a.32.32,0,0,1,.185,0,.8.8,0,0,1,.415.3.746.746,0,0,1,.079.751.8.8,0,0,1-1.508-.073.746.746,0,0,1,.151-.74.791.791,0,0,1,.437-.263.325.325,0,0,1,.185,0,1.07,1.07,0,0,1-.174.05.779.779,0,0,0-.381.275.661.661,0,0,0-.107.639.684.684,0,0,0,1.284.062.662.662,0,0,0-.045-.65.8.8,0,0,0-.353-.308A1.243,1.243,0,0,1,500.178,192.752Z" transform="translate(-365.653 -126.619)" fill="#263238"/>
        <path id="Trazado_208023" data-name="Trazado 208023" d="M508.6,183.352a.32.32,0,0,1,.185,0,.808.808,0,0,1,.409.3.746.746,0,0,1,.079.751.8.8,0,0,1-1.508-.073.746.746,0,0,1,.151-.74.79.79,0,0,1,.437-.263h.185a.453.453,0,0,0-.174.05.762.762,0,0,0-.376.269.661.661,0,0,0-.112.645.69.69,0,0,0,1.289.062.662.662,0,0,0-.05-.65.813.813,0,0,0-.348-.308C508.666,183.369,508.6,183.364,508.6,183.352Z" transform="translate(-369.352 -122.495)" fill="#263238"/>
        <g id="Grupo_146450" data-name="Grupo 146450" transform="translate(121.149 47.497)" opacity="0.3">
          <path id="Trazado_208024" data-name="Trazado 208024" d="M477,171.482s7.126-7.888,10.3-11.942a28.987,28.987,0,0,0-7.053,4.485A11.258,11.258,0,0,0,477,171.482Z" transform="translate(-477 -159.54)"/>
        </g>
        <path id="Trazado_208025" data-name="Trazado 208025" d="M467.939,226.07a1.4,1.4,0,1,0,.1,0" transform="translate(-351.275 -141.273)" fill="#feca2e"/>
        <circle id="Elipse_5081" data-name="Elipse 5081" cx="6.722" cy="6.722" r="6.722" transform="translate(143.278 40.903) rotate(-38.76)" fill="#fff"/>
        <path id="Trazado_208026" data-name="Trazado 208026" d="M534.631,145.12a12.5,12.5,0,0,0-.062-1.648,6.661,6.661,0,0,0-1.979-3.924,6.548,6.548,0,0,0-2.612-1.564,6.632,6.632,0,0,0-3.47-.135,6.2,6.2,0,0,0-1.766.684,6.306,6.306,0,0,0-1.553,1.217,6.6,6.6,0,0,0,8.09,10.237,6.728,6.728,0,0,0,2.887-3.3,11.913,11.913,0,0,0,.465-1.581,2.192,2.192,0,0,1-.045.426,2.8,2.8,0,0,1-.106.516,4.35,4.35,0,0,1-.208.684,6.756,6.756,0,0,1-5.892,4.362,6.834,6.834,0,0,1-3.538-.723,6.565,6.565,0,0,1-1.609-1.121,6.449,6.449,0,0,1-1.261-1.626,6.812,6.812,0,0,1,1.009-8.051,6.258,6.258,0,0,1,1.626-1.261,6.592,6.592,0,0,1,1.839-.706,6.885,6.885,0,0,1,3.6.168,6.783,6.783,0,0,1,2.685,1.643,6.694,6.694,0,0,1,1.945,4.048,4.056,4.056,0,0,1,.039.712,3.458,3.458,0,0,1,0,.521A2.012,2.012,0,0,1,534.631,145.12Z" transform="translate(-375.225 -102.332)" fill="#263238"/>
        <path id="Trazado_208027" data-name="Trazado 208027" d="M549.958,115.648c-1.491-1.289-7.563.2-15.7,4.451l13.573,11.7c3.19-8.539,3.594-14.868,2.1-16.152" transform="translate(-381.009 -92.561)" fill="#feca2e"/>
        <path id="Trazado_208028" data-name="Trazado 208028" d="M520.973,115.63s.084.078.241.252a3.2,3.2,0,0,1,.409.936,11.988,11.988,0,0,1,.129,3.924,49.525,49.525,0,0,1-4.014,14.061,61.057,61.057,0,0,1-4.911,8.97,52.47,52.47,0,0,1-3.47,4.564l-3.975,4.625-17.94,20.817-.1.107-.107-.1-9.413-8.124-9.43-8.135-.107-.09.1-.112,17.94-20.8,3.986-4.608,1.9-2.2c.65-.718,1.329-1.362,2.013-1.985A54.117,54.117,0,0,1,502.4,121.6a65.709,65.709,0,0,1,7.462-3.812,41.619,41.619,0,0,1,5.92-2.114,12.155,12.155,0,0,1,3.924-.51,4.318,4.318,0,0,1,.561.107,2.91,2.91,0,0,1,.4.146c.2.129.286.2.286.2l-.3-.174a2.978,2.978,0,0,0-.4-.14c-.163-.045-.359-.05-.561-.09a12.631,12.631,0,0,0-3.88.561,42.9,42.9,0,0,0-5.887,2.153,67.367,67.367,0,0,0-7.417,3.84,54.029,54.029,0,0,0-8.124,6.133c-.673.622-1.357,1.273-1.985,1.979l-1.9,2.2-3.975,4.62-17.94,20.822v-.207l9.43,8.129,9.43,8.129h-.207l17.94-20.794,3.981-4.614a51.012,51.012,0,0,0,3.465-4.536,60.756,60.756,0,0,0,4.922-8.914,50.032,50.032,0,0,0,4.093-14.016,12.417,12.417,0,0,0-.079-3.924,3.223,3.223,0,0,0-.381-.936C521.046,115.714,520.973,115.63,520.973,115.63Z" transform="translate(-352.024 -92.543)" fill="#263238"/>
        <path id="Trazado_208029" data-name="Trazado 208029" d="M533.984,151.337a5.457,5.457,0,0,1-.179-1.346c-.067-.83-.118-1.985-.146-3.257s-.039-2.321-.056-3.263a6.543,6.543,0,0,1,0-1.351,6.209,6.209,0,0,1,.179,1.34c.067.835.118,1.99.14,3.263s.045,2.321.062,3.263a6.581,6.581,0,0,1,0,1.351Z" transform="translate(-380.705 -104.389)" fill="#263238"/>
        <path id="Trazado_208030" data-name="Trazado 208030" d="M531.331,151.635a15.253,15.253,0,0,1-.308-2.949,15.076,15.076,0,0,1,0-2.966,15.142,15.142,0,0,1,.314,2.949A14.845,14.845,0,0,1,531.331,151.635Z" transform="translate(-379.555 -105.971)" fill="#263238"/>
        <path id="Trazado_208031" data-name="Trazado 208031" d="M472.65,251.235a3.476,3.476,0,0,0-3.577.886,2.64,2.64,0,0,0-.219,3.145,2.994,2.994,0,0,0-1.755,2.8,3.627,3.627,0,0,0,1.682,2.893,4.614,4.614,0,0,0,3.364.561,5.3,5.3,0,0,0,.488-10.265Z" transform="translate(-351.501 -152.254)" fill="#ebebeb"/>
        <path id="Trazado_208032" data-name="Trazado 208032" d="M428.485,241.447a3.022,3.022,0,1,1-.883-2.14A3.028,3.028,0,0,1,428.485,241.447Z" transform="translate(-331.875 -146.699)" fill="#ebebeb"/>
        <path id="Trazado_208033" data-name="Trazado 208033" d="M303.649,138.962a40.763,40.763,0,0,1-7.019,0,42.323,42.323,0,0,1,7.019,0Z" transform="translate(-276.604 -102.93)" fill="#263238"/>
        <path id="Trazado_208034" data-name="Trazado 208034" d="M303.649,165.541a42.327,42.327,0,0,1-7.019,0,42.319,42.319,0,0,1,7.019,0Z" transform="translate(-276.604 -114.606)" fill="#263238"/>
        <path id="Trazado_208035" data-name="Trazado 208035" d="M303.649,192.112a42.327,42.327,0,0,1-7.019,0,42.323,42.323,0,0,1,7.019,0Z" transform="translate(-276.604 -126.282)" fill="#263238"/>
        <path id="Trazado_208036" data-name="Trazado 208036" d="M303.649,218.682a42.325,42.325,0,0,1-7.019,0,42.325,42.325,0,0,1,7.019,0Z" transform="translate(-276.604 -137.956)" fill="#263238"/>
        <path id="Trazado_208037" data-name="Trazado 208037" d="M303.649,245.261a42.323,42.323,0,0,1-7.019,0,42.323,42.323,0,0,1,7.019,0Z" transform="translate(-276.604 -149.632)" fill="#263238"/>
        <path id="Trazado_208038" data-name="Trazado 208038" d="M303.649,271.872a42.327,42.327,0,0,1-7.019,0,42.319,42.319,0,0,1,7.019,0Z" transform="translate(-276.604 -161.325)" fill="#263238"/>
      </g>
      <g id="freepik--character-3--inject-61" transform="translate(281.911 159.599)">
        <path id="Trazado_208039" data-name="Trazado 208039" d="M578.284,285.23c-3.981.381-6.963,6.548-6.128,9.839.409,1.6,1.278,3.4.056,4.7s-3.924,1.385-5.1,2.7a4.99,4.99,0,0,0-1.121,3.723c.348,2.041.191,4.777-1.385,5.606l8.3,2.3c.774-.9,1.009-2.243,1.783-3.168-.891.959-1.587,4.182,2.77,4.222l2.506-2.579c7.5,1.357,15.4,3.145,21.041-.482" transform="translate(-522.232 -273.912)" fill="#263238"/>
        <path id="Trazado_208040" data-name="Trazado 208040" d="M625.092,291.368a45.714,45.714,0,0,1-2.1-4.4c-1.037-3.336.269-7.316-1.682-10.226-1.374-2.074-3.975-2.91-6.408-3.426s-4.737-.746-6.66-2.321c-1.413-1.161-2.31-2.842-3.717-4-2-1.682-4.777-2.024-7.372-1.945a15.475,15.475,0,0,0-7.664,1.973,8.6,8.6,0,0,0-4.244,6.431,25.053,25.053,0,0,1-.1,3.9c-.32,1.39-1.284,2.545-1.828,3.868a6.845,6.845,0,0,0,2.456,8.012L606.131,311.1c3.958,1.093,7.8-4.115,10.5-7.21S626.718,295.113,625.092,291.368Z" transform="translate(-530.256 -265.042)" fill="#263238"/>
        <path id="Trazado_208041" data-name="Trazado 208041" d="M588.266,293.625c.258-5.41,3.745-12.093,9.138-11.605l16.875,4a2.8,2.8,0,0,1,2.59,3.027l-.914,40.719h.118s-3.639,11.5-14.812,8.2c-2.243-.656-3.134.168-3.616-2.3h0c-.482-.157,0,0,0-.3-.185-3.044-.415-9.323-.415-9.323h0c-.09-3.274-.107-4.614-.107-4.586s-6.924-1.043-8.488-10.035C587.857,306.98,587.974,299.63,588.266,293.625Z" transform="translate(-532.528 -272.49)" fill="#ffbf9d"/>
        <path id="Trazado_208042" data-name="Trazado 208042" d="M613.16,314.088a1.155,1.155,0,0,0,1.121,1.149,1.121,1.121,0,0,0,1.177-1.06,1.161,1.161,0,0,0-1.121-1.149A1.121,1.121,0,0,0,613.16,314.088Z" transform="translate(-543.563 -286.125)" fill="#263238"/>
        <path id="Trazado_208043" data-name="Trazado 208043" d="M591.84,314.418a1.155,1.155,0,0,0,1.121,1.149,1.121,1.121,0,0,0,1.177-1.06,1.155,1.155,0,0,0-1.121-1.149A1.121,1.121,0,0,0,591.84,314.418Z" transform="translate(-534.196 -286.27)" fill="#263238"/>
        <path id="Trazado_208044" data-name="Trazado 208044" d="M590.846,308.8c.146.2,1.121-.561,2.506-.5s2.293.908,2.456.723c.073-.084-.062-.437-.471-.824a3.055,3.055,0,0,0-3.958-.179C590.925,308.37,590.773,308.706,590.846,308.8Z" transform="translate(-533.752 -283.641)" fill="#263238"/>
        <path id="Trazado_208045" data-name="Trazado 208045" d="M612.88,309.028c.174.179,1.155-.678,2.6-.746s2.534.645,2.685.448c.073-.09-.112-.415-.589-.751a3.492,3.492,0,0,0-2.158-.594,3.364,3.364,0,0,0-2.058.83C612.936,308.6,612.79,308.95,612.88,309.028Z" transform="translate(-543.429 -283.643)" fill="#263238"/>
        <path id="Trazado_208046" data-name="Trazado 208046" d="M602.892,318.046a7.926,7.926,0,0,0-2.024-.336c-.314-.028-.617-.084-.673-.3a1.621,1.621,0,0,1,.2-.942l.9-2.433a41.458,41.458,0,0,0,2.018-6.352,41.43,41.43,0,0,0-2.523,6.167l-.863,2.45a1.816,1.816,0,0,0-.146,1.245.818.818,0,0,0,.527.46,2.512,2.512,0,0,0,.561.067,8.528,8.528,0,0,0,2.024-.022Z" transform="translate(-537.663 -283.775)" fill="#263238"/>
        <path id="Trazado_208047" data-name="Trazado 208047" d="M604.23,349.772a22.913,22.913,0,0,0,12.014-3.392s-2.932,6.638-11.964,5.926Z" transform="translate(-539.64 -300.778)" fill="#ff9a6c"/>
        <path id="Trazado_208048" data-name="Trazado 208048" d="M606.321,330.829a2.243,2.243,0,0,1,2.024-.841,2.052,2.052,0,0,1,1.424.74,1.289,1.289,0,0,1,.118,1.48,1.491,1.491,0,0,1-1.62.432,4.524,4.524,0,0,1-1.6-.97,1.284,1.284,0,0,1-.359-.359.415.415,0,0,1,0-.465" transform="translate(-540.52 -293.57)" fill="#feca2e"/>
        <path id="Trazado_208049" data-name="Trazado 208049" d="M608.853,327.61c-.2,0-.185,1.34-1.323,2.315s-2.579.847-2.59,1.032c0,.09.325.258.931.269a3.364,3.364,0,0,0,2.164-.79,2.937,2.937,0,0,0,1.026-1.94C609.1,327.929,608.949,327.6,608.853,327.61Z" transform="translate(-539.952 -292.531)" fill="#263238"/>
        <path id="Trazado_208050" data-name="Trazado 208050" d="M612.414,302.044c.129.336,1.368.157,2.8.314s2.646.533,2.837.23c.084-.151-.123-.465-.606-.785a4.962,4.962,0,0,0-4.317-.409C612.622,301.6,612.358,301.887,612.414,302.044Z" transform="translate(-543.232 -280.875)" fill="#263238"/>
        <path id="Trazado_208051" data-name="Trazado 208051" d="M590.961,300.853c.252.28,1.228-.028,2.405-.056s2.175.157,2.4-.14c.1-.146-.062-.426-.5-.69a3.706,3.706,0,0,0-1.962-.432,3.622,3.622,0,0,0-1.912.594C590.961,300.427,590.826,300.718,590.961,300.853Z" transform="translate(-533.788 -280.194)" fill="#263238"/>
        <path id="Trazado_208052" data-name="Trazado 208052" d="M637.547,295.545c-.964-1.5.561-3.364-.863-4.721-1.284-1.228-4.412-1.048-5.606-2.31a2.905,2.905,0,0,1-1.121-2.243c-.123-1.228-1.06-6.363-8.69-6.862l-.712,4.816c-.488-.185-.987-.342-1.486-.482a82.716,82.716,0,0,0-19.4-3.095c-.69,1.407.224,3.145,1.531,4a14.314,14.314,0,0,0,4.418,1.508,5.759,5.759,0,0,1,3.812,2.5c.734,1.379.4,3.325,1.121,4.833,1.211,2.59,5.046,3.112,6.223,5.707.9,1.968-.073,4.238-.174,6.4a7.894,7.894,0,0,0,2.943,6.442c1.519,1.2,4.11,3.364,4.238,2.9L643.07,300.8C644.04,297.855,638.865,297.6,637.547,295.545Z" transform="translate(-537.53 -271.354)" fill="#263238"/>
        <path id="Trazado_208053" data-name="Trazado 208053" d="M622.464,314.77a6.6,6.6,0,0,1-1.783-.471,8.791,8.791,0,0,1-5.208-10.293c.163-.684.37-1.374.482-2.086a4.665,4.665,0,0,0-.09-2.153,2.7,2.7,0,0,0-1.4-1.626,12.89,12.89,0,0,0-2.243-.768,4.609,4.609,0,0,1-2.142-1.172,4.037,4.037,0,0,1-.931-2.181c-.23-1.514-.084-3.039-.69-4.266l-.112-.224-.146-.207a2.508,2.508,0,0,0-.308-.376,3.7,3.7,0,0,0-.785-.561,7.289,7.289,0,0,0-1.788-.6,12.52,12.52,0,0,1-3.364-.964,7.142,7.142,0,0,1-2.214-1.839,6.9,6.9,0,0,1-1.076-1.884,6.377,6.377,0,0,1-.342-1.323,2.543,2.543,0,0,1-.034-.477,8.657,8.657,0,0,0,.482,1.76,7.105,7.105,0,0,0,1.121,1.822,6.991,6.991,0,0,0,2.181,1.755,12.482,12.482,0,0,0,3.3.914,7.425,7.425,0,0,1,1.856.611,3.745,3.745,0,0,1,.852.605,3.054,3.054,0,0,1,.342.415l.157.219.123.241c.656,1.334.5,2.876.729,4.351a3.78,3.78,0,0,0,.863,2.024,4.373,4.373,0,0,0,2.013,1.088,12.941,12.941,0,0,1,2.282.791,3.362,3.362,0,0,1,.964.74,2.955,2.955,0,0,1,.561,1.06,4.929,4.929,0,0,1,.1,2.282c-.123.734-.331,1.424-.493,2.1A8.623,8.623,0,0,0,620.7,314.2a9.48,9.48,0,0,0,1.278.449A3.415,3.415,0,0,1,622.464,314.77Z" transform="translate(-537.03 -272.185)" fill="#263238"/>
        <path id="Trazado_208054" data-name="Trazado 208054" d="M579.14,285.7a13.246,13.246,0,0,0-1.385-.146,6.571,6.571,0,0,0-3.583.987,6.408,6.408,0,0,0-2.893,4.536,11.7,11.7,0,0,0,.112,3.291c.084.561.191,1.149.292,1.744a6.2,6.2,0,0,1,.067,1.856,2.2,2.2,0,0,1-.97,1.615,3.807,3.807,0,0,1-1.76.454,6.46,6.46,0,0,0-1.648.258,4.084,4.084,0,0,0-1.351.8,3.969,3.969,0,0,0-1.346,2.534,8.2,8.2,0,0,0,.207,2.579,19.322,19.322,0,0,1,.364,2.147,5.483,5.483,0,0,1-.079,1.654,3.2,3.2,0,0,1-.364.981,2.053,2.053,0,0,1-.151.23c-.034.045-.056.073-.062.067a4.363,4.363,0,0,0,.465-1.3,5.85,5.85,0,0,0,.028-1.62,19.471,19.471,0,0,0-.4-2.125,8.139,8.139,0,0,1-.247-2.646,4.182,4.182,0,0,1,1.43-2.708,4.294,4.294,0,0,1,1.441-.863,6.608,6.608,0,0,1,1.716-.28,3.549,3.549,0,0,0,1.626-.409,1.923,1.923,0,0,0,.835-1.418,13.765,13.765,0,0,0-.348-3.515,11.77,11.77,0,0,1-.1-3.364,6.576,6.576,0,0,1,3.055-4.676,6.414,6.414,0,0,1,3.695-.925,5.873,5.873,0,0,1,1.032.151A1.767,1.767,0,0,1,579.14,285.7Z" transform="translate(-522.146 -273.996)" fill="#263238"/>
        <path id="Trazado_208055" data-name="Trazado 208055" d="M632.5,305.182a.394.394,0,0,1,.039-.14,2.567,2.567,0,0,0,.112-.415,3.671,3.671,0,0,0-.056-1.637,4.02,4.02,0,0,0-1.385-2.153,3.364,3.364,0,0,0-1.452-.673c-.561-.118-1.189-.123-1.822-.292a2.282,2.282,0,0,1-1.559-1.284,5.275,5.275,0,0,1-.421-2.17,12.151,12.151,0,0,0-.14-2.332,3.07,3.07,0,0,0-.465-1.121,2.8,2.8,0,0,0-.914-.8,7.85,7.85,0,0,0-2.489-.69,8.024,8.024,0,0,1-2.646-.768,3.113,3.113,0,0,1-1.054-.97,4.486,4.486,0,0,1-.561-1.334c-.252-.942-.325-1.917-.561-2.859a5.606,5.606,0,0,0-3.784-3.885,9.721,9.721,0,0,0-2.7-.252,6.273,6.273,0,0,1-1.334-.146,2.8,2.8,0,0,1-1.183-.589,5.826,5.826,0,0,1-1.289-2.153,5.762,5.762,0,0,0-1.312-1.856,5.926,5.926,0,0,0-3.767-1.592,5.326,5.326,0,0,0-3.252.959,6.168,6.168,0,0,0-1.772,1.895,5.606,5.606,0,0,0-.622,1.531c-.05.179-.062.325-.084.42l-.034.146a3.659,3.659,0,0,1,.084-.561,5.4,5.4,0,0,1,.594-1.553,6.165,6.165,0,0,1,1.772-1.945,5.432,5.432,0,0,1,3.319-1,6.044,6.044,0,0,1,3.863,1.615,5.8,5.8,0,0,1,1.351,1.945,5.646,5.646,0,0,0,1.25,2.091,3.65,3.65,0,0,0,2.416.69,9.778,9.778,0,0,1,2.742.258,5.774,5.774,0,0,1,3.924,4c.252.964.325,1.945.561,2.865a4.26,4.26,0,0,0,.561,1.278,2.882,2.882,0,0,0,.992.919c1.615.886,3.566.617,5.124,1.463a2.959,2.959,0,0,1,.936.835,3.245,3.245,0,0,1,.488,1.16,12.156,12.156,0,0,1,.135,2.36,5.114,5.114,0,0,0,.4,2.114,2.2,2.2,0,0,0,.605.8,2.281,2.281,0,0,0,.858.426c.611.168,1.233.179,1.811.3a3.47,3.47,0,0,1,1.5.706A4.064,4.064,0,0,1,632.666,303a3.587,3.587,0,0,1,0,1.682,2.044,2.044,0,0,1-.129.415.607.607,0,0,1-.034.084Z" transform="translate(-536.024 -269.397)" fill="#455a64"/>
        <path id="Trazado_208056" data-name="Trazado 208056" d="M604.929,405.705h43.848l-3.852-9.6s-13.741-37.512-16.584-40.551c-3.728-3.981-9.89-7.176-9.89-7.176l-18.972,9.593s-5.5,15.625-6.234,21.781a43.919,43.919,0,0,0-.3,4.418,18.658,18.658,0,0,0,11.639,17.554h0Z" transform="translate(-534.682 -301.657)" fill="#4dd0e1"/>
        <path id="Trazado_208057" data-name="Trazado 208057" d="M594.043,340.182l-2.1,2.3s.325-4.451-.207-4.984-1.245,0-1.245,0a1.631,1.631,0,0,0-1.155-1.071,2.988,2.988,0,0,0-1.873.448s-1.777-1.121-2.758-.477a4.418,4.418,0,0,0-1.334,1.273,4.346,4.346,0,0,0-1.777.891,3.279,3.279,0,0,0-.712.863s-1.065.381-1.065,1.121-1.161,7.849-1.424,10.5-.886,6.795-.886,6.795l10.736-.191s.151-5.55.348-6.217a9.134,9.134,0,0,0,3.269-2.579c1.514-1.867,2.652-4.715,3.465-6.083.488-.824,1.884-3.162,1.889-3.364,0-.639-.718-.835-1.334-.684S594.6,339.694,594.043,340.182Z" transform="translate(-527.9 -296.307)" fill="#ffbf9d"/>
        <path id="Trazado_208058" data-name="Trazado 208058" d="M593.916,340.079a2.47,2.47,0,0,1,.235-.264c.163-.168.387-.432.723-.734a2.714,2.714,0,0,1,.622-.437,1.592,1.592,0,0,1,.914-.129,1.01,1.01,0,0,1,.493.207.7.7,0,0,1,.247.521,1.767,1.767,0,0,1-.23.561l-.292.561c-.409.734-.88,1.542-1.39,2.411s-.948,1.878-1.486,2.915a18.3,18.3,0,0,1-1.974,3.179,9.356,9.356,0,0,1-3.263,2.573l.073-.084c-.146.914-.168,1.957-.224,2.983s-.073,2.114-.106,3.207v.129h-.135l-10.736.2h-.168v-.168c.078-.617.168-1.284.252-1.951q.3-2.287.561-4.485c.168-1.486.37-2.938.561-4.356l.606-4.149c.1-.673.2-1.34.269-1.99a1.831,1.831,0,0,1,.05-.5,1.059,1.059,0,0,1,.275-.482,2.243,2.243,0,0,1,.858-.561l-.078.073a3.279,3.279,0,0,1,.521-.673,3.362,3.362,0,0,1,.611-.561,5.047,5.047,0,0,1,1.452-.605l-.079.056a4.222,4.222,0,0,1,.97-.97,5.277,5.277,0,0,1,.5-.37,1.391,1.391,0,0,1,.622-.207,4.087,4.087,0,0,1,2.243.7H587.3a3,3,0,0,1,1.856-.465,1.682,1.682,0,0,1,1.318,1.155l-.146-.05a1.183,1.183,0,0,1,1-.213.768.768,0,0,1,.421.3.716.716,0,0,1,.1.235,1.718,1.718,0,0,1,.056.23,9.628,9.628,0,0,1,.107,1.71c0,1.071-.056,2.007-.118,2.8l-.1-.039,1.581-1.682.415-.432c.09-.1.14-.146.146-.14a1.055,1.055,0,0,1-.129.157c-.1.118-.224.264-.392.454l-1.531,1.727-.112.129v-.168c.045-.791.084-1.727.079-2.8a10.341,10.341,0,0,0-.129-1.682,1.161,1.161,0,0,0-.135-.392.56.56,0,0,0-.319-.235,1.043,1.043,0,0,0-.835.191l-.107.078-.045-.123a1.48,1.48,0,0,0-1.161-1.009,2.8,2.8,0,0,0-1.71.449l-.062.034-.056-.034a3.885,3.885,0,0,0-2.108-.645,1.272,1.272,0,0,0-.516.168c-.163.112-.325.23-.482.359a3.924,3.924,0,0,0-.818.886l-.034.045h-.05a4.87,4.87,0,0,0-1.368.561,3.149,3.149,0,0,0-.561.5,3.315,3.315,0,0,0-.465.594l-.034.056h-.045a2.2,2.2,0,0,0-.757.488.773.773,0,0,0-.2.359c-.028.112,0,.32-.045.477-.073.662-.168,1.323-.263,2q-.292,2.018-.6,4.149c-.2,1.418-.4,2.87-.561,4.345s-.392,2.994-.561,4.519c-.09.673-.174,1.334-.258,1.957l-.146-.168,10.742-.179-.134.129c.039-1.121.078-2.164.118-3.207a27.047,27.047,0,0,1,.247-3.044v-.05l.067-.028a9.184,9.184,0,0,0,3.179-2.484,18.089,18.089,0,0,0,1.968-3.128c.561-1.032,1-2.024,1.514-2.91s1-1.682,1.418-2.394l.3-.533a1.827,1.827,0,0,0,.219-.493.667.667,0,0,0-.622-.622,1.525,1.525,0,0,0-.852.1,2.743,2.743,0,0,0-.617.409A9.8,9.8,0,0,1,593.916,340.079Z" transform="translate(-527.773 -296.205)" fill="#ff9a6c"/>
        <g id="Grupo_146451" data-name="Grupo 146451" transform="translate(62.723 72.832)" opacity="0.3">
          <path id="Trazado_208059" data-name="Trazado 208059" d="M604.752,412.919l-3.852,3.459c5.438.185,10.047-2.512,14.437-5.73s12.5-10.456,13.96-15.7C621.969,399.059,611.1,407.43,604.752,412.919Z" transform="translate(-600.9 -394.95)"/>
        </g>
        <path id="Trazado_208060" data-name="Trazado 208060" d="M499.774,405.264c-.1,0-7.479-.83-9.385-1.009a1.261,1.261,0,0,0-1.317.819c-.123.381-.05.8.634,1.043a70.451,70.451,0,0,0,8.5,1.508s-2.949-.213-3.061.947,1.351,1.94,1.351,1.94-.987.409-.768,1.261,1.609,1.463,1.609,1.463l.74.308s-1.222,0-1.245.673a1.637,1.637,0,0,0,1.323,1.435c.656.151,3.672.779,3.672.779l2.209-5.287-1.682-5.046Z" transform="translate(-489.022 -326.203)" fill="#ffbf9d"/>
        <path id="Trazado_208061" data-name="Trazado 208061" d="M526.7,408.215s-9.7.97-10.445.611-8.41-4.356-9.57-4.676-6.773.129-6.773.129-1.205,1.289,1.469,2.1a19.335,19.335,0,0,0,4,.667l-.667,8.97s4.749,1.878,6.918,1.727l3.027-.869,13.775,2.411Z" transform="translate(-493.686 -326.11)" fill="#ffbf9d"/>
        <path id="Trazado_208062" data-name="Trazado 208062" d="M504.2,410.12a12.156,12.156,0,0,0,1.121.5,2.4,2.4,0,0,1,1,.718,1.121,1.121,0,0,1,.14,1.172,1.564,1.564,0,0,1-1.3.605,6.786,6.786,0,0,1-1.906-.135" transform="translate(-495.278 -328.783)" fill="#ffbf9d"/>
        <path id="Trazado_208063" data-name="Trazado 208063" d="M503.3,412.97a5.266,5.266,0,0,1,1.043.039,7.252,7.252,0,0,0,1.121-.067,1.16,1.16,0,0,0,.981-.645,1.121,1.121,0,0,0-.37-1.121,3.365,3.365,0,0,0-.925-.561,2.563,2.563,0,0,1-.92-.516,8.472,8.472,0,0,1,1,.325,3.152,3.152,0,0,1,1.032.561,1.351,1.351,0,0,1,.46,1.39,1.071,1.071,0,0,1-.533.611,1.883,1.883,0,0,1-.684.207,5.345,5.345,0,0,1-1.155,0A2.439,2.439,0,0,1,503.3,412.97Z" transform="translate(-495.295 -328.774)" fill="#ff9a6c"/>
        <path id="Trazado_208064" data-name="Trazado 208064" d="M505.56,418.713a15.137,15.137,0,0,0,4.586-.2c.465-.1,1-.275,1.121-.723a.959.959,0,0,0-.376-1,2.467,2.467,0,0,0-1.048-.4,26.066,26.066,0,0,0-3.476-.387" transform="translate(-496.288 -331.367)" fill="#ffbf9d"/>
        <path id="Trazado_208065" data-name="Trazado 208065" d="M506.354,415.965a8.582,8.582,0,0,1,1.738,0,13.967,13.967,0,0,1,1.873.235,2.366,2.366,0,0,1,1.082.449,1.228,1.228,0,0,1,.364.561.88.88,0,0,1-.056.7,1.559,1.559,0,0,1-1.088.662c-.387.078-.751.135-1.121.179a13.7,13.7,0,0,1-1.889.1,10.233,10.233,0,0,1-1.267-.1,1.5,1.5,0,0,1-.46-.1,15.556,15.556,0,0,1,1.727,0,16.448,16.448,0,0,0,1.856-.157c.348-.05.712-.112,1.082-.191a1.3,1.3,0,0,0,.891-.516.763.763,0,0,0-.241-.9,2.1,2.1,0,0,0-.947-.4c-.678-.151-1.312-.23-1.839-.3a12.122,12.122,0,0,1-1.7-.235Z" transform="translate(-496.275 -331.332)" fill="#ff9a6c"/>
        <path id="Trazado_208066" data-name="Trazado 208066" d="M507.649,421.179a4.222,4.222,0,0,1,.953-.09,1.407,1.407,0,0,1,.875.342.847.847,0,0,1,.247.875,1.188,1.188,0,0,1-.79.628,7.624,7.624,0,0,1-2.8.247" transform="translate(-496.539 -333.602)" fill="#ffbf9d"/>
        <path id="Trazado_208067" data-name="Trazado 208067" d="M506.16,423.112a4.124,4.124,0,0,1,.981-.084,8.958,8.958,0,0,0,1.048-.112,3.077,3.077,0,0,0,1.161-.415.628.628,0,0,0,.28-.454.751.751,0,0,0-.151-.5,1.245,1.245,0,0,0-.841-.42c-.561-.05-.97.039-.976,0a1.968,1.968,0,0,1,.992-.191,1.4,1.4,0,0,1,1.037.465,1,1,0,0,1,.224.678.908.908,0,0,1-.392.673,3.083,3.083,0,0,1-1.289.443,6.36,6.36,0,0,1-1.088.056A2.8,2.8,0,0,1,506.16,423.112Z" transform="translate(-496.552 -333.533)" fill="#ff9a6c"/>
        <path id="Trazado_208068" data-name="Trazado 208068" d="M499.783,404.81c.034,0-.028.219,0,.589a1.25,1.25,0,0,0,.252.611,1.681,1.681,0,0,0,.746.465,9.8,9.8,0,0,0,1.121.275c.409.1.818.2,1.278.263.914.129,1.94.219,3.022.3h.112v.123c.039.219.056.454.118.69a7.794,7.794,0,0,0,1.357,2.91,10.746,10.746,0,0,0,1.844,1.906c1.194.953,2.074,1.334,2.046,1.385a2.655,2.655,0,0,1-.622-.252,10.606,10.606,0,0,1-1.547-.97,9.768,9.768,0,0,1-1.934-1.906,7.849,7.849,0,0,1-1.43-3.011c-.062-.241-.079-.493-.123-.723l.135.129c-1.088-.078-2.114-.174-3.039-.325a10.78,10.78,0,0,1-1.3-.3,8.749,8.749,0,0,1-1.121-.314,1.744,1.744,0,0,1-.8-.561,1.363,1.363,0,0,1-.241-.7,1.686,1.686,0,0,1,.056-.454C499.761,404.855,499.778,404.8,499.783,404.81Z" transform="translate(-493.696 -326.45)" fill="#ff9a6c"/>
        <path id="Trazado_208069" data-name="Trazado 208069" d="M562.918,406.23,539.78,408.8l1.026,13.394,27.97,1.575Z" transform="translate(-511.323 -327.074)" fill="#4dd0e1"/>
        <g id="Grupo_146452" data-name="Grupo 146452" transform="translate(45.192 79.316)" opacity="0.3">
          <path id="Trazado_208070" data-name="Trazado 208070" d="M580.557,419.788q-.953-3.616-1.906-7.238a9.867,9.867,0,0,0-1.334-3.33c-.706-.976-2.147-2.887-3.364-2.691l-4.323.533c.151,2.243.409,4.631.622,6.9a11.986,11.986,0,0,0,2.315,6.352,7.288,7.288,0,0,0,5.926,2.882,2.472,2.472,0,0,0,1.985-.919A3,3,0,0,0,580.557,419.788Z" transform="translate(-569.63 -406.515)"/>
        </g>
        <path id="Trazado_208071" data-name="Trazado 208071" d="M618.367,376.493c-2,5.354-24.293,20.564-24.293,20.564s-6.941,4.418-10.972,4.485c-5.208.112-9.5-4.339-9.531-8.768-.034-5.69-.252-27.684-.252-27.684l14.442-.662v16.057s11.022-10.781,13.623-13.736c5.046-5.73,10.153-10.944,14.414-9.127" transform="translate(-526.059 -305.556)" fill="#4dd0e1"/>
        <path id="Trazado_208072" data-name="Trazado 208072" d="M615.731,357.625l-.656-.191a4.618,4.618,0,0,0-.824-.123,2.407,2.407,0,0,0-.561,0,3.99,3.99,0,0,0-.611.056c-1.738.252-4,1.62-6.386,3.835-1.2,1.121-2.45,2.405-3.773,3.863l-2.046,2.293c-.723.779-1.486,1.581-2.282,2.394-3.184,3.263-6.834,6.885-10.837,10.826l-.213.207V364.431l.146.14-14.442.667.14-.146c0,2.893.056,5.943.084,9.038.045,5.315.09,10.5.135,15.507V391.5c0,.617,0,1.245.05,1.839a8.062,8.062,0,0,0,1.121,3.364,9.71,9.71,0,0,0,5.326,4.255,8.8,8.8,0,0,0,3.308.4,13.227,13.227,0,0,0,3.179-.768,39.647,39.647,0,0,0,5.707-2.7,25.705,25.705,0,0,0,2.545-1.6l2.377-1.682q2.327-1.648,4.429-3.2a142.791,142.791,0,0,0,12.811-10.338,26.03,26.03,0,0,0,3.022-3.3,5.423,5.423,0,0,0,.376-.561,2.943,2.943,0,0,0,.241-.42l.179-.359a5.411,5.411,0,0,1-.751,1.374,24.623,24.623,0,0,1-2.988,3.364,135.75,135.75,0,0,1-12.766,10.428q-2.1,1.559-4.418,3.212l-2.377,1.682a25.614,25.614,0,0,1-2.557,1.615,39.293,39.293,0,0,1-5.724,2.714,13.281,13.281,0,0,1-3.246.791,9.06,9.06,0,0,1-3.409-.409,9.951,9.951,0,0,1-5.489-4.373,8.358,8.358,0,0,1-1.121-3.493c-.062-.633-.039-1.245-.056-1.867v-1.867c-.045-5.007-.1-10.192-.14-15.5-.028-3.095-.056-6.167-.084-9.038v-.123h.14l14.442-.656h.146v16.2l-.207-.09c4.009-3.924,7.67-7.541,10.865-10.787q1.194-1.222,2.287-2.383l2.057-2.282c1.329-1.452,2.6-2.753,3.807-3.852,2.405-2.209,4.7-3.571,6.47-3.8a3.423,3.423,0,0,1,.617-.05,2.906,2.906,0,0,1,.561,0,4.894,4.894,0,0,1,.83.146C615.512,357.541,615.731,357.625,615.731,357.625Z" transform="translate(-525.985 -305.548)" fill="#263238"/>
        <path id="Trazado_208073" data-name="Trazado 208073" d="M579.8,410.858a2.756,2.756,0,0,1,.168-.471c.129-.292.32-.718.561-1.228a35.371,35.371,0,0,1,2.287-3.846,34.355,34.355,0,0,1,2.753-3.532c.381-.426.7-.762.931-.987s.359-.336.376-.325a15.45,15.45,0,0,1-1.132,1.418c-.723.886-1.682,2.125-2.669,3.56s-1.789,2.8-2.349,3.779A17.1,17.1,0,0,1,579.8,410.858Z" transform="translate(-528.906 -324.543)" fill="#bddcf6"/>
        <path id="Trazado_208074" data-name="Trazado 208074" d="M706.169,359.137h0a3.891,3.891,0,0,0-4.636,2.943l-10.613,48.31h7.765l10.428-46.634a3.885,3.885,0,0,0-2.943-4.62Z" transform="translate(-577.728 -306.343)" fill="#263238"/>
        <path id="Trazado_208075" data-name="Trazado 208075" d="M603.078,347.17a4.43,4.43,0,0,1,0,1.592,4.532,4.532,0,0,1-.275,1.57,4.427,4.427,0,0,1,0-1.592,4.528,4.528,0,0,1,.275-1.57Z" transform="translate(-538.981 -301.126)" fill="#ff9a6c"/>
        <path id="Trazado_208076" data-name="Trazado 208076" d="M598.886,408.2a7.126,7.126,0,0,1-.1-1.452c-.028-.9-.045-2.13-.045-3.493s0-2.59.045-3.482a7.041,7.041,0,0,1,.1-1.446,7.033,7.033,0,0,1,.1,1.446c.028.9.045,2.136.045,3.5s0,2.6-.045,3.493A6.8,6.8,0,0,1,598.886,408.2Z" transform="translate(-537.228 -323.603)" fill="#263238"/>
      </g>
      <g id="freepik--character-2--inject-61" transform="translate(90.097 84.772)">
        <path id="Trazado_208077" data-name="Trazado 208077" d="M356.8,282.424l2.506-1.531s3.28-2.927,4.171-3.56a20.561,20.561,0,0,1,4.827-2.147c.488.039,5.22-.264,6.346-.785s2.343-1.211,2.343-1.211a1.721,1.721,0,0,1,.118,2.03c-.673,1.166-4.138,3.364-4.138,3.364l1.318,8.471s-3.224,2.54-5.231,2.708-3.924-.23-4.513-.05-1.979.673-1.979.673Z" transform="translate(-239.115 -193.795)" fill="#ffbf9d"/>
        <path id="Trazado_208078" data-name="Trazado 208078" d="M372.79,279.218l21.994-14.588,1.25,1.839L374.242,280.99Z" transform="translate(-246.141 -190.034)" fill="#263238"/>
        <path id="Trazado_208079" data-name="Trazado 208079" d="M386.29,282.445a1.517,1.517,0,0,1,.79,2.243c-.891,1.559-2.041,1.054-2.041,1.054a2.283,2.283,0,0,1-1.486,2.557,2.854,2.854,0,0,1-1.121,2.557l-1.071.561-.678-1.312s-4.025-.37-4.631-1.973v-.83a1.2,1.2,0,0,1-.656-1.177c.129-.785.078-.8,1.592-1.317a15.355,15.355,0,0,1,4.726-.174s-1.727-.656-1.682-1.547.712-1.458,2.562-1.329A18.435,18.435,0,0,1,386.29,282.445Z" transform="translate(-247.284 -197.55)" fill="#ffbf9d"/>
        <path id="Trazado_208080" data-name="Trazado 208080" d="M386.155,282.326a6.4,6.4,0,0,1-.667-.146c-.432-.1-1.065-.247-1.884-.364a13.053,13.053,0,0,0-1.357-.135,3.851,3.851,0,0,0-1.553.207,1.149,1.149,0,0,0-.594.533,1,1,0,0,0-.045.819,1.867,1.867,0,0,0,.65.656,4.9,4.9,0,0,0,.9.465l.768.314-.83-.067a17.593,17.593,0,0,0-3.953,0,5.36,5.36,0,0,0-1.015.275,4.016,4.016,0,0,0-.953.421.606.606,0,0,0-.2.409l-.045.275a1.157,1.157,0,0,0,0,.241,1.121,1.121,0,0,0,.561.774l.078.045v.084a8.258,8.258,0,0,0,.028.83v-.045l.1.185a2.349,2.349,0,0,0,.908.768,6.91,6.91,0,0,0,1.121.46,13.212,13.212,0,0,0,2.36.465h.079l.034.067c.23.449.46.886.678,1.318l-.185-.056,1.071-.561h0a2.691,2.691,0,0,0,1.071-2.428v-.09l.078-.039a2.584,2.584,0,0,0,1.194-1.032,2.058,2.058,0,0,0,.247-1.385l-.034-.179.168.062a1.345,1.345,0,0,0,1.043-.1,2.242,2.242,0,0,0,.729-.656,2.539,2.539,0,0,0,.387-.768,1.222,1.222,0,0,0,0-.7,1.643,1.643,0,0,0-.622-.768c-.191-.135-.3-.185-.3-.2a1.025,1.025,0,0,1,.325.151,1.631,1.631,0,0,1,.7.774,1.407,1.407,0,0,1,.056.774,2.832,2.832,0,0,1-.392.824,2.243,2.243,0,0,1-.774.723,1.508,1.508,0,0,1-1.205.123l.14-.118a2.288,2.288,0,0,1-.247,1.542A2.8,2.8,0,0,1,383.5,288.2l.073-.123a3.258,3.258,0,0,1-.2,1.452,2.742,2.742,0,0,1-.953,1.228h0l-1.065.561-.123.062-.062-.118c-.224-.432-.454-.869-.684-1.317l.112.078a13.9,13.9,0,0,1-2.422-.477,6.729,6.729,0,0,1-1.194-.477,2.63,2.63,0,0,1-1.02-.875c-.039-.084-.084-.163-.123-.236v-.045a8.037,8.037,0,0,0-.028-.83l.079.123a1.368,1.368,0,0,1-.791-.959,1.528,1.528,0,0,1,0-.32l.05-.286a.885.885,0,0,1,.292-.561,3.76,3.76,0,0,1,1.048-.471,5.043,5.043,0,0,1,1.065-.28,17.476,17.476,0,0,1,4.02,0l-.056.241a5.241,5.241,0,0,1-.947-.5,2.125,2.125,0,0,1-.723-.757,1.278,1.278,0,0,1,.768-1.643,3.863,3.863,0,0,1,1.637-.191,11.421,11.421,0,0,1,1.374.163,16.954,16.954,0,0,1,1.878.432c.219.062.381.118.488.157Z" transform="translate(-247.149 -197.431)" fill="#ff9a6c"/>
        <path id="Trazado_208081" data-name="Trazado 208081" d="M383.566,292.32a18.8,18.8,0,0,0-3.47-1.02,19.366,19.366,0,0,0-3.616-.056,2.954,2.954,0,0,1,1.048-.258,9.251,9.251,0,0,1,5.113.774A3.038,3.038,0,0,1,383.566,292.32Z" transform="translate(-247.762 -201.578)" fill="#ff9a6c"/>
        <path id="Trazado_208082" data-name="Trazado 208082" d="M389.524,288.042c-.045.067-.79-.426-1.844-.706s-1.94-.364-1.94-.454a3.886,3.886,0,0,1,2.018.174A3.229,3.229,0,0,1,389.524,288.042Z" transform="translate(-251.83 -199.784)" fill="#ff9a6c"/>
        <path id="Trazado_208083" data-name="Trazado 208083" d="M221.089,134.673a3.79,3.79,0,0,1,3.885-2,5.158,5.158,0,0,1,6.358,0,4.592,4.592,0,0,1,7.008,3.611,3.835,3.835,0,0,1,3.482,6.4,3.689,3.689,0,0,1-1.407,7.2l-18.546-10.9A3.773,3.773,0,0,1,221.089,134.673Z" transform="translate(-179.332 -131.575)" fill="#263238"/>
        <path id="Trazado_208084" data-name="Trazado 208084" d="M234.161,154.081A15.647,15.647,0,0,0,218.267,140h-.813c-8.724.69-13.012,8.482-12.082,17.189l1.867,29.069,1.273,3.633,15.031,18.837,3.79-16.971.073-7.849s8.37-1.48,8.3-9.878C235.675,169.975,234.923,161.627,234.161,154.081Z" transform="translate(-172.529 -135.274)" fill="#ffbf9d"/>
        <path id="Trazado_208085" data-name="Trazado 208085" d="M236.139,215.982a20.374,20.374,0,0,1-10.989-3.022s2.7,6.01,10.983,5.1Z" transform="translate(-181.273 -167.332)" fill="#ff9a6c"/>
        <path id="Trazado_208086" data-name="Trazado 208086" d="M250.892,178.243a1.194,1.194,0,0,1-1.121,1.233,1.121,1.121,0,0,1-1.261-1.054,1.205,1.205,0,0,1,1.121-1.239,1.121,1.121,0,0,1,1.261,1.06Z" transform="translate(-191.536 -151.609)" fill="#263238"/>
        <path id="Trazado_208087" data-name="Trazado 208087" d="M250.216,172.338c-.146.157-1.065-.493-2.355-.465s-2.243.7-2.366.561c-.073-.067.073-.353.482-.662a3.252,3.252,0,0,1,1.889-.622,3.179,3.179,0,0,1,1.878.561C250.149,171.985,250.289,172.265,250.216,172.338Z" transform="translate(-190.205 -148.962)" fill="#263238"/>
        <path id="Trazado_208088" data-name="Trazado 208088" d="M231.2,179.637a1.2,1.2,0,0,1-1.121,1.233,1.121,1.121,0,0,1-1.256-1.054,1.194,1.194,0,0,1,1.121-1.233,1.121,1.121,0,0,1,1.256,1.054Z" transform="translate(-182.885 -152.225)" fill="#263238"/>
        <path id="Trazado_208089" data-name="Trazado 208089" d="M228.192,172.468c-.146.163-1.071-.493-2.36-.46s-2.243.7-2.366.561c-.073-.067.073-.353.482-.662a3.269,3.269,0,0,1,1.889-.628,3.173,3.173,0,0,1,1.884.561C228.119,172.12,228.243,172.4,228.192,172.468Z" transform="translate(-180.526 -149.019)" fill="#263238"/>
        <path id="Trazado_208090" data-name="Trazado 208090" d="M239.193,181.891a8.6,8.6,0,0,1,2.086-.426c.331-.039.639-.112.69-.336a1.648,1.648,0,0,0-.235-.97c-.331-.79-.667-1.62-1.026-2.489a43.558,43.558,0,0,1-2.327-6.52,43.152,43.152,0,0,1,2.842,6.318c.348.869.673,1.682.987,2.5a1.906,1.906,0,0,1,.2,1.289.813.813,0,0,1-.533.493,1.961,1.961,0,0,1-.561.09,8.348,8.348,0,0,1-2.119.05Z" transform="translate(-187.081 -148.962)" fill="#263238"/>
        <path id="Trazado_208091" data-name="Trazado 208091" d="M232.962,192c.207,0,.241,1.385,1.458,2.355s2.708.785,2.725.976c0,.09-.325.28-.959.314a3.487,3.487,0,0,1-2.243-.74,3.011,3.011,0,0,1-1.121-1.979C232.715,192.364,232.866,192,232.962,192Z" transform="translate(-184.628 -158.123)" fill="#263238"/>
        <path id="Trazado_208092" data-name="Trazado 208092" d="M227.693,165.879c-.146.336-1.261.062-2.613.112s-2.472.353-2.618,0c-.062-.157.157-.471.628-.762a4,4,0,0,1,1.99-.561,3.924,3.924,0,0,1,1.99.465C227.536,165.414,227.76,165.717,227.693,165.879Z" transform="translate(-180.088 -146.114)" fill="#263238"/>
        <path id="Trazado_208093" data-name="Trazado 208093" d="M249.835,166.121c-.2.314-1.121.1-2.175.2s-1.945.4-2.181.118c-.107-.14,0-.449.37-.762a3.039,3.039,0,0,1,1.716-.662,3.005,3.005,0,0,1,1.794.409C249.768,165.661,249.92,165.953,249.835,166.121Z" transform="translate(-190.188 -146.261)" fill="#263238"/>
        <path id="Trazado_208094" data-name="Trazado 208094" d="M231.7,149.416s-2.327-5.214-4.883-6.391c-3.106-1.418-4.356,1.979-7.288,1.217s-5.9-2.119-8.841.2c-3.224,2.545-1.682,4.25-1.783,7.978-.5,15.137-3.179,19.454-4.109,12.334-.1-.779-2.276-1.357-2.663-4.642-.5-4.261-.779-9.447.112-12.5.751-2.568,2.175-4.367,4.743-6.363,4.059-3.156,9.721-3.364,13.579-3.033S231.914,142.823,231.7,149.416Z" transform="translate(-170.954 -134.444)" fill="#263238"/>
        <path id="Trazado_208095" data-name="Trazado 208095" d="M203.764,183.558a2.276,2.276,0,0,0-2.506-2.147c-1.564.179-3.291,1.121-3.117,4.339.3,5.741,6,4.25,6,4.087S203.91,185.957,203.764,183.558Z" transform="translate(-169.401 -153.466)" fill="#ffbf9d"/>
        <path id="Trazado_208096" data-name="Trazado 208096" d="M204.32,189.2a2.268,2.268,0,0,1-.258.163,1.009,1.009,0,0,1-.746.05,2.454,2.454,0,0,1-1.261-2.158,3.291,3.291,0,0,1,.2-1.446,1.121,1.121,0,0,1,.712-.8.51.51,0,0,1,.605.241c.084.157.056.275.084.28s.118-.1.062-.336a.661.661,0,0,0-.247-.348.751.751,0,0,0-.561-.118,1.407,1.407,0,0,0-1,.942,3.471,3.471,0,0,0-.263,1.62,2.6,2.6,0,0,0,1.592,2.4,1.076,1.076,0,0,0,.9-.2C204.32,189.361,204.343,189.21,204.32,189.2Z" transform="translate(-170.945 -154.924)" fill="#ff9a6c"/>
        <path id="Trazado_208097" data-name="Trazado 208097" d="M203.58,151.918a5.483,5.483,0,0,0,2.456,1.076,1.884,1.884,0,0,0,2.052-1.362c.056-.4-.05-.863.207-1.177s.886-.269,1.368-.23a3.667,3.667,0,0,0,3.751-2.7,1.562,1.562,0,0,0,2.069.151,8.527,8.527,0,0,0,1.525-1.682,2.372,2.372,0,0,1,1.934-1.026,5.544,5.544,0,0,0,1.256.252c.751-.084,1.121-.976,1.2-1.721s.168-1.626.8-2.046a2.839,2.839,0,0,1,2.052-.1c.7.09,1.587-.1,1.749-.774a1.357,1.357,0,0,0-.275-1.037,3.723,3.723,0,0,0-4.418-1.318,5.046,5.046,0,0,0-9.284-.785,5.113,5.113,0,0,0-8.135,2.03,3.711,3.711,0,0,0-4.07,5.483,3.554,3.554,0,0,0-1.878,2.842,2.032,2.032,0,0,0,2.327,2.013,2.052,2.052,0,0,0,3.594,1.973" transform="translate(-169.318 -132.954)" fill="#263238"/>
        <path id="Trazado_208098" data-name="Trazado 208098" d="M201.331,161.57a1.357,1.357,0,0,0,.376,1.121,1.873,1.873,0,0,0,1.166.662,2.007,2.007,0,0,0,1.626-.51l-.241-.034a5.607,5.607,0,0,0,1.177,1.407,3.308,3.308,0,0,0,1.06.634,2.54,2.54,0,0,0,2.8-.9,3.364,3.364,0,0,0,.443-1.205,1.233,1.233,0,0,0,.034-.465,4.146,4.146,0,0,0-.163.437,3.79,3.79,0,0,1-.5,1.121,2.338,2.338,0,0,1-3.448.151,5.567,5.567,0,0,1-1.121-1.318l-.107-.168-.14.14a1.732,1.732,0,0,1-1.374.465,1.682,1.682,0,0,1-1.048-.527A2.669,2.669,0,0,1,201.331,161.57Z" transform="translate(-170.804 -144.754)" fill="#455a64"/>
        <path id="Trazado_208099" data-name="Trazado 208099" d="M220.2,135.964a4.038,4.038,0,0,1,.409.14,2,2,0,0,1,.908.74l.073.112.078-.112a7.2,7.2,0,0,1,2.725-2.3,5.606,5.606,0,0,1,2.243-.561,4.743,4.743,0,0,1,2.444.645,4.8,4.8,0,0,1,1.474,1.346,3.79,3.79,0,0,1,.667,1.716v.185l.174-.056a3.263,3.263,0,0,1,2.394.241,3.179,3.179,0,0,1,1.334,1.374,4.413,4.413,0,0,1,.392,1.682,1.166,1.166,0,0,0,.056-.471,3.1,3.1,0,0,0-.286-1.3,3.252,3.252,0,0,0-1.379-1.519,3.437,3.437,0,0,0-2.6-.308l.191.129a4.126,4.126,0,0,0-.7-1.867,5.074,5.074,0,0,0-1.575-1.446,4.962,4.962,0,0,0-2.624-.678,5.8,5.8,0,0,0-2.366.605,7.019,7.019,0,0,0-2.753,2.461h.151a1.99,1.99,0,0,0-1.026-.729A.9.9,0,0,0,220.2,135.964Z" transform="translate(-179.099 -132.486)" fill="#455a64"/>
        <path id="Trazado_208100" data-name="Trazado 208100" d="M187.19,415.295l.2-30.19,4.25-11.011.006-2.971,47.98-.8v3.459l5.505,13.685.292,27.83H217.711L215.4,402.731l-.533,12.564Z" transform="translate(-164.595 -236.47)" fill="#263238"/>
        <path id="Trazado_208101" data-name="Trazado 208101" d="M204.648,218.39l10.013,7.849L221,234.29l2.321-8.348L225,219.394l2.73,2.708,6.913,14.717,7.776,71.151s-13.562,3.975-20.587,4.452-18.221-1.441-18.221-1.441V273.54l-3.986-37.075,4.81-14.207Z" transform="translate(-170.061 -169.718)" fill="#f5f5f5"/>
        <path id="Trazado_208102" data-name="Trazado 208102" d="M241.581,324.712a1.839,1.839,0,0,1,0-.2v-.561c0-.561-.05-1.289-.084-2.243-.067-1.973-.163-4.8-.28-8.286-.241-7-.628-16.673-1.177-27.342s-1.172-20.334-1.648-27.326c-.247-3.482-.443-6.3-.561-8.275-.067-.964-.118-1.716-.151-2.243a2.935,2.935,0,0,0-.034-.589.87.87,0,0,1,0-.2.668.668,0,0,1,.028.2l.062.561c.05.561.118,1.284.207,2.243.174,1.951.4,4.777.667,8.269.561,6.986,1.183,16.64,1.738,27.32s.858,20.329,1.032,27.314c.1,3.5.157,6.341.185,8.3,0,.964,0,1.721.028,2.243v.561A.79.79,0,0,1,241.581,324.712Z" transform="translate(-186.761 -182.486)" fill="#263238"/>
        <path id="Trazado_208103" data-name="Trazado 208103" d="M189.122,223.014l-2.315,3.19-18.966,9.979L178.4,268.37l2.842,18.053-10.652,42.889s12.934,4.452,14.072,3.027a59.258,59.258,0,0,0,3.252-7.058,75.6,75.6,0,0,0,5.427-21.063c.8-7.288,1.519-16.606.987-22.908-.992-11.8-2.557-31.273-2.7-36.391s-1.048-24.438-1.048-24.438Z" transform="translate(-156.094 -170.636)" fill="#feca2e"/>
        <path id="Trazado_208104" data-name="Trazado 208104" d="M247.24,221.6l6.279,3.667,20.318,6.677-1.626,14.369-.936,37.182,6.4,44.633s-6.823,2.416-9.531,1.424-6.4-7.109-6.543-10.8-5.4-39.52-5.4-39.52l-5.119-48.187Z" transform="translate(-190.979 -171.128)" fill="#feca2e"/>
        <path id="Trazado_208105" data-name="Trazado 208105" d="M259.13,228.1a3.027,3.027,0,0,1,.252.286l.706.863c.617.779,1.5,1.878,2.607,3.269l.056.067-.073.056-2.209,1.682-.034-.185,2.6.824h.078v.09c-.05,4.62-.112,10.445-.179,16.752-.112,7.7-.213,14.672-.286,19.746-.05,2.506-.09,4.547-.123,5.982,0,.69-.034,1.233-.045,1.626v.42a.5.5,0,0,1,0,.146.745.745,0,0,1,0-.146v-8.034c.05-5.074.123-12.043.2-19.746.09-6.307.174-12.127.241-16.752l.078.112-2.585-.841-.2-.062.163-.123,2.243-1.648v.123l-2.545-3.319-.667-.886A2.668,2.668,0,0,1,259.13,228.1Z" transform="translate(-196.203 -173.984)" fill="#263238"/>
        <path id="Trazado_208106" data-name="Trazado 208106" d="M206.9,276.8a.942.942,0,0,1-.05-.14l-.135-.415c-.129-.381-.3-.914-.521-1.592-.454-1.379-1.121-3.364-1.99-5.825-.437-1.228-.919-2.568-1.43-4.009a46.421,46.421,0,0,1-1.458-4.67,104.707,104.707,0,0,1-2.041-11.017c-.7-5.124-1.155-9.957-1.435-14.111v-.056l.039-.045,2.243-2.153v.174l-2.1-1.587-.084-.062L198,231.2l3.824-5.186,1.054-1.4c.112-.151.207-.269.28-.364a.561.561,0,0,1,.1-.112.727.727,0,0,1-.079.135c-.067.1-.151.219-.252.376l-1.009,1.435-3.751,5.242v-.146l2.136,1.592.107.084-.1.1c-.706.684-1.441,1.407-2.243,2.17l.034-.1c.3,4.149.774,8.97,1.474,14.089a110.246,110.246,0,0,0,2.007,10.989q.639,2.495,1.424,4.659c.5,1.441.97,2.8,1.4,4.014.841,2.467,1.486,4.485,1.906,5.864.207.7.364,1.239.465,1.609l.107.426A.414.414,0,0,1,206.9,276.8Z" transform="translate(-169.275 -172.244)" fill="#263238"/>
        <path id="Trazado_208107" data-name="Trazado 208107" d="M184.99,359.849l11.028,4.328.74-2.456,3.745,3.426.673-5.96-3.459-6.447L185.8,356.6Z" transform="translate(-163.629 -228.746)" opacity="0.3"/>
        <path id="Trazado_208108" data-name="Trazado 208108" d="M230.14,354.308l-4.485-2.719-3.924-3.56a9.917,9.917,0,0,0,3.055,1.682,2.534,2.534,0,0,0,2.887-1.076s-1.615-1.015-2.17-1.323-6.133-4.485-7.546-4.782-10.747-2.209-10.747-2.209l-.151.482-4.608,9.834,4.1,1.121a27.664,27.664,0,0,1,2.091,3.442c.919,1.845,5.393,3.661,7.115,4.569s3.672-.678,3.672-.678c1.979.449,2.467-1.682,2.467-1.682,2.276-.308,2.467-2.8,2.467-2.8a54.638,54.638,0,0,0,5.4,1.822.779.779,0,0,0,.942-.493,1.306,1.306,0,0,0-.561-1.626Z" transform="translate(-171.3 -223.289)" fill="#ffbf9d"/>
        <path id="Trazado_208109" data-name="Trazado 208109" d="M237.664,363.526a11.365,11.365,0,0,1-2.607-1.177,8.146,8.146,0,0,1-2.327-1.682c.05-.067,1.088.662,2.467,1.413a18.568,18.568,0,0,1,2.467,1.447Z" transform="translate(-184.604 -232.227)" fill="#ff9a6c"/>
        <path id="Trazado_208110" data-name="Trazado 208110" d="M228.59,365.12a11.611,11.611,0,0,1,2.573,1.525,24.883,24.883,0,0,1,2.422,1.772,11.365,11.365,0,0,1-2.59-1.5,22.624,22.624,0,0,1-2.405-1.794Z" transform="translate(-182.785 -234.185)" fill="#ff9a6c"/>
        <path id="Trazado_208111" data-name="Trazado 208111" d="M225.417,368.5c.05-.05.914.667,2.074,1.446a11.773,11.773,0,0,1,2.024,1.531,10.651,10.651,0,0,1-2.192-1.289A6.469,6.469,0,0,1,225.417,368.5Z" transform="translate(-181.389 -235.668)" fill="#ff9a6c"/>
        <path id="Trazado_208112" data-name="Trazado 208112" d="M227.46,347.07a2.567,2.567,0,0,1,1,.213,7.686,7.686,0,0,1,2.153,1.205,9.79,9.79,0,0,1,1.727,1.749,3.027,3.027,0,0,1,.561.858c-.078.062-.976-1.211-2.45-2.377A13.6,13.6,0,0,0,227.46,347.07Z" transform="translate(-182.288 -226.255)" fill="#ff9a6c"/>
        <path id="Trazado_208113" data-name="Trazado 208113" d="M148.868,302.438a4.216,4.216,0,0,1-1.973-3.42,38.425,38.425,0,0,1,.336-5.825c.791-6.565,11.538-44.683,11.538-44.683l10.8,29.714-3.711,12.934,18.91,9.054-5.264,14.863S154.379,305.869,148.868,302.438Z" transform="translate(-146.888 -182.952)" fill="#feca2e"/>
        <path id="Trazado_208114" data-name="Trazado 208114" d="M290.528,240.05l17.352,32.994.471.678,18.927-9.66,6.229,12.609-25.464,15.491a6.358,6.358,0,0,1-8.533-1.917l-11.252-16.819-3.027-13.809Z" transform="translate(-207.67 -179.235)" fill="#feca2e"/>
        <path id="Trazado_208115" data-name="Trazado 208115" d="M290.495,256.84a1.976,1.976,0,0,1,.034.415c0,.3.028.7.045,1.194,0,1.065.045,2.557.079,4.384.045,3.706.067,8.824,0,14.476s-.174,10.776-.292,14.481c-.067,1.828-.123,3.313-.163,4.384-.028.493-.05.891-.062,1.189a2.392,2.392,0,0,1-.045.415,1.95,1.95,0,0,1,0-.415v-1.194c0-1.065.045-2.556.073-4.384.067-3.706.151-8.824.207-14.476s.067-10.77.073-14.476v-5.578a2.93,2.93,0,0,1,.05-.415Z" transform="translate(-209.801 -186.611)" fill="#263238"/>
        <path id="Trazado_208116" data-name="Trazado 208116" d="M175.55,263.23a1.4,1.4,0,0,1,.118.331c.078.252.174.561.292.97.247.88.594,2.1,1.015,3.582.841,3.027,2,7.21,3.179,11.863s2.1,8.9,2.691,11.986c.292,1.542.516,2.8.645,3.667l.151,1a1.4,1.4,0,0,1,.034.353,1.681,1.681,0,0,1-.09-.342c-.056-.258-.123-.589-.207-.992-.179-.9-.432-2.13-.734-3.644-.639-3.078-1.6-7.288-2.775-11.958s-2.3-8.836-3.095-11.88c-.381-1.491-.7-2.714-.925-3.6l-.235-.981A1.469,1.469,0,0,1,175.55,263.23Z" transform="translate(-159.481 -189.419)" fill="#263238"/>
        <path id="Trazado_208117" data-name="Trazado 208117" d="M161.59,338.459a.352.352,0,0,1,.123.034l.353.129,1.362.51,5.085,1.951,17.5,6.829-.179.084,3.521-9.968c.594-1.682,1.172-3.3,1.738-4.889l.073.179-18.7-9.038h0a10.843,10.843,0,0,0-7.681.325,14.3,14.3,0,0,0-1.895,1l-.465.308a.706.706,0,0,1-.168.1l.151-.123.449-.331a13.377,13.377,0,0,1,1.884-1.054,10.876,10.876,0,0,1,7.793-.415h0l18.725,8.97.118.056-.045.123c-.561,1.587-1.121,3.229-1.727,4.889-1.239,3.493-2.439,6.857-3.538,9.968l-.05.135-.135-.05-17.47-6.918-5.046-2.029-1.346-.561-.342-.151Z" transform="translate(-153.348 -215.922)" fill="#263238"/>
        <path id="Trazado_208118" data-name="Trazado 208118" d="M325.611,299.51a4.434,4.434,0,0,1,.045,1.3,19.976,19.976,0,0,1-.437,3.095c-.252,1.2-.5,2.243-.673,3.044a7.008,7.008,0,0,1-.32,1.256,5.047,5.047,0,0,1,.112-1.3c.123-.791.348-1.873.594-3.061s.432-2.271.521-3.061a8.564,8.564,0,0,1,.157-1.278Z" transform="translate(-224.802 -205.359)" fill="#263238"/>
        <path id="Trazado_208119" data-name="Trazado 208119" d="M325.052,300.93a13.583,13.583,0,0,1-.914,3,22.752,22.752,0,0,1-1.189,2.893,13.673,13.673,0,0,1,.914-3A23.193,23.193,0,0,1,325.052,300.93Z" transform="translate(-224.243 -205.983)" fill="#263238"/>
        <path id="Trazado_208120" data-name="Trazado 208120" d="M224.571,238.561a4.9,4.9,0,0,1-.561-.482c-.359-.364-.835-.83-1.407-1.4l-4.76-4.866h.2a6.139,6.139,0,0,0-1.346,4.138v.331l-.252-.207c-2.411-1.951-4.362-3.863-5.819-5.169-.723-.662-1.312-1.189-1.721-1.542a5.817,5.817,0,0,1-.617-.561,4.834,4.834,0,0,1,.684.488c.432.336,1.037.835,1.783,1.48,1.491,1.267,3.476,3.162,5.87,5.091l-.235.123a6.061,6.061,0,0,1,.118-1.609,6.167,6.167,0,0,1,1.3-2.736l.107-.118.1.107,4.693,4.939,1.351,1.458A3.816,3.816,0,0,1,224.571,238.561Z" transform="translate(-173.866 -174.292)" fill="#263238"/>
        <path id="Trazado_208121" data-name="Trazado 208121" d="M244.024,227.23a1.486,1.486,0,0,1,.028.449,10.286,10.286,0,0,1-.062,1.25,25.741,25.741,0,0,1-.706,4.294l-.084.353-.168-.325a10.541,10.541,0,0,0-1.845-2.545c-.213-.219-.432-.42-.645-.6l.241-.079a39.995,39.995,0,0,1-1.727,5.685c-.269.7-.51,1.256-.684,1.631a2.668,2.668,0,0,1-.3.561,3.054,3.054,0,0,1,.2-.611l.605-1.682a50.349,50.349,0,0,0,1.62-5.685l.05-.235.185.157c.219.191.443.4.662.617a10.361,10.361,0,0,1,1.878,2.629l-.252.028a32.52,32.52,0,0,0,.8-4.244C243.951,227.858,243.99,227.23,244.024,227.23Z" transform="translate(-186.95 -173.602)" fill="#263238"/>
        <path id="Trazado_208122" data-name="Trazado 208122" d="M279.49,360.146l1.693,5.264,9.6-.886-2.994-5.035Z" transform="translate(-205.148 -231.712)" fill="#feca2e"/>
        <path id="Trazado_208123" data-name="Trazado 208123" d="M279.481,360.032a3.761,3.761,0,0,1,.561-.073l1.682-.168c1.452-.14,3.543-.336,6.033-.561h.084l.039.067,3.005,5.046.118.2h-.23l-.493.045-9.1.807h-.09l-.028-.09c-.516-1.643-.914-2.983-1.189-3.925-.123-.426-.224-.774-.308-1.048a3.007,3.007,0,0,1-.09-.348,3.093,3.093,0,0,1,.151.387l.37,1.06c.32.936.751,2.243,1.284,3.784l-.118-.078,9.094-.875.493-.045-.112.219-2.977-5.046.123.067c-2.428.179-4.485.308-5.948.4l-1.721.1A2.92,2.92,0,0,1,279.481,360.032Z" transform="translate(-205.14 -231.598)" fill="#263238"/>
        <rect id="Rectángulo_45958" data-name="Rectángulo 45958" width="10.305" height="3.325" transform="translate(68.377 86.672)" fill="#feca2e"/>
        <path id="Trazado_208124" data-name="Trazado 208124" d="M279.062,289.364a1.563,1.563,0,0,1,0-.247,5.924,5.924,0,0,0-.028-.662c0-.605,0-1.418-.05-2.416l.1.1c-2.456.028-6.167.05-10.3.05.062-.067-.146.146.146-.146h0v3.308l-.14-.14c2.932,0,5.489.034,7.328.062l2.17.039a4.843,4.843,0,0,1,.807.039,5.966,5.966,0,0,1-.746.034l-2.136.045c-1.828,0-4.429.056-7.423.062h-.14v-3.454h0c.292-.292.078-.084.146-.146,4.138,0,7.849,0,10.3.05h.1v.1c0,1.02-.039,1.85-.05,2.472a7.292,7.292,0,0,1-.073.858Z" transform="translate(-200.381 -199.368)" fill="#263238"/>
        <path id="Trazado_208125" data-name="Trazado 208125" d="M265.578,240.53l1.587,2.181s-.443,33.078-2.125,41.308Z" transform="translate(-198.8 -179.445)" opacity="0.3"/>
      </g>
      <g id="freepik--character-1--inject-61" transform="translate(25.378 144.623)">
        <path id="Trazado_208126" data-name="Trazado 208126" d="M91.911,263.04a15.4,15.4,0,0,0-14.05-15.462l-.8-.073c-8.611-.252-13.64,6.918-13.657,15.535l-1.9,30.275-.858,6.167,19.819,5.107,1.682-13.08s8.354-.561,9.183-8.78C91.681,278.755,91.855,270.508,91.911,263.04Z" transform="translate(-44.279 -242.358)" fill="#b56760"/>
        <path id="Trazado_208127" data-name="Trazado 208127" d="M90.828,322.779A20.049,20.049,0,0,1,80.31,318.67s1.878,6.335,10.164,6.318Z" transform="translate(-52.917 -273.628)" fill="#8a4a43"/>
        <path id="Trazado_208128" data-name="Trazado 208128" d="M108.83,287.925a1.177,1.177,0,0,1-1.239,1.088,1.121,1.121,0,0,1-1.121-1.166,1.183,1.183,0,0,1,1.239-1.088,1.121,1.121,0,0,1,1.121,1.166Z" transform="translate(-64.41 -259.607)" fill="#263238"/>
        <path id="Trazado_208129" data-name="Trazado 208129" d="M108.995,280.989c-.157.14-.992-.6-2.243-.706s-2.243.443-2.372.275c-.062-.073.112-.336.561-.6a3.235,3.235,0,0,1,1.917-.409,3.1,3.1,0,0,1,1.777.757C108.967,280.636,109.073,280.916,108.995,280.989Z" transform="translate(-63.487 -256.433)" fill="#263238"/>
        <path id="Trazado_208130" data-name="Trazado 208130" d="M87.98,286.9a1.172,1.172,0,0,1-1.239,1.088,1.121,1.121,0,0,1-1.121-1.166,1.183,1.183,0,0,1,1.239-1.088A1.121,1.121,0,0,1,87.98,286.9Z" transform="translate(-55.249 -259.159)" fill="#263238"/>
        <path id="Trazado_208131" data-name="Trazado 208131" d="M86.76,279.45c-.157.14-.992-.6-2.243-.706s-2.243.443-2.377.275c-.062-.073.112-.336.561-.594a3.241,3.241,0,0,1,1.917-.415,3.134,3.134,0,0,1,1.777.757C86.732,279.119,86.839,279.388,86.76,279.45Z" transform="translate(-53.716 -255.757)" fill="#263238"/>
        <path id="Trazado_208132" data-name="Trazado 208132" d="M97.11,289.759a8.859,8.859,0,0,1,2.086-.185c.325,0,.639-.045.712-.258a1.626,1.626,0,0,0-.129-.981l-.74-2.528a42.6,42.6,0,0,1-1.575-6.627,42.74,42.74,0,0,1,2.108,6.487c.241.891.477,1.744.7,2.557a1.884,1.884,0,0,1,.056,1.284.819.819,0,0,1-.561.426,2.162,2.162,0,0,1-.561.028A8.169,8.169,0,0,1,97.11,289.759Z" transform="translate(-60.298 -256.277)" fill="#263238"/>
        <path id="Trazado_208133" data-name="Trazado 208133" d="M90.119,299c.207,0,.084,1.379,1.177,2.461s2.562,1.071,2.562,1.267c0,.084-.348.235-.97.2a3.431,3.431,0,0,1-2.142-.964,2.988,2.988,0,0,1-.9-2.052C89.838,299.325,90.023,299,90.119,299Z" transform="translate(-57.108 -264.986)" fill="#263238"/>
        <path id="Trazado_208134" data-name="Trazado 208134" d="M87.194,270.846c-.157.336-1.407.062-2.9.107s-2.742.348-2.91,0c-.073-.157.163-.46.678-.751a5.046,5.046,0,0,1,4.423-.1C87.009,270.4,87.261,270.689,87.194,270.846Z" transform="translate(-53.381 -252.087)" fill="#263238"/>
        <path id="Trazado_208135" data-name="Trazado 208135" d="M109.007,274.33c-.247.269-1.121-.107-2.142-.213s-1.951,0-2.13-.3c-.078-.151.09-.432.5-.667a3.112,3.112,0,0,1,3.442.409C109.019,273.893,109.12,274.2,109.007,274.33Z" transform="translate(-63.64 -253.48)" fill="#263238"/>
        <path id="Trazado_208136" data-name="Trazado 208136" d="M62.148,287.866a2.243,2.243,0,0,0-2.243-2.366c-1.547,0-3.364.734-3.515,3.924-.314,5.651,5.416,4.8,5.438,4.642S62.036,290.232,62.148,287.866Z" transform="translate(-42.402 -259.054)" fill="#b56760"/>
        <path id="Trazado_208137" data-name="Trazado 208137" d="M62.243,293.3a1.875,1.875,0,0,1-.275.129.987.987,0,0,1-.734-.028,2.49,2.49,0,0,1-1-2.243,3.33,3.33,0,0,1,.353-1.39,1.121,1.121,0,0,1,.785-.712.5.5,0,0,1,.561.3c.067.163,0,.269.05.28s.129-.084.1-.32a.617.617,0,0,0-.2-.37.745.745,0,0,0-.561-.174,1.4,1.4,0,0,0-1.076.819,3.364,3.364,0,0,0-.426,1.553,2.628,2.628,0,0,0,1.3,2.523,1.065,1.065,0,0,0,.908-.1C62.226,293.436,62.26,293.312,62.243,293.3Z" transform="translate(-43.91 -260.492)" fill="#8a4a43"/>
        <path id="Trazado_208138" data-name="Trazado 208138" d="M59.8,260.761c.2,1.682-.4,4.283,1.088,4.154,2.938-.252,1.323,5.427,2.77,5.079s2.876-1.8,3.538-5.349c.841-4.485-.449-8.062,2.17-12.951a6.935,6.935,0,0,1,6.29-2.618,7.047,7.047,0,0,1,5.483,4.149c.51-1.536,1.682-3.79,3.19-4.323a4.132,4.132,0,0,1,4.435,1.121,3.364,3.364,0,0,1-.112,4.412,1.609,1.609,0,0,0,1.878-.348,2.736,2.736,0,0,1-1.037,1.917,2.523,2.523,0,0,0,1.6-.768l-.74,1.889c2.372.454,5.046-1.474,6.066-3.42a10.734,10.734,0,0,0-.045-9.256,9.918,9.918,0,0,0-7.356-6,7.609,7.609,0,0,0-8.006,3.414c-1.878-1.845-6.089-3.061-8.628-2.366a7.7,7.7,0,0,0-5.32,5.337,4.607,4.607,0,0,0-4.642.146l-.348.213a6.89,6.89,0,0,0-2.988,5.943c0,.931.191,1.923.252,2.68C59.54,256.04,59.8,260.761,59.8,260.761Z" transform="translate(-43.59 -238.33)" fill="#263238"/>
        <path id="Trazado_208139" data-name="Trazado 208139" d="M108.276,259.348a.949.949,0,0,0,.219-.123,3.569,3.569,0,0,0,.561-.437,4.861,4.861,0,0,0,1.318-2.215,4.58,4.58,0,0,0-.533-3.74,4.939,4.939,0,0,0-3.986-2.293,5.64,5.64,0,0,0-2.4.516,7.6,7.6,0,0,0-1.9,1.25,8.892,8.892,0,0,0-2.243,3.095,8.549,8.549,0,0,0-.684,2.484,5.427,5.427,0,0,0-.045.7.835.835,0,0,0,0,.247,10.472,10.472,0,0,1,.88-3.364,8.869,8.869,0,0,1,2.243-2.994,6.313,6.313,0,0,1,4.143-1.682,4.732,4.732,0,0,1,3.8,2.17,4.412,4.412,0,0,1,.561,3.571,4.928,4.928,0,0,1-1.211,2.192C108.557,259.151,108.265,259.325,108.276,259.348Z" transform="translate(-60.941 -243.694)" fill="#455a64"/>
        <path id="Trazado_208140" data-name="Trazado 208140" d="M108.4,260.757a1.68,1.68,0,0,0,.213-.247c.129-.163.325-.409.561-.729a18.3,18.3,0,0,0,1.811-2.887,9.284,9.284,0,0,0,.74-2.243,6.6,6.6,0,0,0-.056-2.725,5.236,5.236,0,0,0-1.542-2.579,6.29,6.29,0,0,0-2.859-1.491,7.714,7.714,0,0,0-3.224,0,10.213,10.213,0,0,0-2.8,1.048,7.8,7.8,0,0,0-3.476,3.622,5.606,5.606,0,0,0-.376,3.364,4.625,4.625,0,0,0,.28.886,1.312,1.312,0,0,0,.157.286,7.528,7.528,0,0,1-.342-1.189,5.713,5.713,0,0,1,.443-3.28,7.67,7.67,0,0,1,3.426-3.493,8.555,8.555,0,0,1,5.864-1,6.111,6.111,0,0,1,2.753,1.424,5,5,0,0,1,1.48,2.456,6.436,6.436,0,0,1,.073,2.629,9.038,9.038,0,0,1-.7,2.209,19.421,19.421,0,0,1-1.727,2.91c-.219.308-.392.561-.527.757a1.419,1.419,0,0,0-.174.275Z" transform="translate(-60.373 -242.441)" fill="#455a64"/>
        <path id="Trazado_208141" data-name="Trazado 208141" d="M63,264c.034-.028-.443-.5-.992-1.413a8.286,8.286,0,0,1-.348-7.922c.465-.959.9-1.463.863-1.491s-.129.107-.32.342a6.806,6.806,0,0,0-.7,1.071,7.944,7.944,0,0,0,.359,8.1,7.258,7.258,0,0,0,.785,1.009A1.57,1.57,0,0,0,63,264Z" transform="translate(-44.243 -244.851)" fill="#455a64"/>
        <path id="Trazado_208142" data-name="Trazado 208142" d="M70.481,265.977a4.607,4.607,0,0,1-.65-.561,4.087,4.087,0,0,1-1.121-1.917l-.146-.561-.045.589c-.056.8-.123,1.71-.191,2.7l.2-.078A7.4,7.4,0,0,1,67,264.076a7.2,7.2,0,0,1-.768-3.128,7.355,7.355,0,0,1,.437-2.613,10.052,10.052,0,0,1,1.161-2.175,1.255,1.255,0,0,0-.129.123,4.394,4.394,0,0,0-.314.381,6.878,6.878,0,0,0-.891,1.648,7.249,7.249,0,0,0,.269,5.915,7.5,7.5,0,0,0,1.587,2.136l.185.168v-.247c.056-.992.107-1.912.146-2.708H68.5a3.964,3.964,0,0,0,1.239,1.945,3.494,3.494,0,0,0,.521.37A.841.841,0,0,0,70.481,265.977Z" transform="translate(-46.626 -246.164)" fill="#455a64"/>
        <path id="Trazado_208143" data-name="Trazado 208143" d="M80.129,251.483a5.444,5.444,0,0,1,1.547-1.4,4.771,4.771,0,0,1,2.153-.605,5.046,5.046,0,0,1,2.635.678,5.78,5.78,0,0,1,2,1.878,7.008,7.008,0,0,1,.9,2.074,13.455,13.455,0,0,1,.28,2.086,1.907,1.907,0,0,0,.05-.561,6.975,6.975,0,0,0-.163-1.559,6.823,6.823,0,0,0-.88-2.164,5.931,5.931,0,0,0-2.069-1.968,5.135,5.135,0,0,0-2.77-.69,4.788,4.788,0,0,0-2.243.684,4.165,4.165,0,0,0-1.166,1.048,2.1,2.1,0,0,0-.23.364C80.14,251.432,80.124,251.477,80.129,251.483Z" transform="translate(-52.837 -243.129)" fill="#455a64"/>
        <path id="Trazado_208144" data-name="Trazado 208144" d="M83.68,245.585a7.646,7.646,0,0,1,1.631-.348A5.662,5.662,0,0,1,89.04,246.4a7.019,7.019,0,0,1,2.243,3.252c.336.975.392,1.626.437,1.62a1.39,1.39,0,0,0,0-.46,6.52,6.52,0,0,0-.252-1.217,6.778,6.778,0,0,0-2.243-3.392A5.606,5.606,0,0,0,85.3,245.08a4.182,4.182,0,0,0-1.211.3A1.121,1.121,0,0,0,83.68,245.585Z" transform="translate(-54.398 -241.285)" fill="#455a64"/>
        <path id="Trazado_208145" data-name="Trazado 208145" d="M53.037,325.613A28.075,28.075,0,0,0,45.7,338.127c-2.372,9.5,6.318,55.386,6.318,55.386l45.855-.067-9.834-36.3s-11.375-22.19-11.516-22.683-.561-5.236-.561-5.236L54.977,320.59Z" transform="translate(-37.53 -274.471)" fill="#4dd0e1"/>
        <path id="Trazado_208146" data-name="Trazado 208146" d="M213.459,412.3c-.437-.964-3.588-2.8-3.588-2.8-.264-.964-1.839-1.878-1.839-1.878a5.888,5.888,0,0,0-2.013-1.228c-1.233-.437-12.244.875-12.244.875l-8.225.561.465,10.832c0,.264,7.72-2.8,7.72-2.8s3.246.785,6.139,1.312,8.488-1.5,8.488-1.5l2.142,2.074a6.542,6.542,0,0,1,.662,2.921c0,.875,1.121,1.682,1.811,1.06s.207-3.655.207-3.655a1.273,1.273,0,0,0,1.211-.157C214.956,417.491,213.9,413.286,213.459,412.3Z" transform="translate(-99.155 -312.129)" fill="#b56760"/>
        <path id="Trazado_208147" data-name="Trazado 208147" d="M226.48,417.64a1.973,1.973,0,0,1,1.245.084,4.485,4.485,0,0,1,2.332,1.878,8.583,8.583,0,0,1,1.065,2.8,4.984,4.984,0,0,1,.179,1.228,5.933,5.933,0,0,1-.376-1.177,10.449,10.449,0,0,0-1.121-2.7,4.67,4.67,0,0,0-2.158-1.844,6.96,6.96,0,0,0-1.166-.275Z" transform="translate(-117.138 -317.084)" fill="#8a4a43"/>
        <path id="Trazado_208148" data-name="Trazado 208148" d="M60.65,381.52s21.22,22.695,29.378,27.1c8.8,4.782,12.654,4.637,12.654,4.637l-1.362-6.24Z" transform="translate(-44.279 -301.242)" opacity="0.3"/>
        <path id="Trazado_208149" data-name="Trazado 208149" d="M136.44,377.333l-35.32-4.227s-21.416-26.35-26.911-30.42-14.689-2.719-17.57,0a11.106,11.106,0,0,0-2.887,5.32,17.526,17.526,0,0,0,.718,10.8l1.149,2.955c.628.471,33.964,30.488,42.609,31.116s38.886-1.811,38.886-1.811Z" transform="translate(-41.013 -283.05)" fill="#4dd0e1"/>
        <path id="Trazado_208150" data-name="Trazado 208150" d="M82.6,338.4a6.428,6.428,0,0,1-.959-.247c-.611-.174-1.486-.449-2.562-.819-2.153-.729-5.079-1.856-8.292-3.151s-6.128-2.472-8.253-3.3l-2.506-.959a6.915,6.915,0,0,1-.914-.376,5.169,5.169,0,0,1,.953.269c.605.191,1.474.488,2.54.875,2.136.768,5.046,1.923,8.264,3.218s6.122,2.444,8.253,3.224c1.065.4,1.929.7,2.528.908a5.857,5.857,0,0,1,.947.353Z" transform="translate(-43.603 -278.408)" fill="#263238"/>
        <path id="Trazado_208151" data-name="Trazado 208151" d="M70.163,340.144a11.135,11.135,0,0,1-1.088-.252,16.3,16.3,0,0,0-2.988-.437,15.2,15.2,0,0,0-4.446.392,14.148,14.148,0,0,0-2.484.875,13.272,13.272,0,0,0-2.4,1.491,10.563,10.563,0,0,0-3.364,4.227,14.577,14.577,0,0,0-1.088,4.323,27.966,27.966,0,0,0-.146,3.027v.83a.986.986,0,0,1,0,.292,1.121,1.121,0,0,1-.039-.292c0-.219-.034-.493-.062-.824a23.468,23.468,0,0,1,.056-3.05,14.437,14.437,0,0,1,1.02-4.412,10.652,10.652,0,0,1,3.42-4.351,13.048,13.048,0,0,1,2.456-1.519,13.458,13.458,0,0,1,2.545-.875,15.181,15.181,0,0,1,7.529.191c.348.09.611.191.791.252A1.531,1.531,0,0,1,70.163,340.144Z" transform="translate(-40.494 -282.65)" fill="#263238"/>
        <path id="Trazado_208152" data-name="Trazado 208152" d="M76.046,344.7s.2.151.561.46c.185.151.426.342.7.561l.908.858c1.368,1.306,3.291,3.308,5.662,5.943,4.754,5.259,11.359,12.99,19.157,22.5l-.078-.039,35.36,4.384h.118v.118c.213,4.351.437,8.914.667,13.562v.146h-.14l-1.088.084c-6.262.482-12.385.9-18.294,1.233-2.96.163-5.864.314-8.712.415s-5.634.191-8.365.146c-.678,0-1.357-.045-2.03-.067a3.048,3.048,0,0,1-.5-.028l-.5-.084a6.28,6.28,0,0,1-.981-.247,21.3,21.3,0,0,1-3.6-1.609,71.54,71.54,0,0,1-6.363-3.986c-3.958-2.7-7.524-5.5-10.747-8.034-6.436-5.135-11.488-9.48-14.963-12.5-1.727-1.514-3.061-2.7-3.981-3.5-.443-.4-.785-.706-1.026-.919l-.348-.32s.135.1.37.3l1.043.9,4.02,3.442c3.5,2.994,8.561,7.316,15.014,12.424,3.229,2.545,6.8,5.3,10.781,8.04a70.249,70.249,0,0,0,6.352,3.964,21.237,21.237,0,0,0,3.549,1.581,13.735,13.735,0,0,0,3.953.409c2.719.039,5.505-.05,8.348-.151s5.752-.263,8.707-.426c5.909-.342,12.026-.757,18.288-1.239l1.088-.084-.135.151c-.224-4.648-.449-9.211-.662-13.562l.129.135-35.354-4.429h-.05l-.028-.039C95.086,365.657,88.509,357.9,83.8,352.622c-2.355-2.646-4.261-4.665-5.606-5.982l-.891-.875-.684-.589Z" transform="translate(-42.873 -285.065)" fill="#263238"/>
        <path id="Trazado_208153" data-name="Trazado 208153" d="M135.62,404.8a9.06,9.06,0,0,1,.5-2.943,8.864,8.864,0,0,1,1.205-2.73c.078.039-.46,1.256-.925,2.8S135.71,404.815,135.62,404.8Z" transform="translate(-77.218 -308.979)" fill="#263238"/>
        <path id="Trazado_208154" data-name="Trazado 208154" d="M35.33,351.83h0a3.88,3.88,0,0,0-3.88,3.885v51.579h7.759V355.715a3.88,3.88,0,0,0-3.88-3.885Z" transform="translate(-31.45 -288.197)" fill="#263238"/>
      </g>
      <g id="freepik--Desk--inject-61" transform="translate(91.892 219.239)">
        <path id="Trazado_208155" data-name="Trazado 208155" d="M425.282,395.03H398.73l7.266,23.2h27.572Z" transform="translate(-259.332 -381.793)" fill="#fff"/>
        <path id="Trazado_208156" data-name="Trazado 208156" d="M392.579,395c-.477.308-7.849,23.2-7.849,23.2h15.732Z" transform="translate(-253.181 -381.78)" fill="#e0e0e0"/>
        <path id="Trazado_208157" data-name="Trazado 208157" d="M433.406,418.124l-.05-.107c-.034-.084-.073-.191-.129-.325-.112-.3-.269-.729-.477-1.267-.409-1.121-1-2.747-1.749-4.782-1.486-4.115-3.571-9.907-6.01-16.673l.129.09H398.567l.151-.151,5.606,16.685c.678,2.041,1.222,3.667,1.6,4.8.179.561.314.976.415,1.278.039.14.073.247.1.336a.819.819,0,0,1,.028.112.227.227,0,0,0-.05-.107l-.123-.325c-.107-.3-.258-.729-.454-1.267l-1.682-4.782c-1.413-4.115-3.409-9.9-5.735-16.673l-.062-.179H425.2l.034.09c2.4,6.784,4.451,12.581,5.915,16.707.712,2.046,1.278,3.672,1.682,4.8.185.561.331.975.432,1.284l.107.336C433.4,418.085,433.411,418.124,433.406,418.124Z" transform="translate(-259.17 -381.688)" fill="#263238"/>
        <path id="Trazado_208158" data-name="Trazado 208158" d="M416.563,418.229c-.079,0-1.906-5.147-4.093-11.549s-3.885-11.622-3.812-11.65,1.906,5.147,4.093,11.555S416.642,418.207,416.563,418.229Z" transform="translate(-263.694 -381.793)" fill="#263238"/>
        <path id="Trazado_208159" data-name="Trazado 208159" d="M426.493,418.229c-.073,0-1.906-5.147-4.087-11.549s-3.891-11.622-3.818-11.65,1.912,5.147,4.093,11.555S426.572,418.207,426.493,418.229Z" transform="translate(-268.056 -381.793)" fill="#263238"/>
        <path id="Trazado_208160" data-name="Trazado 208160" d="M436.433,418.229c-.078,0-1.912-5.147-4.093-11.549s-3.891-11.622-3.812-11.65,1.906,5.147,4.087,11.555S436.506,418.207,436.433,418.229Z" transform="translate(-272.423 -381.793)" fill="#263238"/>
        <path id="Trazado_208161" data-name="Trazado 208161" d="M446.363,418.229c-.078,0-1.906-5.147-4.093-11.549s-3.891-11.622-3.812-11.65,1.906,5.147,4.093,11.555S446.436,418.207,446.363,418.229Z" transform="translate(-276.786 -381.793)" fill="#263238"/>
        <path id="Trazado_208162" data-name="Trazado 208162" d="M405.978,399.086a10.266,10.266,0,0,1-3.448,0,10.266,10.266,0,0,1,3.448,0Z" transform="translate(-261.002 -383.511)" fill="#263238"/>
        <path id="Trazado_208163" data-name="Trazado 208163" d="M415.6,399.086a10.266,10.266,0,0,1-3.448,0A10.265,10.265,0,0,1,415.6,399.086Z" transform="translate(-265.229 -383.511)" fill="#263238"/>
        <path id="Trazado_208164" data-name="Trazado 208164" d="M425.128,399.086a10.266,10.266,0,0,1-3.448,0,10.265,10.265,0,0,1,3.448,0Z" transform="translate(-269.416 -383.511)" fill="#263238"/>
        <path id="Trazado_208165" data-name="Trazado 208165" d="M443.553,399.086a5.926,5.926,0,0,1-2.613,0,5.926,5.926,0,0,1,2.613,0Z" transform="translate(-277.878 -383.511)" fill="#263238"/>
        <path id="Trazado_208166" data-name="Trazado 208166" d="M435.348,399.086a10.265,10.265,0,0,1-3.448,0,10.266,10.266,0,0,1,3.448,0Z" transform="translate(-273.906 -383.511)" fill="#263238"/>
        <path id="Trazado_208167" data-name="Trazado 208167" d="M427.472,402.046c0,.084-5.892.146-13.164.146s-13.158-.062-13.158-.146,5.892-.146,13.158-.146S427.472,401.956,427.472,402.046Z" transform="translate(-260.396 -384.811)" fill="#263238"/>
        <path id="Trazado_208168" data-name="Trazado 208168" d="M429.5,407.626c0,.078-5.892.146-13.164.146s-13.158-.067-13.158-.146,5.892-.146,13.158-.146S429.5,407.547,429.5,407.626Z" transform="translate(-261.288 -387.263)" fill="#263238"/>
        <path id="Trazado_208169" data-name="Trazado 208169" d="M431.316,413.886c0,.084-5.892.146-13.164.146S405,413.959,405,413.886s5.892-.146,13.158-.146S431.316,413.8,431.316,413.886Z" transform="translate(-262.087 -390.013)" fill="#263238"/>
        <path id="Trazado_208170" data-name="Trazado 208170" d="M433.692,420.116c0,.078-5.892.146-13.164.146s-13.158-.067-13.158-.146,5.892-.146,13.158-.146S433.692,420.032,433.692,420.116Z" transform="translate(-263.129 -392.751)" fill="#263238"/>
        <path id="Trazado_208171" data-name="Trazado 208171" d="M435.542,426.356c0,.079-5.892.146-13.164.146s-13.158-.067-13.158-.146,5.892-.146,13.158-.146S435.542,426.277,435.542,426.356Z" transform="translate(-263.941 -395.492)" fill="#263238"/>
        <path id="Trazado_208172" data-name="Trazado 208172" d="M426.945,412.334a.7.7,0,0,1,.235,0h.684a6.167,6.167,0,0,1,2.478.5A3.3,3.3,0,0,1,431.677,414a2.243,2.243,0,0,1,.269,2.013,2.8,2.8,0,0,1-1.626,1.553,4.535,4.535,0,0,1-2.405.14,8.187,8.187,0,0,1-2.282-.74,3.28,3.28,0,0,1-1.575-1.6,2.192,2.192,0,0,1,.062-2.03,2.445,2.445,0,0,1,1.452-1.026,3.427,3.427,0,0,1,1.452-.073,5.862,5.862,0,0,1,1.06.258c.286.09.5.174.645.23a.837.837,0,0,1,.219.107,7.72,7.72,0,0,1-.891-.23,4.485,4.485,0,0,0-2.428-.1,2.27,2.27,0,0,0-1.3.953,1.973,1.973,0,0,0,0,1.8,3.077,3.077,0,0,0,1.469,1.452,8.14,8.14,0,0,0,2.2.706,4.272,4.272,0,0,0,2.243-.123,2.539,2.539,0,0,0,1.48-1.379,2,2,0,0,0-.224-1.788,3.106,3.106,0,0,0-1.217-1.121,6.4,6.4,0,0,0-2.394-.561A7.287,7.287,0,0,1,426.945,412.334Z" transform="translate(-270.364 -389.336)" fill="#feca2e"/>
        <path id="Trazado_208173" data-name="Trazado 208173" d="M425.19,417.177a6.549,6.549,0,0,1,.942-1.02l2.377-2.36,2.366-2.355a7.049,7.049,0,0,1,1.026-.942,6.2,6.2,0,0,1-.875,1.082c-.561.639-1.385,1.5-2.315,2.422s-1.794,1.732-2.433,2.3a6.444,6.444,0,0,1-1.088.869Z" transform="translate(-270.958 -388.59)" fill="#feca2e"/>
        <path id="Trazado_208174" data-name="Trazado 208174" d="M433.528,417.145a9.5,9.5,0,0,1-1.43-.841c-.858-.561-2.041-1.329-3.336-2.2s-2.456-1.682-3.291-2.276a8.894,8.894,0,0,1-1.312-1.015,9.292,9.292,0,0,1,1.43.847c.863.561,2.041,1.323,3.364,2.2s2.456,1.682,3.291,2.276A9.3,9.3,0,0,1,433.528,417.145Z" transform="translate(-270.505 -388.726)" fill="#feca2e"/>
        <path id="Trazado_208175" data-name="Trazado 208175" d="M426.273,404.1a2.993,2.993,0,0,1-1.486.157,3.028,3.028,0,0,1-1.458-.308,5.357,5.357,0,0,1,1.474,0A5.438,5.438,0,0,1,426.273,404.1Z" transform="translate(-270.141 -385.69)" fill="#feca2e"/>
        <path id="Trazado_208176" data-name="Trazado 208176" d="M426.912,405.582c0,.084-.448.179-1.02.219s-1.032,0-1.032-.078.449-.179,1.015-.213S426.906,405.5,426.912,405.582Z" transform="translate(-270.813 -386.391)" fill="#feca2e"/>
        <path id="Trazado_208177" data-name="Trazado 208177" d="M436.625,404.466c0,.078-.465.185-1.06.185s-1.071-.1-1.065-.179.482-.107,1.065-.112S436.619,404.382,436.625,404.466Z" transform="translate(-275.048 -385.892)" fill="#feca2e"/>
        <path id="Trazado_208178" data-name="Trazado 208178" d="M448.242,409.733c0,.084-.3.174-.69.2s-.706,0-.712-.1.3-.168.69-.2S448.236,409.654,448.242,409.733Z" transform="translate(-280.47 -388.209)" fill="#feca2e"/>
        <path id="Trazado_208179" data-name="Trazado 208179" d="M419.3,410.907a2.36,2.36,0,0,1-1.289.2,2.327,2.327,0,0,1-1.278-.263,4.069,4.069,0,0,1,1.289,0,3.924,3.924,0,0,1,1.278.067Z" transform="translate(-267.241 -388.717)" fill="#feca2e"/>
        <path id="Trazado_208180" data-name="Trazado 208180" d="M411.556,417.667c0,.084-.46.168-1.037.2s-1.048,0-1.048-.09.46-.168,1.037-.2S411.556,417.589,411.556,417.667Z" transform="translate(-264.051 -391.692)" fill="#feca2e"/>
        <path id="Trazado_208181" data-name="Trazado 208181" d="M426.641,430.461c0,.084-.449.224-1.02.32s-1.06.107-1.071,0,.443-.219,1.02-.314S426.624,430.383,426.641,430.461Z" transform="translate(-270.677 -397.333)" fill="#feca2e"/>
        <path id="Trazado_208182" data-name="Trazado 208182" d="M434.333,424.455a3.122,3.122,0,0,1-1.474.179,3.184,3.184,0,0,1-1.469-.241,4.777,4.777,0,0,1,1.474-.05,5.2,5.2,0,0,1,1.469.112Z" transform="translate(-273.682 -394.657)" fill="#feca2e"/>
        <path id="Trazado_208183" data-name="Trazado 208183" d="M445.323,423.418c0,.084-.488.179-1.121.213s-1.121,0-1.121-.078a2.348,2.348,0,0,1,1.121-.213C444.818,423.306,445.323,423.34,445.323,423.418Z" transform="translate(-278.818 -394.226)" fill="#feca2e"/>
        <path id="Trazado_208184" data-name="Trazado 208184" d="M392.595,395c.073.028-1.615,5.242-3.773,11.645s-3.975,11.583-4.053,11.555,1.615-5.236,3.773-11.644S392.516,395,392.595,395Z" transform="translate(-253.197 -381.78)" fill="#263238"/>
        <path id="Trazado_208185" data-name="Trazado 208185" d="M438.422,432.356c0,.084-5.892.146-13.158.146s-13.164-.062-13.164-.146,5.892-.146,13.164-.146S438.422,432.277,438.422,432.356Z" transform="translate(-265.207 -398.128)" fill="#263238"/>
        <path id="Trazado_208186" data-name="Trazado 208186" d="M251.53,371.617l-.269-.056a1.054,1.054,0,0,0-1.25.8l-7.35,33.431H206.174a1.054,1.054,0,0,0-1.054,1.054h0a1.054,1.054,0,0,0,1.054,1.054h38.264l7.911-35.023a1.054,1.054,0,0,0-.819-1.261Z" transform="translate(-174.268 -371.471)" fill="#e0e0e0"/>
        <path id="Trazado_208187" data-name="Trazado 208187" d="M251.437,371.566a.92.92,0,0,1,.594.336,1.071,1.071,0,0,1,.264.8c-.056.336-.151.706-.241,1.121-.381,1.732-.942,4.25-1.648,7.451-1.435,6.425-3.487,15.591-5.954,26.586v.1H206.019a1.2,1.2,0,0,1-.5-2.243,1.374,1.374,0,0,1,.729-.146h36.335l-.118.1c2.355-10.613,4.311-19.432,5.679-25.61.7-3.078,1.239-5.494,1.609-7.154a2.977,2.977,0,0,1,.348-1.065,1.054,1.054,0,0,1,.7-.409,1.122,1.122,0,0,1,.493.039l.163.045-.168-.028a1.379,1.379,0,0,0-.482,0,1.065,1.065,0,0,0-.656.409,2.893,2.893,0,0,0-.32,1.048c-.353,1.682-.875,4.081-1.536,7.165-1.351,6.167-3.274,15.014-5.606,25.632v.1H206.232a1.048,1.048,0,0,0-.589.112.908.908,0,0,0,.376,1.682h38.314l-.123.1c2.5-10.989,4.592-20.144,6.049-26.563.74-3.2,1.318-5.707,1.716-7.434.1-.426.2-.807.258-1.121a1.043,1.043,0,0,0-.23-.768A1.122,1.122,0,0,0,251.437,371.566Z" transform="translate(-174.175 -371.42)" fill="#263238"/>
        <rect id="Rectángulo_45959" data-name="Rectángulo 45959" width="260.451" height="7.883" transform="translate(0.135 36.481)" fill="#e0e0e0"/>
        <path id="Trazado_208188" data-name="Trazado 208188" d="M410.676,444.248c0-.23,0-2.54-.034-7.877l.034.034-260.44.112h0l.146-.146v7.877l-.146-.146,260.451.146-260.451.146h-.146V436.22h.157l260.44.112h.05v.039C410.687,441.7,410.676,444.018,410.676,444.248Z" transform="translate(-150.09 -399.89)" fill="#263238"/>
        <rect id="Rectángulo_45960" data-name="Rectángulo 45960" width="53.917" height="4.838" transform="translate(176.949 31.559)" fill="#fafafa"/>
        <path id="Trazado_208189" data-name="Trazado 208189" d="M519.53,432.373v-1.261c0-.83,0-2.03-.034-3.577l.056.056c-8.97.05-29.748.09-53.917.09h0l.146-.146v4.838l-.146-.146,38.247.062,11.465.045h.073l-11.431.045-38.353.062h-.146v-4.984l.146-.146h0c24.169,0,44.935.034,53.917.084h.045v.062c0,1.559,0,2.8-.034,3.611v.919A2.191,2.191,0,0,1,519.53,432.373Z" transform="translate(-288.664 -395.975)" fill="#263238"/>
        <rect id="Rectángulo_45961" data-name="Rectángulo 45961" width="53.294" height="2.697" transform="translate(171.999 28.862)" fill="#fafafa"/>
        <path id="Trazado_208190" data-name="Trazado 208190" d="M510.155,425.417a1.163,1.163,0,0,1,0-.174V422.72l.045.039c-6.767.062-28.088.107-53.294.107h0l.146-.146h0v2.691l-.146-.146,37.737.056,11.375.045h.073l-11.342.045-37.843.062h-.146v-2.837h0l.146-.146h0c25.229,0,46.533.045,53.294.1h-.045v2.826Z" transform="translate(-284.829 -393.858)" fill="#263238"/>
        <path id="Trazado_208191" data-name="Trazado 208191" d="M518.331,433.056c0,.078-11.678.146-26.075.146s-26.075-.067-26.075-.146,11.673-.146,26.075-.146S518.331,432.96,518.331,433.056Z" transform="translate(-288.967 -398.436)" fill="#263238"/>
        <path id="Trazado_208192" data-name="Trazado 208192" d="M520.621,430.766c0,.078-11.678.146-26.075.146s-26.075-.067-26.075-.146,11.673-.146,26.075-.146S520.621,430.682,520.621,430.766Z" transform="translate(-289.973 -397.43)" fill="#263238"/>
        <rect id="Rectángulo_45962" data-name="Rectángulo 45962" width="1.895" height="27.354" transform="translate(106.44 31.392) rotate(175.88)" fill="#e0e0e0"/>
        <path id="Trazado_208193" data-name="Trazado 208193" d="M334.84,412.736l2.691-.2.634,8.813a1.346,1.346,0,0,1-1.245,1.441h0a1.351,1.351,0,0,1-1.43-1.25Z" transform="translate(-231.262 -389.486)" fill="#455a64"/>
        <rect id="Rectángulo_45963" data-name="Rectángulo 45963" width="0.521" height="11.459" transform="translate(104.096 30.638) rotate(175.87)" fill="#455a64"/>
        <path id="Trazado_208194" data-name="Trazado 208194" d="M337.395,412.539a16.67,16.67,0,0,1-2.708.392l.106-.135c.05.611.1,1.278.157,1.985.1,1.3.163,2.478.2,3.364a6.92,6.92,0,0,1,0,1.385,6.055,6.055,0,0,1-.207-1.368c-.084-.852-.185-2.029-.28-3.336-.045-.7-.09-1.368-.129-1.985v-.129h.129A18.5,18.5,0,0,1,337.395,412.539Z" transform="translate(-231.126 -389.485)" fill="#263238"/>
        <rect id="Rectángulo_45964" data-name="Rectángulo 45964" width="1.895" height="21.355" transform="translate(106.471 4.895)" fill="#e0e0e0"/>
        <path id="Trazado_208195" data-name="Trazado 208195" d="M341.887,387.034h-2.7v-8.819a1.346,1.346,0,0,1,1.346-1.346h0a1.351,1.351,0,0,1,1.351,1.346Z" transform="translate(-233.173 -373.814)" fill="#455a64"/>
        <rect id="Rectángulo_45965" data-name="Rectángulo 45965" width="0.521" height="11.459" transform="translate(108.731 5.848)" fill="#455a64"/>
        <path id="Trazado_208196" data-name="Trazado 208196" d="M339.22,389.671a17.231,17.231,0,0,1,2.73-.2l-.129.135v-1.99c0-1.306,0-2.489.045-3.364a6.9,6.9,0,0,1,.1-1.385,6.6,6.6,0,0,1,.107,1.385c0,.852.039,2.035.039,3.364v2.119h-.129a18.206,18.206,0,0,1-2.764-.067Z" transform="translate(-233.186 -376.45)" fill="#263238"/>
        <rect id="Rectángulo_45966" data-name="Rectángulo 45966" width="1.895" height="21.355" transform="translate(110.283 9.907)" fill="#e0e0e0"/>
        <path id="Trazado_208197" data-name="Trazado 208197" d="M348.708,396.008H346v-8.853a1.34,1.34,0,0,1,1.345-1.345h0a1.346,1.346,0,0,1,1.351,1.346Z" transform="translate(-236.165 -377.742)" fill="#455a64"/>
        <rect id="Rectángulo_45967" data-name="Rectángulo 45967" width="0.521" height="11.459" transform="translate(112.543 10.86)" fill="#455a64"/>
        <path id="Trazado_208198" data-name="Trazado 208198" d="M346,398.671a17.228,17.228,0,0,1,2.73-.2l-.129.135v-1.99c0-1.306,0-2.489.045-3.364a6.891,6.891,0,0,1,.1-1.385,6.169,6.169,0,0,1,.107,1.385c.028.852.039,2.035.039,3.364v2.119h-.129a17.827,17.827,0,0,1-2.764-.067Z" transform="translate(-236.165 -380.405)" fill="#263238"/>
        <rect id="Rectángulo_45968" data-name="Rectángulo 45968" width="1.895" height="21.355" transform="translate(113.883 4.11)" fill="#e0e0e0"/>
        <path id="Trazado_208199" data-name="Trazado 208199" d="M355.127,385.651h-2.7v-8.83a1.351,1.351,0,0,1,1.351-1.351h0a1.351,1.351,0,0,1,1.346,1.351Z" transform="translate(-238.99 -373.199)" fill="#455a64"/>
        <rect id="Rectángulo_45969" data-name="Rectángulo 45969" width="0.521" height="11.459" transform="translate(116.137 5.063)" fill="#455a64"/>
        <path id="Trazado_208200" data-name="Trazado 208200" d="M352.43,388.3a17.941,17.941,0,0,1,2.73-.191l-.129.129v-1.99c0-1.306,0-2.484.039-3.364a6.209,6.209,0,0,1,.107-1.385,6.966,6.966,0,0,1,.1,1.385c.028.858.045,2.035.045,3.364v2.125h-.129A17.32,17.32,0,0,1,352.43,388.3Z" transform="translate(-238.99 -375.848)" fill="#263238"/>
        <path id="Trazado_208201" data-name="Trazado 208201" d="M346.994,422.526H334.862L333.27,404.81h15.462Z" transform="translate(-230.572 -386.09)" fill="#feca2e"/>
      </g>
    </g>
  </g>
</svg>
