<svg xmlns="http://www.w3.org/2000/svg" width="57.39" height="49.092" viewBox="0 0 57.39 49.092">
  <g id="Grupo_146533" data-name="Grupo 146533" transform="translate(-1189.305 -2227.142)">
    <g id="_1_1_c" data-name="1_1_c" transform="translate(1189.305 2227.142)" opacity="0.5">
      <path id="Trazado_193821" data-name="Trazado 193821" d="M120.817,128.864H94.834a4.1,4.1,0,0,1-4.094-4.094V92.164a4.1,4.1,0,0,1,4.094-4.094H141.27a4.1,4.1,0,0,1,4.094,4.094v2.474a1.037,1.037,0,1,1-2.074,0V92.164a2.021,2.021,0,0,0-2.019-2.019H94.834a2.021,2.021,0,0,0-2.019,2.019V124.77a2.021,2.021,0,0,0,2.019,2.019h25.983a1.037,1.037,0,1,1,0,2.074Z" transform="translate(-90.74 -88.07)" fill="#4dd0e1"/>
      <path id="Trazado_193822" data-name="Trazado 193822" d="M119.434,326.844H91.777a1.037,1.037,0,0,1,0-2.074h27.657a1.037,1.037,0,0,1,0,2.074Z" transform="translate(-90.74 -294.347)" fill="#4dd0e1"/>
      <path id="Trazado_193823" data-name="Trazado 193823" d="M223.956,455.954H210.127a1.037,1.037,0,1,1,0-2.074h13.828a1.037,1.037,0,1,1,0,2.074Z" transform="translate(-193.879 -406.863)" fill="#4dd0e1"/>
      <path id="Trazado_193824" data-name="Trazado 193824" d="M234.1,399.073a1.038,1.038,0,0,1-.6-1.885l3.04-2.145a1.4,1.4,0,0,0,.355-1.054l-.008-3.639a1.038,1.038,0,0,1,1.035-1.04h0a1.037,1.037,0,0,1,1.037,1.035l.008,3.631a3.328,3.328,0,0,1-1.234,2.761l-3.04,2.145a1.031,1.031,0,0,1-.6.19Z" transform="translate(-214.77 -350.592)" fill="#4dd0e1"/>
      <path id="Trazado_193825" data-name="Trazado 193825" d="M260.072,176.214h-6.915a1.037,1.037,0,0,1,0-2.074h6.915a1.037,1.037,0,0,1,0,2.074Z" transform="translate(-231.378 -163.077)" fill="#4dd0e1"/>
      <path id="Trazado_193826" data-name="Trazado 193826" d="M260.072,219.244h-6.915a1.037,1.037,0,1,1,0-2.074h6.915a1.037,1.037,0,1,1,0,2.074Z" transform="translate(-231.378 -200.577)" fill="#4dd0e1"/>
      <path id="Trazado_193827" data-name="Trazado 193827" d="M185.065,262.284H167.087a1.037,1.037,0,0,1,0-2.074h17.977a1.037,1.037,0,0,1,0,2.074Z" transform="translate(-156.371 -238.085)" fill="#4dd0e1"/>
      <path id="Trazado_193828" data-name="Trazado 193828" d="M174,181.736h-6.915a1.037,1.037,0,0,1,0-2.074h5.878v-4.495a1.037,1.037,0,0,1,2.074,0V180.7A1.037,1.037,0,0,1,174,181.736Z" transform="translate(-156.371 -163.069)" fill="#4dd0e1"/>
      <path id="Trazado_193829" data-name="Trazado 193829" d="M167.087,181.736a1.037,1.037,0,0,1-1.037-1.037v-5.532a1.037,1.037,0,0,1,1.037-1.037H174a1.037,1.037,0,1,1,0,2.074h-5.878V180.7A1.037,1.037,0,0,1,167.087,181.736Z" transform="translate(-156.371 -163.069)" fill="#4dd0e1"/>
      <path id="Trazado_193830" data-name="Trazado 193830" d="M370.143,202.792H351.977a3.02,3.02,0,0,1-3.017-3.017V166.4a3.02,3.02,0,0,1,3.017-3.017h18.166a3.02,3.02,0,0,1,3.017,3.017v33.378a3.02,3.02,0,0,1-3.017,3.017Zm-18.165-37.338a.945.945,0,0,0-.943.943v33.376a.945.945,0,0,0,.943.943h18.166a.945.945,0,0,0,.943-.943V166.4a.945.945,0,0,0-.943-.943H351.978Z" transform="translate(-315.771 -153.7)" fill="#4dd0e1"/>
      <path id="Trazado_193831" data-name="Trazado 193831" d="M461.736,262.284h-4.149a1.037,1.037,0,1,1,0-2.074h4.149a1.037,1.037,0,1,1,0,2.074Z" transform="translate(-409.533 -238.085)" fill="#4dd0e1"/>
      <path id="Trazado_193832" data-name="Trazado 193832" d="M461.736,294.564h-4.149a1.037,1.037,0,1,1,0-2.074h4.149a1.037,1.037,0,1,1,0,2.074Z" transform="translate(-409.533 -266.216)" fill="#4dd0e1"/>
      <path id="Trazado_193833" data-name="Trazado 193833" d="M405.483,326.844H393.037a1.037,1.037,0,0,1,0-2.074h12.445a1.037,1.037,0,1,1,0,2.074Z" transform="translate(-353.279 -294.347)" fill="#4dd0e1"/>
      <path id="Trazado_193834" data-name="Trazado 193834" d="M397.186,266.433h-4.149A1.037,1.037,0,0,1,392,265.4v-4.149a1.037,1.037,0,0,1,1.037-1.037h4.149a1.037,1.037,0,0,1,1.037,1.037V265.4A1.037,1.037,0,0,1,397.186,266.433Zm-3.112-2.074h2.074v-2.074h-2.074Z" transform="translate(-353.279 -238.085)" fill="#4dd0e1"/>
      <path id="Trazado_193835" data-name="Trazado 193835" d="M372.124,208.484H350a1.037,1.037,0,1,1,0-2.074h22.126a1.037,1.037,0,1,1,0,2.074Z" transform="translate(-315.771 -191.2)" fill="#4dd0e1"/>
      <path id="Trazado_193836" data-name="Trazado 193836" d="M372.124,380.634H350a1.037,1.037,0,0,1,0-2.074h22.126a1.037,1.037,0,0,1,0,2.074Z" transform="translate(-315.771 -341.224)" fill="#4dd0e1"/>
      <path id="Trazado_193837" data-name="Trazado 193837" d="M428.083,423.674h-2.766a1.037,1.037,0,1,1,0-2.074h2.766a1.037,1.037,0,0,1,0,2.074Z" transform="translate(-381.41 -378.732)" fill="#4dd0e1"/>
    </g>
  </g>
</svg>
