<svg xmlns="http://www.w3.org/2000/svg" width="507.921" height="374.667" viewBox="0 0 507.921 374.667">
  <g id="Grupo_146519" data-name="Grupo 146519" transform="translate(-827.079 -764)">
    <g id="_1a" data-name="1a" transform="translate(818.979 680.29)">
      <g id="Grupo_141059" data-name="Grupo 141059" transform="translate(8.1 432.819)" opacity="0.36">
        <path id="Trazado_191617" data-name="Trazado 191617" d="M8.1,521.3c0,7.059,113.7,12.779,253.961,12.779s253.961-5.72,253.961-12.779-113.7-12.779-253.961-12.779S8.1,514.24,8.1,521.3Z" transform="translate(-8.1 -508.52)" fill="#c8bcce"/>
      </g>
      <path id="Trazado_191618" data-name="Trazado 191618" d="M164.094,158.71s-9.221,0-13.888,11.127c-3.189,7.593.625,17.595.625,17.595s-15.236.526-13.675,17.669c1.792,19.707,39.348,9.3,39.348,9.3l21.4-14.365s4.881-11.6-4.5-17.619C185.354,177.266,164.094,158.71,164.094,158.71Z" transform="translate(-22.978 -13.365)"/>
      <path id="Trazado_191619" data-name="Trazado 191619" d="M135.653,494.643c1.57.493,3.41-.838,4.2-3.032l35.37-98.567-13.683-4.314-27.6,101.016c-.616,2.252.131,4.4,1.7,4.9Z" transform="translate(-22.387 -54.355)" fill="#bdb2c2"/>
      <path id="Trazado_191620" data-name="Trazado 191620" d="M222.83,494.643c-1.57.493-3.41-.838-4.2-3.032l-35.37-98.567,13.683-4.314,27.6,101.016c.616,2.252-.132,4.4-1.7,4.9Z" transform="translate(-31.214 -54.355)" fill="#bdb2c2"/>
      <path id="Trazado_191621" data-name="Trazado 191621" d="M207.16,202.39s43.333,22.263,52.192,44.435-5.555,32.839-27.612,31.491-22.575-11.546-22.575-11.546Z" transform="translate(-35.473 -21.149)" fill="#0f2771"/>
      <path id="Trazado_191622" data-name="Trazado 191622" d="M267.7,474.8s29.568,14.16,38.312,22.419,9.188,13.88,8.177,16.641-62.169.016-62.169.016-.666-16.8-7.183-15.713-2.958,16.132-2.958,16.132l-18.491-.173s-.855-16.7.493-23.257c1.446-7.076,5.555-16.625,5.555-16.625Z" transform="translate(-38.318 -69.593)" fill="#feca2e"/>
      <path id="Trazado_191623" data-name="Trazado 191623" d="M262.779,466.735s25.443,14.357,20.8,15.844-30.867,1.742-38.551-1.052-14.118-10.766-14.118-10.766V462.5l28.87-6.122,3,10.363Z" transform="translate(-39.705 -66.41)" fill="#f48462"/>
      <g id="Grupo_141060" data-name="Grupo 141060" transform="translate(326.622 265.746)">
        <path id="Trazado_191624" data-name="Trazado 191624" d="M504.415,339.144c-1.57,17.907-10.314,31.771-19.518,30.957s-15.409-15.976-13.831-33.891,10.314-31.771,19.518-30.957S505.993,321.228,504.415,339.144Z" transform="translate(-409.08 -305.219)" fill="#7b9b75"/>
        <path id="Trazado_191625" data-name="Trazado 191625" d="M433.123,368.5c16.272,7.643,26.273,20.619,22.345,28.993s-20.307,8.958-36.578,1.315-26.273-20.619-22.345-28.993S416.852,360.853,433.123,368.5Z" transform="translate(-395.691 -315.538)" fill="#7b9b75"/>
        <path id="Trazado_191626" data-name="Trazado 191626" d="M444.132,441.824c-13.182-1.989-23.035-9.1-22.008-15.877s12.532-10.659,25.714-8.67,23.035,9.1,22.008,15.877S457.314,443.813,444.132,441.824Z" transform="translate(-400.389 -325.095)" fill="#7b9b75"/>
        <path id="Trazado_191627" data-name="Trazado 191627" d="M513.915,386.082c12.2-13.206,27.6-18.819,34.384-12.549s2.408,22.065-9.788,35.272-27.6,18.819-34.384,12.549-2.408-22.065,9.788-35.272Z" transform="translate(-414.445 -316.935)" fill="#7b9b75"/>
        <path id="Trazado_191628" data-name="Trazado 191628" d="M544.21,451.485c13.149,2.186,24.72-1.529,25.837-8.284s-8.621-14.012-21.769-16.2-24.72,1.529-25.837,8.284S531.062,449.3,544.21,451.485Z" transform="translate(-418.262 -326.809)" fill="#7b9b75"/>
        <path id="Trazado_191629" data-name="Trazado 191629" d="M488.936,456.042a.5.5,0,0,1-.477-.353c-9.484-30.661-42.175-26.043-42.5-25.993a.493.493,0,0,1-.567-.419.5.5,0,0,1,.419-.567c.337-.049,33.875-4.791,43.6,26.684a.5.5,0,0,1-.329.625.466.466,0,0,1-.148.025Z" transform="translate(-404.546 -327.175)" fill="#cec9d1"/>
        <path id="Trazado_191630" data-name="Trazado 191630" d="M486.428,444.626a.5.5,0,0,1-.477-.345c-11.464-36.71-45.61-55.513-45.947-55.693a.5.5,0,0,1-.2-.674.509.509,0,0,1,.674-.205c.345.189,34.844,19.164,46.432,56.277a.5.5,0,0,1-.329.625.465.465,0,0,1-.148.025Z" transform="translate(-403.542 -319.908)" fill="#cec9d1"/>
        <path id="Trazado_191631" data-name="Trazado 191631" d="M494.827,444.6a.5.5,0,0,1-.436-.255c-17.751-32.453-6.147-107.837-6.032-108.593a.494.494,0,0,1,.567-.411.5.5,0,0,1,.419.567c-.115.756-11.67,75.811,5.917,107.96a.5.5,0,0,1-.2.674.486.486,0,0,1-.238.058Z" transform="translate(-411.522 -310.585)" fill="#cec9d1"/>
        <path id="Trazado_191632" data-name="Trazado 191632" d="M490.952,448.061a.491.491,0,0,1-.493-.477c-.016-.279-.822-27.818,38.912-55.554a.492.492,0,0,1,.69.123.5.5,0,0,1-.123.69c-39.241,27.391-38.5,54.42-38.485,54.691a.5.5,0,0,1-.477.518h-.025Z" transform="translate(-412.578 -320.672)" fill="#cec9d1"/>
        <path id="Trazado_191633" data-name="Trazado 191633" d="M495.683,455.71a.469.469,0,0,1-.181-.033.494.494,0,0,1-.279-.641c3.887-9.8,9.788-16.116,17.521-18.77,13.765-4.717,28.771,3.978,28.919,4.06a.5.5,0,0,1-.509.855c-.148-.09-14.776-8.555-28.1-3.978-7.446,2.556-13.141,8.678-16.913,18.195a.5.5,0,0,1-.46.312Z" transform="translate(-413.422 -328.322)" fill="#cec9d1"/>
        <path id="Trazado_191634" data-name="Trazado 191634" d="M462.755,511.883h37.063a3.818,3.818,0,0,0,3.887-3.312l5.67-53.984a3.76,3.76,0,0,0-3.887-4.027h-48.4a3.764,3.764,0,0,0-3.887,4.027l5.67,53.984a3.831,3.831,0,0,0,3.887,3.312Z" transform="translate(-405.937 -331.119)" fill="#cec9d1"/>
        <path id="Trazado_191635" data-name="Trazado 191635" d="M472.745,511.883h37.063a3.818,3.818,0,0,0,3.887-3.312l5.67-53.984a3.76,3.76,0,0,0-3.887-4.027h-48.4a3.764,3.764,0,0,0-3.887,4.027l5.67,53.984a3.831,3.831,0,0,0,3.887,3.312Z" transform="translate(-407.717 -331.119)" fill="#ddd7e0"/>
      </g>
      <path id="Trazado_191636" data-name="Trazado 191636" d="M235.283,252.863a.5.5,0,0,1-.419-.23.485.485,0,0,1,.164-.674,108.966,108.966,0,0,1,14.472-7.347.485.485,0,1,1,.353.9,107.925,107.925,0,0,0-14.324,7.273.482.482,0,0,1-.255.074Z" transform="translate(-40.397 -28.667)" fill="#5c69a5"/>
      <path id="Trazado_191637" data-name="Trazado 191637" d="M243.043,248.286a.609.609,0,0,1-.205-.041.5.5,0,0,1-.288-.46c0-.205.131-5.144,2.26-6.854a2.632,2.632,0,0,1,2.268-.534,1.287,1.287,0,0,1,1.1.9c.51,1.841-3.55,5.7-4.816,6.846a.5.5,0,0,1-.329.123Zm3.435-6.961a1.607,1.607,0,0,0-1.052.378c-1.126.9-1.619,3.246-1.8,4.881,2.03-1.989,3.83-4.249,3.616-5-.008-.033-.041-.148-.345-.205a2.484,2.484,0,0,0-.411-.041Z" transform="translate(-41.779 -27.91)" fill="#5c69a5"/>
      <path id="Trazado_191638" data-name="Trazado 191638" d="M125.89,264.15s-29.33,17.545-22.8,56.03c7.5,44.279,51.65,58.627,89.938,48.174s31.91-40.63,31.91-40.63L125.89,264.158Z" transform="translate(-16.758 -32.155)" fill="#eeecf1"/>
      <path id="Trazado_191639" data-name="Trazado 191639" d="M121.363,356.063a.466.466,0,0,1-.329-.131c-9.763-9.032-11.571-26.084-11.645-26.807a.489.489,0,0,1,.436-.534.481.481,0,0,1,.534.436c.016.173,1.849,17.406,11.333,26.183a.489.489,0,0,1-.337.846Z" transform="translate(-18.049 -43.638)" fill="#fff"/>
      <path id="Trazado_191640" data-name="Trazado 191640" d="M220.693,401.814l2.523,60.92-22.123,7.191L189.35,455.9l-2.63-63.336Z" transform="translate(-31.83 -55.037)" fill="#f48462"/>
      <g id="Grupo_141061" data-name="Grupo 141061" transform="translate(112.953 292.394)" opacity="0.57">
        <path id="Trazado_191641" data-name="Trazado 191641" d="M135.821,341.249c-1.487,4.8,9.755,12.557,25.122,17.332s29.034,4.758,30.522-.033-9.755-12.557-25.122-17.332S137.309,336.457,135.821,341.249Z" transform="translate(-135.689 -337.645)" fill="#c8bcce"/>
      </g>
      <path id="Trazado_191642" data-name="Trazado 191642" d="M260.369,403.292V451.2l-20.874,13.806-15.795-9.9.468-60.2Z" transform="translate(-38.42 -55.456)" fill="#f48462"/>
      <path id="Trazado_191643" data-name="Trazado 191643" d="M214.46,294.62s45.717,33.053,51.634,41.172,1.594,68.6,1.594,68.6l-47.18,1.216-2.6-44.3-32.091-62.49,28.64-4.191Z" transform="translate(-31.67 -37.584)" fill="#4dd0e1"/>
      <path id="Trazado_191644" data-name="Trazado 191644" d="M146.449,300.776s-2.523,22.632-1.948,28.525,23.4,14.768,23.4,14.768l.148,62.309,54.3-.583s-.97-69.113-1.676-75.3-36.619-31.763-36.619-31.763l-37.606,2.046Z" transform="translate(-24.292 -38.317)" fill="#4dd0e1"/>
      <path id="Trazado_191645" data-name="Trazado 191645" d="M186.7,200.11s11.612-.805,19.115,8.843,11.316,73.428,10.782,74.274-17.545,4.06-41.8,3.526-27.284-1.594-28.081-2.893.888-72.138,6.78-77.923,18.589-7.593,33.2-5.818Z" transform="translate(-24.669 -20.628)" fill="#0f2771"/>
      <path id="Trazado_191646" data-name="Trazado 191646" d="M180.918,187.56l.288,12.993s2.424,3.682,10.042,4.134c5.67.337,7.635-.986,7.635-.986l-.937-6.566-.92-6.4-13.8-2.712-2.317-.46Z" transform="translate(-30.795 -18.506)" fill="#f48462"/>
      <path id="Trazado_191647" data-name="Trazado 191647" d="M183.738,188.11a4.262,4.262,0,0,0,.4,1.249c3.049,6.426,11.037,7.651,14.308,7.873l-.92-6.4-13.8-2.712Z" transform="translate(-31.297 -18.604)"/>
      <path id="Trazado_191648" data-name="Trazado 191648" d="M197.237,154.29s6.18,15.844,3.69,24.95-9.779,8.037-14.751,6.311a16.385,16.385,0,0,1-7.289-4.75,6.99,6.99,0,0,1-7.75-2.687c-3.123-4.29-1.249-9.245,1.381-10.4s5.794.74,5.794.74l-2.5-4.684s10.207-23.98,21.416-9.484Z" transform="translate(-28.763 -11.748)" fill="#f48462"/>
      <path id="Trazado_191649" data-name="Trazado 191649" d="M202.1,178.637a.313.313,0,0,1-.148-.025.492.492,0,0,1-.321-.616c.92-2.983-1.307-6.221-1.331-6.254a.5.5,0,0,1,.115-.682.488.488,0,0,1,.682.115c.107.148,2.539,3.657,1.471,7.109a.483.483,0,0,1-.468.345Z" transform="translate(-34.235 -15.55)"/>
      <path id="Trazado_191650" data-name="Trazado 191650" d="M221.212,259.108s-19.863,5.662-20.783,6.385-7.947,16.872-5.974,18.441,4.577-2.046,4.577-2.046-.5,2.786,1.4,2.786,9.2-4.479,9.2-4.479-7.355,4.717-3.493,5.251,18.343-2.128,20.011-6.287-4.939-20.06-4.939-20.06Z" transform="translate(-33.147 -31.255)" fill="#e87458"/>
      <path id="Trazado_191651" data-name="Trazado 191651" d="M178.331,180.526a.457.457,0,0,1-.353-.156l-4.4-4.66a.491.491,0,0,1,.016-.69.484.484,0,0,1,.69.016l4.4,4.66a.491.491,0,0,1-.016.69.485.485,0,0,1-.337.131Z" transform="translate(-29.465 -16.247)"/>
      <path id="Trazado_191652" data-name="Trazado 191652" d="M173.624,179.917a.492.492,0,0,1-.074-.978l3.041-.46a.478.478,0,0,1,.559.411.5.5,0,0,1-.411.559l-3.041.46h-.074Z" transform="translate(-29.409 -16.886)"/>
      <path id="Trazado_191653" data-name="Trazado 191653" d="M235.355,488.818l-11.292-17.57c-5.794-3.788-23.775.058-23.775.058s-8.958-12.8-11.941-6.106-7.618,30.744-5.358,36.044,18.918,14.127,40.794,14.069c10.314-.025,25.18-3.213,25.188-6.755.016-5.572-10.108-16.074-13.625-19.74Z" transform="translate(-31.058 -67.636)" fill="#feca2e"/>
      <path id="Trazado_191654" data-name="Trazado 191654" d="M194.941,207.33l8.818,71.866h-6.081l-6.607-71.045Z" transform="translate(-32.605 -22.029)" fill="#8e657d"/>
      <path id="Trazado_191655" data-name="Trazado 191655" d="M190.414,166.1a.491.491,0,0,1-.164-.953l3.838-1.372a.489.489,0,1,1,.329.92l-3.838,1.372a.569.569,0,0,1-.164.025Z" transform="translate(-32.401 -14.262)"/>
      <path id="Trazado_191656" data-name="Trazado 191656" d="M204.8,164h-3.271a.493.493,0,1,1,0-.986H204.8a.493.493,0,0,1,0,.986Z" transform="translate(-34.382 -14.131)"/>
      <path id="Trazado_191657" data-name="Trazado 191657" d="M119.266,492.691a3.993,3.993,0,0,0,3.994-3.994V294.81h-7.98V488.7a3.993,3.993,0,0,0,3.994,3.994Z" transform="translate(-19.1 -37.618)" fill="#bdb2c2"/>
      <path id="Trazado_191658" data-name="Trazado 191658" d="M420.356,492.691a3.993,3.993,0,0,0,3.994-3.994V294.81h-7.98V488.7a3.993,3.993,0,0,0,3.994,3.994Z" transform="translate(-72.754 -37.618)" fill="#bdb2c2"/>
      <g id="Grupo_141062" data-name="Grupo 141062" transform="translate(373.69 83.71)">
        <circle id="Elipse_4916" data-name="Elipse 4916" cx="29.322" cy="29.322" r="29.322" transform="translate(3.192 3.197)" fill="#ddd7e0"/>
        <circle id="Elipse_4917" data-name="Elipse 4917" cx="22.994" cy="22.994" r="22.994" transform="translate(0 32.518) rotate(-45)" fill="#fff"/>
        <path id="Trazado_191659" data-name="Trazado 191659" d="M491.065,122.569a.923.923,0,0,1-.748-.378l-10.856-14.842a.932.932,0,0,1,1.5-1.1l10.552,14.414,13.691-1.282a.947.947,0,0,1,1.011.838.93.93,0,0,1-.838,1.011l-14.217,1.331h-.09Z" transform="translate(-457.655 -87.659)" fill="#bdb2c2"/>
      </g>
      <g id="Grupo_141063" data-name="Grupo 141063" transform="translate(227.561 155.165)">
        <path id="Trazado_191660" data-name="Trazado 191660" d="M371.413,289.31H297.46a4.29,4.29,0,0,1,0-8.58h73.954a4.29,4.29,0,1,1,0,8.58Z" transform="translate(-278.361 -190.275)" fill="#ddd7e0"/>
        <rect id="Rectángulo_44043" data-name="Rectángulo 44043" width="131.891" height="66.763" rx="8.42" fill="#ddd7e0"/>
        <rect id="Rectángulo_44044" data-name="Rectángulo 44044" width="19.444" height="56.869" transform="translate(56.228 43.35)" fill="#a89fb3"/>
        <rect id="Rectángulo_44045" data-name="Rectángulo 44045" width="38.419" height="9.853" rx="4.927" transform="translate(46.736 39.003)" fill="#a89fb3"/>
        <path id="Trazado_191661" data-name="Trazado 191661" d="M334.7,176.186H295.1a.493.493,0,0,1,0-.986H334.7a.493.493,0,0,1,0,.986Z" transform="translate(-278.618 -171.469)" fill="#fff"/>
      </g>
      <path id="Trazado_191662" data-name="Trazado 191662" d="M197.85,184a.362.362,0,0,1-.132-.016,9.55,9.55,0,0,1-4.076-2.613.489.489,0,1,1,.723-.657,8.8,8.8,0,0,0,3.616,2.326.486.486,0,0,1-.131.953Z" transform="translate(-33.041 -17.258)"/>
      <g id="Grupo_141064" data-name="Grupo 141064" transform="translate(200.985 222.323)">
        <rect id="Rectángulo_44046" data-name="Rectángulo 44046" width="23.528" height="30.768" transform="translate(32.321 32.116) rotate(180)" fill="#f7b369"/>
        <path id="Trazado_191663" data-name="Trazado 191663" d="M253.51,253.736c0,.748,5.268,1.356,11.768,1.356s11.768-.608,11.768-1.356-5.268-1.356-11.768-1.356-11.768.608-11.768,1.356Z" transform="translate(-244.717 -252.38)" fill="#fff"/>
        <path id="Trazado_191664" data-name="Trazado 191664" d="M242.81,272.277c0-6.262,3.945-11.357,8.793-11.357s8.793,5.1,8.793,11.357-3.945,11.357-8.793,11.357S242.81,278.539,242.81,272.277Zm2.079,0c0,5.12,3.008,9.278,6.714,9.278s6.714-4.167,6.714-9.278S255.3,263,251.6,263,244.889,267.166,244.889,272.277Z" transform="translate(-242.81 -253.902)" fill="#f7b369"/>
      </g>
      <path id="Trazado_191665" data-name="Trazado 191665" d="M192.65,212.6s-5,9.023-3.772,17.439,5.646,11.793,5.646,11.793,3.394-9.089,3.008-13.321-2.474-18.162-2.474-18.162l-2.4,2.252Z" transform="translate(-32.18 -22.567)" fill="#feca2e"/>
      <path id="Trazado_191666" data-name="Trazado 191666" d="M180.408,198.008s-4.191.74-1.405,6.057c3.8,7.265,9.763,9.081,16.091,7.5s3.838-11.448,3.838-11.448l-1.118-.173s.592,2.391-4.651,3.3C186.991,204.328,180.4,198,180.4,198Z" transform="translate(-30.285 -20.367)" fill="#feca2e"/>
      <path id="Trazado_191667" data-name="Trazado 191667" d="M194.269,211.638s-2.679,9.886,3.263,17.595a54.318,54.318,0,0,0,11.965,11.62s-1.5-12.705-3.123-18.137c-.222-.74-7.24-16.995-12.105-11.086Z" transform="translate(-33.068 -22.566)" fill="#feca2e"/>
      <path id="Trazado_191668" data-name="Trazado 191668" d="M203.895,229.391a2,2,0,0,1-1.241-.46c-2.737-2.137-3.682-12.048-3.715-12.467a.485.485,0,0,1,.9-.3c1.068,1.685,6.328,10.2,5.276,12.516a1.189,1.189,0,0,1-.937.7,1.7,1.7,0,0,1-.288.025Zm-3.715-10.8c.477,3.369,1.5,8.333,3.082,9.566a.921.921,0,0,0,.772.238.2.2,0,0,0,.189-.14c.518-1.151-1.783-5.835-4.043-9.673Z" transform="translate(-34.007 -23.562)" fill="#5c69a5"/>
      <path id="Trazado_191669" data-name="Trazado 191669" d="M72.728,300.765H396.2a5.268,5.268,0,0,0,0-10.535H72.728a5.268,5.268,0,1,0,0,10.535Z" transform="translate(-10.578 -36.802)" fill="#bdb2c2"/>
      <path id="Trazado_191670" data-name="Trazado 191670" d="M191.841,264.7s1.455-1.413,6.09-1.208c3.912.181,20.266,3.189,25.2,4.01s16.37,8.588,14.718,10.01-12.8-2.252-12.8-2.252,8.382,9.442,6.788,11-4.906-.772-4.906-.772,2.654,2.827-.2,3.542-12.779-7.922-12.779-7.922,4.158,8.5,2.178,9.18-8.711-7.3-8.711-7.3-9.755,5.991-14.866.468-4.619-9.056-4.619-9.056l3.912-9.7Z" transform="translate(-32.045 -32.034)" fill="#fc8d70"/>
      <path id="Trazado_191671" data-name="Trazado 191671" d="M233.261,288.242a.5.5,0,0,1-.378-.173l-9.327-11.094a.49.49,0,0,1,.748-.633l9.327,11.094a.493.493,0,0,1-.058.69.505.505,0,0,1-.312.115Z" transform="translate(-38.374 -34.297)"/>
      <path id="Trazado_191672" data-name="Trazado 191672" d="M232.3,277.495a.505.505,0,0,1-.353-.148l-3.254-3.336a.484.484,0,0,1,.008-.69.491.491,0,0,1,.69.008l3.254,3.336a.484.484,0,0,1-.008.69.514.514,0,0,1-.345.14Z" transform="translate(-39.284 -33.764)"/>
      <path id="Trazado_191673" data-name="Trazado 191673" d="M204.277,170.989a.487.487,0,0,1-.485-.419l-.444-3.008a.476.476,0,0,1,.131-.411l1-1.044a.485.485,0,1,1,.7.674l-.838.871.4,2.769a.492.492,0,0,1-.419.559h-.074Z" transform="translate(-34.792 -14.657)"/>
      <path id="Trazado_191674" data-name="Trazado 191674" d="M194.218,171.7a.487.487,0,0,1-.485-.419l-.444-3.008a.481.481,0,0,1,.107-.378l1.077-1.315a.494.494,0,0,1,.764.625l-.937,1.142.411,2.794a.5.5,0,0,1-.411.559h-.074Z" transform="translate(-33 -14.736)"/>
      <path id="Trazado_191675" data-name="Trazado 191675" d="M175.83,185.8a2.227,2.227,0,1,0,2.227-2.227A2.224,2.224,0,0,0,175.83,185.8Z" transform="translate(-29.89 -17.795)" fill="#a2c5f9"/>
      <path id="Trazado_191676" data-name="Trazado 191676" d="M177.425,167.385l1.685,2.548-.3-2.548s5.6-2.876,8.5-6.731,6.385-8.07,6.385-8.07l5.342,8.76s4.619-17.8-11.234-17.734-18.811,12.417-18.811,12.417-3.977,1.019-4.462,4.035,4.446,9.878,4.446,9.878.8-4.38,8.448-2.548Z" transform="translate(-27.869 -10.674)"/>
      <path id="Trazado_191677" data-name="Trazado 191677" d="M152.314,203.2s-43.728,24.292-41.345,58c1.775,25.09,69.187,17.266,69.187,17.266l-.74-28.648-35.493-5.555,8.4-41.057Z" transform="translate(-18.315 -21.293)" fill="#0f2771"/>
      <path id="Trazado_191678" data-name="Trazado 191678" d="M143.369,251.021c-3.945,0-8.506-.362-9.278-1.972-.3-.625-.1-1.315.592-2.055,3.616-3.871,14.11,2.63,14.562,2.909a.491.491,0,0,1-.222.9c-.879.066-3.139.214-5.646.214Zm-5.35-4.273a3.429,3.429,0,0,0-2.622.92c-.263.288-.559.682-.419.962.641,1.348,7.158,1.57,12.368,1.307-2.515-1.389-6.484-3.189-9.319-3.189Z" transform="translate(-22.428 -28.879)" fill="#5c69a5"/>
      <path id="Trazado_191679" data-name="Trazado 191679" d="M174.708,254.851c-.263-.033-18.647-2.991-22.6-3.164a.489.489,0,0,1,.041-.978c4.01.173,21.876,3.049,22.632,3.164a.488.488,0,0,1-.082.97Z" transform="translate(-25.579 -29.759)" fill="#5c69a5"/>
      <path id="Trazado_191680" data-name="Trazado 191680" d="M233.817,324.214a.474.474,0,0,1-.3-.107l-16.3-12.656a.492.492,0,0,1-.164-.542.486.486,0,0,1,.46-.329h11.1a.493.493,0,1,1,0,.986h-9.673l15.179,11.776a.5.5,0,0,1,.09.69.49.49,0,0,1-.386.189Z" transform="translate(-37.23 -40.428)" fill="#0f2771"/>
      <path id="Trazado_191681" data-name="Trazado 191681" d="M172.883,352.4a.487.487,0,0,1-.46-.657c.337-.9,3.32-8.744,6.139-8.958.764-.074,1.446.394,1.981,1.348a3.518,3.518,0,0,1,.247,3.172c-1.364,3.263-7.511,5-7.766,5.079a.362.362,0,0,1-.131.016Zm5.818-8.645c-1.561.115-3.723,4.257-4.988,7.372,1.734-.608,5.284-2.079,6.172-4.208a2.545,2.545,0,0,0-.2-2.317c-.436-.773-.8-.855-.978-.855Z" transform="translate(-29.277 -46.167)" fill="#0f2771"/>
      <path id="Trazado_191682" data-name="Trazado 191682" d="M225.364,469.9s5.892,17.373-3.567,17.6-31.68-14.365-32.149-25.542,24.062-4.035,24.062-4.035L225.356,469.9Z" transform="translate(-32.351 -66.284)" fill="#f48462"/>
      <path id="Trazado_191683" data-name="Trazado 191683" d="M223.761,249.716a.509.509,0,0,1-.477-.592,60.26,60.26,0,0,0,.731-10.856c-.025-7.059-6.476-17.554-6.542-17.66a.489.489,0,0,1,.83-.518c.271.436,6.657,10.84,6.689,18.17a58.569,58.569,0,0,1-.756,11.061.49.49,0,0,1-.477.386Z" transform="translate(-37.298 -24.262)" fill="#5c69a5"/>
    </g>
  </g>
</svg>
