<svg xmlns="http://www.w3.org/2000/svg" width="455.268" height="302" viewBox="0 0 455.268 302">
  <g id="Grupo_146541" data-name="Grupo 146541" transform="translate(-4650.732 -9726)">
    <rect id="Rect치ngulo_42501" data-name="Rect치ngulo 42501" width="190" height="302" transform="translate(4916 9726)" fill="#4dd0e1"/>
    <g id="Rect치ngulo_44444" data-name="Rect치ngulo 44444" transform="translate(4657 9737)" fill="#fff" stroke="#707070" stroke-width="1">
      <rect width="439" height="284" rx="20" stroke="none"/>
      <rect x="0.5" y="0.5" width="438" height="283" rx="19.5" fill="none"/>
    </g>
    <g id="_9" data-name="9" transform="translate(4646.112 9653.413)">
      <path id="Trazado_200096" data-name="Trazado 200096" d="M129.926,226.082l-4.436-7.727-6.948,1.023-5.738-7.212,2.955-7.184-7.749-5.144-5.788,5.839-7.62-1.338L91.51,195.38l-9.259.98-.522,7.842-6.9,3.506-7.305-5.173-7.405,5.395,3.849,8.3-4.408,6.64-8.014-.422-2.089,9.881,7.62,2.934.658,8.3-7.9,4.536,3.778,8.565L61.8,255.4l5.416,6.254-2.833,7.792,7.491,5.295,5.846-6.325,8.114,2.2,2.526,8.371,9.015-.608,1.166-7.52,7.727-4.436,6.325,5.051,8-5.96-4.043-7.041,3.942-7.062,8.107.6,2.49-9.194-6.962-3.771-.923-8.379,6.747-4.558Zm-31.4,27.053a18.224,18.224,0,1,1,6.733-24.878A18.226,18.226,0,0,1,98.522,253.135Z" transform="translate(-22.757 -39.417)" fill="#d2e1f1"/>
      <g id="Grupo_142416" data-name="Grupo 142416" transform="translate(352.863 161.305)">
        <path id="Trazado_200097" data-name="Trazado 200097" d="M556.25,232.658l-3.565-6.2-5.585.821-4.609-5.788,2.377-5.768-6.222-4.126L534,216.281l-6.116-1.072-2.483-7.2-7.44.783-.425,6.29L512,217.894l-5.865-4.155-5.952,4.329,3.092,6.657-3.536,5.333-6.435-.338-1.681,7.933,6.116,2.358.531,6.667-6.348,3.643,3.034,6.879,6.57-1.024,4.348,5.024-2.271,6.261,6.019,4.251,4.7-5.082,6.512,1.759,2.029,6.725,7.237-.493.937-6.039,6.2-3.565,5.082,4.048,6.425-4.783L545.5,258.63l3.16-5.672,6.512.483,2-7.382-5.585-3.024-.744-6.725,5.42-3.662Zm-25.218,21.721a14.629,14.629,0,1,1,5.4-19.972A14.634,14.634,0,0,1,531.032,254.379Z" transform="translate(-491.34 -207.788)" fill="none"/>
        <path id="Trazado_200098" data-name="Trazado 200098" d="M531.645,255.046a25.2,25.2,0,0,0,2.8-2.242,13.931,13.931,0,0,0,2.522-3.333,14.452,14.452,0,0,0-3.333-18.1,13.179,13.179,0,0,0-3.517-2.174,13.475,13.475,0,0,0-4.164-1.111,14.32,14.32,0,0,0-14.744,8.464,13.655,13.655,0,0,0-1.14,4.155,13.447,13.447,0,0,0,.106,4.135,14.486,14.486,0,0,0,13.952,11.991,13.96,13.96,0,0,0,4.155-.5,26.2,26.2,0,0,0,3.353-1.285s-.068.048-.2.126c-.164.087-.367.2-.609.338a6.881,6.881,0,0,1-1.024.483,10.05,10.05,0,0,1-1.459.522,13.989,13.989,0,0,1-4.213.589,14.765,14.765,0,0,1-11.053-5.121,14.9,14.9,0,0,1-3.353-7.073,14.853,14.853,0,0,1,1.043-8.57,14.785,14.785,0,0,1,15.257-8.764,14.866,14.866,0,0,1,7.923,3.42,14.738,14.738,0,0,1,5.082,13.247,14.581,14.581,0,0,1-1.817,5.334,13.8,13.8,0,0,1-2.638,3.343,9.97,9.97,0,0,1-1.188,1,6.378,6.378,0,0,1-.937.647c-.242.145-.435.261-.6.357a.817.817,0,0,1-.213.106Z" transform="translate(-491.944 -208.445)" fill="#12263f"/>
        <path id="Trazado_200099" data-name="Trazado 200099" d="M556.24,232.65l-.329.242c-.242.164-.57.4-1.015.705-.918.638-2.271,1.565-4.039,2.783l.029-.068c.212,1.826.473,4.087.773,6.725l-.058-.087c1.652.889,3.546,1.9,5.594,3l.087.048-.029.1c-.6,2.232-1.266,4.715-1.981,7.392l-.029.116h-.126c-2.029-.155-4.222-.309-6.512-.473l.155-.087c-.976,1.759-2.048,3.681-3.15,5.672v-.174c1,1.749,2.116,3.672,3.256,5.652l.087.145-.135.1c-1.99,1.488-4.164,3.121-6.416,4.792l-.126.1-.126-.1c-1.565-1.246-3.3-2.628-5.082-4.048l.232.019c-1.923,1.1-4.039,2.329-6.2,3.575l.106-.155c-.29,1.865-.609,3.932-.928,6.039l-.029.174h-.174c-2.242.164-4.725.338-7.237.5h-.184l-.048-.164c-.628-2.087-1.324-4.387-2.029-6.725l.164.155c-2.029-.551-4.261-1.15-6.512-1.759l.242-.068c-1.459,1.585-3.073,3.324-4.7,5.082l-.145.155-.174-.126c-1.884-1.333-3.942-2.783-6.02-4.242l-.155-.106.068-.174c.715-1.961,1.488-4.106,2.271-6.261l.048.251c-1.372-1.575-2.85-3.295-4.348-5.024l.232.087c-2.077.319-4.309.667-6.57,1.024l-.193.029-.077-.174c-.966-2.184-1.99-4.522-3.034-6.879l-.087-.2.193-.116s.087-.048.135-.077q3.131-1.8,6.213-3.565l-.126.242q-.261-3.362-.522-6.667l.164.213q-3.087-1.188-6.116-2.358l-.2-.077.048-.2q.855-4.015,1.681-7.933l.048-.2h.213c2.174.126,4.309.242,6.435.357l-.213.106q1.8-2.7,3.546-5.334l-.019.232c-1.044-2.261-2.077-4.474-3.082-6.667l-.077-.174.155-.116,5.952-4.329.135-.1.135.1,5.865,4.155-.232-.019q2.841-1.435,5.546-2.812l-.116.184c.145-2.164.29-4.251.425-6.29v-.174l.184-.019c2.57-.271,5.044-.522,7.44-.773l.155-.019.048.155c.86,2.512,1.681,4.9,2.474,7.2l-.145-.126c2.174.386,4.174.744,6.116,1.082l-.155.048c1.671-1.681,3.2-3.208,4.657-4.676l.1-.1.116.077c2.261,1.507,4.3,2.87,6.213,4.145l.1.068-.048.106c-.9,2.164-1.672,4.029-2.387,5.759l-.019-.126c1.768,2.242,3.266,4.135,4.59,5.807l-.1-.039c2.329-.328,4.087-.58,5.585-.792h.048l.029.039c1.188,2.116,2.068,3.681,2.667,4.725.28.5.493.879.638,1.15.135.251.193.377.193.377s-.087-.126-.232-.377-.377-.638-.676-1.14c-.6-1.034-1.5-2.56-2.715-4.648l.077.039c-1.5.222-3.256.493-5.575.85h-.058l-.039-.039c-1.333-1.662-2.841-3.546-4.628-5.778l-.048-.058.029-.068c.715-1.739,1.469-3.594,2.358-5.768l.058.174c-1.913-1.266-3.961-2.618-6.232-4.116l.2-.019c-1.449,1.469-2.966,3-4.638,4.7l-.068.068-.087-.019-6.116-1.063-.106-.019-.039-.106c-.792-2.3-1.623-4.677-2.493-7.189l.213.135c-2.4.261-4.86.522-7.43.792l.184-.193c-.135,2.039-.271,4.126-.415,6.29v.126l-.116.058c-1.807.918-3.643,1.855-5.536,2.821l-.116.058-.106-.077q-2.884-2.029-5.865-4.145h.27c-1.942,1.42-3.923,2.86-5.942,4.338l.077-.29c1.015,2.184,2.048,4.4,3.092,6.657l.058.126-.077.116q-1.739,2.638-3.536,5.333l-.077.116h-.135q-3.174-.174-6.435-.348l.251-.193q-.826,3.913-1.681,7.933l-.155-.28c2.019.783,4.068,1.565,6.116,2.358l.145.058v.155q.275,3.3.541,6.667v.155l-.126.077q-3.087,1.768-6.213,3.565c-.048.029-.1.058-.135.077l.106-.319c1.034,2.358,2.068,4.7,3.034,6.879l-.271-.145c2.251-.348,4.493-.7,6.57-1.015l.135-.019.087.106c1.5,1.73,2.976,3.44,4.348,5.024l.1.106-.048.135c-.783,2.155-1.565,4.29-2.28,6.261l-.087-.29,6.01,4.251-.319.029c1.623-1.759,3.227-3.488,4.7-5.073l.1-.106.135.039c2.261.609,4.483,1.217,6.512,1.768l.126.039.039.126c.705,2.338,1.391,4.638,2.019,6.725l-.232-.164c2.522-.164,5-.328,7.237-.483l-.2.184c.329-2.106.647-4.174.937-6.039l.019-.106.087-.048c2.164-1.237,4.29-2.454,6.213-3.556l.126-.068.106.087c1.778,1.42,3.507,2.812,5.073,4.058h-.242c2.251-1.681,4.435-3.295,6.425-4.783l-.048.242c-1.14-1.99-2.232-3.913-3.237-5.662l-.048-.087.048-.087c1.111-1.99,2.193-3.9,3.179-5.662l.048-.087h.106c2.29.184,4.483.348,6.512.5l-.155.106c.725-2.667,1.411-5.15,2.019-7.372l.058.145c-2.048-1.121-3.933-2.145-5.575-3.044l-.048-.029v-.058c-.29-2.638-.522-4.9-.715-6.725V236.3l.029-.029,4.048-2.686c.454-.3.8-.522,1.044-.686s.367-.232.367-.232Z" transform="translate(-491.33 -207.78)" fill="#12263f"/>
      </g>
      <path id="Trazado_200100" data-name="Trazado 200100" d="M459.888,442.306c0,.1-101.924.186-227.623.186S4.62,442.406,4.62,442.306s101.9-.186,227.645-.186S459.888,442.206,459.888,442.306Z" transform="translate(0 -95.614)" fill="#0f2771"/>
      <g id="Grupo_142434" data-name="Grupo 142434" transform="translate(205.936 160.391)">
        <g id="Grupo_142417" data-name="Grupo 142417" transform="translate(45.154 85.172)">
          <path id="Trazado_200101" data-name="Trazado 200101" d="M554.417,303.587l-39.374,98.432H404.54l35.1-99.77a1.812,1.812,0,0,1,1.7-1.209l111.39.072a1.8,1.8,0,0,1,1.674,2.476Z" transform="translate(-364.865 -301.04)" fill="#0f2771"/>
          <path id="Trazado_200102" data-name="Trazado 200102" d="M550.354,308.008,514.2,396.194a1.035,1.035,0,0,1-.959.63H412.569a1.011,1.011,0,0,1-.973-1.345l32.033-88.186a1.033,1.033,0,0,1,.973-.673H549.4a1.009,1.009,0,0,1,.959,1.381Z" transform="translate(-366.856 -302.628)" fill="#4dd0e1"/>
          <path id="Trazado_200103" data-name="Trazado 200103" d="M499.274,439.626H349.09V432.7h146.1Z" transform="translate(-349.09 -338.497)" fill="#0f2771"/>
        </g>
        <g id="Grupo_142425" data-name="Grupo 142425" transform="translate(0 53.584)">
          <g id="Grupo_142418" data-name="Grupo 142418" transform="translate(0 37.948)">
            <path id="Trazado_200104" data-name="Trazado 200104" d="M367.283,309.93s-3.027,35.976-9.545,37.729c-17.745,4.765-38.043,1.238-45.17-.157-.8-.687-1.724-1.517-2.762-2.554a11.181,11.181,0,0,1-2.175-3.07,17.312,17.312,0,0,1-1.624-4.436,1.427,1.427,0,0,0-2.6-.773c-.63,1.159-.9,5.552,1.488,9.552a1.9,1.9,0,0,1-1.3,2.569c-3.012,1.109-13.63,4.408-15.34,5.223-1.524.723-3,2.018-1.4,2.275s10.375-1,10.375-1-11.527,1.417-11.241,3.091c.193,1.152,3.3,1.7,10.833,0,0,0-9.488,1.245-10.475,2.24-2.24,2.247,9.187.866,9.187.866-8,1.038-7.913.622-8,1.717-.064.823,1.746,1.152,6.139,1.209,3.563.043,7.248.8,12.672,1.159h0s68.574,19.4,78.011-10.783c5.087-16.271,5.116-22.46,6.876-33.128" transform="translate(-285.983 -309.93)" fill="#ffbf9d"/>
            <path id="Trazado_200105" data-name="Trazado 200105" d="M301.693,381.218c.029.2-2.411.622-5.452.937s-5.517.408-5.531.207,2.433-.622,5.452-.937S301.657,381.018,301.693,381.218Z" transform="translate(-287.327 -330.181)" fill="#b66955"/>
            <path id="Trazado_200106" data-name="Trazado 200106" d="M301.327,376.884c.036.2-2.54.794-5.753,1.324s-5.839.8-5.874.6,2.54-.794,5.753-1.324S301.291,376.683,301.327,376.884Z" transform="translate(-287.04 -328.959)" fill="#b66955"/>
            <path id="Trazado_200107" data-name="Trazado 200107" d="M301.456,372.364c.036.2-2.39.8-5.423,1.345s-5.517.823-5.552.622,2.39-.8,5.423-1.345S301.42,372.164,301.456,372.364Z" transform="translate(-287.262 -327.674)" fill="#b66955"/>
          </g>
          <g id="Grupo_142419" data-name="Grupo 142419" transform="translate(78.859)">
            <path id="Trazado_200108" data-name="Trazado 200108" d="M498.132,395.75l4.458,25.966H433.05l2.662-20.17Z" transform="translate(-406.682 -296.397)" fill="#0f2771"/>
            <path id="Trazado_200109" data-name="Trazado 200109" d="M405.687,271.11s-10.11,30.359-9.459,31.575l22.245,5.159Z" transform="translate(-396.198 -260.937)" fill="#feca2e"/>
            <path id="Trazado_200110" data-name="Trazado 200110" d="M405.687,271.11s-10.11,30.359-9.459,31.575l22.245,5.159Z" transform="translate(-396.198 -260.937)" opacity="0.2"/>
            <path id="Trazado_200111" data-name="Trazado 200111" d="M428.517,324.091l-2.182,43.453,67.179-7.606-10.518-42s-7.227-48.69-20.4-54.092a126.781,126.781,0,0,0-13.974-4.508,64.267,64.267,0,0,0-25.83-1.91l-1.352.172a14.419,14.419,0,0,0-11.992,9.459s-.236,14.954,4.357,24.857l14.7,32.169Z" transform="translate(-399.967 -256.893)" fill="#feca2e"/>
            <path id="Trazado_200112" data-name="Trazado 200112" d="M458.176,424.611c-.1,0-.25-3.535-.336-7.892s-.064-7.9.043-7.9.25,3.527.336,7.892.064,7.9-.036,7.9Z" transform="translate(-413.721 -300.115)" fill="#0f2771"/>
            <path id="Trazado_200113" data-name="Trazado 200113" d="M463.033,411.46a.574.574,0,0,1,.293-.193,1.334,1.334,0,0,1,1.689,1.316,1.566,1.566,0,0,1-1.045,1.4,1.664,1.664,0,0,1-1.681-.472,1.579,1.579,0,0,1-.408-1.359c.15-.83.658-1.109.665-1.066a2.875,2.875,0,0,0-.4,1.095,1.4,1.4,0,0,0,.393,1.095,1.366,1.366,0,0,0,1.324.358,1.248,1.248,0,0,0,.816-1.066,1.022,1.022,0,0,0-.522-.973,1.591,1.591,0,0,0-1.116-.136Z" transform="translate(-414.878 -300.759)" fill="#0f2771"/>
            <path id="Trazado_200114" data-name="Trazado 200114" d="M514.614,414.025a2.355,2.355,0,0,1-.265.215c-.186.122-.444.329-.809.537a16.74,16.74,0,0,1-3.241,1.51,18,18,0,0,1-17.365-2.912,18.762,18.762,0,0,1-3.642-3.857,16.926,16.926,0,0,1-1.746-3.12c-.179-.386-.265-.7-.343-.909a1.438,1.438,0,0,1-.093-.329,12.19,12.19,0,0,1,.565,1.173,18.668,18.668,0,0,0,1.832,3.027,19.058,19.058,0,0,0,3.642,3.742,17.87,17.87,0,0,0,11.927,3.849,19.285,19.285,0,0,0,8.386-2.3c.737-.4,1.131-.651,1.145-.622Z" transform="translate(-422.062 -299.074)" fill="#0f2771"/>
            <path id="Trazado_200115" data-name="Trazado 200115" d="M439.494,298.092a10.408,10.408,0,0,1-.8.78,21.7,21.7,0,0,1-2.4,1.882,9.577,9.577,0,0,1-4.221,1.66,10.8,10.8,0,0,1-5.438-1.095c-1.81-.794-3.434-1.717-5.016-2.282a9,9,0,0,0-4.343-.615,5.728,5.728,0,0,0-2.755,1.059c-.565.429-.794.758-.823.737a.886.886,0,0,1,.157-.243,3.861,3.861,0,0,1,.579-.6,5.641,5.641,0,0,1,2.8-1.209,9.07,9.07,0,0,1,4.5.551c1.624.565,3.263,1.488,5.044,2.268a10.741,10.741,0,0,0,5.259,1.095,9.533,9.533,0,0,0,4.114-1.546,28.339,28.339,0,0,0,2.447-1.774,7.174,7.174,0,0,1,.894-.665Z" transform="translate(-401.177 -268.608)" fill="#fafafa"/>
            <path id="Trazado_200116" data-name="Trazado 200116" d="M420.777,274.346a6.13,6.13,0,0,1-1.288,1.138,10.942,10.942,0,0,1-7.964,1.739,4.885,4.885,0,0,1-1.646-.5c.021-.064.644.122,1.681.236a12.363,12.363,0,0,0,7.785-1.7c.887-.537,1.388-.966,1.431-.916Z" transform="translate(-400.09 -261.855)" fill="#fafafa"/>
            <path id="Trazado_200117" data-name="Trazado 200117" d="M487.028,331.378a6.057,6.057,0,0,1-.465.4,7.56,7.56,0,0,1-1.538.851,12.573,12.573,0,0,1-6.389.587,42.236,42.236,0,0,1-4.365-.909,34.9,34.9,0,0,0-4.98-.966,17.99,17.99,0,0,0-5.545.4,35.319,35.319,0,0,0-5.7,1.9c-3.814,1.588-7.42,3.306-10.976,4.05a20.878,20.878,0,0,1-9.523-.243,47.791,47.791,0,0,1-6.132-1.975c-.68-.272-1.224-.487-1.624-.651-.372-.157-.558-.243-.558-.25a4.9,4.9,0,0,1,.587.179l1.653.58a54.743,54.743,0,0,0,6.146,1.853,20.835,20.835,0,0,0,9.395.165c3.5-.744,7.076-2.461,10.911-4.057a36.084,36.084,0,0,1,5.767-1.918,18.2,18.2,0,0,1,5.652-.386A34.636,34.636,0,0,1,474.364,332a41.542,41.542,0,0,0,4.322.945,12.814,12.814,0,0,0,6.3-.458,9.941,9.941,0,0,0,2.054-1.116Z" transform="translate(-405.595 -277.953)" fill="#fafafa"/>
            <path id="Trazado_200118" data-name="Trazado 200118" d="M435.59,366.8a1.482,1.482,0,0,1,.093-.136c.086-.107.186-.229.308-.386a7.821,7.821,0,0,1,1.431-1.252,9.8,9.8,0,0,1,2.726-1.274,12.843,12.843,0,0,1,3.95-.486c2.991.05,6.368,1.288,9.9,2.862a56.548,56.548,0,0,0,5.645,2.232,17.033,17.033,0,0,0,6.368.887,15.1,15.1,0,0,0,6.089-2.011c1.846-1,3.542-2.147,5.252-3.084a17.782,17.782,0,0,1,5.159-2.018,13.365,13.365,0,0,1,11.069,3.041,9.573,9.573,0,0,1,1.717,1.889.871.871,0,0,1-.122-.114c-.086-.1-.2-.215-.329-.365a7.914,7.914,0,0,0-.558-.572,8.6,8.6,0,0,0-.809-.723,13.482,13.482,0,0,0-6.2-2.862,13.1,13.1,0,0,0-4.722.021,17.405,17.405,0,0,0-5.051,2.011c-1.689.937-3.377,2.089-5.245,3.105a15.408,15.408,0,0,1-6.232,2.068,17.342,17.342,0,0,1-6.5-.909,55.966,55.966,0,0,1-5.667-2.268c-3.52-1.588-6.84-2.826-9.774-2.912a13.02,13.02,0,0,0-3.885.422,9.829,9.829,0,0,0-2.7,1.195,9.987,9.987,0,0,0-1.91,1.66Z" transform="translate(-407.405 -286.775)" fill="#fafafa"/>
            <path id="Trazado_200119" data-name="Trazado 200119" d="M495.773,397.889a12.362,12.362,0,0,0-1.266-2.311,11.483,11.483,0,0,0-5.824-3.992,13.909,13.909,0,0,0-4.88-.651,21.991,21.991,0,0,0-5.588,1,47.057,47.057,0,0,0-5.86,2.333c-1.989.923-4.021,1.96-6.168,2.9a33.182,33.182,0,0,1-6.475,2.182,24.475,24.475,0,0,1-6.354.415,37.33,37.33,0,0,1-10.468-2.433c-2.869-1.088-5.109-2.132-6.654-2.862-.773-.365-1.367-.658-1.767-.859-.186-.093-.336-.172-.458-.236a.8.8,0,0,1-.15-.093,1.438,1.438,0,0,1,.165.057c.129.057.279.122.472.2.436.193,1.037.458,1.8.8,1.567.687,3.821,1.7,6.69,2.748a37.618,37.618,0,0,0,10.4,2.34A24.07,24.07,0,0,0,459.64,399a33.464,33.464,0,0,0,6.4-2.168c2.132-.93,4.164-1.961,6.16-2.884a45.833,45.833,0,0,1,5.917-2.333,21.954,21.954,0,0,1,5.681-.987,14.063,14.063,0,0,1,4.973.708,11.439,11.439,0,0,1,5.86,4.157,8.827,8.827,0,0,1,.937,1.739c.064.193.122.358.165.487a.481.481,0,0,1,.043.172Z" transform="translate(-406.913 -294.937)" fill="#fafafa"/>
          </g>
          <g id="Grupo_142424" data-name="Grupo 142424" transform="translate(60.893 5.852)">
            <g id="Grupo_142423" data-name="Grupo 142423">
              <g id="Grupo_142420" data-name="Grupo 142420" transform="translate(50.373 43.781)" opacity="0.2">
                <path id="Trazado_200120" data-name="Trazado 200120" d="M446.742,385.84a31.242,31.242,0,0,0,18.861-6.948c7.141-6.025,10.675-15.483,11.455-24.8s-.88-18.639-2.533-27.833a126.523,126.523,0,0,0-15.433,28.978c-2.533,6.754-4.758,14.131-10.368,18.66-2,1.617-4.393,2.819-5.953,4.865s-1.9,5.4.172,6.912c.615.2,1.231.4,1.853.6" transform="translate(-441.49 -326.26)"/>
              </g>
              <g id="Grupo_142422" data-name="Grupo 142422">
                <path id="Trazado_200121" data-name="Trazado 200121" d="M377.443,378.821a16.227,16.227,0,0,0,4.264,1.381,10.636,10.636,0,0,0,3.592.157c.558-.072,1.088-.15,1.581-.229a12.486,12.486,0,0,0,6.225-2.919c7.749-6.726,28.72-28.012,32.47-32.827,4.508-5.788,5.767-44.054,5.767-44.054l25.164,4.121s-.451,27.576-6.64,49.034c-3.935,13.645-51.531,41.721-51.574,41.742a132.241,132.241,0,0,1-9.924,10.089c-5.073,4.25-5.459,3.806-5.853,3.127-1.059-1.817,8.643-7.82,5.81-7.735s-11.012,8.722-12.035,6.783c-1.338-2.533,8.93-8.629,9.759-9.209.809-.565.021-1.8-.7-1.238-1.037.809-12.149,9.058-13.494,6.59-.744-1.374,1.839-2.476,1.839-2.476s10.969-6.955,10.3-8.1c-.68-1.166-7.262,2.7-9.387,4.164-2.1,1.445-3.642,1.03-3.506-.429.093-.995,6.5-5.624,8.629-7.019s8.064-5.116,3.649-5.66-7.6-2.619-8.071-3.785.973-2.24,2.146-1.517Z" transform="translate(-371.088 -275.102)" fill="#ffbf9d"/>
                <g id="Grupo_142421" data-name="Grupo 142421" transform="translate(55.853)">
                  <path id="Trazado_200122" data-name="Trazado 200122" d="M463.052,265.371a14.38,14.38,0,0,1,13.223,4.071c2.934,3.055,5.881,8.164,5.631,16.278-.487,15.82-1.739,21.215-1.739,21.215l-31.017-1.073,1.216-26.574s2.4-11.749,12.679-13.909Z" transform="translate(-449.15 -265.071)" fill="#feca2e"/>
                  <path id="Trazado_200123" data-name="Trazado 200123" d="M463.052,265.371a14.38,14.38,0,0,1,13.223,4.071c2.934,3.055,5.924,8.572,5.674,16.678-.487,15.82-1.782,20.814-1.782,20.814l-31.017-1.073,1.259-26.173s2.354-12.149,12.636-14.31Z" transform="translate(-449.15 -265.071)" opacity="0.2"/>
                </g>
              </g>
            </g>
            <path id="Trazado_200124" data-name="Trazado 200124" d="M481.508,309.532a11.174,11.174,0,0,0-1.045-.809,10.154,10.154,0,0,0-3.256-1.445,12.672,12.672,0,0,0-5.259-.186,29.668,29.668,0,0,0-6.132,2.189,36.8,36.8,0,0,1-6.168,2.325,14.815,14.815,0,0,1-5.388.258,9.878,9.878,0,0,1-3.449-1.145,7.072,7.072,0,0,1-.816-.565,1.357,1.357,0,0,1-.258-.229c.029-.036.386.272,1.138.673a10.452,10.452,0,0,0,3.413,1.016,15.184,15.184,0,0,0,5.273-.329,37.929,37.929,0,0,0,6.1-2.333,28.8,28.8,0,0,1,6.225-2.182,12.534,12.534,0,0,1,5.381.265,9.487,9.487,0,0,1,3.27,1.588,6.386,6.386,0,0,1,.737.665c.157.165.236.25.222.265Z" transform="translate(-393.464 -276.884)" fill="#fafafa"/>
            <path id="Trazado_200125" data-name="Trazado 200125" d="M481.491,278.9s-.351.179-1.023.436c-.329.136-.744.272-1.231.422s-1.038.322-1.66.458a35.511,35.511,0,0,1-4.422.78,43.512,43.512,0,0,1-5.5.2,38.826,38.826,0,0,1-5.466-.6,28.889,28.889,0,0,1-4.336-1.173,14.886,14.886,0,0,1-1.6-.644,10.06,10.06,0,0,1-1.173-.572,6.838,6.838,0,0,1-.952-.572,6.368,6.368,0,0,1,1.016.444,11.334,11.334,0,0,0,1.188.508c.465.193,1,.4,1.61.587a31.714,31.714,0,0,0,4.314,1.088,43.28,43.28,0,0,0,5.424.565,45.831,45.831,0,0,0,5.445-.172,39.727,39.727,0,0,0,4.4-.694c.622-.122,1.181-.272,1.667-.4s.909-.243,1.245-.358a7.037,7.037,0,0,1,1.066-.3Z" transform="translate(-394.713 -268.643)" fill="#fafafa"/>
          </g>
        </g>
        <g id="Grupo_142433" data-name="Grupo 142433" transform="translate(74.238)">
          <g id="Grupo_142430" data-name="Grupo 142430">
            <path id="Trazado_200126" data-name="Trazado 200126" d="M429.779,207.315a2.118,2.118,0,0,0,3.334,2.011c1.266-.916,1.145-2.841.637-4.322s-1.281-3.019-.866-4.529a10.425,10.425,0,0,1,1.96-2.977,6.764,6.764,0,0,0,.966-5.946,5.674,5.674,0,0,0-4.543-3.806c-2.111-.25-4.515.766-6.246-.465-1.259-.894-1.6-2.619-2.64-3.756-1.624-1.76-4.443-1.638-6.74-.952s-4.565,1.817-6.948,1.6c-1.989-.179-3.778-1.266-5.7-1.81a10.48,10.48,0,0,0-11.255,16.328,6.7,6.7,0,0,0,3.714,2.676" transform="translate(-389.739 -182.002)" fill="#0f2771"/>
            <g id="Grupo_142428" data-name="Grupo 142428" transform="translate(6.39 8.951)">
              <g id="Grupo_142426" data-name="Grupo 142426">
                <path id="Trazado_200127" data-name="Trazado 200127" d="M428.814,255.772h0a11.916,11.916,0,0,1-13.852-9.531c-.687-3.692-1.259-6.8-1.259-6.8s-9.581.143-11.291-9.173-3.62-29.779-3.62-29.779l-.122-1.238c10.01-6.482,22.918-6.017,33.457-.436l.315,1.925,6.053,41.986a11.905,11.905,0,0,1-9.688,13.044Z" transform="translate(-398.67 -194.512)" fill="#ffbf9d"/>
                <path id="Trazado_200128" data-name="Trazado 200128" d="M423.809,234.58l-5.989,2.9a3.614,3.614,0,0,0,4.436.7c2.619-1.5,1.56-3.606,1.56-3.606Z" transform="translate(-404.118 -205.912)" fill="#fff"/>
                <path id="Trazado_200129" data-name="Trazado 200129" d="M419.627,254.921A21.979,21.979,0,0,0,431.2,249.39s-1.732,7.205-11.19,7.956l-.393-2.418Z" transform="translate(-404.63 -210.125)" fill="#ff9a6c"/>
              </g>
              <g id="Grupo_142427" data-name="Grupo 142427" transform="translate(33.335 12.309)">
                <path id="Trazado_200130" data-name="Trazado 200130" d="M446.183,211.912c.193-.1,6.869-1.71,7.091,6.354s-7.992,5.617-8.014,5.388S446.183,211.912,446.183,211.912Z" transform="translate(-445.259 -211.716)" fill="#ffbf9d"/>
                <path id="Trazado_200131" data-name="Trazado 200131" d="M448.6,221.8a3,3,0,0,0,.386.2,1.422,1.422,0,0,0,1.052,0c.844-.336,1.524-1.71,1.524-3.163a4.61,4.61,0,0,0-.451-2,1.645,1.645,0,0,0-1.088-1.052.714.714,0,0,0-.816.408c-.1.229-.043.386-.086.4-.021.021-.179-.129-.122-.465a.954.954,0,0,1,.3-.515,1.064,1.064,0,0,1,.773-.229,1.983,1.983,0,0,1,1.5,1.209,4.792,4.792,0,0,1,.551,2.232c0,1.624-.794,3.17-1.953,3.535a1.511,1.511,0,0,1-1.288-.179c-.258-.193-.3-.372-.272-.386Z" transform="translate(-446.21 -212.757)" fill="#ff9a6c"/>
              </g>
            </g>
            <g id="Grupo_142429" data-name="Grupo 142429" transform="translate(3.829 0.906)">
              <path id="Trazado_200132" data-name="Trazado 200132" d="M396.163,203.723s6.032,1.968,12.893-2.719c4.5-3.07,9.974-5.023,11.348-4.221s2.318,5.746,7.305,6.54c0,0,.973,9.545,4.715,8.686s-.637-15.247-.637-15.247l-9.523-5.059-10.375-.522-10.983,2.769-5.817,4.708,1.08,5.066Z" transform="translate(-395.09 -185.52)" fill="#0f2771"/>
              <path id="Trazado_200133" data-name="Trazado 200133" d="M444.32,187.716a12.647,12.647,0,0,0-2.018.73,13.232,13.232,0,0,0-1.667,1.345,3.432,3.432,0,0,1,3.685-2.075Z" transform="translate(-408.044 -184.51)" fill="#0f2771"/>
              <path id="Trazado_200134" data-name="Trazado 200134" d="M439.562,183.27a6.2,6.2,0,0,1,.644,2.948,5.96,5.96,0,0,1-.358,2.125c-.2.515-.4.794-.444.78a15.267,15.267,0,0,0,.422-2.9c-.029-1.617-.394-2.919-.272-2.948Z" transform="translate(-407.693 -183.269)" fill="#0f2771"/>
            </g>
          </g>
          <g id="Grupo_142431" data-name="Grupo 142431" transform="translate(9.314 25.858)">
            <path id="Trazado_200135" data-name="Trazado 200135" d="M402.847,221.3a1.371,1.371,0,0,0,1.388,1.317,1.308,1.308,0,0,0,1.345-1.3A1.376,1.376,0,0,0,404.192,220a1.314,1.314,0,0,0-1.352,1.3Z" transform="translate(-402.78 -218.671)" fill="#0f2771"/>
            <path id="Trazado_200136" data-name="Trazado 200136" d="M402.78,219.722c.179.172,1.173-.651,2.647-.723,1.467-.093,2.59.615,2.74.422.072-.086-.114-.394-.6-.716a3.781,3.781,0,0,0-2.2-.558,3.611,3.611,0,0,0-2.1.794c-.436.372-.572.7-.487.78Z" transform="translate(-402.756 -218.142)" fill="#0f2771"/>
          </g>
          <g id="Grupo_142432" data-name="Grupo 142432" transform="translate(23.436 24.95)">
            <path id="Trazado_200137" data-name="Trazado 200137" d="M423.1,220.213a1.364,1.364,0,0,0,1.445,1.245,1.317,1.317,0,0,0,1.288-1.367,1.375,1.375,0,0,0-1.445-1.252,1.312,1.312,0,0,0-1.288,1.367Z" transform="translate(-422.665 -217.432)" fill="#0f2771"/>
            <path id="Trazado_200138" data-name="Trazado 200138" d="M422.527,218.588c.186.165,1.145-.7,2.612-.844s2.612.487,2.755.293c.072-.086-.129-.394-.637-.687a3.768,3.768,0,0,0-2.225-.458,3.611,3.611,0,0,0-2.061.894c-.415.394-.537.73-.451.8Z" transform="translate(-422.494 -216.873)" fill="#0f2771"/>
          </g>
          <path id="Trazado_200139" data-name="Trazado 200139" d="M415.05,230.309a9.871,9.871,0,0,0-2.426-.2c-.379,0-.737-.043-.83-.293a1.9,1.9,0,0,1,.143-1.138c.265-.944.537-1.925.83-2.962,1.145-4.214,1.932-7.663,1.76-7.706s-1.238,3.334-2.375,7.549c-.272,1.037-.537,2.025-.78,2.976a2.15,2.15,0,0,0-.05,1.488.942.942,0,0,0,.673.487,2.544,2.544,0,0,0,.644.029,10.046,10.046,0,0,0,2.418-.229Z" transform="translate(-395.845 -192.246)" fill="#0f2771"/>
          <path id="Trazado_200140" data-name="Trazado 200140" d="M421.252,212.6c.186.386,1.631.05,3.37.093,1.746,0,3.177.372,3.37,0,.086-.179-.193-.529-.794-.866a5.884,5.884,0,0,0-5.137-.064c-.608.315-.894.658-.816.844Z" transform="translate(-398.699 -190.309)" fill="#0f2771"/>
          <path id="Trazado_200141" data-name="Trazado 200141" d="M402.5,214.131c.293.308,1.266-.136,2.483-.272,1.209-.179,2.268,0,2.469-.365.086-.179-.107-.5-.587-.766a3.61,3.61,0,0,0-3.992.515c-.394.386-.5.744-.372.894Z" transform="translate(-393.355 -190.635)" fill="#0f2771"/>
        </g>
      </g>
      <g id="Grupo_142447" data-name="Grupo 142447" transform="translate(29.663 168.477)">
        <g id="Grupo_142435" data-name="Grupo 142435" transform="translate(0 79.869)">
          <path id="Trazado_200142" data-name="Trazado 200142" d="M39.749,307.413l38.344,95.863H185.712L151.525,306.1a1.767,1.767,0,0,0-1.66-1.173L41.38,305a1.757,1.757,0,0,0-1.631,2.411Z" transform="translate(-39.62 -304.93)" fill="#0f2771"/>
          <path id="Trazado_200143" data-name="Trazado 200143" d="M48.011,311.515,83.221,397.4a1,1,0,0,0,.93.615H182.2a.982.982,0,0,0,.944-1.309l-31.2-85.889a1,1,0,0,0-.944-.651H48.941A.983.983,0,0,0,48.011,311.515Z" transform="translate(-41.986 -306.421)" fill="#4dd0e1"/>
          <path id="Trazado_200144" data-name="Trazado 200144" d="M93.39,439.7H239.653V432.95H97.361Z" transform="translate(-54.917 -341.351)" fill="#0f2771"/>
        </g>
        <g id="Grupo_142446" data-name="Grupo 142446" transform="translate(47.824)">
          <g id="Grupo_142436" data-name="Grupo 142436" transform="translate(84.114 53.927)">
            <path id="Trazado_200145" data-name="Trazado 200145" d="M298.754,299.588a7.762,7.762,0,0,0,.873-7.5c-1.81-4.021-6.676-8.608-6.676-8.608-1.417-.365.458-8.45,1.281-11.126.816-2.647-.107-4.143-1.567-3.556-.995.393-3.706,8.529-4.458,11.2a28.6,28.6,0,0,1-2.1,5.881c-.773,1.3-1.66,1.7-2.554-.329-1.968-4.479-5.13-7.2-6.482-7.341s-2,1.7-.873,2.719a18.384,18.384,0,0,1,2.79,4.071,12,12,0,0,1,1.309,3.728c.193,1.13.329,2.139.436,3.041a28.563,28.563,0,0,1-.057,6.762l-26.96,31.84-5.881-21.558-.544-1.66-23.211,8.622c-.694.186,4.987,17.065,8.593,27.554a19.028,19.028,0,0,0,10.8,11.434h0a19.048,19.048,0,0,0,22.624-6.432l28.856-41.893-.622-.422.587.265,3.842-6.69Z" transform="translate(-224.019 -268.673)" fill="#c78976"/>
            <path id="Trazado_200146" data-name="Trazado 200146" d="M321.228,291.479a6.871,6.871,0,0,1-.229.787c-.208.572-.458,1.274-.758,2.1-.343.909-.737,1.953-1.173,3.091a6.161,6.161,0,0,1-.88,1.8,1.7,1.7,0,0,1-.995.565,1.225,1.225,0,0,1-1.109-.444,1.789,1.789,0,0,1-.415-1.088,3.743,3.743,0,0,1,.122-1.073c.165-.665.329-1.3.508-1.9.351-1.2.715-2.261,1.052-3.148s.637-1.581.859-2.061a3.066,3.066,0,0,1,.386-.723,4.113,4.113,0,0,1-.25.78c-.179.494-.444,1.209-.744,2.1s-.644,1.953-.966,3.148c-.165.594-.329,1.231-.479,1.882a2.04,2.04,0,0,0,.222,1.839.842.842,0,0,0,.78.315,1.323,1.323,0,0,0,.766-.436,6.143,6.143,0,0,0,.83-1.681c.458-1.13.88-2.161,1.245-3.062.343-.809.63-1.5.873-2.054a4.09,4.09,0,0,1,.365-.737Z" transform="translate(-250.091 -274.567)" fill="#bf654e"/>
            <path id="Trazado_200147" data-name="Trazado 200147" d="M325.075,295.842a5.766,5.766,0,0,1-.2.694c-.15.436-.386,1.066-.68,1.832s-.644,1.681-1.059,2.7a3.021,3.021,0,0,1-1.073,1.431,1.757,1.757,0,0,1-.959.286,1.434,1.434,0,0,1-.952-.429,2.3,2.3,0,0,1-.587-1.846,9.387,9.387,0,0,1,.351-1.71,21.315,21.315,0,0,1,.959-2.755c.322-.766.622-1.367.837-1.774a2.511,2.511,0,0,1,.372-.615c.05.029-.386.952-.966,2.49a26.691,26.691,0,0,0-.873,2.74,10.145,10.145,0,0,0-.315,1.646,1.934,1.934,0,0,0,.479,1.553,1.12,1.12,0,0,0,1.46.1,2.732,2.732,0,0,0,.952-1.259l1.13-2.669c.322-.758.594-1.374.787-1.789a2.754,2.754,0,0,1,.336-.637Z" transform="translate(-251.199 -275.781)" fill="#bf654e"/>
            <path id="Trazado_200148" data-name="Trazado 200148" d="M327.808,300.389a11.979,11.979,0,0,1-.544,2.039c-.193.622-.415,1.352-.694,2.182a1.863,1.863,0,0,1-.916,1.123,1.091,1.091,0,0,1-.837.036,1.392,1.392,0,0,1-.644-.537,2.52,2.52,0,0,1-.286-1.51,9.017,9.017,0,0,1,.172-1.367,8.863,8.863,0,0,1,.766-2.189,7.785,7.785,0,0,1,.837-1.309c.229-.286.379-.422.4-.408.05.043-.472.665-.995,1.832a9.952,9.952,0,0,0-.665,2.139,8.433,8.433,0,0,0-.143,1.309,2.255,2.255,0,0,0,.236,1.3.8.8,0,0,0,1.016.372,1.571,1.571,0,0,0,.744-.916c.279-.78.537-1.5.766-2.147a11.517,11.517,0,0,1,.794-1.953Z" transform="translate(-252.429 -277.144)" fill="#bf654e"/>
            <path id="Trazado_200149" data-name="Trazado 200149" d="M314.81,307.463c-.064-.007,0-.565-.072-1.452a9.064,9.064,0,0,0-.937-3.313,9.281,9.281,0,0,0-2.111-2.726c-.673-.587-1.159-.866-1.13-.923a3.536,3.536,0,0,1,1.3.716A8.113,8.113,0,0,1,315,306a3.689,3.689,0,0,1-.193,1.467Z" transform="translate(-248.639 -277.313)" fill="#bf654e"/>
          </g>
          <g id="Grupo_142437" data-name="Grupo 142437" transform="translate(0 134.547)">
            <path id="Trazado_200150" data-name="Trazado 200150" d="M106.467,417.626l69.962.351.859-12.335L122.709,381.35a42.344,42.344,0,0,0-9.065,19.92l-7.184,16.356" transform="translate(-106.46 -381.35)" fill="#0f2771"/>
            <path id="Trazado_200151" data-name="Trazado 200151" d="M143.811,398.849s-.207.272-.63.715a7.844,7.844,0,0,1-.809.773,13.237,13.237,0,0,1-1.145.944,14.384,14.384,0,0,1-1.481,1.023c-.537.365-1.159.68-1.8,1.023a23.853,23.853,0,0,1-4.436,1.66,24.447,24.447,0,0,1-4.687.68c-.73,0-1.424.029-2.068-.029a15.814,15.814,0,0,1-1.789-.186,12.668,12.668,0,0,1-1.46-.279,9.9,9.9,0,0,1-1.08-.286,5.259,5.259,0,0,1-.9-.322c.021-.079,1.317.358,3.477.622a16.3,16.3,0,0,0,1.774.136c.637.043,1.324.014,2.039,0a23.022,23.022,0,0,0,8.994-2.3c.637-.329,1.252-.63,1.789-.98a16.822,16.822,0,0,0,1.488-.973c1.767-1.274,2.69-2.275,2.748-2.218Z" transform="translate(-110.747 -386.328)" fill="#0f2771"/>
            <path id="Trazado_200152" data-name="Trazado 200152" d="M179.258,424.224a20.182,20.182,0,0,1,.851-2.375c.594-1.553,1.338-3.513,2.168-5.681s1.6-4.121,2.211-5.667a16.429,16.429,0,0,1,1.009-2.311,16.041,16.041,0,0,1-.758,2.4c-.515,1.467-1.252,3.492-2.1,5.71s-1.653,4.214-2.268,5.645c-.308.716-.565,1.288-.758,1.681a2.24,2.24,0,0,1-.336.594Z" transform="translate(-127.169 -388.986)" fill="#0f2771"/>
            <path id="Trazado_200153" data-name="Trazado 200153" d="M179.266,407.342a2.123,2.123,0,0,0-.93.894,1.29,1.29,0,0,0,.064,1.281,1.453,1.453,0,0,0,1.388.665,1.476,1.476,0,0,0,1.123-1.059,1.334,1.334,0,0,0-.329-1.245,2.189,2.189,0,0,0-1.159-.572c0-.021.129-.072.379-.057a1.618,1.618,0,0,1,.966.444,1.582,1.582,0,0,1,.479,1.51,1.685,1.685,0,0,1-3.134.487,1.556,1.556,0,0,1,0-1.581,1.6,1.6,0,0,1,.787-.716c.236-.093.379-.079.379-.057Z" transform="translate(-126.784 -388.717)" fill="#0f2771"/>
          </g>
          <g id="Grupo_142439" data-name="Grupo 142439" transform="translate(16.256 55.009)">
            <g id="Grupo_142438" data-name="Grupo 142438" transform="translate(72.481 11.38)">
              <path id="Trazado_200154" data-name="Trazado 200154" d="M241.542,286.09s10.232,30.094,9.652,31.325l-20.714,5.674Z" transform="translate(-230.48 -286.09)" fill="#feca2e"/>
              <path id="Trazado_200155" data-name="Trazado 200155" d="M241.542,286.09s10.232,30.094,9.652,31.325l-20.714,5.674Z" transform="translate(-230.48 -286.09)" opacity="0.2"/>
            </g>
            <path id="Trazado_200156" data-name="Trazado 200156" d="M195.937,331.429l-6.525,27.711-4.243,15.5L129.18,349.731l17.766-28.584s9.738-39.8,23.469-47.159a32.1,32.1,0,0,1,19.726-3.492l11.927,1.646c.265.036.522.079.78.129a13.145,13.145,0,0,1,10.346,13.673c-.258,5.18-1.13,13.945-3.978,20.5-3.814,8.772-13.28,24.985-13.28,24.985Z" transform="translate(-129.18 -270.186)" fill="#feca2e"/>
            <path id="Trazado_200157" data-name="Trazado 200157" d="M190.506,392.965s-.143-.057-.408-.186a10.423,10.423,0,0,1-1.159-.63,13.526,13.526,0,0,1-3.706-3.427,13.676,13.676,0,0,1-2.748-7.441,10.027,10.027,0,0,1,.944-4.9,7.262,7.262,0,0,1,1.631-2.218,5.207,5.207,0,0,1,2.6-1.281,6.114,6.114,0,0,1,6.7,5.5,6.8,6.8,0,0,1-.615,3.384,8.254,8.254,0,0,1-5.395,4.543,11.327,11.327,0,0,1-7.513-.737,17.575,17.575,0,0,1-6.211-5.009,25.88,25.88,0,0,1-2.361-3.4,14.39,14.39,0,0,1-1.617-3.914,9.252,9.252,0,0,1-.043-4.315,6.927,6.927,0,0,1,2.24-3.771,5.759,5.759,0,0,1,4.257-1.252,4.713,4.713,0,0,1,2.147.809,4.448,4.448,0,0,1,1.452,1.8,6.062,6.062,0,0,1,.086,4.493,8.046,8.046,0,0,1-2.74,3.506,17.289,17.289,0,0,1-16.306,1.86,14.535,14.535,0,0,1-6.175-5.03,13.069,13.069,0,0,1-2.426-7.169,9.851,9.851,0,0,1,.587-3.628,6.713,6.713,0,0,1,2.053-2.912,5.7,5.7,0,0,1,3.227-1.195,4.3,4.3,0,0,1,3.12,1.08,4.53,4.53,0,0,1,1.374,2.862,6.036,6.036,0,0,1-.444,3.012,7.252,7.252,0,0,1-4.128,3.706,13.864,13.864,0,0,1-4.923.909,18.8,18.8,0,0,1-7.813-1.6,18.406,18.406,0,0,1-4.307-2.647c-.444-.372-.773-.665-.98-.88s-.315-.322-.315-.322.122.093.336.293.544.494,1,.851A18.838,18.838,0,0,0,154,367.8a13.646,13.646,0,0,0,4.837-.923,8.63,8.63,0,0,0,2.3-1.367,5.706,5.706,0,0,0,2.082-5.109,4.278,4.278,0,0,0-1.3-2.683,4.042,4.042,0,0,0-2.919-.995,5.365,5.365,0,0,0-3.048,1.138,6.369,6.369,0,0,0-1.946,2.776,9.587,9.587,0,0,0-.558,3.506,12.733,12.733,0,0,0,2.383,6.983,14.2,14.2,0,0,0,6.032,4.894,16.924,16.924,0,0,0,15.941-1.817,7.647,7.647,0,0,0,2.619-3.341,5.683,5.683,0,0,0-.072-4.214A4.154,4.154,0,0,0,179.03,365a4.378,4.378,0,0,0-1.975-.744,5.406,5.406,0,0,0-3.978,1.166,6.527,6.527,0,0,0-2.111,3.57,9.035,9.035,0,0,0,.043,4.15,19.031,19.031,0,0,0,3.9,7.169,17.121,17.121,0,0,0,6.075,4.923,10.983,10.983,0,0,0,7.284.73,7.951,7.951,0,0,0,5.195-4.357,6.462,6.462,0,0,0,.6-3.234,5.673,5.673,0,0,0-1.131-2.941,5.6,5.6,0,0,0-5.23-2.318,4.975,4.975,0,0,0-2.483,1.209,7.067,7.067,0,0,0-1.588,2.139,9.734,9.734,0,0,0-.952,4.787,13.609,13.609,0,0,0,2.655,7.37,13.871,13.871,0,0,0,3.628,3.449,11.884,11.884,0,0,0,1.138.658c.265.136.394.215.394.215Z" transform="translate(-132.429 -294.723)" fill="#fafafa"/>
            <path id="Trazado_200158" data-name="Trazado 200158" d="M228.316,325.6s-.05-.05-.136-.15c-.1-.122-.222-.279-.379-.472a11.95,11.95,0,0,1-1.195-2,13.5,13.5,0,0,1-.9-8.429,11.4,11.4,0,0,1,2.633-5.3,3.646,3.646,0,0,1,1.417-.9,2.228,2.228,0,0,1,1.746.165,2.931,2.931,0,0,1,1.209,1.324,4.507,4.507,0,0,1,.379,1.789,11.29,11.29,0,0,1-2.533,7.033,11.032,11.032,0,0,1-3.027,2.626,8.166,8.166,0,0,1-3.964,1.173,5.837,5.837,0,0,1-3.871-1.424,7.771,7.771,0,0,1-2.261-3.32,11.262,11.262,0,0,1-.608-3.821,13.092,13.092,0,0,1,.458-3.678,5.1,5.1,0,0,1,.816-1.624,2.561,2.561,0,0,1,1.5-.987,2.442,2.442,0,0,1,1.724.308,3.845,3.845,0,0,1,1.2,1.173,4.956,4.956,0,0,1,.651,1.467,5.96,5.96,0,0,1,.229,1.524,7.961,7.961,0,0,1-.472,2.833,10.128,10.128,0,0,1-2.748,4.035,18.83,18.83,0,0,1-2.969,2.189c-.866.522-1.56.887-2.032,1.138-.222.114-.4.2-.544.272a.693.693,0,0,1-.193.079s.057-.043.172-.115c.136-.079.308-.179.522-.308.458-.265,1.145-.651,2-1.195a18.938,18.938,0,0,0,2.9-2.218,10.016,10.016,0,0,0,2.64-3.971,7.61,7.61,0,0,0,.436-2.733,5.391,5.391,0,0,0-.229-1.452,4.494,4.494,0,0,0-.622-1.374,3.562,3.562,0,0,0-1.1-1.066,2.107,2.107,0,0,0-1.5-.265,3.162,3.162,0,0,0-2.061,2.39,12.741,12.741,0,0,0-.429,3.578,11,11,0,0,0,.594,3.7,7.4,7.4,0,0,0,2.154,3.155,5.475,5.475,0,0,0,3.628,1.338,7.882,7.882,0,0,0,3.778-1.123,11.06,11.06,0,0,0,5.409-9.323,4.237,4.237,0,0,0-.336-1.653,2.6,2.6,0,0,0-1.066-1.181,1.916,1.916,0,0,0-1.5-.15,3.309,3.309,0,0,0-1.3.823,11.25,11.25,0,0,0-2.6,5.137,13.205,13.205,0,0,0-.208,4.8,13.378,13.378,0,0,0,.98,3.513,13.06,13.06,0,0,0,1.123,2.018c.143.2.258.365.351.494s.114.172.107.179Z" transform="translate(-153.439 -280.817)" fill="#fafafa"/>
          </g>
          <g id="Grupo_142441" data-name="Grupo 142441" transform="translate(45.249 66.419)">
            <g id="Grupo_142440" data-name="Grupo 142440" transform="translate(4.149 23.388)">
              <path id="Trazado_200159" data-name="Trazado 200159" d="M200.1,320.387s0,25.443,6.368,27.855c17.322,6.554,38.043,5.051,45.334,4.357.873-.608,1.882-1.352,3.027-2.282l2.411-2s11.427,2.182,11.276,2.783-4.458,1.989-8.879.995a1.908,1.908,0,0,0,1.052,2.7c2.912,1.417,13.237,5.788,14.868,6.776,1.46.88,2.812,2.325,1.173,2.426s-10.3-2.039-10.3-2.039,11.419,2.576,10.969,4.221c-.315,1.138-3.484,1.381-10.869-1.08,0,0,9.395,2.2,10.289,3.291,2.025,2.476-9.309-.05-9.309-.05,7.921,1.839,7.878,1.417,7.856,2.526-.021.83-1.867.98-6.275.594-3.578-.315-7.348.079-12.822-.1h0s-70.735,12.6-77.181-18.617c-3.477-16.829-2.883-23.046-3.585-33.922" transform="translate(-175.5 -318.82)" fill="#c78976"/>
              <path id="Trazado_200160" data-name="Trazado 200160" d="M297.39,386.608c-.05.2,2.354.866,5.373,1.488s5.5.966,5.524.766-2.375-.866-5.373-1.488S297.44,386.415,297.39,386.608Z" transform="translate(-210.177 -338.09)" fill="#bf654e"/>
              <path id="Trazado_200161" data-name="Trazado 200161" d="M297.93,382.254c-.05.2,2.468,1.052,5.638,1.9s5.781,1.388,5.831,1.195-2.469-1.052-5.638-1.9S297.987,382.061,297.93,382.254Z" transform="translate(-210.331 -336.855)" fill="#bf654e"/>
              <path id="Trazado_200162" data-name="Trazado 200162" d="M298.52,377.733c-.057.193,2.318,1.045,5.3,1.9s5.452,1.381,5.509,1.181-2.318-1.045-5.3-1.9S298.577,377.533,298.52,377.733Z" transform="translate(-210.498 -335.569)" fill="#bf654e"/>
            </g>
            <path id="Trazado_200163" data-name="Trazado 200163" d="M185.4,286.195a13.136,13.136,0,0,0-11.885,5.531c-2.411,3.363-4.615,8.772-3.527,16.793,2.125,15.655,3.857,20.871,3.857,20.871l28.77-4.558-3.935-26.259s-3.47-11.4-13.28-12.385Z" transform="translate(-169.701 -286.132)" fill="#feca2e"/>
            <path id="Trazado_200164" data-name="Trazado 200164" d="M185.4,286.195a13.136,13.136,0,0,0-11.885,5.531c-2.411,3.363-4.615,8.772-3.527,16.793,2.125,15.655,3.857,20.871,3.857,20.871l28.77-4.558-3.935-26.259s-3.47-11.4-13.28-12.385Z" transform="translate(-169.701 -286.132)" opacity="0.2"/>
            <path id="Trazado_200165" data-name="Trazado 200165" d="M274.594,360.461s-.215-.014-.622-.079-1-.179-1.746-.293a2.1,2.1,0,0,0-1.116.444,9.987,9.987,0,0,0-1.181.93,30.915,30.915,0,0,0-2.583,2.612l-.029.029-.036.014a25.8,25.8,0,0,1-6.855,1.045,75.968,75.968,0,0,1-8.185-.336c-6.6-.465-12.593-.83-16.9-1.431-2.154-.286-3.885-.587-5.073-.837-.594-.115-1.052-.236-1.367-.308a2.682,2.682,0,0,1-.472-.136,2.066,2.066,0,0,1,.487.064q.526.1,1.374.236c1.195.208,2.926.465,5.08.716,4.307.529,10.289.851,16.9,1.324,2.862.222,5.61.422,8.142.358a26.592,26.592,0,0,0,6.776-.966l-.064.043a30.458,30.458,0,0,1,2.647-2.59,11.016,11.016,0,0,1,1.231-.923,2.157,2.157,0,0,1,1.245-.436c.766.143,1.345.286,1.746.372a3.062,3.062,0,0,1,.6.165Z" transform="translate(-186.409 -307.129)" fill="#bf654e"/>
            <path id="Trazado_200166" data-name="Trazado 200166" d="M201.284,315.121a1.772,1.772,0,0,1-.222.064c-.172.036-.386.086-.665.143s-.665.079-1.095.107a10.242,10.242,0,0,1-1.5-.064,11.362,11.362,0,0,1-6.075-2.655,10.466,10.466,0,0,1-1.939-2.154,9.022,9.022,0,0,1-1.338-2.9,5.493,5.493,0,0,1-.129-1.717,2.958,2.958,0,0,1,.673-1.681,2.369,2.369,0,0,1,1.71-.78,3.926,3.926,0,0,1,1.875.458,6.466,6.466,0,0,1,2.719,2.848,7.9,7.9,0,0,1,.823,4.057,7.314,7.314,0,0,1-1.51,4.035,9.082,9.082,0,0,1-8.092,3.413,10.936,10.936,0,0,1-7.57-4.629,8.453,8.453,0,0,1-1.6-4.014,5.049,5.049,0,0,1,.243-2.118,4.507,4.507,0,0,1,1.159-1.739,3.521,3.521,0,0,1,1.825-.916,3.154,3.154,0,0,1,1.968.329,4.409,4.409,0,0,1,2.232,2.941,7.667,7.667,0,0,1-.029,3.47,9.57,9.57,0,0,1-1.223,2.955,9.2,9.2,0,0,1-4.107,3.556,9.332,9.332,0,0,1-4.05.751,8.868,8.868,0,0,1-2.562-.465,5.188,5.188,0,0,1-.837-.351c.007-.021.293.115.859.279a9.445,9.445,0,0,0,6.5-.4,8.989,8.989,0,0,0,3.964-3.506,9.172,9.172,0,0,0,1.166-2.876,7.289,7.289,0,0,0,0-3.334,4.073,4.073,0,0,0-2.075-2.726,2.892,2.892,0,0,0-1.767-.286,3.185,3.185,0,0,0-1.646.837,4.057,4.057,0,0,0-1.059,1.6,4.66,4.66,0,0,0-.222,1.968,8.11,8.11,0,0,0,1.538,3.835,10.543,10.543,0,0,0,7.312,4.472,8.727,8.727,0,0,0,7.763-3.263,7.338,7.338,0,0,0,.673-7.72,6.591,6.591,0,0,0-1.095-1.574,6.04,6.04,0,0,0-1.474-1.13,3.6,3.6,0,0,0-1.71-.436,2.067,2.067,0,0,0-1.5.665,2.69,2.69,0,0,0-.608,1.51,5.131,5.131,0,0,0,.114,1.624,8.924,8.924,0,0,0,1.281,2.826,10.047,10.047,0,0,0,1.875,2.125,11.23,11.23,0,0,0,5.939,2.69,11.23,11.23,0,0,0,3.47-.107Z" transform="translate(-170.347 -291.067)" fill="#fafafa"/>
          </g>
          <g id="Grupo_142445" data-name="Grupo 142445" transform="translate(32.3)">
            <g id="Grupo_142442" data-name="Grupo 142442" transform="translate(0 5.527)">
              <path id="Trazado_200167" data-name="Trazado 200167" d="M180.357,206.61a8.386,8.386,0,0,0-14.9-1.817,25.8,25.8,0,0,0-2.24,5.474,8.331,8.331,0,0,1-3.434,4.679c-2.032,1.1-4.708.723-6.561,2.111-2.054,1.545-2.111,4.937-.386,6.84a6.529,6.529,0,0,0,7.119,1.367,14.527,14.527,0,0,0-.98,4.715,4.942,4.942,0,0,0,2.061,4.157,4.789,4.789,0,0,0,4.672-.086,11.439,11.439,0,0,0,3.535-3.327,12.063,12.063,0,0,0,1.181,3.256,4.037,4.037,0,0,0,2.7,2.011,3.92,3.92,0,0,0,3.628-1.789,8.855,8.855,0,0,0,1.309-4.007,28.952,28.952,0,0,0-.673-10.461c-.529-2.189-1.3-4.422-.873-6.633s2.6-4.286,4.751-3.628" transform="translate(-151.603 -201.028)" fill="#0f2771"/>
              <path id="Trazado_200168" data-name="Trazado 200168" d="M152.36,222.974a2.146,2.146,0,0,0,.365.172,8.811,8.811,0,0,0,1.109.322,10.963,10.963,0,0,0,9.838-2.819,11.367,11.367,0,0,0,2.254-3.012,14.91,14.91,0,0,0,1.252-3.814,21.069,21.069,0,0,1,1.052-3.756,6.327,6.327,0,0,1,2.139-2.755A6.979,6.979,0,0,1,176.1,206.2a8.459,8.459,0,0,1,3.592,1.939c.73.658,1.045,1.116,1.088,1.08.014-.014-.05-.136-.193-.358a7.4,7.4,0,0,0-.737-.894,8.14,8.14,0,0,0-3.642-2.175,7.3,7.3,0,0,0-6.153,1.073,6.793,6.793,0,0,0-2.347,2.969,21.024,21.024,0,0,0-1.095,3.849,15.238,15.238,0,0,1-1.195,3.685A10.933,10.933,0,0,1,158,223.11a11.738,11.738,0,0,1-4.121.129c-.973-.15-1.5-.315-1.517-.272Z" transform="translate(-151.818 -202.309)" fill="#0f2771"/>
              <path id="Trazado_200169" data-name="Trazado 200169" d="M178.427,237.856a1.474,1.474,0,0,0,.286-.186,4.085,4.085,0,0,0,.687-.708,6.58,6.58,0,0,0,1.266-3.384,13.262,13.262,0,0,0-.6-5.316,45.95,45.95,0,0,1-1.7-6.2,9.14,9.14,0,0,1,1.166-6.06,8.78,8.78,0,0,1,3.735-3.442,9.844,9.844,0,0,1,3.363-.944c.83-.072,1.3-.043,1.3-.086a3.66,3.66,0,0,0-1.317-.136,9.068,9.068,0,0,0-7.549,4.336,9.491,9.491,0,0,0-1.288,6.418,41.678,41.678,0,0,0,1.767,6.282,13.4,13.4,0,0,1,.708,5.123,6.816,6.816,0,0,1-1.045,3.291c-.458.687-.83.987-.794,1.03Z" transform="translate(-159.017 -203.976)" fill="#0f2771"/>
            </g>
            <path id="Trazado_200170" data-name="Trazado 200170" d="M229.376,219.152c5.61-12.972-2.082-20.871-7.091-23.7-2.984-1.689-6.525-2.039-9.953-2.125a36.6,36.6,0,0,0-10.074.923,18.119,18.119,0,0,0-8.729,4.916c-4.1,4.393-5.037,10.9-4.651,16.893a47.074,47.074,0,0,0,5.974,20.177,5.02,5.02,0,0,0,1.753,2.039,1.841,1.841,0,0,0,2.426-.444" transform="translate(-162.185 -193.304)" fill="#0f2771"/>
            <path id="Trazado_200171" data-name="Trazado 200171" d="M222.552,254.981l-.208-6.826s7.978-1.324,9.631-11.734c.823-5.173.565-13.666.122-20.6a10.989,10.989,0,0,0-12.121-10.246l-18.059,1.91a3.663,3.663,0,0,0-3.277,3.713h0l2.4,44.683a10.769,10.769,0,0,0,10.747,10.189h0a10.768,10.768,0,0,0,10.761-11.083Z" transform="translate(-164.985 -196.778)" fill="#c78976"/>
            <g id="Grupo_142443" data-name="Grupo 142443" transform="translate(60.003 22.049)">
              <path id="Trazado_200172" data-name="Trazado 200172" d="M241.831,227.7a1.331,1.331,0,0,1-1.288,1.345,1.27,1.27,0,0,1-1.374-1.2,1.331,1.331,0,0,1,1.288-1.345,1.281,1.281,0,0,1,1.381,1.2Z" transform="translate(-236.518 -224.796)" fill="#0f2771"/>
              <path id="Trazado_200173" data-name="Trazado 200173" d="M240.742,225.529c-.165.172-1.173-.572-2.612-.572s-2.49.723-2.647.544c-.079-.079.093-.394.551-.73a3.613,3.613,0,0,1,2.118-.651,3.507,3.507,0,0,1,2.082.673c.444.336.594.651.508.73Z" transform="translate(-235.464 -224.12)" fill="#0f2771"/>
            </g>
            <g id="Grupo_142444" data-name="Grupo 142444" transform="translate(45.886 22.321)">
              <path id="Trazado_200174" data-name="Trazado 200174" d="M221.711,228.241a1.331,1.331,0,0,1-1.288,1.345,1.275,1.275,0,0,1-1.374-1.2,1.331,1.331,0,0,1,1.288-1.345A1.27,1.27,0,0,1,221.711,228.241Z" transform="translate(-216.677 -225.222)" fill="#0f2771"/>
              <path id="Trazado_200175" data-name="Trazado 200175" d="M221.012,225.9c-.165.172-1.181-.572-2.612-.572s-2.49.723-2.647.544c-.079-.079.093-.394.551-.723a3.614,3.614,0,0,1,2.118-.651,3.507,3.507,0,0,1,2.082.673c.444.336.594.651.508.73Z" transform="translate(-215.734 -224.5)" fill="#0f2771"/>
            </g>
            <path id="Trazado_200176" data-name="Trazado 200176" d="M230.122,236.593a9.815,9.815,0,0,1,2.333-.422c.365-.036.716-.107.773-.358a1.865,1.865,0,0,0-.243-1.088c-.343-.887-.708-1.817-1.088-2.79-1.51-3.978-2.6-7.248-2.433-7.305s1.51,3.12,3.019,7.091c.365.98.708,1.918,1.037,2.812a2.14,2.14,0,0,1,.193,1.438.927.927,0,0,1-.6.537,2.348,2.348,0,0,1-.622.086,9.005,9.005,0,0,1-2.368,0Z" transform="translate(-173.749 -202.216)" fill="#0f2771"/>
            <path id="Trazado_200177" data-name="Trazado 200177" d="M226.238,263.631A26.466,26.466,0,0,1,212.3,259.91s3.384,7.148,13.8,6.175l.143-2.454Z" transform="translate(-168.871 -212.253)" fill="#bf654e"/>
            <path id="Trazado_200178" data-name="Trazado 200178" d="M227.837,245.8a2.585,2.585,0,0,0-2.318-.959,2.35,2.35,0,0,0-1.631.873,1.5,1.5,0,0,0-.114,1.71,1.74,1.74,0,0,0,1.882.479,5.436,5.436,0,0,0,1.839-1.095,1.522,1.522,0,0,0,.408-.422.487.487,0,0,0,0-.537" transform="translate(-172.073 -207.963)" fill="#bf654e"/>
            <path id="Trazado_200179" data-name="Trazado 200179" d="M224.387,242.74c.236-.014.236,1.546,1.574,2.655s2.991.937,3.005,1.152c.021.1-.372.3-1.073.322a3.922,3.922,0,0,1-2.511-.873,3.355,3.355,0,0,1-1.216-2.225C224.108,243.119,224.28,242.733,224.387,242.74Z" transform="translate(-172.244 -207.369)" fill="#0f2771"/>
            <path id="Trazado_200180" data-name="Trazado 200180" d="M221.4,222.521c-.143.394-1.574.208-3.263.408-1.689.172-3.048.665-3.27.315-.1-.165.136-.537.687-.916a5.7,5.7,0,0,1,4.98-.551c.615.25.93.558.866.744Z" transform="translate(-169.596 -201.309)" fill="#0f2771"/>
            <path id="Trazado_200181" data-name="Trazado 200181" d="M240.154,219.688c-.25.329-1.245-.014-2.433-.029-1.188-.057-2.2.222-2.433-.122-.1-.165.057-.494.5-.8a3.505,3.505,0,0,1,3.914.122c.422.336.558.673.444.83Z" transform="translate(-175.403 -200.387)" fill="#0f2771"/>
            <path id="Trazado_200182" data-name="Trazado 200182" d="M230.664,214.125c-1.817-8.879-4.293-5.366-7.091-9.6-4.05,4.1-13.373,8.829-19.061,9.752a3.72,3.72,0,0,0-1.667.529c-.88.651-.944,1.91-.944,3.005a39.53,39.53,0,0,1-.758,9.194,14.979,14.979,0,0,1-4.45,7.935c-3.434-7.234-3.778-15.655-2.24-23.511.63-3.213,1.689-6.575,4.25-8.615a14.366,14.366,0,0,1,6.5-2.468c5.688-1.045,11.706-1.3,17.122.737s9.624,4.529,10.346,10.267" transform="translate(-163.545 -195.082)" fill="#0f2771"/>
            <path id="Trazado_200183" data-name="Trazado 200183" d="M190.427,209.067a5.7,5.7,0,0,0,1.166.637,10.232,10.232,0,0,0,1.445.58q.44.15.923.322c.336.086.694.172,1.059.265a26.863,26.863,0,0,0,5.323.73,32.774,32.774,0,0,0,12.908-2.161,25.437,25.437,0,0,0,2.612-1.2c.394-.207.78-.415,1.152-.615.351-.229.687-.444,1.009-.658a13,13,0,0,0,1.66-1.223c.229-.186.451-.365.658-.537.179-.179.343-.343.5-.508a5.948,5.948,0,0,0,.88-.987c-.093-.093-1.359,1.324-3.928,2.9-.322.193-.658.4-1.009.615-.372.186-.751.379-1.145.572-.78.429-1.674.737-2.59,1.131a36.144,36.144,0,0,1-6.254,1.66,36.742,36.742,0,0,1-6.454.465,29.424,29.424,0,0,1-5.245-.594,48.012,48.012,0,0,1-4.679-1.4Z" transform="translate(-162.646 -196.263)" fill="#0f2771"/>
            <path id="Trazado_200184" data-name="Trazado 200184" d="M194.55,201.394a8.629,8.629,0,0,0,.894.737,7.522,7.522,0,0,0,1.159.715c.236.129.487.272.751.408s.572.243.88.372a27.25,27.25,0,0,0,10.225,1.825,46.116,46.116,0,0,0,10.332-1.152c1.3-.293,2.333-.587,3.041-.823a4.334,4.334,0,0,0,1.08-.422c-.029-.093-1.61.351-4.2.837a54.566,54.566,0,0,1-10.239.973,29.679,29.679,0,0,1-10.081-1.624,38.351,38.351,0,0,1-3.835-1.853Z" transform="translate(-163.821 -195.602)" fill="#0f2771"/>
            <path id="Trazado_200185" data-name="Trazado 200185" d="M237.828,198.217c0-.072-.358-.143-.916,0a3.777,3.777,0,0,0-2.7,3.263c-.036.58.1.916.172.9a5.118,5.118,0,0,1,3.449-4.164Z" transform="translate(-175.102 -194.678)" fill="#0f2771"/>
            <path id="Trazado_200186" data-name="Trazado 200186" d="M162.094,209.391a1.393,1.393,0,0,0-.308-.379,2.353,2.353,0,0,0-1.288-.558,3.2,3.2,0,0,0-2.168.487,2.777,2.777,0,0,0-1.266,2.633,3.815,3.815,0,0,0,2,2.955,3.958,3.958,0,0,0,4.05-.422,4.59,4.59,0,0,0,1.488-1.724,6.011,6.011,0,0,0,.551-2.29,41.205,41.205,0,0,1,.122-4.708,8.756,8.756,0,0,1,5.559-6.425,8.039,8.039,0,0,1,6.969.859,9.058,9.058,0,0,1,3.3,3.62c.515,1.059.622,1.724.687,1.71a1.44,1.44,0,0,0-.057-.479,6,6,0,0,0-.415-1.324,8.9,8.9,0,0,0-3.277-3.871,9.1,9.1,0,0,0-3.291-1.338,8.041,8.041,0,0,0-4.078.315,9.225,9.225,0,0,0-5.953,6.826,38.919,38.919,0,0,0-.122,4.772,5.522,5.522,0,0,1-.487,2.082,4.027,4.027,0,0,1-1.3,1.531,3.493,3.493,0,0,1-3.52.436,3.393,3.393,0,0,1-1.8-2.569,2.423,2.423,0,0,1,1.037-2.318,3.081,3.081,0,0,1,1.96-.537,2.841,2.841,0,0,1,1.617.708Z" transform="translate(-153.152 -194.641)" fill="#0f2771"/>
            <path id="Trazado_200187" data-name="Trazado 200187" d="M202.31,216.074a3.676,3.676,0,0,0,1.088.086c.7.014,1.71.014,2.955-.029a31.633,31.633,0,0,0,9.631-1.667,16.694,16.694,0,0,0,7.863-5.753,11.124,11.124,0,0,0,1.4-2.633,3.325,3.325,0,0,0,.272-1.059,21.363,21.363,0,0,1-2,3.449,17.3,17.3,0,0,1-7.735,5.452,36.044,36.044,0,0,1-9.452,1.8,33.379,33.379,0,0,0-4.014.358Z" transform="translate(-166.029 -196.637)" fill="#0f2771"/>
            <path id="Trazado_200188" data-name="Trazado 200188" d="M181.66,253.737a2.034,2.034,0,0,0,.494.987,3.812,3.812,0,0,0,2.7,1.317,5.888,5.888,0,0,0,4.171-1.574,3.764,3.764,0,0,0,1.274-2.411,2.646,2.646,0,0,0-1.352-2.612,2.1,2.1,0,0,0-2.762.98,1.785,1.785,0,0,0,.107,1.51,2.223,2.223,0,0,0,1.023.98,3.3,3.3,0,0,0,2.476.043,4.541,4.541,0,0,0,1.789-1.145,4.722,4.722,0,0,0,1.324-2.7,2.085,2.085,0,0,0-.064-1.095c-.05,0-.021.394-.165,1.059a4.852,4.852,0,0,1-1.388,2.44,4.19,4.19,0,0,1-1.646.98,2.852,2.852,0,0,1-2.089-.064,1.5,1.5,0,0,1-.837-1.789,1.546,1.546,0,0,1,1.982-.665,2.1,2.1,0,0,1,1.03,2.046,3.231,3.231,0,0,1-1.073,2.061,5.582,5.582,0,0,1-3.785,1.553,3.742,3.742,0,0,1-2.547-1.059c-.479-.479-.615-.859-.658-.83Z" transform="translate(-160.154 -208.871)" fill="#0f2771"/>
          </g>
        </g>
        <path id="Trazado_200189" data-name="Trazado 200189" d="M218.969,432.876c0,.1-25.973.186-58.006.186s-58.013-.086-58.013-.186,25.966-.186,58.013-.186S218.969,432.776,218.969,432.876Z" transform="translate(-57.637 -261.409)" fill="#0f2771"/>
      </g>
      <g id="Grupo_142452" data-name="Grupo 142452" transform="translate(179.231 106.038)">
        <path id="Trazado_200190" data-name="Trazado 200190" d="M282.467,112.98A31.765,31.765,0,0,0,251.3,157.541c3.685,8.321,10.833,14.825,14,23.354,2.175,5.853,2.333,12.3,4.543,18.138,4.543,11.992,18.417,19.619,30.974,17.036,7.541-1.553,14.324-6.261,22.009-6.74,8.25-.515,17.637,3.678,24.163-1.388,4.565-3.542,5.338-10.339,3.685-15.87s-5.216-10.253-8.142-15.233-5.309-10.733-4.221-16.407c.98-5.144,4.629-9.309,6.919-14.017A28.082,28.082,0,0,0,317.992,106.1c-6.554.465-12.7,3.2-19.011,5.044s-9.452,2.053-16.514,1.839" transform="translate(-248.659 -106.038)" fill="#f5f5f5"/>
        <g id="Grupo_142451" data-name="Grupo 142451" transform="translate(20.85 15.198)">
          <g id="Grupo_142450" data-name="Grupo 142450" transform="translate(10.716 12.721)">
            <path id="Trazado_200191" data-name="Trazado 200191" d="M310.745,145.081s-12.128-.114-16.306,10.418.608,15.627,2.476,18.725,6.883,9.838,6.926,16.192l16.3-.1a43.334,43.334,0,0,1,5.71-15.906c4.873-8.114,4.293-14.031,2.962-17.558s-5.66-12.285-18.066-11.77Z" transform="translate(-292.775 -145.06)" fill="#4dd0e1"/>
            <path id="Trazado_200192" data-name="Trazado 200192" d="M317.646,195.916s-.021-.086-.05-.25-.064-.429-.115-.751c-.093-.665-.236-1.639-.408-2.876-.336-2.5-.837-6.125-1.159-10.64-.072-1.13-.143-2.311-.172-3.542s-.072-2.519.014-3.849a10.708,10.708,0,0,1,.944-4.021,6.155,6.155,0,0,1,3.1-3.048,4.114,4.114,0,0,1,4.379.88,3.071,3.071,0,0,1,.916,2.211,3.965,3.965,0,0,1-.844,2.3,5.231,5.231,0,0,1-1.953,1.546,10.038,10.038,0,0,1-2.4.773,29.208,29.208,0,0,1-5.087.544,29.609,29.609,0,0,1-5.116-.3,9.724,9.724,0,0,1-2.418-.723,6.213,6.213,0,0,1-2.018-1.46,4.654,4.654,0,0,1-1.145-2.168,3.644,3.644,0,0,1,.308-2.383,3.227,3.227,0,0,1,1.7-1.624,2.921,2.921,0,0,1,2.29.129,4.291,4.291,0,0,1,1.7,1.474,5.984,5.984,0,0,1,.837,2.018,24.2,24.2,0,0,1,.365,4.114c.114,2.655.215,5.123.315,7.377.186,4.508.329,8.15.436,10.69.043,1.252.079,2.232.107,2.9.007.322.014.572.021.758v.258a2.341,2.341,0,0,1-.021-.258q-.021-.268-.043-.751c-.036-.673-.086-1.653-.15-2.9-.122-2.533-.3-6.182-.515-10.682-.107-2.254-.222-4.729-.343-7.377a24.9,24.9,0,0,0-.372-4.071,5.7,5.7,0,0,0-.809-1.939,4.1,4.1,0,0,0-1.61-1.388,2.706,2.706,0,0,0-2.111-.122,2.987,2.987,0,0,0-1.567,1.51,3.367,3.367,0,0,0-.286,2.225,4.423,4.423,0,0,0,1.095,2.053,7.21,7.21,0,0,0,4.293,2.1,29.618,29.618,0,0,0,5.066.293,28.645,28.645,0,0,0,5.044-.537,9.935,9.935,0,0,0,2.34-.751,5.039,5.039,0,0,0,1.867-1.474,3.714,3.714,0,0,0,.8-2.154,2.782,2.782,0,0,0-.844-2.039,3.877,3.877,0,0,0-4.121-.83,5.9,5.9,0,0,0-2.991,2.926,10.593,10.593,0,0,0-.937,3.935c-.086,1.317-.05,2.6-.029,3.828s.093,2.411.157,3.535c.293,4.5.766,8.128,1.073,10.632.157,1.245.279,2.218.365,2.883.036.322.072.572.093.751a2.337,2.337,0,0,1,.021.258Z" transform="translate(-295.977 -151.118)" fill="#0f2771"/>
            <path id="Trazado_200193" data-name="Trazado 200193" d="M308.23,208.018l16.356-.258.172,10.332-4.744,5.667-6.275.272-5.309-6.347Z" transform="translate(-297.172 -162.898)" fill="#e1e1e1"/>
            <path id="Trazado_200194" data-name="Trazado 200194" d="M322.165,229.591a4.4,4.4,0,0,0-3.277-1.324,4.333,4.333,0,0,0-3.1,1.61l6.382-.286Z" transform="translate(-299.323 -168.73)" fill="#0f2771"/>
            <path id="Trazado_200195" data-name="Trazado 200195" d="M324.5,220.194s-.215-.086-.594-.258-.923-.415-1.617-.658a15.855,15.855,0,0,0-11.262.236,15.891,15.891,0,0,0-1.588.73,3.351,3.351,0,0,1-.58.279,2.745,2.745,0,0,1,.537-.365,12.892,12.892,0,0,1,1.574-.8,15.048,15.048,0,0,1,11.391-.236,14.045,14.045,0,0,1,1.6.737,2.79,2.79,0,0,1,.551.343Z" transform="translate(-297.351 -165.844)" fill="#0f2771"/>
            <path id="Trazado_200196" data-name="Trazado 200196" d="M324.531,216.684s-.215-.086-.594-.258-.923-.415-1.617-.658a15.855,15.855,0,0,0-11.262.236,15.883,15.883,0,0,0-1.588.73,2.774,2.774,0,0,1-.58.279,2.747,2.747,0,0,1,.537-.365,12.888,12.888,0,0,1,1.574-.8,15.048,15.048,0,0,1,11.391-.236,14.046,14.046,0,0,1,1.6.737,2.792,2.792,0,0,1,.551.343Z" transform="translate(-297.36 -164.845)" fill="#0f2771"/>
            <path id="Trazado_200197" data-name="Trazado 200197" d="M324.361,213.354s-.215-.086-.594-.258-.923-.415-1.617-.658a15.855,15.855,0,0,0-11.262.236,15.9,15.9,0,0,0-1.588.73,3.35,3.35,0,0,1-.58.279,2.746,2.746,0,0,1,.537-.365,12.9,12.9,0,0,1,1.574-.8,15.048,15.048,0,0,1,11.391-.236,14.045,14.045,0,0,1,1.6.737,2.793,2.793,0,0,1,.551.343Z" transform="translate(-297.311 -163.898)" fill="#0f2771"/>
            <g id="Grupo_142448" data-name="Grupo 142448" transform="translate(1.642 2.971)" opacity="0.2">
              <path id="Trazado_200198" data-name="Trazado 200198" d="M302.526,175.427c-.222.25-.787.2-1.6-.215a9.121,9.121,0,0,1-2.841-2.526,14.154,14.154,0,0,1-2.5-5.145,15.11,15.11,0,0,1,2.969-13.587,14.194,14.194,0,0,1,4.429-3.628,9.27,9.27,0,0,1,3.642-1.109c.916-.043,1.445.15,1.546.472.207.7-1.317,1.674-3.134,3.52a19.587,19.587,0,0,0-2.755,3.463,14.722,14.722,0,0,0-2.175,9.946,19.04,19.04,0,0,0,1.052,4.293c.88,2.44,1.86,3.964,1.374,4.508Z" transform="translate(-295.071 -149.212)" fill="#fff"/>
            </g>
            <g id="Grupo_142449" data-name="Grupo 142449" transform="translate(9.77 32.434)" opacity="0.2">
              <path id="Trazado_200199" data-name="Trazado 200199" d="M310.988,192.923a2.289,2.289,0,1,1-2.247-2.533A2.4,2.4,0,0,1,310.988,192.923Z" transform="translate(-306.43 -190.39)" fill="#fff"/>
            </g>
          </g>
          <path id="Trazado_200200" data-name="Trazado 200200" d="M286.922,147.687c-.043.057-2.118-1.445-4.636-3.349s-4.529-3.492-4.486-3.549,2.118,1.445,4.636,3.349S286.958,147.63,286.922,147.687Z" transform="translate(-277.799 -131.123)" fill="#0f2771"/>
          <path id="Trazado_200201" data-name="Trazado 200201" d="M293.884,142.259a16.827,16.827,0,0,1-1.939-2.211,17.383,17.383,0,0,1-1.746-2.368,16.827,16.827,0,0,1,1.939,2.211A17.381,17.381,0,0,1,293.884,142.259Z" transform="translate(-281.326 -130.238)" fill="#0f2771"/>
          <path id="Trazado_200202" data-name="Trazado 200202" d="M304.389,138.5c-.064.021-.894-2.282-1.853-5.144s-1.681-5.2-1.617-5.223.894,2.282,1.853,5.144S304.453,138.476,304.389,138.5Z" transform="translate(-284.375 -127.522)" fill="#0f2771"/>
          <path id="Trazado_200203" data-name="Trazado 200203" d="M318.292,137.765a13.923,13.923,0,0,1-.487-2.6,14.853,14.853,0,0,1-.243-2.64,14.649,14.649,0,0,1,.487,2.6A14.814,14.814,0,0,1,318.292,137.765Z" transform="translate(-289.106 -128.771)" fill="#0f2771"/>
          <path id="Trazado_200204" data-name="Trazado 200204" d="M331.148,139.379c-.064-.021.63-2.74,1.553-6.082s1.724-6.039,1.8-6.017-.63,2.74-1.553,6.082S331.22,139.4,331.148,139.379Z" transform="translate(-292.976 -127.28)" fill="#0f2771"/>
          <path id="Trazado_200205" data-name="Trazado 200205" d="M341.749,147.448a17.507,17.507,0,0,1,1.524-2.547A18.474,18.474,0,0,1,345,142.49a17.5,17.5,0,0,1-1.524,2.547A18.476,18.476,0,0,1,341.749,147.448Z" transform="translate(-295.991 -131.607)" fill="#0f2771"/>
          <path id="Trazado_200206" data-name="Trazado 200206" d="M354.722,147.24c.043.057-2.068,1.646-4.7,3.549s-4.808,3.4-4.851,3.349,2.068-1.646,4.708-3.549,4.808-3.4,4.851-3.349Z" transform="translate(-296.966 -132.958)" fill="#0f2771"/>
        </g>
      </g>
    </g>
  </g>
</svg>
