<svg xmlns="http://www.w3.org/2000/svg" xmlns:xlink="http://www.w3.org/1999/xlink" width="190" height="152" viewBox="0 0 190 152">
  <defs>
    <linearGradient id="linear-gradient" x1="0.371" y1="0.76" x2="0.667" y2="0.164" gradientUnits="objectBoundingBox">
      <stop offset="0" stop-color="#c9e3ec"/>
      <stop offset="1" stop-color="#92c1cf"/>
    </linearGradient>
    <linearGradient id="linear-gradient-2" y1="0.5" x2="1" y2="0.5" gradientUnits="objectBoundingBox">
      <stop offset="0" stop-color="#fafdfd"/>
      <stop offset="1" stop-color="#f3f9fb"/>
    </linearGradient>
    <linearGradient id="linear-gradient-3" x1="0.499" y1="0.493" x2="0.593" y2="-0.438" gradientUnits="objectBoundingBox">
      <stop offset="0" stop-color="#2db38c"/>
      <stop offset="1" stop-color="#5ee5ae"/>
    </linearGradient>
    <linearGradient id="linear-gradient-4" x1="0.055" y1="1.927" x2="0.73" y2="-0.237" xlink:href="#linear-gradient-3"/>
    <linearGradient id="linear-gradient-5" x1="0.499" y1="0.492" x2="0.593" y2="-0.438" xlink:href="#linear-gradient-3"/>
    <linearGradient id="linear-gradient-6" x1="0.055" y1="1.927" x2="0.73" y2="-0.236" xlink:href="#linear-gradient-3"/>
    <linearGradient id="linear-gradient-8" x1="0.055" y1="1.927" x2="0.73" y2="-0.237" xlink:href="#linear-gradient-3"/>
  </defs>
  <g id="Grupo_146530" data-name="Grupo 146530" transform="translate(-1230 -1987)">
    <g id="Grupo_146454" data-name="Grupo 146454">
      <rect id="Rectángulo_45981" data-name="Rectángulo 45981" width="190" height="152" transform="translate(1230 1987)" fill="none"/>
      <g id="_1_1_tab" data-name="1_1_tab" transform="translate(1209.844 1960.922)">
        <g id="Layer_1" transform="translate(34.823 26.078)">
          <g id="Grupo_141384" data-name="Grupo 141384" transform="translate(0 9.083)">
            <path id="Trazado_193838" data-name="Trazado 193838" d="M109.185,357.642l-72.43-41.817c-2.861-1.651-2.5-4.536.8-6.441l41.1-23.731c3.3-1.905,8.3-2.115,11.16-.461l72.43,41.818c2.861,1.651,2.5,4.536-.8,6.441l-41.1,23.731c-3.3,1.905-8.3,2.115-11.16.461Z" transform="translate(-34.823 -215.864)" fill="#daebf2"/>
            <path id="Trazado_193839" data-name="Trazado 193839" d="M109.19,357.412,36.759,315.6a3.334,3.334,0,0,1-1.929-2.747v-3.589c.024-1.252.947.923,2.732-.108l41.1-23.731c3.3-1.905,8.3-2.115,11.16-.461l72.43,41.817c.956.551,1.648-1.788,1.893-1.046.084.249.03,3.529.036,3.787.027,1.282-.9,2.642-2.732,3.7l-41.1,23.731c-3.3,1.905-8.3,2.115-11.16.461Z" transform="translate(-34.828 -215.703)" fill="#bddcf6"/>
            <path id="Trazado_193840" data-name="Trazado 193840" d="M109.185,345.662l-72.43-41.817c-2.861-1.651-2.5-4.536.8-6.441l41.1-23.731c3.3-1.905,8.3-2.115,11.16-.461l72.43,41.818c2.861,1.651,2.5,4.536-.8,6.441l-41.1,23.731c-3.3,1.905-8.3,2.115-11.16.461Z" transform="translate(-34.823 -207.473)" fill="#d2e1f1"/>
            <path id="Trazado_193841" data-name="Trazado 193841" d="M164.192,388.869c0,.758-.012,1.441-.009,1.555.027,1.282-.9,2.642-2.732,3.7l-41.1,23.731c-3.3,1.905-8.3,2.115-11.16.461L36.759,376.5a3.334,3.334,0,0,1-1.929-2.747v1.079a3.34,3.34,0,0,0,1.929,2.747L109.19,419.4c2.861,1.651,7.855,1.444,11.16-.461l41.1-23.731c1.834-1.058,2.759-2.418,2.732-3.7,0-.165.018-1.579.009-2.633Z" transform="translate(-34.828 -277.685)" fill="#12263f"/>
            <path id="Trazado_193842" data-name="Trazado 193842" d="M161.449,387.777l-41.1,23.731c-3.3,1.906-8.3,2.115-11.16.461L36.758,370.155a3.422,3.422,0,0,1-1.908-2.535,3.194,3.194,0,0,0,1.908,3.134l72.43,41.817c2.861,1.651,7.855,1.444,11.16-.461l41.1-23.731c1.932-1.114,2.849-2.565,2.711-3.907a4.878,4.878,0,0,1-2.711,3.311Z" transform="translate(-34.826 -274.379)" fill="#fff"/>
            <path id="Trazado_193847" data-name="Trazado 193847" d="M349.451,98.323,278.216,57.194a5.916,5.916,0,0,0-4.087-.692,5.911,5.911,0,0,1,3.619.758l71.238,41.128a5.966,5.966,0,0,1,2.75,6.816l-15.519,53.684a5.945,5.945,0,0,1-4.629,4.206,5.948,5.948,0,0,0,5.093-4.272L352.2,105.139A5.968,5.968,0,0,0,349.451,98.323Z" transform="translate(-202.435 -56.397)" fill="#fff"/>
            <path id="Trazado_193848" data-name="Trazado 193848" d="M186.628,349.335l-58.817-33.956c-1.177-.68-1.031-1.867.33-2.651l22.083-12.748a5.11,5.11,0,0,1,4.6-.192l58.816,33.956c1.177.68,1.031,1.867-.33,2.651l-22.083,12.748A5.109,5.109,0,0,1,186.628,349.335Z" transform="translate(-99.395 -226.548)" fill="#0f2771"/>
            <path id="Trazado_193849" data-name="Trazado 193849" d="M159.555,306.948l3.769,2.175a1.916,1.916,0,0,0,1.732,0,.526.526,0,0,0-.006-1l-3.769-2.175a1.917,1.917,0,0,0-1.732,0A.526.526,0,0,0,159.555,306.948Zm6.453,3.727,1.786,1.031a1.916,1.916,0,0,0,1.732,0,.526.526,0,0,0-.006-1l-1.786-1.031a1.917,1.917,0,0,0-1.732,0A.526.526,0,0,0,166.008,310.675Zm4.47,2.58,1.786,1.031a1.917,1.917,0,0,0,1.732,0,.526.526,0,0,0-.006-1L172.2,312.26a1.917,1.917,0,0,0-1.732,0A.526.526,0,0,0,170.478,313.254Zm4.47,2.579,1.786,1.031a1.917,1.917,0,0,0,1.732,0,.526.526,0,0,0-.006-1l-1.786-1.031a1.917,1.917,0,0,0-1.732,0A.526.526,0,0,0,174.948,315.834Zm4.47,2.579,1.786,1.031a1.917,1.917,0,0,0,1.732,0,.526.526,0,0,0-.006-1l-1.786-1.031a1.917,1.917,0,0,0-1.732,0A.526.526,0,0,0,179.418,318.413Zm4.47,2.58,1.786,1.031a1.917,1.917,0,0,0,1.732,0,.526.526,0,0,0-.006-1L185.614,320a1.917,1.917,0,0,0-1.732,0A.526.526,0,0,0,183.888,320.993Zm4.47,2.58,1.786,1.031a1.917,1.917,0,0,0,1.732,0,.526.526,0,0,0-.006-1l-1.786-1.031a1.917,1.917,0,0,0-1.732,0A.526.526,0,0,0,188.358,323.572Zm4.47,2.579,1.786,1.031a1.917,1.917,0,0,0,1.732,0,.526.526,0,0,0-.006-1l-1.786-1.031a1.916,1.916,0,0,0-1.732,0A.526.526,0,0,0,192.828,326.152Zm4.47,2.579,1.786,1.031a1.917,1.917,0,0,0,1.732,0,.526.526,0,0,0-.006-1l-1.786-1.031a1.916,1.916,0,0,0-1.732,0A.526.526,0,0,0,197.3,328.731Zm4.47,2.58,1.786,1.031a1.917,1.917,0,0,0,1.732,0,.526.526,0,0,0-.006-1l-1.786-1.031a1.916,1.916,0,0,0-1.732,0A.526.526,0,0,0,201.768,331.311Zm4.47,2.579,1.786,1.031a1.917,1.917,0,0,0,1.732,0,.526.526,0,0,0-.006-1l-1.786-1.031a1.917,1.917,0,0,0-1.732,0A.526.526,0,0,0,206.238,333.89Zm4.47,2.58,1.786,1.031a1.917,1.917,0,0,0,1.732,0,.526.526,0,0,0-.006-1l-1.786-1.031a1.917,1.917,0,0,0-1.732,0A.526.526,0,0,0,210.708,336.47Zm4.563,2.634,1.786,1.031a1.917,1.917,0,0,0,1.732,0,.526.526,0,0,0-.006-1L217,338.109a1.917,1.917,0,0,0-1.732,0A.526.526,0,0,0,215.271,339.1Zm-59.73-29.7,1.546.893a2.171,2.171,0,0,0,1.968,0l1.537-.887a.6.6,0,0,0-.006-1.135l-1.546-.893a2.171,2.171,0,0,0-1.968,0l-1.537.887A.6.6,0,0,0,155.54,309.4Zm7.984,3.475,1.537-.887a.6.6,0,0,0-.006-1.135l-1.546-.893a2.17,2.17,0,0,0-1.968,0l-1.537.887a.6.6,0,0,0,.006,1.135l1.546.893A2.171,2.171,0,0,0,163.525,312.874Zm.956,1.684,1.546.893a2.171,2.171,0,0,0,1.968,0l1.537-.887a.6.6,0,0,0-.006-1.135l-1.546-.893a2.171,2.171,0,0,0-1.968,0l-1.537.887A.6.6,0,0,0,164.48,314.558Zm4.47,2.579,1.546.893a2.171,2.171,0,0,0,1.968,0l1.537-.887a.6.6,0,0,0-.006-1.135l-1.546-.893a2.171,2.171,0,0,0-1.968,0l-1.537.887A.6.6,0,0,0,168.95,317.137Zm9.515,1.453-1.546-.893a2.171,2.171,0,0,0-1.968,0l-1.537.887a.6.6,0,0,0,.006,1.136l1.546.893a2.171,2.171,0,0,0,1.968,0l1.537-.887A.6.6,0,0,0,178.465,318.59Zm4.47,2.58-1.546-.893a2.171,2.171,0,0,0-1.968,0l-1.537.887a.6.6,0,0,0,.006,1.135l1.546.893a2.171,2.171,0,0,0,1.968,0l1.537-.887C183.484,321.994,183.481,321.484,182.935,321.17Zm4.47,2.579-1.546-.893a2.171,2.171,0,0,0-1.968,0l-1.537.887a.6.6,0,0,0,.006,1.135l1.546.893a2.171,2.171,0,0,0,1.968,0l1.537-.887A.6.6,0,0,0,187.405,323.749Zm4.47,2.58-1.546-.893a2.171,2.171,0,0,0-1.968,0l-1.537.887a.6.6,0,0,0,.006,1.135l1.546.893a2.171,2.171,0,0,0,1.968,0l1.537-.887A.6.6,0,0,0,191.875,326.329Zm4.47,2.579-1.546-.893a2.17,2.17,0,0,0-1.968,0l-1.537.887a.6.6,0,0,0,.006,1.135l1.546.893a2.171,2.171,0,0,0,1.968,0l1.537-.887A.6.6,0,0,0,196.345,328.908Zm4.47,2.58-1.546-.893a2.171,2.171,0,0,0-1.968,0l-1.537.887a.6.6,0,0,0,.006,1.135l1.546.893a2.171,2.171,0,0,0,1.968,0l1.537-.887C201.363,332.312,201.36,331.8,200.815,331.488Zm-.575,3.709,1.546.893a2.17,2.17,0,0,0,1.968,0l1.537-.887a.6.6,0,0,0-.006-1.136l-1.546-.893a2.171,2.171,0,0,0-1.968,0l-1.537.887A.6.6,0,0,0,200.24,335.2Zm9.515,1.453-1.546-.893a2.171,2.171,0,0,0-1.968,0l-1.537.887a.6.6,0,0,0,.006,1.135l1.546.893a2.171,2.171,0,0,0,1.968,0l1.537-.887A.6.6,0,0,0,209.755,336.65Zm6.546,3.781-3.529-2.037a2.171,2.171,0,0,0-1.968,0l-1.537.887a.6.6,0,0,0,.006,1.135l3.529,2.037a2.171,2.171,0,0,0,1.968,0l1.537-.887A.6.6,0,0,0,216.3,340.431Zm-64.9-28.647,3.529,2.037a2.171,2.171,0,0,0,1.968,0l1.537-.887a.6.6,0,0,0-.006-1.135l-3.529-2.037a2.171,2.171,0,0,0-1.968,0l-1.537.887A.6.6,0,0,0,151.406,311.783Zm6.453,3.727,1.546.893a2.171,2.171,0,0,0,1.968,0l1.537-.887a.6.6,0,0,0-.006-1.135l-1.546-.893a2.171,2.171,0,0,0-1.968,0l-1.537.887C157.311,314.686,157.314,315.2,157.859,315.51Zm6.016,3.472a2.171,2.171,0,0,0,1.968,0l1.537-.887a.6.6,0,0,0-.006-1.135l-1.546-.893a2.171,2.171,0,0,0-1.968,0l-1.537.887a.6.6,0,0,0,.006,1.135Zm4.47,2.579a2.17,2.17,0,0,0,1.968,0l1.537-.887a.6.6,0,0,0-.006-1.136l-1.546-.893a2.171,2.171,0,0,0-1.968,0l-1.537.887a.6.6,0,0,0,.006,1.135Zm4.455-.336-1.537.887a.6.6,0,0,0,.006,1.135l1.546.893a2.171,2.171,0,0,0,1.968,0l1.537-.887a.6.6,0,0,0-.006-1.135l-1.546-.893A2.171,2.171,0,0,0,172.8,321.227Zm4.563,2.526-1.726.995c-.491.282-.488.743.006,1.028l1.735,1a1.971,1.971,0,0,0,1.78,0l1.726-.995c.491-.282.488-.743-.006-1.028l-1.735-1A1.97,1.97,0,0,0,177.363,323.752Zm4.47,2.58-1.726.995c-.491.282-.488.743.006,1.028l1.735,1a1.971,1.971,0,0,0,1.78,0l1.726-.995c.491-.282.488-.743-.006-1.028l-1.735-1A1.97,1.97,0,0,0,181.833,326.332Zm4.47,2.579-1.726.995c-.491.282-.488.743.006,1.028l1.735,1a1.971,1.971,0,0,0,1.78,0l1.726-.995c.491-.282.488-.743-.006-1.027l-1.735-1A1.97,1.97,0,0,0,186.3,328.911Zm4.47,2.579-1.726.995c-.491.281-.488.743.006,1.028l1.735,1a1.97,1.97,0,0,0,1.78,0l1.726-.995c.491-.282.488-.743-.006-1.028l-1.735-1A1.971,1.971,0,0,0,190.773,331.491Zm4.47,2.579-1.726.995c-.491.282-.488.743.006,1.028l1.735,1a1.97,1.97,0,0,0,1.78,0l1.726-.995c.491-.282.488-.743-.006-1.028l-1.735-1A1.97,1.97,0,0,0,195.243,334.07Zm6.265,5.608,1.726-.995c.491-.282.488-.743-.006-1.028l-1.735-1a1.971,1.971,0,0,0-1.78,0l-1.726.995c-.491.282-.488.743.006,1.028l1.735,1A1.97,1.97,0,0,0,201.507,339.679Zm4.47,2.579,1.726-.995c.491-.282.488-.743-.006-1.028l-1.735-1a1.971,1.971,0,0,0-1.78,0l-1.726.995c-.491.282-.488.743.006,1.028l1.735,1A1.97,1.97,0,0,0,205.977,342.258Zm6.283.611-1.735-1a1.97,1.97,0,0,0-1.78,0l-1.726.995c-.491.282-.488.743.006,1.028l1.735,1a1.971,1.971,0,0,0,1.78,0l1.726-.995C212.757,343.615,212.754,343.154,212.26,342.869Zm-65.084-28.755,5.605,3.236a1.97,1.97,0,0,0,1.78,0l1.726-.995c.491-.282.488-.743-.006-1.028l-5.6-3.236a1.971,1.971,0,0,0-1.78,0l-1.726.995c-.491.282-.488.743.006,1.028Zm8.338,4.815,1.735,1a1.97,1.97,0,0,0,1.78,0l1.726-.995c.491-.282.488-.743-.006-1.028l-1.735-1a1.97,1.97,0,0,0-1.78,0l-1.726.995C155.016,318.183,155.019,318.644,155.513,318.929Zm4.47,2.579,1.735,1a1.97,1.97,0,0,0,1.78,0l1.726-.995c.491-.282.488-.743-.006-1.028l-1.735-1a1.971,1.971,0,0,0-1.78,0l-1.726.995C159.486,320.762,159.489,321.223,159.983,321.508Zm4.47,2.58,1.735,1a1.971,1.971,0,0,0,1.78,0l1.726-.995c.491-.282.488-.743-.006-1.028l-1.735-1a1.971,1.971,0,0,0-1.78,0l-1.726.995C163.956,323.342,163.959,323.8,164.453,324.088Zm7.984,3.586,1.726-.995c.491-.282.488-.743-.006-1.028l-1.735-1a1.971,1.971,0,0,0-1.78,0l-1.726.995c-.491.282-.488.743.006,1.028l1.735,1A1.97,1.97,0,0,0,172.438,327.674Zm4.47,2.579,1.726-.995c.491-.282.488-.743-.006-1.028l-1.735-1a1.971,1.971,0,0,0-1.78,0l-1.726.995c-.491.282-.488.743.006,1.028l1.735,1A1.97,1.97,0,0,0,176.908,330.253Zm4.47,2.58,1.726-.995c.491-.282.488-.743-.006-1.028l-1.735-1a1.971,1.971,0,0,0-1.78,0l-1.726.995c-.491.282-.488.743.006,1.028l1.735,1A1.971,1.971,0,0,0,181.378,332.833Zm4.47,2.579,1.726-.995c.491-.282.488-.743-.006-1.028l-1.735-1a1.971,1.971,0,0,0-1.78,0l-1.726.995c-.491.282-.488.743.006,1.028l1.735,1A1.97,1.97,0,0,0,185.847,335.412Zm4.47,2.58,1.726-.995c.491-.282.488-.743-.006-1.028l-1.735-1a1.971,1.971,0,0,0-1.78,0l-1.726.995c-.491.282-.488.743.006,1.028l1.735,1A1.97,1.97,0,0,0,190.317,337.992Zm4.47,2.58,1.726-.995c.491-.282.488-.743-.006-1.028l-1.735-1a1.97,1.97,0,0,0-1.78,0l-1.726.995c-.491.282-.488.743.006,1.028l1.735,1A1.97,1.97,0,0,0,194.787,340.571Zm.953,1.576,1.735,1a1.97,1.97,0,0,0,1.78,0l1.726-.995c.491-.282.488-.743-.006-1.028l-1.735-1a1.971,1.971,0,0,0-1.78,0l-1.726.995C195.243,341.4,195.246,341.863,195.74,342.147Zm12.382,3.11-4.413-2.549a1.971,1.971,0,0,0-1.78,0l-1.726.995c-.491.282-.488.743.006,1.028l4.413,2.55a1.971,1.971,0,0,0,1.78,0l1.726-.995C208.62,346,208.617,345.542,208.122,345.257Zm-65.069-28.632,7.951,4.59a2.222,2.222,0,0,0,2.01,0l1.495-.863a.612.612,0,0,0-.006-1.159l-7.951-4.59a2.221,2.221,0,0,0-2.01,0l-1.495.863a.612.612,0,0,0,.006,1.159Zm10.917,6.3,1.5.869a2.221,2.221,0,0,0,2.01,0l1.495-.863a.612.612,0,0,0-.006-1.159l-1.5-.869a2.222,2.222,0,0,0-2.01,0l-1.5.863A.612.612,0,0,0,153.971,322.928Zm4.47,2.58,1.5.869a2.221,2.221,0,0,0,2.01,0l1.495-.863a.612.612,0,0,0-.006-1.159l-1.5-.869a2.221,2.221,0,0,0-2.01,0l-1.495.863A.612.612,0,0,0,158.441,325.508Zm4.47,2.579,1.5.869a2.221,2.221,0,0,0,2.01,0l1.495-.863a.612.612,0,0,0-.006-1.159l-1.5-.869a2.222,2.222,0,0,0-2.01,0l-1.495.863A.612.612,0,0,0,162.91,328.087Zm4.47,2.58,1.5.869a2.221,2.221,0,0,0,2.01,0l1.5-.863a.612.612,0,0,0-.006-1.16l-1.5-.869a2.221,2.221,0,0,0-2.01,0l-1.5.863A.612.612,0,0,0,167.38,330.667Zm4.47,2.579,1.5.869a2.221,2.221,0,0,0,2.01,0l1.5-.863a.612.612,0,0,0-.006-1.16l-1.5-.869a2.221,2.221,0,0,0-2.01,0l-1.495.863a.612.612,0,0,0,.006,1.159Zm4.47,2.58,1.5.869a2.221,2.221,0,0,0,2.01,0l1.495-.863a.612.612,0,0,0-.006-1.159l-1.5-.869a2.221,2.221,0,0,0-2.01,0l-1.495.863A.612.612,0,0,0,176.32,335.826Zm4.47,2.579,1.5.869a2.221,2.221,0,0,0,2.01,0l1.495-.863a.612.612,0,0,0-.006-1.16l-1.5-.869a2.221,2.221,0,0,0-2.01,0l-1.5.863A.612.612,0,0,0,180.79,338.405Zm4.47,2.579,1.5.869a2.221,2.221,0,0,0,2.01,0l1.495-.863a.612.612,0,0,0-.006-1.159l-1.5-.869a2.221,2.221,0,0,0-2.01,0l-1.495.863A.612.612,0,0,0,185.26,340.985Zm4.47,2.58,1.5.869a2.222,2.222,0,0,0,2.01,0l1.495-.863a.612.612,0,0,0-.006-1.159l-1.5-.869a2.221,2.221,0,0,0-2.01,0l-1.495.863A.612.612,0,0,0,189.73,343.564Zm4.47,2.579,1.5.869a2.221,2.221,0,0,0,2.01,0l1.5-.863a.612.612,0,0,0-.006-1.159l-1.5-.869a2.221,2.221,0,0,0-2.01,0l-1.495.863A.612.612,0,0,0,194.2,346.144Zm9.572,1.486-1.5-.869a2.222,2.222,0,0,0-2.01,0l-1.495.863a.612.612,0,0,0,.006,1.159l1.5.869a2.221,2.221,0,0,0,2.01,0l1.495-.863A.612.612,0,0,0,203.772,347.63ZM145.905,319l-3.487-2.013a2.222,2.222,0,0,0-2.01,0l-1.495.863a.611.611,0,0,0,.006,1.159l3.487,2.013a2.221,2.221,0,0,0,2.01,0l1.495-.863A.612.612,0,0,0,145.905,319Zm4.47,2.579-1.5-.869a2.222,2.222,0,0,0-2.01,0l-1.495.863a.612.612,0,0,0,.006,1.159l1.5.869a2.221,2.221,0,0,0,2.01,0l1.5-.863A.612.612,0,0,0,150.375,321.58Zm4.47,2.579-1.5-.869a2.221,2.221,0,0,0-2.01,0l-1.495.863a.612.612,0,0,0,.006,1.159l1.5.869a2.221,2.221,0,0,0,2.01,0l1.5-.863A.612.612,0,0,0,154.845,324.159Zm31.287,18.063L157.811,325.87a2.221,2.221,0,0,0-2.01,0l-1.495.863a.612.612,0,0,0,.006,1.159l28.321,16.352a2.221,2.221,0,0,0,2.01,0l1.495-.863A.612.612,0,0,0,186.132,342.222Zm4.47,2.579-1.5-.869a2.222,2.222,0,0,0-2.01,0l-1.495.863a.612.612,0,0,0,.006,1.159l1.5.869a2.222,2.222,0,0,0,2.01,0l1.495-.863A.611.611,0,0,0,190.6,344.8Zm4.47,2.579-1.5-.869a2.221,2.221,0,0,0-2.01,0l-1.495.863a.612.612,0,0,0,.006,1.159l1.5.869a2.221,2.221,0,0,0,2.01,0l1.5-.863A.612.612,0,0,0,195.072,347.381Zm4.563,2.634-1.5-.869a2.221,2.221,0,0,0-2.01,0l-1.495.863a.612.612,0,0,0,.006,1.16l1.5.869a2.221,2.221,0,0,0,2.01,0l1.495-.863A.612.612,0,0,0,199.635,350.015Z" transform="translate(-107.438 -231.041)" fill="#7cbac4" opacity="0.8"/>
            <path id="Trazado_193850" data-name="Trazado 193850" d="M159.555,305.568l3.769,2.175a1.916,1.916,0,0,0,1.732,0,.526.526,0,0,0-.006-1l-3.769-2.175a1.916,1.916,0,0,0-1.732,0A.526.526,0,0,0,159.555,305.568Zm6.453,3.727,1.786,1.031a1.917,1.917,0,0,0,1.732,0,.526.526,0,0,0-.006-1l-1.786-1.031a1.917,1.917,0,0,0-1.732,0A.526.526,0,0,0,166.008,309.295Zm4.47,2.579,1.786,1.031a1.917,1.917,0,0,0,1.732,0,.526.526,0,0,0-.006-1L172.2,310.88a1.917,1.917,0,0,0-1.732,0A.526.526,0,0,0,170.478,311.874Zm4.47,2.58,1.786,1.031a1.917,1.917,0,0,0,1.732,0,.526.526,0,0,0-.006-1l-1.786-1.031a1.917,1.917,0,0,0-1.732,0A.526.526,0,0,0,174.948,314.454Zm4.47,2.579,1.786,1.031a1.917,1.917,0,0,0,1.732,0,.526.526,0,0,0-.006-1l-1.786-1.031a1.917,1.917,0,0,0-1.732,0A.526.526,0,0,0,179.418,317.033Zm4.47,2.58,1.786,1.031a1.917,1.917,0,0,0,1.732,0,.526.526,0,0,0-.006-1l-1.786-1.031a1.917,1.917,0,0,0-1.732,0A.526.526,0,0,0,183.888,319.613Zm4.47,2.579,1.786,1.031a1.917,1.917,0,0,0,1.732,0,.526.526,0,0,0-.006-1l-1.786-1.031a1.917,1.917,0,0,0-1.732,0A.526.526,0,0,0,188.358,322.192Zm4.47,2.58,1.786,1.031a1.916,1.916,0,0,0,1.732,0,.526.526,0,0,0-.006-1l-1.786-1.031a1.916,1.916,0,0,0-1.732,0A.526.526,0,0,0,192.828,324.772Zm4.47,2.58,1.786,1.031a1.917,1.917,0,0,0,1.732,0,.526.526,0,0,0-.006-1l-1.786-1.031a1.916,1.916,0,0,0-1.732,0A.526.526,0,0,0,197.3,327.351Zm4.47,2.579,1.786,1.031a1.917,1.917,0,0,0,1.732,0,.526.526,0,0,0-.006-1l-1.786-1.031a1.917,1.917,0,0,0-1.732,0A.526.526,0,0,0,201.768,329.931Zm4.47,2.579,1.786,1.031a1.917,1.917,0,0,0,1.732,0,.526.526,0,0,0-.006-1l-1.786-1.031a1.917,1.917,0,0,0-1.732,0A.526.526,0,0,0,206.238,332.51Zm4.47,2.58,1.786,1.031a1.916,1.916,0,0,0,1.732,0,.526.526,0,0,0-.006-1l-1.786-1.031a1.917,1.917,0,0,0-1.732,0A.526.526,0,0,0,210.708,335.09Zm4.563,2.633,1.786,1.031a1.916,1.916,0,0,0,1.732,0,.526.526,0,0,0-.006-1L217,336.729a1.917,1.917,0,0,0-1.732,0A.526.526,0,0,0,215.271,337.723Zm-59.73-29.7,1.546.893a2.171,2.171,0,0,0,1.968,0l1.537-.887a.6.6,0,0,0-.006-1.136L159.04,306a2.171,2.171,0,0,0-1.968,0l-1.537.887A.6.6,0,0,0,155.54,308.018Zm7.984,3.475,1.537-.887a.6.6,0,0,0-.006-1.135l-1.546-.893a2.171,2.171,0,0,0-1.968,0l-1.537.887a.6.6,0,0,0,.006,1.135l1.546.893A2.171,2.171,0,0,0,163.525,311.494Zm.956,1.684,1.546.893a2.171,2.171,0,0,0,1.968,0l1.537-.887a.6.6,0,0,0-.006-1.135l-1.546-.893a2.171,2.171,0,0,0-1.968,0l-1.537.887A.6.6,0,0,0,164.48,313.178Zm4.47,2.579,1.546.893a2.171,2.171,0,0,0,1.968,0l1.537-.887a.6.6,0,0,0-.006-1.135l-1.546-.893a2.171,2.171,0,0,0-1.968,0l-1.537.887A.6.6,0,0,0,168.95,315.757Zm9.515,1.453-1.546-.893a2.171,2.171,0,0,0-1.968,0l-1.537.887a.6.6,0,0,0,.006,1.135l1.546.893a2.171,2.171,0,0,0,1.968,0l1.537-.887A.6.6,0,0,0,178.465,317.21Zm4.47,2.58-1.546-.893a2.171,2.171,0,0,0-1.968,0l-1.537.887a.6.6,0,0,0,.006,1.135l1.546.893a2.171,2.171,0,0,0,1.968,0l1.537-.887A.6.6,0,0,0,182.935,319.79Zm4.47,2.579-1.546-.893a2.17,2.17,0,0,0-1.968,0l-1.537.887a.6.6,0,0,0,.006,1.135l1.546.893a2.171,2.171,0,0,0,1.968,0l1.537-.887A.6.6,0,0,0,187.405,322.369Zm4.47,2.58-1.546-.893a2.171,2.171,0,0,0-1.968,0l-1.537.887a.6.6,0,0,0,.006,1.135l1.546.893a2.171,2.171,0,0,0,1.968,0l1.537-.887A.6.6,0,0,0,191.875,324.949Zm4.47,2.58-1.546-.893a2.171,2.171,0,0,0-1.968,0l-1.537.887a.6.6,0,0,0,.006,1.135l1.546.893a2.171,2.171,0,0,0,1.968,0l1.537-.887A.6.6,0,0,0,196.345,327.528Zm4.47,2.58-1.546-.893a2.171,2.171,0,0,0-1.968,0l-1.537.887a.6.6,0,0,0,.006,1.135l1.546.893a2.171,2.171,0,0,0,1.968,0l1.537-.887A.6.6,0,0,0,200.815,330.108Zm-.575,3.709,1.546.893a2.171,2.171,0,0,0,1.968,0l1.537-.887c.542-.311.539-.821-.006-1.135l-1.546-.893a2.17,2.17,0,0,0-1.968,0l-1.537.887C199.692,332.993,199.695,333.5,200.24,333.817Zm9.515,1.453-1.546-.893a2.171,2.171,0,0,0-1.968,0l-1.537.887a.6.6,0,0,0,.006,1.135l1.546.893a2.171,2.171,0,0,0,1.968,0l1.537-.887A.6.6,0,0,0,209.755,335.27Zm6.546,3.778-3.529-2.037a2.171,2.171,0,0,0-1.968,0l-1.537.887c-.542.312-.539.821.006,1.136l3.529,2.037a2.17,2.17,0,0,0,1.968,0l1.537-.887C216.85,339.871,216.847,339.362,216.3,339.047Zm-64.9-28.647,3.529,2.037a2.171,2.171,0,0,0,1.968,0l1.537-.887a.6.6,0,0,0-.006-1.135l-3.529-2.037a2.171,2.171,0,0,0-1.968,0l-1.537.887A.6.6,0,0,0,151.406,310.4Zm6.453,3.727,1.546.893a2.171,2.171,0,0,0,1.968,0l1.537-.887A.6.6,0,0,0,162.9,313l-1.546-.893a2.171,2.171,0,0,0-1.968,0l-1.537.887A.6.6,0,0,0,157.859,314.127Zm6.016,3.472a2.171,2.171,0,0,0,1.968,0l1.537-.887a.6.6,0,0,0-.006-1.135l-1.546-.893a2.171,2.171,0,0,0-1.968,0l-1.537.887a.6.6,0,0,0,.006,1.135Zm4.47,2.58a2.171,2.171,0,0,0,1.968,0l1.537-.887a.6.6,0,0,0-.006-1.135l-1.546-.893a2.17,2.17,0,0,0-1.968,0l-1.537.887c-.542.312-.539.821.006,1.136Zm4.455-.336-1.537.887a.6.6,0,0,0,.006,1.135l1.546.893a2.171,2.171,0,0,0,1.968,0l1.537-.887a.6.6,0,0,0-.006-1.135l-1.546-.893A2.171,2.171,0,0,0,172.8,319.844Zm4.563,2.525-1.726.995c-.491.282-.488.743.006,1.028l1.735,1a1.971,1.971,0,0,0,1.78,0l1.726-.995c.491-.282.488-.743-.006-1.028l-1.735-1A1.97,1.97,0,0,0,177.363,322.369Zm4.47,2.58-1.726.995c-.491.282-.488.743.006,1.028l1.735,1a1.971,1.971,0,0,0,1.78,0l1.726-.995c.491-.282.488-.743-.006-1.028l-1.735-1A1.971,1.971,0,0,0,181.833,324.949Zm4.47,2.58-1.726.995c-.491.282-.488.743.006,1.028l1.735,1a1.971,1.971,0,0,0,1.78,0l1.726-.995c.491-.282.488-.743-.006-1.028l-1.735-1A1.97,1.97,0,0,0,186.3,327.528Zm4.47,2.579-1.726.995c-.491.282-.488.743.006,1.028l1.735,1a1.971,1.971,0,0,0,1.78,0l1.726-.995c.491-.282.488-.743-.006-1.028l-1.735-1A1.971,1.971,0,0,0,190.773,330.108Zm4.47,2.579-1.726.995c-.491.282-.488.743.006,1.028l1.735,1a1.971,1.971,0,0,0,1.78,0l1.726-.995c.491-.282.488-.743-.006-1.028l-1.735-1A1.971,1.971,0,0,0,195.243,332.687Zm6.265,5.608,1.726-.995c.491-.282.488-.743-.006-1.028l-1.735-1a1.971,1.971,0,0,0-1.78,0l-1.726.995c-.491.282-.488.743.006,1.028l1.735,1A1.971,1.971,0,0,0,201.507,338.3Zm4.47,2.579,1.726-.995c.491-.282.488-.743-.006-1.028l-1.735-1a1.97,1.97,0,0,0-1.78,0l-1.726.995c-.491.282-.488.743.006,1.027l1.735,1A1.97,1.97,0,0,0,205.977,340.875Zm6.283.611-1.735-1a1.97,1.97,0,0,0-1.78,0l-1.726.995c-.491.282-.488.743.006,1.028l1.735,1a1.971,1.971,0,0,0,1.78,0l1.726-.995C212.757,342.232,212.754,341.771,212.26,341.486Zm-65.084-28.755,5.605,3.236a1.971,1.971,0,0,0,1.78,0l1.726-.995c.491-.282.488-.743-.006-1.028l-5.6-3.236a1.97,1.97,0,0,0-1.78,0l-1.726.995c-.491.282-.488.743.006,1.028Zm8.338,4.815,1.735,1a1.97,1.97,0,0,0,1.78,0l1.726-.995c.491-.282.488-.743-.006-1.028l-1.735-1a1.971,1.971,0,0,0-1.78,0l-1.726.995C155.016,316.8,155.019,317.261,155.513,317.546Zm4.47,2.579,1.735,1a1.971,1.971,0,0,0,1.78,0l1.726-.995c.491-.282.488-.743-.006-1.028l-1.735-1a1.97,1.97,0,0,0-1.78,0l-1.726.995C159.486,319.379,159.489,319.84,159.983,320.125Zm4.47,2.58,1.735,1a1.971,1.971,0,0,0,1.78,0l1.726-.995c.491-.282.488-.743-.006-1.028l-1.735-1a1.971,1.971,0,0,0-1.78,0l-1.726.995C163.956,321.959,163.959,322.42,164.453,322.7Zm7.984,3.586,1.726-.995c.491-.282.488-.743-.006-1.028l-1.735-1a1.97,1.97,0,0,0-1.78,0l-1.726.995c-.491.282-.488.743.006,1.028l1.735,1A1.971,1.971,0,0,0,172.438,326.291Zm4.47,2.579,1.726-.995c.491-.282.488-.743-.006-1.028l-1.735-1a1.97,1.97,0,0,0-1.78,0l-1.726.995c-.491.282-.488.743.006,1.028l1.735,1A1.971,1.971,0,0,0,176.908,328.87Zm4.47,2.58,1.726-.995c.491-.282.488-.743-.006-1.028l-1.735-1a1.97,1.97,0,0,0-1.78,0l-1.726.995c-.491.282-.488.743.006,1.028l1.735,1A1.971,1.971,0,0,0,181.378,331.45Zm4.47,2.579,1.726-.995c.491-.282.488-.743-.006-1.028l-1.735-1a1.971,1.971,0,0,0-1.78,0l-1.726.995c-.491.282-.488.743.006,1.028l1.735,1A1.971,1.971,0,0,0,185.847,334.029Zm4.47,2.579,1.726-.995c.491-.282.488-.743-.006-1.028l-1.735-1a1.971,1.971,0,0,0-1.78,0l-1.726.995c-.491.282-.488.743.006,1.028l1.735,1A1.971,1.971,0,0,0,190.317,336.609Zm4.47,2.58,1.726-.995c.491-.282.488-.743-.006-1.028l-1.735-1a1.97,1.97,0,0,0-1.78,0l-1.726.995c-.491.282-.488.743.006,1.028l1.735,1A1.97,1.97,0,0,0,194.787,339.188Zm.953,1.576,1.735,1a1.97,1.97,0,0,0,1.78,0l1.726-.995c.491-.282.488-.743-.006-1.027l-1.735-1a1.97,1.97,0,0,0-1.78,0l-1.726.995C195.243,340.018,195.246,340.48,195.74,340.764Zm12.382,3.11-4.413-2.55a1.971,1.971,0,0,0-1.78,0l-1.726.995c-.491.282-.488.743.006,1.028l4.413,2.55a1.971,1.971,0,0,0,1.78,0l1.726-.995C208.62,344.62,208.617,344.159,208.122,343.874Zm-65.069-28.632,7.951,4.59a2.221,2.221,0,0,0,2.01,0l1.495-.863a.612.612,0,0,0-.006-1.159l-7.951-4.59a2.221,2.221,0,0,0-2.01,0l-1.495.863a.612.612,0,0,0,.006,1.159Zm10.917,6.3,1.5.869a2.222,2.222,0,0,0,2.01,0l1.495-.863a.612.612,0,0,0-.006-1.159l-1.5-.869a2.221,2.221,0,0,0-2.01,0l-1.5.863A.612.612,0,0,0,153.971,321.545Zm4.47,2.579,1.5.869a2.222,2.222,0,0,0,2.01,0l1.495-.863a.612.612,0,0,0-.006-1.159l-1.5-.869a2.221,2.221,0,0,0-2.01,0l-1.495.863A.612.612,0,0,0,158.441,324.125Zm4.47,2.579,1.5.869a2.221,2.221,0,0,0,2.01,0l1.495-.863a.611.611,0,0,0-.006-1.159l-1.5-.869a2.222,2.222,0,0,0-2.01,0l-1.495.863A.611.611,0,0,0,162.91,326.7Zm4.47,2.58,1.5.869a2.221,2.221,0,0,0,2.01,0l1.5-.863a.612.612,0,0,0-.006-1.159l-1.5-.869a2.221,2.221,0,0,0-2.01,0l-1.5.863A.612.612,0,0,0,167.38,329.284Zm4.47,2.58,1.5.869a2.221,2.221,0,0,0,2.01,0l1.5-.863a.612.612,0,0,0-.006-1.159l-1.5-.869a2.222,2.222,0,0,0-2.01,0l-1.495.863a.612.612,0,0,0,.006,1.159Zm4.47,2.58,1.5.869a2.221,2.221,0,0,0,2.01,0l1.495-.863a.612.612,0,0,0-.006-1.16l-1.5-.869a2.222,2.222,0,0,0-2.01,0l-1.495.863A.612.612,0,0,0,176.32,334.443Zm4.47,2.579,1.5.869a2.221,2.221,0,0,0,2.01,0l1.495-.863a.611.611,0,0,0-.006-1.159l-1.5-.869a2.222,2.222,0,0,0-2.01,0l-1.5.863A.612.612,0,0,0,180.79,337.022Zm4.47,2.58,1.5.869a2.221,2.221,0,0,0,2.01,0l1.495-.863a.612.612,0,0,0-.006-1.159l-1.5-.869a2.221,2.221,0,0,0-2.01,0l-1.495.863A.612.612,0,0,0,185.26,339.6Zm4.47,2.579,1.5.869a2.221,2.221,0,0,0,2.01,0l1.495-.863a.612.612,0,0,0-.006-1.159l-1.5-.869a2.221,2.221,0,0,0-2.01,0l-1.495.863A.612.612,0,0,0,189.73,342.181Zm4.47,2.58,1.5.869a2.221,2.221,0,0,0,2.01,0l1.5-.863a.612.612,0,0,0-.006-1.159l-1.5-.869a2.221,2.221,0,0,0-2.01,0l-1.495.863A.612.612,0,0,0,194.2,344.761Zm9.572,1.486-1.5-.869a2.221,2.221,0,0,0-2.01,0l-1.495.863a.612.612,0,0,0,.006,1.159l1.5.869a2.221,2.221,0,0,0,2.01,0l1.495-.863A.612.612,0,0,0,203.772,346.247Zm-57.867-28.629-3.487-2.013a2.221,2.221,0,0,0-2.01,0l-1.495.863a.612.612,0,0,0,.006,1.16l3.487,2.013a2.221,2.221,0,0,0,2.01,0l1.495-.863A.612.612,0,0,0,145.905,317.617Zm4.47,2.579-1.5-.869a2.221,2.221,0,0,0-2.01,0l-1.495.863a.612.612,0,0,0,.006,1.159l1.5.869a2.222,2.222,0,0,0,2.01,0l1.5-.863A.612.612,0,0,0,150.375,320.2Zm4.47,2.58-1.5-.869a2.221,2.221,0,0,0-2.01,0l-1.495.863a.612.612,0,0,0,.006,1.159l1.5.869a2.221,2.221,0,0,0,2.01,0l1.5-.863A.612.612,0,0,0,154.845,322.776Zm31.287,18.063-28.321-16.352a2.222,2.222,0,0,0-2.01,0l-1.495.863a.612.612,0,0,0,.006,1.159l28.321,16.352a2.222,2.222,0,0,0,2.01,0l1.495-.863A.612.612,0,0,0,186.132,340.839Zm4.47,2.579-1.5-.869a2.221,2.221,0,0,0-2.01,0l-1.495.863a.612.612,0,0,0,.006,1.159l1.5.869a2.222,2.222,0,0,0,2.01,0l1.495-.863A.612.612,0,0,0,190.6,343.419Zm4.47,2.58-1.5-.869a2.221,2.221,0,0,0-2.01,0l-1.495.863a.612.612,0,0,0,.006,1.159l1.5.869a2.221,2.221,0,0,0,2.01,0l1.5-.863A.612.612,0,0,0,195.072,346Zm4.563,2.633-1.5-.869a2.221,2.221,0,0,0-2.01,0l-1.495.863a.612.612,0,0,0,.006,1.159l1.5.869a2.221,2.221,0,0,0,2.01,0l1.495-.863A.612.612,0,0,0,199.635,348.631Z" transform="translate(-107.438 -230.075)" fill="url(#linear-gradient)"/>
            <g id="Grupo_141382" data-name="Grupo 141382" transform="translate(31.046 74.9)">
              <path id="Trazado_193851" data-name="Trazado 193851" d="M218.954,377.444l1.5.869a2.221,2.221,0,0,0,2.01,0l1.495-.863a.651.651,0,0,0,.4-.665.74.74,0,0,1-.4.485l-1.495.863a2.221,2.221,0,0,1-2.01,0l-1.5-.869a.756.756,0,0,1-.4-.494A.659.659,0,0,0,218.954,377.444Z" transform="translate(-194.546 -355.687)" fill="#fff"/>
              <path id="Trazado_193852" data-name="Trazado 193852" d="M233.874,386.054l1.5.869a2.221,2.221,0,0,0,2.01,0l1.5-.863a.651.651,0,0,0,.4-.665.74.74,0,0,1-.4.485l-1.5.863a2.222,2.222,0,0,1-2.01,0l-1.5-.869a.755.755,0,0,1-.4-.494A.659.659,0,0,0,233.874,386.054Z" transform="translate(-204.996 -361.718)" fill="#fff"/>
              <path id="Trazado_193853" data-name="Trazado 193853" d="M248.794,394.657l1.5.869a2.221,2.221,0,0,0,2.01,0l1.5-.863a.652.652,0,0,0,.4-.668.74.74,0,0,1-.4.485l-1.5.863a2.221,2.221,0,0,1-2.01,0l-1.5-.869a.755.755,0,0,1-.4-.494.659.659,0,0,0,.4.674Z" transform="translate(-215.446 -367.741)" fill="#fff"/>
              <path id="Trazado_193854" data-name="Trazado 193854" d="M274.562,389.488a.668.668,0,0,1-.35.419l-1.726.995a1.971,1.971,0,0,1-1.78,0l-1.735-1a.683.683,0,0,1-.357-.428.579.579,0,0,0,.357.608l1.735,1a1.971,1.971,0,0,0,1.78,0l1.726-.995A.571.571,0,0,0,274.562,389.488Z" transform="translate(-229.612 -364.583)" fill="#fff"/>
              <path id="Trazado_193855" data-name="Trazado 193855" d="M224.212,364.238l1.735,1a1.971,1.971,0,0,0,1.78,0l1.726-.995a.571.571,0,0,0,.351-.6.668.668,0,0,1-.351.419l-1.726.995a1.971,1.971,0,0,1-1.78,0l-1.735-1a.683.683,0,0,1-.357-.428A.579.579,0,0,0,224.212,364.238Z" transform="translate(-198.261 -346.484)" fill="#fff"/>
              <path id="Trazado_193856" data-name="Trazado 193856" d="M239.132,372.848l1.735,1a1.97,1.97,0,0,0,1.78,0l1.726-.995a.57.57,0,0,0,.35-.6.668.668,0,0,1-.35.419l-1.726.995a1.97,1.97,0,0,1-1.78,0l-1.735-1a.683.683,0,0,1-.356-.428A.579.579,0,0,0,239.132,372.848Z" transform="translate(-208.712 -352.515)" fill="#fff"/>
              <path id="Trazado_193857" data-name="Trazado 193857" d="M259.642,380.868a.668.668,0,0,1-.351.419l-1.726.995a1.97,1.97,0,0,1-1.78,0l-1.735-1a.683.683,0,0,1-.357-.428.579.579,0,0,0,.357.608l1.735,1a1.97,1.97,0,0,0,1.78,0l1.726-.995A.571.571,0,0,0,259.642,380.868Z" transform="translate(-219.162 -358.545)" fill="#fff"/>
              <path id="Trazado_193858" data-name="Trazado 193858" d="M263.7,403.284l1.5.869a2.221,2.221,0,0,0,2.01,0l1.495-.863a.65.65,0,0,0,.4-.665.739.739,0,0,1-.4.485l-1.495.863a2.221,2.221,0,0,1-2.01,0l-1.5-.869a.756.756,0,0,1-.4-.494A.659.659,0,0,0,263.7,403.284Z" transform="translate(-225.89 -373.786)" fill="#fff"/>
              <path id="Trazado_193859" data-name="Trazado 193859" d="M289.483,398.1a.668.668,0,0,1-.351.419l-1.726.995a1.971,1.971,0,0,1-1.78,0l-1.735-1a.684.684,0,0,1-.357-.429.579.579,0,0,0,.357.608l1.735,1a1.97,1.97,0,0,0,1.78,0l1.726-.995A.571.571,0,0,0,289.483,398.1Z" transform="translate(-240.062 -370.613)" fill="#fff"/>
              <path id="Trazado_193860" data-name="Trazado 193860" d="M297.058,421.376l1.495-.863a.65.65,0,0,0,.4-.665.74.74,0,0,1-.4.485l-1.495.863a2.222,2.222,0,0,1-2.01,0l-1.5-.869a.755.755,0,0,1-.4-.494.659.659,0,0,0,.4.674l1.5.869A2.221,2.221,0,0,0,297.058,421.376Z" transform="translate(-246.79 -385.847)" fill="#fff"/>
              <path id="Trazado_193861" data-name="Trazado 193861" d="M319.313,415.328a.668.668,0,0,1-.35.419l-1.726.995a1.97,1.97,0,0,1-1.78,0l-1.735-1a.684.684,0,0,1-.357-.428.579.579,0,0,0,.357.608l1.735,1a1.97,1.97,0,0,0,1.78,0l1.726-.995A.571.571,0,0,0,319.313,415.328Z" transform="translate(-260.955 -382.681)" fill="#fff"/>
              <path id="Trazado_193862" data-name="Trazado 193862" d="M204.034,368.824l1.5.869a2.222,2.222,0,0,0,2.01,0l1.495-.863a.651.651,0,0,0,.4-.665.74.74,0,0,1-.4.485l-1.495.863a2.222,2.222,0,0,1-2.01,0l-1.5-.869a.755.755,0,0,1-.4-.494A.659.659,0,0,0,204.034,368.824Z" transform="translate(-184.096 -349.65)" fill="#fff"/>
              <path id="Trazado_193863" data-name="Trazado 193863" d="M209.292,355.618l1.735,1a1.97,1.97,0,0,0,1.78,0l1.726-.995a.571.571,0,0,0,.351-.6.668.668,0,0,1-.351.419l-1.726.995a1.971,1.971,0,0,1-1.78,0l-1.735-1a.683.683,0,0,1-.357-.428A.579.579,0,0,0,209.292,355.618Z" transform="translate(-187.811 -340.447)" fill="#fff"/>
              <path id="Trazado_193864" data-name="Trazado 193864" d="M278.624,411.894l1.5.869a2.221,2.221,0,0,0,2.01,0l1.5-.863a.65.65,0,0,0,.4-.665.74.74,0,0,1-.4.485l-1.5.863a2.221,2.221,0,0,1-2.01,0l-1.5-.869a.755.755,0,0,1-.4-.494A.659.659,0,0,0,278.624,411.894Z" transform="translate(-236.34 -379.816)" fill="#fff"/>
              <path id="Trazado_193865" data-name="Trazado 193865" d="M304.4,406.708a.668.668,0,0,1-.351.419l-1.726.995a1.971,1.971,0,0,1-1.78,0l-1.735-1a.683.683,0,0,1-.356-.428.579.579,0,0,0,.356.608l1.735,1a1.961,1.961,0,0,0,1.78,0l1.726-.995A.571.571,0,0,0,304.4,406.708Z" transform="translate(-250.512 -376.643)" fill="#fff"/>
              <path id="Trazado_193866" data-name="Trazado 193866" d="M217.055,344.072l1.546.893a2.171,2.171,0,0,0,1.968,0l1.537-.887a.637.637,0,0,0,.389-.656.735.735,0,0,1-.389.476l-1.537.887a2.18,2.18,0,0,1-1.968,0l-1.546-.893a.739.739,0,0,1-.4-.482A.644.644,0,0,0,217.055,344.072Z" transform="translate(-193.222 -332.322)" fill="#fff"/>
              <path id="Trazado_193867" data-name="Trazado 193867" d="M274.056,357.941l-1.537.887a2.18,2.18,0,0,1-1.968,0L269,357.932a.739.739,0,0,1-.4-.482.644.644,0,0,0,.4.662l1.546.893a2.17,2.17,0,0,0,1.968,0l1.537-.887a.637.637,0,0,0,.389-.656A.735.735,0,0,1,274.056,357.941Z" transform="translate(-229.608 -342.156)" fill="#fff"/>
              <path id="Trazado_193868" data-name="Trazado 193868" d="M341.762,412.328a.668.668,0,0,1-.351.419l-1.726.995a1.97,1.97,0,0,1-1.78,0l-1.735-1a.682.682,0,0,1-.357-.428.579.579,0,0,0,.357.608l1.735,1a1.971,1.971,0,0,0,1.78,0l1.726-.995A.571.571,0,0,0,341.762,412.328Z" transform="translate(-276.679 -380.58)" fill="#fff"/>
              <path id="Trazado_193869" data-name="Trazado 193869" d="M311.572,395.527l-1.726.995a1.971,1.971,0,0,1-1.78,0l-1.735-1a.684.684,0,0,1-.357-.429.579.579,0,0,0,.357.608l1.735,1a1.971,1.971,0,0,0,1.78,0l1.726-.995a.571.571,0,0,0,.351-.6.668.668,0,0,1-.351.419Z" transform="translate(-255.779 -368.519)" fill="#fff"/>
              <path id="Trazado_193870" data-name="Trazado 193870" d="M259.136,349.321l-1.537.887a2.18,2.18,0,0,1-1.968,0l-1.546-.893a.739.739,0,0,1-.4-.482.644.644,0,0,0,.4.662l1.546.893a2.171,2.171,0,0,0,1.968,0l1.537-.887a.637.637,0,0,0,.389-.656A.734.734,0,0,1,259.136,349.321Z" transform="translate(-219.158 -336.118)" fill="#fff"/>
              <path id="Trazado_193871" data-name="Trazado 193871" d="M303.9,375.161l-1.537.887a2.18,2.18,0,0,1-1.968,0l-1.546-.893a.739.739,0,0,1-.4-.482.644.644,0,0,0,.4.662l1.546.893a2.171,2.171,0,0,0,1.968,0l1.537-.887a.637.637,0,0,0,.389-.656A.735.735,0,0,1,303.9,375.161Z" transform="translate(-250.508 -354.217)" fill="#fff"/>
              <path id="Trazado_193872" data-name="Trazado 193872" d="M318.806,383.781l-1.537.887a2.18,2.18,0,0,1-1.968,0l-1.546-.893a.739.739,0,0,1-.4-.482.644.644,0,0,0,.4.662l1.546.893a2.171,2.171,0,0,0,1.968,0l1.537-.887a.637.637,0,0,0,.389-.656A.735.735,0,0,1,318.806,383.781Z" transform="translate(-260.951 -360.254)" fill="#fff"/>
              <path id="Trazado_193873" data-name="Trazado 193873" d="M209.335,323.662l1.546.893a2.171,2.171,0,0,0,1.968,0l1.537-.887a.637.637,0,0,0,.389-.656.734.734,0,0,1-.389.476l-1.537.887a2.18,2.18,0,0,1-1.968,0l-1.546-.893a.739.739,0,0,1-.4-.482A.644.644,0,0,0,209.335,323.662Z" transform="translate(-187.815 -318.027)" fill="#fff"/>
              <path id="Trazado_193874" data-name="Trazado 193874" d="M229.3,332.1l-1.537.887a2.18,2.18,0,0,1-1.968,0l-1.546-.893a.739.739,0,0,1-.4-.482.644.644,0,0,0,.4.662l1.546.893a2.171,2.171,0,0,0,1.968,0l1.537-.887a.637.637,0,0,0,.39-.656A.735.735,0,0,1,229.3,332.1Z" transform="translate(-198.258 -324.057)" fill="#fff"/>
              <path id="Trazado_193875" data-name="Trazado 193875" d="M244.216,340.711l-1.537.887a2.18,2.18,0,0,1-1.968,0l-1.546-.893a.739.739,0,0,1-.4-.482.644.644,0,0,0,.4.662l1.546.893a2.171,2.171,0,0,0,1.968,0l1.537-.887a.637.637,0,0,0,.389-.656A.735.735,0,0,1,244.216,340.711Z" transform="translate(-208.708 -330.088)" fill="#fff"/>
              <path id="Trazado_193876" data-name="Trazado 193876" d="M288.976,366.551l-1.537.887a2.18,2.18,0,0,1-1.968,0l-1.546-.893a.739.739,0,0,1-.4-.482.644.644,0,0,0,.4.662l1.546.893a2.17,2.17,0,0,0,1.968,0l1.537-.887a.636.636,0,0,0,.389-.653.735.735,0,0,1-.389.476Z" transform="translate(-240.058 -348.186)" fill="#fff"/>
              <path id="Trazado_193877" data-name="Trazado 193877" d="M281.742,378.29l-1.726.995a1.971,1.971,0,0,1-1.78,0l-1.735-1a.684.684,0,0,1-.357-.428.579.579,0,0,0,.357.608l1.735,1a1.97,1.97,0,0,0,1.78,0l1.726-.995a.571.571,0,0,0,.351-.6.668.668,0,0,1-.351.42Z" transform="translate(-234.886 -356.444)" fill="#fff"/>
              <path id="Trazado_193878" data-name="Trazado 193878" d="M251.936,361.131l-1.537.887a2.18,2.18,0,0,1-1.968,0l-1.546-.893a.739.739,0,0,1-.4-.482.644.644,0,0,0,.4.662l1.546.893a2.171,2.171,0,0,0,1.968,0l1.537-.887a.637.637,0,0,0,.39-.656A.735.735,0,0,1,251.936,361.131Z" transform="translate(-214.115 -344.39)" fill="#fff"/>
              <path id="Trazado_193879" data-name="Trazado 193879" d="M266.822,369.687l-1.726.995a1.971,1.971,0,0,1-1.78,0l-1.735-1a.684.684,0,0,1-.356-.429.579.579,0,0,0,.356.608l1.735,1a1.971,1.971,0,0,0,1.78,0l1.726-.995a.571.571,0,0,0,.351-.6A.668.668,0,0,1,266.822,369.687Z" transform="translate(-224.436 -350.42)" fill="#fff"/>
              <path id="Trazado_193880" data-name="Trazado 193880" d="M296.652,386.907l-1.726.995a1.971,1.971,0,0,1-1.78,0l-1.735-1a.683.683,0,0,1-.357-.428.579.579,0,0,0,.357.608l1.735,1a1.97,1.97,0,0,0,1.78,0l1.726-.995a.571.571,0,0,0,.351-.6.668.668,0,0,1-.351.419Z" transform="translate(-245.329 -362.481)" fill="#fff"/>
              <path id="Trazado_193881" data-name="Trazado 193881" d="M313.872,428.458a.74.74,0,0,1-.4.485l-1.495.863a2.221,2.221,0,0,1-2.01,0l-1.5-.869a.755.755,0,0,1-.4-.494.659.659,0,0,0,.4.674l1.5.869a2.221,2.221,0,0,0,2.01,0l1.495-.863A.651.651,0,0,0,313.872,428.458Z" transform="translate(-257.24 -391.877)" fill="#fff"/>
              <path id="Trazado_193882" data-name="Trazado 193882" d="M348.646,401l-1.537.887a2.18,2.18,0,0,1-1.968,0l-1.546-.893a.738.738,0,0,1-.4-.482.644.644,0,0,0,.4.662l1.546.893a2.17,2.17,0,0,0,1.968,0l1.537-.887a.637.637,0,0,0,.389-.656A.735.735,0,0,1,348.646,401Z" transform="translate(-281.851 -372.315)" fill="#fff"/>
              <path id="Trazado_193883" data-name="Trazado 193883" d="M231.975,352.682l1.546.893a2.171,2.171,0,0,0,1.968,0l1.537-.887a.637.637,0,0,0,.389-.656.734.734,0,0,1-.389.476l-1.537.887a2.18,2.18,0,0,1-1.968,0l-1.546-.893a.739.739,0,0,1-.4-.482A.644.644,0,0,0,231.975,352.682Z" transform="translate(-203.672 -338.352)" fill="#fff"/>
              <path id="Trazado_193884" data-name="Trazado 193884" d="M333.726,392.391l-1.537.887a2.18,2.18,0,0,1-1.968,0l-1.546-.893a.739.739,0,0,1-.4-.482.644.644,0,0,0,.4.662l1.546.893a2.17,2.17,0,0,0,1.968,0l1.537-.887a.637.637,0,0,0,.39-.656A.735.735,0,0,1,333.726,392.391Z" transform="translate(-271.401 -366.285)" fill="#fff"/>
              <path id="Trazado_193885" data-name="Trazado 193885" d="M326.842,403.711a.667.667,0,0,1-.35.419l-1.726.995a1.97,1.97,0,0,1-1.78,0l-1.735-1a.683.683,0,0,1-.356-.429.579.579,0,0,0,.356.608l1.735,1a1.97,1.97,0,0,0,1.78,0l1.726-.995a.57.57,0,0,0,.35-.6Z" transform="translate(-266.229 -374.542)" fill="#fff"/>
              <path id="Trazado_193886" data-name="Trazado 193886" d="M165.812,358.928a.74.74,0,0,1-.4.485l-1.495.863a2.221,2.221,0,0,1-2.01,0l-1.5-.869a.755.755,0,0,1-.4-.494.659.659,0,0,0,.4.674l1.5.869a2.221,2.221,0,0,0,2.01,0l1.495-.863A.65.65,0,0,0,165.812,358.928Z" transform="translate(-153.538 -343.178)" fill="#fff"/>
              <path id="Trazado_193887" data-name="Trazado 193887" d="M152.674,339.167l7.951,4.59a2.221,2.221,0,0,0,2.01,0l1.495-.863a.652.652,0,0,0,.4-.668.74.74,0,0,1-.4.485l-1.495.863a2.221,2.221,0,0,1-2.01,0l-7.951-4.59a.755.755,0,0,1-.4-.494.659.659,0,0,0,.4.674Z" transform="translate(-148.124 -328.876)" fill="#fff"/>
              <path id="Trazado_193888" data-name="Trazado 193888" d="M202.135,335.462l1.546.893a2.171,2.171,0,0,0,1.968,0l1.537-.887a.637.637,0,0,0,.389-.656.735.735,0,0,1-.389.476l-1.537.887a2.18,2.18,0,0,1-1.968,0l-1.546-.893a.739.739,0,0,1-.4-.482A.644.644,0,0,0,202.135,335.462Z" transform="translate(-182.772 -326.292)" fill="#fff"/>
              <path id="Trazado_193889" data-name="Trazado 193889" d="M180.732,367.555a.751.751,0,0,1-.4.488l-1.5.863a2.221,2.221,0,0,1-2.01,0l-1.5-.869a.755.755,0,0,1-.4-.494.659.659,0,0,0,.4.674l1.5.869a2.221,2.221,0,0,0,2.01,0l1.5-.863A.652.652,0,0,0,180.732,367.555Z" transform="translate(-163.988 -349.223)" fill="#fff"/>
              <path id="Trazado_193890" data-name="Trazado 193890" d="M194.415,315.042l1.546.893a2.171,2.171,0,0,0,1.968,0l1.537-.887a.637.637,0,0,0,.389-.656.734.734,0,0,1-.389.476l-1.537.887a2.18,2.18,0,0,1-1.968,0l-1.546-.893a.739.739,0,0,1-.4-.482A.644.644,0,0,0,194.415,315.042Z" transform="translate(-177.365 -311.989)" fill="#fff"/>
              <path id="Trazado_193891" data-name="Trazado 193891" d="M222.459,391.641a.74.74,0,0,1-.4.485l-1.495.863a2.221,2.221,0,0,1-2.01,0l-28.321-16.352a.755.755,0,0,1-.4-.494.659.659,0,0,0,.4.674l28.321,16.352a2.221,2.221,0,0,0,2.01,0l1.495-.863A.65.65,0,0,0,222.459,391.641Z" transform="translate(-174.431 -355.246)" fill="#fff"/>
              <path id="Trazado_193892" data-name="Trazado 193892" d="M180.595,323.022l3.529,2.037a2.171,2.171,0,0,0,1.968,0l1.537-.887a.637.637,0,0,0,.389-.656.735.735,0,0,1-.389.476l-1.537.887a2.18,2.18,0,0,1-1.968,0l-3.529-2.037a.739.739,0,0,1-.4-.482A.644.644,0,0,0,180.595,323.022Z" transform="translate(-167.686 -317.578)" fill="#fff"/>
              <path id="Trazado_193893" data-name="Trazado 193893" d="M166.542,330.938l5.6,3.236a1.971,1.971,0,0,0,1.78,0l1.726-.995a.571.571,0,0,0,.35-.6.668.668,0,0,1-.35.419l-1.726.995a1.971,1.971,0,0,1-1.78,0l-5.6-3.236a.683.683,0,0,1-.357-.428A.579.579,0,0,0,166.542,330.938Z" transform="translate(-157.869 -323.161)" fill="#fff"/>
              <path id="Trazado_193894" data-name="Trazado 193894" d="M343.643,446.363l-1.5.863a2.221,2.221,0,0,1-2.01,0l-1.5-.869a.755.755,0,0,1-.4-.494.659.659,0,0,0,.4.674l1.5.869a2.221,2.221,0,0,0,2.01,0l1.5-.863a.651.651,0,0,0,.4-.665A.74.74,0,0,1,343.643,446.363Z" transform="translate(-278.371 -404.078)" fill="#fff"/>
              <path id="Trazado_193895" data-name="Trazado 193895" d="M351.48,434.516l-1.726.995a1.97,1.97,0,0,1-1.78,0l-4.413-2.55a.683.683,0,0,1-.357-.428.579.579,0,0,0,.357.608l4.413,2.55a1.97,1.97,0,0,0,1.78,0l1.726-.995a.571.571,0,0,0,.35-.6A.668.668,0,0,1,351.48,434.516Z" transform="translate(-281.855 -394.742)" fill="#fff"/>
              <path id="Trazado_193896" data-name="Trazado 193896" d="M300.072,436.448a.74.74,0,0,1-.4.485l-1.495.863a2.221,2.221,0,0,1-2.01,0l-1.5-.869a.755.755,0,0,1-.4-.494.659.659,0,0,0,.4.674l1.5.869a2.222,2.222,0,0,0,2.01,0l1.495-.863A.65.65,0,0,0,300.072,436.448Z" transform="translate(-247.574 -397.474)" fill="#fff"/>
              <path id="Trazado_193897" data-name="Trazado 193897" d="M380.779,419.556l-1.537.887a2.18,2.18,0,0,1-1.968,0l-3.529-2.037a.739.739,0,0,1-.4-.482.644.644,0,0,0,.4.662l3.529,2.037a2.17,2.17,0,0,0,1.968,0l1.537-.887a.637.637,0,0,0,.389-.656A.735.735,0,0,1,380.779,419.556Z" transform="translate(-302.969 -384.509)" fill="#fff"/>
              <path id="Trazado_193898" data-name="Trazado 193898" d="M397.4,415.207a1.917,1.917,0,0,1-1.732,0l-1.786-1.031a.68.68,0,0,1-.347-.414.561.561,0,0,0,.347.593l1.786,1.031a1.916,1.916,0,0,0,1.732,0,.558.558,0,0,0,.341-.587A.652.652,0,0,1,397.4,415.207Z" transform="translate(-317.106 -381.595)" fill="#fff"/>
              <path id="Trazado_193899" data-name="Trazado 193899" d="M371.562,430.15l-1.726.995a1.97,1.97,0,0,1-1.78,0l-1.735-1a.683.683,0,0,1-.357-.428.579.579,0,0,0,.357.608l1.735,1a1.97,1.97,0,0,0,1.78,0l1.726-.995a.571.571,0,0,0,.35-.6.667.667,0,0,1-.35.419Z" transform="translate(-297.796 -392.767)" fill="#fff"/>
              <path id="Trazado_193900" data-name="Trazado 193900" d="M314.992,445.065a.751.751,0,0,1-.4.488l-1.495.863a2.222,2.222,0,0,1-2.01,0l-1.5-.869a.755.755,0,0,1-.4-.494.659.659,0,0,0,.4.674l1.5.869a2.222,2.222,0,0,0,2.01,0l1.495-.863A.652.652,0,0,0,314.992,445.065Z" transform="translate(-258.024 -403.511)" fill="#fff"/>
              <path id="Trazado_193901" data-name="Trazado 193901" d="M329.823,454.343l-1.495.863a2.221,2.221,0,0,1-2.01,0l-1.5-.869a.755.755,0,0,1-.4-.494.659.659,0,0,0,.4.674l1.5.869a2.221,2.221,0,0,0,2.01,0l1.495-.863a.65.65,0,0,0,.4-.665A.74.74,0,0,1,329.823,454.343Z" transform="translate(-268.691 -409.668)" fill="#fff"/>
              <path id="Trazado_193902" data-name="Trazado 193902" d="M207.943,306.993l3.769,2.175a1.916,1.916,0,0,0,1.732,0,.558.558,0,0,0,.342-.587.651.651,0,0,1-.342.407,1.917,1.917,0,0,1-1.732,0l-3.769-2.175a.68.68,0,0,1-.348-.414A.561.561,0,0,0,207.943,306.993Z" transform="translate(-186.872 -306.4)" fill="#fff"/>
              <path id="Trazado_193903" data-name="Trazado 193903" d="M146.255,347.649a.751.751,0,0,1-.4.488l-1.495.863a2.221,2.221,0,0,1-2.01,0l-3.487-2.013a.755.755,0,0,1-.4-.494.659.659,0,0,0,.4.674l3.487,2.013a2.221,2.221,0,0,0,2.01,0l1.495-.863A.652.652,0,0,0,146.255,347.649Z" transform="translate(-138.451 -334.479)" fill="#fff"/>
              <path id="Trazado_193904" data-name="Trazado 193904" d="M356.683,420.938a.668.668,0,0,1-.351.419l-1.726.995a1.97,1.97,0,0,1-1.78,0l-1.735-1a.684.684,0,0,1-.357-.428.579.579,0,0,0,.357.608l1.735,1a1.97,1.97,0,0,0,1.78,0l1.726-.995A.571.571,0,0,0,356.683,420.938Z" transform="translate(-287.129 -386.61)" fill="#fff"/>
              <path id="Trazado_193905" data-name="Trazado 193905" d="M363.955,409.145a.735.735,0,0,1-.39.476l-1.537.887a2.18,2.18,0,0,1-1.968,0l-1.546-.893a.739.739,0,0,1-.4-.482.644.644,0,0,0,.4.662l1.546.893a2.171,2.171,0,0,0,1.968,0l1.537-.887A.637.637,0,0,0,363.955,409.145Z" transform="translate(-292.302 -378.352)" fill="#fff"/>
              <path id="Trazado_193906" data-name="Trazado 193906" d="M334.232,423.931a.667.667,0,0,1-.351.419l-1.726.995a1.97,1.97,0,0,1-1.78,0l-1.735-1a.683.683,0,0,1-.356-.428.579.579,0,0,0,.356.608l1.735,1a1.97,1.97,0,0,0,1.78,0l1.726-.995A.571.571,0,0,0,334.232,423.931Z" transform="translate(-271.405 -388.704)" fill="#fff"/>
              <path id="Trazado_193907" data-name="Trazado 193907" d="M378.663,405.563l1.786,1.031a1.917,1.917,0,0,0,1.732,0,.559.559,0,0,0,.342-.587.652.652,0,0,1-.342.407,1.917,1.917,0,0,1-1.732,0l-1.786-1.031a.671.671,0,0,1-.348-.414A.561.561,0,0,0,378.663,405.563Z" transform="translate(-306.445 -375.439)" fill="#fff"/>
              <path id="Trazado_193908" data-name="Trazado 193908" d="M194.372,347.008l1.735,1a1.97,1.97,0,0,0,1.78,0l1.726-.995a.571.571,0,0,0,.351-.6.668.668,0,0,1-.351.419l-1.726.995a1.971,1.971,0,0,1-1.78,0l-1.735-1a.683.683,0,0,1-.356-.428A.579.579,0,0,0,194.372,347.008Z" transform="translate(-177.361 -334.416)" fill="#fff"/>
              <path id="Trazado_193909" data-name="Trazado 193909" d="M328.792,437.078a.74.74,0,0,1-.4.485l-1.495.863a2.221,2.221,0,0,1-2.01,0l-1.5-.869a.755.755,0,0,1-.4-.494.659.659,0,0,0,.4.674l1.5.869a2.222,2.222,0,0,0,2.01,0l1.495-.863a.652.652,0,0,0,.4-.668Z" transform="translate(-267.69 -397.915)" fill="#fff"/>
              <path id="Trazado_193910" data-name="Trazado 193910" d="M363.743,396.953l1.786,1.031a1.917,1.917,0,0,0,1.732,0,.558.558,0,0,0,.341-.587.652.652,0,0,1-.341.407,1.917,1.917,0,0,1-1.732,0l-1.786-1.031a.68.68,0,0,1-.347-.413A.561.561,0,0,0,363.743,396.953Z" transform="translate(-295.995 -369.408)" fill="#fff"/>
              <path id="Trazado_193911" data-name="Trazado 193911" d="M189.114,360.207l1.5.869a2.221,2.221,0,0,0,2.01,0l1.495-.863a.652.652,0,0,0,.4-.668.74.74,0,0,1-.4.485l-1.495.863a2.221,2.221,0,0,1-2.01,0l-1.5-.869a.755.755,0,0,1-.4-.494.659.659,0,0,0,.4.674Z" transform="translate(-173.646 -343.612)" fill="#fff"/>
              <path id="Trazado_193912" data-name="Trazado 193912" d="M318.993,371.113l1.786,1.031a1.917,1.917,0,0,0,1.732,0,.557.557,0,0,0,.342-.584.648.648,0,0,1-.342.4,1.916,1.916,0,0,1-1.732,0l-1.786-1.031a.68.68,0,0,1-.347-.413A.561.561,0,0,0,318.993,371.113Z" transform="translate(-264.652 -351.31)" fill="#fff"/>
              <path id="Trazado_193913" data-name="Trazado 193913" d="M274.233,345.273l1.786,1.031a1.917,1.917,0,0,0,1.732,0,.558.558,0,0,0,.341-.587.651.651,0,0,1-.341.407,1.916,1.916,0,0,1-1.732,0l-1.786-1.031a.67.67,0,0,1-.347-.413A.561.561,0,0,0,274.233,345.273Z" transform="translate(-233.302 -333.212)" fill="#fff"/>
              <path id="Trazado_193914" data-name="Trazado 193914" d="M259.313,336.663l1.786,1.031a1.917,1.917,0,0,0,1.732,0,.558.558,0,0,0,.341-.587.652.652,0,0,1-.341.407,1.917,1.917,0,0,1-1.732,0l-1.786-1.031a.68.68,0,0,1-.348-.413A.561.561,0,0,0,259.313,336.663Z" transform="translate(-222.852 -327.181)" fill="#fff"/>
              <path id="Trazado_193915" data-name="Trazado 193915" d="M348.823,388.333l1.786,1.031a1.917,1.917,0,0,0,1.732,0,.558.558,0,0,0,.342-.587.652.652,0,0,1-.342.408,1.917,1.917,0,0,1-1.732,0l-1.786-1.031a.671.671,0,0,1-.347-.413A.561.561,0,0,0,348.823,388.333Z" transform="translate(-285.545 -363.371)" fill="#fff"/>
              <path id="Trazado_193916" data-name="Trazado 193916" d="M244.393,328.043l1.786,1.031a1.916,1.916,0,0,0,1.732,0,.558.558,0,0,0,.342-.587.659.659,0,0,1-.342.407,1.916,1.916,0,0,1-1.732,0l-1.786-1.031a.67.67,0,0,1-.348-.413A.561.561,0,0,0,244.393,328.043Z" transform="translate(-212.402 -321.143)" fill="#fff"/>
              <path id="Trazado_193917" data-name="Trazado 193917" d="M289.153,353.883l1.786,1.031a1.917,1.917,0,0,0,1.732,0,.558.558,0,0,0,.341-.587.651.651,0,0,1-.341.407,1.917,1.917,0,0,1-1.732,0l-1.786-1.031a.681.681,0,0,1-.348-.413A.561.561,0,0,0,289.153,353.883Z" transform="translate(-243.752 -339.242)" fill="#fff"/>
              <path id="Trazado_193918" data-name="Trazado 193918" d="M333.9,379.723l1.785,1.031a1.916,1.916,0,0,0,1.732,0,.558.558,0,0,0,.342-.587.652.652,0,0,1-.342.407,1.916,1.916,0,0,1-1.732,0l-1.785-1.031a.68.68,0,0,1-.348-.413A.561.561,0,0,0,333.9,379.723Z" transform="translate(-275.095 -357.34)" fill="#fff"/>
              <path id="Trazado_193919" data-name="Trazado 193919" d="M229.473,319.433l1.786,1.031a1.917,1.917,0,0,0,1.732,0,.558.558,0,0,0,.342-.587.652.652,0,0,1-.342.407,1.917,1.917,0,0,1-1.732,0l-1.786-1.031a.68.68,0,0,1-.348-.413A.561.561,0,0,0,229.473,319.433Z" transform="translate(-201.952 -315.113)" fill="#fff"/>
              <path id="Trazado_193920" data-name="Trazado 193920" d="M304.073,362.486l1.786,1.031a1.917,1.917,0,0,0,1.732,0,.558.558,0,0,0,.342-.587.64.64,0,0,1-.342.4,1.916,1.916,0,0,1-1.732,0l-1.786-1.031a.67.67,0,0,1-.348-.413.561.561,0,0,0,.348.593Z" transform="translate(-254.202 -345.266)" fill="#fff"/>
            </g>
            <path id="Trazado_193921" data-name="Trazado 193921" d="M165.826,416.942,147.745,406.5c-.713-.413-.623-1.132.2-1.609l10.261-5.926a3.1,3.1,0,0,1,2.786-.117l18.081,10.438c.713.413.623,1.132-.2,1.609l-10.261,5.926A3.1,3.1,0,0,1,165.826,416.942Z" transform="translate(-113.577 -296.06)" fill="#fff"/>
            <path id="Trazado_193922" data-name="Trazado 193922" d="M147.948,405.566l10.261-5.926a3.1,3.1,0,0,1,2.786-.117l18.081,10.438a1.05,1.05,0,0,1,.389.365.747.747,0,0,0-.389-1.04L161,398.849a3.093,3.093,0,0,0-2.786.117l-10.261,5.926c-.614.357-.821.845-.587,1.243A1.473,1.473,0,0,1,147.948,405.566Z" transform="translate(-113.58 -296.057)" fill="#7cbac4"/>
            <g id="Grupo_141383" data-name="Grupo 141383" transform="translate(31.516 64.86)">
              <path id="Trazado_193923" data-name="Trazado 193923" d="M214.107,329.22a8.268,8.268,0,0,1-4.125-.995l-67.595-39.541a4.368,4.368,0,0,1-2.367-3.772,5.08,5.08,0,0,1,2.849-4.281l10.378-6.468a10.166,10.166,0,0,1,5.009-1.273,8.268,8.268,0,0,1,4.125.995l67.595,39.541a4.368,4.368,0,0,1,2.367,3.772,5.08,5.08,0,0,1-2.849,4.281l-10.378,6.468a10.166,10.166,0,0,1-5.009,1.273Z" transform="translate(-140.02 -272.89)" fill="#daebf2" opacity="0"/>
            </g>
          </g>
          <g id="Grupo_141386" data-name="Grupo 141386" transform="translate(50.088 0)">
            <path id="Trazado_193924" data-name="Trazado 193924" d="M278.97,144.852l-71.717-41.467c-2.9-1.672-5.243-6.157-5.243-10.018V33.312c0-3.862,2.349-5.635,5.243-3.964L278.97,70.816c2.9,1.672,5.243,6.157,5.243,10.018v60.054C284.213,144.75,281.864,146.523,278.97,144.852Z" transform="translate(-202.01 -27.928)" fill="#bddcf6"/>
            <path id="Trazado_193925" data-name="Trazado 193925" d="M285.079,68.175,213.362,26.708a3.532,3.532,0,0,0-3.068-.449c-.111.042-1.573.818-1.675.875a.043.043,0,0,0-.009.006,3.436,3.436,0,0,1,3.266.36l71.717,41.467c2.9,1.672,5.243,6.157,5.243,10.018v60.054c0,2.409-.914,4.006-2.307,4.461a.878.878,0,0,0,.458-.156c.066-.039,1.654-.935,1.717-.977.995-.7,1.615-2.13,1.615-4.116V78.193c0-3.862-2.349-8.347-5.243-10.018Z" transform="translate(-206.633 -26.078)" fill="#12263f"/>
            <path id="Trazado_193926" data-name="Trazado 193926" d="M285.359,168.664l-70.507-40.808a5.415,5.415,0,0,1-2.7-4.686V70.753a1.89,1.89,0,0,1,2.837-1.636l70.507,40.808a5.415,5.415,0,0,1,2.7,4.686v52.414a1.89,1.89,0,0,1-2.837,1.636Z" transform="translate(-209.112 -56.042)" fill="url(#linear-gradient-2)"/>
            <path id="Trazado_193927" data-name="Trazado 193927" d="M286.077,168.444,215.57,127.636a5.415,5.415,0,0,1-2.7-4.686V70.533a1.87,1.87,0,0,1,.848-1.573,1.891,1.891,0,0,0-1.576,1.863v52.417a5.415,5.415,0,0,0,2.7,4.686l70.507,40.808a1.877,1.877,0,0,0,1.989-.063,1.866,1.866,0,0,1-1.264-.228Z" transform="translate(-209.105 -56.113)" fill="#267370"/>
            <path id="Trazado_193928" data-name="Trazado 193928" d="M284.685,70.41,212.968,28.943a3.484,3.484,0,0,0-3.158-.4,3.864,3.864,0,0,1,2.529.593L284.056,70.6c2.9,1.672,5.243,6.157,5.243,10.018v60.054c0,2.277-.821,3.82-2.085,4.368,1.618-.258,2.714-1.917,2.714-4.557V80.428C289.928,76.566,287.579,72.081,284.685,70.41Z" transform="translate(-207.473 -27.648)" fill="#727997"/>
            <g id="Grupo_141385" data-name="Grupo 141385" transform="translate(3.865 6.082)">
              <path id="Trazado_193929" data-name="Trazado 193929" d="M240.777,62.228c0,.74-.524,1.04-1.168.665a2.574,2.574,0,0,1-1.168-2.016c0-.743.524-1.04,1.168-.665A2.578,2.578,0,0,1,240.777,62.228Z" transform="translate(-231.39 -55.954)" fill="#fff"/>
              <path id="Trazado_193930" data-name="Trazado 193930" d="M229.007,55.388c0,.74-.524,1.04-1.168.665a2.574,2.574,0,0,1-1.168-2.016c0-.743.524-1.04,1.168-.665A2.579,2.579,0,0,1,229.007,55.388Z" transform="translate(-223.147 -51.163)" fill="#fff"/>
              <path id="Trazado_193931" data-name="Trazado 193931" d="M217.247,48.558c0,.74-.524,1.04-1.168.665a2.579,2.579,0,0,1-1.168-2.016c0-.743.524-1.04,1.168-.665A2.574,2.574,0,0,1,217.247,48.558Z" transform="translate(-214.91 -46.379)" fill="#fff"/>
            </g>
          </g>
          <g id="Grupo_141399" data-name="Grupo 141399" transform="translate(57.899 22.938)">
            <g id="Grupo_141387" data-name="Grupo 141387" transform="translate(53.568 47.944)">
              <path id="Trazado_193932" data-name="Trazado 193932" d="M418.895,264.857v1.378l-6.175-3.565v9.054l12.316,7.109V268.4Z" transform="translate(-410.97 -262.67)" fill="#daebf2"/>
              <path id="Trazado_193933" data-name="Trazado 193933" d="M416.395,265.687v1.378L410.22,263.5v9.054l11.331,7.724.986-.611V269.234Z" transform="translate(-409.219 -263.251)" fill="#0f2771"/>
              <path id="Trazado_193934" data-name="Trazado 193934" d="M408.34,274.541l12.319,7.112v-8.49L408.34,266.05Z" transform="translate(-407.903 -265.037)" fill="#fff"/>
              <path id="Trazado_193935" data-name="Trazado 193935" d="M406.88,277.13l12.316,7.112v-7.933L406.88,269.2Z" transform="translate(-406.88 -267.244)" fill="#bddcf6"/>
            </g>
            <g id="Grupo_141388" data-name="Grupo 141388" transform="translate(35.712 37.599)">
              <path id="Trazado_193936" data-name="Trazado 193936" d="M359.3,230.327v1.378l-6.178-3.565v9.054l12.319,7.112V233.874Z" transform="translate(-351.37 -228.14)" fill="#daebf2"/>
              <path id="Trazado_193937" data-name="Trazado 193937" d="M356.795,231.167v1.378l-6.175-3.565v9.054l11.331,7.721.986-.611V234.711Z" transform="translate(-349.619 -228.728)" fill="#0f2771"/>
              <path id="Trazado_193938" data-name="Trazado 193938" d="M348.74,240.02l12.319,7.109v-8.491L348.74,231.53Z" transform="translate(-348.303 -230.514)" fill="#fff"/>
              <path id="Trazado_193939" data-name="Trazado 193939" d="M347.28,242.6l12.316,7.112v-7.93L347.28,234.67Z" transform="translate(-347.28 -232.714)" fill="#bddcf6"/>
            </g>
            <g id="Grupo_141389" data-name="Grupo 141389" transform="translate(17.856 27.254)">
              <path id="Trazado_193940" data-name="Trazado 193940" d="M299.7,195.8v1.375l-6.175-3.565v9.057l12.316,7.109V199.344Z" transform="translate(-291.777 -193.61)" fill="#daebf2"/>
              <path id="Trazado_193941" data-name="Trazado 193941" d="M297.195,196.637v1.378l-6.175-3.565V203.5l11.331,7.724.986-.611V200.184Z" transform="translate(-290.019 -194.198)" fill="#0f2771"/>
              <path id="Trazado_193942" data-name="Trazado 193942" d="M289.15,205.49l12.316,7.109v-8.488L289.15,197Z" transform="translate(-288.71 -195.984)" fill="#fff"/>
              <path id="Trazado_193943" data-name="Trazado 193943" d="M287.68,208.073,300,215.183v-7.93L287.68,200.14Z" transform="translate(-287.68 -198.184)" fill="#bddcf6"/>
            </g>
            <g id="Grupo_141390" data-name="Grupo 141390" transform="translate(0 16.912)">
              <path id="Trazado_193944" data-name="Trazado 193944" d="M240.1,161.277v1.378l-6.175-3.565v9.054l12.316,7.112V164.824Z" transform="translate(-232.177 -159.09)" fill="#daebf2"/>
              <path id="Trazado_193945" data-name="Trazado 193945" d="M237.595,162.107v1.378l-6.175-3.565v9.054l11.331,7.724.986-.611V165.654Z" transform="translate(-230.419 -159.671)" fill="#0f2771"/>
              <path id="Trazado_193946" data-name="Trazado 193946" d="M229.55,170.961l12.316,7.112v-8.491L229.55,162.47Z" transform="translate(-229.11 -161.457)" fill="#fff"/>
              <path id="Trazado_193947" data-name="Trazado 193947" d="M228.08,173.55l12.319,7.112v-7.933L228.08,165.62Z" transform="translate(-228.08 -163.664)" fill="#bddcf6"/>
            </g>
            <g id="Grupo_141391" data-name="Grupo 141391" transform="translate(53.568 31.032)">
              <path id="Trazado_193948" data-name="Trazado 193948" d="M418.895,208.407v1.378l-6.175-3.565v9.054l12.316,7.112V211.954Z" transform="translate(-410.97 -206.22)" fill="#daebf2"/>
              <path id="Trazado_193949" data-name="Trazado 193949" d="M416.395,209.24v1.375l-6.175-3.565v9.057l11.331,7.721.986-.611V212.784Z" transform="translate(-409.219 -206.801)" fill="url(#linear-gradient-3)"/>
              <path id="Trazado_193950" data-name="Trazado 193950" d="M408.34,218.1l12.319,7.112v-8.491L408.34,209.61Z" transform="translate(-407.903 -208.594)" fill="#fff"/>
              <path id="Trazado_193951" data-name="Trazado 193951" d="M406.88,220.68l12.316,7.112v-7.933L406.88,212.75Z" transform="translate(-406.88 -210.794)" fill="url(#linear-gradient-4)"/>
            </g>
            <g id="Grupo_141392" data-name="Grupo 141392" transform="translate(35.712 20.687)">
              <path id="Trazado_193952" data-name="Trazado 193952" d="M359.3,173.88v1.375l-6.178-3.565v9.054l12.319,7.112V177.424Z" transform="translate(-351.37 -171.69)" fill="#daebf2"/>
              <path id="Trazado_193953" data-name="Trazado 193953" d="M356.795,174.717V176.1l-6.175-3.565v9.054l11.331,7.724.986-.614V178.264Z" transform="translate(-349.619 -172.278)" fill="url(#linear-gradient-5)"/>
              <path id="Trazado_193954" data-name="Trazado 193954" d="M348.74,183.57l12.319,7.109v-8.491L348.74,175.08Z" transform="translate(-348.303 -174.064)" fill="#fff"/>
              <path id="Trazado_193955" data-name="Trazado 193955" d="M347.28,186.153l12.316,7.109v-7.93L347.28,178.22Z" transform="translate(-347.28 -176.264)" fill="url(#linear-gradient-6)"/>
            </g>
            <g id="Grupo_141393" data-name="Grupo 141393" transform="translate(17.856 10.345)">
              <path id="Trazado_193956" data-name="Trazado 193956" d="M299.7,139.357v1.378l-6.175-3.565v9.054l12.316,7.109V142.9Z" transform="translate(-291.777 -137.17)" fill="#daebf2"/>
              <path id="Trazado_193957" data-name="Trazado 193957" d="M297.195,140.187v1.378L291.02,138v9.054l11.331,7.724.986-.611V143.734Z" transform="translate(-290.019 -137.751)" fill="url(#linear-gradient-5)"/>
              <path id="Trazado_193958" data-name="Trazado 193958" d="M289.15,149.041l12.316,7.112v-8.491L289.15,140.55Z" transform="translate(-288.71 -139.537)" fill="#fff"/>
              <path id="Trazado_193959" data-name="Trazado 193959" d="M287.68,151.63,300,158.743v-7.933L287.68,143.7Z" transform="translate(-287.68 -141.744)" fill="url(#linear-gradient-8)"/>
            </g>
            <g id="Grupo_141394" data-name="Grupo 141394" transform="translate(0)">
              <path id="Trazado_193960" data-name="Trazado 193960" d="M240.1,104.827v1.378l-6.175-3.565v9.054l12.316,7.112V108.374Z" transform="translate(-232.177 -102.64)" fill="#daebf2"/>
              <path id="Trazado_193961" data-name="Trazado 193961" d="M237.595,105.66v1.375l-6.175-3.565v9.057l11.331,7.721.986-.611V109.2Z" transform="translate(-230.419 -103.221)" fill="#0f2771"/>
              <path id="Trazado_193962" data-name="Trazado 193962" d="M229.55,114.518l12.316,7.112v-8.491L229.55,106.03Z" transform="translate(-229.11 -105.014)" fill="#fff"/>
              <path id="Trazado_193963" data-name="Trazado 193963" d="M228.08,117.1l12.319,7.112v-7.933L228.08,109.17Z" transform="translate(-228.08 -107.214)" fill="#bddcf6"/>
            </g>
            <g id="Grupo_141395" data-name="Grupo 141395" transform="translate(53.568 64.527)">
              <path id="Trazado_193964" data-name="Trazado 193964" d="M418.895,320.207v1.378l-6.175-3.565v9.054l12.316,7.112V323.754Z" transform="translate(-410.97 -318.02)" fill="#daebf2"/>
              <path id="Trazado_193965" data-name="Trazado 193965" d="M416.395,321.04v1.375l-6.175-3.565v9.057l11.331,7.721.986-.611V324.584Z" transform="translate(-409.219 -318.601)" fill="#0f2771"/>
              <path id="Trazado_193966" data-name="Trazado 193966" d="M408.34,329.89,420.659,337v-8.49L408.34,321.4Z" transform="translate(-407.903 -320.387)" fill="#fff"/>
              <path id="Trazado_193967" data-name="Trazado 193967" d="M406.88,332.48l12.316,7.112v-7.933l-12.316-7.11Z" transform="translate(-406.88 -322.594)" fill="#bddcf6"/>
            </g>
            <g id="Grupo_141396" data-name="Grupo 141396" transform="translate(35.712 54.182)">
              <path id="Trazado_193968" data-name="Trazado 193968" d="M359.3,285.677v1.378l-6.178-3.565v9.054l12.319,7.112V289.224Z" transform="translate(-351.37 -283.49)" fill="#daebf2"/>
              <path id="Trazado_193969" data-name="Trazado 193969" d="M356.795,286.517V287.9l-6.175-3.565v9.054l11.331,7.724.986-.614V290.064Z" transform="translate(-349.619 -284.078)" fill="#0f2771"/>
              <path id="Trazado_193970" data-name="Trazado 193970" d="M348.74,295.37l12.319,7.109v-8.491L348.74,286.88Z" transform="translate(-348.303 -285.864)" fill="#fff"/>
              <path id="Trazado_193971" data-name="Trazado 193971" d="M347.28,297.953l12.316,7.109v-7.93L347.28,290.02Z" transform="translate(-347.28 -288.064)" fill="#bddcf6"/>
            </g>
            <g id="Grupo_141397" data-name="Grupo 141397" transform="translate(17.856 43.84)">
              <path id="Trazado_193972" data-name="Trazado 193972" d="M299.7,251.157v1.378l-6.175-3.565v9.054l12.316,7.109V254.7Z" transform="translate(-291.777 -248.97)" fill="#daebf2"/>
              <path id="Trazado_193973" data-name="Trazado 193973" d="M297.195,251.987v1.378L291.02,249.8v9.054l11.331,7.724.986-.611V255.534Z" transform="translate(-290.019 -249.551)" fill="#0f2771"/>
              <path id="Trazado_193974" data-name="Trazado 193974" d="M289.15,260.841l12.316,7.112v-8.491L289.15,252.35Z" transform="translate(-288.71 -251.337)" fill="#fff"/>
              <path id="Trazado_193975" data-name="Trazado 193975" d="M287.68,263.43,300,270.543v-7.933L287.68,255.5Z" transform="translate(-287.68 -253.544)" fill="#bddcf6"/>
            </g>
            <g id="Grupo_141398" data-name="Grupo 141398" transform="translate(0 33.495)">
              <path id="Trazado_193976" data-name="Trazado 193976" d="M240.1,216.627v1.378l-6.175-3.565v9.054l12.316,7.112V220.174Z" transform="translate(-232.177 -214.44)" fill="#daebf2"/>
              <path id="Trazado_193977" data-name="Trazado 193977" d="M237.595,217.46v1.375l-6.175-3.565v9.057l11.331,7.721.986-.611V221Z" transform="translate(-230.419 -215.021)" fill="#0f2771"/>
              <path id="Trazado_193978" data-name="Trazado 193978" d="M229.55,226.317l12.316,7.112v-8.491L229.55,217.83Z" transform="translate(-229.11 -216.814)" fill="#fff"/>
              <path id="Trazado_193979" data-name="Trazado 193979" d="M228.08,228.9l12.319,7.112v-7.933L228.08,220.97Z" transform="translate(-228.08 -219.014)" fill="#bddcf6"/>
            </g>
          </g>
          <g id="Grupo_141401" data-name="Grupo 141401" transform="translate(72.795 24.819)">
            <g id="Grupo_141400" data-name="Grupo 141400" transform="translate(1.294 1.192)" opacity="0.5">
              <path id="Trazado_193980" data-name="Trazado 193980" d="M290.122,114c-4.419-2.553-8-.509-8,4.563V120.5c0,5.069,3.583,11.25,8,13.8l54.5,31.73c4.419,2.553,8,.509,8-4.563v-1.938c0-5.069-3.583-11.25-8-13.8Z" transform="translate(-282.12 -112.9)" fill="#267370"/>
            </g>
            <path id="Trazado_193981" data-name="Trazado 193981" d="M346.959,168.058l-62.214-36.176c-3.82-2.2-6.945-8.176-6.945-13.269V115c0-5.093,3.125-7.454,6.945-5.249l62.214,36.176c3.82,2.2,6.945,8.176,6.945,13.269v3.616C353.9,167.9,350.778,170.263,346.959,168.058Z" transform="translate(-277.8 -108.921)" fill="#feca2e"/>
            <path id="Trazado_193982" data-name="Trazado 193982" d="M346.959,145.925l-62.214-36.176c-3.82-2.205-6.945.159-6.945,5.249v.779c0-5.093,3.125-7.454,6.945-5.249L346.959,146.7c3.82,2.205,6.945,8.176,6.945,13.269v-.779C353.9,154.1,350.778,148.13,346.959,145.925Z" transform="translate(-277.8 -108.922)" fill="#826718"/>
            <path id="Trazado_193983" data-name="Trazado 193983" d="M291.33,134.728v-5.123c0-2.13,1.294-3.11,2.894-2.187l47.423,27.6a6.958,6.958,0,0,1,2.894,5.528v5.123c0,2.121-1.3,3.107-2.894,2.187l-47.423-27.6A6.933,6.933,0,0,1,291.33,134.728Z" transform="translate(-287.276 -121.633)" fill="#fff"/>
            <path id="Trazado_193984" data-name="Trazado 193984" d="M487.662,250.641,485,246.055a1.279,1.279,0,0,0-1.028-.746l-.779-1.345c1.168-1.1,1.052-3.691-.354-6.118-1.537-2.651-4.03-4.09-5.566-3.215s-1.537,3.736,0,6.387c1.408,2.427,3.613,3.832,5.153,3.382l.779,1.345a1.258,1.258,0,0,0,.132,1.255l2.66,4.587c.333.575.872.887,1.207.7l.455-.261c.332-.189.332-.809,0-1.384Zm-5.77-8.047c-1.013.578-2.655-.371-3.667-2.118s-1.013-3.631,0-4.209,2.654.372,3.667,2.118S482.9,242.016,481.892,242.594Z" transform="translate(-416.706 -196.79)" fill="#fff"/>
          </g>
        </g>
      </g>
    </g>
  </g>
</svg>
