<svg xmlns="http://www.w3.org/2000/svg" width="62.921" height="43.56" viewBox="0 0 62.921 43.56">
  <g id="Grupo_146532" data-name="Grupo 146532" transform="translate(-767.177 -2227.142)">
    <g id="_1_1_b" data-name="1_1_b" transform="translate(767.177 2227.142)" opacity="0.5">
      <path id="Trazado_193807" data-name="Trazado 193807" d="M433.655,325.3a1.037,1.037,0,0,1-.386-2,12.406,12.406,0,0,0,5.061-3.747,1.037,1.037,0,1,1,1.618,1.3,14.5,14.5,0,0,1-5.909,4.375A1.044,1.044,0,0,1,433.655,325.3Z" transform="translate(-385.91 -294.046)" fill="#4dd0e1"/>
      <path id="Trazado_193808" data-name="Trazado 193808" d="M236.246,167.113a1.033,1.033,0,0,1-.578-.177l-.688-.464a12.916,12.916,0,0,0-6.27-2.172,1.037,1.037,0,1,1,.152-2.069,14.991,14.991,0,0,1,7.279,2.52l.688.464a1.037,1.037,0,0,1-.581,1.9Z" transform="translate(-207.373 -157.28)" fill="#4dd0e1"/>
      <path id="Trazado_193809" data-name="Trazado 193809" d="M393.234,286.522a1.037,1.037,0,0,1-.09-2.071,1.591,1.591,0,0,0,1.182-.7l.062-.091a1.595,1.595,0,0,0-.431-2.213,1.009,1.009,0,0,1-.131-.1l-5.821-5.474a1.037,1.037,0,0,1,1.422-1.512l5.765,5.421a3.669,3.669,0,0,1,.915,5.042l-.062.091a3.654,3.654,0,0,1-2.718,1.6q-.046,0-.093,0Z" transform="translate(-346.748 -254.755)" fill="#4dd0e1"/>
      <path id="Trazado_193810" data-name="Trazado 193810" d="M130.357,318.351a1.038,1.038,0,0,1-.708-.279,14.345,14.345,0,0,1-3.1-4.184,1.037,1.037,0,0,1,1.862-.914,12.3,12.3,0,0,0,2.652,3.582,1.038,1.038,0,0,1-.709,1.8Z" transform="translate(-119.09 -288.146)" fill="#4dd0e1"/>
      <path id="Trazado_193811" data-name="Trazado 193811" d="M314.816,308.807a3.64,3.64,0,0,1-2.044-.628L300.8,300.1a1.037,1.037,0,0,1,1.159-1.72l11.972,8.077a1.595,1.595,0,0,0,2.213-.431l.063-.093a1.595,1.595,0,0,0-.431-2.213L303.885,295.7a1.037,1.037,0,1,1,1.159-1.72L316.937,302a3.668,3.668,0,0,1,.99,5.094l-.063.093a3.675,3.675,0,0,1-3.047,1.617Z" transform="translate(-270.637 -271.943)" fill="#4dd0e1"/>
      <path id="Trazado_193812" data-name="Trazado 193812" d="M298.262,342.572a3.64,3.64,0,0,1-2.044-.629l-9.879-6.636a1.037,1.037,0,1,1,1.157-1.722l9.88,6.636a1.594,1.594,0,0,0,2.215-.429l.063-.094a1.6,1.6,0,0,0-.431-2.212l-11.038-7.447a1.037,1.037,0,0,1,1.159-1.72l11.038,7.447a3.673,3.673,0,0,1,.99,5.092l-.063.094a3.675,3.675,0,0,1-3.047,1.617Z" transform="translate(-258.033 -301.87)" fill="#4dd0e1"/>
      <path id="Trazado_193813" data-name="Trazado 193813" d="M291.936,380.494a3.651,3.651,0,0,1-2.046-.626l-2.047-1.382a1.037,1.037,0,0,1,1.159-1.72l2.048,1.382a1.6,1.6,0,0,0,2.213-.431l.063-.093a1.6,1.6,0,0,0-.431-2.212l-6.551-4.391A1.038,1.038,0,0,1,287.5,369.3l6.554,4.392a3.672,3.672,0,0,1,.992,5.094l-.063.093a3.665,3.665,0,0,1-3.046,1.614Z" transform="translate(-258.036 -337.584)" fill="#4dd0e1"/>
      <path id="Trazado_193814" data-name="Trazado 193814" d="M254.367,167.468a8.379,8.379,0,0,1-1.882-.216,8.239,8.239,0,0,1-5.168-3.687l-2-3.231-3.483,1.37a6.411,6.411,0,0,1-8.329-3.568,1.036,1.036,0,0,1,.577-1.348l15.292-6.13a15.051,15.051,0,0,1,7.385-.969,1.037,1.037,0,1,1-.249,2.059,12.955,12.955,0,0,0-6.365.835l-14.215,5.7a4.341,4.341,0,0,0,5.137,1.5l4.294-1.69a1.035,1.035,0,0,1,1.261.419l2.456,3.964a6.22,6.22,0,0,0,8.569,1.977,1.037,1.037,0,1,1,1.1,1.76,8.241,8.241,0,0,1-4.38,1.263Z" transform="translate(-212.322 -146.259)" fill="#4dd0e1"/>
      <path id="Trazado_193815" data-name="Trazado 193815" d="M151.64,304.219a3.724,3.724,0,0,1-3-5.917l3.662-5.027a3.724,3.724,0,1,1,6.019,4.387l-3.662,5.027a3.7,3.7,0,0,1-2.432,1.486,3.748,3.748,0,0,1-.586.046Zm3.673-10.4a1.616,1.616,0,0,0-.26.021,1.637,1.637,0,0,0-1.077.658l-3.662,5.027a1.649,1.649,0,1,0,2.666,1.943h0l3.662-5.027a1.649,1.649,0,0,0-1.329-2.621Z" transform="translate(-137.808 -270.149)" fill="#4dd0e1"/>
      <path id="Trazado_193816" data-name="Trazado 193816" d="M185.444,314.944a3.725,3.725,0,0,1-3-5.917l5.157-7.077a3.724,3.724,0,1,1,6.02,4.385l-5.157,7.077a3.7,3.7,0,0,1-2.432,1.486,3.756,3.756,0,0,1-.586.046Zm5.166-12.451a1.649,1.649,0,0,0-1.335.677l-5.157,7.077a1.65,1.65,0,0,0,2.667,1.943h0l5.157-7.077a1.65,1.65,0,0,0-1.332-2.621Z" transform="translate(-167.269 -277.71)" fill="#4dd0e1"/>
      <path id="Trazado_193817" data-name="Trazado 193817" d="M219.22,353.463a3.724,3.724,0,0,1-3-5.917l3.662-5.027A3.724,3.724,0,1,1,225.9,346.9l-3.662,5.027a3.7,3.7,0,0,1-2.432,1.486A3.756,3.756,0,0,1,219.22,353.463Zm3.672-10.4a1.649,1.649,0,0,0-1.335.677l-3.662,5.027a1.649,1.649,0,1,0,2.666,1.943h0l3.662-5.027a1.649,1.649,0,0,0-1.33-2.621Z" transform="translate(-196.702 -313.066)" fill="#4dd0e1"/>
      <path id="Trazado_193818" data-name="Trazado 193818" d="M253.037,391.711a3.723,3.723,0,0,1-3-5.916l2.2-3.015a3.724,3.724,0,0,1,6.02,4.385l-2.2,3.015h0a3.722,3.722,0,0,1-3.015,1.53Zm2.2-8.387a1.649,1.649,0,0,0-1.335.677l-2.2,3.015a1.65,1.65,0,0,0,2.667,1.942l2.2-3.015a1.649,1.649,0,0,0-1.33-2.621Zm-.027,6.247Z" transform="translate(-226.172 -348.151)" fill="#4dd0e1"/>
      <path id="Trazado_193819" data-name="Trazado 193819" d="M77.224,150.636a1.039,1.039,0,0,1-.64-.221l-6.968-5.462a1.037,1.037,0,1,1,1.28-1.632l6.091,4.776,12.389-18.364-5.884-4.105a1.038,1.038,0,1,1,1.188-1.7l6.722,4.69a1.037,1.037,0,0,1,.266,1.431L78.085,150.18a1.036,1.036,0,0,1-.7.445.979.979,0,0,1-.161.013Z" transform="translate(-69.219 -123.738)" fill="#4dd0e1"/>
      <path id="Trazado_193820" data-name="Trazado 193820" d="M416.365,151.342a1.038,1.038,0,0,1-.963-.652l-9.036-22.544a1.037,1.037,0,0,1,.594-1.355l7.853-2.992a1.037,1.037,0,0,1,.738,1.938l-6.867,2.616,8.257,20.6,7.524-3.023a1.038,1.038,0,0,1,.774,1.925l-8.488,3.41a1.035,1.035,0,0,1-.387.075Z" transform="translate(-362.969 -123.731)" fill="#4dd0e1"/>
    </g>
  </g>
</svg>
