<svg xmlns="http://www.w3.org/2000/svg" xmlns:xlink="http://www.w3.org/1999/xlink" width="511.795" height="334.126" viewBox="0 0 511.795 334.126">
  <defs>
    <linearGradient id="linear-gradient" x1="-229.072" y1="-0.599" x2="-230.285" y2="1.426" gradientUnits="objectBoundingBox">
      <stop offset="0" stop-color="#b37cff"/>
      <stop offset="1" stop-color="#f895e7"/>
    </linearGradient>
    <linearGradient id="linear-gradient-2" y1="0.5" x2="1" y2="0.5" gradientUnits="objectBoundingBox">
      <stop offset="0" stop-color="#dae3fe"/>
      <stop offset="1" stop-color="#e9effd"/>
    </linearGradient>
    <linearGradient id="linear-gradient-3" x1="2.234" y1="-24.619" x2="0.571" y2="-0.563" gradientUnits="objectBoundingBox">
      <stop offset="0" stop-color="#ff928e"/>
      <stop offset="1" stop-color="#feb3b1"/>
    </linearGradient>
    <linearGradient id="linear-gradient-4" x1="0.559" y1="-1.495" x2="0.509" y2="0.214" xlink:href="#linear-gradient-3"/>
    <linearGradient id="linear-gradient-5" x1="0.651" y1="-4.752" x2="0.572" y2="-1.988" xlink:href="#linear-gradient-3"/>
    <linearGradient id="linear-gradient-6" x1="0.018" y1="-2.192" x2="0.982" y2="3.192" gradientUnits="objectBoundingBox">
      <stop offset="0" stop-color="#09005d"/>
      <stop offset="1" stop-color="#1a0f91"/>
    </linearGradient>
    <linearGradient id="linear-gradient-7" x1="0.015" y1="-0.746" x2="0.988" y2="1.685" xlink:href="#linear-gradient-6"/>
    <linearGradient id="linear-gradient-8" x1="0.016" y1="-0.794" x2="0.988" y2="1.735" xlink:href="#linear-gradient-6"/>
    <linearGradient id="linear-gradient-9" x1="519.793" y1="-212.24" x2="520.976" y2="-212.24" xlink:href="#linear-gradient-3"/>
    <linearGradient id="linear-gradient-10" x1="-580.231" y1="-2092.094" x2="-579.723" y2="-2092.094" xlink:href="#linear-gradient-3"/>
    <linearGradient id="linear-gradient-11" x1="-1048.46" y1="127.68" x2="-1047.393" y2="127.877" xlink:href="#linear-gradient-3"/>
    <linearGradient id="linear-gradient-12" x1="-142.44" y1="0.406" x2="-141.79" y2="1.82" xlink:href="#linear-gradient-6"/>
    <linearGradient id="linear-gradient-13" x1="-136.575" y1="0.445" x2="-135.842" y2="0.561" xlink:href="#linear-gradient-6"/>
    <linearGradient id="linear-gradient-14" x1="173.15" y1="48.758" x2="170.299" y2="52.865" xlink:href="#linear-gradient-3"/>
    <linearGradient id="linear-gradient-15" x1="-26.374" y1="398.572" x2="-27.5" y2="399.854" xlink:href="#linear-gradient-3"/>
    <linearGradient id="linear-gradient-16" x1="-19.173" y1="262.372" x2="-18.216" y2="262.372" gradientUnits="objectBoundingBox">
      <stop offset="0" stop-color="#2b3582"/>
      <stop offset="1" stop-color="#150e42"/>
    </linearGradient>
    <linearGradient id="linear-gradient-17" x1="-78.856" y1="1297.174" x2="-76.306" y2="1294.579" xlink:href="#linear-gradient-3"/>
    <linearGradient id="linear-gradient-18" x1="-1274.411" y1="0.439" x2="-1273.302" y2="0.564" xlink:href="#linear-gradient-3"/>
    <linearGradient id="linear-gradient-19" x1="133.662" y1="77.896" x2="133.62" y2="75.494" xlink:href="#linear-gradient-6"/>
    <linearGradient id="linear-gradient-20" x1="324.08" y1="44.936" x2="324.593" y2="49.028" xlink:href="#linear-gradient-6"/>
    <linearGradient id="linear-gradient-21" x1="133.72" y1="79.022" x2="133.678" y2="76.621" xlink:href="#linear-gradient-6"/>
    <linearGradient id="linear-gradient-22" x1="314.335" y1="42.06" x2="314.832" y2="45.837" xlink:href="#linear-gradient-6"/>
    <linearGradient id="linear-gradient-23" x1="80.773" y1="20.127" x2="80.524" y2="22.245" xlink:href="#linear-gradient-6"/>
  </defs>
  <g id="Grupo_146526" data-name="Grupo 146526" transform="translate(-7729.23 -4691)">
    <g id="_1h" data-name="1h" transform="translate(7683.27 4596.723)">
      <g id="Grupo_141239" data-name="Grupo 141239" transform="translate(378.836 251.585)" opacity="0.7">
        <path id="Trazado_192619" data-name="Trazado 192619" d="M415.01,315.312a.351.351,0,0,0,.2.361l3.861,1.876a18.652,18.652,0,0,0,1.633,5.845L418.365,327a.353.353,0,0,0,.018.406l3.184,4.059a.366.366,0,0,0,.4.117l4.059-1.407a18.683,18.683,0,0,0,5.286,2.977l.9,4.2a.366.366,0,0,0,.307.28l5.114.622a.351.351,0,0,0,.361-.2l1.876-3.861a18.653,18.653,0,0,0,5.845-1.633l3.608,2.336a.353.353,0,0,0,.406-.018l4.059-3.184a.366.366,0,0,0,.117-.4l-1.407-4.059a18.683,18.683,0,0,0,2.977-5.286l4.2-.9a.355.355,0,0,0,.28-.307l.622-5.114a.351.351,0,0,0-.2-.361l-3.861-1.876a18.653,18.653,0,0,0-1.633-5.845l2.336-3.608a.353.353,0,0,0-.018-.406l-3.184-4.059a.366.366,0,0,0-.4-.117l-4.059,1.407a18.683,18.683,0,0,0-5.286-2.977l-.9-4.2a.365.365,0,0,0-.307-.28l-5.114-.622a.351.351,0,0,0-.361.2l-1.876,3.861a18.652,18.652,0,0,0-5.845,1.633l-3.608-2.336a.353.353,0,0,0-.406.018l-4.059,3.184a.366.366,0,0,0-.117.4l1.407,4.059a18.683,18.683,0,0,0-2.977,5.286l-4.2.9a.355.355,0,0,0-.28.307Zm18.509-1.479a4.577,4.577,0,1,1,2.625,5.917A4.574,4.574,0,0,1,433.518,313.832Z" transform="translate(-415.007 -271.032)" fill="#91b3fa"/>
        <path id="Trazado_192620" data-name="Trazado 192620" d="M451.779,281.236a.2.2,0,0,0,.108.2l2.147,1.046a10.465,10.465,0,0,0,.9,3.247l-1.3,2a.189.189,0,0,0,.009.225l1.768,2.255a.2.2,0,0,0,.216.063l2.255-.776a10.539,10.539,0,0,0,2.931,1.66l.5,2.336a.192.192,0,0,0,.171.153l2.841.343a.2.2,0,0,0,.2-.108l1.046-2.147a10.468,10.468,0,0,0,3.247-.9l2,1.3a.189.189,0,0,0,.225-.009l2.255-1.768a.2.2,0,0,0,.063-.216l-.776-2.255a10.537,10.537,0,0,0,1.66-2.931l2.336-.505a.192.192,0,0,0,.153-.171l.343-2.841a.2.2,0,0,0-.108-.2l-2.147-1.046a10.469,10.469,0,0,0-.9-3.247l1.3-2a.189.189,0,0,0-.009-.225l-1.768-2.255a.2.2,0,0,0-.216-.063l-2.255.776a10.539,10.539,0,0,0-2.931-1.66l-.505-2.336a.192.192,0,0,0-.171-.153l-2.841-.343a.2.2,0,0,0-.2.108l-1.046,2.147a10.468,10.468,0,0,0-3.247.9l-2-1.3a.189.189,0,0,0-.225.009l-2.255,1.768a.2.2,0,0,0-.063.216l.776,2.255a10.538,10.538,0,0,0-1.66,2.931l-2.336.5a.192.192,0,0,0-.153.171l-.343,2.841Zm10.283-.821a2.541,2.541,0,1,1,1.461,3.283A2.543,2.543,0,0,1,462.062,280.415Z" transform="translate(-418.61 -268.679)" fill="url(#linear-gradient)"/>
        <g id="Grupo_141238" data-name="Grupo 141238" transform="translate(31.716 9.934)">
          <path id="Trazado_192621" data-name="Trazado 192621" d="M450.179,352.76a1.153,1.153,0,0,0,.631,1.164l12.474,6.07a60.707,60.707,0,0,0,5.268,18.87l-7.541,11.663a1.14,1.14,0,0,0,.063,1.326l10.274,13.106a1.159,1.159,0,0,0,1.272.379l13.124-4.537a60.612,60.612,0,0,0,17.066,9.633L505.723,424a1.131,1.131,0,0,0,.974.893l16.533,2a1.153,1.153,0,0,0,1.164-.631l6.07-12.474a60.705,60.705,0,0,0,18.87-5.268L561,416.062a1.14,1.14,0,0,0,1.326-.063l13.106-10.274a1.159,1.159,0,0,0,.379-1.272l-4.537-13.124a60.611,60.611,0,0,0,9.633-17.066l13.566-2.913a1.13,1.13,0,0,0,.893-.974l2-16.533a1.153,1.153,0,0,0-.631-1.164l-12.475-6.07a60.827,60.827,0,0,0-5.268-18.879l7.541-11.663a1.14,1.14,0,0,0-.063-1.326L576.2,301.636a1.159,1.159,0,0,0-1.272-.379L561.8,305.794a60.611,60.611,0,0,0-17.066-9.633l-2.913-13.566a1.131,1.131,0,0,0-.974-.893l-16.533-2a1.153,1.153,0,0,0-1.164.631l-6.07,12.474a60.829,60.829,0,0,0-18.879,5.268l-11.663-7.541a1.14,1.14,0,0,0-1.326.063l-13.106,10.274a1.159,1.159,0,0,0-.379,1.272l4.537,13.124a60.612,60.612,0,0,0-9.633,17.066l-13.566,2.913a1.131,1.131,0,0,0-.893.974l-2,16.533Zm59.8-4.781A14.791,14.791,0,1,1,518.46,367.1,14.79,14.79,0,0,1,509.981,347.98Z" transform="translate(-450.17 -279.692)" fill="#91b3fa"/>
          <g id="Grupo_141237" data-name="Grupo 141237" transform="translate(24.352 24.081)">
            <path id="Trazado_192622" data-name="Trazado 192622" d="M537.656,396.62a1.181,1.181,0,0,1-.893-.415l-.749-.884a.544.544,0,1,1,.83-.7l.749.884a.44.44,0,0,0,.063.027l.749-.289a.543.543,0,1,1,.4,1.01l-.722.28a1.142,1.142,0,0,1-.424.081Zm-21.774-.5a1.183,1.183,0,0,1-.469-.1l-1.29-.568a.541.541,0,0,1,.433-.992l1.29.568a.164.164,0,0,0,.1-.018l.352-.388a.542.542,0,1,1,.794.74l-.352.388A1.173,1.173,0,0,1,515.882,396.124Zm25.247-.8a.542.542,0,0,1-.2-1.046l2.526-.974a.543.543,0,1,1,.4,1.01l-2.526.974a.486.486,0,0,1-.2.036Zm-29.261-.9a.62.62,0,0,1-.216-.045l-2.471-1.091a.541.541,0,1,1,.433-.992l2.471,1.091a.541.541,0,0,1-.216,1.037Zm6.666-.857a.532.532,0,0,1-.37-.144.542.542,0,0,1-.027-.767l1.84-1.984a.542.542,0,1,1,.794.74l-1.84,1.984A.533.533,0,0,1,518.534,393.562Zm16.155-.108a.544.544,0,0,1-.415-.189l-1.75-2.066a.544.544,0,1,1,.83-.7l1.75,2.066a.552.552,0,0,1-.063.767.513.513,0,0,1-.352.126Zm11.482-.09a.542.542,0,0,1-.2-1.046l.234-.09s.054-.045.054-.081l-.063-1.687a.543.543,0,0,1,.523-.559.526.526,0,0,1,.559.523l.063,1.678a1.161,1.161,0,0,1-.74,1.127l-.235.09a.486.486,0,0,1-.2.036Zm-39.209-1.245a.512.512,0,0,1-.442-.244,1.159,1.159,0,0,1-.162-.6v-.1l.2-2.3a.543.543,0,1,1,1.082.09l-.189,2.309a.573.573,0,0,1-.18.767.592.592,0,0,1-.3.081Zm20.962-1.209a.535.535,0,0,1-.541-.532.549.549,0,0,1,.532-.55c.884,0,1.777-.054,2.661-.135a.539.539,0,0,1,.1,1.073c-.911.081-1.84.126-2.742.135h0Zm-2.706-.081h-.036c-.92-.063-1.831-.171-2.733-.316a.543.543,0,0,1,.171-1.073c.866.135,1.759.235,2.643.3a.531.531,0,0,1,.5.577.542.542,0,0,1-.541.505Zm21.422-2.544a.539.539,0,0,1-.541-.523l-.1-2.706a.543.543,0,0,1,.523-.559.532.532,0,0,1,.559.523l.1,2.706a.543.543,0,0,1-.523.559Zm-39.318-1.524h-.045a.544.544,0,0,1-.5-.586l.2-2.336a.532.532,0,0,1,.036-.6.544.544,0,0,1,.758-.1l.3.226v.316l-.216,2.58a.548.548,0,0,1-.541.5Zm40.95-2.995a.541.541,0,0,1-.334-.965c.695-.541,1.371-1.128,2.02-1.723a.542.542,0,0,1,.74.794c-.677.622-1.38,1.218-2.093,1.786a.52.52,0,0,1-.334.117Zm-42.917-1.38a.544.544,0,0,1-.361-.135c-.676-.6-1.344-1.254-1.966-1.912a.542.542,0,0,1,.785-.749c.6.64,1.254,1.263,1.9,1.858a.541.541,0,0,1-.361.947Zm46.876-2.291a.546.546,0,0,1-.406-.911c.6-.649,1.173-1.335,1.714-2.029a.54.54,0,0,1,.857.658c-.559.722-1.155,1.425-1.777,2.1a.533.533,0,0,1-.4.171Zm-24.426-.568h-.64a.538.538,0,0,1-.523-.559.517.517,0,0,1,.559-.523,19.726,19.726,0,0,0,2.634-.09.531.531,0,0,1,.586.487.537.537,0,0,1-.487.586c-.7.063-1.416.1-2.12.1Zm-3.319-.253h-.081a21.262,21.262,0,0,1-2.706-.586.54.54,0,0,1,.3-1.037,23.055,23.055,0,0,0,2.58.559.54.54,0,0,1-.081,1.073Zm8.064-.262a.543.543,0,0,1-.117-1.073,22.007,22.007,0,0,0,2.535-.722.53.53,0,0,1,.686.334.543.543,0,0,1-.334.695,22.4,22.4,0,0,1-2.661.758c-.036,0-.081.009-.117.009Zm-30.911-.541a.558.558,0,0,1-.424-.2c-.487-.6-.956-1.236-1.407-1.876a.533.533,0,0,1-.379-.5.543.543,0,0,1,.523-.559l.433-.018.171.244c.478.695.983,1.38,1.506,2.029a.533.533,0,0,1-.081.758A.527.527,0,0,1,501.64,378.472Zm60.28-.2h-.1a.551.551,0,0,1-.487-.6.535.535,0,0,1,.577-.487.073.073,0,0,0,.081-.054l.776-1.768a.541.541,0,1,1,.992.433l-.776,1.768a1.165,1.165,0,0,1-1.064.695Zm-2.742-.226h-.045l-2.7-.225a.543.543,0,1,1,.09-1.082l2.7.225a.542.542,0,0,1-.045,1.082Zm-39.877-.234a.411.411,0,0,1-.207-.045l-.379-.162a21.854,21.854,0,0,1-2.1-1.064.542.542,0,1,1,.541-.938c.649.37,1.317.7,2,1.01.117.054.244.108.361.153a.54.54,0,0,1,.289.713.546.546,0,0,1-.5.334Zm18.346-.6a.549.549,0,0,1-.487-.3.53.53,0,0,1,.244-.722,20.506,20.506,0,0,0,2.282-1.317.54.54,0,1,1,.6.9,22.626,22.626,0,0,1-2.4,1.38.6.6,0,0,1-.244.054Zm-43.079-.6a.541.541,0,0,1-.018-1.082l2.706-.1a.521.521,0,0,1,.559.523.543.543,0,0,1-.523.559l-2.706.1Zm-2.616-.208a.536.536,0,0,1-.442-.234,1.072,1.072,0,0,1-.117-.226l-.929-2.39a.543.543,0,1,1,1.01-.4l.929,2.39a.54.54,0,0,1-.144.758A.562.562,0,0,1,491.952,376.415Zm22.667-1.281a.561.561,0,0,1-.325-.108,21.117,21.117,0,0,1-2.111-1.795.542.542,0,1,1,.749-.785,21.371,21.371,0,0,0,2.011,1.7.541.541,0,0,1-.325.974Zm27.538-.884a.544.544,0,0,1-.415-.189.553.553,0,0,1,.063-.767,20.169,20.169,0,0,0,1.894-1.831.543.543,0,1,1,.8.731,22.281,22.281,0,0,1-1.993,1.921.513.513,0,0,1-.352.126Zm22.225-.586a.62.62,0,0,1-.216-.045.547.547,0,0,1-.28-.713l1.091-2.471a.541.541,0,1,1,.992.433l-1.091,2.471A.552.552,0,0,1,564.382,373.664Zm-53.65-2.264a.572.572,0,0,1-.424-.2c-.316-.388-.622-.794-.911-1.2a.543.543,0,1,1,.884-.631c.271.388.568.767.866,1.146a.534.534,0,0,1-.081.758.544.544,0,0,1-.343.117ZM490,371.4a.548.548,0,0,1-.505-.343l-.974-2.526a.543.543,0,0,1,1.01-.4l.974,2.526a.543.543,0,0,1-.307.7A.486.486,0,0,1,490,371.4Zm55.806-1.118a.591.591,0,0,1-.316-.1.546.546,0,0,1-.126-.758,22,22,0,0,0,1.389-2.237.539.539,0,0,1,.947.514,23.3,23.3,0,0,1-1.461,2.354.551.551,0,0,1-.442.225Zm20.141-1.524a.532.532,0,0,1-.37-.144l-1.984-1.84a.542.542,0,1,1,.74-.794l1.984,1.84a.542.542,0,0,1,.027.767A.533.533,0,0,1,565.943,368.757ZM489.364,366.6a.544.544,0,0,1-.415-.189.552.552,0,0,1,.063-.767l2.066-1.75a.544.544,0,1,1,.7.83l-2.066,1.75a.56.56,0,0,1-.352.126Zm59-1.064a.514.514,0,0,1-.2-.036.543.543,0,0,1-.307-.7,20.84,20.84,0,0,0,.812-2.508.535.535,0,0,1,.658-.388.541.541,0,0,1,.388.658,22.387,22.387,0,0,1-.848,2.634.535.535,0,0,1-.505.343Zm13.611-.451a.533.533,0,0,1-.37-.144l-1.732-1.606.054-.3.108-.622a.54.54,0,1,1,1.064.18c-.018.117-.036.235-.063.343l1.3,1.2a.542.542,0,0,1,.027.767.533.533,0,0,1-.4.171Zm-68.479-1.975a.544.544,0,0,1-.415-.189.552.552,0,0,1,.063-.767l.866-.74c-.045-.325-.081-.658-.117-.983a.544.544,0,0,1,1.082-.108c.045.415.09.83.153,1.236l.045.3-1.326,1.118a.56.56,0,0,1-.352.126Zm67.415-2.742h-.045a.544.544,0,0,1-.5-.586c.072-.884.117-1.777.117-2.661a.543.543,0,0,1,.541-.541h0a.543.543,0,0,1,.541.541c0,.911-.045,1.84-.117,2.742a.547.547,0,0,1-.541.5Zm-11.212-.054h-.072a.539.539,0,0,1-.469-.6,21.293,21.293,0,0,0,.171-2.634.543.543,0,0,1,.541-.541h0a.543.543,0,0,1,.541.541,21.709,21.709,0,0,1-.18,2.76.542.542,0,0,1-.532.469Zm-55.436-2.084a.541.541,0,0,1-.541-.532V357c0-.676.018-1.371.063-2.047a.541.541,0,0,1,.568-.505.536.536,0,0,1,.505.568c-.036.658-.063,1.326-.063,1.984v.677a.543.543,0,0,1-.532.55h-.009Zm66.657-3.265a.548.548,0,0,1-.541-.5c-.054-.667-.126-1.335-.216-1.993l-.045-.3.74-.622a.544.544,0,1,1,.7.83l-.28.234c.081.586.144,1.182.189,1.768a.544.544,0,0,1-.5.586h-.045Zm-11.194-.045a.53.53,0,0,1-.532-.478,21.5,21.5,0,0,0-.469-2.6.544.544,0,1,1,1.055-.262,23.328,23.328,0,0,1,.5,2.724.546.546,0,0,1-.469.6h-.063Zm-43.494-1.84a.611.611,0,0,1-.108-.009.551.551,0,0,1-.424-.64,24.252,24.252,0,0,1,.722-2.67.542.542,0,1,1,1.028.343,20.755,20.755,0,0,0-.686,2.544A.549.549,0,0,1,506.231,353.081Zm-11.627-.253h-.081a.54.54,0,0,1-.46-.613c.054-.37.117-.749.18-1.118l-.731-.677a.542.542,0,0,1,.74-.794l1.164,1.082-.054.3c-.081.46-.162.911-.225,1.371a.534.534,0,0,1-.532.46Zm68.668-2.075a.544.544,0,0,1-.415-.189.552.552,0,0,1,.063-.767l2.066-1.75a.544.544,0,0,1,.7.83l-2.066,1.75a.56.56,0,0,1-.352.126Zm-14.838-1.082a.543.543,0,0,1-.505-.352,23.072,23.072,0,0,0-1.082-2.408.541.541,0,0,1,.956-.505,21.174,21.174,0,0,1,1.136,2.526.534.534,0,0,1-.316.695.47.47,0,0,1-.189.036Zm-56.546-.956a.533.533,0,0,1-.37-.144l-1.984-1.84a.542.542,0,0,1,.74-.794l1.984,1.84a.542.542,0,0,1,.027.767A.533.533,0,0,1,491.889,348.715Zm16.055-.758a.526.526,0,0,1-.235-.054.541.541,0,0,1-.253-.722,21.74,21.74,0,0,1,1.344-2.417.542.542,0,1,1,.911.586,22.948,22.948,0,0,0-1.281,2.3.532.532,0,0,1-.487.307Zm58.6-1.01a.548.548,0,0,1-.505-.343l-.974-2.526a.543.543,0,0,1,1.01-.4l.974,2.526a.542.542,0,0,1-.307.7.486.486,0,0,1-.2.036ZM545.919,344.9a.525.525,0,0,1-.442-.234,20.025,20.025,0,0,0-1.633-2.066.543.543,0,1,1,.812-.722,22.134,22.134,0,0,1,1.714,2.174.542.542,0,0,1-.442.848Zm-56.41-.289a.62.62,0,0,1-.216-.045.547.547,0,0,1-.28-.713l1.091-2.471a.541.541,0,0,1,.992.433L490,344.286A.552.552,0,0,1,489.508,344.611Zm21.35-1.2a.542.542,0,0,1-.415-.884,22.287,22.287,0,0,1,1.894-2.02.542.542,0,0,1,.74.794,20.187,20.187,0,0,0-1.8,1.921.553.553,0,0,1-.415.2ZM564.59,341.9a.548.548,0,0,1-.505-.343l-.974-2.526a.543.543,0,1,1,1.01-.4l.974,2.526a.543.543,0,0,1-.307.7.486.486,0,0,1-.2.036Zm-22.279-1.028a.522.522,0,0,1-.352-.135,20.1,20.1,0,0,0-2.093-1.606.539.539,0,0,1-.144-.749.53.53,0,0,1,.749-.144,22.223,22.223,0,0,1,2.2,1.687.546.546,0,0,1-.352.956Zm-27.52-1.164a.512.512,0,0,1-.433-.225.538.538,0,0,1,.117-.758,23.216,23.216,0,0,1,2.327-1.5.543.543,0,0,1,.532.947,21.1,21.1,0,0,0-2.219,1.425.534.534,0,0,1-.316.108Zm-23.1-.054a.62.62,0,0,1-.216-.045.546.546,0,0,1-.28-.713l1.091-2.471a1.165,1.165,0,0,1,1.064-.695h.1l.767.072a.543.543,0,1,1-.09,1.082l-.767-.063s-.072.018-.081.054l-1.091,2.471a.552.552,0,0,1-.5.325Zm63.2-.974-.171-.244c-.334-.478-.676-.965-1.037-1.434a.54.54,0,1,1,.857-.658c.307.406.613.812.9,1.227l.613-.027a.537.537,0,0,1,.559.523.543.543,0,0,1-.523.559l-1.209.045Zm3.888-.144a.541.541,0,0,1-.018-1.082l2.706-.1a.521.521,0,0,1,.559.523.543.543,0,0,1-.523.559l-2.706.1Zm-20.935-.686a.491.491,0,0,1-.244-.063c-.361-.18-.722-.352-1.091-.514-.433-.189-.884-.37-1.326-.532a.542.542,0,1,1,.37-1.019c.469.171.929.361,1.389.559.388.171.776.352,1.146.541a.545.545,0,0,1-.244,1.028Zm-38.271-.532h-.045l-2.7-.225a.543.543,0,0,1,.09-1.082l2.7.225a.542.542,0,0,1-.045,1.082Zm19.943-.244a.549.549,0,0,1-.505-.334.538.538,0,0,1,.3-.7,20.4,20.4,0,0,1,2.625-.884.543.543,0,0,1,.289,1.046,20.368,20.368,0,0,0-2.5.848.53.53,0,0,1-.207.036Zm-17.724-.64a.545.545,0,0,1-.343-.117.535.535,0,0,1-.081-.758c.577-.7,1.191-1.4,1.822-2.057a.542.542,0,1,1,.785.749c-.613.64-1.209,1.308-1.759,1.993a.529.529,0,0,1-.424.2ZM532.786,336a.439.439,0,0,1-.126-.018,21.371,21.371,0,0,0-2.6-.433.54.54,0,0,1,.117-1.073,23.666,23.666,0,0,1,2.733.46.546.546,0,0,1,.406.649.53.53,0,0,1-.523.415Zm-8.064-.343a.539.539,0,0,1-.072-1.073,21.75,21.75,0,0,1,2.76-.225.555.555,0,0,1,.55.532.543.543,0,0,1-.532.55,21.311,21.311,0,0,0-2.625.216h-.081Zm27.673-.523a.563.563,0,0,1-.406-.18c-.6-.658-1.218-1.29-1.867-1.9a.542.542,0,1,1,.74-.794c.668.622,1.317,1.281,1.921,1.957a.546.546,0,0,1-.4.911Zm-46.858-2.6a.541.541,0,0,1-.361-.947c.686-.6,1.4-1.191,2.129-1.732a.541.541,0,0,1,.649.866c-.7.532-1.4,1.091-2.066,1.678a.544.544,0,0,1-.361.135Zm42.926-1.1a.521.521,0,0,1-.334-.117c-.225-.18-.46-.361-.685-.532l-.235-.18.18-2.111a.543.543,0,0,1,1.082.09l-.126,1.515.478.37a.541.541,0,0,1-.334.965Zm-39.733-2.715a.539.539,0,0,1-.541-.523l-.1-2.706a.543.543,0,0,1,.523-.559.527.527,0,0,1,.559.523l.1,2.706a.543.543,0,0,1-.523.559Zm39.408-2.336h-.045a.544.544,0,0,1-.5-.586l.225-2.7a.533.533,0,0,1,.586-.5.544.544,0,0,1,.5.586l-.225,2.7a.547.547,0,0,1-.541.5Zm-14.612-1.7h-.1c-.866-.153-1.75-.28-2.634-.361a.539.539,0,0,1,.1-1.073c.911.09,1.831.216,2.724.379a.541.541,0,0,1-.1,1.073Zm-10.68-.406a.544.544,0,0,1-.415-.189l-1.75-2.066a.544.544,0,1,1,.83-.7l1.75,2.066a.553.553,0,0,1-.063.767.513.513,0,0,1-.352.126Zm2.589-.036a.542.542,0,0,1-.036-1.082c.92-.063,1.84-.081,2.751-.072a.541.541,0,0,1-.009,1.082h0c-.875-.018-1.777.009-2.661.072h-.036Zm-16.921-.92a.539.539,0,0,1-.541-.523l-.036-.911a1.2,1.2,0,0,1,.749-1.136l.947-.37a.543.543,0,0,1,.4,1.01l-.947.37s-.054.045-.054.081l.036.911a.543.543,0,0,1-.523.559h-.018Zm26.915-.379a.533.533,0,0,1-.37-.144.542.542,0,0,1-.027-.767l1.84-1.984a.542.542,0,0,1,.794.74l-1.84,1.984A.533.533,0,0,1,535.428,322.936Zm11.167-.866a.621.621,0,0,1-.216-.045l-2.471-1.091a.541.541,0,0,1,.433-.992l2.471,1.091a.546.546,0,0,1,.28.713A.552.552,0,0,1,546.6,322.07Zm-34.24-1.615a.548.548,0,0,1-.505-.343.543.543,0,0,1,.307-.7l2.526-.974a.543.543,0,1,1,.4,1.01l-2.526.974a.486.486,0,0,1-.2.036Zm6.99-.307a.544.544,0,0,1-.415-.189l-1.245-1.47a.44.44,0,0,0-.063-.027l-.424-1a1.177,1.177,0,0,1,1.317.334l1.245,1.47a.552.552,0,0,1-.063.767.513.513,0,0,1-.352.126Zm22.3-.271a.62.62,0,0,1-.216-.045l-1.993-.875a.576.576,0,0,1-.749-.271.521.521,0,0,1,.234-.713,1.156,1.156,0,0,1,.947,0l1.993.875a.541.541,0,0,1-.216,1.037Z" transform="translate(-478.276 -307.467)" fill="#bdd0fb"/>
            <path id="Trazado_192623" data-name="Trazado 192623" d="M530.94,369a8.669,8.669,0,0,1-1.993-.234.542.542,0,0,1,.243-1.055,7.549,7.549,0,0,0,2.508.162.544.544,0,1,1,.108,1.082c-.289.027-.577.045-.875.045Zm3.419-.749a.531.531,0,0,1-.487-.316.552.552,0,0,1,.262-.722,7.559,7.559,0,0,0,2.075-1.416.542.542,0,0,1,.767.018.55.55,0,0,1-.009.767,8.53,8.53,0,0,1-2.372,1.624.516.516,0,0,1-.225.054Zm-7.766-.514a.56.56,0,0,1-.289-.081,7.042,7.042,0,0,1-.676-.478,8.793,8.793,0,0,1-1.452-1.443.54.54,0,0,1,.848-.667,7.658,7.658,0,0,0,1.272,1.263,7.081,7.081,0,0,0,.6.424.545.545,0,0,1-.3,1Zm11.591-3.166a.49.49,0,0,1-.244-.063.539.539,0,0,1-.234-.731,7.222,7.222,0,0,0,.749-2.4.547.547,0,0,1,.613-.46.54.54,0,0,1,.46.613,8.828,8.828,0,0,1-.857,2.742.546.546,0,0,1-.478.3Zm-14.892-.992a.542.542,0,0,1-.514-.361,8.656,8.656,0,0,1-.487-2.832.543.543,0,0,1,.541-.541h0a.543.543,0,0,1,.541.541,7.506,7.506,0,0,0,.424,2.48.541.541,0,0,1-.334.686.627.627,0,0,1-.18.027Zm15.613-4.266a.549.549,0,0,1-.532-.433,7.471,7.471,0,0,0-.893-2.345.54.54,0,0,1,.929-.55,8.588,8.588,0,0,1,1.019,2.688.542.542,0,0,1-.424.631c-.036,0-.072.009-.108.009Zm-15.631-1.046a.567.567,0,0,1-.171-.027.54.54,0,0,1-.334-.686,8.6,8.6,0,0,1,1.371-2.526,8.378,8.378,0,0,1,1.75-1.687.542.542,0,1,1,.64.875,7.621,7.621,0,0,0-2.733,3.689.55.55,0,0,1-.514.37Zm12.953-3.536a.56.56,0,0,1-.352-.126c-.09-.072-.171-.144-.262-.216a7.692,7.692,0,0,0-1.885-1.082.543.543,0,0,1,.4-1.01,8.684,8.684,0,0,1,2.156,1.236c.1.081.207.162.3.244a.552.552,0,0,1,.063.767.544.544,0,0,1-.415.189Zm-7.613-1.606a.53.53,0,0,1-.514-.388.538.538,0,0,1,.361-.676,8.749,8.749,0,0,1,2.85-.361.541.541,0,0,1-.018,1.082h-.018a7.794,7.794,0,0,0-2.5.316.5.5,0,0,1-.153.027Z" transform="translate(-481.59 -310.83)" fill="#bdd0fb"/>
            <g id="Grupo_141235" data-name="Grupo 141235" transform="translate(7.165 55.089)">
              <path id="Trazado_192624" data-name="Trazado 192624" d="M486.373,391.468a.517.517,0,0,1-.451-.243c-.253-.379-.5-.767-.731-1.155a.543.543,0,1,1,.92-.577c.235.379.478.758.722,1.127a.546.546,0,0,1-.153.749.523.523,0,0,1-.3.09Z" transform="translate(-485.111 -369.6)" fill="#bdd0fb"/>
              <path id="Trazado_192625" data-name="Trazado 192625" d="M527.525,411.852c-.6,0-1.218-.009-1.822-.036a.541.541,0,1,1,.036-1.082c.9.036,1.813.045,2.715.027a.541.541,0,1,1,.018,1.082h-.947Zm3.671-.135a.548.548,0,0,1-.541-.505.537.537,0,0,1,.5-.577c.9-.063,1.8-.162,2.7-.28a.533.533,0,0,1,.6.469.54.54,0,0,1-.469.6c-.911.117-1.84.216-2.76.28h-.045Zm-8.217-.072h-.054c-.92-.081-1.84-.2-2.751-.334a.538.538,0,1,1,.162-1.064c.893.135,1.795.244,2.688.325a.538.538,0,0,1-.054,1.073Zm13.656-.64a.548.548,0,0,1-.532-.442.537.537,0,0,1,.433-.631c.884-.171,1.777-.361,2.652-.577a.544.544,0,0,1,.262,1.055c-.893.216-1.8.415-2.706.586-.036,0-.063.009-.1.009Zm-19.077-.171a.615.615,0,0,1-.108-.009c-.9-.189-1.813-.406-2.7-.64a.537.537,0,0,1,.28-1.037c.866.235,1.759.442,2.643.622a.542.542,0,0,1-.108,1.073Zm24.4-1.137a.539.539,0,0,1-.153-1.055c.866-.262,1.732-.559,2.571-.866a.539.539,0,1,1,.379,1.01c-.857.316-1.741.613-2.625.884a.51.51,0,0,1-.162.027Zm-29.693-.28a.38.38,0,0,1-.171-.027c-.875-.289-1.759-.6-2.607-.938a.543.543,0,0,1,.4-1.01c.839.325,1.7.64,2.553.92a.542.542,0,0,1-.171,1.055Zm34.835-1.624a.541.541,0,0,1-.216-1.037c.83-.361,1.651-.749,2.453-1.146a.545.545,0,0,1,.487.974c-.821.415-1.669.812-2.508,1.173a.62.62,0,0,1-.216.045Zm-39.94-.379a.669.669,0,0,1-.225-.045c-.839-.388-1.669-.794-2.49-1.227a.546.546,0,0,1-.226-.731.538.538,0,0,1,.731-.225c.794.424,1.615.83,2.435,1.2a.545.545,0,0,1-.234,1.037ZM552,405.33a.541.541,0,0,1-.271-1.01c.785-.451,1.56-.929,2.309-1.416a.54.54,0,0,1,.6.9c-.767.505-1.56.992-2.363,1.452a.578.578,0,0,1-.271.072Zm-49.691-.487a.528.528,0,0,1-.28-.081c-.785-.478-1.569-.974-2.336-1.5a.539.539,0,0,1,.6-.893c.749.505,1.515,1,2.282,1.461a.54.54,0,0,1-.28,1Zm54.282-2.508a.526.526,0,0,1-.433-.216.537.537,0,0,1,.117-.758c.722-.532,1.443-1.091,2.138-1.669a.538.538,0,1,1,.686.83c-.713.586-1.443,1.164-2.183,1.7a.534.534,0,0,1-.316.108Zm-58.81-.577a.522.522,0,0,1-.325-.108l-.352-.271c-.6-.469-1.209-.965-1.8-1.47a.544.544,0,1,1,.7-.83c.577.5,1.164.974,1.759,1.443l.343.271a.544.544,0,0,1,.1.758.556.556,0,0,1-.433.207Zm63.031-2.913a.533.533,0,0,1-.4-.171.542.542,0,0,1,.027-.767c.658-.613,1.308-1.254,1.939-1.894a.55.55,0,0,1,.767-.018.542.542,0,0,1,.018.767c-.64.658-1.308,1.317-1.975,1.939a.533.533,0,0,1-.37.144Zm-67.2-.658a.564.564,0,0,1-.379-.153q-1-.961-1.948-1.975a.542.542,0,1,1,.794-.74c.613.658,1.254,1.308,1.9,1.93a.542.542,0,0,1,.018.767.555.555,0,0,1-.388.162Zm71-3.292a.522.522,0,0,1-.352-.135.543.543,0,0,1-.054-.767c.532-.613,1.046-1.245,1.533-1.867l.18-.225a.54.54,0,1,1,.857.658l-.189.244c-.505.64-1.028,1.29-1.569,1.912a.539.539,0,0,1-.406.189Zm-74.739-.722a.524.524,0,0,1-.415-.2c-.586-.7-1.164-1.443-1.714-2.183a.541.541,0,0,1,.866-.649c.532.722,1.1,1.443,1.678,2.129a.534.534,0,0,1-.072.758.555.555,0,0,1-.343.126Zm78.085-3.626a.481.481,0,0,1-.307-.1.537.537,0,0,1-.135-.749c.505-.74,1-1.506,1.47-2.282a.538.538,0,0,1,.92.559c-.478.785-.983,1.569-1.506,2.327a.536.536,0,0,1-.442.235Zm2.85-4.69a.5.5,0,0,1-.253-.063.548.548,0,0,1-.225-.731c.424-.794.83-1.615,1.209-2.426a.543.543,0,1,1,.983.46c-.388.839-.8,1.669-1.236,2.48a.554.554,0,0,1-.478.289Zm2.3-4.979a.514.514,0,0,1-.2-.036.543.543,0,0,1-.307-.7c.334-.839.64-1.7.929-2.553a.542.542,0,0,1,1.028.343c-.289.875-.613,1.75-.947,2.607a.535.535,0,0,1-.505.343Zm1.732-5.2a.423.423,0,0,1-.144-.018.543.543,0,0,1-.379-.667c.234-.866.451-1.75.631-2.634a.54.54,0,0,1,1.055.226c-.189.9-.406,1.813-.649,2.7a.531.531,0,0,1-.523.4Z" transform="translate(-485.358 -367.903)" fill="#bdd0fb"/>
              <path id="Trazado_192626" data-name="Trazado 192626" d="M585.521,369.878h-.081a.538.538,0,0,1-.451-.613c.063-.442.126-.884.18-1.326a.541.541,0,0,1,1.073.135q-.081.676-.189,1.353a.541.541,0,0,1-.532.46Z" transform="translate(-494.9 -367.466)" fill="#bdd0fb"/>
            </g>
            <g id="Grupo_141236" data-name="Grupo 141236">
              <path id="Trazado_192627" data-name="Trazado 192627" d="M575.372,329.3a.538.538,0,0,1-.433-.216c-.262-.361-.532-.713-.812-1.064a.54.54,0,0,1,.848-.667c.28.361.559.722.83,1.082a.541.541,0,0,1-.433.866Z" transform="translate(-486.66 -308.424)" fill="#bdd0fb"/>
              <path id="Trazado_192628" data-name="Trazado 192628" d="M478.24,348.576h-.09a.542.542,0,0,1-.451-.622c.144-.893.316-1.795.514-2.679a.54.54,0,0,1,1.055.225c-.189.866-.361,1.75-.5,2.625A.541.541,0,0,1,478.24,348.576Zm1.155-5.268a.4.4,0,0,1-.144-.018.543.543,0,0,1-.379-.667c.243-.875.514-1.75.8-2.607a.542.542,0,0,1,1.028.343c-.289.839-.55,1.7-.785,2.553a.531.531,0,0,1-.523.4Zm1.732-5.114a.514.514,0,0,1-.2-.036.531.531,0,0,1-.3-.7c.334-.839.7-1.678,1.091-2.5a.543.543,0,1,1,.983.46c-.379.8-.74,1.633-1.064,2.444a.548.548,0,0,1-.505.343Zm2.291-4.889a.5.5,0,0,1-.253-.063.537.537,0,0,1-.216-.731c.424-.794.884-1.6,1.362-2.363a.538.538,0,1,1,.92.559c-.46.758-.911,1.533-1.326,2.318a.555.555,0,0,1-.478.289Zm2.814-4.609a.481.481,0,0,1-.307-.1.537.537,0,0,1-.135-.749c.514-.74,1.055-1.488,1.606-2.2a.54.54,0,1,1,.857.658c-.541.7-1.073,1.425-1.569,2.156a.536.536,0,0,1-.442.235Zm3.3-4.275a.522.522,0,0,1-.352-.135.543.543,0,0,1-.054-.767c.6-.685,1.209-1.362,1.84-2.02a.542.542,0,0,1,.785.749c-.613.64-1.218,1.3-1.795,1.975a.539.539,0,0,1-.406.189Zm73.855-.316a.548.548,0,0,1-.406-.18c-.586-.667-1.2-1.326-1.822-1.957a.542.542,0,1,1,.767-.767c.631.64,1.263,1.317,1.858,1.993a.551.551,0,0,1-.045.767.544.544,0,0,1-.361.135Zm-70.112-3.572a.533.533,0,0,1-.4-.171.542.542,0,0,1,.027-.767c.658-.613,1.353-1.218,2.048-1.8a.538.538,0,1,1,.685.83c-.685.568-1.353,1.164-2,1.759a.533.533,0,0,1-.37.144Zm66.332-.271a.512.512,0,0,1-.361-.144c-.658-.6-1.335-1.182-2.02-1.741a.539.539,0,1,1,.677-.839c.7.568,1.4,1.173,2.066,1.777a.55.55,0,0,1,.036.767.543.543,0,0,1-.4.18Zm-62.183-3.175a.538.538,0,0,1-.433-.216.544.544,0,0,1,.108-.758c.722-.541,1.479-1.064,2.237-1.56a.54.54,0,1,1,.6.9c-.74.487-1.479,1-2.183,1.533a.541.541,0,0,1-.325.108Zm58.007-.235a.515.515,0,0,1-.316-.108c-.722-.523-1.461-1.037-2.2-1.515a.542.542,0,1,1,.586-.911c.758.487,1.515,1.01,2.246,1.551a.538.538,0,0,1,.117.758.551.551,0,0,1-.442.225Zm-53.5-2.733a.541.541,0,0,1-.271-1.01c.785-.46,1.587-.893,2.39-1.308a.543.543,0,0,1,.5.965c-.785.406-1.578.83-2.345,1.281A.489.489,0,0,1,501.936,314.12Zm48.969-.207a.608.608,0,0,1-.271-.072c-.776-.442-1.56-.866-2.354-1.263a.535.535,0,0,1-.244-.722.542.542,0,0,1,.731-.244c.8.406,1.615.839,2.408,1.29a.534.534,0,0,1,.2.74.541.541,0,0,1-.469.271Zm-44.17-2.246a.541.541,0,0,1-.216-1.037c.83-.37,1.678-.713,2.526-1.037a.539.539,0,0,1,.379,1.01c-.83.316-1.66.658-2.471,1.01a.467.467,0,0,1-.216.045Zm39.345-.171a.62.62,0,0,1-.216-.045c-.821-.352-1.651-.685-2.48-.992a.539.539,0,0,1,.379-1.01c.848.316,1.7.658,2.535,1.019a.543.543,0,0,1,.28.713.537.537,0,0,1-.5.325Zm-34.3-1.732a.54.54,0,0,1-.162-1.055c.866-.271,1.741-.523,2.625-.749a.54.54,0,1,1,.271,1.046c-.857.216-1.723.469-2.562.731a.511.511,0,0,1-.162.027Zm29.242-.135a.343.343,0,0,1-.162-.027c-.848-.262-1.714-.5-2.571-.713a.547.547,0,0,1-.4-.658.554.554,0,0,1,.658-.4c.884.216,1.768.46,2.634.731a.546.546,0,0,1,.361.676.538.538,0,0,1-.514.379Zm-24.011-1.209a.542.542,0,0,1-.108-1.073c.884-.18,1.795-.334,2.688-.46a.547.547,0,0,1,.613.46.54.54,0,0,1-.46.613c-.875.126-1.759.28-2.634.451-.036,0-.072.009-.108.009Zm18.779-.09a.536.536,0,0,1-.1-.009c-.866-.162-1.759-.307-2.634-.424a.545.545,0,0,1-.469-.6.551.551,0,0,1,.6-.469c.9.117,1.8.271,2.7.433a.541.541,0,0,1-.1,1.073Zm-13.44-.676a.542.542,0,0,1-.045-1.082c.9-.081,1.813-.135,2.724-.162a.531.531,0,0,1,.559.523.543.543,0,0,1-.523.559c-.884.027-1.786.081-2.661.162h-.045Zm8.091-.045h-.045c-.884-.072-1.786-.117-2.661-.135a.543.543,0,0,1-.532-.55.537.537,0,0,1,.55-.532c.9.018,1.822.063,2.724.135a.537.537,0,0,1-.045,1.073Z" transform="translate(-477.219 -306.39)" fill="#bdd0fb"/>
              <path id="Trazado_192629" data-name="Trazado 192629" d="M477.711,357.367h-.045a.536.536,0,0,1-.5-.577c.036-.451.081-.911.126-1.362a.54.54,0,0,1,1.073.117c-.045.442-.09.884-.126,1.326a.541.541,0,0,1-.541.5Z" transform="translate(-477.168 -311.149)" fill="#bdd0fb"/>
            </g>
          </g>
        </g>
      </g>
      <g id="Grupo_141240" data-name="Grupo 141240" transform="translate(61.517 320.255)">
        <path id="Trazado_192630" data-name="Trazado 192630" d="M178.313,443.406s-6.134-67.054-46.389-80.854c-38.614-13.232-45.334,5.791-66.089-17.237a1.5,1.5,0,0,0-2.625,1.073c.713,15.162,6.4,65.926,50.593,68.344,51.062,2.8,64.51,28.665,64.51,28.665Z" transform="translate(-63.208 -344.81)" fill="#91b3fa"/>
        <path id="Trazado_192631" data-name="Trazado 192631" d="M73.3,361.314a23.251,23.251,0,0,0,2.2,3.4c.433.532.83,1.082,1.29,1.6l1.362,1.533c.983.956,1.912,1.957,2.977,2.832.514.451,1.028.9,1.551,1.344l1.633,1.245a68.471,68.471,0,0,0,14.26,8.091,98.825,98.825,0,0,0,15.631,5.078l4.032.839c1.344.28,2.679.568,4.059.83l2.057.406,2.038.469c1.362.289,2.706.686,4.059,1.028,2.688.767,5.367,1.6,7.983,2.625,1.317.478,2.6,1.055,3.9,1.606,1.272.6,2.553,1.182,3.8,1.849a60.186,60.186,0,0,1,13.791,9.778,66.2,66.2,0,0,1,10.616,13.169c2.995,4.772,5.484,9.8,7.965,14.72h0a1.741,1.741,0,0,1-3.112,1.56.128.128,0,0,0-.018-.036c-2.39-5-4.726-9.958-7.523-14.612a63.606,63.606,0,0,0-9.895-12.8,57.773,57.773,0,0,0-13.007-9.615c-1.182-.676-2.408-1.254-3.626-1.858-1.245-.55-2.471-1.137-3.743-1.633-2.517-1.046-5.114-1.912-7.721-2.715-1.317-.37-2.625-.776-3.96-1.091l-1.993-.5-2.011-.442c-1.335-.28-2.7-.6-4.05-.911l-4.077-.938a99.661,99.661,0,0,1-15.785-5.484,69.516,69.516,0,0,1-14.36-8.533c-4.357-3.473-8.416-7.45-11.04-12.511a.387.387,0,0,1,.686-.361h0l.018.036Z" transform="translate(-64.121 -346.403)" fill="#dce5fe"/>
      </g>
      <g id="Grupo_141241" data-name="Grupo 141241" transform="translate(69.158 237.517)">
        <path id="Trazado_192632" data-name="Trazado 192632" d="M181.488,432.45l-4.483-1.678c-3.581-31.9-19.672-88.819-54.011-98.975-23.262-6.882-33.328-17.381-36.287-43.133-1.975-17.183-9.705-27.917-14.63-33.157a1.435,1.435,0,0,1,1.443-2.363c14.161,4.1,51.458,17.03,72.367,44.45C172.053,331.923,181.5,432.45,181.5,432.45Z" transform="translate(-71.678 -253.082)" fill="#91b3fa"/>
        <path id="Trazado_192633" data-name="Trazado 192633" d="M100.139,272.327a35.694,35.694,0,0,1,5.2,2.336c.83.442,1.66.884,2.444,1.38s1.624.938,2.381,1.479l2.327,1.56c.758.541,1.5,1.109,2.255,1.66l1.127.839c.37.28.722.586,1.091.884l2.165,1.777a123.527,123.527,0,0,1,15.541,16.01l1.777,2.156.442.541.415.559.839,1.118,3.337,4.465,3.139,4.609,1.569,2.309c.505.785.974,1.578,1.47,2.372l2.922,4.753c.505.785.938,1.606,1.389,2.417L153.311,328c.884,1.633,1.822,3.247,2.67,4.9l2.462,5.006,1.227,2.5c.415.83.758,1.7,1.146,2.544l2.246,5.105.559,1.272c.18.424.343.866.523,1.29l1.028,2.589c.676,1.732,1.38,3.446,2.048,5.186l1.885,5.241.938,2.625.866,2.643,1.732,5.295c.55,1.768,1.064,3.554,1.6,5.331l.794,2.67c.262.893.487,1.786.74,2.688l1.452,5.376,1.335,5.4c.46,1.795.839,3.617,1.254,5.43s.794,3.626,1.173,5.448.74,3.644,1.082,5.466c.695,3.662,1.326,7.3,1.84,11.031a1.739,1.739,0,1,1-3.446.469v-.045c-.46-3.59-1.046-7.243-1.7-10.851-.325-1.813-.649-3.617-1.019-5.421-.352-1.8-.7-3.608-1.109-5.4s-.749-3.6-1.191-5.385l-1.272-5.367-1.38-5.34c-.235-.893-.451-1.786-.7-2.67l-.758-2.652c-.514-1.768-1-3.545-1.524-5.3l-1.66-5.259-.839-2.634-.9-2.607-1.813-5.214c-.64-1.723-1.317-3.437-1.975-5.15l-.992-2.571c-.171-.424-.325-.857-.505-1.281l-.541-1.263-2.174-5.069c-.37-.839-.7-1.7-1.109-2.526l-1.191-2.48-2.381-4.97c-.821-1.642-1.723-3.238-2.589-4.862l-1.308-2.426c-.433-.812-.857-1.624-1.344-2.4l-2.841-4.726c-.478-.785-.938-1.578-1.425-2.354l-1.524-2.291-3.049-4.591-3.256-4.447-.812-1.109-.406-.559-.433-.532-1.732-2.138a120.9,120.9,0,0,0-15.135-15.92l-2.1-1.768c-.352-.289-.695-.6-1.055-.875l-1.091-.83c-.731-.55-1.452-1.109-2.192-1.651l-2.255-1.551c-.74-.532-1.542-.974-2.309-1.47s-1.569-.929-2.363-1.362a33.429,33.429,0,0,0-4.88-2.264l-.054-.018a.822.822,0,0,1,.541-1.551Z" transform="translate(-74.359 -254.966)" fill="#dce5fe"/>
      </g>
      <g id="Grupo_141242" data-name="Grupo 141242" transform="translate(122.83 161.544)">
        <path id="Trazado_192634" data-name="Trazado 192634" d="M190.432,419.441a.892.892,0,0,1-1.732-.253c-.884-17.354-5.863-93.193-26.329-129.48-22.929-40.644-60.235-78.879,7.09-120.686a1.1,1.1,0,0,1,1.651,1.182c-1.263,5.394-2.787,18.274,6.557,31.966,12.285,18.022,18.148,51.413.424,89.053,0,0,21.945,100.969,12.348,128.218Z" transform="translate(-131.183 -168.853)" fill="#bdd0fb"/>
        <path id="Trazado_192635" data-name="Trazado 192635" d="M163.759,184.678a30.239,30.239,0,0,0-4.979,5.141,43.64,43.64,0,0,0-3.933,6.043l-.821,1.606c-.28.532-.5,1.091-.749,1.642-.514,1.082-.911,2.228-1.344,3.346-.216.559-.37,1.146-.559,1.714-.171.577-.379,1.146-.523,1.723l-.442,1.75-.225.875c-.072.289-.117.586-.18.884a63.909,63.909,0,0,0-1.236,14.36l.162,3.608.361,3.6.09.9.135.893.28,1.786.28,1.786c.1.6.244,1.182.361,1.777l.749,3.545.92,3.509c.153.586.3,1.173.469,1.75l.541,1.732,1.091,3.455,1.245,3.41.622,1.7.316.848.352.839,1.4,3.346.695,1.678c.244.55.505,1.1.767,1.651a214.212,214.212,0,0,0,13.945,25.49h0a1.742,1.742,0,1,1-2.94,1.867l-.018-.027a218.706,218.706,0,0,1-13.611-26.167c-.244-.568-.505-1.118-.74-1.7l-.676-1.723-1.353-3.437-.334-.857-.3-.875-.6-1.75c-.4-1.164-.812-2.327-1.191-3.5l-1.037-3.554-.523-1.777c-.162-.6-.3-1.2-.442-1.795l-.866-3.6-.695-3.644c-.108-.6-.235-1.209-.334-1.822l-.244-1.84-.244-1.84-.126-.92-.072-.92-.289-3.7-.09-3.707A66.445,66.445,0,0,1,148.4,209.05c.072-.3.126-.6.2-.9l.244-.893.5-1.795c.162-.6.388-1.173.577-1.768.207-.586.379-1.182.613-1.75.469-1.146.9-2.309,1.452-3.419.271-.559.514-1.127.812-1.669l.884-1.633a45.7,45.7,0,0,1,4.185-6.134,31.427,31.427,0,0,1,5.313-5.241.514.514,0,0,1,.631.812l-.036.027Z" transform="translate(-132.715 -170.313)" fill="#dce5fe"/>
      </g>
      <g id="Grupo_141248" data-name="Grupo 141248" transform="translate(300.278 100.141)">
        <g id="Grupo_141243" data-name="Grupo 141243" transform="translate(63.895 54.563)">
          <path id="Trazado_192636" data-name="Trazado 192636" d="M499.4,247.41,405.822,239.1a7.372,7.372,0,0,1-6.729-7.315l-.343-63.094a7.38,7.38,0,0,1,7.892-7.405l99.643,6.936a7.375,7.375,0,0,1,6.837,8.019L507.4,240.708a7.384,7.384,0,0,1-8.01,6.7Z" transform="translate(-398.75 -161.27)" fill="#91b3fa"/>
          <path id="Trazado_192637" data-name="Trazado 192637" d="M404.762,175.789l-.622,54.48a4.564,4.564,0,0,0,4.113,4.591l89.73,8.912a4.562,4.562,0,0,0,5-4.14l5.168-58.25a4.566,4.566,0,0,0-4.3-4.961l-94.285-5.141a4.571,4.571,0,0,0-4.817,4.51Z" transform="translate(-399.278 -162.25)" fill="#fff" opacity="0.87"/>
          <path id="Trazado_192638" data-name="Trazado 192638" d="M451.884,229.049l50.782,2.977a.921.921,0,0,1,.866,1l-.072.812a.925.925,0,0,1-.992.839l-50.71-3.8a.912.912,0,0,1-.848-1h0a.92.92,0,0,1,.974-.839Z" transform="translate(-403.862 -167.912)" fill="#91b3fa"/>
          <rect id="Rectángulo_44161" data-name="Rectángulo 44161" width="2.201" height="52.694" rx="1.03" transform="translate(46.532 67.472) rotate(-84.93)" fill="#91b3fa"/>
          <path id="Trazado_192639" data-name="Trazado 192639" d="M467.089,241.14v.153a.9.9,0,0,0,.83,1l35.277,3.13a.927.927,0,0,0,1-.839l.063-.713a.925.925,0,0,0-.857-1l-35.322-2.562a.925.925,0,0,0-.992.839Z" transform="translate(-405.447 -169.016)" fill="#91b3fa"/>
        </g>
        <g id="Grupo_141244" data-name="Grupo 141244" transform="translate(32.301 24.581)">
          <path id="Trazado_192640" data-name="Trazado 192640" d="M488.123,221.611l-110.44-2.246a8.676,8.676,0,0,1-8.479-8.037l-5.457-73.981a8.68,8.68,0,0,1,8.668-9.318l117.439.153a8.673,8.673,0,0,1,8.668,8.858l-1.551,76.074a8.677,8.677,0,0,1-8.858,8.5Z" transform="translate(-363.724 -128.03)" fill="#7d97f4"/>
          <path id="Trazado_192641" data-name="Trazado 192641" d="M371.429,145.028l3.635,63.951a5.364,5.364,0,0,0,5.2,5.06L486.234,217.3a5.364,5.364,0,0,0,5.529-5.259l1.4-68.741a5.363,5.363,0,0,0-5.439-5.475l-111.008,1.524a5.371,5.371,0,0,0-5.286,5.673Z" transform="translate(-364.478 -128.99)" fill="#fff" opacity="0.87"/>
          <path id="Trazado_192642" data-name="Trazado 192642" d="M430.864,203.868l59.811-.568a1.1,1.1,0,0,1,1.1,1.109l-.018.965a1.084,1.084,0,0,1-1.091,1.064l-59.784-.388a1.092,1.092,0,0,1-1.082-1.109h0a1.086,1.086,0,0,1,1.073-1.064Z" transform="translate(-370.2 -135.407)" fill="#7d97f4"/>
          <rect id="Rectángulo_44162" data-name="Rectángulo 44162" width="2.589" height="61.958" rx="1.21" transform="matrix(0.02, -1, 1, 0.02, 59.444, 76.038)" fill="#7d97f4"/>
          <path id="Trazado_192643" data-name="Trazado 192643" d="M449.67,216.9v.18a1.076,1.076,0,0,0,1.064,1.109l41.627.848a1.082,1.082,0,0,0,1.109-1.064l.018-.848a1.091,1.091,0,0,0-1.082-1.109l-41.645-.18A1.084,1.084,0,0,0,449.67,216.9Z" transform="translate(-372.147 -136.636)" fill="#7d97f4"/>
        </g>
        <g id="Grupo_141247" data-name="Grupo 141247">
          <path id="Trazado_192644" data-name="Trazado 192644" d="M467.782,204.427H345.264a9.631,9.631,0,0,1-9.588-8.722l-7.721-81.919a9.625,9.625,0,0,1,9.4-10.526l130.238-2.48a9.635,9.635,0,0,1,9.814,9.624v84.4A9.628,9.628,0,0,1,467.782,204.427Z" transform="translate(-327.912 -100.778)" fill="#feca2e"/>
          <path id="Trazado_192645" data-name="Trazado 192645" d="M336.637,122.137l5.475,70.842a5.946,5.946,0,0,0,5.872,5.493l117.592,1.236a5.955,5.955,0,0,0,6.016-5.953V117.483a5.961,5.961,0,0,0-6.161-5.953l-123.067,4.194a5.961,5.961,0,0,0-5.737,6.413Z" transform="translate(-328.765 -101.832)" fill="url(#linear-gradient-2)"/>
          <path id="Trazado_192646" data-name="Trazado 192646" d="M406.113,122.354l66.314-1.984a1.211,1.211,0,0,1,1.245,1.209v1.064a1.211,1.211,0,0,1-1.191,1.209l-66.314.92a1.207,1.207,0,0,1-1.227-1.209h0A1.213,1.213,0,0,1,406.113,122.354Z" transform="translate(-335.462 -102.698)" fill="#7d97f4"/>
          <rect id="Rectángulo_44163" data-name="Rectángulo 44163" width="68.723" height="2.868" rx="1.34" transform="translate(69.478 25.221)" fill="#7d97f4"/>
          <path id="Trazado_192647" data-name="Trazado 192647" d="M386.925,194.122a.543.543,0,0,1-.541-.541v-1.624a.535.535,0,0,1,.532-.541h0a.543.543,0,0,1,.541.541v1.624a.535.535,0,0,1-.532.541Zm-.018-5.412a.543.543,0,0,1-.541-.541v-1.624A.535.535,0,0,1,386.9,186h0a.543.543,0,0,1,.541.541v1.624a.535.535,0,0,1-.532.541Zm-.018-5.412a.543.543,0,0,1-.541-.541v-1.624a.535.535,0,0,1,.532-.541h0a.543.543,0,0,1,.541.541v1.624a.535.535,0,0,1-.532.541Zm-.018-5.412a.543.543,0,0,1-.541-.541v-1.624a.535.535,0,0,1,.532-.541h0a.543.543,0,0,1,.541.541v1.624a.535.535,0,0,1-.532.541Z" transform="translate(-333.638 -108.07)" fill="#7d97f4"/>
          <path id="Trazado_192648" data-name="Trazado 192648" d="M417.051,191.824a.543.543,0,0,1-.541-.541v-1.624a.541.541,0,0,1,1.082,0v1.624A.543.543,0,0,1,417.051,191.824Zm0-5.412a.543.543,0,0,1-.541-.541v-1.624a.541.541,0,1,1,1.082,0v1.624A.543.543,0,0,1,417.051,186.412Zm0-5.412a.543.543,0,0,1-.541-.541v-1.624a.541.541,0,1,1,1.082,0v1.624A.543.543,0,0,1,417.051,181Zm0-5.412a.543.543,0,0,1-.541-.541v-1.624a.541.541,0,1,1,1.082,0v1.624A.543.543,0,0,1,417.051,175.588Zm0-5.412a.543.543,0,0,1-.541-.541v-1.624a.541.541,0,1,1,1.082,0v1.624A.543.543,0,0,1,417.051,170.176Z" transform="translate(-336.596 -107.315)" fill="#7d97f4"/>
          <path id="Trazado_192649" data-name="Trazado 192649" d="M439.916,195.684a.545.545,0,0,1-.541-.523l-.027-.965a.543.543,0,0,1,.523-.559.532.532,0,0,1,.559.523l.027.965a.543.543,0,0,1-.523.559Zm-.144-4.753a.545.545,0,0,1-.541-.523l-.054-1.624a.541.541,0,0,1,1.082-.036l.054,1.624a.543.543,0,0,1-.523.559Zm-.171-5.4a.545.545,0,0,1-.541-.523l-.054-1.624a.543.543,0,0,1,.523-.559.555.555,0,0,1,.559.523l.054,1.624a.543.543,0,0,1-.523.559Zm-.171-5.4a.545.545,0,0,1-.541-.523l-.054-1.624a.541.541,0,1,1,1.082-.036l.054,1.624a.543.543,0,0,1-.523.559Zm-.171-5.4a.545.545,0,0,1-.541-.523l-.054-1.624a.543.543,0,0,1,.523-.559.549.549,0,0,1,.559.523l.054,1.624a.543.543,0,0,1-.523.559Zm-.171-5.4a.545.545,0,0,1-.541-.523l-.054-1.624a.543.543,0,0,1,.523-.559.537.537,0,0,1,.559.523l.054,1.624a.543.543,0,0,1-.523.559Zm-.171-5.4a.545.545,0,0,1-.541-.523l-.054-1.624a.543.543,0,0,1,.523-.559.538.538,0,0,1,.559.523l.054,1.624a.543.543,0,0,1-.523.559Z" transform="translate(-338.734 -106.701)" fill="#7d97f4"/>
          <path id="Trazado_192650" data-name="Trazado 192650" d="M461.871,191.071a.543.543,0,0,1-.541-.541v-1.624a.541.541,0,0,1,1.082,0v1.624A.543.543,0,0,1,461.871,191.071Zm0-5.412a.543.543,0,0,1-.541-.541v-1.624a.541.541,0,0,1,1.082,0v1.624A.543.543,0,0,1,461.871,185.659Zm0-5.412a.543.543,0,0,1-.541-.541v-1.624a.541.541,0,1,1,1.082,0v1.624A.543.543,0,0,1,461.871,180.248Zm0-5.412a.543.543,0,0,1-.541-.541v-1.624a.541.541,0,1,1,1.082,0v1.624A.543.543,0,0,1,461.871,174.836Zm0-5.412a.543.543,0,0,1-.541-.541v-1.624a.541.541,0,0,1,1.082,0v1.624A.543.543,0,0,1,461.871,169.424Zm0-5.412a.543.543,0,0,1-.541-.541v-1.624a.541.541,0,0,1,1.082,0v1.624A.543.543,0,0,1,461.871,164.012Zm0-5.412a.543.543,0,0,1-.541-.541v-1.624a.541.541,0,0,1,1.082,0v1.624A.543.543,0,0,1,461.871,158.6Zm0-5.412a.543.543,0,0,1-.541-.541v-1.624a.541.541,0,1,1,1.082,0v1.624A.543.543,0,0,1,461.871,153.188Zm0-5.412a.543.543,0,0,1-.541-.541v-1.624a.541.541,0,0,1,1.082,0v1.624A.543.543,0,0,1,461.871,147.776Z" transform="translate(-340.989 -105.119)" fill="#7d97f4"/>
          <g id="Grupo_141245" data-name="Grupo 141245" transform="translate(15.99 24.184)">
            <path id="Trazado_192651" data-name="Trazado 192651" d="M354.049,195.858a.814.814,0,0,1-.812-.74l-5.547-65.493a.81.81,0,1,1,1.615-.135l5.547,65.493a.81.81,0,0,1-.74.875h-.072Z" transform="translate(-345.841 -127.704)" fill="#7d97f4"/>
            <path id="Trazado_192652" data-name="Trazado 192652" d="M345.838,132.894l2.508-2.977,2.977,2.508-.2-2.327-2.977-2.508-2.508,2.977Z" transform="translate(-345.64 -127.59)" fill="#7d97f4"/>
          </g>
          <g id="Grupo_141246" data-name="Grupo 141246" transform="translate(19.183 85.691)">
            <path id="Trazado_192653" data-name="Trazado 192653" d="M464.111,199.554H349.992a.812.812,0,1,1,0-1.624h114.12a.812.812,0,0,1,0,1.624Z" transform="translate(-349.18 -195.991)" fill="#7d97f4"/>
            <path id="Trazado_192654" data-name="Trazado 192654" d="M473.01,201.282l2.76-2.751-2.76-2.751h2.336l2.751,2.751-2.751,2.751Z" transform="translate(-361.317 -195.78)" fill="#7d97f4"/>
          </g>
          <path id="Trazado_192655" data-name="Trazado 192655" d="M359.912,175.159a.815.815,0,0,1-.8-.7.806.806,0,0,1,.695-.911c.6-.081,60.352-8.262,93.058-32.381a.813.813,0,1,1,.965,1.308c-33.049,24.372-93.2,32.607-93.807,32.679h-.108Z" transform="translate(-330.969 -104.721)" fill="#7d97f4"/>
          <path id="Trazado_192656" data-name="Trazado 192656" d="M463.239,146.044h-.063a.811.811,0,0,1-.749-.875l.253-3.184-4.492-.271a.808.808,0,0,1-.758-.857.8.8,0,0,1,.857-.758l5.322.316a.786.786,0,0,1,.568.28.8.8,0,0,1,.2.6l-.316,4.014a.815.815,0,0,1-.812.749Z" transform="translate(-340.606 -104.632)" fill="#7d97f4"/>
        </g>
      </g>
      <g id="Grupo_141249" data-name="Grupo 141249" transform="translate(89.418 144.068)">
        <path id="Trazado_192657" data-name="Trazado 192657" d="M375.92,400.332l75.659-144.95H436.074a3.382,3.382,0,0,1-2.616-5.529L514.1,151.572a5.688,5.688,0,0,1,10.075,3.942l-5.665,96.107a9.6,9.6,0,0,1-10.68,8.975l-10.806-1.236L421.948,421.935A11.959,11.959,0,0,1,411.1,428.88H385.075l-9.155-28.539Z" transform="translate(-121.758 -149.479)" fill="#4dd0e1"/>
        <path id="Trazado_192658" data-name="Trazado 192658" d="M306.57,312.654l53.416,118.657a19.592,19.592,0,0,0,17.859,11.545h27.538a10.068,10.068,0,0,0,8.794-5.177l.983-1.768h0a7.868,7.868,0,0,1-7.008-4.293L336.985,292.17l-30.406,20.475Z" transform="translate(-114.961 -163.464)" fill="#4dd0e1"/>
        <path id="Trazado_192659" data-name="Trazado 192659" d="M332.626,304.762h0a11.684,11.684,0,0,0-16.966,2.7l-78.536,118a33.919,33.919,0,0,1-28.241,15.126H197.833l-8.993-25.905s73.007-111.946,91.831-128.885c0,0,18.743-16.894,37.216-4.122a30.852,30.852,0,0,1,10.851,13.674Z" transform="translate(-103.422 -161.967)" fill="#4dd0e1"/>
        <path id="Trazado_192660" data-name="Trazado 192660" d="M94.14,350.337s13.142-16.434,38.623-18.987c0,0,12.1,4.122,36.206,47.318s40.1,62.887,58.882,52.135l-1.551,2.58a28.315,28.315,0,0,1-24.254,13.71H191.663a35.543,35.543,0,0,1-28.846-14.775c-18.761-26.077-57.141-77.914-68.668-81.964Z" transform="translate(-94.14 -167.304)" fill="#4dd0e1"/>
        <path id="Trazado_192661" data-name="Trazado 192661" d="M530.112,189.234h-.09a.812.812,0,0,1-.713-.9l.532-4.69a.813.813,0,1,1,1.615.189l-.532,4.69a.81.81,0,0,1-.8.722Z" transform="translate(-136.791 -152.757)" fill="url(#linear-gradient-3)"/>
        <path id="Trazado_192662" data-name="Trazado 192662" d="M455.482,245.935a.812.812,0,0,1-.64-1.308l66.585-86.519a2.855,2.855,0,0,1,5.1,2.066l-1.173,10.373a.813.813,0,1,1-1.615-.189l1.173-10.373a1.234,1.234,0,0,0-2.2-.893l-66.585,86.519a.807.807,0,0,1-.64.316Z" transform="translate(-129.476 -150.215)" fill="url(#linear-gradient-4)"/>
        <path id="Trazado_192663" data-name="Trazado 192663" d="M288,350.182a.824.824,0,0,1-.451-.135.812.812,0,0,1-.216-1.127l34.438-51.044a6.13,6.13,0,0,1,10.625.8.813.813,0,1,1-1.47.695,4.482,4.482,0,0,0-3.734-2.571,4.437,4.437,0,0,0-4.077,1.975l-34.438,51.044A.808.808,0,0,1,288,350.182Z" transform="translate(-113.062 -163.758)" fill="url(#linear-gradient-5)"/>
        <path id="Trazado_192664" data-name="Trazado 192664" d="M278.082,370.338a.824.824,0,0,1-.451-.135.812.812,0,0,1-.216-1.127l2.21-3.274a.812.812,0,1,1,1.344.911l-2.21,3.274a.808.808,0,0,1-.676.361Z" transform="translate(-112.089 -170.646)" fill="#fff"/>
      </g>
      <g id="Grupo_141251" data-name="Grupo 141251" transform="translate(376.528 224.197)">
        <path id="Trazado_192665" data-name="Trazado 192665" d="M418.286,439.7s-17.192-57.069,7.432-88.052c23.38-29.414,50.547-85.157,41.122-112.054a.948.948,0,0,1,1.551-1c10.337,10.066,38.578,43.981.189,84.273-45.821,48.1-56.446,40.635-50.295,116.826Z" transform="translate(-412.448 -238.315)" fill="#91b3fa"/>
        <g id="Grupo_141250" data-name="Grupo 141250" transform="translate(6.234 52.944)">
          <path id="Trazado_192666" data-name="Trazado 192666" d="M422.589,445.919c-.009.108-.18.108-.207,0-.929-4.582-8.533-44.576,4.645-64.97,13.3-20.565,66.819-48.247,65.674-83.109a.8.8,0,0,1,1.542-.316c5.583,14.531,18.2,56.023-7.568,82.343-31.606,32.282-57.845-9.8-64.086,66.044Z" transform="translate(-419.359 -297.012)" fill="#bdd0fb"/>
          <path id="Trazado_192667" data-name="Trazado 192667" d="M492.163,322.694a26.209,26.209,0,0,1,.992,7.5,35.279,35.279,0,0,1-.244,3.779,37.284,37.284,0,0,1-.694,3.734,33.8,33.8,0,0,1-2.607,7.153,38.47,38.47,0,0,1-4.023,6.458,42.517,42.517,0,0,1-5.123,5.6c-.911.875-1.885,1.678-2.85,2.49-.487.4-.992.767-1.488,1.155l-.749.577-.767.541a85.7,85.7,0,0,1-12.944,7.468c-4.465,2.138-9.011,3.933-13.151,6.269a38.233,38.233,0,0,0-5.818,3.969,32.756,32.756,0,0,0-4.844,5.087,42.547,42.547,0,0,0-3.824,6l-.821,1.6c-.262.541-.505,1.091-.758,1.633-.523,1.082-.956,2.21-1.425,3.319a126.687,126.687,0,0,0-4.492,13.855h0a.678.678,0,0,1-.839.487.688.688,0,0,1-.487-.8l.767-3.608c.271-1.2.577-2.4.875-3.59.316-1.191.658-2.381.992-3.572.388-1.173.74-2.363,1.155-3.536a52.979,52.979,0,0,1,6.684-13.413,35.8,35.8,0,0,1,5.123-5.655,38.419,38.419,0,0,1,6.188-4.438c2.183-1.272,4.42-2.372,6.648-3.428s4.438-2.075,6.621-3.121a83.463,83.463,0,0,0,12.438-7.234,51.256,51.256,0,0,0,10.454-9.57,37.156,37.156,0,0,0,6.693-12.339,33.566,33.566,0,0,0,1.38-6.954,31.278,31.278,0,0,0,.117-3.563,23.732,23.732,0,0,0-.316-3.527v-.045a.582.582,0,0,1,.469-.694.594.594,0,0,1,.676.415Z" transform="translate(-419.931 -299.488)" fill="#dce5fe"/>
        </g>
      </g>
      <g id="Grupo_141254" data-name="Grupo 141254" transform="translate(137.074 154.736)">
        <g id="Grupo_141252" data-name="Grupo 141252" transform="translate(30.34)">
          <path id="Trazado_192668" data-name="Trazado 192668" d="M212.757,199.2l-9.254-4a2.4,2.4,0,0,0-2.21.171l-8.542,5.358a2.379,2.379,0,0,1-3.635-2.237l.938-10.039a2.364,2.364,0,0,0-.848-2.048l-7.739-6.467a2.38,2.38,0,0,1,1.01-4.149l9.841-2.21A2.378,2.378,0,0,0,194,172.152l3.761-9.354a2.381,2.381,0,0,1,4.257-.325l5.141,8.677a2.382,2.382,0,0,0,1.885,1.164l10.057.686a2.382,2.382,0,0,1,1.624,3.951l-6.666,7.568a2.4,2.4,0,0,0-.523,2.156L216,196.451a2.385,2.385,0,0,1-3.256,2.769Z" transform="translate(-180.611 -161.306)" fill="#feca2e"/>
          <path id="Trazado_192669" data-name="Trazado 192669" d="M192.17,186.31a4.607,4.607,0,0,0-1.019-1.191L186.1,180.9a1.806,1.806,0,0,1,.767-3.148l6.422-1.443a4.648,4.648,0,0,0,3.319-2.823l2.453-6.106a1.8,1.8,0,0,1,1.533-1.127,1.784,1.784,0,0,1,1.687.884l1.714,2.9-.442.262-1.714-2.9a1.291,1.291,0,0,0-2.309.171l-2.453,6.106a5.194,5.194,0,0,1-3.689,3.13l-6.422,1.443a1.272,1.272,0,0,0-.974.956,1.29,1.29,0,0,0,.424,1.3l5.051,4.221a5.121,5.121,0,0,1,1.127,1.326l-.442.262Z" transform="translate(-181.086 -161.79)" fill="#fff"/>
          <path id="Trazado_192670" data-name="Trazado 192670" d="M194.734,198.594a1.807,1.807,0,0,1-1.795-1.975l.469-5.015.514.045-.469,5.015a1.256,1.256,0,0,0,.613,1.218,1.28,1.28,0,0,0,1.362,0l5.574-3.5a5.256,5.256,0,0,1,4.826-.37l6.043,2.616a1.279,1.279,0,0,0,1.353-.2,1.251,1.251,0,0,0,.415-1.3l-1.606-6.386a5.2,5.2,0,0,1,1.137-4.7l4.348-4.943a1.269,1.269,0,0,0,.225-1.344,1.244,1.244,0,0,0-1.109-.794l-6.566-.451a5.261,5.261,0,0,1-1.948-.523l.225-.46a4.55,4.55,0,0,0,1.75.469l6.566.451a1.8,1.8,0,0,1,1.227,2.986l-4.348,4.943a4.676,4.676,0,0,0-1.028,4.239L214.118,195a1.8,1.8,0,0,1-2.462,2.093l-6.043-2.616a4.729,4.729,0,0,0-4.348.334l-5.574,3.5a1.781,1.781,0,0,1-.956.28Z" transform="translate(-181.819 -162.7)" fill="#fff"/>
          <rect id="Rectángulo_44164" data-name="Rectángulo 44164" width="0.514" height="1.993" transform="translate(22.498 8.479) rotate(-30.64)" fill="#fff"/>
        </g>
        <g id="Grupo_141253" data-name="Grupo 141253" transform="translate(0 27.317)">
          <path id="Trazado_192671" data-name="Trazado 192671" d="M170.467,219.29l-6.765-2.922a1.739,1.739,0,0,0-1.615.126l-6.242,3.915a1.742,1.742,0,0,1-2.661-1.642l.686-7.333a1.758,1.758,0,0,0-.613-1.5L147.6,205.21a1.736,1.736,0,0,1,.74-3.031l7.189-1.615a1.745,1.745,0,0,0,1.236-1.046l2.751-6.837a1.74,1.74,0,0,1,3.112-.234l3.752,6.341a1.725,1.725,0,0,0,1.38.848l7.351.505a1.742,1.742,0,0,1,1.191,2.886l-4.871,5.529a1.733,1.733,0,0,0-.379,1.578l1.795,7.144a1.74,1.74,0,0,1-2.381,2.02Z" transform="translate(-146.974 -191.592)" fill="#feca2e"/>
          <path id="Trazado_192672" data-name="Trazado 192672" d="M155.437,209.866a3.629,3.629,0,0,0-.74-.875l-3.689-3.085a1.321,1.321,0,0,1,.559-2.3l4.7-1.055a3.4,3.4,0,0,0,2.426-2.066l1.795-4.465a1.325,1.325,0,0,1,2.363-.18l1.254,2.12-.325.189-1.254-2.12a.936.936,0,0,0-.884-.46.926.926,0,0,0-.8.586l-1.795,4.465a3.784,3.784,0,0,1-2.7,2.291l-4.7,1.055a.934.934,0,0,0-.713.695.907.907,0,0,0,.316.947l3.689,3.085a3.674,3.674,0,0,1,.821.965l-.325.189Z" transform="translate(-147.323 -191.945)" fill="#fff"/>
          <path id="Trazado_192673" data-name="Trazado 192673" d="M157.3,218.849a1.325,1.325,0,0,1-1.317-1.443l.343-3.662.37.036-.343,3.662a.927.927,0,0,0,.442.893.953.953,0,0,0,1,0l4.077-2.553a3.845,3.845,0,0,1,3.527-.271l4.42,1.912a.942.942,0,0,0,1.29-1.091l-1.173-4.672a3.785,3.785,0,0,1,.83-3.437l3.184-3.617a.916.916,0,0,0,.162-.983.934.934,0,0,0-.812-.586l-4.8-.325a3.933,3.933,0,0,1-1.425-.379l.162-.334a3.34,3.34,0,0,0,1.281.343l4.8.325a1.319,1.319,0,0,1,.9,2.183l-3.184,3.617a3.394,3.394,0,0,0-.749,3.094l1.173,4.672a1.3,1.3,0,0,1-.424,1.326,1.326,1.326,0,0,1-1.38.207l-4.42-1.912a3.442,3.442,0,0,0-3.175.244l-4.077,2.553a1.331,1.331,0,0,1-.7.207Z" transform="translate(-147.856 -192.612)" fill="#fff"/>
          <rect id="Rectángulo_44165" data-name="Rectángulo 44165" width="0.37" height="1.461" transform="translate(16.438 6.224) rotate(-30.63)" fill="#fff"/>
        </g>
      </g>
      <g id="Grupo_141256" data-name="Grupo 141256" transform="translate(120.221 381.329)">
        <path id="Trazado_192674" data-name="Trazado 192674" d="M232.575,415.52v17.309H183.885v12.989h-51.4v13.007c0,.523.965,1.064,1.488,1.064H340.912c.523,0,.406-.541.406-1.064v-43.3H232.575Z" transform="translate(-128.702 -412.814)" fill="#feca2e"/>
        <g id="Grupo_141255" data-name="Grupo 141255" transform="translate(0)">
          <rect id="Rectángulo_44166" data-name="Rectángulo 44166" width="118.476" height="4.33" rx="1.05" transform="translate(98.461)" fill="url(#linear-gradient-6)"/>
          <path id="Trazado_192675" data-name="Trazado 192675" d="M184.67,431.95v2.435c0,.523.965,1.064,1.488,1.064h51.531v-4.33H186.158c-.523,0-1.488.307-1.488.83Z" transform="translate(-133.816 -414.343)" fill="url(#linear-gradient-7)"/>
          <path id="Trazado_192676" data-name="Trazado 192676" d="M128.29,448.14v2.435c0,.523.983,1.064,1.533,1.064h53.65v-4.33h-53.65c-.55,0-1.533.307-1.533.83Z" transform="translate(-128.29 -415.93)" fill="url(#linear-gradient-8)"/>
        </g>
      </g>
      <g id="Grupo_141262" data-name="Grupo 141262" transform="translate(215.21 127.207)">
        <g id="Grupo_141257" data-name="Grupo 141257" transform="translate(94.671 238.103)">
          <path id="Trazado_192677" data-name="Trazado 192677" d="M340.707,402.34a14.126,14.126,0,0,0-2.147,7.081,1.792,1.792,0,0,0,1.741,1.813l15.731.55a.752.752,0,0,0,.478-1.353c-2.9-2.192-8.614-6.3-12.8-7.983Z" transform="translate(-338.559 -395.503)" fill="#feca2e"/>
          <path id="Trazado_192678" data-name="Trazado 192678" d="M340.51,396.582l.406,6.043a1.229,1.229,0,0,0,1.3,1.155,4.544,4.544,0,0,0,1.452-.388,1.421,1.421,0,0,0,.821-1.335l-.271-7.3-3.7,1.822Z" transform="translate(-338.75 -394.76)" fill="url(#linear-gradient-9)"/>
        </g>
        <g id="Grupo_141258" data-name="Grupo 141258" transform="translate(0.355 217.221)">
          <path id="Trazado_192679" data-name="Trazado 192679" d="M242.83,372.987a14.232,14.232,0,0,0-7.36-.767,1.789,1.789,0,0,0-1.452,2.048l2.444,15.55a.756.756,0,0,0,1.425.216c1.606-3.265,4.555-9.66,5.412-14.08l-.469-2.977Z" transform="translate(-233.995 -371.652)" fill="#feca2e"/>
          <path id="Trazado_192680" data-name="Trazado 192680" d="M248.432,371.61l-5.863,1.542a1.225,1.225,0,0,0-.884,1.5,4.447,4.447,0,0,0,.649,1.353,1.4,1.4,0,0,0,1.47.55l7.108-1.651-2.489-3.283Z" transform="translate(-234.744 -371.61)" fill="url(#linear-gradient-10)"/>
        </g>
        <path id="Trazado_192681" data-name="Trazado 192681" d="M342.17,239.82a5.19,5.19,0,0,0,.442-1.939c-.081-.722-.108-2.968,1.245-3.924a.812.812,0,0,1,.749.857c.857-.92.9-1.723,1.795-1.155s4.23,2.589,2.562,3.933-4.293,3.879-4.293,3.879l-2.49-1.66Z" transform="translate(-244.242 -140.849)" fill="url(#linear-gradient-11)"/>
        <path id="Trazado_192682" data-name="Trazado 192682" d="M300.227,342.045s-2.977,23.758-11.5,24.669-41.176,5.619-41.176,5.619l-.911-4.9s18.861-11.428,30.108-11.248c5.619-8.343,4.248-31.4,4.248-31.4l19.221,17.246Z" transform="translate(-234.879 -149.8)" fill="url(#linear-gradient-12)"/>
        <path id="Trazado_192683" data-name="Trazado 192683" d="M265.34,230.779c.361,26.509,16.5,51.991,16.5,51.991v29.693h19.645s9.5-23.073,9.254-30.812c14.793-1.6,25.156-35.944,26.654-40.319-.695-.532-1.7-1.137-3.121-2.282-21.765,29.387-27.2,31.75-27.2,31.75H296.188c-13.782-2.165-25.391-40.03-25.391-40.03h-5.439Z" transform="translate(-236.712 -140.585)" fill="#feca2e"/>
        <path id="Trazado_192684" data-name="Trazado 192684" d="M284.359,321.331S282.8,338.09,315.5,351.025c7.983,14.874,18.446,42.754,18.446,42.754h6.891s-4.717-42.024-13.061-50.367-17.445-17.805-24.444-21.918c-16.182-1.7-18.978-.153-18.978-.153Z" transform="translate(-238.574 -149.399)" fill="url(#linear-gradient-13)"/>
        <g id="Grupo_141260" data-name="Grupo 141260" transform="translate(55.02 103.196)">
          <path id="Trazado_192685" data-name="Trazado 192685" d="M299.428,261.49l-3.608,12.7s6.161,3.31,10.716,2.417l1.254-11.194-8.361-3.924Z" transform="translate(-294.719 -246.792)" fill="url(#linear-gradient-14)"/>
          <g id="Grupo_141259" data-name="Grupo 141259">
            <path id="Trazado_192686" data-name="Trazado 192686" d="M307.191,251.209c.135.144,5.033,12.348,5.033,12.348l-7.027,2.652L298.83,255.34s6.143-6.621,8.352-4.131Z" transform="translate(-295.014 -245.729)" fill="url(#linear-gradient-15)"/>
            <path id="Trazado_192687" data-name="Trazado 192687" d="M301.347,256.231l2.9,5.989a.661.661,0,0,0,.144.207c.343.388,1.642,1.651,2.841.253,1.091-1.272,2.111-2.408,3.139-2.715a.933.933,0,0,1,1.127.541,40.4,40.4,0,0,1,1.9,5.935.922.922,0,0,1-.64,1.073,30.232,30.232,0,0,1-6.846,1.353.919.919,0,0,1-.839-.451c-.857-1.425-3.482-5.755-4.4-6.855-.866-1.028-2.661-.794-3.419-.64a.891.891,0,0,1-.7-.144,2.411,2.411,0,0,1-.586-3.824.923.923,0,0,0-.171-1.326,2.416,2.416,0,0,1-.713-3.527,3.409,3.409,0,0,1,3.933-1.425.926.926,0,0,0,1.064-.532.733.733,0,0,1,.713-.433.914.914,0,0,0,.866-1.046,2.781,2.781,0,0,1,1.8-3.121c3.049-1.344,5.367,1.488,5.818,3.743s-2.931,3.518-5.006,3.6c-1.569.063-2.553,1.732-2.931,2.535a.96.96,0,0,0,0,.8Z" transform="translate(-294.6 -245.195)" fill="url(#linear-gradient-16)"/>
            <path id="Trazado_192688" data-name="Trazado 192688" d="M302,265.336s-.956-3.9-2.625-3.906-3.112,1.524-1.227,3.563c2.345,2.535,3.851.343,3.851.343Z" transform="translate(-294.861 -246.786)" fill="url(#linear-gradient-17)"/>
          </g>
        </g>
        <g id="Grupo_141261" data-name="Grupo 141261" transform="translate(0 0)">
          <path id="Trazado_192689" data-name="Trazado 192689" d="M272.72,237.168l-6.35-1.479-3.13-31.669,28.124,4.781Z" transform="translate(-236.506 -137.963)" fill="#12263f"/>
          <path id="Trazado_192690" data-name="Trazado 192690" d="M258.267,139.22c-.613,2.471-11.924,50.953,10.86,64.573s43.467-24.814,49.4-54.237L258.276,139.22Z" transform="translate(-235.69 -131.612)" fill="#12263f"/>
          <rect id="Rectángulo_44167" data-name="Rectángulo 44167" width="40.409" height="4.907" transform="matrix(0.974, 0.227, -0.227, 0.974, 12.336, 98.317)" fill="#12263f"/>
          <path id="Trazado_192691" data-name="Trazado 192691" d="M286.615,248.645l-39.345-9.182,11.2-3.013,19.429,4.528Z" transform="translate(-234.941 -141.141)" fill="#12263f"/>
          <path id="Trazado_192692" data-name="Trazado 192692" d="M256.631,130.853c-2.192-.37-4.33.812-4.753,2.634l-.866,3.725c-.424,1.822,1.019,3.635,3.2,4.023l68.3,12.1c2.192.388,4.33-.785,4.753-2.607l.992-4.257c.424-1.822-1.019-3.617-3.211-4l-68.416-11.636Z" transform="translate(-235.3 -130.785)" fill="#12263f"/>
          <path id="Trazado_192693" data-name="Trazado 192693" d="M288.71,216.594a3.074,3.074,0,0,1-2.562-3.067,2.858,2.858,0,0,1,3.437-2.282c.334.045,23.533,2.931,28.566-8.957.848-2,1.443-4.744-.532-6.4-1.633-1.371-4.735-1.786-7.225-.956-1.407.469-3.076,1.488-2.968,3.644a2.727,2.727,0,0,1-3.067,2.643,3.29,3.29,0,0,1-3.319-2.832c-.18-3.915,2.3-7.117,6.648-8.578,4.826-1.615,10.68-.667,14.224,2.309,2.075,1.741,5.123,5.655,2.273,12.384-2.814,6.648-9.895,10.851-20.475,12.15a64.065,64.065,0,0,1-14.63.009c-.126-.018-.244-.036-.361-.063Z" transform="translate(-238.75 -136.493)" fill="#12263f"/>
          <path id="Trazado_192694" data-name="Trazado 192694" d="M260.091,209.5a3.064,3.064,0,0,0,3.653-1.615,2.862,2.862,0,0,0-2.075-3.563c-.316-.108-22.4-7.784-21.657-20.674.126-2.174.8-4.889,3.31-5.511,2.075-.505,5.042.5,6.9,2.345,1.055,1.046,2.093,2.7,1.046,4.582a2.729,2.729,0,0,0,1.578,3.725,3.282,3.282,0,0,0,4.23-1.073c1.894-3.428,1.091-7.405-2.165-10.634-3.617-3.59-9.281-5.322-13.773-4.221-2.625.64-7.1,2.814-7.514,10.1-.415,7.207,4.077,14.107,12.989,19.952a63.864,63.864,0,0,0,13.115,6.485c.117.036.235.072.352.1Z" transform="translate(-233.601 -134.877)" fill="#12263f"/>
          <path id="Trazado_192695" data-name="Trazado 192695" d="M316.878,147.915h-.1l-6.1-1.082a.545.545,0,1,1,.189-1.073l6.1,1.082a.55.55,0,0,1,.442.631A.533.533,0,0,1,316.878,147.915Z" transform="translate(-241.112 -132.252)" fill="#fff"/>
          <path id="Trazado_192696" data-name="Trazado 192696" d="M295.491,144.121h-.1l-36.44-6.458a.545.545,0,0,1,.189-1.073l36.44,6.458a.55.55,0,0,1,.442.631.533.533,0,0,1-.532.442Z" transform="translate(-236.041 -131.353)" fill="#fff"/>
          <path id="Trazado_192697" data-name="Trazado 192697" d="M274.485,200.7a.4.4,0,0,1-.18-.036c-6.35-2.273-10.319-8.794-11.816-19.393-1.236-8.749-.505-18.482.325-25.1a.541.541,0,0,1,1.073.135c-1.416,11.365-3.2,38.344,10.788,43.35a.546.546,0,0,1,.325.695.552.552,0,0,1-.505.361Z" transform="translate(-236.367 -133.226)" fill="#fff"/>
          <path id="Trazado_192698" data-name="Trazado 192698" d="M264.281,150.784h-.09a.53.53,0,0,1-.442-.622c.253-1.506.424-2.363.433-2.4a.538.538,0,0,1,.64-.424.551.551,0,0,1,.424.64s-.18.875-.424,2.354a.541.541,0,0,1-.532.451Z" transform="translate(-236.555 -132.406)" fill="#fff"/>
        </g>
        <path id="Trazado_192699" data-name="Trazado 192699" d="M264.275,221.443s6.106-2.706,5.322,1.831.857,7.856-2.625,8.2S263.093,224.573,264.275,221.443Z" transform="translate(-236.548 -139.592)" fill="url(#linear-gradient-18)"/>
      </g>
      <g id="Grupo_141265" data-name="Grupo 141265" transform="translate(45.96 94.277)">
        <g id="Grupo_141263" data-name="Grupo 141263" transform="translate(0 19.616)">
          <path id="Trazado_192700" data-name="Trazado 192700" d="M209.716,123.94a1.3,1.3,0,0,0-.442.216c-.216.171-.451.469-.74.695a9.97,9.97,0,0,0-1.028.911h0c-.18.153-.307.316-.153.514a.387.387,0,0,0,.568.054s.532-.442,1.091-.866c.135-.108.262-.225.388-.325.144-.108.2-.171.289-.244s.135-.126.207-.171l.1-.072.153-.108a.366.366,0,1,0-.415-.6h0Z" transform="translate(-61.772 -116.791)" fill="#91b3fa"/>
          <path id="Trazado_192701" data-name="Trazado 192701" d="M204.567,127.473l-2.327,1.5a.421.421,0,0,0-.1.6.454.454,0,0,0,.6.153l2.327-1.5a.421.421,0,0,0,.1-.6.446.446,0,0,0-.6-.153Z" transform="translate(-61.259 -117.14)" fill="#91b3fa"/>
          <path id="Trazado_192702" data-name="Trazado 192702" d="M199.445,130.985l-2.489,1.164a.356.356,0,0,0-.171.514.423.423,0,0,0,.577.162l2.444-1.317c.207-.108.307-.235.189-.451s-.334-.063-.55-.063h0Z" transform="translate(-60.737 -117.486)" fill="#91b3fa"/>
          <path id="Trazado_192703" data-name="Trazado 192703" d="M194.025,134.094l-2.634.758c-.207.09-.334.18-.225.406a.391.391,0,0,0,.55.162l2.562-1.109c.207-.09.361-.045.262-.271s-.3.045-.505.045h0Z" transform="translate(-60.188 -117.781)" fill="#91b3fa"/>
          <path id="Trazado_192704" data-name="Trazado 192704" d="M188,134.71l-2.607,1.236c-.216.063-.289.514-.207.74s.343.46.559.4l2.688-.758c.216-.063.262-.7.18-.929s-.415-.686-.613-.686Z" transform="translate(-59.603 -117.856)" fill="#91b3fa"/>
          <path id="Trazado_192705" data-name="Trazado 192705" d="M182.149,137.709l-2.742.3c-.225.036-.343.162-.289.388a.428.428,0,0,0,.514.3l2.778-.514c.225-.036.334-.072.28-.307s-.343-.162-.532-.162h0Z" transform="translate(-59.01 -118.149)" fill="#91b3fa"/>
          <path id="Trazado_192706" data-name="Trazado 192706" d="M175.746,137.71l-2.688.334c-.225.009-.316.307-.289.541a.536.536,0,0,0,.5.451l2.859-.1c.225-.009.253-.4.225-.631s-.027-.054-.6-.6Z" transform="translate(-58.388 -118.15)" fill="#91b3fa"/>
          <path id="Trazado_192707" data-name="Trazado 192707" d="M169.831,138.277l-2.877-.307a.367.367,0,0,0-.424.352.436.436,0,0,0,.406.442l2.859.253c.226.018.433-.1.433-.334a.389.389,0,0,0-.388-.406h0Z" transform="translate(-57.777 -118.175)" fill="#91b3fa"/>
          <path id="Trazado_192708" data-name="Trazado 192708" d="M163.565,137.644l-2.9-.424a.378.378,0,0,0-.451.334.434.434,0,0,0,.379.451l2.85.37c.225.027.46-.081.469-.307s-.225-.514-.352-.415h0Z" transform="translate(-57.158 -118.101)" fill="#91b3fa"/>
          <path id="Trazado_192709" data-name="Trazado 192709" d="M157.228,137.027l-2.868-.749c-.225-.045-.442,0-.46.225a.393.393,0,0,0,.352.433l2.832.523c.226.045.451.081.478-.144s-.144-.3-.334-.3h0Z" transform="translate(-56.539 -118.008)" fill="#91b3fa"/>
          <path id="Trazado_192710" data-name="Trazado 192710" d="M150.932,135.221l-2.805-.8a.373.373,0,0,0-.478.28.451.451,0,0,0,.307.514l2.8.821a.378.378,0,0,0,.478-.289c.045-.216-.09-.523-.307-.523h0Z" transform="translate(-55.926 -117.826)" fill="#91b3fa"/>
          <path id="Trazado_192711" data-name="Trazado 192711" d="M144.851,133.35s-.667-.388-1.344-.686c-.64-.334-1.281-.7-1.281-.7l-.027-.036a.373.373,0,0,0-.523.153.419.419,0,0,0,.207.541s.676.352,1.344.695c.667.307,1.344.6,1.344.6.207.09.442.09.514-.117s-.036-.46-.234-.46h0Z" transform="translate(-55.338 -117.578)" fill="#91b3fa"/>
          <path id="Trazado_192712" data-name="Trazado 192712" d="M139.124,129.916a.7.7,0,0,0-.234-.325c-.1-.09-.18-.207-.289-.325s-.216-.244-.334-.37a7.564,7.564,0,0,1-.613-.758c-.162-.216-.262-.361-.262-.361l-.018-.027a.382.382,0,1,0-.613.451s.117.162.289.4.433.532.686.83c.135.144.28.28.415.415s.253.235.361.334c.207.189.352.307.352.307.171.153.307.153.442,0s-.18-.352-.18-.559h0Z" transform="translate(-54.851 -117.156)" fill="#91b3fa"/>
          <path id="Trazado_192713" data-name="Trazado 192713" d="M135.744,124.789a.807.807,0,0,0,.135-.532c-.027-.144.063-.325.054-.478a2.6,2.6,0,0,0,.036-.262c0-.027.018-.126.018-.1l.018-.135a2.232,2.232,0,0,1,.018-.262,1.4,1.4,0,0,1,.045-.207c.018-.135.072-.271.1-.388.081-.225.144-.37.144-.37v-.018a.406.406,0,0,0-.207-.532.376.376,0,0,0-.514.171s-.072.171-.171.442a4.2,4.2,0,0,0-.126.487c-.018.1-.036.2-.045.3s-.009.18-.018.271v.316c0,.1.018.189.018.28a3.335,3.335,0,0,0,.054.487c.045.271.072.451.072.451.036.216.027.46.244.442s.108-.189.108-.361h0Z" transform="translate(-54.709 -116.557)" fill="#91b3fa"/>
          <path id="Trazado_192714" data-name="Trazado 192714" d="M138.28,119.747a10.124,10.124,0,0,1,1.019-.938c.568-.343,1.1-.722,1.1-.722l.018-.045a.361.361,0,0,0,.072-.523c-.117-.189-.126-.46-.568-.135h0s-.6.343-1.209.722l-1.073.839c-.162.126-.108.451.027.631s.469.3.622.171h0Z" transform="translate(-54.936 -116.143)" fill="#91b3fa"/>
          <path id="Trazado_192715" data-name="Trazado 192715" d="M143.369,116.652a.609.609,0,0,0,.442.09,3.773,3.773,0,0,1,.442.018c.153-.009.316.018.478.009a4.266,4.266,0,0,1,.487.036,1.432,1.432,0,0,1,.415.063l.4.09.072.018a.355.355,0,0,0,.433-.3.424.424,0,0,0-.325-.46s-.2-.045-.487-.108a1.7,1.7,0,0,0-.5-.063c-.18,0-.379-.036-.568-.018s-.388.027-.559.036a2.833,2.833,0,0,0-.46.063c-.262.045-.433.072-.433.072-.207.036-.343.072-.3.289s.262.162.46.162h0Z" transform="translate(-55.461 -116.024)" fill="#91b3fa"/>
          <path id="Trazado_192716" data-name="Trazado 192716" d="M147.789,118.791s.523.126.676.361c.036.063.289.108.334.171s.171.126.2.2c.063.144.18.289.253.433.054.162.126.325.18.487s.144.3.171.424a1.45,1.45,0,0,0,.153.415v.036c.054.216.2.37.406.343a.34.34,0,0,0,.271-.433s-.054-.189-.108-.469a2.913,2.913,0,0,0-.126-.478c-.054-.171-.117-.361-.18-.55-.081-.189-.171-.379-.253-.559a3.126,3.126,0,0,0-.244-.442c-.153-.235-.253-.4-.253-.4-.117-.189-.785-.216-.956-.117s-.532.37-.532.568h0Z" transform="translate(-55.94 -116.233)" fill="#91b3fa"/>
          <path id="Trazado_192717" data-name="Trazado 192717" d="M149.571,124.706a7.187,7.187,0,0,1,0,1.425,13.545,13.545,0,0,0-.171,1.362l.036.027a.431.431,0,0,0,.325.469.354.354,0,0,0,.451-.271l.271-1.443.162-1.425c.027-.207-.28-.415-.5-.451s-.577.1-.577.307h0Z" transform="translate(-56.098 -116.845)" fill="#91b3fa"/>
          <path id="Trazado_192718" data-name="Trazado 192718" d="M148.273,130.5a10.232,10.232,0,0,1-.424,1.425c-.3.622-.541,1.3-.541,1.3l.018.045a.416.416,0,0,0,.2.532.363.363,0,0,0,.505-.135s.316-.64.622-1.29c.262-.649.532-1.3.532-1.3a.619.619,0,0,0-.316-.631c-.189-.09-.424.054-.6.054h0Z" transform="translate(-55.892 -117.435)" fill="#91b3fa"/>
          <path id="Trazado_192719" data-name="Trazado 192719" d="M145.8,135.883l-1.669,2.408a.491.491,0,0,0,.063.6.347.347,0,0,0,.505-.027l1.606-2.246a.568.568,0,0,0-.036-.667c-.171-.135-.532-.613-.46-.072h0Z" transform="translate(-55.575 -117.946)" fill="#91b3fa"/>
          <path id="Trazado_192720" data-name="Trazado 192720" d="M141.866,141.3l-1.885,1.9a.327.327,0,0,0,.036.478.362.362,0,0,0,.523-.018l1.912-2.02c.135-.144.1-.28-.045-.424s-.352.09-.541.09h0Z" transform="translate(-55.166 -118.488)" fill="#91b3fa"/>
          <path id="Trazado_192721" data-name="Trazado 192721" d="M137.581,145.38s-.126.117-.325.289-.451.4-.713.622c-.523.451-1.046.911-1.046.911a.378.378,0,0,0-.018.523.355.355,0,0,0,.514.054s.523-.451,1.046-.911c.262-.225.523-.46.722-.631s.325-.289.325-.289a.388.388,0,0,0-.523-.568h0Z" transform="translate(-54.725 -118.893)" fill="#91b3fa"/>
          <path id="Trazado_192722" data-name="Trazado 192722" d="M132.919,149.342l-2.183,1.7a.367.367,0,0,0-.045.514.375.375,0,0,0,.514.081l2.183-1.7a.38.38,0,0,0-.469-.6Z" transform="translate(-54.256 -119.283)" fill="#91b3fa"/>
          <path id="Trazado_192723" data-name="Trazado 192723" d="M128.025,153.025l-2.291,1.56a.357.357,0,0,0-.072.505.379.379,0,0,0,.505.117l2.291-1.551a.357.357,0,0,0,.072-.505.37.37,0,0,0-.505-.117h0Z" transform="translate(-53.765 -119.646)" fill="#91b3fa"/>
          <path id="Trazado_192724" data-name="Trazado 192724" d="M122.9,156.365l-2.4,1.389a.357.357,0,0,0-.108.487.373.373,0,0,0,.5.144l2.4-1.38a.358.358,0,0,0,.108-.5.365.365,0,0,0-.5-.144Z" transform="translate(-53.25 -119.974)" fill="#91b3fa"/>
          <path id="Trazado_192725" data-name="Trazado 192725" d="M117.47,159.255l-2.489,1.209a.348.348,0,0,0-.126.487.384.384,0,0,0,.487.189l2.517-1.173a.366.366,0,0,0,.117-.505c-.1-.18-.361-.325-.505-.216h0Z" transform="translate(-52.708 -120.257)" fill="#91b3fa"/>
          <path id="Trazado_192726" data-name="Trazado 192726" d="M111.928,161.908l-2.508,1.2a.33.33,0,0,0-.135.469.369.369,0,0,0,.478.18l2.508-1.191a.33.33,0,0,0,.135-.469.369.369,0,0,0-.478-.18h0Z" transform="translate(-52.162 -120.519)" fill="#91b3fa"/>
          <path id="Trazado_192727" data-name="Trazado 192727" d="M106.4,164.625l-2.453,1.3a.336.336,0,0,0-.117.469.361.361,0,0,0,.478.153l2.453-1.3a.336.336,0,0,0,.117-.469.376.376,0,0,0-.478-.162h0Z" transform="translate(-51.627 -120.784)" fill="#91b3fa"/>
          <path id="Trazado_192728" data-name="Trazado 192728" d="M100.984,167.565l-2.39,1.407a.334.334,0,0,0-.1.469.359.359,0,0,0,.478.135l2.39-1.4a.335.335,0,0,0,.1-.478.35.35,0,0,0-.478-.135Z" transform="translate(-51.104 -121.071)" fill="#91b3fa"/>
          <path id="Trazado_192729" data-name="Trazado 192729" d="M95.723,170.744,93.4,172.25a.331.331,0,0,0-.081.469.346.346,0,0,0,.469.117l2.327-1.506a.342.342,0,0,0,.081-.478.354.354,0,0,0-.478-.117h0Z" transform="translate(-50.596 -121.382)" fill="#91b3fa"/>
          <path id="Trazado_192730" data-name="Trazado 192730" d="M90.612,174.152l-2.246,1.615a.33.33,0,0,0-.054.469.339.339,0,0,0,.469.09l2.246-1.615a.34.34,0,0,0,.054-.478.36.36,0,0,0-.478-.1h0Z" transform="translate(-50.104 -121.715)" fill="#91b3fa"/>
          <path id="Trazado_192731" data-name="Trazado 192731" d="M85.662,177.8,83.5,179.526a.348.348,0,0,0,.433.541l2.165-1.714a.351.351,0,0,0-.433-.55h0Z" transform="translate(-49.628 -122.073)" fill="#91b3fa"/>
          <path id="Trazado_192732" data-name="Trazado 192732" d="M80.9,181.683l-2.075,1.831a.329.329,0,0,0-.009.469.342.342,0,0,0,.469.054l2.084-1.822a.329.329,0,0,0,.009-.469.342.342,0,0,0-.469-.054h0Z" transform="translate(-49.171 -122.454)" fill="#91b3fa"/>
          <path id="Trazado_192733" data-name="Trazado 192733" d="M76.355,185.8l-1.984,1.93a.338.338,0,0,0,.009.469.328.328,0,0,0,.46.027l1.984-1.93a.347.347,0,0,0,0-.469.32.32,0,0,0-.46-.027h0Z" transform="translate(-48.736 -122.855)" fill="#91b3fa"/>
          <path id="Trazado_192734" data-name="Trazado 192734" d="M72.018,190.158,70.142,192.2a.329.329,0,0,0,.036.46.316.316,0,0,0,.451,0l1.876-2.038a.34.34,0,0,0-.036-.469.319.319,0,0,0-.46,0h0Z" transform="translate(-48.322 -123.28)" fill="#91b3fa"/>
          <path id="Trazado_192735" data-name="Trazado 192735" d="M67.922,194.749,66.163,196.9a.34.34,0,0,0,.054.46.323.323,0,0,0,.451-.018l1.768-2.147a.339.339,0,0,0-.054-.46.315.315,0,0,0-.451.018h0Z" transform="translate(-47.934 -123.73)" fill="#91b3fa"/>
          <path id="Trazado_192736" data-name="Trazado 192736" d="M64.086,199.577l-1.642,2.246a.332.332,0,0,0,.081.451.313.313,0,0,0,.442-.045l1.642-2.246a.332.332,0,0,0-.081-.451.3.3,0,0,0-.442.045h0Z" transform="translate(-47.57 -124.202)" fill="#91b3fa"/>
          <path id="Trazado_192737" data-name="Trazado 192737" d="M60.531,204.625l-1.506,2.345a.331.331,0,0,0,.1.442.3.3,0,0,0,.433-.072L61.063,205a.331.331,0,0,0-.1-.442.3.3,0,0,0-.433.072Z" transform="translate(-47.236 -124.695)" fill="#91b3fa"/>
          <path id="Trazado_192738" data-name="Trazado 192738" d="M57.278,209.894s-.343.613-.686,1.218c-.171.3-.343.613-.469.848s-.207.388-.207.388a.336.336,0,0,0,.126.433.294.294,0,0,0,.415-.1s.081-.153.207-.388.289-.523.46-.839c.343-.6.686-1.218.686-1.218a.327.327,0,0,0-.126-.433.3.3,0,0,0-.424.09h0Z" transform="translate(-46.932 -125.211)" fill="#91b3fa"/>
          <path id="Trazado_192739" data-name="Trazado 192739" d="M54.357,215.383l-1.2,2.535a.331.331,0,0,0,.153.424.294.294,0,0,0,.406-.117l1.2-2.535a.331.331,0,0,0-.153-.424.293.293,0,0,0-.406.117Z" transform="translate(-46.663 -125.747)" fill="#91b3fa"/>
          <path id="Trazado_192740" data-name="Trazado 192740" d="M51.807,221.07,50.788,223.7a.323.323,0,0,0,.171.406.285.285,0,0,0,.388-.144l1.028-2.625a.338.338,0,0,0-.171-.415.3.3,0,0,0-.4.144h0Z" transform="translate(-46.431 -126.302)" fill="#91b3fa"/>
          <path id="Trazado_192741" data-name="Trazado 192741" d="M49.669,226.969l-.83,2.706a.342.342,0,0,0,.2.4.271.271,0,0,0,.37-.171l.83-2.706a.342.342,0,0,0-.2-.4.284.284,0,0,0-.379.171h0Z" transform="translate(-46.241 -126.879)" fill="#91b3fa"/>
          <path id="Trazado_192742" data-name="Trazado 192742" d="M47.973,233.037l-.613,2.778a.329.329,0,0,0,.226.379.275.275,0,0,0,.352-.2l.613-2.778a.329.329,0,0,0-.225-.379.275.275,0,0,0-.352.2Z" transform="translate(-46.096 -127.472)" fill="#91b3fa"/>
          <path id="Trazado_192743" data-name="Trazado 192743" d="M46.759,239.265l-.379,2.841a.325.325,0,0,0,.253.352.264.264,0,0,0,.325-.225l.379-2.841a.325.325,0,0,0-.253-.352.276.276,0,0,0-.334.226h0Z" transform="translate(-46.001 -128.081)" fill="#91b3fa"/>
          <path id="Trazado_192744" data-name="Trazado 192744" d="M46.086,245.612,45.96,248.5a.323.323,0,0,0,.28.325.26.26,0,0,0,.3-.253l.126-2.886a.323.323,0,0,0-.28-.325.273.273,0,0,0-.307.262h0Z" transform="translate(-45.96 -128.701)" fill="#91b3fa"/>
          <path id="Trazado_192745" data-name="Trazado 192745" d="M45.98,252.05l.117,2.4a.306.306,0,0,0,.3.3.263.263,0,0,0,.271-.28l-.117-2.4a.306.306,0,0,0-.3-.3.263.263,0,0,0-.271.28Z" transform="translate(-45.962 -129.329)" fill="#91b3fa"/>
        </g>
        <g id="Grupo_141264" data-name="Grupo 141264" transform="translate(143.74)">
          <path id="Trazado_192746" data-name="Trazado 192746" d="M213.233,108.65l-1.263,9.976,7.3-3.437Z" transform="translate(-205.971 -95.686)" fill="#7d97f4"/>
          <path id="Trazado_192747" data-name="Trazado 192747" d="M258.158,107.187,228.23,127.41a2.551,2.551,0,0,1-3.59-.767L205.473,95.831a1.007,1.007,0,0,1,.045-1.137,1.026,1.026,0,0,1,1.073-.388l51.567,12.88Z" transform="translate(-205.319 -94.277)" fill="#91b3fa"/>
          <path id="Trazado_192748" data-name="Trazado 192748" d="M213.37,108.653l45.577-.063-42.493,5.042-.469,2.751Z" transform="translate(-206.108 -95.68)" fill="#7d97f4"/>
          <path id="Trazado_192749" data-name="Trazado 192749" d="M218.158,117.12l-6.188,2.048,4.348-4.988Z" transform="translate(-205.971 -96.228)" fill="#7d97f4"/>
        </g>
      </g>
      <g id="Grupo_141266" data-name="Grupo 141266" transform="translate(400.088 327.344)">
        <path id="Trazado_192750" data-name="Trazado 192750" d="M443.858,411.428l7.234,29.179a9.773,9.773,0,0,0,11.491,7.189l70.445-14.648a7.046,7.046,0,0,0,5.619-7.342c-.487-7.658-1.93-21.233-6.179-33.356L443.84,411.428Z" transform="translate(-439.085 -356.568)" fill="#feca2e"/>
        <path id="Trazado_192751" data-name="Trazado 192751" d="M460.689,445.92h-.036a9.074,9.074,0,0,1-1.606-.4.205.205,0,1,1,.135-.388,8.957,8.957,0,0,0,1.542.379.205.205,0,0,1,.171.235.2.2,0,0,1-.2.171Zm3.761-.171a.2.2,0,0,1-.2-.162.2.2,0,0,1,.153-.243l1.587-.334a.212.212,0,0,1,.244.153.2.2,0,0,1-.153.244l-1.588.334h-.045Zm5.295-1.1a.2.2,0,0,1-.2-.162.2.2,0,0,1,.153-.244l1.587-.334a.212.212,0,0,1,.244.153.2.2,0,0,1-.153.244l-1.587.334h-.045Zm-13.864-1.037a.2.2,0,0,1-.135-.054,9.644,9.644,0,0,1-1.128-1.218.206.206,0,0,1,.325-.253,9.379,9.379,0,0,0,1.073,1.164.21.21,0,0,1,.018.289.2.2,0,0,1-.153.063Zm19.167-.063a.2.2,0,0,1-.2-.162.2.2,0,0,1,.153-.244l1.587-.334a.212.212,0,0,1,.244.153.2.2,0,0,1-.153.244l-1.588.334h-.045Zm5.295-1.1a.2.2,0,0,1-.2-.162.2.2,0,0,1,.153-.244l1.587-.334a.212.212,0,0,1,.244.153.2.2,0,0,1-.153.244l-1.588.334h-.045Zm5.295-1.1a.2.2,0,0,1-.2-.162.2.2,0,0,1,.153-.243l1.587-.334a.212.212,0,0,1,.244.153.2.2,0,0,1-.153.244l-1.588.334h-.045Zm5.295-1.1a.2.2,0,0,1-.2-.162.2.2,0,0,1,.153-.244l1.588-.334a.212.212,0,0,1,.244.153.2.2,0,0,1-.153.243l-1.587.334h-.045Zm5.295-1.1a.2.2,0,0,1-.2-.162.2.2,0,0,1,.153-.244l1.587-.334a.212.212,0,0,1,.244.153.2.2,0,0,1-.153.244l-1.588.334h-.045Zm-43.106-.09a.211.211,0,0,1-.2-.153l-.388-1.578a.2.2,0,0,1,.388-.1l.388,1.569a.2.2,0,0,1-.144.244h-.054Zm48.4-1.01a.2.2,0,0,1-.2-.162.2.2,0,0,1,.153-.244l1.587-.334a.212.212,0,0,1,.244.153.2.2,0,0,1-.153.244l-1.587.334h-.045Zm5.295-1.1a.2.2,0,0,1-.2-.162.2.2,0,0,1,.153-.244l1.588-.334a.212.212,0,0,1,.244.153.2.2,0,0,1-.153.244l-1.587.334h-.045Zm5.295-1.1a.2.2,0,0,1-.2-.162.2.2,0,0,1,.153-.244l1.588-.334a.212.212,0,0,1,.244.153.2.2,0,0,1-.153.244l-1.588.334h-.045Zm5.295-1.1a.2.2,0,0,1-.2-.162.2.2,0,0,1,.153-.244l1.588-.334a.212.212,0,0,1,.244.153.2.2,0,0,1-.153.244l-1.588.334h-.045Zm-65.593-.938a.211.211,0,0,1-.2-.153l-.388-1.578a.2.2,0,0,1,.144-.244.206.206,0,0,1,.244.144l.388,1.578a.2.2,0,0,1-.144.243h-.045Zm70.887-.162a.2.2,0,0,1-.2-.162.2.2,0,0,1,.153-.243l1.588-.334a.212.212,0,0,1,.244.153.2.2,0,0,1-.153.244l-1.588.334H522.7Zm5.295-1.1a.2.2,0,0,1-.2-.162.2.2,0,0,1,.153-.244l1.588-.334a.212.212,0,0,1,.244.153.2.2,0,0,1-.153.243l-1.587.334H528Zm5.177-1.461a.194.194,0,0,1-.171-.1.206.206,0,0,1,.072-.28,6.764,6.764,0,0,0,1.245-.965.2.2,0,1,1,.289.289,6.858,6.858,0,0,1-1.317,1.019.24.24,0,0,1-.108.027Zm-82.667-2.526a.211.211,0,0,1-.2-.153l-.388-1.578a.2.2,0,1,1,.388-.1l.388,1.578a.2.2,0,0,1-.144.244h-.045Zm85.77-1.723h-.045a.2.2,0,0,1-.153-.244,6.438,6.438,0,0,0,.162-1.443v-.117a.208.208,0,0,1,.2-.207c.1.018.207.09.207.2v.126a6.721,6.721,0,0,1-.171,1.533.2.2,0,0,1-.2.153Zm-87.069-3.527a.211.211,0,0,1-.2-.153l-.388-1.578a.2.2,0,0,1,.388-.1l.388,1.578a.2.2,0,0,1-.144.244h-.045Zm86.961-1.867a.2.2,0,0,1-.2-.189c-.045-.523-.1-1.064-.153-1.615a.2.2,0,0,1,.406-.045c.054.559.108,1.091.153,1.624a.2.2,0,0,1-.18.216h-.018ZM447.9,418.048a.211.211,0,0,1-.2-.153l-.388-1.578a.2.2,0,0,1,.388-.1l.388,1.578a.2.2,0,0,1-.144.244H447.9Zm87.7-1.993a.2.2,0,0,1-.2-.18c-.063-.532-.135-1.064-.207-1.606a.2.2,0,0,1,.4-.054c.072.541.144,1.082.207,1.615a.2.2,0,0,1-.18.225h-.027Zm-89-3.256a.211.211,0,0,1-.2-.153l-.442-1.777,1.7-.361a.2.2,0,0,1,.09.4l-1.29.28.343,1.371a.2.2,0,0,1-.144.244h-.045Zm88.241-2.1a.2.2,0,0,1-.2-.171q-.122-.8-.271-1.6a.2.2,0,0,1,.4-.072c.09.541.18,1.073.271,1.606a.2.2,0,0,1-.171.235h-.036Zm-83.434-.586a.2.2,0,0,1-.2-.162.2.2,0,0,1,.153-.244l1.588-.343a.212.212,0,0,1,.243.153.2.2,0,0,1-.153.244l-1.587.343h-.045Zm5.286-1.137a.2.2,0,0,1-.2-.162.2.2,0,0,1,.153-.244l1.588-.343a.212.212,0,0,1,.244.153.2.2,0,0,1-.153.244l-1.587.343h-.045Zm5.286-1.137a.2.2,0,0,1-.2-.162.2.2,0,0,1,.153-.244l1.588-.343a.212.212,0,0,1,.244.153.2.2,0,0,1-.153.244l-1.587.343h-.045Zm5.286-1.136a.2.2,0,0,1-.2-.162.2.2,0,0,1,.153-.244l1.587-.343a.2.2,0,1,1,.09.4l-1.587.343h-.045Zm5.286-1.137a.2.2,0,0,1-.2-.162.2.2,0,0,1,.153-.244l1.587-.343a.212.212,0,0,1,.244.153.2.2,0,0,1-.153.244l-1.588.343h-.045Zm61.3-.207a.2.2,0,0,1-.2-.162c-.108-.523-.225-1.055-.343-1.587a.2.2,0,0,1,.4-.09c.117.532.234,1.064.343,1.588a.2.2,0,0,1-.153.243h-.045Zm-56-.929a.2.2,0,0,1-.2-.162.2.2,0,0,1,.153-.244l1.588-.343a.2.2,0,1,1,.09.4l-1.587.343h-.045Zm5.295-1.137a.2.2,0,0,1-.2-.162.2.2,0,0,1,.153-.243l1.587-.343a.2.2,0,1,1,.09.4l-1.587.343h-.045Zm5.286-1.137a.2.2,0,0,1-.2-.162.2.2,0,0,1,.153-.244l1.588-.343a.2.2,0,1,1,.09.4l-1.587.343h-.045Zm5.286-1.137a.2.2,0,0,1-.2-.162.2.2,0,0,1,.153-.243l1.588-.343a.2.2,0,1,1,.09.4l-1.587.343h-.045Zm38.912-.947a.211.211,0,0,1-.2-.153c-.135-.523-.271-1.046-.415-1.56a.206.206,0,0,1,.4-.108c.144.523.289,1.046.424,1.569a.2.2,0,0,1-.144.244h-.054ZM499,399.882a.2.2,0,0,1-.2-.162.2.2,0,0,1,.153-.244l1.587-.343a.2.2,0,0,1,.09.4l-1.588.343H499Zm5.286-1.137a.2.2,0,0,1-.2-.162.2.2,0,0,1,.153-.244l1.587-.343a.212.212,0,0,1,.244.153.2.2,0,0,1-.153.244l-1.587.343h-.045Zm5.286-1.137a.2.2,0,0,1-.2-.162.2.2,0,0,1,.153-.244l1.587-.343a.2.2,0,1,1,.09.4l-1.588.343h-.045Zm5.286-1.137a.2.2,0,0,1-.2-.162.2.2,0,0,1,.153-.244l1.588-.343a.212.212,0,0,1,.244.153.2.2,0,0,1-.153.243l-1.588.343h-.045Zm5.286-1.137a.2.2,0,0,1-.2-.162.2.2,0,0,1,.153-.244l1.588-.343a.2.2,0,1,1,.09.4l-1.587.343h-.045Zm10.959-.478a.2.2,0,0,1-.189-.144c-.162-.514-.334-1.028-.514-1.533a.205.205,0,1,1,.388-.135q.271.771.514,1.542a.2.2,0,0,1-.126.253c-.018,0-.045.009-.063.009Zm-5.664-.658a.2.2,0,0,1-.2-.162.2.2,0,0,1,.153-.244l1.588-.343a.212.212,0,0,1,.244.153.2.2,0,0,1-.153.244l-1.588.343h-.045Z" transform="translate(-439.292 -356.613)" fill="#bdd0fb"/>
        <path id="Trazado_192752" data-name="Trazado 192752" d="M461.631,384.371l-.271-2.309a1.787,1.787,0,0,1,1.1-1.3c2.12-.821,7.423-2.6,10.463-1.2l.956,2.553-12.24,2.264Z" transform="translate(-440.802 -355.255)" fill="url(#linear-gradient-19)"/>
        <path id="Trazado_192753" data-name="Trazado 192753" d="M468.267,379.97a3.147,3.147,0,0,1-1.515.325,1.4,1.4,0,0,1-1.326-1.1l-1.515-7.1,3.608-.776,1.515,7.09A1.406,1.406,0,0,1,468.267,379.97Z" transform="translate(-441.052 -354.497)" fill="url(#linear-gradient-20)"/>
        <path id="Trazado_192754" data-name="Trazado 192754" d="M500.411,376.071l-.271-2.309a1.787,1.787,0,0,1,1.1-1.3c2.12-.821,7.423-2.6,10.463-1.2l.956,2.553-12.24,2.264Z" transform="translate(-444.603 -354.441)" fill="url(#linear-gradient-21)"/>
        <path id="Trazado_192755" data-name="Trazado 192755" d="M507.019,371.589a3.148,3.148,0,0,1-1.515.325,1.4,1.4,0,0,1-1.326-1.1l-1.678-7.847,3.608-.776,1.678,7.838A1.406,1.406,0,0,1,507.019,371.589Z" transform="translate(-444.834 -353.603)" fill="url(#linear-gradient-22)"/>
        <path id="Trazado_192756" data-name="Trazado 192756" d="M463.607,372.081l38.56-9.6a1.917,1.917,0,0,0,1.461-1.921,16.338,16.338,0,0,0-.929-4.952,4.581,4.581,0,0,0-5.15-2.859c-7.279,1.38-25.725,5.331-35.024,11.527a3.614,3.614,0,0,0-1.615,2.922,8.816,8.816,0,0,0,.749,3.96,1.7,1.7,0,0,0,1.957.911Z" transform="translate(-440.757 -352.669)" fill="#feca2e"/>
        <path id="Trazado_192757" data-name="Trazado 192757" d="M462.538,371.386a.538.538,0,0,1-.514-.379,9.793,9.793,0,0,1-.415-3.112,3.667,3.667,0,0,1,1.921-3.013,44.147,44.147,0,0,1,9.372-3.915.538.538,0,1,1,.253,1.046,44.024,44.024,0,0,0-9.119,3.815,2.583,2.583,0,0,0-1.353,2.12,8.946,8.946,0,0,0,.361,2.724.533.533,0,0,1-.352.677.51.51,0,0,1-.162.027Z" transform="translate(-440.825 -353.481)" fill="#91b3fa"/>
        <path id="Trazado_192758" data-name="Trazado 192758" d="M441.195,386.455c12.511-2.85,66.666-15.036,82.839-16.506a3.291,3.291,0,0,1,3.292,1.894,108.807,108.807,0,0,1,7.658,23.136,2.884,2.884,0,0,1-1.723,3.175l-34.528,14.513L485.951,415.4l-39.976.586a3.068,3.068,0,0,1-3.013-2.264c-1.29-4.826-4.131-16.191-4.393-23.84a3.394,3.394,0,0,1,2.643-3.428Z" transform="translate(-438.568 -354.362)" fill="#feca2e"/>
        <path id="Trazado_192759" data-name="Trazado 192759" d="M446.428,413.34a.2.2,0,0,1-.2-.2.208.208,0,0,1,.2-.207l1.624-.027a.215.215,0,0,1,.207.2.208.208,0,0,1-.2.207l-1.624.027h0Zm5.412-.081a.2.2,0,0,1-.2-.2.208.208,0,0,1,.2-.207l1.624-.027h0a.2.2,0,0,1,.2.2.208.208,0,0,1-.2.207l-1.624.027Zm5.412-.081a.2.2,0,0,1-.2-.2.208.208,0,0,1,.2-.207l1.624-.027a.187.187,0,0,1,.207.2.208.208,0,0,1-.2.207l-1.624.027h0Zm5.412-.081a.2.2,0,0,1-.2-.2.208.208,0,0,1,.2-.207l1.624-.027a.2.2,0,0,1,.009.406l-1.624.027h0Zm5.412-.081a.2.2,0,0,1-.2-.2.208.208,0,0,1,.2-.207l1.624-.027h0a.2.2,0,0,1,.2.2.208.208,0,0,1-.2.207l-1.624.027Zm5.412-.081a.2.2,0,0,1-.2-.2.208.208,0,0,1,.2-.207l1.624-.027a.2.2,0,0,1,.207.2.208.208,0,0,1-.2.207l-1.624.027h0Zm5.412-.081a.2.2,0,0,1-.2-.2.208.208,0,0,1,.2-.207l1.624-.027c.108.027.207.09.207.2a.208.208,0,0,1-.2.207l-1.624.027h0Zm5.412-.081a.2.2,0,0,1-.2-.2.208.208,0,0,1,.2-.207l1.624-.027a.2.2,0,0,1,.207.2.208.208,0,0,1-.2.207l-1.624.027h0Zm3.888-.505a.2.2,0,0,1-.2-.162.2.2,0,0,1,.153-.244l1.587-.343a.2.2,0,0,1,.09.4l-1.588.343H488.2Zm5.286-1.137a.2.2,0,0,1-.2-.162.2.2,0,0,1,.153-.244l1.587-.343a.2.2,0,1,1,.09.4l-1.587.343h-.045Zm5.25-1.254a.2.2,0,0,1-.189-.126.192.192,0,0,1,.108-.262l1.5-.631a.2.2,0,1,1,.153.37l-1.5.631a.372.372,0,0,1-.081.018Zm-53.317-.117a.211.211,0,0,1-.2-.153c-.126-.505-.253-1.028-.388-1.578a.2.2,0,1,1,.4-.09c.135.55.262,1.073.388,1.578a.2.2,0,0,1-.144.244h-.045Zm58.3-1.975a.2.2,0,0,1-.189-.126.192.192,0,0,1,.108-.262l1.5-.631a.2.2,0,1,1,.153.37l-1.5.631a.372.372,0,0,1-.081.018Zm4.988-2.093a.2.2,0,0,1-.189-.126.192.192,0,0,1,.108-.262l1.5-.631a.189.189,0,0,1,.262.108.192.192,0,0,1-.108.262l-1.5.631a.372.372,0,0,1-.081.018Zm-64.519-1.2a.2.2,0,0,1-.2-.162c-.117-.523-.225-1.055-.334-1.587a.2.2,0,0,1,.153-.244.212.212,0,0,1,.244.153c.108.532.225,1.064.334,1.588a.2.2,0,0,1-.153.244h-.045ZM513.7,403.6a.2.2,0,0,1-.189-.126.192.192,0,0,1,.108-.262l1.5-.631a.189.189,0,0,1,.262.108.192.192,0,0,1-.108.262l-1.5.631a.371.371,0,0,1-.081.018Zm4.988-2.093a.2.2,0,0,1-.189-.126.192.192,0,0,1,.108-.262l1.5-.631a.189.189,0,0,1,.262.108.192.192,0,0,1-.108.262l-1.5.631a.371.371,0,0,1-.081.018Zm4.988-2.093a.2.2,0,0,1-.189-.126.192.192,0,0,1,.108-.262l1.5-.631a.2.2,0,0,1,.153.37l-1.5.631a.371.371,0,0,1-.081.018Zm-80.539-.225a.2.2,0,0,1-.2-.171c-.1-.532-.189-1.073-.271-1.606a.205.205,0,0,1,.406-.063c.081.532.18,1.064.271,1.6a.2.2,0,0,1-.162.235h-.036Zm85.527-1.867a.2.2,0,0,1-.189-.126.192.192,0,0,1,.108-.262l1.5-.631a.2.2,0,1,1,.153.37l-1.5.631a.372.372,0,0,1-.081.018Zm3.175-3.049a.2.2,0,0,1-.2-.162c-.117-.532-.234-1.055-.361-1.578a.2.2,0,0,1,.153-.244.2.2,0,0,1,.244.153c.126.523.253,1.055.361,1.588a.2.2,0,0,1-.153.244h-.045Zm-89.5-.433a.2.2,0,0,1-.2-.18c-.063-.55-.117-1.091-.153-1.624a.2.2,0,0,1,.406-.027c.045.523.1,1.064.153,1.615a.208.208,0,0,1-.18.226h-.027Zm1.425-4.1a.2.2,0,0,1-.2-.162.2.2,0,0,1,.153-.244l1.587-.361a.212.212,0,0,1,.244.153.2.2,0,0,1-.153.244l-1.587.361h-.045Zm86.726-.7a.2.2,0,0,1-.2-.144c-.153-.523-.307-1.046-.46-1.551a.2.2,0,0,1,.388-.117c.153.514.316,1.037.469,1.56a.207.207,0,0,1-.135.253H530.5Zm-81.45-.487a.2.2,0,0,1-.2-.162.2.2,0,0,1,.153-.243l1.587-.352a.2.2,0,1,1,.09.4l-1.588.352h-.045Zm5.286-1.182a.2.2,0,0,1-.2-.162.2.2,0,0,1,.153-.243l1.56-.343a.21.21,0,0,1,.253.153.18.18,0,0,1-.144.235l-1.587.352h-.045Zm5.286-1.173a.2.2,0,0,1-.2-.162.2.2,0,0,1,.153-.244l1.588-.352a.2.2,0,1,1,.09.4l-1.587.352h-.045Zm5.286-1.164a.2.2,0,0,1-.2-.162.2.2,0,0,1,.153-.244l1.588-.343a.2.2,0,1,1,.09.4l-1.587.343H464.9Zm5.286-1.146a.2.2,0,0,1-.2-.162.2.2,0,0,1,.153-.244l1.588-.343a.2.2,0,1,1,.09.4l-1.587.343h-.045Zm58.665-.018a.2.2,0,0,1-.189-.135c-.18-.523-.361-1.028-.541-1.524a.2.2,0,0,1,.379-.144c.18.5.361,1.01.541,1.533a.2.2,0,0,1-.126.262c-.018,0-.045.009-.063.009Zm-53.371-1.118a.2.2,0,0,1-.2-.162.2.2,0,0,1,.153-.244l1.588-.334a.212.212,0,0,1,.243.153.2.2,0,0,1-.153.244l-1.587.334h-.045Zm5.295-1.118a.2.2,0,0,1-.2-.162.2.2,0,0,1,.153-.244l1.587-.334a.212.212,0,0,1,.244.153.2.2,0,0,1-.153.244l-1.588.334h-.045Zm5.295-1.109a.2.2,0,0,1-.2-.162.2.2,0,0,1,.153-.244l1.587-.325a.212.212,0,0,1,.244.153.2.2,0,0,1-.153.244l-1.587.325h-.045Zm5.3-1.091a.2.2,0,0,1-.2-.162.2.2,0,0,1,.162-.235l1.587-.325a.2.2,0,0,1,.244.162.2.2,0,0,1-.162.235l-1.588.325Zm35.592-.64a.2.2,0,0,1-.189-.126c-.207-.523-.415-1.028-.613-1.5a.2.2,0,1,1,.37-.153c.2.478.406.983.613,1.506a.187.187,0,0,1-.117.262.278.278,0,0,1-.072.018Zm-30.289-.433a.2.2,0,0,1-.2-.162.2.2,0,0,1,.162-.235l1.6-.316a.2.2,0,1,1,.072.4l-1.587.316h-.036Zm5.313-1.037a.2.2,0,0,1-.2-.162.2.2,0,0,1,.162-.235l1.6-.307a.2.2,0,0,1,.234.162.2.2,0,0,1-.162.234l-1.6.307Zm5.313-1a.2.2,0,0,1-.036-.4c.541-.1,1.073-.2,1.6-.289a.2.2,0,1,1,.072.4c-.523.09-1.055.189-1.6.289H507.3Zm5.322-.947a.2.2,0,0,1-.036-.406c.55-.1,1.082-.189,1.606-.271a.206.206,0,0,1,.072.406q-.785.135-1.6.271h-.036Zm5.34-.875a.2.2,0,0,1-.2-.171.21.21,0,0,1,.171-.235c.559-.081,1.091-.162,1.606-.243a.2.2,0,1,1,.054.4c-.514.072-1.046.153-1.606.243h-.027Zm6.873-.686a.188.188,0,0,1-.18-.117l-.027-.063c-.388.036-.821.081-1.281.135a.2.2,0,1,1-.045-.406c.478-.054.92-.1,1.344-.135a.3.3,0,0,1,.325.171l.063.126a.209.209,0,0,1-.1.271.263.263,0,0,1-.081.018Z" transform="translate(-438.903 -354.683)" fill="#bdd0fb"/>
        <path id="Trazado_192760" data-name="Trazado 192760" d="M503.193,421.713l-11.2,2.4a2.948,2.948,0,0,1-3.419-1.93l-3.6-10.5a2.954,2.954,0,0,1,2.183-3.842l13.458-2.877a2.963,2.963,0,0,1,3.563,2.526l1.344,10.986a2.956,2.956,0,0,1-2.327,3.247Z" transform="translate(-443.1 -357.788)" fill="url(#linear-gradient-23)"/>
        <path id="Trazado_192761" data-name="Trazado 192761" d="M501.68,420.279l-8.524,1.822a2.246,2.246,0,0,1-2.607-1.47l-2.742-7.992a2.248,2.248,0,0,1,1.669-2.922l10.238-2.192a2.242,2.242,0,0,1,2.706,1.921l1.028,8.361A2.245,2.245,0,0,1,501.68,420.279Z" transform="translate(-443.382 -358.041)" fill="#feca2e"/>
      </g>
    </g>
  </g>
</svg>
