<svg xmlns="http://www.w3.org/2000/svg" width="51.849" height="57.382" viewBox="0 0 51.849 57.382">
  <g id="Grupo_146531" data-name="Grupo 146531" transform="translate(-362.151 -2230.142)">
    <g id="_1_1_a" data-name="1_1_a" transform="translate(362.151 2230.142)">
      <path id="Trazado_193799" data-name="Trazado 193799" d="M238.932,93.835a19.007,19.007,0,1,1,14.7-6.925h0a18.985,18.985,0,0,1-14.7,6.925Zm.032-35.938a16.932,16.932,0,1,0,10.749,3.852A16.911,16.911,0,0,0,238.964,57.9Zm13.867,28.355Z" transform="translate(-206.105 -55.822)" fill="#4dd0e1"/>
      <path id="Trazado_193800" data-name="Trazado 193800" d="M276.432,125.791a13.478,13.478,0,1,1,10.424-4.91h0A13.464,13.464,0,0,1,276.432,125.791Zm.022-24.881a11.407,11.407,0,1,0,8.8,18.653h0a11.4,11.4,0,0,0-8.8-18.652Zm9.6,19.312Z" transform="translate(-243.6 -93.308)" fill="#4dd0e1"/>
      <path id="Trazado_193801" data-name="Trazado 193801" d="M301.368,146.957a1.068,1.068,0,0,1-.267-.035,1.037,1.037,0,0,1-.736-1.269,8.4,8.4,0,0,1,8.113-6.234h0a1.037,1.037,0,1,1,0,2.074,6.327,6.327,0,0,0-6.109,4.693,1.038,1.038,0,0,1-1,.771Z" transform="translate(-276.16 -128.675)" fill="#4dd0e1"/>
      <path id="Trazado_193802" data-name="Trazado 193802" d="M301.558,212.32a1.034,1.034,0,0,1-.873-.476,8.336,8.336,0,0,1-1.179-2.93,1.037,1.037,0,1,1,2.036-.4,6.261,6.261,0,0,0,.887,2.206,1.037,1.037,0,0,1-.87,1.6Z" transform="translate(-275.427 -188.16)" fill="#4dd0e1"/>
      <path id="Trazado_193803" data-name="Trazado 193803" d="M120.776,339.363a1.039,1.039,0,0,1-.668-.244l-7.451-6.272a1.037,1.037,0,0,1-.139-1.445l12.64-15.678a1.037,1.037,0,0,1,1.467-.149l7.624,6.273a1.038,1.038,0,0,1,.144,1.458l-12.813,15.677a1.04,1.04,0,0,1-.707.377c-.032,0-.064.005-.1.005Zm-6.006-7.45,5.869,4.941,11.493-14.062-6.016-4.951L114.77,331.912Z" transform="translate(-112.288 -281.983)" fill="#4dd0e1"/>
      <path id="Trazado_193804" data-name="Trazado 193804" d="M192.1,356.686a1.024,1.024,0,0,1-.654-.234l-7.655-6.243A1.037,1.037,0,0,1,185.1,348.6l7.655,6.243a1.037,1.037,0,0,1-.657,1.841Z" transform="translate(-174.27 -310.768)" fill="#4dd0e1"/>
      <path id="Trazado_193805" data-name="Trazado 193805" d="M225.333,298.948a1.037,1.037,0,0,1-.8-1.7l3.643-4.427a1.037,1.037,0,1,1,1.6,1.319l-3.643,4.427A1.036,1.036,0,0,1,225.333,298.948Z" transform="translate(-209.9 -262.034)" fill="#4dd0e1"/>
      <path id="Trazado_193806" data-name="Trazado 193806" d="M258.683,325.979a1.037,1.037,0,0,1-.8-1.7l3.693-4.487a1.037,1.037,0,0,1,1.6,1.319l-3.693,4.487A1.036,1.036,0,0,1,258.683,325.979Z" transform="translate(-238.964 -285.537)" fill="#4dd0e1"/>
    </g>
  </g>
</svg>
