<svg xmlns="http://www.w3.org/2000/svg" width="272.342" height="281.604" viewBox="0 0 272.342 281.604">
  <g id="Grupo_146518" data-name="Grupo 146518" transform="translate(-307.658 -3724.812)">
    <g id="_1_2_b" data-name="1_2_b" transform="translate(227.148 3708.303)">
      <path id="Shadow" d="M324.671,412.288a8.122,8.122,0,0,0-1.193-4.2h0a8.589,8.589,0,0,0-.515-.783c-.012-.012-.017-.023-.029-.035a8.022,8.022,0,0,0-.561-.69.523.523,0,0,1-.053-.058,7.061,7.061,0,0,0-.6-.585.51.51,0,0,0-.059-.047,5.657,5.657,0,0,0-.667-.485,4.252,4.252,0,0,0-.386-.216c-.059-.029-.117-.053-.175-.076s-.134-.064-.2-.088c-.1-.035-.193-.064-.287-.094-.023-.006-.053-.018-.076-.023a2.235,2.235,0,0,0-.333-.064h-.018a2.1,2.1,0,0,0-1.234.187h-.006c-3.414,1.713-23.1,14.236-32.162,19.884l-4.49,2.724a1,1,0,0,0-.333.316c-.012.018-.023.029-.035.047a1.506,1.506,0,0,0-.105.193.911.911,0,0,0-.047.134,1.525,1.525,0,0,0-.053.175c-.006.035-.012.076-.018.117-.2.111-.456.251-.742.409l-.661.357a25.721,25.721,0,0,0-5.122-3.794c-6.209-3.584-14.435-5.56-23.17-5.56s-16.961,1.976-23.17,5.56c-6.431,3.713-9.974,8.729-9.974,14.125s3.543,10.407,9.974,14.119c6.209,3.584,14.435,5.56,23.17,5.56s16.961-1.976,23.17-5.56c6.431-3.713,9.974-8.729,9.974-14.119a13.018,13.018,0,0,0-2.1-6.981l.591-.322a1.316,1.316,0,0,0,1.269.123l.029-.018c3.075-1.7,33.039-14.464,39.166-17.75h0a2.743,2.743,0,0,0,1.222-2.485Zm-52.987,36.64c-5.361,3.1-12.588,4.8-20.334,4.8s-14.973-1.707-20.334-4.8c-4.607-2.66-7.144-5.934-7.144-9.214s2.537-6.56,7.144-9.22c5.361-3.1,12.582-4.8,20.334-4.8s14.973,1.707,20.334,4.8c4.607,2.66,7.144,5.934,7.144,9.22S276.291,446.273,271.684,448.928Z" transform="translate(-57.189 -161.287)" fill="#e1e1e1" style="mix-blend-mode: multiply;isolation: isolate"/>
      <path id="Shadow-2" d="M272.053,274.871l-30.4-17.586a6.186,6.186,0,0,0-5.6,0L81.668,346.427c-1.543.895-1.543,2.339,0,3.227l30.4,17.586a6.168,6.168,0,0,0,5.6,0l57.863-33.407L184.414,339c4.712,2.719,12.348,2.719,17.054,0l26.514-15.2c4.712-2.719,4.712-7.127,0-9.846l-8.887-5.168,52.964-30.7c1.544-.889,1.544-2.339,0-3.227Z" transform="translate(0 -99.729)" fill="#e1e1e1" style="mix-blend-mode: multiply;isolation: isolate"/>
      <path id="Shadow-3" d="M29.805,0C46.267,0,59.611,7.7,59.611,17.206S46.267,34.413,29.805,34.413,0,26.709,0,17.206,13.344,0,29.805,0Z" transform="translate(293.241 223.972)" fill="#e1e1e1" style="mix-blend-mode: multiply;isolation: isolate"/>
      <g id="Device" transform="translate(100.201 16.508)">
        <g id="Monitor">
          <g id="Grupo_141572" data-name="Grupo 141572" transform="translate(63.972 154.594)">
            <path id="Trazado_194495" data-name="Trazado 194495" d="M260.909,346.545l22.842-13.207c2.356-1.362,3.531-3.14,3.531-4.923s.012-3.18.012-3.18l-21.5-12.2a5.027,5.027,0,0,1-2.274-3.941V280.93l-39.9,23.059v28.163a5.027,5.027,0,0,0,2.274,3.941l17.955,10.454c4.712,2.719,12.348,2.719,17.054,0Z" transform="translate(-223.614 -280.93)" fill="#37474f"/>
            <path id="Trazado_194496" data-name="Trazado 194496" d="M233.2,350.4v3.163l-7.314-4.215a5.04,5.04,0,0,1-2.274-3.941V317.245l7.6-4.385c.158,1.929.327,3.923.485,5.87l-5.332,3.087v22.006a5,5,0,0,0,2.274,3.941l4.554,2.637Z" transform="translate(-223.61 -294.192)" fill="#1a2e35"/>
            <path id="Trazado_194497" data-name="Trazado 194497" d="M228.326,333.815a5.027,5.027,0,0,0,2.274,3.941l15.2,8.863c4.712,2.719,12.348,2.719,17.054,0l22.854-13.207c4.712-2.719,4.712-7.127,0-9.846L270.5,314.7a5.027,5.027,0,0,1-2.274-3.941V288.75l-39.9,23.059v22.006Z" transform="translate(-225.566 -284.178)" fill="#375a64"/>
            <path id="Trazado_194498" data-name="Trazado 194498" d="M275.137,317.374h0l-4.63-2.678a5.027,5.027,0,0,1-2.274-3.941V288.75l-39.9,23.059v22.006a5.027,5.027,0,0,0,2.274,3.941l4.554,2.625,39.984-23.006Z" transform="translate(-225.57 -284.178)" opacity="0.15"/>
            <path id="Trazado_194499" data-name="Trazado 194499" d="M308,356.71v3.175c0,1.783-1.181,3.56-3.531,4.923l-22.848,13.2a17.067,17.067,0,0,1-8.138,2.023v-3.163a17.135,17.135,0,0,0,8.138-2.023l22.848-13.213C306.817,360.282,308,358.493,308,356.71Z" transform="translate(-244.323 -312.405)" fill="#37474f"/>
          </g>
          <path id="Trazado_194500" data-name="Trazado 194500" d="M116.856,251.124a6.1,6.1,0,0,0,5.507-.1l154.313-89.089a6.273,6.273,0,0,0,2.841-4.923V21.941a6.1,6.1,0,0,0-2.666-4.823,6.1,6.1,0,0,0-5.507.1L117.031,106.312a6.273,6.273,0,0,0-2.841,4.923V246.3A6.1,6.1,0,0,0,116.856,251.124Z" transform="translate(-114.19 -16.508)" fill="#375a64"/>
          <path id="Trazado_194501" data-name="Trazado 194501" d="M126.156,253.435l154.313-89.089a6.273,6.273,0,0,0,2.841-4.923V24.357c0-1.812-1.274-2.549-2.841-1.643L126.161,111.8a6.273,6.273,0,0,0-2.841,4.923V251.792c0,1.812,1.269,2.549,2.841,1.643Z" transform="translate(-117.982 -18.925)" fill="#37474f"/>
          <path id="Trazado_194502" data-name="Trazado 194502" d="M132.43,240.156V124.7a3.771,3.771,0,0,1,1.707-2.952L280.054,37.5c.941-.544,1.707-.105,1.707.982V153.949a3.765,3.765,0,0,1-1.7,2.952L134.137,241.144c-.941.544-1.707.105-1.707-.982Z" transform="translate(-121.766 -25.132)" fill="#4dd0e1"/>
          <path id="Trazado_194503" data-name="Trazado 194503" d="M132.43,240.156V124.7a3.771,3.771,0,0,1,1.707-2.952L280.054,37.5c.941-.544,1.707-.105,1.707.982V153.949a3.765,3.765,0,0,1-1.7,2.952L134.137,241.144c-.941.544-1.707.105-1.707-.982Z" transform="translate(-121.766 -25.132)" fill="#4dd0e1" opacity="0.7"/>
          <path id="Trazado_194504" data-name="Trazado 194504" d="M258.365,326.726a1.7,1.7,0,0,1-.854-.222,2.176,2.176,0,0,1-.941-2.005,6.18,6.18,0,0,1,2.83-4.9h0a1.94,1.94,0,0,1,3.151,1.818,6.164,6.164,0,0,1-2.83,4.9A2.777,2.777,0,0,1,258.365,326.726Zm2.38-6.893a2.133,2.133,0,0,0-1.029.322h0a5.546,5.546,0,0,0-2.508,4.338,1.312,1.312,0,0,0,2.181,1.257,5.546,5.546,0,0,0,2.508-4.338,1.589,1.589,0,0,0-.62-1.45,1.089,1.089,0,0,0-.532-.134Z" transform="translate(-173.328 -142.227)" fill="#4dd0e1"/>
        </g>
      </g>
      <g id="Window" transform="translate(131.684 39.984)">
        <g id="Grupo_141574" data-name="Grupo 141574" transform="translate(0 8.564)">
          <g id="Grupo_141573" data-name="Grupo 141573" transform="translate(3.572 2.058)">
            <path id="Trazado_194505" data-name="Trazado 194505" d="M324.434,74.83,174.15,161.493V272.255a1.918,1.918,0,0,0,2.871,1.666l2.678-1.549,141.93-81.834a6.182,6.182,0,0,0,2.8-4.853V74.83Z" transform="translate(-174.15 -74.83)" fill="#f0f0f0"/>
            <path id="Trazado_194506" data-name="Trazado 194506" d="M323.791,75.947V185.686a5.571,5.571,0,0,1-2.479,4.291L179.383,271.81,176.7,273.36a1.214,1.214,0,0,1-.626.17,1.3,1.3,0,0,1-.889-.362,1.254,1.254,0,0,1-.386-.918V161.867l148.986-85.92m.643-1.117L174.15,161.493V272.255a1.917,1.917,0,0,0,2.876,1.666l2.678-1.549,141.93-81.834a6.182,6.182,0,0,0,2.8-4.853V74.83h0Z" transform="translate(-174.15 -74.83)" fill="#e1e1e1"/>
          </g>
          <path id="Trazado_194507" data-name="Trazado 194507" d="M318.33,71.31,168.04,157.967l3.572,2.064L321.9,73.368Z" transform="translate(-168.04 -71.31)" fill="#375a64" opacity="0.8"/>
          <path id="Trazado_194508" data-name="Trazado 194508" d="M172.628,334.051a1.932,1.932,0,0,1-1.006-1.69V221.594l-3.572-2.064V329.678a2.4,2.4,0,0,0,.023.409,2.97,2.97,0,0,0,1.462,2.169l2.952,1.707.146.082h0Z" transform="translate(-168.044 -132.873)" fill="#ececec"/>
        </g>
        <g id="Grupo_141577" data-name="Grupo 141577" transform="translate(0 0)">
          <g id="Grupo_141575" data-name="Grupo 141575">
            <path id="Trazado_194509" data-name="Trazado 194509" d="M168.04,151.935v-7.472a3.1,3.1,0,0,1,1.391-2.426L316.939,57a3.078,3.078,0,0,1,2.795-.006l.766.444a3.091,3.091,0,0,1,1.4,2.42v7.484L171.612,153.993l-3.572-2.064Z" transform="translate(-168.04 -56.661)" fill="#4dd0e1"/>
            <path id="Trazado_194510" data-name="Trazado 194510" d="M168.04,151.935v-7.472a3.1,3.1,0,0,1,1.391-2.426L316.939,57a3.078,3.078,0,0,1,2.795-.006l.766.444a3.091,3.091,0,0,1,1.4,2.42v7.484L171.612,153.993l-3.572-2.064Z" transform="translate(-168.04 -56.661)" fill="#12263f"/>
            <path id="Trazado_194511" data-name="Trazado 194511" d="M174.15,148.085a3.1,3.1,0,0,1,1.391-2.426l147.5-85.037c.772-.45,1.391-.094,1.391.8v7.484L174.15,155.557Z" transform="translate(-170.578 -58.225)" fill="#4dd0e1"/>
            <path id="Trazado_194512" data-name="Trazado 194512" d="M174.15,148.085a3.1,3.1,0,0,1,1.391-2.426l147.5-85.037c.772-.45,1.391-.094,1.391.8v7.484L174.15,155.557Z" transform="translate(-170.578 -58.225)" fill="#0f2771"/>
            <path id="Trazado_194513" data-name="Trazado 194513" d="M172.021,206.538a2.887,2.887,0,0,0-.409,1.38v7.472l-3.572-2.058v-7.478a2.866,2.866,0,0,1,.409-1.374Z" transform="translate(-168.04 -118.058)" fill="#4dd0e1"/>
            <path id="Trazado_194514" data-name="Trazado 194514" d="M172.021,206.538a2.887,2.887,0,0,0-.409,1.38v7.472l-3.572-2.058v-7.478a2.866,2.866,0,0,1,.409-1.374Z" transform="translate(-168.04 -118.058)" opacity="0.5"/>
          </g>
          <g id="Grupo_141576" data-name="Grupo 141576" transform="translate(136.808 7.89)">
            <path id="Trazado_194515" data-name="Trazado 194515" d="M419.98,72.608c0,.836.585,1.175,1.31.76a2.9,2.9,0,0,0,1.31-2.274c0-.836-.585-1.175-1.31-.76A2.9,2.9,0,0,0,419.98,72.608Z" transform="translate(-409.491 -70.157)" fill="#fafafa"/>
            <path id="Trazado_194516" data-name="Trazado 194516" d="M411.01,77.788c0,.836.585,1.175,1.31.76a2.9,2.9,0,0,0,1.31-2.274c0-.836-.585-1.175-1.31-.76A2.9,2.9,0,0,0,411.01,77.788Z" transform="translate(-405.766 -72.309)" fill="#fafafa"/>
            <path id="Trazado_194517" data-name="Trazado 194517" d="M402.04,82.968c0,.836.585,1.175,1.31.76a2.9,2.9,0,0,0,1.31-2.274c0-.836-.585-1.175-1.31-.76A2.9,2.9,0,0,0,402.04,82.968Z" transform="translate(-402.04 -74.46)" fill="#fafafa"/>
          </g>
        </g>
        <g id="Grupo_141627" data-name="Grupo 141627" transform="translate(3.566 15.802)">
          <path id="Trazado_194518" data-name="Trazado 194518" d="M174.146,207.421V318.13a1.918,1.918,0,0,0,2.871,1.666l2.678-1.549,32.84-18.937V185.28L174.14,207.421h0Z" transform="translate(-174.14 -125.885)" fill="#fafafa"/>
          <path id="Trazado_194519" data-name="Trazado 194519" d="M244.31,144.955V252.484l106.114-61.266V83.69Z" transform="translate(-203.285 -83.69)" fill="#fafafa"/>
          <g id="Grupo_141578" data-name="Grupo 141578" transform="translate(4.303 70.207)">
            <path id="Trazado_194520" data-name="Trazado 194520" d="M206.809,207.42l-24.491,14.154a1.81,1.81,0,0,0-.819,1.421v2.549c0,.526.368.737.819.474l24.491-14.154a1.81,1.81,0,0,0,.819-1.421v-2.549c0-.526-.368-.737-.819-.474Z" transform="translate(-181.5 -205.241)" fill="#4dd0e1"/>
            <path id="Trazado_194521" data-name="Trazado 194521" d="M206.809,207.42l-24.491,14.154a1.81,1.81,0,0,0-.819,1.421v2.549c0,.526.368.737.819.474l24.491-14.154a1.81,1.81,0,0,0,.819-1.421v-2.549c0-.526-.368-.737-.819-.474Z" transform="translate(-181.5 -205.241)" fill="#fafafa" opacity="0.8"/>
            <path id="Trazado_194522" data-name="Trazado 194522" d="M231.96,206.964l-.719-.7a3.258,3.258,0,0,0,.228-1.152,1.373,1.373,0,0,0-.538-1.239.85.85,0,0,0-.877.041,2.881,2.881,0,0,0-1.134,2.344,1.373,1.373,0,0,0,.538,1.239.767.767,0,0,0,.386.105,1,1,0,0,0,.491-.14,1.97,1.97,0,0,0,.643-.655l.59.567a.289.289,0,0,0,.2.082.286.286,0,0,0,.2-.491Zm-1.912,0a.312.312,0,0,1-.31.041c-.117-.07-.257-.3-.257-.748a2.371,2.371,0,0,1,.848-1.853.393.393,0,0,1,.2-.064.2.2,0,0,1,.105.029c.117.07.257.3.257.748a2.371,2.371,0,0,1-.848,1.853Z" transform="translate(-201.196 -203.773)" fill="#375a64"/>
          </g>
          <g id="Grupo_141586" data-name="Grupo 141586" transform="translate(4.285 86.603)">
            <g id="Grupo_141584" data-name="Grupo 141584" transform="translate(0 9.267)">
              <g id="Grupo_141579" data-name="Grupo 141579">
                <path id="Trazado_194523" data-name="Trazado 194523" d="M182.078,250.938l-.55.316c-.035.018-.058,0-.058-.047v-1.485a.133.133,0,0,1,.058-.111l.55-.316c.035-.018.058,0,.058.047v1.485A.133.133,0,0,1,182.078,250.938Z" transform="translate(-181.47 -248.341)" fill="#375a64"/>
                <path id="Trazado_194524" data-name="Trazado 194524" d="M183.488,250.128l-.55.316c-.035.018-.058,0-.058-.047v-1.485a.133.133,0,0,1,.058-.111l.55-.316c.035-.018.058,0,.058.047v1.485A.133.133,0,0,1,183.488,250.128Z" transform="translate(-182.056 -248.005)" fill="#375a64"/>
                <path id="Trazado_194525" data-name="Trazado 194525" d="M184.9,249.318l-.55.316c-.035.018-.058,0-.058-.047V248.1a.133.133,0,0,1,.058-.111l.55-.316c.035-.018.058,0,.058.047v1.485A.133.133,0,0,1,184.9,249.318Z" transform="translate(-182.641 -247.669)" fill="#375a64"/>
                <path id="Trazado_194526" data-name="Trazado 194526" d="M182.078,254.218l-.55.316c-.035.018-.058,0-.058-.047V253a.133.133,0,0,1,.058-.111l.55-.316c.035-.018.058,0,.058.047v1.485A.133.133,0,0,1,182.078,254.218Z" transform="translate(-181.47 -249.704)" fill="#375a64"/>
                <path id="Trazado_194527" data-name="Trazado 194527" d="M183.488,253.408l-.55.316c-.035.018-.058,0-.058-.047v-1.485a.133.133,0,0,1,.058-.111l.55-.316c.035-.018.058,0,.058.047V253.3A.133.133,0,0,1,183.488,253.408Z" transform="translate(-182.056 -249.367)" fill="#375a64"/>
                <path id="Trazado_194528" data-name="Trazado 194528" d="M184.9,252.6l-.55.316c-.035.018-.058,0-.058-.047v-1.485a.133.133,0,0,1,.058-.111l.55-.316c.035-.018.058,0,.058.047v1.485A.133.133,0,0,1,184.9,252.6Z" transform="translate(-182.641 -249.031)" fill="#375a64"/>
              </g>
              <g id="Grupo_141581" data-name="Grupo 141581" transform="translate(0.007 7.477)">
                <path id="Trazado_194529" data-name="Trazado 194529" d="M182.171,262.8l-.678-.415a.2.2,0,0,1,0-.123l.678-1.193c.035-.058.082-.047.082.012v1.608c0,.064-.047.129-.082.105Z" transform="translate(-181.482 -260.697)" fill="#375a64"/>
                <g id="Grupo_141580" data-name="Grupo 141580" transform="translate(0.268)">
                  <path id="Trazado_194530" data-name="Trazado 194530" d="M182.08,262.134l.889-.514v.421l-.889.514c-.076.041-.14-.018-.14-.134a.371.371,0,0,1,.14-.292Z" transform="translate(-181.94 -260.94)" fill="#375a64"/>
                  <path id="Trazado_194531" data-name="Trazado 194531" d="M183.99,261.335l.3-.175v.421l-.3.175Z" transform="translate(-182.791 -260.749)" fill="#375a64"/>
                  <path id="Trazado_194532" data-name="Trazado 194532" d="M185.449,260.605v1.555a.371.371,0,0,1-.14.292c-.076.041-.134-.012-.134-.134v-1.345l-.374.216v-.421l.514-.3c.076-.041.14.018.14.134Z" transform="translate(-183.128 -260.458)" fill="#375a64"/>
                </g>
              </g>
              <g id="Grupo_141582" data-name="Grupo 141582" transform="translate(0.002 12.922)">
                <path id="Trazado_194533" data-name="Trazado 194533" d="M182.43,269.922a2.939,2.939,0,0,0-.935,2.52c.111.813.59.778.643,1.158a.043.043,0,0,0,.064.041l.6-.339a.163.163,0,0,0,.064-.111,7.159,7.159,0,0,0,.684-2.3c0-.924-.5-1.38-1.117-.959Z" transform="translate(-181.474 -269.77)" fill="#375a64"/>
                <path id="Trazado_194534" data-name="Trazado 194534" d="M183.269,276.924l-.579.333c-.041.023-.07,0-.07-.053v-.538a.192.192,0,0,1,.07-.14l.579-.333c.041-.023.07,0,.07.053v.538A.192.192,0,0,1,183.269,276.924Z" transform="translate(-181.95 -272.434)" fill="#375a64"/>
              </g>
              <path id="Trazado_194535" data-name="Trazado 194535" d="M182.571,248.337a3.517,3.517,0,0,0-1.052,2.227,2.3,2.3,0,0,0,.152,1.216l-.193,1.017c-.018.082.029.129.076.076l.585-.637a.922.922,0,0,0,.854-.251,3.5,3.5,0,0,0,1.052-2.233c.14-1.421-.6-2.134-1.473-1.421Zm.21,3.327c-.538.31-.976-.111-.976-.941a2.583,2.583,0,0,1,.976-2.07c.538-.31.976.111.976.941A2.583,2.583,0,0,1,182.781,251.664Z" transform="translate(-181.471 -247.827)" fill="#375a64"/>
              <path id="Trazado_194536" data-name="Trazado 194536" d="M182.571,281.857a3.518,3.518,0,0,0-1.052,2.228,2.3,2.3,0,0,0,.152,1.216l-.193,1.017c-.018.082.029.129.076.076l.585-.637a.922.922,0,0,0,.854-.251,3.5,3.5,0,0,0,1.052-2.233c.14-1.421-.6-2.134-1.473-1.421Zm.21,3.327c-.538.31-.976-.111-.976-.941a2.583,2.583,0,0,1,.976-2.07c.538-.31.976.111.976.941A2.583,2.583,0,0,1,182.781,285.184Z" transform="translate(-181.471 -261.75)" fill="#375a64"/>
              <g id="Grupo_141583" data-name="Grupo 141583" transform="translate(0 26.742)">
                <path id="Trazado_194537" data-name="Trazado 194537" d="M184.039,293.959a1.357,1.357,0,0,1-.515,1.093c-.286.164-.514-.058-.514-.5a1.357,1.357,0,0,1,.514-1.093C183.811,293.3,184.039,293.52,184.039,293.959Z" transform="translate(-182.11 -293.408)" fill="#375a64"/>
                <path id="Trazado_194538" data-name="Trazado 194538" d="M185.79,294.347a.887.887,0,0,1-.345.725c-.187.111-.345-.041-.345-.333a.887.887,0,0,1,.345-.725C185.632,293.9,185.79,294.055,185.79,294.347Z" transform="translate(-182.978 -293.645)" fill="#375a64"/>
                <path id="Trazado_194539" data-name="Trazado 194539" d="M184.066,298.329l-1.216.7v-1.543a1.059,1.059,0,0,1,.438-.842l.333-.193c.246-.14.438.006.438.333v1.543Z" transform="translate(-182.043 -294.65)" fill="#375a64"/>
                <path id="Trazado_194540" data-name="Trazado 194540" d="M185.553,296.137l-.333.193v1.777l.631-.363v-1.38c0-.216-.134-.322-.3-.222Z" transform="translate(-183.028 -294.528)" fill="#375a64"/>
                <path id="Trazado_194541" data-name="Trazado 194541" d="M181.49,296.841c0,.292.152.438.345.333a.912.912,0,0,0,.345-.725c0-.292-.152-.439-.345-.333A.912.912,0,0,0,181.49,296.841Z" transform="translate(-181.478 -294.518)" fill="#375a64"/>
                <path id="Trazado_194542" data-name="Trazado 194542" d="M181.768,298.223l.333-.193v1.777l-.631.362v-1.38A.714.714,0,0,1,181.768,298.223Z" transform="translate(-181.47 -295.328)" fill="#375a64"/>
              </g>
            </g>
            <g id="Grupo_141585" data-name="Grupo 141585" transform="translate(5.256)">
              <path id="Trazado_194543" data-name="Trazado 194543" d="M191.162,240.2l14.341-8.279c.386-.222.7-.064.7.351a1.511,1.511,0,0,1-.7,1.163l-14.341,8.279c-.386.222-.7.064-.7-.351A1.52,1.52,0,0,1,191.162,240.2Z" transform="translate(-190.46 -231.818)" fill="#e1e1e1"/>
              <path id="Trazado_194544" data-name="Trazado 194544" d="M191.162,251.747l14.341-8.279c.386-.222.7-.064.7.351a1.511,1.511,0,0,1-.7,1.163l-14.341,8.279c-.386.222-.7.064-.7-.351A1.52,1.52,0,0,1,191.162,251.747Z" transform="translate(-190.46 -236.615)" fill="#e1e1e1"/>
              <path id="Trazado_194545" data-name="Trazado 194545" d="M191.162,263.287l14.341-8.279c.386-.222.7-.064.7.351a1.511,1.511,0,0,1-.7,1.163L191.162,264.8c-.386.222-.7.064-.7-.351A1.52,1.52,0,0,1,191.162,263.287Z" transform="translate(-190.46 -241.408)" fill="#e1e1e1"/>
              <path id="Trazado_194546" data-name="Trazado 194546" d="M191.162,274.837l14.341-8.279c.386-.222.7-.064.7.351a1.511,1.511,0,0,1-.7,1.163l-14.341,8.279c-.386.222-.7.064-.7-.351A1.52,1.52,0,0,1,191.162,274.837Z" transform="translate(-190.46 -246.205)" fill="#e1e1e1"/>
              <path id="Trazado_194547" data-name="Trazado 194547" d="M191.162,286.387l14.341-8.279c.386-.222.7-.064.7.351a1.511,1.511,0,0,1-.7,1.163L191.162,287.9c-.386.222-.7.064-.7-.351A1.52,1.52,0,0,1,191.162,286.387Z" transform="translate(-190.46 -251.003)" fill="#e1e1e1"/>
              <path id="Trazado_194548" data-name="Trazado 194548" d="M195.652,295.807l14.341-8.279c.386-.222.7-.064.7.351a1.511,1.511,0,0,1-.7,1.163l-14.341,8.279c-.386.222-.7.064-.7-.351A1.52,1.52,0,0,1,195.652,295.807Z" transform="translate(-192.325 -254.915)" fill="#375a64"/>
              <path id="Trazado_194549" data-name="Trazado 194549" d="M195.652,303.607l14.341-8.279c.386-.222.7-.064.7.351a1.511,1.511,0,0,1-.7,1.163l-14.341,8.279c-.386.222-.7.064-.7-.351A1.52,1.52,0,0,1,195.652,303.607Z" transform="translate(-192.325 -258.155)" fill="#e1e1e1"/>
              <path id="Trazado_194550" data-name="Trazado 194550" d="M195.652,311.407l14.341-8.279c.386-.222.7-.064.7.351a1.511,1.511,0,0,1-.7,1.163l-14.341,8.279c-.386.222-.7.064-.7-.351A1.52,1.52,0,0,1,195.652,311.407Z" transform="translate(-192.325 -261.395)" fill="#e1e1e1"/>
              <path id="Trazado_194551" data-name="Trazado 194551" d="M200.432,316.367l14.341-8.279c.386-.222.7-.064.7.351a1.511,1.511,0,0,1-.7,1.163l-14.341,8.279c-.386.222-.7.064-.7-.351A1.52,1.52,0,0,1,200.432,316.367Z" transform="translate(-194.31 -263.455)" fill="#e1e1e1"/>
              <path id="Trazado_194552" data-name="Trazado 194552" d="M195.09,326.915l1.163-2.052c.047-.076.047-.181,0-.21l-1.163-.707c-.058-.035-.14.076-.14.181v2.765C194.95,327,195.032,327.015,195.09,326.915Z" transform="translate(-192.325 -270.08)" fill="#375a64"/>
              <path id="Trazado_194553" data-name="Trazado 194553" d="M200.432,324.137l14.341-8.279c.386-.222.7-.064.7.351a1.511,1.511,0,0,1-.7,1.163l-14.341,8.279c-.386.222-.7.064-.7-.351A1.52,1.52,0,0,1,200.432,324.137Z" transform="translate(-194.31 -266.682)" fill="#e1e1e1"/>
              <path id="Trazado_194554" data-name="Trazado 194554" d="M195.09,334.685l1.163-2.052c.047-.076.047-.181,0-.211l-1.163-.707c-.058-.035-.14.076-.14.181v2.765c0,.111.082.123.14.023Z" transform="translate(-192.325 -273.307)" fill="#375a64"/>
              <path id="Trazado_194555" data-name="Trazado 194555" d="M200.432,331.907l14.341-8.279c.386-.222.7-.064.7.351a1.511,1.511,0,0,1-.7,1.163l-14.341,8.279c-.386.222-.7.064-.7-.351A1.52,1.52,0,0,1,200.432,331.907Z" transform="translate(-194.31 -269.909)" fill="#e1e1e1"/>
              <path id="Trazado_194556" data-name="Trazado 194556" d="M195.09,342.465l1.163-2.052c.047-.076.047-.181,0-.21l-1.163-.707c-.058-.035-.14.076-.14.181v2.765C194.95,342.553,195.032,342.565,195.09,342.465Z" transform="translate(-192.325 -276.539)" fill="#375a64"/>
              <path id="Trazado_194557" data-name="Trazado 194557" d="M200.432,339.687l14.341-8.279c.386-.222.7-.064.7.351a1.511,1.511,0,0,1-.7,1.163L200.432,341.2c-.386.222-.7.064-.7-.351A1.52,1.52,0,0,1,200.432,339.687Z" transform="translate(-194.31 -273.141)" fill="#e1e1e1"/>
              <path id="Trazado_194558" data-name="Trazado 194558" d="M195.09,350.235l1.163-2.052c.047-.076.047-.181,0-.21l-1.163-.707c-.058-.035-.14.076-.14.181v2.765C194.95,350.323,195.032,350.335,195.09,350.235Z" transform="translate(-192.325 -279.766)" fill="#375a64"/>
              <path id="Trazado_194559" data-name="Trazado 194559" d="M200.432,347.457l14.341-8.279c.386-.222.7-.064.7.351a1.511,1.511,0,0,1-.7,1.163l-14.341,8.279c-.386.222-.7.064-.7-.351A1.52,1.52,0,0,1,200.432,347.457Z" transform="translate(-194.31 -276.368)" fill="#e1e1e1"/>
              <path id="Trazado_194560" data-name="Trazado 194560" d="M195.09,358.005l1.163-2.052c.047-.076.047-.181,0-.21l-1.163-.707c-.058-.035-.14.076-.14.181v2.765c0,.111.082.123.14.023Z" transform="translate(-192.325 -282.993)" fill="#375a64"/>
              <path id="Trazado_194561" data-name="Trazado 194561" d="M200.432,355.227l14.341-8.279c.386-.222.7-.064.7.351a1.511,1.511,0,0,1-.7,1.163l-14.341,8.279c-.386.222-.7.064-.7-.351A1.52,1.52,0,0,1,200.432,355.227Z" transform="translate(-194.31 -279.595)" fill="#e1e1e1"/>
              <path id="Trazado_194562" data-name="Trazado 194562" d="M195.09,365.775l1.163-2.052c.047-.076.047-.181,0-.21l-1.163-.707c-.058-.035-.14.076-.14.181v2.765c0,.111.082.123.14.023Z" transform="translate(-192.325 -286.221)" fill="#375a64"/>
              <path id="Trazado_194563" data-name="Trazado 194563" d="M200.432,363l14.341-8.279c.386-.222.7-.064.7.351a1.511,1.511,0,0,1-.7,1.163l-14.341,8.279c-.386.222-.7.064-.7-.351A1.52,1.52,0,0,1,200.432,363Z" transform="translate(-194.31 -282.823)" fill="#e1e1e1"/>
              <path id="Trazado_194564" data-name="Trazado 194564" d="M195.09,373.545l1.163-2.052c.047-.076.047-.181,0-.21l-1.163-.707c-.058-.035-.14.076-.14.181v2.765C194.95,373.633,195.032,373.645,195.09,373.545Z" transform="translate(-192.325 -289.448)" fill="#375a64"/>
              <path id="Trazado_194565" data-name="Trazado 194565" d="M200.432,370.777l14.341-8.279c.386-.222.7-.064.7.351a1.511,1.511,0,0,1-.7,1.163l-14.341,8.279c-.386.222-.7.064-.7-.351A1.52,1.52,0,0,1,200.432,370.777Z" transform="translate(-194.31 -286.054)" fill="#e1e1e1"/>
              <path id="Trazado_194566" data-name="Trazado 194566" d="M195.09,381.325l1.163-2.052c.047-.076.047-.181,0-.21l-1.163-.707c-.058-.035-.14.076-.14.181V381.3c0,.111.082.123.14.023Z" transform="translate(-192.325 -292.679)" fill="#375a64"/>
            </g>
          </g>
          <g id="Grupo_141595" data-name="Grupo 141595" transform="translate(43.644 5.535)">
            <g id="Grupo_141590" data-name="Grupo 141590" transform="translate(0 29.537)">
              <path id="Trazado_194567" data-name="Trazado 194567" d="M249.492,184.616,296.626,157.4a1.548,1.548,0,0,0,.7-1.21V144.176c0-.444-.316-.626-.7-.4l-47.134,27.21a1.549,1.549,0,0,0-.7,1.21v12.02c0,.444.316.626.7.4Z" transform="translate(-248.79 -143.678)" fill="#f0f0f0"/>
              <g id="Grupo_141589" data-name="Grupo 141589" transform="translate(3.064 25.753)">
                <g id="Grupo_141587" data-name="Grupo 141587" transform="translate(1.59 3.671)">
                  <path id="Trazado_194568" data-name="Trazado 194568" d="M256.908,197.9v-.029l.31-1.292-.427.246h-.029a.049.049,0,0,1-.012-.035v-.234s0-.035.012-.047a.06.06,0,0,1,.029-.035l.684-.4h.029a.049.049,0,0,1,.012.035v.2a.718.718,0,0,1-.023.123l-.31,1.292s-.012.029-.018.047-.018.023-.023.029l-.2.117h-.023a.045.045,0,0,1-.012-.029Z" transform="translate(-256.75 -194.867)" fill="#375a64"/>
                  <path id="Trazado_194569" data-name="Trazado 194569" d="M258.681,195.438a.38.38,0,0,1,.187-.058.177.177,0,0,1,.129.058.315.315,0,0,1,.076.146,1.143,1.143,0,0,1,.029.21v.392a1.175,1.175,0,0,1-.029.246,1.093,1.093,0,0,1-.076.234.926.926,0,0,1-.129.2.706.706,0,0,1-.187.158.381.381,0,0,1-.187.058.177.177,0,0,1-.129-.058.315.315,0,0,1-.076-.146.8.8,0,0,1-.029-.21v-.392a1.175,1.175,0,0,1,.029-.246,1.1,1.1,0,0,1,.076-.234.926.926,0,0,1,.129-.2A.706.706,0,0,1,258.681,195.438Zm.152.889v-.368a.229.229,0,0,0-.012-.094.093.093,0,0,0-.023-.064.128.128,0,0,0-.047-.029.1.1,0,0,0-.07.023.235.235,0,0,0-.07.058.373.373,0,0,0-.047.082.439.439,0,0,0-.023.094c0,.035-.012.07-.012.105v.368a.229.229,0,0,0,.012.094.093.093,0,0,0,.023.064.08.08,0,0,0,.047.029.1.1,0,0,0,.07-.023.235.235,0,0,0,.07-.058.373.373,0,0,0,.047-.082.276.276,0,0,0,.023-.094C258.821,196.4,258.833,196.362,258.833,196.327Z" transform="translate(-257.377 -194.576)" fill="#375a64"/>
                  <path id="Trazado_194570" data-name="Trazado 194570" d="M260.346,194.616v.17a.532.532,0,0,1-.018.134,1.01,1.01,0,0,1-.041.123.332.332,0,0,1-.07.105.465.465,0,0,1-.1.082.2.2,0,0,1-.1.035.1.1,0,0,1-.07-.029.136.136,0,0,1-.041-.076.317.317,0,0,1-.018-.111v-.17a.531.531,0,0,1,.018-.134,1,1,0,0,1,.041-.123.331.331,0,0,1,.07-.105.339.339,0,0,1,.1-.082.2.2,0,0,1,.1-.035.1.1,0,0,1,.07.029.136.136,0,0,1,.041.076A.341.341,0,0,1,260.346,194.616Zm.357-.468a.159.159,0,0,1,.023-.041.07.07,0,0,1,.029-.029l.117-.07s.018-.006.023,0,.012.012.012.029v.029l-.707,1.842a.161.161,0,0,1-.023.041.07.07,0,0,1-.029.029l-.117.07s-.018.006-.023,0-.012-.012-.012-.029v-.029Zm-.643.789a.121.121,0,0,0,.018.076c.006.018.023.018.041,0a.074.074,0,0,0,.041-.053.917.917,0,0,0,.018-.094v-.146a.121.121,0,0,0-.018-.076c-.006-.012-.023-.018-.041,0a.074.074,0,0,0-.041.053.916.916,0,0,0-.018.094Zm.947.07v.17a.532.532,0,0,1-.017.134,1.012,1.012,0,0,1-.041.123.332.332,0,0,1-.07.105.338.338,0,0,1-.1.082.186.186,0,0,1-.1.035.1.1,0,0,1-.07-.029.185.185,0,0,1-.041-.076.34.34,0,0,1-.018-.111v-.17a.531.531,0,0,1,.018-.134,1.011,1.011,0,0,1,.041-.123.332.332,0,0,1,.07-.105.338.338,0,0,1,.1-.082.175.175,0,0,1,.1-.029.1.1,0,0,1,.07.029.136.136,0,0,1,.041.076.318.318,0,0,1,.017.111Zm-.286.322a.121.121,0,0,0,.018.076c.006.012.023.018.041,0a.074.074,0,0,0,.041-.053.9.9,0,0,0,.018-.094v-.146a.121.121,0,0,0-.018-.076c-.006-.012-.023-.018-.041,0a.074.074,0,0,0-.041.053c-.006.023-.012.058-.018.094Z" transform="translate(-258.054 -194.006)" fill="#375a64"/>
                </g>
                <g id="Grupo_141588" data-name="Grupo 141588">
                  <path id="Trazado_194571" data-name="Trazado 194571" d="M255.88,192.341l-.474-.731a9.375,9.375,0,0,0-1.117,3.017l.766-.058A7.21,7.21,0,0,1,255.88,192.341Z" transform="translate(-254.138 -189.339)" fill="#375a64"/>
                  <path id="Trazado_194572" data-name="Trazado 194572" d="M258.007,189.519V188.28a5.376,5.376,0,0,0-1.807,1.947l.474.731a4.016,4.016,0,0,1,1.333-1.444Z" transform="translate(-254.931 -187.956)" fill="#375a64"/>
                  <path id="Trazado_194573" data-name="Trazado 194573" d="M254.837,197.816a6.34,6.34,0,0,1,.111-1.146l-.766.058a8.231,8.231,0,0,0-.152,1.549,5.863,5.863,0,0,0,.152,1.38l.766-.824a4.441,4.441,0,0,1-.111-1.017Z" transform="translate(-254.03 -191.441)" fill="#375a64"/>
                  <path id="Trazado_194574" data-name="Trazado 194574" d="M260.146,189.634a2.562,2.562,0,0,0-1.117-1.725,1.79,1.79,0,0,0-1.807.14v1.239a1.321,1.321,0,0,1,1.333-.1,1.861,1.861,0,0,1,.824,1.269,4.439,4.439,0,0,1,.111,1.017,6.337,6.337,0,0,1-.111,1.146,7.209,7.209,0,0,1-.824,2.228,4.016,4.016,0,0,1-1.333,1.444,1.321,1.321,0,0,1-1.333.1,1.861,1.861,0,0,1-.824-1.269l-.766.824a2.562,2.562,0,0,0,1.117,1.725,1.79,1.79,0,0,0,1.807-.14,5.376,5.376,0,0,0,1.807-1.947,9.374,9.374,0,0,0,1.117-3.017,8.232,8.232,0,0,0,.152-1.549,5.863,5.863,0,0,0-.152-1.38Z" transform="translate(-254.142 -187.726)" fill="#4dd0e1"/>
                </g>
              </g>
              <path id="Trazado_194575" data-name="Trazado 194575" d="M271.932,179.247l14.341-8.279c.386-.222.7-.064.7.357a1.511,1.511,0,0,1-.7,1.163l-14.341,8.279c-.386.222-.7.064-.7-.351a1.511,1.511,0,0,1,.7-1.163Z" transform="translate(-258.11 -154.971)" fill="#375a64"/>
              <path id="Trazado_194576" data-name="Trazado 194576" d="M271.932,180.164l24.836-14.336c.386-.222.7-.064.7.351a1.52,1.52,0,0,1-.7,1.163l-24.836,14.336c-.386.222-.7.064-.7-.357a1.511,1.511,0,0,1,.7-1.163Z" transform="translate(-258.11 -152.836)" fill="#e1e1e1"/>
            </g>
            <g id="Grupo_141594" data-name="Grupo 141594" transform="translate(51.151)">
              <path id="Trazado_194577" data-name="Trazado 194577" d="M336.982,134.1l47.134-27.215a1.549,1.549,0,0,0,.7-1.21V93.656c0-.444-.316-.626-.7-.4l-47.134,27.21a1.548,1.548,0,0,0-.7,1.21v12.02C336.28,134.137,336.6,134.318,336.982,134.1Z" transform="translate(-336.28 -93.158)" fill="#f0f0f0"/>
              <g id="Grupo_141593" data-name="Grupo 141593" transform="translate(3.485 25.507)">
                <g id="Grupo_141591" data-name="Grupo 141591" transform="translate(1.555 3.648)">
                  <path id="Trazado_194578" data-name="Trazado 194578" d="M344.9,146.188a.9.9,0,0,1,.035-.251.985.985,0,0,1,.094-.228.9.9,0,0,1,.134-.187.635.635,0,0,1,.158-.129.42.42,0,0,1,.158-.053.209.209,0,0,1,.134.029.239.239,0,0,1,.094.117.525.525,0,0,1,.035.21.439.439,0,0,1-.012.123.826.826,0,0,1-.023.117c-.012.035-.023.076-.035.111l-.035.105-.269.737-.018.035a.154.154,0,0,1-.029.035l-.228.129h-.018a.252.252,0,0,1-.006-.029v-.029l.181-.5a.277.277,0,0,1-.134.018.16.16,0,0,1-.111-.047.241.241,0,0,1-.076-.117.61.61,0,0,1-.029-.193Zm.573-.333a.189.189,0,0,0-.012-.07.062.062,0,0,0-.035-.041.139.139,0,0,0-.053-.012.131.131,0,0,0-.059.018.417.417,0,0,0-.058.047.3.3,0,0,0-.047.07c-.012.023-.023.053-.035.082a.227.227,0,0,0-.012.088.161.161,0,0,0,.012.076c.012.018.018.035.035.041a.063.063,0,0,0,.047.012.13.13,0,0,0,.058-.018.407.407,0,0,0,.059-.047.363.363,0,0,0,.053-.07c.012-.023.023-.053.035-.082a.451.451,0,0,0,.012-.088Z" transform="translate(-344.9 -143.987)" fill="#375a64"/>
                  <path id="Trazado_194579" data-name="Trazado 194579" d="M346.961,144.448a.38.38,0,0,1,.187-.058.177.177,0,0,1,.129.058.315.315,0,0,1,.076.146,1.145,1.145,0,0,1,.029.21v.4a1.175,1.175,0,0,1-.029.246,1.1,1.1,0,0,1-.076.234.928.928,0,0,1-.129.2.706.706,0,0,1-.187.158.38.38,0,0,1-.187.058.177.177,0,0,1-.129-.058.315.315,0,0,1-.076-.146,1.135,1.135,0,0,1-.029-.21V145.3a1.171,1.171,0,0,1,.029-.246,1.093,1.093,0,0,1,.076-.234.93.93,0,0,1,.129-.2.706.706,0,0,1,.187-.158Zm.152.889v-.368a.227.227,0,0,0-.012-.094.093.093,0,0,0-.023-.064.127.127,0,0,0-.047-.029.1.1,0,0,0-.07.023.233.233,0,0,0-.07.058.371.371,0,0,0-.047.082.439.439,0,0,0-.023.094c0,.035-.012.07-.012.105v.368a.228.228,0,0,0,.012.094.093.093,0,0,0,.023.064.08.08,0,0,0,.047.029.1.1,0,0,0,.07-.023.234.234,0,0,0,.07-.058.373.373,0,0,0,.047-.082.275.275,0,0,0,.023-.094C347.1,145.407,347.113,145.372,347.113,145.337Z" transform="translate(-345.581 -143.592)" fill="#375a64"/>
                  <path id="Trazado_194580" data-name="Trazado 194580" d="M348.636,143.636v.17a.534.534,0,0,1-.017.134,1.022,1.022,0,0,1-.041.123.332.332,0,0,1-.07.105.463.463,0,0,1-.1.082.2.2,0,0,1-.1.035.1.1,0,0,1-.07-.029.136.136,0,0,1-.041-.076.317.317,0,0,1-.018-.111v-.17a.533.533,0,0,1,.018-.134,1,1,0,0,1,.041-.123.331.331,0,0,1,.07-.105.339.339,0,0,1,.1-.082.2.2,0,0,1,.1-.035.1.1,0,0,1,.07.029.136.136,0,0,1,.041.076A.342.342,0,0,1,348.636,143.636Zm.357-.468a.16.16,0,0,1,.023-.041.071.071,0,0,1,.029-.029l.117-.07s.018-.006.023,0,.012.012.012.029v.029l-.707,1.842a.159.159,0,0,1-.023.041.07.07,0,0,1-.029.029l-.117.07s-.018.006-.023,0-.012-.012-.012-.029v-.029Zm-.643.789a.121.121,0,0,0,.018.076c.006.018.023.018.041,0a.075.075,0,0,0,.041-.053.93.93,0,0,0,.017-.094v-.146a.121.121,0,0,0-.017-.076c-.006-.012-.023-.018-.041,0a.074.074,0,0,0-.041.053.918.918,0,0,0-.018.094Zm.947.07v.17a.532.532,0,0,1-.018.134,1.012,1.012,0,0,1-.041.123.332.332,0,0,1-.07.105.339.339,0,0,1-.1.082.186.186,0,0,1-.1.035.1.1,0,0,1-.07-.029.136.136,0,0,1-.041-.076.341.341,0,0,1-.018-.111v-.17a.531.531,0,0,1,.018-.134,1,1,0,0,1,.041-.123.331.331,0,0,1,.07-.105.339.339,0,0,1,.1-.082.175.175,0,0,1,.1-.029.1.1,0,0,1,.07.029.136.136,0,0,1,.041.076.317.317,0,0,1,.018.111Zm-.286.322a.121.121,0,0,0,.018.076c.006.012.023.018.041,0a.074.074,0,0,0,.041-.053.366.366,0,0,0,.012-.094v-.146a.2.2,0,0,0-.012-.076c-.006-.012-.023-.018-.041,0a.074.074,0,0,0-.041.053c-.006.023-.012.058-.018.094Z" transform="translate(-346.262 -143.026)" fill="#375a64"/>
                </g>
                <g id="Grupo_141592" data-name="Grupo 141592">
                  <path id="Trazado_194581" data-name="Trazado 194581" d="M346.227,138.569V137.33a5.377,5.377,0,0,0-1.807,1.947l.474.731a4.016,4.016,0,0,1,1.333-1.444Z" transform="translate(-343.145 -137.012)" fill="#375a64"/>
                  <path id="Trazado_194582" data-name="Trazado 194582" d="M348.244,138.694a2.562,2.562,0,0,0-1.117-1.725,1.79,1.79,0,0,0-1.807.14v1.239a1.321,1.321,0,0,1,1.333-.1,1.861,1.861,0,0,1,.824,1.269,4.441,4.441,0,0,1,.111,1.017,6.34,6.34,0,0,1-.111,1.146,7.121,7.121,0,0,1-.824,2.222,3.93,3.93,0,0,1-1.339,1.444,1.321,1.321,0,0,1-1.333.1,1.861,1.861,0,0,1-.824-1.269,4.441,4.441,0,0,1-.111-1.017,6.34,6.34,0,0,1,.111-1.146,7.21,7.21,0,0,1,.824-2.228l-.474-.731a9.376,9.376,0,0,0-1.117,3.017,8.235,8.235,0,0,0-.152,1.549,5.865,5.865,0,0,0,.152,1.38,2.563,2.563,0,0,0,1.117,1.725,1.79,1.79,0,0,0,1.807-.14,5.376,5.376,0,0,0,1.807-1.947h0a9.375,9.375,0,0,0,1.117-3.017,8.23,8.23,0,0,0,.152-1.549,5.862,5.862,0,0,0-.152-1.38Z" transform="translate(-342.24 -136.786)" fill="#4dd0e1"/>
                </g>
              </g>
              <path id="Trazado_194583" data-name="Trazado 194583" d="M360.122,128.3l14.341-8.279c.386-.222.7-.064.7.351a1.52,1.52,0,0,1-.7,1.163l-14.341,8.279c-.386.222-.7.064-.7-.357a1.511,1.511,0,0,1,.7-1.163Z" transform="translate(-345.891 -104.272)" fill="#375a64"/>
              <path id="Trazado_194584" data-name="Trazado 194584" d="M360.122,129.214l24.836-14.336c.386-.222.7-.064.7.351a1.52,1.52,0,0,1-.7,1.163l-24.836,14.336c-.386.222-.7.064-.7-.357a1.511,1.511,0,0,1,.7-1.163Z" transform="translate(-345.891 -102.138)" fill="#e1e1e1"/>
            </g>
          </g>
          <g id="Grupo_141626" data-name="Grupo 141626" transform="translate(43.656 28.256)">
            <path id="Trazado_194585" data-name="Trazado 194585" d="M257.712,215.132l10.062-5.823c.386-.222.7-.064.7.351a1.52,1.52,0,0,1-.7,1.163l-10.062,5.823c-.386.222-.7.064-.7-.357a1.511,1.511,0,0,1,.7-1.163Z" transform="translate(-252.216 -164.08)" fill="#375a64"/>
            <path id="Trazado_194586" data-name="Trazado 194586" d="M348.136,132.657h0m-.3.17v76.829a.9.9,0,0,1-.374.649l-98.017,56.588V190.07a.9.9,0,0,1,.374-.649l1.228-.707a2.2,2.2,0,0,0,1.023-1.771V182.5a.9.9,0,0,1,.374-.649l14.073-8.121v4.128A1.055,1.055,0,0,0,267.554,179a1.26,1.26,0,0,0,.637-.181l79.653-45.983m-81.021,40.721h0m81.284-41.534a.625.625,0,0,0-.31.094L267.875,178.26a.624.624,0,0,1-.31.094c-.228,0-.386-.181-.386-.5v-4.443c0-.316-.158-.5-.386-.5a.625.625,0,0,0-.31.094l-14.341,8.279a1.548,1.548,0,0,0-.7,1.21v4.443a1.548,1.548,0,0,1-.7,1.21l-1.228.707a1.548,1.548,0,0,0-.7,1.21v77.139c0,.316.158.5.386.5a.625.625,0,0,0,.31-.094l98.286-56.746a1.548,1.548,0,0,0,.7-1.21V132.517c0-.316-.158-.5-.386-.5h0Z" transform="translate(-248.81 -132.02)" fill="#e1e1e1"/>
            <g id="Grupo_141596" data-name="Grupo 141596" transform="translate(5.601 51.529)">
              <path id="Trazado_194587" data-name="Trazado 194587" d="M259.1,230.027a.7.7,0,0,1-.345-.088.808.808,0,0,1-.368-.731V226.28a1.89,1.89,0,0,1,.859-1.491l7.793-4.5a.747.747,0,0,1,1.187.684v2.929a1.89,1.89,0,0,1-.859,1.491l-7.793,4.5a.938.938,0,0,1-.474.14Zm.474-4.683a1.227,1.227,0,0,0-.538.93V229.2a.278.278,0,0,0,.041.175.259.259,0,0,0,.17-.047l7.793-4.5a1.227,1.227,0,0,0,.538-.93v-2.929a.278.278,0,0,0-.041-.175.259.259,0,0,0-.17.047Z" transform="translate(-258.39 -220.157)" fill="#e1e1e1"/>
              <path id="Trazado_194588" data-name="Trazado 194588" d="M260.878,228.96l5.081-2.947c.257-.146.468-.041.468.234a1,1,0,0,1-.468.772l-5.081,2.947c-.257.146-.468.041-.468-.234A.991.991,0,0,1,260.878,228.96Z" transform="translate(-259.229 -222.562)" fill="#e1e1e1"/>
              <path id="Trazado_194589" data-name="Trazado 194589" d="M271.917,224.8l.421.6a.076.076,0,0,0,.064-.035l.421-1.082c.018-.053,0-.1-.029-.082l-.842.485a.092.092,0,0,0-.029.117Z" transform="translate(-264.006 -221.833)" fill="#375a64"/>
            </g>
            <g id="Grupo_141598" data-name="Grupo 141598" transform="translate(4.566 35.168)">
              <g id="Grupo_141597" data-name="Grupo 141597">
                <path id="Trazado_194590" data-name="Trazado 194590" d="M257.292,285.514c.374-.216.672-.041.672.392a1.5,1.5,0,0,1-.672,1.169c-.368.216-.672.041-.672-.392A1.5,1.5,0,0,1,257.292,285.514Z" transform="translate(-256.62 -230.903)" fill="#4dd0e1"/>
                <path id="Trazado_194591" data-name="Trazado 194591" d="M266.272,275.154c.374-.216.672-.041.672.392a1.5,1.5,0,0,1-.672,1.169c-.368.216-.672.041-.672-.392A1.5,1.5,0,0,1,266.272,275.154Z" transform="translate(-260.35 -226.6)" fill="#4dd0e1"/>
                <path id="Trazado_194592" data-name="Trazado 194592" d="M275.242,269.974c.374-.216.672-.041.672.392a1.5,1.5,0,0,1-.672,1.169c-.368.216-.672.041-.672-.392A1.5,1.5,0,0,1,275.242,269.974Z" transform="translate(-264.076 -224.448)" fill="#4dd0e1"/>
                <path id="Trazado_194593" data-name="Trazado 194593" d="M284.212,267.074c.374-.216.672-.041.672.392a1.5,1.5,0,0,1-.672,1.169c-.368.216-.672.041-.672-.392A1.5,1.5,0,0,1,284.212,267.074Z" transform="translate(-267.801 -223.244)" fill="#4dd0e1"/>
                <path id="Trazado_194594" data-name="Trazado 194594" d="M293.2,257.744c.374-.216.672-.041.672.392a1.5,1.5,0,0,1-.672,1.169c-.368.216-.672.041-.672-.392A1.5,1.5,0,0,1,293.2,257.744Z" transform="translate(-271.535 -219.369)" fill="#4dd0e1"/>
                <path id="Trazado_194595" data-name="Trazado 194595" d="M302.162,254.434c.374-.216.672-.041.672.392a1.5,1.5,0,0,1-.672,1.169c-.368.216-.672.041-.672-.392a1.5,1.5,0,0,1,.672-1.169Z" transform="translate(-275.257 -217.994)" fill="#4dd0e1"/>
                <path id="Trazado_194596" data-name="Trazado 194596" d="M311.132,244.074c.374-.216.672-.041.672.392a1.5,1.5,0,0,1-.672,1.169c-.374.216-.672.041-.672-.392A1.5,1.5,0,0,1,311.132,244.074Z" transform="translate(-278.982 -213.691)" fill="#4dd0e1"/>
                <path id="Trazado_194597" data-name="Trazado 194597" d="M320.112,241.484c.374-.216.672-.041.672.392a1.5,1.5,0,0,1-.672,1.169c-.368.216-.672.041-.672-.392A1.5,1.5,0,0,1,320.112,241.484Z" transform="translate(-282.712 -212.615)" fill="#4dd0e1"/>
                <path id="Trazado_194598" data-name="Trazado 194598" d="M329.082,212.984c.374-.216.672-.041.672.392a1.5,1.5,0,0,1-.672,1.169c-.368.216-.672.041-.672-.392A1.5,1.5,0,0,1,329.082,212.984Z" transform="translate(-286.438 -200.778)" fill="#4dd0e1"/>
                <path id="Trazado_194599" data-name="Trazado 194599" d="M338.052,228.524c.374-.216.672-.041.672.392a1.5,1.5,0,0,1-.672,1.169c-.368.216-.672.041-.672-.392A1.5,1.5,0,0,1,338.052,228.524Z" transform="translate(-290.164 -207.232)" fill="#4dd0e1"/>
                <path id="Trazado_194600" data-name="Trazado 194600" d="M347.032,228.524c.374-.216.672-.041.672.392a1.5,1.5,0,0,1-.672,1.169c-.368.216-.672.041-.672-.392A1.5,1.5,0,0,1,347.032,228.524Z" transform="translate(-293.893 -207.232)" fill="#4dd0e1"/>
                <path id="Trazado_194601" data-name="Trazado 194601" d="M356,228.524c.374-.216.672-.041.672.392a1.5,1.5,0,0,1-.672,1.169c-.368.216-.672.041-.672-.392A1.5,1.5,0,0,1,356,228.524Z" transform="translate(-297.619 -207.232)" fill="#4dd0e1"/>
                <path id="Trazado_194602" data-name="Trazado 194602" d="M364.972,212.984c.374-.216.672-.041.672.392a1.5,1.5,0,0,1-.672,1.169c-.368.216-.672.041-.672-.392A1.5,1.5,0,0,1,364.972,212.984Z" transform="translate(-301.345 -200.778)" fill="#4dd0e1"/>
                <path id="Trazado_194603" data-name="Trazado 194603" d="M373.952,210c.374-.216.672-.041.672.392a1.5,1.5,0,0,1-.672,1.169c-.368.216-.672.041-.672-.392A1.5,1.5,0,0,1,373.952,210Z" transform="translate(-305.075 -199.54)" fill="#4dd0e1"/>
                <path id="Trazado_194604" data-name="Trazado 194604" d="M382.952,197.444c.374-.216.672-.041.672.392a1.5,1.5,0,0,1-.672,1.169c-.374.216-.672.041-.672-.392A1.5,1.5,0,0,1,382.952,197.444Z" transform="translate(-308.813 -194.323)" fill="#4dd0e1"/>
                <path id="Trazado_194605" data-name="Trazado 194605" d="M391.9,197.444c.374-.216.672-.041.672.392a1.5,1.5,0,0,1-.672,1.169c-.374.216-.672.041-.672-.392A1.5,1.5,0,0,1,391.9,197.444Z" transform="translate(-312.53 -194.323)" fill="#4dd0e1"/>
                <path id="Trazado_194606" data-name="Trazado 194606" d="M400.872,197.444c.374-.216.672-.041.672.392a1.5,1.5,0,0,1-.672,1.169c-.374.216-.672.041-.672-.392A1.5,1.5,0,0,1,400.872,197.444Z" transform="translate(-316.256 -194.323)" fill="#4dd0e1"/>
                <path id="Trazado_194607" data-name="Trazado 194607" d="M409.842,192.264c.374-.216.672-.041.672.392a1.5,1.5,0,0,1-.672,1.169c-.368.216-.672.041-.672-.392A1.5,1.5,0,0,1,409.842,192.264Z" transform="translate(-319.982 -192.172)" fill="#4dd0e1"/>
              </g>
              <path id="Trazado_194608" data-name="Trazado 194608" d="M257.634,248.247a.15.15,0,0,1-.105-.041.159.159,0,0,1-.017-.228l5.3-6.086a.345.345,0,0,1,.041-.035l5.209-3.005,5.238-1.7,5.221-5.426a.413.413,0,0,1,.058-.041l5.209-1.918,5.221-6.028a.244.244,0,0,1,.076-.047l5.162-1.491,5.221-16.575a.157.157,0,0,1,.134-.111.168.168,0,0,1,.158.082l5.2,9h10.307l5.2-9a.149.149,0,0,1,.088-.07l5.2-1.725,5.215-7.3a.161.161,0,0,1,.129-.07h10.448l5.209-3.005a.162.162,0,1,1,.164.281l-5.244,3.028a.284.284,0,0,1-.082.023H331.178l-5.2,7.279a.142.142,0,0,1-.082.058l-5.186,1.719-5.215,9.033a.157.157,0,0,1-.14.082H304.862a.157.157,0,0,1-.14-.082l-5.063-8.77-5.133,16.312a.155.155,0,0,1-.111.105l-5.2,1.5L284,230.017a.466.466,0,0,1-.064.047l-5.209,1.924-5.221,5.426a.243.243,0,0,1-.064.041l-5.244,1.7-5.157,2.982-5.279,6.069a.168.168,0,0,1-.123.053Z" transform="translate(-256.974 -192.682)" fill="#4dd0e1"/>
            </g>
            <g id="Grupo_141607" data-name="Grupo 141607" transform="translate(4.566 32.139)">
              <path id="Trazado_194609" data-name="Trazado 194609" d="M257.54,255.608a.324.324,0,0,1-.164-.6l89.188-51.5a.321.321,0,1,1,.322.555l-89.188,51.5a.325.325,0,0,1-.164.041Z" transform="translate(-256.868 -193.835)" fill="#e1e1e1"/>
              <g id="Grupo_141603" data-name="Grupo 141603">
                <g id="Grupo_141600" data-name="Grupo 141600">
                  <g id="Grupo_141599" data-name="Grupo 141599">
                    <path id="Trazado_194610" data-name="Trazado 194610" d="M257.292,280.334c.374-.216.672-.041.672.392a1.5,1.5,0,0,1-.672,1.169c-.368.216-.672.041-.672-.392A1.5,1.5,0,0,1,257.292,280.334Z" transform="translate(-256.62 -225.723)" fill="#4dd0e1"/>
                    <path id="Trazado_194611" data-name="Trazado 194611" d="M266.262,264.794c.374-.216.672-.041.672.392a1.5,1.5,0,0,1-.672,1.169c-.368.216-.672.041-.672-.392A1.5,1.5,0,0,1,266.262,264.794Z" transform="translate(-260.346 -219.268)" fill="#4dd0e1"/>
                    <path id="Trazado_194612" data-name="Trazado 194612" d="M275.242,262.854c.374-.216.672-.041.672.392a1.5,1.5,0,0,1-.672,1.169c-.374.216-.672.041-.672-.392A1.5,1.5,0,0,1,275.242,262.854Z" transform="translate(-264.076 -218.463)" fill="#4dd0e1"/>
                    <path id="Trazado_194613" data-name="Trazado 194613" d="M284.212,244.074c.374-.216.672-.041.672.392a1.5,1.5,0,0,1-.672,1.169c-.374.216-.672.041-.672-.392A1.5,1.5,0,0,1,284.212,244.074Z" transform="translate(-267.801 -210.662)" fill="#4dd0e1"/>
                    <path id="Trazado_194614" data-name="Trazado 194614" d="M293.2,249.254c.374-.216.672-.041.672.392a1.5,1.5,0,0,1-.672,1.169c-.374.216-.672.041-.672-.392A1.5,1.5,0,0,1,293.2,249.254Z" transform="translate(-271.535 -212.814)" fill="#4dd0e1"/>
                    <path id="Trazado_194615" data-name="Trazado 194615" d="M302.162,246.664c.374-.216.672-.041.672.392a1.5,1.5,0,0,1-.672,1.169c-.374.216-.672.041-.672-.392A1.5,1.5,0,0,1,302.162,246.664Z" transform="translate(-275.257 -211.738)" fill="#4dd0e1"/>
                    <path id="Trazado_194616" data-name="Trazado 194616" d="M311.132,238.894c.374-.216.672-.041.672.392a1.5,1.5,0,0,1-.672,1.169c-.374.216-.672.041-.672-.392A1.5,1.5,0,0,1,311.132,238.894Z" transform="translate(-278.982 -208.511)" fill="#4dd0e1"/>
                    <path id="Trazado_194617" data-name="Trazado 194617" d="M320.112,228.524c.374-.216.672-.041.672.392a1.5,1.5,0,0,1-.672,1.169c-.368.216-.672.041-.672-.392A1.5,1.5,0,0,1,320.112,228.524Z" transform="translate(-282.712 -204.204)" fill="#4dd0e1"/>
                    <path id="Trazado_194618" data-name="Trazado 194618" d="M329.082,225.934c.374-.216.672-.041.672.392a1.5,1.5,0,0,1-.672,1.169c-.368.216-.672.041-.672-.392A1.5,1.5,0,0,1,329.082,225.934Z" transform="translate(-286.438 -203.128)" fill="#4dd0e1"/>
                    <path id="Trazado_194619" data-name="Trazado 194619" d="M338.052,218.164c.374-.216.672-.041.672.392a1.5,1.5,0,0,1-.672,1.169c-.368.216-.672.041-.672-.392A1.5,1.5,0,0,1,338.052,218.164Z" transform="translate(-290.164 -199.901)" fill="#4dd0e1"/>
                    <path id="Trazado_194620" data-name="Trazado 194620" d="M347.032,218.164c.374-.216.672-.041.672.392a1.5,1.5,0,0,1-.672,1.169c-.368.216-.672.041-.672-.392A1.5,1.5,0,0,1,347.032,218.164Z" transform="translate(-293.893 -199.901)" fill="#4dd0e1"/>
                    <path id="Trazado_194621" data-name="Trazado 194621" d="M356,197.444c.374-.216.672-.041.672.392a1.5,1.5,0,0,1-.672,1.169c-.368.216-.672.041-.672-.392A1.5,1.5,0,0,1,356,197.444Z" transform="translate(-297.619 -191.295)" fill="#4dd0e1"/>
                    <path id="Trazado_194622" data-name="Trazado 194622" d="M364.982,207.734c.374-.216.672-.041.672.392a1.5,1.5,0,0,1-.672,1.169c-.368.216-.672.041-.672-.392A1.5,1.5,0,0,1,364.982,207.734Z" transform="translate(-301.349 -195.568)" fill="#4dd0e1"/>
                    <path id="Trazado_194623" data-name="Trazado 194623" d="M373.952,197.444c.374-.216.672-.041.672.392a1.5,1.5,0,0,1-.672,1.169c-.374.216-.672.041-.672-.392A1.5,1.5,0,0,1,373.952,197.444Z" transform="translate(-305.075 -191.295)" fill="#4dd0e1"/>
                    <path id="Trazado_194624" data-name="Trazado 194624" d="M382.922,192.264c.374-.216.672-.041.672.392a1.5,1.5,0,0,1-.672,1.169c-.368.216-.672.041-.672-.392A1.5,1.5,0,0,1,382.922,192.264Z" transform="translate(-308.8 -189.143)" fill="#4dd0e1"/>
                    <path id="Trazado_194625" data-name="Trazado 194625" d="M391.9,192.264c.374-.216.672-.041.672.392a1.5,1.5,0,0,1-.672,1.169c-.374.216-.672.041-.672-.392A1.5,1.5,0,0,1,391.9,192.264Z" transform="translate(-312.53 -189.143)" fill="#4dd0e1"/>
                    <path id="Trazado_194626" data-name="Trazado 194626" d="M400.872,187.084c.374-.216.672-.041.672.392a1.5,1.5,0,0,1-.672,1.169c-.368.216-.672.041-.672-.392A1.5,1.5,0,0,1,400.872,187.084Z" transform="translate(-316.256 -186.992)" fill="#4dd0e1"/>
                    <path id="Trazado_194627" data-name="Trazado 194627" d="M409.842,187.084c.374-.216.672-.041.672.392a1.5,1.5,0,0,1-.672,1.169c-.368.216-.672.041-.672-.392A1.5,1.5,0,0,1,409.842,187.084Z" transform="translate(-319.982 -186.992)" fill="#4dd0e1"/>
                  </g>
                  <path id="Trazado_194628" data-name="Trazado 194628" d="M257.654,243.046a.253.253,0,0,1-.082-.023.162.162,0,0,1-.058-.222l5.285-9.109a.141.141,0,0,1,.105-.076l5.133-1.093,5.209-10.91a.142.142,0,0,1,.1-.082.193.193,0,0,1,.129.012l5.192,3,5.139-1.491,5.215-4.513,5.238-6.045a.243.243,0,0,1,.076-.047l5.215-1.5,5.221-4.519a.168.168,0,0,1,.105-.041h5.139l5.2-12.02a.162.162,0,0,1,.269-.041l5.122,5.917,5.122-5.917a.347.347,0,0,1,.041-.035l5.262-3.04a.284.284,0,0,1,.082-.023h5.2l5.192-3a.284.284,0,0,1,.082-.023h5.244a.163.163,0,0,1,.164.164.16.16,0,0,1-.164.164h-5.2l-5.192,3a.284.284,0,0,1-.082.023h-5.2l-5.2,3.005-5.227,6.039a.17.17,0,0,1-.246,0l-5.081-5.864-5.145,11.88a.159.159,0,0,1-.146.1h-5.186l-5.2,4.5a.372.372,0,0,1-.058.035l-5.2,1.5-5.221,6.028-5.256,4.554a.37.37,0,0,1-.059.035l-5.238,1.52a.151.151,0,0,1-.123-.018l-5.1-2.947-5.168,10.828a.167.167,0,0,1-.111.088l-5.139,1.1-5.25,9.045a.157.157,0,0,1-.14.082Z" transform="translate(-256.982 -187.493)" fill="#4dd0e1"/>
                </g>
                <g id="Grupo_141602" data-name="Grupo 141602" opacity="0.3">
                  <g id="Grupo_141601" data-name="Grupo 141601">
                    <path id="Trazado_194629" data-name="Trazado 194629" d="M257.292,280.334c.374-.216.672-.041.672.392a1.5,1.5,0,0,1-.672,1.169c-.368.216-.672.041-.672-.392A1.5,1.5,0,0,1,257.292,280.334Z" transform="translate(-256.62 -225.723)"/>
                    <path id="Trazado_194630" data-name="Trazado 194630" d="M266.262,264.794c.374-.216.672-.041.672.392a1.5,1.5,0,0,1-.672,1.169c-.368.216-.672.041-.672-.392A1.5,1.5,0,0,1,266.262,264.794Z" transform="translate(-260.346 -219.268)"/>
                    <path id="Trazado_194631" data-name="Trazado 194631" d="M275.242,262.854c.374-.216.672-.041.672.392a1.5,1.5,0,0,1-.672,1.169c-.374.216-.672.041-.672-.392A1.5,1.5,0,0,1,275.242,262.854Z" transform="translate(-264.076 -218.463)"/>
                    <path id="Trazado_194632" data-name="Trazado 194632" d="M284.212,244.074c.374-.216.672-.041.672.392a1.5,1.5,0,0,1-.672,1.169c-.374.216-.672.041-.672-.392A1.5,1.5,0,0,1,284.212,244.074Z" transform="translate(-267.801 -210.662)"/>
                    <path id="Trazado_194633" data-name="Trazado 194633" d="M293.2,249.254c.374-.216.672-.041.672.392a1.5,1.5,0,0,1-.672,1.169c-.374.216-.672.041-.672-.392A1.5,1.5,0,0,1,293.2,249.254Z" transform="translate(-271.535 -212.814)"/>
                    <path id="Trazado_194634" data-name="Trazado 194634" d="M302.162,246.664c.374-.216.672-.041.672.392a1.5,1.5,0,0,1-.672,1.169c-.374.216-.672.041-.672-.392A1.5,1.5,0,0,1,302.162,246.664Z" transform="translate(-275.257 -211.738)"/>
                    <path id="Trazado_194635" data-name="Trazado 194635" d="M311.132,238.894c.374-.216.672-.041.672.392a1.5,1.5,0,0,1-.672,1.169c-.374.216-.672.041-.672-.392A1.5,1.5,0,0,1,311.132,238.894Z" transform="translate(-278.982 -208.511)"/>
                    <path id="Trazado_194636" data-name="Trazado 194636" d="M320.112,228.524c.374-.216.672-.041.672.392a1.5,1.5,0,0,1-.672,1.169c-.368.216-.672.041-.672-.392A1.5,1.5,0,0,1,320.112,228.524Z" transform="translate(-282.712 -204.204)"/>
                    <path id="Trazado_194637" data-name="Trazado 194637" d="M329.082,225.934c.374-.216.672-.041.672.392a1.5,1.5,0,0,1-.672,1.169c-.368.216-.672.041-.672-.392A1.5,1.5,0,0,1,329.082,225.934Z" transform="translate(-286.438 -203.128)"/>
                    <path id="Trazado_194638" data-name="Trazado 194638" d="M338.052,218.164c.374-.216.672-.041.672.392a1.5,1.5,0,0,1-.672,1.169c-.368.216-.672.041-.672-.392A1.5,1.5,0,0,1,338.052,218.164Z" transform="translate(-290.164 -199.901)"/>
                    <path id="Trazado_194639" data-name="Trazado 194639" d="M347.032,218.164c.374-.216.672-.041.672.392a1.5,1.5,0,0,1-.672,1.169c-.368.216-.672.041-.672-.392A1.5,1.5,0,0,1,347.032,218.164Z" transform="translate(-293.893 -199.901)"/>
                    <path id="Trazado_194640" data-name="Trazado 194640" d="M356,197.444c.374-.216.672-.041.672.392a1.5,1.5,0,0,1-.672,1.169c-.368.216-.672.041-.672-.392A1.5,1.5,0,0,1,356,197.444Z" transform="translate(-297.619 -191.295)"/>
                    <path id="Trazado_194641" data-name="Trazado 194641" d="M364.982,207.734c.374-.216.672-.041.672.392a1.5,1.5,0,0,1-.672,1.169c-.368.216-.672.041-.672-.392A1.5,1.5,0,0,1,364.982,207.734Z" transform="translate(-301.349 -195.568)"/>
                    <path id="Trazado_194642" data-name="Trazado 194642" d="M373.952,197.444c.374-.216.672-.041.672.392a1.5,1.5,0,0,1-.672,1.169c-.374.216-.672.041-.672-.392A1.5,1.5,0,0,1,373.952,197.444Z" transform="translate(-305.075 -191.295)"/>
                    <path id="Trazado_194643" data-name="Trazado 194643" d="M382.922,192.264c.374-.216.672-.041.672.392a1.5,1.5,0,0,1-.672,1.169c-.368.216-.672.041-.672-.392A1.5,1.5,0,0,1,382.922,192.264Z" transform="translate(-308.8 -189.143)"/>
                    <path id="Trazado_194644" data-name="Trazado 194644" d="M391.9,192.264c.374-.216.672-.041.672.392a1.5,1.5,0,0,1-.672,1.169c-.374.216-.672.041-.672-.392A1.5,1.5,0,0,1,391.9,192.264Z" transform="translate(-312.53 -189.143)"/>
                    <path id="Trazado_194645" data-name="Trazado 194645" d="M400.872,187.084c.374-.216.672-.041.672.392a1.5,1.5,0,0,1-.672,1.169c-.368.216-.672.041-.672-.392A1.5,1.5,0,0,1,400.872,187.084Z" transform="translate(-316.256 -186.992)"/>
                    <path id="Trazado_194646" data-name="Trazado 194646" d="M409.842,187.084c.374-.216.672-.041.672.392a1.5,1.5,0,0,1-.672,1.169c-.368.216-.672.041-.672-.392A1.5,1.5,0,0,1,409.842,187.084Z" transform="translate(-319.982 -186.992)"/>
                  </g>
                  <path id="Trazado_194647" data-name="Trazado 194647" d="M257.654,243.046a.253.253,0,0,1-.082-.023.162.162,0,0,1-.058-.222l5.285-9.109a.141.141,0,0,1,.105-.076l5.133-1.093,5.209-10.91a.142.142,0,0,1,.1-.082.193.193,0,0,1,.129.012l5.192,3,5.139-1.491,5.215-4.513,5.238-6.045a.243.243,0,0,1,.076-.047l5.215-1.5,5.221-4.519a.168.168,0,0,1,.105-.041h5.139l5.2-12.02a.162.162,0,0,1,.269-.041l5.122,5.917,5.122-5.917a.347.347,0,0,1,.041-.035l5.262-3.04a.284.284,0,0,1,.082-.023h5.2l5.192-3a.284.284,0,0,1,.082-.023h5.244a.163.163,0,0,1,.164.164.16.16,0,0,1-.164.164h-5.2l-5.192,3a.284.284,0,0,1-.082.023h-5.2l-5.2,3.005-5.227,6.039a.17.17,0,0,1-.246,0l-5.081-5.864-5.145,11.88a.159.159,0,0,1-.146.1h-5.186l-5.2,4.5a.372.372,0,0,1-.058.035l-5.2,1.5-5.221,6.028-5.256,4.554a.37.37,0,0,1-.059.035l-5.238,1.52a.151.151,0,0,1-.123-.018l-5.1-2.947-5.168,10.828a.167.167,0,0,1-.111.088l-5.139,1.1-5.25,9.045a.157.157,0,0,1-.14.082Z" transform="translate(-256.982 -187.493)"/>
                </g>
              </g>
              <g id="Grupo_141605" data-name="Grupo 141605" transform="translate(0 29.125)">
                <path id="Trazado_194648" data-name="Trazado 194648" d="M262.138,239.82l5.081-2.947c.257-.146.468-.041.468.234a1,1,0,0,1-.468.772l-5.081,2.947c-.257.146-.468.041-.468-.234A.991.991,0,0,1,262.138,239.82Z" transform="translate(-258.717 -236.807)" fill="#e1e1e1"/>
                <g id="Grupo_141604" data-name="Grupo 141604" transform="translate(0 4.194)">
                  <path id="Trazado_194649" data-name="Trazado 194649" d="M257.292,244.074c.374-.216.672-.041.672.392a1.5,1.5,0,0,1-.672,1.169c-.368.216-.672.041-.672-.392A1.5,1.5,0,0,1,257.292,244.074Z" transform="translate(-256.62 -243.982)" fill="#4dd0e1"/>
                  <path id="Trazado_194650" data-name="Trazado 194650" d="M257.292,244.074c.374-.216.672-.041.672.392a1.5,1.5,0,0,1-.672,1.169c-.368.216-.672.041-.672-.392A1.5,1.5,0,0,1,257.292,244.074Z" transform="translate(-256.62 -243.982)" opacity="0.3"/>
                </g>
              </g>
              <g id="Grupo_141606" data-name="Grupo 141606" transform="translate(0 32.147)">
                <path id="Trazado_194651" data-name="Trazado 194651" d="M262.138,244.99l5.081-2.947c.257-.146.468-.041.468.234a1,1,0,0,1-.468.772L262.138,246c-.257.146-.468.041-.468-.234A.991.991,0,0,1,262.138,244.99Z" transform="translate(-258.717 -241.977)" fill="#e1e1e1"/>
                <path id="Trazado_194652" data-name="Trazado 194652" d="M257.292,249.254c.374-.216.672-.041.672.392a1.5,1.5,0,0,1-.672,1.169c-.368.216-.672.041-.672-.392A1.5,1.5,0,0,1,257.292,249.254Z" transform="translate(-256.62 -244.961)" fill="#4dd0e1"/>
              </g>
            </g>
            <g id="Grupo_141618" data-name="Grupo 141618" transform="translate(5.079 74.647)">
              <g id="Grupo_141609" data-name="Grupo 141609" transform="translate(0 18.212)">
                <path id="Trazado_194653" data-name="Trazado 194653" d="M257.657,307.36a.161.161,0,0,1-.111-.275l2.66-2.736,2.613-.333,2.637-3.408,2.643.362,2.567-2.315,2.619-1.573,2.672-3.7,2.654.83,2.549-2.28a.161.161,0,1,1,.216.24l-2.689,2.4-2.608-.819-2.6,3.584-2.625,1.567-2.654,2.4-2.608-.357-2.608,3.368-2.631.333-2.584,2.654a.158.158,0,0,1-.117.047Z" transform="translate(-257.497 -291.281)" fill="#4dd0e1"/>
                <g id="Grupo_141608" data-name="Grupo 141608" transform="translate(0.341 2.721)">
                  <path id="Trazado_194654" data-name="Trazado 194654" d="M258.939,302.026s.041-.035.064-.058.053-.035.07-.053a.8.8,0,0,1,.4-.123.468.468,0,0,1,.316.117.721.721,0,0,1,.2.333,1.526,1.526,0,0,1,.076.52,2.329,2.329,0,0,1-.076.6,3.015,3.015,0,0,1-.2.573,2.311,2.311,0,0,1-.316.485,1.537,1.537,0,0,1-.4.339.748.748,0,0,1-.4.117.468.468,0,0,1-.316-.117.722.722,0,0,1-.2-.333,1.527,1.527,0,0,1-.076-.52,2.08,2.08,0,0,1,.023-.333c.018-.111.041-.21.064-.316s.058-.2.088-.3.064-.193.1-.281l.7-1.988a.738.738,0,0,0,.041-.1.186.186,0,0,1,.076-.088l.222-.129s.041-.012.053.006a.152.152,0,0,1,.023.082.162.162,0,0,1-.006.053.063.063,0,0,1-.012.035l-.52,1.467Zm-.491,1.678a.987.987,0,0,0,.047.31.528.528,0,0,0,.123.21.269.269,0,0,0,.2.082.57.57,0,0,0,.263-.076.806.806,0,0,0,.263-.228,1.556,1.556,0,0,0,.2-.31,1.838,1.838,0,0,0,.123-.357,1.568,1.568,0,0,0,.041-.362,1,1,0,0,0-.041-.31.528.528,0,0,0-.123-.21.269.269,0,0,0-.2-.082.57.57,0,0,0-.263.076.882.882,0,0,0-.263.228,1.872,1.872,0,0,0-.2.31,1.836,1.836,0,0,0-.123.357A1.583,1.583,0,0,0,258.448,303.7Z" transform="translate(-258.08 -297.525)" fill="#375a64"/>
                  <path id="Trazado_194655" data-name="Trazado 194655" d="M262.347,301.672a.714.714,0,0,0,.053.158.217.217,0,0,0,.105.111.3.3,0,0,0,.181.018.869.869,0,0,0,.292-.123,1.25,1.25,0,0,0,.228-.175,1.135,1.135,0,0,0,.187-.246,1.328,1.328,0,0,0,.129-.31,1.208,1.208,0,0,0,.047-.362.76.76,0,0,0-.047-.292.269.269,0,0,0-.123-.14.289.289,0,0,0-.187-.006.964.964,0,0,0-.234.1l-.316.181s-.053.018-.076,0a.137.137,0,0,1-.029-.094v-.21a.271.271,0,0,1,.023-.111c.012-.035.029-.07.041-.105l.69-1.543-1.1.637s-.053.018-.076,0a.137.137,0,0,1-.029-.094v-.21a.319.319,0,0,1,.029-.129.145.145,0,0,1,.076-.088l1.514-.871a.158.158,0,0,1,.076,0,.137.137,0,0,1,.029.094v.21a.435.435,0,0,1-.018.117.746.746,0,0,1-.053.129l-.678,1.52a.836.836,0,0,1,.351-.111.437.437,0,0,1,.275.082.561.561,0,0,1,.175.275,1.464,1.464,0,0,1,.064.462,2.138,2.138,0,0,1-.076.585,2.411,2.411,0,0,1-.2.52,2.251,2.251,0,0,1-.3.427,1.59,1.59,0,0,1-.368.3,1.128,1.128,0,0,1-.444.164.481.481,0,0,1-.31-.064.49.49,0,0,1-.181-.234,1.035,1.035,0,0,1-.064-.345.229.229,0,0,1,.023-.105.145.145,0,0,1,.058-.07l.175-.1s.053-.018.07,0a.116.116,0,0,1,.035.064Z" transform="translate(-259.704 -296.44)" fill="#375a64"/>
                  <path id="Trazado_194656" data-name="Trazado 194656" d="M266.247,299.418a.623.623,0,0,0,.053.158.242.242,0,0,0,.105.111.3.3,0,0,0,.181.017.868.868,0,0,0,.292-.123,1.251,1.251,0,0,0,.228-.175,1.132,1.132,0,0,0,.187-.246,1.33,1.33,0,0,0,.129-.31,1.207,1.207,0,0,0,.047-.362.816.816,0,0,0-.047-.3.247.247,0,0,0-.123-.14.288.288,0,0,0-.187-.006.963.963,0,0,0-.234.1l-.322.181s-.053.012-.07,0a.114.114,0,0,1-.029-.094v-.21a.271.271,0,0,1,.023-.111c.012-.035.029-.07.041-.105l.69-1.543-1.105.637a.158.158,0,0,1-.076,0A.137.137,0,0,1,266,296.8v-.211a.342.342,0,0,1,.029-.129.192.192,0,0,1,.076-.088l1.514-.871a.158.158,0,0,1,.076,0,.137.137,0,0,1,.029.094v.21a.434.434,0,0,1-.018.117.743.743,0,0,1-.053.129l-.678,1.52a.836.836,0,0,1,.351-.111.408.408,0,0,1,.275.088.561.561,0,0,1,.175.275,1.464,1.464,0,0,1,.064.462,2.166,2.166,0,0,1-.076.585,2.41,2.41,0,0,1-.2.52,2.253,2.253,0,0,1-.3.427,1.59,1.59,0,0,1-.368.3,1.128,1.128,0,0,1-.444.164.48.48,0,0,1-.31-.064.463.463,0,0,1-.181-.234,1.035,1.035,0,0,1-.064-.345.229.229,0,0,1,.023-.105.2.2,0,0,1,.059-.076l.175-.1s.053-.018.07,0a.139.139,0,0,1,.035.064Z" transform="translate(-261.324 -295.501)" fill="#375a64"/>
                </g>
                <path id="Trazado_194657" data-name="Trazado 194657" d="M258.248,312.54,280.915,299.4c.257-.146.468-.041.468.234a1,1,0,0,1-.468.772l-22.667,13.137c-.257.146-.468.041-.468-.234A.991.991,0,0,1,258.248,312.54Z" transform="translate(-257.615 -294.374)" fill="#e1e1e1"/>
                <path id="Trazado_194658" data-name="Trazado 194658" d="M258.248,293.86l5.081-2.947c.257-.146.468-.041.468.234a1,1,0,0,1-.468.772l-5.081,2.947c-.257.146-.468.041-.468-.234A.991.991,0,0,1,258.248,293.86Z" transform="translate(-257.615 -290.847)" fill="#e1e1e1"/>
              </g>
              <g id="Grupo_141612" data-name="Grupo 141612" transform="translate(0 34.795)">
                <path id="Trazado_194659" data-name="Trazado 194659" d="M257.657,336.867a.161.161,0,0,1-.111-.275l2.66-2.736,2.631-.333,2.648-2.315,2.555-.7,2.66-5.3,2.672,1.31,2.572-2.268.041-.012,2.555-.485,2.578-4.461a.162.162,0,0,1,.281.164l-2.654,4.59-2.66.5-2.672,2.356-2.578-1.263-2.584,5.145-2.654.725-2.631,2.321-2.619.333-2.584,2.654a.159.159,0,0,1-.117.047Z" transform="translate(-257.497 -319.211)" fill="#4dd0e1"/>
                <g id="Grupo_141610" data-name="Grupo 141610" opacity="0.3">
                  <path id="Trazado_194660" data-name="Trazado 194660" d="M257.657,336.867a.161.161,0,0,1-.111-.275l2.66-2.736,2.631-.333,2.648-2.315,2.555-.7,2.66-5.3,2.672,1.31,2.572-2.268.041-.012,2.555-.485,2.578-4.461a.162.162,0,0,1,.281.164l-2.654,4.59-2.66.5-2.672,2.356-2.578-1.263-2.584,5.145-2.654.725-2.631,2.321-2.619.333-2.584,2.654a.159.159,0,0,1-.117.047Z" transform="translate(-257.497 -319.211)"/>
                </g>
                <g id="Grupo_141611" data-name="Grupo 141611" transform="translate(0.247 4.9)">
                  <path id="Trazado_194661" data-name="Trazado 194661" d="M259.171,335.632a.342.342,0,0,1-.029.129.192.192,0,0,1-.076.088l-.158.094a.159.159,0,0,1-.076,0,.137.137,0,0,1-.029-.094v-3.257l-.62,1.087a.15.15,0,0,1-.076.082.062.062,0,0,1-.07-.018l-.094-.129a.346.346,0,0,1-.023-.105.257.257,0,0,1,.041-.129l.819-1.444a.292.292,0,0,1,.064-.076.355.355,0,0,1,.058-.041l.158-.094a.158.158,0,0,1,.076,0,.137.137,0,0,1,.029.094v3.818Z" transform="translate(-257.92 -329.308)" fill="#375a64"/>
                  <path id="Trazado_194662" data-name="Trazado 194662" d="M262.087,331.9a2.748,2.748,0,0,0,.175-.427,1.582,1.582,0,0,0,.058-.462.724.724,0,0,0-.117-.456c-.076-.094-.2-.094-.374.006a.908.908,0,0,0-.228.193,1.133,1.133,0,0,0-.158.251,1.721,1.721,0,0,0-.1.292,2.639,2.639,0,0,0-.058.31.278.278,0,0,1-.041.123.184.184,0,0,1-.058.07l-.175.1s-.041.012-.058,0a.1.1,0,0,1-.023-.076,2.084,2.084,0,0,1,.064-.479,2.618,2.618,0,0,1,.175-.509,2.164,2.164,0,0,1,.281-.462,1.381,1.381,0,0,1,.38-.339.744.744,0,0,1,.374-.117.358.358,0,0,1,.269.117.677.677,0,0,1,.164.31,1.811,1.811,0,0,1,.058.462,3.2,3.2,0,0,1-.018.351,2.022,2.022,0,0,1-.064.327c-.029.105-.07.222-.111.333a3.871,3.871,0,0,1-.17.363l-.854,1.725,1.175-.678a.159.159,0,0,1,.076,0,.137.137,0,0,1,.029.094v.21a.341.341,0,0,1-.029.129.192.192,0,0,1-.076.088L261,334.7s-.053.018-.07,0a.113.113,0,0,1-.029-.094v-.21a.417.417,0,0,1,.018-.123,1.273,1.273,0,0,1,.064-.152L262.1,331.9Z" transform="translate(-259.158 -328.56)" fill="#375a64"/>
                  <path id="Trazado_194663" data-name="Trazado 194663" d="M266.734,328.79v1a3.757,3.757,0,0,1-.064.678,3.324,3.324,0,0,1-.175.62,2.134,2.134,0,0,1-.3.514,1.494,1.494,0,0,1-.438.374.752.752,0,0,1-.439.129.413.413,0,0,1-.3-.17,1.012,1.012,0,0,1-.181-.415,3.066,3.066,0,0,1-.064-.6v-1a3.757,3.757,0,0,1,.064-.678,2.937,2.937,0,0,1,.181-.62,2.274,2.274,0,0,1,.3-.52,1.514,1.514,0,0,1,.439-.38.7.7,0,0,1,.438-.123.437.437,0,0,1,.3.17.939.939,0,0,1,.175.415A3.078,3.078,0,0,1,266.734,328.79Zm-1.6,1.924a1.16,1.16,0,0,0,.164.731q.158.175.456,0a1.124,1.124,0,0,0,.456-.526,2.4,2.4,0,0,0,.164-.924v-1a1.169,1.169,0,0,0-.164-.737c-.105-.117-.257-.123-.456-.006a1.112,1.112,0,0,0-.456.532,2.42,2.42,0,0,0-.164.924v1Z" transform="translate(-260.765 -327.593)" fill="#375a64"/>
                </g>
                <path id="Trazado_194664" data-name="Trazado 194664" d="M258.248,343.6l22.667-13.137c.257-.146.468-.041.468.234a1,1,0,0,1-.468.772l-22.667,13.137c-.257.146-.468.041-.468-.234A.991.991,0,0,1,258.248,343.6Z" transform="translate(-257.615 -323.857)" fill="#e1e1e1"/>
                <path id="Trazado_194665" data-name="Trazado 194665" d="M258.248,324.92l5.081-2.947c.257-.146.468-.041.468.234a1,1,0,0,1-.468.772l-5.081,2.947c-.257.146-.468.041-.468-.234A.991.991,0,0,1,258.248,324.92Z" transform="translate(-257.615 -320.331)" fill="#e1e1e1"/>
              </g>
              <g id="Grupo_141614" data-name="Grupo 141614" transform="translate(31.473)">
                <path id="Trazado_194666" data-name="Trazado 194666" d="M311.494,276.214a.188.188,0,0,1-.129-.059.165.165,0,0,1,.023-.228l2.625-2.093,2.643-3.017,2.684-.386,2.561-.579,2.648-3.128,2.608.462,2.613-4.139,2.654.041,2.572-2.3a.161.161,0,1,1,.216.24l-2.666,2.38-2.6-.041-2.631,4.169-2.637-.468-2.6,3.069-2.678.6-2.578.374-2.584,2.947-2.643,2.111a.159.159,0,0,1-.1.035Z" transform="translate(-311.33 -260.135)" fill="#4dd0e1"/>
                <g id="Grupo_141613" data-name="Grupo 141613" transform="translate(0.345 2.797)">
                  <path id="Trazado_194667" data-name="Trazado 194667" d="M312.779,270.876s.041-.035.064-.058.053-.035.07-.053a.8.8,0,0,1,.4-.123.468.468,0,0,1,.316.117.722.722,0,0,1,.2.333,1.526,1.526,0,0,1,.076.52,2.329,2.329,0,0,1-.076.6,3.018,3.018,0,0,1-.2.573,2.31,2.31,0,0,1-.316.485,1.535,1.535,0,0,1-.4.339.747.747,0,0,1-.4.117.468.468,0,0,1-.316-.117.722.722,0,0,1-.2-.333,1.527,1.527,0,0,1-.076-.52,2.083,2.083,0,0,1,.023-.333c.018-.111.041-.21.064-.316s.058-.2.088-.3.064-.193.1-.281l.7-1.988a.738.738,0,0,0,.041-.1.186.186,0,0,1,.076-.088l.222-.129s.041-.012.053.006a.151.151,0,0,1,.023.082.161.161,0,0,1-.006.053.063.063,0,0,1-.012.035l-.52,1.467Zm-.491,1.678a.988.988,0,0,0,.047.31.528.528,0,0,0,.123.21.269.269,0,0,0,.2.082.571.571,0,0,0,.263-.076.96.96,0,0,0,.263-.228,1.556,1.556,0,0,0,.2-.31,1.835,1.835,0,0,0,.123-.357,1.567,1.567,0,0,0,.041-.362,1,1,0,0,0-.041-.31.528.528,0,0,0-.123-.21.269.269,0,0,0-.2-.082.57.57,0,0,0-.263.076.974.974,0,0,0-.263.228,1.871,1.871,0,0,0-.2.31,1.838,1.838,0,0,0-.123.357A1.583,1.583,0,0,0,312.288,272.554Z" transform="translate(-311.92 -266.451)" fill="#375a64"/>
                  <path id="Trazado_194668" data-name="Trazado 194668" d="M317.093,269.022a2.752,2.752,0,0,0,.175-.427,1.81,1.81,0,0,0,.058-.462.724.724,0,0,0-.117-.456c-.082-.094-.2-.094-.374.006a.909.909,0,0,0-.228.193,1.132,1.132,0,0,0-.158.251,1.725,1.725,0,0,0-.1.292,2.646,2.646,0,0,0-.058.31.38.38,0,0,1-.041.123.185.185,0,0,1-.058.07l-.175.1s-.041.012-.058,0a.1.1,0,0,1-.023-.076,2.083,2.083,0,0,1,.064-.479,2.622,2.622,0,0,1,.175-.509,2.166,2.166,0,0,1,.281-.462,1.381,1.381,0,0,1,.38-.339.744.744,0,0,1,.374-.117.358.358,0,0,1,.269.117.677.677,0,0,1,.164.31,1.826,1.826,0,0,1,.053.462,3.2,3.2,0,0,1-.018.351,2.026,2.026,0,0,1-.064.327,2.469,2.469,0,0,1-.111.333,3.86,3.86,0,0,1-.17.363l-.854,1.725,1.175-.678a.158.158,0,0,1,.076,0,.137.137,0,0,1,.029.094v.21a.342.342,0,0,1-.029.129.192.192,0,0,1-.076.088l-1.655.953s-.053.018-.07,0a.113.113,0,0,1-.029-.094v-.21a.415.415,0,0,1,.018-.123,1.265,1.265,0,0,1,.064-.152l1.123-2.227Z" transform="translate(-313.573 -265.544)" fill="#375a64"/>
                  <path id="Trazado_194669" data-name="Trazado 194669" d="M321.216,264.486a.158.158,0,0,1,.076,0,.137.137,0,0,1,.029.094v.21a.416.416,0,0,1-.012.117,1.2,1.2,0,0,1-.029.14l-.854,3.876a1,1,0,0,1-.041.123.181.181,0,0,1-.07.088l-.175.1s-.047.012-.064,0a.116.116,0,0,1-.029-.082v-.029a.107.107,0,0,1,.012-.053l.854-3.888-1.257.725a.159.159,0,0,1-.076,0,.113.113,0,0,1-.029-.094v-.21a.341.341,0,0,1,.029-.129.165.165,0,0,1,.076-.088Z" transform="translate(-315.089 -264.481)" fill="#375a64"/>
                </g>
                <path id="Trazado_194670" data-name="Trazado 194670" d="M312.1,281.39l22.667-13.137c.257-.146.468-.041.468.234a1,1,0,0,1-.468.772L312.1,282.4c-.257.146-.468.041-.468-.234A.991.991,0,0,1,312.1,281.39Z" transform="translate(-311.455 -263.224)" fill="#e1e1e1"/>
                <path id="Trazado_194671" data-name="Trazado 194671" d="M312.1,262.71l5.081-2.947c.257-.146.468-.041.468.234a1,1,0,0,1-.468.772l-5.081,2.947c-.257.146-.468.041-.468-.234A1,1,0,0,1,312.1,262.71Z" transform="translate(-311.455 -259.697)" fill="#e1e1e1"/>
              </g>
              <g id="Grupo_141617" data-name="Grupo 141617" transform="translate(31.478 18.159)">
                <path id="Trazado_194672" data-name="Trazado 194672" d="M311.5,307.274a.22.22,0,0,1-.082-.023.161.161,0,0,1-.053-.222l2.684-4.4,2.7.5,2.537-.7,2.625-3.2,2.608-.661,2.648-4.724,2.713.789,2.549-.485,2.584-2.3a.161.161,0,0,1,.216.24l-2.648,2.362-.041.012-2.666.509-2.537-.737-2.6,4.619-2.637.667-2.625,3.2-.047.012-2.66.725h-.035l-2.514-.474-2.567,4.209a.152.152,0,0,1-.14.076Z" transform="translate(-311.339 -291.195)" fill="#4dd0e1"/>
                <g id="Grupo_141615" data-name="Grupo 141615" transform="translate(0 0.616)" opacity="0.3">
                  <path id="Trazado_194673" data-name="Trazado 194673" d="M311.5,307.274a.22.22,0,0,1-.082-.023.161.161,0,0,1-.053-.222l2.684-4.4,2.7.5,2.537-.7,2.625-3.2,2.608-.661,2.648-4.724,2.713.789,2.549-.485,2.584-2.3a.161.161,0,0,1,.216.24l-2.648,2.362-.041.012-2.666.509-2.537-.737-2.6,4.619-2.637.667-2.625,3.2-.047.012-2.66.725h-.035l-2.514-.474-2.567,4.209a.152.152,0,0,1-.14.076Z" transform="translate(-311.339 -291.811)"/>
                </g>
                <g id="Grupo_141616" data-name="Grupo 141616" transform="translate(0.305 4.101)">
                  <path id="Trazado_194674" data-name="Trazado 194674" d="M312.93,303.215l-.053.041a.4.4,0,0,1-.053.035.8.8,0,0,1-.357.117.486.486,0,0,1-.31-.094.667.667,0,0,1-.216-.31,1.6,1.6,0,0,1-.082-.55,2.4,2.4,0,0,1,.076-.6,2.781,2.781,0,0,1,.211-.561,2.24,2.24,0,0,1,.31-.468,1.426,1.426,0,0,1,.368-.322.727.727,0,0,1,.4-.123.439.439,0,0,1,.3.117.773.773,0,0,1,.193.327,1.7,1.7,0,0,1,.064.515,2.048,2.048,0,0,1-.029.316c-.018.111-.047.222-.076.339s-.064.222-.1.327-.07.2-.1.292l-.7,1.988a.741.741,0,0,0-.041.1.162.162,0,0,1-.076.088l-.216.129s-.041.012-.053-.006a.151.151,0,0,1-.023-.082v-.053c0-.012.012-.029.012-.035l.544-1.526Zm.5-1.672a1,1,0,0,0-.047-.316.467.467,0,0,0-.123-.2.28.28,0,0,0-.193-.07.442.442,0,0,0-.24.076,1.142,1.142,0,0,0-.246.2,1.248,1.248,0,0,0-.187.292,1.712,1.712,0,0,0-.17.713.889.889,0,0,0,.047.322.467.467,0,0,0,.123.2.276.276,0,0,0,.187.07.51.51,0,0,0,.246-.076.877.877,0,0,0,.24-.2,1.269,1.269,0,0,0,.193-.292,1.712,1.712,0,0,0,.17-.719Z" transform="translate(-311.86 -298.854)" fill="#375a64"/>
                  <path id="Trazado_194675" data-name="Trazado 194675" d="M315.987,301.688a.626.626,0,0,0,.053.158.217.217,0,0,0,.105.111.3.3,0,0,0,.181.018.871.871,0,0,0,.292-.123,1.5,1.5,0,0,0,.228-.175,1.133,1.133,0,0,0,.187-.246,1.328,1.328,0,0,0,.129-.31,1.21,1.21,0,0,0,.047-.362.816.816,0,0,0-.047-.3.247.247,0,0,0-.123-.14.289.289,0,0,0-.187-.006.964.964,0,0,0-.234.1l-.322.181s-.053.012-.07,0a.113.113,0,0,1-.029-.094v-.21a.271.271,0,0,1,.023-.111c.012-.035.029-.07.041-.105l.69-1.543-1.1.637a.159.159,0,0,1-.076,0,.137.137,0,0,1-.029-.094v-.21a.342.342,0,0,1,.029-.129.193.193,0,0,1,.076-.088l1.514-.871a.158.158,0,0,1,.076,0,.137.137,0,0,1,.029.094v.21a.436.436,0,0,1-.018.117.751.751,0,0,1-.053.129l-.678,1.52a.837.837,0,0,1,.351-.111.437.437,0,0,1,.275.082.561.561,0,0,1,.175.275,1.463,1.463,0,0,1,.064.462,2.167,2.167,0,0,1-.076.585,2.409,2.409,0,0,1-.2.52,2.251,2.251,0,0,1-.3.427,1.588,1.588,0,0,1-.368.3,1.126,1.126,0,0,1-.444.164.479.479,0,0,1-.31-.064.463.463,0,0,1-.181-.234,1.034,1.034,0,0,1-.064-.345.23.23,0,0,1,.023-.105.144.144,0,0,1,.059-.07l.175-.1s.053-.018.064,0a.138.138,0,0,1,.035.064Z" transform="translate(-313.426 -297.771)" fill="#375a64"/>
                </g>
                <path id="Trazado_194676" data-name="Trazado 194676" d="M312.1,312.45l22.667-13.137c.257-.146.468-.041.468.234a1,1,0,0,1-.468.772L312.1,313.456c-.257.146-.468.041-.468-.234A1,1,0,0,1,312.1,312.45Z" transform="translate(-311.46 -294.284)" fill="#e1e1e1"/>
                <path id="Trazado_194677" data-name="Trazado 194677" d="M312.1,293.77l5.081-2.947c.257-.146.468-.041.468.234a1,1,0,0,1-.468.772l-5.081,2.947c-.257.146-.468.041-.468-.234A.991.991,0,0,1,312.1,293.77Z" transform="translate(-311.46 -290.757)" fill="#e1e1e1"/>
              </g>
            </g>
            <g id="Grupo_141625" data-name="Grupo 141625" transform="translate(65.726 50.078)">
              <g id="Grupo_141621" data-name="Grupo 141621" transform="translate(0 10.641)">
                <g id="Grupo_141619" data-name="Grupo 141619">
                  <path id="Trazado_194678" data-name="Trazado 194678" d="M369.94,236.4a2.964,2.964,0,0,1,2.988-.222l-2.988,8.062V236.4Z" transform="translate(-364.848 -235.875)" fill="#4dd0e1"/>
                  <path id="Trazado_194679" data-name="Trazado 194679" d="M364.83,240.017a8.885,8.885,0,0,1,2.988-3.227v7.84l-2.988-4.607Z" transform="translate(-362.725 -236.255)" fill="#4dd0e1"/>
                  <path id="Trazado_194680" data-name="Trazado 194680" d="M361.66,247.291a15.613,15.613,0,0,1,1.853-4.981l2.988,4.607Z" transform="translate(-361.409 -238.548)" fill="#4dd0e1"/>
                  <path id="Trazado_194681" data-name="Trazado 194681" d="M363.513,240.013a15.805,15.805,0,0,0-1.853,4.981l4.841-.374v-7.84a8.836,8.836,0,0,0-2.988,3.227Z" transform="translate(-361.409 -236.251)" opacity="0.3"/>
                  <path id="Trazado_194682" data-name="Trazado 194682" d="M372.938,236.4a4.211,4.211,0,0,1,1.853,2.847l-4.841,5.215Z" transform="translate(-364.852 -236.093)" fill="#feca2e"/>
                  <path id="Trazado_194683" data-name="Trazado 194683" d="M361.481,255.411a9.652,9.652,0,0,1-.251-2.28,13.688,13.688,0,0,1,.251-2.567l4.841-.374-4.841,5.215Z" transform="translate(-361.23 -241.821)" fill="#4dd0e1"/>
                  <path id="Trazado_194684" data-name="Trazado 194684" d="M374.781,249.55a15.614,15.614,0,0,1-1.853,4.981l-2.988-4.607Z" transform="translate(-364.848 -241.555)" fill="#feca2e"/>
                  <path id="Trazado_194685" data-name="Trazado 194685" d="M367.818,258.03a2.964,2.964,0,0,1-2.988.222l2.988-8.062Z" transform="translate(-362.725 -241.821)" fill="#4dd0e1"/>
                  <path id="Trazado_194686" data-name="Trazado 194686" d="M361.66,255.415,366.5,250.2l-2.988,8.062A4.211,4.211,0,0,1,361.66,255.415Z" transform="translate(-361.409 -241.825)" fill="#4dd0e1"/>
                  <path id="Trazado_194687" data-name="Trazado 194687" d="M374.781,241.27a9.65,9.65,0,0,1,.251,2.28,13.685,13.685,0,0,1-.251,2.567l-4.841.374,4.841-5.215Z" transform="translate(-364.848 -238.116)" fill="#feca2e"/>
                  <path id="Trazado_194688" data-name="Trazado 194688" d="M372.938,254.8a8.886,8.886,0,0,1-2.988,3.227v-7.84l2.988,4.607Z" transform="translate(-364.852 -241.821)" fill="#feca2e"/>
                </g>
                <g id="Grupo_141620" data-name="Grupo 141620" transform="translate(0.965 17.196)">
                  <path id="Trazado_194689" data-name="Trazado 194689" d="M365.268,268.3l5.081-2.947c.257-.146.468-.041.468.234a1,1,0,0,1-.468.772l-5.081,2.947c-.257.146-.468.041-.468-.234A1,1,0,0,1,365.268,268.3Z" transform="translate(-363.678 -265.287)" fill="#375a64"/>
                  <path id="Trazado_194690" data-name="Trazado 194690" d="M363.348,273.678l7.32-4.245c.257-.146.468-.041.468.234a1,1,0,0,1-.468.772l-7.32,4.245c-.257.146-.468.041-.468-.234A.991.991,0,0,1,363.348,273.678Z" transform="translate(-362.88 -266.982)" fill="#e1e1e1"/>
                  <path id="Trazado_194691" data-name="Trazado 194691" d="M363.348,278.878l7.32-4.245c.257-.146.468-.041.468.234a1,1,0,0,1-.468.772l-7.32,4.245c-.257.146-.468.041-.468-.234A.991.991,0,0,1,363.348,278.878Z" transform="translate(-362.88 -269.142)" fill="#e1e1e1"/>
                  <path id="Trazado_194692" data-name="Trazado 194692" d="M363.348,284.068l7.32-4.245c.257-.146.468-.041.468.234a1,1,0,0,1-.468.772l-7.32,4.245c-.257.146-.468.041-.468-.234A.991.991,0,0,1,363.348,284.068Z" transform="translate(-362.88 -271.297)" fill="#e1e1e1"/>
                </g>
              </g>
              <g id="Grupo_141624" data-name="Grupo 141624" transform="translate(18.364)">
                <g id="Grupo_141622" data-name="Grupo 141622">
                  <path id="Trazado_194693" data-name="Trazado 194693" d="M401.35,218.2a2.964,2.964,0,0,1,2.988-.222l-2.988,8.062V218.2Z" transform="translate(-396.258 -217.675)" fill="#4dd0e1"/>
                  <path id="Trazado_194694" data-name="Trazado 194694" d="M396.24,221.817a8.885,8.885,0,0,1,2.988-3.227v7.84l-2.988-4.607Z" transform="translate(-394.135 -218.055)" fill="#4dd0e1"/>
                  <path id="Trazado_194695" data-name="Trazado 194695" d="M393.07,229.091a15.613,15.613,0,0,1,1.853-4.981l2.988,4.607Z" transform="translate(-392.819 -220.348)" fill="#4dd0e1"/>
                  <path id="Trazado_194696" data-name="Trazado 194696" d="M404.338,218.2a4.211,4.211,0,0,1,1.853,2.847l-4.841,5.215Z" transform="translate(-396.258 -217.893)" fill="#feca2e"/>
                  <path id="Trazado_194697" data-name="Trazado 194697" d="M392.891,237.211a9.649,9.649,0,0,1-.251-2.28,13.683,13.683,0,0,1,.251-2.567l4.841-.374-4.841,5.215Z" transform="translate(-392.64 -223.621)" fill="#4dd0e1"/>
                  <path id="Trazado_194698" data-name="Trazado 194698" d="M406.191,231.35a15.612,15.612,0,0,1-1.853,4.981l-2.988-4.607Z" transform="translate(-396.258 -223.355)" fill="#4dd0e1"/>
                  <path id="Trazado_194699" data-name="Trazado 194699" d="M399.228,239.83a2.964,2.964,0,0,1-2.988.222l2.988-8.062Z" transform="translate(-394.135 -223.621)" fill="#4dd0e1"/>
                  <path id="Trazado_194700" data-name="Trazado 194700" d="M393.07,237.215,397.911,232l-2.988,8.062A4.211,4.211,0,0,1,393.07,237.215Z" transform="translate(-392.819 -223.625)" fill="#4dd0e1"/>
                  <path id="Trazado_194701" data-name="Trazado 194701" d="M394.745,221.817a15.8,15.8,0,0,0-1.853,4.981,13.685,13.685,0,0,0-.251,2.567,9.65,9.65,0,0,0,.251,2.28,4.192,4.192,0,0,0,1.853,2.847l2.988-8.062v-7.84A8.836,8.836,0,0,0,394.745,221.817Z" transform="translate(-392.64 -218.055)" opacity="0.3"/>
                  <path id="Trazado_194702" data-name="Trazado 194702" d="M406.191,223.07a9.649,9.649,0,0,1,.251,2.28,13.683,13.683,0,0,1-.251,2.567l-4.841.374,4.841-5.215Z" transform="translate(-396.258 -219.916)" fill="#feca2e"/>
                  <path id="Trazado_194703" data-name="Trazado 194703" d="M404.338,236.6a8.885,8.885,0,0,1-2.988,3.227v-7.84l2.988,4.607Z" transform="translate(-396.258 -223.621)" fill="#4dd0e1"/>
                </g>
                <g id="Grupo_141623" data-name="Grupo 141623" transform="translate(0.965 17.237)">
                  <path id="Trazado_194704" data-name="Trazado 194704" d="M396.678,250.17l5.081-2.947c.257-.146.468-.041.468.234a1,1,0,0,1-.468.772l-5.081,2.947c-.257.146-.468.041-.468-.234A1,1,0,0,1,396.678,250.17Z" transform="translate(-395.088 -247.157)" fill="#375a64"/>
                  <path id="Trazado_194705" data-name="Trazado 194705" d="M394.758,255.548l7.32-4.245c.257-.146.468-.041.468.234a1,1,0,0,1-.468.772l-7.32,4.245c-.257.146-.468.041-.468-.234A.991.991,0,0,1,394.758,255.548Z" transform="translate(-394.29 -248.852)" fill="#e1e1e1"/>
                  <path id="Trazado_194706" data-name="Trazado 194706" d="M394.758,260.738l7.32-4.245c.257-.146.468-.041.468.234a1,1,0,0,1-.468.772l-7.32,4.245c-.257.146-.468.041-.468-.234A.991.991,0,0,1,394.758,260.738Z" transform="translate(-394.29 -251.008)" fill="#e1e1e1"/>
                  <path id="Trazado_194707" data-name="Trazado 194707" d="M394.758,265.938l7.32-4.245c.257-.146.468-.041.468.234a1,1,0,0,1-.468.772l-7.32,4.245c-.257.146-.468.041-.468-.234A.991.991,0,0,1,394.758,265.938Z" transform="translate(-394.29 -253.167)" fill="#e1e1e1"/>
                </g>
              </g>
            </g>
          </g>
        </g>
      </g>
      <g id="Glass" transform="translate(162.811 232.298)">
        <g id="Grupo_141629" data-name="Grupo 141629" transform="translate(54.273)">
          <g id="Grupo_141628" data-name="Grupo 141628" transform="translate(7.238)">
            <path id="Trazado_194708" data-name="Trazado 194708" d="M370.169,393.073a8.627,8.627,0,0,0-3.672-6.881,2.751,2.751,0,0,0-2.719-.374h0c-4.321,2.163-34.681,21.638-36.623,22.6l-.023.012a1.37,1.37,0,0,0-.614,1.251,4.341,4.341,0,0,0,1.848,3.467,1.378,1.378,0,0,0,1.386.181l.029-.018c3.075-1.7,33.039-14.464,39.166-17.75h0A2.743,2.743,0,0,0,370.169,393.073Z" transform="translate(-326.501 -385.601)" fill="#4dd0e1"/>
            <path id="Trazado_194709" data-name="Trazado 194709" d="M368.965,388.874a7.81,7.81,0,0,0-2.479-2.684,2.758,2.758,0,0,0-2.713-.38c-.146.082-.187.105-.088.047-3.946,2.017-26.543,16.435-34.144,21.118a.239.239,0,0,1-.053.029c-.105.064-.2.129-.31.187l-.094.059-.175.105c-.07.041-.14.088-.2.123a.085.085,0,0,0-.018.012c-.807.491-1.345.813-1.555.912l-.023.012a1.007,1.007,0,0,0-.181.14,1.531,1.531,0,0,0-.438,1.117,2.718,2.718,0,0,0,.023.433c.006.058.017.111.023.17a2.415,2.415,0,0,0,.053.269c.017.07.035.14.058.21s.053.164.082.251c.023.064.041.123.07.187,0,.012.012.018.012.029l42.142-22.345Z" transform="translate(-326.49 -385.6)" opacity="0.1"/>
            <path id="Trazado_194710" data-name="Trazado 194710" d="M328.351,429.288a4.33,4.33,0,0,1-1.842-3.455c.041-1.251.935-1.725,1.994-1.064a4.33,4.33,0,0,1,1.842,3.455C330.3,429.469,329.409,429.948,328.351,429.288Z" transform="translate(-326.497 -401.745)" fill="#4dd0e1"/>
          </g>
          <path id="Trazado_194711" data-name="Trazado 194711" d="M314.128,430.613a3.322,3.322,0,0,0,1.415,2.654,1.053,1.053,0,0,0,1.052.14h0l7.343-3.911h0a1.045,1.045,0,0,0,.468-.953,3.322,3.322,0,0,0-1.415-2.654,1.065,1.065,0,0,0-1.058-.14h0l-7.343,3.911h0a1.055,1.055,0,0,0-.479.959Z" transform="translate(-314.11 -402.24)" fill="#37474f"/>
          <path id="Trazado_194712" data-name="Trazado 194712" d="M314.619,429.654a1.055,1.055,0,0,0-.479.959,2.858,2.858,0,0,0,.222,1.134l9.471-5.051a2.807,2.807,0,0,0-.813-.807,1.065,1.065,0,0,0-1.058-.14l-7.343,3.911h0Z" transform="translate(-314.122 -402.24)" fill="#1a2e35"/>
        </g>
        <g id="Grupo_141631" data-name="Grupo 141631" transform="translate(0 16.51)">
          <path id="Trazado_194713" data-name="Trazado 194713" d="M284.989,432.227c0-4.707-3.11-9.413-9.331-13-12.441-7.18-32.606-7.18-45.047,0-6.221,3.59-9.331,8.3-9.331,13h0v8.67c0,4.706,3.11,9.413,9.331,13,12.441,7.18,32.606,7.18,45.047,0,6.221-3.59,9.331-8.3,9.331-13v-8.67Zm-52.835-10.337c5.554-3.21,13.008-4.975,20.983-4.975s15.429,1.766,20.983,4.975c5.022,2.9,7.788,6.571,7.788,10.337s-2.765,7.437-7.788,10.337c-5.554,3.21-13.009,4.975-20.983,4.975s-15.429-1.766-20.983-4.975c-5.022-2.9-7.788-6.571-7.788-10.337s2.765-7.437,7.788-10.337Z" transform="translate(-221.28 -413.84)" fill="#4dd0e1"/>
          <path id="Trazado_194714" data-name="Trazado 194714" d="M230.621,445.23c12.441,7.18,32.606,7.18,45.047,0s12.441-18.826,0-26.005-32.606-7.18-45.047,0S218.18,438.05,230.621,445.23Zm-6.25-13c0-3.765,2.765-7.437,7.788-10.337,5.554-3.21,13.008-4.975,20.983-4.975s15.429,1.766,20.983,4.975c5.022,2.9,7.788,6.571,7.788,10.337s-2.765,7.437-7.788,10.337c-5.554,3.21-13.008,4.975-20.983,4.975s-15.429-1.766-20.983-4.975C227.136,439.664,224.371,435.992,224.371,432.227Z" transform="translate(-221.284 -413.84)" fill="#fff" opacity="0.3"/>
          <g id="Grupo_141630" data-name="Grupo 141630" transform="translate(3.087 3.075)">
            <path id="Trazado_194715" data-name="Trazado 194715" d="M226.56,434.406a8.553,8.553,0,0,0,1.245,4.338,17.328,17.328,0,0,1,6.548-6c5.548-3.21,13-4.975,20.983-4.975s15.429,1.766,20.977,4.975a17.394,17.394,0,0,1,6.554,6,8.6,8.6,0,0,0,1.239-4.338c0-3.765-2.765-7.437-7.793-10.337-5.548-3.2-13-4.969-20.977-4.969s-15.435,1.766-20.983,4.969C229.325,426.969,226.56,430.641,226.56,434.406Z" transform="translate(-226.56 -419.1)" fill="#4dd0e1"/>
            <path id="Trazado_194716" data-name="Trazado 194716" d="M226.56,434.406a8.553,8.553,0,0,0,1.245,4.338,17.328,17.328,0,0,1,6.548-6c5.548-3.21,13-4.975,20.983-4.975s15.429,1.766,20.977,4.975a17.394,17.394,0,0,1,6.554,6,8.6,8.6,0,0,0,1.239-4.338c0-3.765-2.765-7.437-7.793-10.337-5.548-3.2-13-4.969-20.977-4.969s-15.435,1.766-20.983,4.969C229.325,426.969,226.56,430.641,226.56,434.406Z" transform="translate(-226.56 -419.1)" opacity="0.1"/>
          </g>
          <path id="Trazado_194717" data-name="Trazado 194717" d="M234.53,430.785c5.554-3.21,13.008-4.975,20.983-4.975s15.429,1.766,20.983,4.975c4.145,2.391,6.747,5.309,7.53,8.372-.783,3.064-3.391,5.981-7.53,8.372-5.554,3.21-13.008,4.975-20.983,4.975s-15.429-1.766-20.983-4.975c-4.145-2.391-6.747-5.309-7.53-8.372C227.783,436.094,230.391,433.177,234.53,430.785Z" transform="translate(-223.656 -418.812)" fill="#fff" opacity="0.4"/>
          <path id="Trazado_194718" data-name="Trazado 194718" d="M245.635,461.144v8.665a41.8,41.8,0,0,1-15.014-4.864c-6.221-3.59-9.331-8.3-9.331-13v-8.67a11.005,11.005,0,0,1,.38-2.841h.006c-1.508,5.6,1.473,11.529,8.945,15.844a41.808,41.808,0,0,0,15.014,4.876Z" transform="translate(-221.284 -424.884)" opacity="0.1"/>
        </g>
      </g>
      <g id="Character" transform="translate(281.972 99.524)">
        <g id="Grupo_141632" data-name="Grupo 141632" transform="translate(22.607 58.851)">
          <path id="Trazado_194719" data-name="Trazado 194719" d="M514.908,380.389c.374.152.456.877.479,2.321.018,1.093.211,3-1.076,3.35s-3.151.117-3.947-.93c-.994-1.3-1.655-2.45-3.081-4.046-1.234-1.386-2.572-2.684-3.04-4.6-.421-1.731-.023-2.467,1.163-2.941,1.631-.649,4.11,1.655,5.367,2.035,1.082.327,3.748,4.66,4.122,4.812Z" transform="translate(-480.51 -306.624)" fill="#1a2e35"/>
          <path id="Trazado_194720" data-name="Trazado 194720" d="M519.153,382.514l-.041,1.766a4.337,4.337,0,0,1-4.473.018c-.076-.17-.409-2.537-.409-2.537l4.917.754Z" transform="translate(-484.725 -310.082)" fill="#ffa8a7"/>
          <path id="Trazado_194721" data-name="Trazado 194721" d="M483.616,402.192a29.232,29.232,0,0,1,.713,2.9c.193,1.076.462,2.865.07,3.66s-1.865,1.28-4.128,1.216a13.263,13.263,0,0,0-5.355,1.736,14.112,14.112,0,0,1-6.706.912c-2.011-.281-4.069-1.5-4.373-2.339s.146-1.7,4.934-3.613c.041-.018,6.647-2,9-4.484Z" transform="translate(-463.764 -318.564)" fill="#1a2e35"/>
          <path id="Trazado_194722" data-name="Trazado 194722" d="M493.6,398.922s-.035,1.31-.047,2.064-.924,1.848-3.21,1.713c-1.608-.094-2.724-.55-2.631-1.877l.041-1.912,5.846.012Z" transform="translate(-473.71 -317.206)" fill="#ffa8a7"/>
          <path id="Trazado_194723" data-name="Trazado 194723" d="M506.3,308.154a47.859,47.859,0,0,0-1.883-9.255s.813-7.928,1.28-15.452c.509-8.127.982-12.313-.614-24.053,0,0-24.924-2.239-25.6,7.156s.286,33.366.5,37.505.848,7.811,1.549,14.523c.7,6.63,2.7,22.287,2.7,22.287a6.2,6.2,0,0,0,5.847.012s2.268-18.761,2.187-23.532a40.724,40.724,0,0,0-1.573-10.448s.672-7.741,1.263-14.476,1.128-9.962,1.3-12.9l.573-.269s.316,11.652.532,15.786.783,8.115,1.807,15.815c.889,6.683,3.66,20.837,3.66,20.837,2.964,1.69,4.794-.105,4.794-.105s2.356-17.639,1.678-23.433Z" transform="translate(-470.193 -259.161)" fill="#12263f"/>
          <path id="Trazado_194724" data-name="Trazado 194724" d="M503.216,289.9s6.437-2.993,9.688-5.753c0,0-3.052,4.1-6.981,5.864,0,0-1.707,14.423-1.7,14.137l-.479-14.26-.538.012Z" transform="translate(-480.148 -269.54)" fill="#1a2e35"/>
        </g>
        <g id="Grupo_141637" data-name="Grupo 141637" transform="translate(0)">
          <path id="Trazado_194725" data-name="Trazado 194725" d="M495.59,200.977l.971,8.6,8.121-.409-.9-10.038Z" transform="translate(-454.375 -175.376)" fill="#ffa8a7"/>
          <g id="Grupo_141635" data-name="Grupo 141635" transform="translate(0 19.212)">
            <path id="Trazado_194726" data-name="Trazado 194726" d="M515.757,207.9c3.023-.14,4.56.316,5.922,2.923s1.888,10.407,2.362,14.429.591,6.858-1.064,7.267a73.075,73.075,0,0,1-8.1.59Z" transform="translate(-462.388 -198.222)" fill="#12263f"/>
            <path id="Trazado_194727" data-name="Trazado 194727" d="M506.072,212.342a6.21,6.21,0,0,0-6.566-4.455c-.69.111-1.356.228-2.011.339-.357,1.45-4.321,2.35-8.109,1.462-1.14.3-4.905,1.006-5.852,1.321-2.724.906-3.847,3.584-4.274,12.465,0,0,.216,20.112.111,24.123a32.834,32.834,0,0,0,17.7,2.151c8.162-1.59,9.214-4.934,9.214-4.934l-1.216-9.2s1.994-17.814,1.006-23.263Z" transform="translate(-447.593 -198.2)" fill="#bddcf6"/>
            <path id="Trazado_194728" data-name="Trazado 194728" d="M494.568,206.125l.058.544a12.1,12.1,0,0,0,4.987,0c2.637-.585,3.175-1.333,3.175-1.333l-.053-.614s.655-.246,1,.766a10.7,10.7,0,0,1,.38,1.234s.3,1.847-2.8,2.789a9.591,9.591,0,0,1-7.729-.842l-1.216.257s1.052-2.426,1.374-2.917a.806.806,0,0,1,.76-.421l.058.544Z" transform="translate(-453.038 -196.899)" fill="#37474f"/>
            <g id="Grupo_141634" data-name="Grupo 141634" transform="translate(0.611)">
              <path id="Trazado_194729" data-name="Trazado 194729" d="M442.253,191.36l-16.113,8.407,8.01,21.889,15.037-8.419Z" transform="translate(-426.14 -191.36)" fill="#375a64"/>
              <path id="Trazado_194730" data-name="Trazado 194730" d="M442.837,195.02l-13.517,7.057,7.086,18.82,12.611-7.068Z" transform="translate(-427.461 -192.88)" fill="#f5f5f5"/>
              <path id="Trazado_194731" data-name="Trazado 194731" d="M442.473,197.895l-.263-.672c-.146-.368-1.269-.152-2.514.491l-2.38,1.228c-1.245.643-2.134,1.462-1.988,1.83l.263.672,6.881-3.555Z" transform="translate(-429.95 -193.721)" opacity="0.15"/>
              <g id="Grupo_141633" data-name="Grupo 141633" transform="translate(3.998 1.279)">
                <path id="Trazado_194732" data-name="Trazado 194732" d="M441.24,193.759c-.088-.234-.579-.193-1.093.082l-.93.5s-.573-1.444-2.719-.444-1.655,2.678-1.655,2.678-.444.246-.988.544-.935.737-.871.971l.123.427,8.3-4.332s-.076-.2-.164-.433Z" transform="translate(-432.978 -193.547)" fill="#feca2e"/>
                <path id="Trazado_194733" data-name="Trazado 194733" d="M441.547,195.352c-.772.38-1.076.561-.854,1.134.251.649.491,1.117.491,1.117l-3.672,1.918s-.3-.83-.439-1.146-.4-.474-.988-.164l-.216-.228,5.788-2.952Z" transform="translate(-434.179 -194.163)" fill="#4dd0e1"/>
                <path id="Trazado_194734" data-name="Trazado 194734" d="M441.547,195.352c-.772.38-1.076.561-.854,1.134.251.649.491,1.117.491,1.117l-3.672,1.918s-.3-.83-.439-1.146-.4-.474-.988-.164l-.216-.228,5.788-2.952Z" transform="translate(-434.179 -194.163)" opacity="0.3"/>
                <path id="Trazado_194735" data-name="Trazado 194735" d="M442.743,197.955l-.263-.672c-.146-.368-1.269-.152-2.514.491L437.587,199c-1.245.643-2.134,1.462-1.988,1.83l.263.672,6.881-3.555Z" transform="translate(-434.06 -195.024)" fill="#feca2e"/>
              </g>
            </g>
            <path id="Trazado_194736" data-name="Trazado 194736" d="M473.353,213.26c-3.718.322-5.3,1-8.1,6.039-3.028,5.466-8.857,15.359-9.594,16.6a6.613,6.613,0,0,0-.333,5.975c.83,1.491,3.455,2.169,6.437-1.193,3.543-4,10.138-13.78,10.138-13.78s5.6-7.39,1.45-13.64Z" transform="translate(-437.418 -200.456)" fill="#ffa8a7"/>
            <path id="Trazado_194737" data-name="Trazado 194737" d="M444.544,244.409c-2.853-.345-9.512-9.384-11.407-12.33a21.038,21.038,0,0,0-5.77-6.086c-3.017-2.228-2.578-5.654-1.263-8.793.456-1.087,2-.38,2-.38l.544,1.491.941,2.578c.637.59,1.006.789,1.047.608.082-.333-.468-1.719-.456-3.169.018-1.742,1.234-.6,1.6.012a21.646,21.646,0,0,1,1.286,2.877c.608,1.555.357,3.134,1.1,4.2S444.836,236,444.836,236l-.3,8.419Z" transform="translate(-425.096 -201.841)" fill="#ffa8a7"/>
            <path id="Trazado_194738" data-name="Trazado 194738" d="M469.388,212.926a7.938,7.938,0,0,0-7.057,3.028c-2.1,2.724-10.495,17.545-10.495,17.545l-4.712-4.221A8.22,8.22,0,0,0,443.5,234.4a50.952,50.952,0,0,0,4.268,5.788c1.994,2.187,4.215,3.7,6.034,3.028s3.677-2.116,7.6-7.571,8.2-11.9,8.2-11.9S472.306,217.445,469.388,212.926Z" transform="translate(-432.74 -200.315)" fill="#12263f"/>
          </g>
          <path id="Trazado_194739" data-name="Trazado 194739" d="M484.5,184.266s-2.029,3.081-1.795,3.379,1.725.573,1.725.573l.076-3.958Z" transform="translate(-449.017 -169.199)" fill="#f28f8f"/>
          <path id="Trazado_194740" data-name="Trazado 194740" d="M485.7,184.215a2.418,2.418,0,1,1,2.415-2.42A2.417,2.417,0,0,1,485.7,184.215Zm0-4.3a1.883,1.883,0,1,0,1.877,1.883A1.885,1.885,0,0,0,485.7,179.918Z" transform="translate(-449.267 -167.172)" fill="#1a2e35"/>
          <path id="Trazado_194741" data-name="Trazado 194741" d="M491.314,169.412c-4.1.865-5.291,2.672-5.677,9.191-.4,6.817.292,8.957,1.187,9.875.6.62,3.964.731,5.659.263,2.122-.585,6.911-2.28,9.156-5.712,2.643-4.034,3.332-9.5.509-11.74-3.976-3.157-9.161-2.233-10.828-1.877Z" transform="translate(-450.193 -162.864)" fill="#ffa8a7"/>
          <path id="Trazado_194742" data-name="Trazado 194742" d="M492.552,202.2l-.193-1.257a8.09,8.09,0,0,1-4.209.953A10.23,10.23,0,0,0,492.552,202.2Z" transform="translate(-451.285 -176.127)" fill="#f28f8f"/>
          <path id="Trazado_194743" data-name="Trazado 194743" d="M483.67,182.65l7.3.947-.292.514-7-.912Z" transform="translate(-449.424 -168.531)" fill="#1a2e35"/>
          <g id="Grupo_141636" data-name="Grupo 141636" transform="translate(33.12)">
            <path id="Trazado_194744" data-name="Trazado 194744" d="M483.367,167.679a2.174,2.174,0,0,0,.93-.058,1.459,1.459,0,0,0,.5,1.713,2.071,2.071,0,0,0,1.842.246,1.753,1.753,0,0,0-.2,1.269,2.057,2.057,0,0,0,2.128,1.532c.041.953.053,1.888,1.076,2.321,0,0,.649-2.52,2.771-2.2,2.14.322,2.426,3.04,1.082,4.7-1.339,1.643-2.584,1.029-2.6,1.023.123.064.17.865.211,1.017a7.363,7.363,0,0,0,.544,1.38,6.547,6.547,0,0,0,1.923,2.251,4.726,4.726,0,0,0,3.853,1.07,4.132,4.132,0,0,0,2.806-2.257,2.441,2.441,0,0,1,.456-.819,2.713,2.713,0,0,1,1.047-.45,3.08,3.08,0,0,0,1.736-4.338,2.818,2.818,0,0,0,1.076-4.923A3.385,3.385,0,0,0,506,167.486a3.439,3.439,0,0,0-2.426-2.327c-.83-.24-.509-.368-.766-1.181a2.97,2.97,0,0,0-3.777-1.953,2.962,2.962,0,0,0-3.5-2.263c-.339.088-1.041.4-1.169.731-.433-.427-.573-.982-1.1-1.374a3.111,3.111,0,0,0-4.584.982,3.817,3.817,0,0,0-2.865-1.2,3.129,3.129,0,0,0-2.613,1.6,2.668,2.668,0,0,0,.351,2.988,3.048,3.048,0,0,0-1.584,1.374,1.912,1.912,0,0,0,.222,2.14,1.636,1.636,0,0,0,.8.6,2.3,2.3,0,0,0,.386.088Z" transform="translate(-481.744 -158.5)" fill="#0f2771"/>
            <path id="Trazado_194745" data-name="Trazado 194745" d="M494.175,186.653l.076-2.853a1.424,1.424,0,0,0-.076,2.847Z" transform="translate(-486.332 -169.008)" fill="#1a2e35"/>
          </g>
        </g>
      </g>
    </g>
  </g>
</svg>
