<svg xmlns="http://www.w3.org/2000/svg" width="1240" height="1005" viewBox="0 0 1240 1005">
  <g id="Grupo_146527" data-name="Grupo 146527" transform="translate(-180 -388)">
    <g id="Rectángulo_41022" data-name="Rectángulo 41022" transform="translate(631 388)" fill="none" stroke="#0f2771" stroke-width="3">
      <rect width="338" height="73" rx="36.5" stroke="none"/>
      <rect x="1.5" y="1.5" width="335" height="70" rx="35" fill="none"/>
    </g>
    <g id="Rectángulo_45831" data-name="Rectángulo 45831" transform="translate(560 1169)" fill="none" stroke="#0f2771" stroke-width="3">
      <rect width="338" height="73" rx="36.5" stroke="none"/>
      <rect x="1.5" y="1.5" width="335" height="70" rx="35" fill="none"/>
    </g>
    <text id="Reportes_y_proyectos_de_analítica" data-name="Reportes y proyectos de analítica" transform="translate(665 430)" fill="#0f2771" font-size="18" font-family="Roboto-Black, Roboto" font-weight="800"><tspan x="0" y="0">Reportes y proyectos de analítica</tspan></text>
    <text id="Definir_detalles_de_los_reportes" data-name="Definir detalles de los reportes" transform="translate(594 1211)" fill="#0f2771" font-size="18" font-family="Roboto-Black, Roboto" font-weight="800"><tspan x="0" y="0">Definir detalles de los reportes</tspan></text>
    <line id="Línea_357" data-name="Línea 357" y2="20" transform="translate(797.947 461)" fill="none" stroke="#707070" stroke-width="1.5"/>
    <line id="Línea_399" data-name="Línea 399" y2="20" transform="translate(726.947 1242)" fill="none" stroke="#707070" stroke-width="1.5"/>
    <path id="Trazado_199361" data-name="Trazado 199361" d="M-12419.084-9608.906V-9629h631v20.108" transform="translate(12902.084 10110)" fill="none" stroke="#707070" stroke-width="1.5"/>
    <path id="Trazado_207849" data-name="Trazado 207849" d="M-12419.084-9608.906V-9629h631v20.108" transform="translate(12831.084 10932)" fill="none" stroke="#707070" stroke-width="1.5"/>
    <path id="Trazado_207824" data-name="Trazado 207824" d="M-12419.084-9608.906V-9629h385.647v20.108" transform="translate(12633.437 10262)" fill="none" stroke="#707070" stroke-width="1.5"/>
    <line id="Línea_372" data-name="Línea 372" y2="20" transform="translate(798 480)" fill="none" stroke="#707070" stroke-width="1.5"/>
    <line id="Línea_400" data-name="Línea 400" y2="20" transform="translate(727 1284)" fill="none" stroke="#707070" stroke-width="1.5"/>
    <line id="Línea_373" data-name="Línea 373" y2="20" transform="translate(798 519)" fill="none" stroke="#707070" stroke-width="1.5"/>
    <line id="Línea_376" data-name="Línea 376" y2="20" transform="translate(798 612)" fill="none" stroke="#707070" stroke-width="1.5"/>
    <line id="Línea_380" data-name="Línea 380" x1="38" transform="translate(214 720)" fill="none" stroke="#707070" stroke-width="1.5"/>
    <line id="Línea_383" data-name="Línea 383" x1="38" transform="translate(214 1063)" fill="none" stroke="#707070" stroke-width="1.5"/>
    <line id="Línea_381" data-name="Línea 381" x1="38" transform="translate(214 945.629)" fill="none" stroke="#707070" stroke-width="1.5"/>
    <line id="Línea_382" data-name="Línea 382" x1="38" transform="translate(214 994.629)" fill="none" stroke="#707070" stroke-width="1.5"/>
    <line id="Línea_384" data-name="Línea 384" x1="38" transform="translate(264.5 828)" fill="none" stroke="#707070" stroke-width="1.5"/>
    <line id="Línea_387" data-name="Línea 387" x1="38" transform="translate(557.5 828)" fill="none" stroke="#707070" stroke-width="1.5"/>
    <line id="Línea_386" data-name="Línea 386" x1="38.5" y2="0.275" transform="translate(264.5 1198.108)" fill="none" stroke="#707070" stroke-width="1.5"/>
    <line id="Línea_385" data-name="Línea 385" x1="38" transform="translate(264.5 881)" fill="none" stroke="#707070" stroke-width="1.5"/>
    <line id="Línea_388" data-name="Línea 388" x1="38" transform="translate(557.5 881)" fill="none" stroke="#707070" stroke-width="1.5"/>
    <line id="Línea_378" data-name="Línea 378" y2="20" transform="translate(1114 612)" fill="none" stroke="#707070" stroke-width="1.5"/>
    <line id="Línea_379" data-name="Línea 379" y2="31" transform="translate(1114 653)" fill="none" stroke="#707070" stroke-width="1.5"/>
    <path id="Trazado_207825" data-name="Trazado 207825" d="M0,0V21" transform="translate(484 612)" fill="none" stroke="#707070" stroke-width="1.5"/>
    <path id="Trazado_207827" data-name="Trazado 207827" d="M0,0V40.987" transform="translate(457 672)" fill="none" stroke="#707070" stroke-width="1.5"/>
    <path id="Trazado_207835" data-name="Trazado 207835" d="M0,0V22.673" transform="translate(457 632.506)" fill="none" stroke="#707070" stroke-width="1.5"/>
    <path id="Trazado_207834" data-name="Trazado 207834" d="M0,0V40.987" transform="translate(600.083 672)" fill="none" stroke="#707070" stroke-width="1.5"/>
    <path id="Trazado_207836" data-name="Trazado 207836" d="M0,0V40.987" transform="translate(798 655)" fill="none" stroke="#707070" stroke-width="1.5"/>
    <path id="Trazado_207837" data-name="Trazado 207837" d="M0,0V40.987" transform="translate(798 742.242)" fill="none" stroke="#707070" stroke-width="1.5"/>
    <path id="Trazado_207840" data-name="Trazado 207840" d="M0,0V40.987" transform="translate(798 810.229)" fill="none" stroke="#707070" stroke-width="1.5"/>
    <path id="Trazado_207841" data-name="Trazado 207841" d="M0,0V40.987" transform="translate(957.083 810.229)" fill="none" stroke="#707070" stroke-width="1.5"/>
    <path id="Trazado_207838" data-name="Trazado 207838" d="M0,0V40.987" transform="translate(1114.083 742.242)" fill="none" stroke="#707070" stroke-width="1.5"/>
    <path id="Trazado_207843" data-name="Trazado 207843" d="M0,0V20.494" transform="translate(1114.083 810.229)" fill="none" stroke="#707070" stroke-width="1.5"/>
    <path id="Trazado_207839" data-name="Trazado 207839" d="M0,0V63.729" transform="translate(957.083 719.5)" fill="none" stroke="#707070" stroke-width="1.5"/>
    <path id="Trazado_207842" data-name="Trazado 207842" d="M0,0V28.412" transform="translate(1060.583 830.722)" fill="none" stroke="#707070" stroke-width="1.5"/>
    <path id="Trazado_207845" data-name="Trazado 207845" d="M0,0V28.412" transform="translate(1060.583 925.722)" fill="none" stroke="#707070" stroke-width="1.5"/>
    <path id="Trazado_207847" data-name="Trazado 207847" d="M0,0V28.412" transform="translate(1060.583 975.135)" fill="none" stroke="#707070" stroke-width="1.5"/>
    <path id="Trazado_207846" data-name="Trazado 207846" d="M0,0V28.412" transform="translate(1283.803 925.722)" fill="none" stroke="#707070" stroke-width="1.5"/>
    <path id="Trazado_207848" data-name="Trazado 207848" d="M0,0V28.412" transform="translate(1283.803 975.135)" fill="none" stroke="#707070" stroke-width="1.5"/>
    <path id="Trazado_207844" data-name="Trazado 207844" d="M0,0V28.412" transform="translate(1284.722 830.722)" fill="none" stroke="#707070" stroke-width="1.5"/>
    <path id="Trazado_207826" data-name="Trazado 207826" d="M0,0V391.742" transform="translate(214 672)" fill="none" stroke="#707070" stroke-width="1.5"/>
    <path id="Trazado_207828" data-name="Trazado 207828" d="M0,0V31.758" transform="translate(264.5 746.242)" fill="none" stroke="#707070" stroke-width="1.5"/>
    <path id="Trazado_207832" data-name="Trazado 207832" d="M0,0V31.758" transform="translate(557.5 746.242)" fill="none" stroke="#707070" stroke-width="1.5"/>
    <path id="Trazado_207830" data-name="Trazado 207830" d="M0,0V31.758" transform="translate(264.5 1087.242)" fill="none" stroke="#707070" stroke-width="1.5"/>
    <path id="Trazado_207829" data-name="Trazado 207829" d="M0,0V83.581" transform="translate(264.5 797)" fill="none" stroke="#707070" stroke-width="1.5"/>
    <path id="Trazado_207833" data-name="Trazado 207833" d="M0,0V83.581" transform="translate(557.5 797)" fill="none" stroke="#707070" stroke-width="1.5"/>
    <path id="Trazado_207831" data-name="Trazado 207831" d="M0,0V61.185" transform="translate(264.5 1138)" fill="none" stroke="#707070" stroke-width="1.5"/>
    <line id="Línea_375" data-name="Línea 375" y2="20" transform="translate(483 519)" fill="none" stroke="#707070" stroke-width="1.5"/>
    <line id="Línea_374" data-name="Línea 374" y2="20" transform="translate(1114 519)" fill="none" stroke="#707070" stroke-width="1.5"/>
    <text id="se_inicia_con" data-name="se inicia con" transform="translate(759.447 515)" fill="#0f2771" font-size="14" font-family="Roboto-Regular, Roboto"><tspan x="0" y="0">se inicia con</tspan></text>
    <text id="a_través" data-name="a través" transform="translate(702.5 1279)" fill="#0f2771" font-size="14" font-family="Roboto-Regular, Roboto"><tspan x="0" y="0">a través</tspan></text>
    <text id="respecto_a" data-name="respecto a" transform="translate(765.5 647)" fill="#0f2771" font-size="14" font-family="Roboto-Regular, Roboto"><tspan x="0" y="0">respecto a</tspan></text>
    <text id="se_define_el" data-name="se define el" transform="translate(765.5 802.229)" fill="#0f2771" font-size="14" font-family="Roboto-Regular, Roboto"><tspan x="0" y="0">se define el</tspan></text>
    <text id="que_conecte_al" data-name="que conecte al" transform="translate(911.583 802.229)" fill="#0f2771" font-size="14" font-family="Roboto-Regular, Roboto"><tspan x="0" y="0">que conecte al</tspan></text>
    <text id="desarrollo_de_la" data-name="desarrollo de la" transform="translate(1066 802.229)" fill="#0f2771" font-size="14" font-family="Roboto-Regular, Roboto"><tspan x="0" y="0">desarrollo de la</tspan></text>
    <text id="cumpliendo" transform="translate(1024.083 969.135)" fill="#0f2771" font-size="14" font-family="Roboto-Regular, Roboto"><tspan x="0" y="0">cumpliendo</tspan></text>
    <text id="generando" transform="translate(1249 969.135)" fill="#0f2771" font-size="14" font-family="Roboto-Regular, Roboto"><tspan x="0" y="0">generando</tspan></text>
    <text id="se_planifica" data-name="se planifica" transform="translate(1074 515)" fill="#0f2771" font-size="14" font-family="Roboto-Regular, Roboto"><tspan x="0" y="0">se planifica</tspan></text>
    <text id="se_define" data-name="se define" transform="translate(1086 647)" fill="#0f2771" font-size="14" font-family="Roboto-Regular, Roboto"><tspan x="0" y="0">se define</tspan></text>
    <text id="definir" transform="translate(464 515)" fill="#0f2771" font-size="14" font-family="Roboto-Regular, Roboto"><tspan x="0" y="0">definir</tspan></text>
    <text id="se_define-2" data-name="se define" transform="translate(429 668)" fill="#0f2771" font-size="14" font-family="Roboto-Regular, Roboto"><tspan x="0" y="0">se define</tspan></text>
    <text id="a_través_de" data-name="a través de" transform="translate(180 668)" fill="#0f2771" font-size="14" font-family="Roboto-Regular, Roboto"><tspan x="0" y="0">a través de</tspan></text>
    <text id="se_emplea" data-name="se emplea" transform="translate(233.5 793)" fill="#0f2771" font-size="14" font-family="Roboto-Regular, Roboto"><tspan x="0" y="0">se emplea</tspan></text>
    <text id="a_través-2" data-name="a través" transform="translate(526.5 793)" fill="#0f2771" font-size="14" font-family="Roboto-Regular, Roboto"><tspan x="0" y="0">a través</tspan></text>
    <text id="identificación_de" data-name="identificación de" transform="translate(233.5 1134)" fill="#0f2771" font-size="14" font-family="Roboto-Regular, Roboto"><tspan x="0" y="0">identificación de</tspan></text>
    <text id="se_reitera" data-name="se reitera" transform="translate(571 668)" fill="#0f2771" font-size="14" font-family="Roboto-Regular, Roboto"><tspan x="0" y="0">se reitera</tspan></text>
    <rect id="Rectángulo_45804" data-name="Rectángulo 45804" width="124" height="73" rx="21" transform="translate(738 539)" fill="#0f2771"/>
    <rect id="Rectángulo_45832" data-name="Rectángulo 45832" width="124" height="73" rx="21" transform="translate(667 1320)" fill="#0f2771"/>
    <rect id="Rectángulo_45806" data-name="Rectángulo 45806" width="124" height="73" rx="21" transform="translate(1052 539)" fill="#0f2771"/>
    <rect id="Rectángulo_45834" data-name="Rectángulo 45834" width="124" height="73" rx="21" transform="translate(981 1320)" fill="#0f2771"/>
    <rect id="Rectángulo_45805" data-name="Rectángulo 45805" width="124" height="73" rx="21" transform="translate(421 539)" fill="#0f2771"/>
    <rect id="Rectángulo_45833" data-name="Rectángulo 45833" width="124" height="73" rx="21" transform="translate(350 1320)" fill="#0f2771"/>
    <text id="Identificación_de_los_datos" data-name="Identificación 
de los datos" transform="translate(800 572)" fill="#fff" font-size="14" font-family="Roboto-Regular, Roboto"><tspan x="-43.706" y="0">Identificación </tspan><tspan x="-37.998" y="18">de los datos</tspan></text>
    <text id="Aspectos_claves_de_decisiones" data-name="Aspectos claves
de decisiones" transform="translate(729 1353)" fill="#fff" font-size="14" font-family="Roboto-Regular, Roboto"><tspan x="-50.856" y="0">Aspectos claves</tspan><tspan x="-42.889" y="18">de decisiones</tspan></text>
    <text id="Proceso_ETL" data-name="Proceso ETL" transform="translate(1114 572)" fill="#fff" font-size="14" font-family="Roboto-Regular, Roboto"><tspan x="-39.406" y="0">Proceso ETL</tspan></text>
    <text id="Aspectos_claves_para_la_actuación_ágil" data-name="Aspectos claves
para la actuación
ágil" transform="translate(1043 1344)" fill="#fff" font-size="14" font-family="Roboto-Regular, Roboto"><tspan x="-50.856" y="0">Aspectos claves</tspan><tspan x="-53.389" y="18">para la actuación</tspan><tspan x="-11.132" y="36">ágil</tspan></text>
    <text id="Requerimientos_del_negocio" data-name="Requerimientos
del negocio" transform="translate(483 572)" fill="#fff" font-size="14" font-family="Roboto-Regular, Roboto"><tspan x="-48.856" y="0">Requerimientos</tspan><tspan x="-35.933" y="18">del negocio</tspan></text>
    <text id="Preguntas_del_negocio" data-name="Preguntas
del negocio" transform="translate(412 1353)" fill="#fff" font-size="14" font-family="Roboto-Regular, Roboto"><tspan x="-31.845" y="0">Preguntas</tspan><tspan x="-35.933" y="18">del negocio</tspan></text>
    <rect id="Rectángulo_45807" data-name="Rectángulo 45807" width="103.833" height="73" rx="21" transform="translate(248 684.242)" fill="#4dd0e1"/>
    <rect id="Rectángulo_45823" data-name="Rectángulo 45823" width="115.833" height="73" rx="21" transform="translate(1004.25 856.464)" fill="#4dd0e1"/>
    <rect id="Rectángulo_45824" data-name="Rectángulo 45824" width="115.833" height="73" rx="21" transform="translate(1225.887 856.464)" fill="#4dd0e1"/>
    <rect id="Rectángulo_45811" data-name="Rectángulo 45811" width="103.833" height="73" rx="21" transform="translate(404.083 684.242)" fill="#4dd0e1"/>
    <rect id="Rectángulo_45820" data-name="Rectángulo 45820" width="111.833" height="73" rx="21" transform="translate(742.031 684.242)" fill="#4dd0e1"/>
    <rect id="Rectángulo_45821" data-name="Rectángulo 45821" width="111.833" height="73" rx="21" transform="translate(1058.083 684.242)" fill="#4dd0e1"/>
    <rect id="Rectángulo_45812" data-name="Rectángulo 45812" width="103.833" height="73" rx="21" transform="translate(548.083 684.242)" fill="#4dd0e1"/>
    <rect id="Rectángulo_45810" data-name="Rectángulo 45810" width="103.833" height="73" rx="21" transform="translate(248 1027.242)" fill="#4dd0e1"/>
    <rect id="Rectángulo_45808" data-name="Rectángulo 45808" width="103.833" height="41" rx="20.5" transform="translate(248 924.871)" fill="#4dd0e1"/>
    <rect id="Rectángulo_45815" data-name="Rectángulo 45815" width="103.833" height="41" rx="20.5" transform="translate(248 974.129)" fill="#4dd0e1"/>
    <text id="Conocimiento_del_negocio" data-name="Conocimiento
del negocio" transform="translate(300 716.242)" fill="#12263f" font-size="14" font-family="Roboto-Regular, Roboto"><tspan x="-43.381" y="0">Conocimiento</tspan><tspan x="-35.933" y="18">del negocio</tspan></text>
    <text id="Transformación" transform="translate(1062.25 896)" fill="#12263f" font-size="14" font-family="Roboto-Regular, Roboto"><tspan x="-49.383" y="0">Transformación</tspan></text>
    <text id="Carga_de_DWH" data-name="Carga de DWH" transform="translate(1283.887 896)" fill="#12263f" font-size="14" font-family="Roboto-Regular, Roboto"><tspan x="-45.38" y="0">Carga de DWH</tspan></text>
    <text id="Procesos_clave_o_críticos" data-name="Procesos clave
o críticos" transform="translate(456.083 716.242)" fill="#12263f" font-size="14" font-family="Roboto-Regular, Roboto"><tspan x="-47.243" y="0">Procesos clave</tspan><tspan x="-28.738" y="18">o críticos</tspan></text>
    <text id="Tipos_fuentes_y_autirizaciones" data-name="Tipos, fuentes 
y autirizaciones" transform="translate(798.031 716.242)" fill="#12263f" font-size="14" font-family="Roboto-Regular, Roboto"><tspan x="-45.708" y="0">Tipos, fuentes </tspan><tspan x="-48.576" y="18">y autirizaciones</tspan></text>
    <text id="Selección_de_herramientas" data-name="Selección de
herramientas" transform="translate(1114.083 716.242)" fill="#12263f" font-size="14" font-family="Roboto-Regular, Roboto"><tspan x="-39.539" y="0">Selección de</tspan><tspan x="-41.081" y="18">herramientas</tspan></text>
    <text id="Valor_de_los_datos" data-name="Valor de 
los datos" transform="translate(600.083 716.242)" fill="#12263f" font-size="14" font-family="Roboto-Regular, Roboto"><tspan x="-27.286" y="0">Valor de </tspan><tspan x="-28.608" y="18">los datos</tspan></text>
    <text id="Bus_dimensional" data-name="Bus
dimensional" transform="translate(300 1059.242)" fill="#12263f" font-size="14" font-family="Roboto-Regular, Roboto"><tspan x="-11.826" y="0">Bus</tspan><tspan x="-38.021" y="18">dimensional</tspan></text>
    <text id="Entrevistas" transform="translate(300 951.359)" fill="#12263f" font-size="14" font-family="Roboto-Regular, Roboto"><tspan x="-34.563" y="0">Entrevistas</tspan></text>
    <text id="Encuestas" transform="translate(300 1000.359)" fill="#12263f" font-size="14" font-family="Roboto-Regular, Roboto"><tspan x="-32.385" y="0">Encuestas</tspan></text>
    <rect id="Rectángulo_45813" data-name="Rectángulo 45813" width="129" height="32.614" rx="16.307" transform="translate(278 811.693)" fill="#feca2e"/>
    <rect id="Rectángulo_45818" data-name="Rectángulo 45818" width="116" height="32.614" rx="16.307" transform="translate(571 811.693)" fill="#feca2e"/>
    <rect id="Rectángulo_45829" data-name="Rectángulo 45829" width="72.803" height="32.614" rx="16.307" transform="translate(1249.59 1155.269)" fill="#feca2e"/>
    <rect id="Rectángulo_45814" data-name="Rectángulo 45814" width="129" height="32.614" rx="16.307" transform="translate(278 864.274)" fill="#feca2e"/>
    <text id="Observación" transform="translate(341.5 833.5)" fill="#12263f" font-size="14" font-family="Roboto-Regular, Roboto"><tspan x="-38.852" y="0">Observación</tspan></text>
    <text id="Caso_de_usos" data-name="Caso de usos" transform="translate(629 832.5)" fill="#12263f" font-size="14" font-family="Roboto-Regular, Roboto"><tspan x="-42.157" y="0">Caso de usos</tspan></text>
    <text id="Reportes" transform="translate(1285.59 1176.076)" fill="#12263f" font-size="14" font-family="Roboto-Regular, Roboto"><tspan x="-28.082" y="0">Reportes</tspan></text>
    <text id="Documentación" transform="translate(342 884.564)" fill="#12263f" font-size="14" font-family="Roboto-Regular, Roboto"><tspan x="-49.123" y="0">Documentación</tspan></text>
    <rect id="Rectángulo_45816" data-name="Rectángulo 45816" width="116" height="73" rx="21" transform="translate(276.333 1160.883)" fill="#feca2e"/>
    <rect id="Rectángulo_45819" data-name="Rectángulo 45819" width="116" height="73" rx="21" transform="translate(571 864.274)" fill="#feca2e"/>
    <text id="Elementos_comunes_entre_procesos" data-name="Elementos 
comunes entre
procesos" transform="translate(334.333 1186.685)" fill="#12263f" font-size="14" font-family="Roboto-Regular, Roboto"><tspan x="-34.645" y="0">Elementos </tspan><tspan x="-46.498" y="18">comunes entre</tspan><tspan x="-28.803" y="36">procesos</tspan></text>
    <text id="Solución_de_problemas_detectados" data-name="Solución
de problemas
detectados" transform="translate(629 888.274)" fill="#12263f" font-size="14" font-family="Roboto-Regular, Roboto"><tspan x="-26.92" y="0">Solución</tspan><tspan x="-42.496" y="18">de problemas</tspan><tspan x="-34.959" y="36">detectados</tspan></text>
    <line id="Línea_389" data-name="Línea 389" x1="101" transform="translate(957.5 719.5)" fill="none" stroke="#707070" stroke-width="1.5"/>
    <line id="Línea_391" data-name="Línea 391" x1="222.803" transform="translate(1061 830.722)" fill="none" stroke="#707070" stroke-width="1.5"/>
    <line id="Línea_396" data-name="Línea 396" x1="183" transform="translate(1197.5 1133.547)" fill="none" stroke="#707070" stroke-width="1.5"/>
    <line id="Línea_390" data-name="Línea 390" x1="159.553" transform="translate(797.947 851.216)" fill="none" stroke="#707070" stroke-width="1.5"/>
    <rect id="Rectángulo_45822" data-name="Rectángulo 45822" width="116" height="73" rx="21" transform="translate(821.5 817.5)" fill="#feca2e"/>
    <text id="Origen_de_datos" data-name="Origen
de datos" transform="translate(879.5 847.716)" fill="#12263f" font-size="14" font-family="Roboto-Regular, Roboto"><tspan x="-20.378" y="0">Origen</tspan><tspan x="-26.964" y="18">de datos</tspan></text>
    <rect id="Rectángulo_45825" data-name="Rectángulo 45825" width="156" height="73" rx="21" transform="translate(982.583 1003.547)" fill="#efd790"/>
    <rect id="Rectángulo_45827" data-name="Rectángulo 45827" width="156" height="73" rx="21" transform="translate(1205.803 1003.547)" fill="#efd790"/>
    <text id="Reglas_de_negocios" data-name="Reglas 
de negocios" transform="translate(1060.583 1036.547)" fill="#12263f" font-size="14" font-family="Roboto-Regular, Roboto"><tspan x="-22.794" y="0">Reglas </tspan><tspan x="-37.844" y="18">de negocios</tspan></text>
    <text id="Visualización_de_datos" data-name="Visualización
de datos" transform="translate(1283.803 1036.547)" fill="#12263f" font-size="14" font-family="Roboto-Regular, Roboto"><tspan x="-41.32" y="0">Visualización</tspan><tspan x="-26.964" y="18">de datos</tspan></text>
    <text id="y" transform="translate(1060.75 1107.547)" fill="#0f2771" font-size="14" font-family="Roboto-Regular, Roboto"><tspan x="-3.312" y="0">y</tspan></text>
    <text id="a_través_de-2" data-name="a través de" transform="translate(1283.803 1107.547)" fill="#0f2771" font-size="14" font-family="Roboto-Regular, Roboto"><tspan x="-33.913" y="0">a través de</tspan></text>
    <line id="Línea_392" data-name="Línea 392" y2="20" transform="translate(1060.75 1076.547)" fill="none" stroke="#707070" stroke-width="1.5"/>
    <line id="Línea_394" data-name="Línea 394" y2="20" transform="translate(1283.803 1076.547)" fill="none" stroke="#707070" stroke-width="1.5"/>
    <rect id="Rectángulo_45826" data-name="Rectángulo 45826" width="127.832" height="73" rx="21" transform="translate(997.168 1132.547)" fill="#f3e8c7"/>
    <text id="dando_respuesta_los_requisitos" data-name="dando respuesta
los requisitos" transform="translate(1060.125 1165.547)" fill="#12263f" font-size="14" font-family="Roboto-Regular, Roboto"><tspan x="-52.175" y="0">dando respuesta</tspan><tspan x="-41.774" y="18">los requisitos</tspan></text>
    <line id="Línea_393" data-name="Línea 393" y2="20" transform="translate(1060.75 1112.547)" fill="none" stroke="#707070" stroke-width="1.5"/>
    <line id="Línea_395" data-name="Línea 395" y2="42.953" transform="translate(1283.887 1112.547)" fill="none" stroke="#707070" stroke-width="1.5"/>
    <line id="Línea_397" data-name="Línea 397" y2="24.953" transform="translate(1197.5 1133.547)" fill="none" stroke="#707070" stroke-width="1.5"/>
    <line id="Línea_398" data-name="Línea 398" y2="24.953" transform="translate(1380.393 1133.547)" fill="none" stroke="#707070" stroke-width="1.5"/>
    <rect id="Rectángulo_45828" data-name="Rectángulo 45828" width="58.803" height="32.614" rx="16.307" transform="translate(1167.083 1155.269)" fill="#feca2e"/>
    <text id="OLAP" transform="translate(1196.083 1176.076)" fill="#12263f" font-size="14" font-family="Roboto-Regular, Roboto"><tspan x="-17.626" y="0">OLAP</tspan></text>
    <rect id="Rectángulo_45830" data-name="Rectángulo 45830" width="78.41" height="48.614" rx="21" transform="translate(1341.59 1155.269)" fill="#feca2e"/>
    <text id="Minería_de_datos" data-name="Minería
de datos" transform="translate(1380.393 1176.076)" fill="#12263f" font-size="14" font-family="Roboto-Regular, Roboto"><tspan x="-23.287" y="0">Minería</tspan><tspan x="-26.964" y="18">de datos</tspan></text>
  </g>
</svg>
