<svg xmlns="http://www.w3.org/2000/svg" xmlns:xlink="http://www.w3.org/1999/xlink" width="148" height="148" viewBox="0 0 148 148">
  <defs>
    <clipPath id="clip-path">
      <rect id="Rectángulo_45232" data-name="Rectángulo 45232" width="135.664" height="135.233" fill="none"/>
    </clipPath>
    <clipPath id="clip-path-3">
      <path id="Trazado_206715" data-name="Trazado 206715" d="M327.272,221.828c-1.2,8.612-4.765,8.376-9.8,8.139a34.507,34.507,0,0,0-4.754.013c-10.248.91-3.93,11.529-8.377,15.065-3.485,2.772-5.544,1.7-9.3,1.647.583,5.5.95,11.115,1.508,16.654,3.023.9,6.6,1.884,8.082-1.754,2.057-5.058,11.614-5.155,15.947-4.349,5.362,1,17.154,2.079,16.3-5.9-.71-6.639-3.781-10.448,4-12.9s11.69-7.257,9.822-14.487c-1.966-7.609,6.757-15.512,1.035-21.316a8.839,8.839,0,0,0-6.381-2.957c-8.415,0-16.846,13.3-18.08,22.147" transform="translate(-295.04 -199.681)" fill="none"/>
    </clipPath>
    <clipPath id="clip-path-5">
      <path id="Trazado_206725" data-name="Trazado 206725" d="M384.475,76.077c-5.224,1.538-10.459,8.271-9.4,13.819,1.241,11.4.15,26.2-7.037,24.884-7.378-1.525-8.679,6.617-6.14,13.315,1.587,4.751,7.15,12.767-1.109,21.7-4.176,4.611-2.85,13.4-2.785,13.344q6.05,1.171,12.119,2.063c6.726-6.387,7.334-11.425,4.794-17.587-2.472-6.233,4.286-9.8,9.649-14.761,6.375-5.584-1.545-10.683,1.86-16.986,3.46-6.42,12.806-14.142,10.336-26.947-1.373-9.309-5.36-13.254-9.768-13.254a8.278,8.278,0,0,0-2.518.41" transform="translate(-357.753 -75.667)" fill="none"/>
    </clipPath>
    <clipPath id="clip-path-6">
      <path id="Trazado_206726" data-name="Trazado 206726" d="M77.744,128.245c0,29.135,24.52,51.632,53.73,50.3,28.126-1.286,50.17-24.347,50.17-51.551s-22.045-49.733-50.17-50.34c-.39-.008-.779-.013-1.167-.013-28.693,0-52.563,22.861-52.563,51.606" transform="translate(-77.744 -76.639)" fill="none"/>
    </clipPath>
    <linearGradient id="linear-gradient" x1="-0.017" y1="0.955" x2="-0.015" y2="0.955" gradientUnits="objectBoundingBox">
      <stop offset="0" stop-color="#444b8c"/>
      <stop offset="0.996" stop-color="#26264f"/>
      <stop offset="1" stop-color="#26264f"/>
    </linearGradient>
    <clipPath id="clip-path-7">
      <path id="Trazado_206727" data-name="Trazado 206727" d="M90.258,128.245c0,29.135,24.52,51.632,53.731,50.3,28.125-1.286,50.17-24.347,50.17-51.551s-22.045-49.733-50.17-50.34c-.39-.008-.778-.013-1.167-.013-28.693,0-52.563,22.861-52.563,51.606" transform="translate(-90.258 -76.639)" fill="none"/>
    </clipPath>
    <linearGradient id="linear-gradient-2" x1="-0.041" y1="0.955" x2="-0.039" y2="0.955" gradientUnits="objectBoundingBox">
      <stop offset="0" stop-color="#aa80f9"/>
      <stop offset="0.996" stop-color="#6165d7"/>
      <stop offset="1" stop-color="#6165d7"/>
    </linearGradient>
    <clipPath id="clip-path-9">
      <rect id="Rectángulo_45213" data-name="Rectángulo 45213" width="82.42" height="99.888" fill="none"/>
    </clipPath>
    <clipPath id="clip-path-11">
      <path id="Trazado_206732" data-name="Trazado 206732" d="M121.35,112.161c-1.727-5.63-1.648-14.181,6.775-26.814-21.729,6.26-37.867,25.964-37.867,49.535,0,29.134,24.52,51.632,53.731,50.3a52.93,52.93,0,0,0,28.69-10,49.087,49.087,0,0,0-6.694-24.12c-13.071-21.571-39.215-21.231-44.635-38.895" transform="translate(-90.258 -85.347)" fill="none"/>
    </clipPath>
    <linearGradient id="linear-gradient-3" x1="-0.286" y1="1.117" x2="-0.283" y2="1.117" xlink:href="#linear-gradient-2"/>
    <clipPath id="clip-path-12">
      <path id="Trazado_206735" data-name="Trazado 206735" d="M68.508,0C19.573,0,14.035,41.8,14.035,41.8H0v3.8L27.59,83.545,61.3,39.5H48.025L66.815,17.47s21.595,3.859,29.048,6.362c9.632,3.551,17.207,11.61,17.207,11.61S105.548,0,68.508,0Z" fill="none"/>
    </clipPath>
    <clipPath id="clip-path-13">
      <rect id="Rectángulo_45216" data-name="Rectángulo 45216" width="60.149" height="30.905" fill="none"/>
    </clipPath>
    <clipPath id="clip-path-14">
      <path id="Trazado_206734" data-name="Trazado 206734" d="M258.979,77.018v.159a69.129,69.129,0,0,0-5.642-6.063c-.029-.068-.078-.135-.108-.2A35.041,35.041,0,0,0,243.9,58.347c-.271-.254-.585-.479-.874-.719-.148-.117-.3-.238-.448-.355l-.22-.179c-.077-.06-.157-.113-.234-.171q-.466-.337-.935-.679l-.234-.171-.246-.159c-.163-.107-.325-.215-.488-.32-.642-.443-1.335-.826-2.01-1.231-.344-.2-.705-.377-1.055-.564-.173-.093-.35-.189-.528-.28l-.544-.258a35.274,35.274,0,0,0-9.292-2.953l-1.218-.191c-.407-.054-.819-.087-1.224-.133l-.613-.066-.615-.032-.615-.036c-.2-.01-.407-.03-.613-.026l-1.229-.008c-.1,0-.208-.006-.3,0l-.273.014-.547.028-.542.026c-.048,0-.081,0-.144.006l-.557.04-.745.05-.557.04-.094.006-.033,0s-.194,0,.132.006l-1.2.169c-.2.03-.4.048-.6.089l-.59.113-.59.111-.294.056c-.1.018-.194.046-.29.068-.386.093-.772.185-1.156.28-.194.04-.382.1-.569.157l-.563.169-.563.161-.551.193c-.367.131-.734.246-1.091.385s-.711.286-1.064.431a30.816,30.816,0,0,0-7.473,4.476l-.4.322-.384.343c-.254.227-.517.443-.759.675-.01.008-.019.02-.029.028,6.163-7.267,16.148-11.987,27.415-11.987,11.545,0,21.742,4.955,27.861,12.523.517.943.978,1.883,1.385,2.81a39.957,39.957,0,0,1,2.574,7.928c.056.3.117.6.173.89s.119.574.154.858c.079.566.158,1.108.231,1.631s.1,1.029.142,1.507c.019.238.044.471.058.7s.058.449.069.667c.013.433.085.848.085,1.231" transform="translate(-198.83 -46.272)" fill="none"/>
    </clipPath>
    <linearGradient id="linear-gradient-4" x1="-0.857" y1="2.113" x2="-0.852" y2="2.113" gradientUnits="objectBoundingBox">
      <stop offset="0" stop-color="#fcb148"/>
      <stop offset="0.052" stop-color="#fdb946"/>
      <stop offset="0.143" stop-color="#fec144"/>
      <stop offset="0.318" stop-color="#ffc444"/>
      <stop offset="0.484" stop-color="#fdb946"/>
      <stop offset="0.773" stop-color="#f99c4c"/>
      <stop offset="0.866" stop-color="#f8924f"/>
      <stop offset="1" stop-color="#f8924f"/>
    </linearGradient>
    <clipPath id="clip-path-15">
      <path id="Trazado_206736" data-name="Trazado 206736" d="M397.053,256.82c-.247.316-.108.541-.305,1.047a2.382,2.382,0,0,1-.746.984l.611.543a2.664,2.664,0,0,1,.882-1.12,5.207,5.207,0,0,0,.645-.407c.346-.3.78-.876.585-1.206a.564.564,0,0,0-.277-.219,1,1,0,0,0-.406-.081,1.29,1.29,0,0,0-.988.458" transform="translate(-396.001 -256.362)" fill="none"/>
    </clipPath>
    <linearGradient id="linear-gradient-5" x1="-30.431" y1="19.69" x2="-30.354" y2="19.69" gradientUnits="objectBoundingBox">
      <stop offset="0" stop-color="#ffc444"/>
      <stop offset="0.996" stop-color="#f36f56"/>
      <stop offset="1" stop-color="#f36f56"/>
    </linearGradient>
    <clipPath id="clip-path-16">
      <path id="Trazado_206737" data-name="Trazado 206737" d="M438.838,249.5a.563.563,0,0,0-.169.31c-.051.38.571.737,1.009.882a5.21,5.21,0,0,0,.752.123,2.661,2.661,0,0,1,1.249.687l.35-.738a2.379,2.379,0,0,1-1.071-.615c-.379-.389-.339-.651-.69-.845a1.257,1.257,0,0,0-1.431.2" transform="translate(-438.666 -249.163)" fill="none"/>
    </clipPath>
    <linearGradient id="linear-gradient-6" x1="-29.615" y1="23.09" x2="-29.547" y2="23.09" xlink:href="#linear-gradient-5"/>
    <clipPath id="clip-path-18">
      <path id="Trazado_206739" data-name="Trazado 206739" d="M438.326,506.82l-.157,1.6.743-.135.5-1.5Z" transform="translate(-438.169 -506.782)" fill="none"/>
    </clipPath>
    <linearGradient id="linear-gradient-7" x1="-87.992" y1="1.791" x2="-87.791" y2="1.791" xlink:href="#linear-gradient-5"/>
    <clipPath id="clip-path-19">
      <path id="Trazado_206740" data-name="Trazado 206740" d="M427.669,396.41q1.053,8.183,2.106,16.366c.218,3.626.489,7.039.707,10.665.591.12,1.151.243,1.518-.077a22.869,22.869,0,0,0,1.035-2.51,22.053,22.053,0,0,0,1.272-8.388c-.19-3.621-1.222-4.079-.917-7.283a32.754,32.754,0,0,1,.853-3.969,40.153,40.153,0,0,0,.849-7.236l-7.424,2.43" transform="translate(-427.669 -393.98)" fill="none"/>
    </clipPath>
    <linearGradient id="linear-gradient-8" x1="-11.311" y1="1.082" x2="-11.285" y2="1.082" gradientUnits="objectBoundingBox">
      <stop offset="0" stop-color="#311944"/>
      <stop offset="1" stop-color="#893976"/>
    </linearGradient>
    <clipPath id="clip-path-21">
      <rect id="Rectángulo_45223" data-name="Rectángulo 45223" width="7.424" height="29.589" fill="none"/>
    </clipPath>
    <clipPath id="clip-path-22">
      <path id="Trazado_206741" data-name="Trazado 206741" d="M430.483,423.442c-.218-3.626-.489-7.039-.707-10.666L427.67,396.41l7.424-2.43c0,.188-.014.368-.022.553-3.472,3.015-4.151,5.4-4.117,7.033.041,1.976,1.122,2.955.91,5.82-.151,2.049-.767,2.41-.766,4.258,0,2.38,1.022,3.719,1.52,5.094a8.609,8.609,0,0,1-.277,5.891c-.122.277-.237.524-.34.736-.367.32-.927.2-1.518.077" transform="translate(-427.67 -393.98)" fill="none"/>
    </clipPath>
    <linearGradient id="linear-gradient-9" x1="-11.312" y1="1.082" x2="-11.285" y2="1.082" xlink:href="#linear-gradient-8"/>
    <clipPath id="clip-path-23">
      <path id="Trazado_206742" data-name="Trazado 206742" d="M434.141,510.111c-.55.375-.386.939-.907,1.2a1.41,1.41,0,0,0-.445.278c-.074.072-.256.25-.21.369.053.138.385.126.7.115a1.377,1.377,0,0,0,.747-.138c.249-.163.17-.322.442-.659.352-.436.675-.4.733-.7a.6.6,0,0,0-.318-.616.478.478,0,0,0-.208-.045,1.04,1.04,0,0,0-.535.2" transform="translate(-432.572 -509.911)" fill="none"/>
    </clipPath>
    <linearGradient id="linear-gradient-10" x1="-40.23" y1="0.837" x2="-40.137" y2="0.837" gradientUnits="objectBoundingBox">
      <stop offset="0" stop-color="#ff9085"/>
      <stop offset="1" stop-color="#fb6fbb"/>
    </linearGradient>
    <clipPath id="clip-path-24">
      <path id="Trazado_206743" data-name="Trazado 206743" d="M436.977,460.5l1.389.544.4-.637-1.086-.73Z" transform="translate(-436.977 -459.676)" fill="none"/>
    </clipPath>
    <linearGradient id="linear-gradient-11" x1="-51.589" y1="6.98" x2="-51.47" y2="6.98" xlink:href="#linear-gradient-5"/>
    <clipPath id="clip-path-25">
      <path id="Trazado_206744" data-name="Trazado 206744" d="M441.342,461.516c-.312.125-.376.554-.39.651-.1.659.428.921.263,1.478a1.408,1.408,0,0,0-.1.515c0,.1.01.358.129.4.138.054.354-.2.559-.437a1.377,1.377,0,0,0,.406-.642c.049-.294-.122-.344-.185-.771-.082-.554.161-.77-.016-1.013a.6.6,0,0,0-.472-.22.534.534,0,0,0-.2.036" transform="translate(-440.939 -461.48)" fill="none"/>
    </clipPath>
    <linearGradient id="linear-gradient-12" x1="-39.804" y1="4.388" x2="-39.713" y2="4.388" xlink:href="#linear-gradient-10"/>
    <clipPath id="clip-path-26">
      <path id="Trazado_206745" data-name="Trazado 206745" d="M399.021,396.883a7.238,7.238,0,0,0,.339,4.139c1.906,4.11,8.556,4.382,9.567,4.41l1-2.043a10.212,10.212,0,0,0-3.508-3.86c-1.406-.884-1.956-.7-2.307-1.289-1.409-2.384,6.195-7.547,5.059-10.985-.393-1.189-1.905-2.395-6.348-2.925a38.372,38.372,0,0,0-3.8,12.552" transform="translate(-398.895 -384.331)" fill="none"/>
    </clipPath>
    <linearGradient id="linear-gradient-13" x1="-4.581" y1="2.46" x2="-4.569" y2="2.46" xlink:href="#linear-gradient-8"/>
    <clipPath id="clip-path-28">
      <path id="Trazado_206747" data-name="Trazado 206747" d="M425.242,295.544c-.049,1.015,1.1.942,1.1.942l-.043.641a1.388,1.388,0,0,1-.906,1.21l-.452.166s2.951.632,4.562-.507l-.464-.045a1.389,1.389,0,0,1-1.246-1.241l-.028-.274s.512-3.165-1.7-3.353a7.583,7.583,0,0,0-.819,2.462" transform="translate(-424.938 -293.082)" fill="none"/>
    </clipPath>
    <linearGradient id="linear-gradient-14" x1="-15.317" y1="7.859" x2="-15.281" y2="7.859" xlink:href="#linear-gradient-5"/>
  </defs>
  <g id="Grupo_146525" data-name="Grupo 146525" transform="translate(-1077 -1449.422)">
    <g id="Elipse_4811" data-name="Elipse 4811" transform="translate(-5818.534 -2522.398)">
      <circle id="Elipse_4824" data-name="Elipse 4824" cx="74" cy="74" r="74" transform="translate(6895.534 3971.82)" fill="#4dcedf"/>
      <circle id="Elipse_4825" data-name="Elipse 4825" cx="73.5" cy="73.5" r="73.5" transform="translate(6896.034 3972.32)" fill="#4dcedf"/>
    </g>
    <g id="Grupo_144679" data-name="Grupo 144679" transform="translate(1081.668 1460.189)">
      <g id="Grupo_144678" data-name="Grupo 144678" clip-path="url(#clip-path)">
        <g id="Grupo_144619" data-name="Grupo 144619">
          <g id="Grupo_144618" data-name="Grupo 144618" clip-path="url(#clip-path)">
            <path id="Trazado_206708" data-name="Trazado 206708" d="M130.6,30.661C114.394,8.483,86.653,7.1,84.938,7.018,63.059,6,47.441,17.16,41.809,21.314a62.322,62.322,0,0,0-15.058,14.76c-2.417,3.416-10.828,16.089-10.962,33.142-.208,26.51,19.745,43.762,23.367,46.768,19.595,16.26,53.866,24.356,79.572,5.809,30.19-21.783,29.884-66.474,11.87-91.13" transform="translate(-11.667 -5.139)" fill="#f4f7fa"/>
            <path id="Trazado_206709" data-name="Trazado 206709" d="M306.842,262.552a6.627,6.627,0,0,1-2.411-1.99c-1.566-3.177-4.884-8.935-3.9-12.547.169-.617,3.083-.607,3.6-1.1,1.859-.444,2.532-.483,4.092-1.774,4.606-3.811-1.873-14.165,8.419-15.148,7.539-.72,13,2.978,14.555-8.159s14.491-29.3,24.464-19.194c5.723,5.8-3,13.707-1.035,21.316,1.87,7.23-2.042,12.03-9.823,14.487s-4.705,6.261-4,12.905c.848,7.982-10.921,6.877-16.311,5.9-4.34-.784-15.921.148-17.651,5.3" transform="translate(-221.973 -147.575)" fill="#12263f"/>
          </g>
        </g>
        <g id="Grupo_144621" data-name="Grupo 144621" transform="translate(76.995 52.11)">
          <g id="Grupo_144620" data-name="Grupo 144620" clip-path="url(#clip-path-3)">
            <path id="Trazado_206710" data-name="Trazado 206710" d="M308.513,251.7l-.04-.16a65.419,65.419,0,0,0,33.284-20.415,79.09,79.09,0,0,0,17.517-35.391l.161.035a79.252,79.252,0,0,1-17.554,35.464A65.581,65.581,0,0,1,308.513,251.7" transform="translate(-304.967 -196.766)" fill="#fcfdfe"/>
            <path id="Trazado_206711" data-name="Trazado 206711" d="M387.484,394.136c-6.233-3.613-17.425-6.041-24.945-5.412l-.014-.164c7.551-.633,18.784,1.806,25.042,5.433Z" transform="translate(-344.914 -339.195)" fill="#fcfdfe"/>
            <path id="Trazado_206712" data-name="Trazado 206712" d="M327.555,336.455l-.083-.142c3.394-1.97,5.661-5.58,6.738-10.729a44.645,44.645,0,0,0,.429-13.374l.164-.016a44.8,44.8,0,0,1-.432,13.424c-1.088,5.2-3.381,8.843-6.817,10.838" transform="translate(-319.008 -282.832)" fill="#fcfdfe"/>
            <path id="Trazado_206713" data-name="Trazado 206713" d="M440.663,316.107l-.09-.138c6.2-4.041,13.985-3.828,19.422-2.937l-.027.163c-5.407-.886-13.146-1.1-19.305,2.913" transform="translate(-402.594 -283.057)" fill="#fcfdfe"/>
            <path id="Trazado_206714" data-name="Trazado 206714" d="M468,214.282l-.158-.046c.992-3.441,1.927-10.658-2.951-20.332l.147-.074a36.028,36.028,0,0,1,3.371,10A23.387,23.387,0,0,1,468,214.282" transform="translate(-420.564 -195.357)" fill="#fcfdfe"/>
          </g>
        </g>
        <g id="Grupo_144623" data-name="Grupo 144623">
          <g id="Grupo_144622" data-name="Grupo 144622" clip-path="url(#clip-path)">
            <path id="Trazado_206716" data-name="Trazado 206716" d="M370.122,165.2q-6.067-.892-12.119-2.063c-.066.059-1.391-8.733,2.785-13.344,8.259-8.933,2.7-16.949,1.109-21.7-2.539-6.7-1.238-14.84,6.14-13.315,7.188,1.313,8.278-13.484,7.038-24.884-1.059-5.548,4.176-12.28,9.4-13.819,5.333-1.7,10.655,1.784,12.286,12.844,2.469,12.805-6.876,20.527-10.336,26.947-3.405,6.3,4.516,11.4-1.859,16.986-5.363,4.962-12.122,8.529-9.649,14.761,2.54,6.162,1.932,11.2-4.794,17.587" transform="translate(-264.391 -55.921)" fill="#12263f"/>
          </g>
        </g>
        <g id="Grupo_144625" data-name="Grupo 144625" transform="translate(93.361 19.746)">
          <g id="Grupo_144624" data-name="Grupo 144624" clip-path="url(#clip-path-5)">
            <path id="Trazado_206717" data-name="Trazado 206717" d="M370.122,165.2q-6.067-.892-12.119-2.063c-.066.059-1.391-8.733,2.785-13.344,8.259-8.933,2.7-16.949,1.109-21.7-2.514-6.693-1.192-13.942,5.621-14.049,7.556-.267,8.926-12.773,7.557-24.15-1.059-5.548,4.176-12.28,9.4-13.819,5.333-1.7,10.655,1.784,12.286,12.844,2.469,12.805-6.876,20.527-10.336,26.947-3.405,6.3,4.516,11.4-1.859,16.986-5.363,4.962-12.122,8.529-9.649,14.761,2.54,6.162,1.932,11.2-4.794,17.587" transform="translate(-357.752 -75.667)" fill="#12263f"/>
            <path id="Trazado_206718" data-name="Trazado 206718" d="M383.96,158.019l-.164,0a286.805,286.805,0,0,1,10.529-36.577c.92-2.915,1.92-5.855,2.888-8.7,2.589-7.613,5.267-15.485,6.538-23.324A49.888,49.888,0,0,0,402.2,65.294l.156-.052a50.053,50.053,0,0,1,1.555,24.2c-1.274,7.852-3.954,15.731-6.545,23.35-.967,2.842-1.967,5.781-2.888,8.7a284.274,284.274,0,0,0-10.521,36.527" transform="translate(-377 -67.963)" fill="#fcfdfe"/>
            <path id="Trazado_206719" data-name="Trazado 206719" d="M453.394,136.711l-.122-.11c4.509-5.01,9.95-12.129,12.872-15.955,2.353-3.08,2.365-3.075,2.463-3.06l-.013.081.034.073c-.119.082-1.1,1.372-2.353,3.006-2.924,3.827-8.367,10.95-12.881,15.965" transform="translate(-428.345 -106.646)" fill="#fcfdfe"/>
            <path id="Trazado_206720" data-name="Trazado 206720" d="M432.857,121.258a23.8,23.8,0,0,0-5.116-11.676,12.826,12.826,0,0,0-4.049-3.444.063.063,0,0,0,.039-.012l-.092-.137c.042-.028.09-.021.2.027a14.325,14.325,0,0,1,4.322,3.817,24.375,24.375,0,0,1,4.859,11.4Z" transform="translate(-406.444 -98.064)" fill="#fcfdfe"/>
            <path id="Trazado_206721" data-name="Trazado 206721" d="M380.592,250.384l-.163-.02c.636-5.342-.609-11.088-3.7-17.079a49.7,49.7,0,0,0-6.111-9.1c-.177-.211-.239-.286-.259-.32l.142-.083c.014.025.115.145.243.3a49.876,49.876,0,0,1,6.131,9.128c3.107,6.02,4.357,11.8,3.717,17.174" transform="translate(-367.069 -185.131)" fill="#fcfdfe"/>
            <path id="Trazado_206722" data-name="Trazado 206722" d="M416.161,280.256l-.14-.087c4.851-7.837,15.074-8.379,15.163-8.353l.061.077-.056.081-.026-.077-.007.08h0c-.162,0-10.22.568-14.993,8.278m14.975-8.438.026.078Z" transform="translate(-400.815 -220.628)" fill="#fcfdfe"/>
            <path id="Trazado_206723" data-name="Trazado 206723" d="M371.172,374.222l-.165-.006c.086-2.326-.746-6.291-5.193-11.97-.241-.308-.241-.308-.235-.354l.163.023-.081-.012.075-.031c.013.023.1.139.207.272,4.477,5.719,5.314,9.725,5.228,12.078" transform="translate(-363.536 -287.182)" fill="#fcfdfe"/>
            <path id="Trazado_206724" data-name="Trazado 206724" d="M390.5,367.747l-.158-.046c.513-1.769,2.531-5.236,10.285-8.574.107-.046.176-.076.2-.088l.075.146c-.026.013-.1.045-.211.093-7.692,3.311-9.687,6.727-10.192,8.468" transform="translate(-381.838 -285.089)" fill="#fcfdfe"/>
          </g>
        </g>
        <g id="Grupo_144627" data-name="Grupo 144627" transform="translate(20.288 20)">
          <g id="Grupo_144626" data-name="Grupo 144626" clip-path="url(#clip-path-6)">
            <rect id="Rectángulo_45209" data-name="Rectángulo 45209" width="139.638" height="139.918" transform="translate(-42.402 81.057) rotate(-62.385)" fill="url(#linear-gradient)"/>
          </g>
        </g>
        <g id="Grupo_144629" data-name="Grupo 144629" transform="translate(23.554 20)">
          <g id="Grupo_144628" data-name="Grupo 144628" clip-path="url(#clip-path-7)">
            <rect id="Rectángulo_45210" data-name="Rectángulo 45210" width="139.638" height="139.918" transform="translate(-42.402 81.057) rotate(-62.386)" fill="url(#linear-gradient-2)"/>
          </g>
        </g>
        <g id="Grupo_144639" data-name="Grupo 144639">
          <g id="Grupo_144638" data-name="Grupo 144638" clip-path="url(#clip-path)">
            <path id="Trazado_206728" data-name="Trazado 206728" d="M199.846,135.648c0,25.633-20.794,47.32-47.272,48.478-27.437,1.2-50.42-19.959-50.42-47.3s22.983-49.053,50.42-48.516c26.478.518,47.272,21.7,47.272,47.336" transform="translate(-75.495 -65.258)" fill="#4dd0e1"/>
            <path id="Trazado_206729" data-name="Trazado 206729" d="M192.865,197.572q3.194-4.146,3.194-12.4,0-7.9-3.248-12.149t-9.314-4.253q-12.383,0-12.383,16.4,0,8.041,3.23,12.293a10.818,10.818,0,0,0,9.153,4.253q6.173,0,9.368-4.146m-9.3-3.284q-1.8,0-2.6-2.243a21.4,21.4,0,0,1-.808-6.8,21.046,21.046,0,0,1,.808-6.766q.807-2.207,2.6-2.208,3.446,0,3.446,8.973,0,9.045-3.446,9.045" transform="translate(-126.459 -124.725)" fill="#fff"/>
            <path id="Trazado_206730" data-name="Trazado 206730" d="M333.65,253.343q-3.249-4.253-9.314-4.253-12.383,0-12.383,16.4,0,8,3.23,12.258A10.818,10.818,0,0,0,324.336,282q6.173,0,9.368-4.146t3.195-12.365q0-7.9-3.249-12.149m-9.242,21.266q-1.8,0-2.6-2.243a21.406,21.406,0,0,1-.807-6.8,21.055,21.055,0,0,1,.807-6.766q.808-2.208,2.6-2.208,3.445,0,3.446,8.973,0,9.045-3.446,9.045" transform="translate(-230.544 -184.086)" fill="#fff"/>
            <path id="Trazado_206731" data-name="Trazado 206731" d="M255.8,172.114a1.157,1.157,0,0,0-.984-.578H249.5a2.313,2.313,0,0,0-2.01,1.2l-27.512,49.6a1.165,1.165,0,0,0,.015,1.145,1.152,1.152,0,0,0,.984.574h6a1.149,1.149,0,0,0,1-.6l27.842-50.2a1.164,1.164,0,0,0-.015-1.145" transform="translate(-162.464 -126.771)" fill="#fff"/>
            <g id="Grupo_144637" data-name="Grupo 144637" transform="translate(23.554 22.273)" opacity="0.3" style="mix-blend-mode: multiply;isolation: isolate">
              <g id="Grupo_144636" data-name="Grupo 144636">
                <g id="Grupo_144635" data-name="Grupo 144635" clip-path="url(#clip-path-9)">
                  <g id="Grupo_144634" data-name="Grupo 144634" opacity="0.3" style="mix-blend-mode: multiply;isolation: isolate">
                    <g id="Grupo_144633" data-name="Grupo 144633">
                      <g id="Grupo_144632" data-name="Grupo 144632" clip-path="url(#clip-path-9)">
                        <g id="Grupo_144631" data-name="Grupo 144631" transform="translate(0 0)">
                          <g id="Grupo_144630" data-name="Grupo 144630" clip-path="url(#clip-path-11)">
                            <rect id="Rectángulo_45211" data-name="Rectángulo 45211" width="82.42" height="101.167" transform="translate(0 0)" fill="url(#linear-gradient-3)"/>
                          </g>
                        </g>
                      </g>
                    </g>
                  </g>
                </g>
              </g>
            </g>
          </g>
        </g>
        <g id="Grupo_144646" data-name="Grupo 144646">
          <g id="Grupo_144645" data-name="Grupo 144645" clip-path="url(#clip-path-12)">
            <path id="Trazado_206733" data-name="Trazado 206733" d="M116.555,46.1v.159a69.175,69.175,0,0,0-5.642-6.063c-.029-.067-.078-.135-.108-.2a35.046,35.046,0,0,0-9.329-12.565c-.271-.254-.585-.479-.875-.719-.148-.117-.3-.238-.448-.355l-.22-.179c-.077-.059-.157-.113-.234-.171q-.466-.337-.935-.679l-.234-.171L98.287,25c-.163-.107-.325-.215-.488-.32-.642-.443-1.335-.826-2.011-1.231-.344-.2-.7-.377-1.055-.564-.173-.093-.35-.189-.528-.28l-.544-.258a35.255,35.255,0,0,0-9.292-2.953L83.15,19.2c-.407-.053-.82-.087-1.224-.133L81.313,19l-.615-.032-.615-.035c-.2-.01-.407-.03-.613-.026L78.24,18.9c-.1,0-.209-.006-.3,0l-.273.014-.546.028-.542.026c-.048,0-.081,0-.144.006l-.557.04-.745.05-.557.04-.094.006-.033,0s-.194,0,.131.006l-1.2.169c-.2.03-.4.047-.6.089l-.59.113-.59.111-.294.056c-.1.018-.194.046-.29.068-.386.093-.772.185-1.156.28-.194.04-.382.1-.569.157l-.563.169-.563.161-.551.193c-.367.131-.734.246-1.091.385s-.711.286-1.064.431a30.818,30.818,0,0,0-7.473,4.476l-.4.322-.384.344c-.254.226-.517.443-.759.675-.01.008-.019.02-.029.028-.471.465-.949.9-1.372,1.382-.113.117-.223.236-.332.355l-.167.175-.154.187c-.207.242-.411.487-.615.727-.05.059-.1.117-.154.178l-.14.187c-.1.125-.19.25-.284.371-.184.25-.384.48-.549.739a27.159,27.159,0,0,0-3.176,5.866,25.8,25.8,0,0,0-1.408,5.231c-.027.2-.054.389-.081.58s-.063.373-.071.558c-.031.37-.063.721-.094,1.057s-.021.669-.035.977c-.006.155-.017.306-.019.451s.01.294.013.433c0,.28.008.544.012.79a.964.964,0,0,0,.015.153c.006.046.013.091.019.135.008.087.021.075.029.155s.015.1.021.1h13.73l-8.343,8.808-19.4,20.2-27.741-29H20.7a2.067,2.067,0,0,0,.067-.425c.056-.4.117-.8.184-1.275.038-.239.071-.461.11-.717.021-.125.04-.244.061-.375s.038-.268.065-.381c.1-.481.209-.987.321-1.527.061-.268.119-.542.182-.824s.146-.568.225-.862c.159-.586.313-1.2.5-1.835s.417-1.283.636-1.962c.106-.342.246-.677.376-1.025l.4-1.051a49.244,49.244,0,0,1,4.745-9.01,50.045,50.045,0,0,1,7.793-9.052c.377-.367.794-.7,1.2-1.055.2-.173.407-.348.611-.522l.311-.262.317-.25c.427-.332.859-.667,1.289-1l.325-.25.338-.238c.227-.161.453-.32.68-.479.891-.65,1.848-1.235,2.8-1.839.479-.294.976-.568,1.47-.852.244-.139.492-.278.74-.421l.763-.393a50.968,50.968,0,0,1,13.2-4.685l1.752-.33c.584-.1,1.179-.175,1.767-.26l.884-.119.89-.084.889-.081c.3-.026.59-.057.889-.067.592-.026,1.187-.093,1.781-.119.146-.006.3-.06.444-.06h.446l.886.047.886.028c.3,0,.592.038.886.052l1.762.1c.4.006.138.01.24.012l.046.006.094.01.183.024.371.044.738.087.371.044.183.022.227.03.935.131.934.135.463.07c.152.024.288.056.434.083.569.115,1.139.232,1.708.346.284.054.563.131.843.2l.841.212.834.212.824.248c.546.169,1.1.328,1.631.51l1.6.572a46.45,46.45,0,0,1,11.38,6.208c.209.153.415.308.622.461s.4.32.6.483c.4.322.795.632,1.176.961.753.673,1.5,1.319,2.19,2.018.175.171.346.344.521.512l.257.254.246.264q.491.53.97,1.052l.24.262.229.27c.148.181.3.36.449.538.3.359.607.7.874,1.072a43.5,43.5,0,0,1,3.852,5.857c.517.943.978,1.883,1.385,2.81a39.969,39.969,0,0,1,2.574,7.928c.056.3.117.6.173.89s.119.574.154.858c.079.566.159,1.108.231,1.631s.1,1.029.142,1.507c.019.239.044.471.058.7s.058.449.069.667c.013.433.086.848.086,1.231" transform="translate(-4.519 -3.281)" fill="#feca2e"/>
            <g id="Grupo_144644" data-name="Grupo 144644" transform="translate(51.888 12.075)" opacity="0.4" style="mix-blend-mode: multiply;isolation: isolate">
              <g id="Grupo_144643" data-name="Grupo 144643">
                <g id="Grupo_144642" data-name="Grupo 144642" clip-path="url(#clip-path-13)">
                  <g id="Grupo_144641" data-name="Grupo 144641" transform="translate(0 0)">
                    <g id="Grupo_144640" data-name="Grupo 144640" clip-path="url(#clip-path-14)">
                      <rect id="Rectángulo_45215" data-name="Rectángulo 45215" width="60.419" height="66.806" transform="matrix(0.589, -0.808, 0.808, 0.589, -14.716, 20.168)" fill="url(#linear-gradient-4)"/>
                    </g>
                  </g>
                </g>
              </g>
            </g>
          </g>
        </g>
        <g id="Grupo_144648" data-name="Grupo 144648" transform="translate(103.342 66.902)">
          <g id="Grupo_144647" data-name="Grupo 144647" clip-path="url(#clip-path-15)">
            <rect id="Rectángulo_45217" data-name="Rectángulo 45217" width="3.388" height="3.482" transform="translate(-0.505 0.087) rotate(-9.732)" fill="url(#linear-gradient-5)"/>
          </g>
        </g>
        <g id="Grupo_144650" data-name="Grupo 144650" transform="translate(114.476 65.023)">
          <g id="Grupo_144649" data-name="Grupo 144649" clip-path="url(#clip-path-16)">
            <rect id="Rectángulo_45218" data-name="Rectángulo 45218" width="3.856" height="3.056" transform="translate(-0.569 0.123) rotate(-13.236)" fill="url(#linear-gradient-6)"/>
          </g>
        </g>
        <g id="Grupo_144652" data-name="Grupo 144652">
          <g id="Grupo_144651" data-name="Grupo 144651" clip-path="url(#clip-path)">
            <path id="Trazado_206738" data-name="Trazado 206738" d="M432.933,253.874c-.193.917.8,1.732,1.513,2.533,1.434,1.606,2.935,4.472,2.384,6.932a5.345,5.345,0,0,1-2.628,3.485c-1.467.741-2.345.067-3.871.947-.112.065-2.042,1.209-2.1,2.752-.069,1.9,2.73,3.93,5.127,4.085,4.383.283,9.664-5.545,9.418-11.329-.268-6.3-7.034-11.294-8.98-10.447a1.606,1.606,0,0,0-.866,1.043" transform="translate(-316.478 -186.781)" fill="#0f2771"/>
          </g>
        </g>
        <g id="Grupo_144654" data-name="Grupo 144654" transform="translate(114.347 132.252)">
          <g id="Grupo_144653" data-name="Grupo 144653" clip-path="url(#clip-path-18)">
            <rect id="Rectángulo_45220" data-name="Rectángulo 45220" width="1.299" height="1.676" transform="translate(-0.057 0.002) rotate(-2.017)" fill="url(#linear-gradient-7)"/>
          </g>
        </g>
        <g id="Grupo_144656" data-name="Grupo 144656" transform="translate(111.607 102.815)">
          <g id="Grupo_144655" data-name="Grupo 144655" clip-path="url(#clip-path-19)">
            <rect id="Rectángulo_45221" data-name="Rectángulo 45221" width="9.763" height="30.201" transform="translate(-2.355 0.188) rotate(-4.562)" fill="url(#linear-gradient-8)"/>
          </g>
        </g>
        <g id="Grupo_144663" data-name="Grupo 144663">
          <g id="Grupo_144662" data-name="Grupo 144662" clip-path="url(#clip-path)">
            <g id="Grupo_144661" data-name="Grupo 144661" transform="translate(111.607 102.815)" opacity="0.3" style="mix-blend-mode: multiply;isolation: isolate">
              <g id="Grupo_144660" data-name="Grupo 144660">
                <g id="Grupo_144659" data-name="Grupo 144659" clip-path="url(#clip-path-21)">
                  <g id="Grupo_144658" data-name="Grupo 144658">
                    <g id="Grupo_144657" data-name="Grupo 144657" clip-path="url(#clip-path-22)">
                      <rect id="Rectángulo_45222" data-name="Rectángulo 45222" width="9.763" height="30.201" transform="translate(-2.355 0.188) rotate(-4.562)" fill="url(#linear-gradient-9)"/>
                    </g>
                  </g>
                </g>
              </g>
            </g>
          </g>
        </g>
        <g id="Grupo_144665" data-name="Grupo 144665" transform="translate(112.886 133.069)">
          <g id="Grupo_144664" data-name="Grupo 144664" clip-path="url(#clip-path-23)">
            <rect id="Rectángulo_45225" data-name="Rectángulo 45225" width="2.804" height="3.183" transform="translate(-0.579 2.038) rotate(-75.146)" fill="url(#linear-gradient-10)"/>
          </g>
        </g>
        <g id="Grupo_144667" data-name="Grupo 144667" transform="translate(114.036 119.959)">
          <g id="Grupo_144666" data-name="Grupo 144666" clip-path="url(#clip-path-24)">
            <rect id="Rectángulo_45226" data-name="Rectángulo 45226" width="2.206" height="2.252" transform="matrix(0.652, -0.758, 0.758, 0.652, -0.676, 0.786)" fill="url(#linear-gradient-11)"/>
          </g>
        </g>
        <g id="Grupo_144669" data-name="Grupo 144669" transform="translate(115.07 120.43)">
          <g id="Grupo_144668" data-name="Grupo 144668" clip-path="url(#clip-path-25)">
            <rect id="Rectángulo_45227" data-name="Rectángulo 45227" width="2.87" height="3.403" transform="matrix(0.844, -0.536, 0.536, 0.844, -1.506, 0.902)" fill="url(#linear-gradient-12)"/>
          </g>
        </g>
        <g id="Grupo_144671" data-name="Grupo 144671" transform="translate(104.098 100.297)">
          <g id="Grupo_144670" data-name="Grupo 144670" clip-path="url(#clip-path-26)">
            <rect id="Rectángulo_45228" data-name="Rectángulo 45228" width="21.602" height="12.443" transform="translate(-1.044 21.058) rotate(-87.397)" fill="url(#linear-gradient-13)"/>
          </g>
        </g>
        <g id="Grupo_144673" data-name="Grupo 144673">
          <g id="Grupo_144672" data-name="Grupo 144672" clip-path="url(#clip-path)">
            <path id="Trazado_206746" data-name="Trazado 206746" d="M417.108,311.116c-2.8.48-4.926.98-5.877,2.445-1,1.547.592,2.712,1.026,6.107.665,5.2-2.323,7.139-1.464,12.372a13.276,13.276,0,0,0,.582,2.263,5.354,5.354,0,0,0,2.21,2.746,13.859,13.859,0,0,0,2.8,1.353c2.836.992,4.235.415,8.051.633,6.241.357,7.176,2.167,10,1.054,2.85-1.125,4.912-4.165,4.308-5.464-.362-.778-1.5-.292-3.142-1.247-2.111-1.231-1.756-2.911-3.469-4.352-2.46-2.07-4.826.021-6.93-1.78-2.128-1.821-2.382-6.249-1.478-8.885.591-1.722.6-3.594,1.04-5.361a1.14,1.14,0,0,0-.026-.646c-.349-1.015-2.207-1.21-3.611-1.344a16.035,16.035,0,0,0-4.017.106" transform="translate(-303.475 -229.791)" fill="#0f2771"/>
          </g>
        </g>
        <g id="Grupo_144675" data-name="Grupo 144675" transform="translate(110.894 76.484)">
          <g id="Grupo_144674" data-name="Grupo 144674" clip-path="url(#clip-path-28)">
            <rect id="Rectángulo_45230" data-name="Rectángulo 45230" width="7.155" height="7.567" transform="matrix(0.832, -0.555, 0.555, 0.832, -2.795, 1.867)" fill="url(#linear-gradient-14)"/>
          </g>
        </g>
        <g id="Grupo_144677" data-name="Grupo 144677">
          <g id="Grupo_144676" data-name="Grupo 144676" clip-path="url(#clip-path)">
            <path id="Trazado_206748" data-name="Trazado 206748" d="M381.194,264.822c.438.828-.29,1.885-.756,2.852-.936,1.939-1.588,5.108-.38,7.32a5.345,5.345,0,0,0,3.488,2.625c1.614.308,2.272-.582,3.982-.157.126.031,2.3.6,2.776,2.067.592,1.811-1.541,4.531-3.8,5.341-4.135,1.482-10.819-2.665-12.177-8.292-1.479-6.126,3.646-12.8,5.75-12.518a1.6,1.6,0,0,1,1.12.763" transform="translate(-276.443 -195.142)" fill="#0f2771"/>
            <path id="Trazado_206749" data-name="Trazado 206749" d="M427.88,288.131c.153-.013.278-.206.383-.148s.1.342,0,.54a.714.714,0,0,1-.277.3,1.87,1.87,0,0,1,.33.748,2.589,2.589,0,0,1-.414,1.669c-.731,1.556.406,4.017,1.654,5.259,1.014,1.01,1.487.6,2.093,1.428,1.179,1.605-.448,3.37.162,5.531.927,3.286,6.115,4.263,6.33,4.3l.23.038c2.327.37,5.855.93,8.339-.98a7.244,7.244,0,0,0,2.57-6.107,7.076,7.076,0,0,0-1.994-4.549,6.459,6.459,0,0,0-4.222-1.978c-1.2-.011-1.441.412-2.358.151a4.918,4.918,0,0,1-2.509-2.207c-.883-1.3-.524-1.58-1.159-2.221-1.244-1.255-2.7-.27-4.032-1.377-1.31-1.092-.52-2.573-1.784-3.518-1.3-.975-3.8-.634-4.331.526-.457,1,.519,2.637.986,2.6" transform="translate(-315.402 -210.208)" fill="#e8e8e8"/>
          </g>
        </g>
      </g>
    </g>
  </g>
</svg>
