<svg xmlns="http://www.w3.org/2000/svg" xmlns:xlink="http://www.w3.org/1999/xlink" width="470" height="402" viewBox="0 0 470 402">
  <defs>
    <clipPath id="clip-path">
      <rect id="Rectángulo_44903" data-name="Rectángulo 44903" width="341.724" height="344.113" fill="none"/>
    </clipPath>
    <clipPath id="clip-path-3">
      <rect id="Rectángulo_44888" data-name="Rectángulo 44888" width="129.585" height="262.873" fill="none"/>
    </clipPath>
    <clipPath id="clip-path-4">
      <path id="Trazado_205977" data-name="Trazado 205977" d="M430.371,191.645c-1.306,2.963-3.678,6.37-3.212,7.835s3.172,3.907,3.172,3.907l1.174-2.614c-1.68-2.8-.495-4.97-.4-6.081.077-.859.375-3.987-.1-3.987-.138,0-.343.268-.638.938" transform="translate(-427.1 -190.707)" fill="none"/>
    </clipPath>
    <linearGradient id="linear-gradient" x1="-24.971" y1="16.883" x2="-24.912" y2="16.883" gradientUnits="objectBoundingBox">
      <stop offset="0" stop-color="#ab316d"/>
      <stop offset="1" stop-color="#792d3d"/>
    </linearGradient>
    <clipPath id="clip-path-6">
      <path id="Trazado_205979" data-name="Trazado 205979" d="M473,221.15c-1.528.052-3.33,3.8-2.632,6.76.306,1.3.821,1.282,2.068,3.739,1.536,3.026,1.129,3.782,2.1,4.714,2.048,1.964,6.947,1.561,8.188-.986.974-1.995-.608-4.668-.961-5.262-1.5-2.539-3.054-2.155-5.61-5.079-2.064-2.362-2.165-3.887-3.121-3.887H473" transform="translate(-470.218 -221.149)" fill="none"/>
    </clipPath>
    <linearGradient id="linear-gradient-2" x1="-20.023" y1="11.781" x2="-19.981" y2="11.781" gradientUnits="objectBoundingBox">
      <stop offset="0" stop-color="#26264f"/>
      <stop offset="0.004" stop-color="#26264f"/>
      <stop offset="1" stop-color="#444b8c"/>
    </linearGradient>
    <clipPath id="clip-path-7">
      <path id="Trazado_205980" data-name="Trazado 205980" d="M464.248,244.731c-.09,2.644-3.041,7.824-6.132,8.2a21.366,21.366,0,0,1-2.9.088c-1.971-.034-3.336-.068-2.171,1.3,1.7,1.993,12.873,5.569,16.954,6.1s8.53-.575,7.312-1.6-7.573-4.586-8.136-8.017a29.037,29.037,0,0,1,.252-8.465s-.136-.007-.363-.007c-1.166,0-4.743.181-4.818,2.393" transform="translate(-452.618 -242.338)" fill="none"/>
    </clipPath>
    <linearGradient id="linear-gradient-3" x1="-14.679" y1="7.298" x2="-14.647" y2="7.298" xlink:href="#linear-gradient"/>
    <clipPath id="clip-path-8">
      <path id="Trazado_205981" data-name="Trazado 205981" d="M471.3,233.479c-2.521.078-6.205,6.164-3.727,8.146a6.039,6.039,0,0,0,5.892.84c1.727.473,2.927.048,3.028-.871a1.07,1.07,0,0,0-.11-.577,1.722,1.722,0,0,0-1.857-.56c1.7-1.347,1.912-2.131,1.787-2.6-.1-.375-.391-.445-1.051-1.217-.716-.837-.741-1.184-1.169-1.7a4.039,4.039,0,0,0-2.74-1.458H471.3" transform="translate(-466.753 -233.478)" fill="none"/>
    </clipPath>
    <linearGradient id="linear-gradient-4" x1="-18.869" y1="13.612" x2="-18.828" y2="13.612" xlink:href="#linear-gradient"/>
    <clipPath id="clip-path-9">
      <path id="Trazado_205982" data-name="Trazado 205982" d="M354.081,206.1c-.215,1.363,1.435,5.595,2.368,6.385s2.3,4.267,2.3,4.267l3.268-1.757s-1.892-.264-1.3-3.877c.462-2.833.112-3.785-.556-3.283s-.764,2.139-.764,2.139a13.389,13.389,0,0,1-3.443-4.807c-.341-.927-.641-1.273-.9-1.273-.5,0-.826,1.306-.968,2.206" transform="translate(-354.062 -203.89)" fill="none"/>
    </clipPath>
    <linearGradient id="linear-gradient-5" x1="-18.741" y1="14.863" x2="-18.688" y2="14.863" xlink:href="#linear-gradient"/>
    <clipPath id="clip-path-10">
      <path id="Trazado_205983" data-name="Trazado 205983" d="M461.485,546.308c-.072.015-.262.057-.282.161-.053.286,1.206.855,2.275,1.107a7.5,7.5,0,0,0,2.77.1,23.639,23.639,0,0,1,4.32-.11c1.413.078,2.157.156,2.567-.481.242-.375.515-1.228-.458-3.214l-2.2-.2s-7.757,2.381-9,2.645" transform="translate(-461.201 -543.663)" fill="none"/>
    </clipPath>
    <linearGradient id="linear-gradient-6" x1="-38.445" y1="0.863" x2="-38.363" y2="0.863" gradientUnits="objectBoundingBox">
      <stop offset="0" stop-color="#444b8c"/>
      <stop offset="0.996" stop-color="#26264f"/>
      <stop offset="1" stop-color="#26264f"/>
    </linearGradient>
    <clipPath id="clip-path-11">
      <path id="Trazado_205984" data-name="Trazado 205984" d="M475.448,540.985c.5,1.636,2.408.288,2.408.288l.693-4.439-3.451-.2a23.009,23.009,0,0,0,.35,4.349" transform="translate(-475.098 -536.636)" fill="none"/>
    </clipPath>
    <linearGradient id="linear-gradient-7" x1="-83.152" y1="1.868" x2="-82.977" y2="1.868" gradientUnits="objectBoundingBox">
      <stop offset="0" stop-color="#ffc444"/>
      <stop offset="0.996" stop-color="#f36f56"/>
      <stop offset="1" stop-color="#f36f56"/>
    </linearGradient>
    <clipPath id="clip-path-12">
      <path id="Trazado_205985" data-name="Trazado 205985" d="M445.614,537.413l1.872,5.111,2.721-.434-.631-4.733Z" transform="translate(-445.614 -537.358)" fill="none"/>
    </clipPath>
    <linearGradient id="linear-gradient-8" x1="-59.264" y1="2.071" x2="-59.131" y2="2.071" xlink:href="#linear-gradient-7"/>
    <clipPath id="clip-path-13">
      <path id="Trazado_205986" data-name="Trazado 205986" d="M444.631,542.935c-2.037,1.324-1.482,3.394-3.4,4.292a5.148,5.148,0,0,0-1.644.978c-.274.257-.954.893-.795,1.332.184.507,1.4.489,2.546.472a5.022,5.022,0,0,0,2.737-.443c.921-.575.645-1.163,1.661-2.369,1.317-1.562,2.493-1.421,2.73-2.494a2.2,2.2,0,0,0-1.11-2.271,1.748,1.748,0,0,0-.8-.182,3.832,3.832,0,0,0-1.923.687" transform="translate(-438.765 -542.248)" fill="none"/>
    </clipPath>
    <linearGradient id="linear-gradient-9" x1="-26.488" y1="0.828" x2="-26.427" y2="0.828" xlink:href="#linear-gradient-6"/>
    <clipPath id="clip-path-15">
      <rect id="Rectángulo_44901" data-name="Rectángulo 44901" width="68.476" height="82.837" fill="none"/>
    </clipPath>
    <clipPath id="clip-path-16">
      <path id="Trazado_205990" data-name="Trazado 205990" d="M429.609,347.193c-2.285-4.685.785-9-2.583-14.634-4.292-7.177-12.015-4.74-14.921-10.043-4.97-9.069,14.591-21.717,10.617-36.155-1.9-6.893-8.525-11.883-14.06-13.773-12.29-4.2-20.329,6.5-31.851,3.157a19.793,19.793,0,0,1-9.036-5.844,28.815,28.815,0,0,0,9.564,11.761c11.7,8.122,25.557,3.124,29.929,11.859,1.3,2.588.7,4.117-3.939,27.751-2.343,11.93-2.505,14.913-.98,18.175,3.24,6.934,11.4,9.35,16.642,10.9a59.861,59.861,0,0,0,17.26,2.373c-3.664-1.489-5.635-3.463-6.643-5.53" transform="translate(-367.776 -269.9)" fill="none"/>
    </clipPath>
    <linearGradient id="linear-gradient-10" x1="-2.654" y1="1.917" x2="-2.646" y2="1.917" gradientUnits="objectBoundingBox">
      <stop offset="0" stop-color="#aa80f9"/>
      <stop offset="0.996" stop-color="#6165d7"/>
      <stop offset="1" stop-color="#6165d7"/>
    </linearGradient>
  </defs>
  <g id="Grupo_146520" data-name="Grupo 146520" transform="translate(-895 -619)">
    <rect id="Rectángulo_42501" data-name="Rectángulo 42501" width="190" height="402" transform="translate(1175 619)" fill="#4dd0e1"/>
    <rect id="Rectángulo_44904" data-name="Rectángulo 44904" width="459" height="384" rx="20" transform="translate(895 628)" fill="#fff"/>
    <g id="Grupo_143991" data-name="Grupo 143991" transform="translate(955 648)">
      <g id="Grupo_143990" data-name="Grupo 143990" clip-path="url(#clip-path)">
        <g id="Grupo_143962" data-name="Grupo 143962">
          <g id="Grupo_143961" data-name="Grupo 143961" clip-path="url(#clip-path)">
            <path id="Trazado_205940" data-name="Trazado 205940" d="M446.948,77.244l-8.068-1.5A58.478,58.478,0,0,0,438,59.8l7.561-2.675a4.1,4.1,0,0,0,2.45-5.182l-1.9-5.691a4,4,0,0,0-5.066-2.6L433.6,46.21a60.318,60.318,0,0,0-8.9-13.845l5.123-5.926a4.262,4.262,0,0,0-.422-5.9l-4.554-4.166a4.057,4.057,0,0,0-5.823.235L413.9,22.469a61.4,61.4,0,0,0-15.144-7.915l1.466-7.809A4.522,4.522,0,0,0,396.8,1.584L390.575.119a4.109,4.109,0,0,0-5.062,3.212l-1.482,7.895a62.132,62.132,0,0,0-17.543.687l-2.85-7.925a4.778,4.778,0,0,0-5.772-2.958L351.573,2.9a4.189,4.189,0,0,0-2.758,5.533l2.97,8.118a61.687,61.687,0,0,0-14.839,9.575l-7.018-5.917a4.86,4.86,0,0,0-6.652.269l-4.49,4.88a4.361,4.361,0,0,0,.589,6.362l7.281,6.022a59.035,59.035,0,0,0-7.547,15.733l-9.75-1.813a4.7,4.7,0,0,0-5.59,3.548l-1.222,6.51a4.616,4.616,0,0,0,3.935,5.266l10.029,1.754a58.46,58.46,0,0,0,1.86,17.022L308.6,89.113a4.4,4.4,0,0,0-2.861,5.74l2.423,6.128a4.824,4.824,0,0,0,6.119,2.572l9.9-3.5a60.589,60.589,0,0,0,10.258,13.331l-6.79,7.768a4.152,4.152,0,0,0,.568,6.133l5.2,3.941a4.824,4.824,0,0,0,6.468-.749l6.754-7.814a61.633,61.633,0,0,0,15.285,6.283l-1.836,9.78a4.042,4.042,0,0,0,3.564,4.769l6.347.8a4.6,4.6,0,0,0,5.071-3.629l1.816-9.674a62.036,62.036,0,0,0,16.091-1.847L396.226,138a4.028,4.028,0,0,0,5.356,2.252l5.769-2.3a4.3,4.3,0,0,0,2.534-5.362l-3.129-8.7a61.573,61.573,0,0,0,13-9.15l6.875,5.686a4.039,4.039,0,0,0,5.677-.658l3.841-4.656a4.069,4.069,0,0,0-.408-5.7l-6.631-5.59a59.036,59.036,0,0,0,6.933-14.183l8.3,1.451a4.049,4.049,0,0,0,4.617-3.3l1.1-5.846a3.981,3.981,0,0,0-3.114-4.7m-74.33,35.87c-24.032-3.6-40.525-25.866-36.064-49.628s27.957-38.79,51.714-33.729c22.949,4.889,37.591,26.826,33.4,49.146s-25.835,37.683-49.05,34.211" transform="translate(-114.856 0)" fill="#97a6b7"/>
            <path id="Trazado_205941" data-name="Trazado 205941" d="M399.259,2.769l-5.707-1.277L390.6,6.271Z" transform="translate(-148.32 -0.567)" fill="#97a6b7"/>
            <path id="Trazado_205942" data-name="Trazado 205942" d="M495.667,24.622l6.612,1.309-.917,4.886Z" transform="translate(-188.214 -9.35)" fill="#97a6b7"/>
            <path id="Trazado_205943" data-name="Trazado 205943" d="M529.23,70.26l6.553,1.506-2.345,3.388Z" transform="translate(-200.958 -26.679)" fill="#97a6b7"/>
            <path id="Trazado_205944" data-name="Trazado 205944" d="M536.289,124.815l6.569,1.78-2.786,2.826Z" transform="translate(-203.639 -47.395)" fill="#97a6b7"/>
            <path id="Trazado_205945" data-name="Trazado 205945" d="M504.557,193.392l6.3,2.139,1.784-5.133Z" transform="translate(-191.59 -72.298)" fill="#97a6b7"/>
            <path id="Trazado_205946" data-name="Trazado 205946" d="M457.426,224.9l5.612,2.147,1.268-4.2Z" transform="translate(-173.693 -84.617)" fill="#97a6b7"/>
            <path id="Trazado_205947" data-name="Trazado 205947" d="M404.385,229.239l-5.043-1.9,5.742-5.826Z" transform="translate(-151.637 -84.111)" fill="#97a6b7"/>
            <path id="Trazado_205948" data-name="Trazado 205948" d="M360.037,211.966l-5.839-2.395,5.754-4.8Z" transform="translate(-134.496 -77.756)" fill="#97a6b7"/>
            <path id="Trazado_205949" data-name="Trazado 205949" d="M341.512,30.615l6.3,1.388-3.377,4.151Z" transform="translate(-129.678 -11.625)" fill="#97a6b7"/>
            <path id="Trazado_205950" data-name="Trazado 205950" d="M306.133,105.182l5.649,1.949.43-4.841Z" transform="translate(-116.244 -38.841)" fill="#97a6b7"/>
            <path id="Trazado_205951" data-name="Trazado 205951" d="M315.72,165.794l5.505,1.99,1.169-3.677Z" transform="translate(-119.885 -62.314)" fill="#97a6b7"/>
            <path id="Trazado_205952" data-name="Trazado 205952" d="M456.561,79.674l-8.134-1.513a58.954,58.954,0,0,0-.888-16.078l7.624-2.7a4.136,4.136,0,0,0,2.47-5.225l-1.914-5.738a4.035,4.035,0,0,0-5.108-2.617L443.1,48.386a60.817,60.817,0,0,0-8.979-13.958l5.164-5.975a4.3,4.3,0,0,0-.425-5.943l-4.593-4.2a4.091,4.091,0,0,0-5.87.237l-5.161,5.9a61.937,61.937,0,0,0-15.27-7.979L409.443,8.6a4.559,4.559,0,0,0-3.449-5.2l-6.275-1.477a4.143,4.143,0,0,0-5.1,3.238l-1.494,7.96a62.625,62.625,0,0,0-17.689.692l-2.874-7.989a4.817,4.817,0,0,0-5.82-2.982l-6.345,1.881a4.224,4.224,0,0,0-2.78,5.578l2.995,8.184a62.189,62.189,0,0,0-14.961,9.653l-7.076-5.965a4.9,4.9,0,0,0-6.707.27l-4.527,4.921a4.4,4.4,0,0,0,.594,6.414l7.342,6.071A59.526,59.526,0,0,0,327.664,55.7l-9.83-1.828a4.735,4.735,0,0,0-5.637,3.577l-1.232,6.563a4.654,4.654,0,0,0,3.968,5.309l10.112,1.768a58.915,58.915,0,0,0,1.876,17.161l-9.853,3.381a4.435,4.435,0,0,0-2.884,5.787l2.443,6.178a4.863,4.863,0,0,0,6.169,2.593l9.987-3.531a61.117,61.117,0,0,0,10.343,13.44l-6.845,7.832a4.186,4.186,0,0,0,.572,6.183l5.246,3.972a4.864,4.864,0,0,0,6.522-.756l6.81-7.878a62.165,62.165,0,0,0,15.412,6.335l-1.851,9.859a4.075,4.075,0,0,0,3.593,4.808l6.4.809a4.639,4.639,0,0,0,5.113-3.658l1.831-9.753A62.591,62.591,0,0,0,402.151,132l3.269,8.933a4.061,4.061,0,0,0,5.4,2.27l5.817-2.322a4.332,4.332,0,0,0,2.556-5.405l-3.155-8.771a62.042,62.042,0,0,0,13.11-9.225l6.932,5.733a4.072,4.072,0,0,0,5.723-.663l3.872-4.694a4.1,4.1,0,0,0-.411-5.744l-6.686-5.636a59.5,59.5,0,0,0,6.99-14.3l8.371,1.464a4.082,4.082,0,0,0,4.655-3.33l1.107-5.895a4.013,4.013,0,0,0-3.14-4.737m-74.945,36.161c-24.231-3.625-40.862-26.078-36.365-50.034s28.188-39.105,52.141-34c23.139,4.929,37.9,27.045,33.679,49.547s-26.049,37.99-49.456,34.489" transform="translate(-118.051 -0.683)" fill="#12263f"/>
            <path id="Trazado_205953" data-name="Trazado 205953" d="M222.995,89.194l-5.653-1.051a40.973,40.973,0,0,0-.617-11.174l5.3-1.874a2.875,2.875,0,0,0,1.716-3.631l-1.33-3.987a2.8,2.8,0,0,0-3.549-1.819l-5.222,1.792a42.249,42.249,0,0,0-6.239-9.7L210.99,53.6a2.986,2.986,0,0,0-.3-4.13L207.5,46.547a2.843,2.843,0,0,0-4.08.164l-3.586,4.1a42.994,42.994,0,0,0-10.611-5.545l1.027-5.472a3.169,3.169,0,0,0-2.4-3.616l-4.36-1.026a2.879,2.879,0,0,0-3.547,2.25l-1.038,5.532a43.518,43.518,0,0,0-12.292.481l-2-5.552a3.347,3.347,0,0,0-4.044-2.072L156.171,37.1a2.935,2.935,0,0,0-1.932,3.877l2.081,5.687a43.214,43.214,0,0,0-10.4,6.709l-4.918-4.145a3.405,3.405,0,0,0-4.661.188l-3.145,3.42a3.056,3.056,0,0,0,.412,4.458l5.1,4.219a41.366,41.366,0,0,0-5.287,11.023l-6.831-1.27a3.29,3.29,0,0,0-3.916,2.486l-.857,4.561A3.235,3.235,0,0,0,124.58,82l7.026,1.229a40.953,40.953,0,0,0,1.3,11.926l-6.847,2.35a3.082,3.082,0,0,0-2,4.022l1.7,4.294a3.38,3.38,0,0,0,4.287,1.8l6.939-2.454a42.466,42.466,0,0,0,7.187,9.34l-4.757,5.443a2.91,2.91,0,0,0,.4,4.3l3.645,2.76a3.38,3.38,0,0,0,4.532-.525l4.732-5.475a43.211,43.211,0,0,0,10.71,4.4l-1.286,6.852a2.831,2.831,0,0,0,2.5,3.341l4.447.563a3.225,3.225,0,0,0,3.554-2.543l1.272-6.778a43.472,43.472,0,0,0,11.274-1.295l2.271,6.208a2.822,2.822,0,0,0,3.753,1.578l4.042-1.614a3.012,3.012,0,0,0,1.776-3.757l-2.192-6.1a43.123,43.123,0,0,0,9.11-6.411l4.817,3.984a2.829,2.829,0,0,0,3.977-.461l2.691-3.262a2.85,2.85,0,0,0-.285-3.992l-4.646-3.916a41.346,41.346,0,0,0,4.857-9.938l5.817,1.017a2.837,2.837,0,0,0,3.235-2.315l.769-4.1a2.788,2.788,0,0,0-2.182-3.292m-52.079,25.132c-16.838-2.519-28.394-18.123-25.268-34.772s19.588-27.178,36.233-23.631a29.808,29.808,0,0,1,23.4,34.433c-2.936,15.639-18.1,26.4-34.367,23.97" transform="translate(-46.239 -13.318)" fill="#97a6b7"/>
            <path id="Trazado_205954" data-name="Trazado 205954" d="M189.582,37.013l-4-.894-2.065,3.348Z" transform="translate(-69.685 -13.715)" fill="#97a6b7"/>
            <path id="Trazado_205955" data-name="Trazado 205955" d="M257.129,52.324l4.632.917-.643,3.423Z" transform="translate(-97.637 -19.868)" fill="#97a6b7"/>
            <path id="Trazado_205956" data-name="Trazado 205956" d="M280.645,84.3l4.591,1.055-1.643,2.374Z" transform="translate(-106.566 -32.01)" fill="#97a6b7"/>
            <path id="Trazado_205957" data-name="Trazado 205957" d="M285.591,122.524l4.6,1.247-1.953,1.98Z" transform="translate(-108.444 -46.524)" fill="#97a6b7"/>
            <path id="Trazado_205958" data-name="Trazado 205958" d="M263.358,170.572l4.412,1.5,1.25-3.6Z" transform="translate(-100.002 -63.973)" fill="#97a6b7"/>
            <path id="Trazado_205959" data-name="Trazado 205959" d="M230.336,192.647l3.932,1.5.888-2.946Z" transform="translate(-87.463 -72.604)" fill="#97a6b7"/>
            <path id="Trazado_205960" data-name="Trazado 205960" d="M193.173,195.688l-3.533-1.334,4.023-4.082Z" transform="translate(-72.01 -72.25)" fill="#97a6b7"/>
            <path id="Trazado_205961" data-name="Trazado 205961" d="M162.1,183.586l-4.091-1.678,4.031-3.362Z" transform="translate(-59.999 -67.797)" fill="#97a6b7"/>
            <path id="Trazado_205962" data-name="Trazado 205962" d="M149.122,56.522l4.415.973L151.171,60.4Z" transform="translate(-56.624 -21.463)" fill="#97a6b7"/>
            <path id="Trazado_205963" data-name="Trazado 205963" d="M124.334,108.768l3.958,1.366.3-3.392Z" transform="translate(-47.212 -40.532)" fill="#97a6b7"/>
            <path id="Trazado_205964" data-name="Trazado 205964" d="M131.051,151.235l3.857,1.394.819-2.576Z" transform="translate(-49.762 -56.978)" fill="#97a6b7"/>
            <path id="Trazado_205965" data-name="Trazado 205965" d="M229.731,90.9l-5.7-1.06a41.292,41.292,0,0,0-.622-11.266l5.342-1.889a2.9,2.9,0,0,0,1.731-3.661L229.141,69a2.827,2.827,0,0,0-3.579-1.834L220.3,68.974a42.621,42.621,0,0,0-6.291-9.779l3.619-4.186a3.01,3.01,0,0,0-.3-4.164L214.11,47.9a2.866,2.866,0,0,0-4.113.166L206.381,52.2a43.4,43.4,0,0,0-10.7-5.591l1.036-5.516a3.2,3.2,0,0,0-2.417-3.646l-4.4-1.035a2.9,2.9,0,0,0-3.576,2.269l-1.047,5.577a43.885,43.885,0,0,0-12.393.484l-2.013-5.6A3.375,3.375,0,0,0,166.8,37.06l-4.446,1.318a2.958,2.958,0,0,0-1.948,3.908l2.1,5.734a43.594,43.594,0,0,0-10.483,6.764L147.062,50.6a3.434,3.434,0,0,0-4.7.189l-3.172,3.448a3.081,3.081,0,0,0,.416,4.495l5.144,4.253A41.712,41.712,0,0,0,139.419,74.1l-6.887-1.281a3.317,3.317,0,0,0-3.949,2.506l-.863,4.6a3.261,3.261,0,0,0,2.78,3.72l7.085,1.239A41.3,41.3,0,0,0,138.9,96.908L132,99.277a3.107,3.107,0,0,0-2.021,4.055l1.712,4.328a3.407,3.407,0,0,0,4.322,1.817l7-2.474a42.8,42.8,0,0,0,7.246,9.416l-4.8,5.488a2.934,2.934,0,0,0,.4,4.332l3.676,2.783a3.408,3.408,0,0,0,4.569-.529l4.771-5.519a43.566,43.566,0,0,0,10.8,4.438l-1.3,6.908a2.854,2.854,0,0,0,2.518,3.368l4.484.568a3.251,3.251,0,0,0,3.583-2.563l1.283-6.833a43.855,43.855,0,0,0,11.367-1.305l2.291,6.259a2.845,2.845,0,0,0,3.784,1.59l4.075-1.627a3.035,3.035,0,0,0,1.791-3.787l-2.21-6.146a43.494,43.494,0,0,0,9.186-6.463l4.856,4.016a2.854,2.854,0,0,0,4.011-.465l2.713-3.289a2.873,2.873,0,0,0-.288-4.024l-4.684-3.949a41.682,41.682,0,0,0,4.9-10.018l5.865,1.025a2.86,2.86,0,0,0,3.261-2.333l.775-4.129a2.812,2.812,0,0,0-2.2-3.319m-52.51,25.335c-16.977-2.539-28.63-18.271-25.479-35.056s19.75-27.4,36.533-23.823c16.212,3.454,26.557,18.949,23.6,34.715s-18.251,26.618-34.651,24.164" transform="translate(-48.478 -13.796)" fill="#12263f"/>
            <path id="Trazado_205966" data-name="Trazado 205966" d="M100.306,361.656c7.765-.054,20.839-.145,32.824-8.6,21.79-15.378,25.838-48.43,20.7-71.746-4.413-20.027-18.708-36.43-47.3-69.236C79.61,181.174,69,175.391,69.987,161.7c1.4-19.521,24.381-27.519,22.6-50.539-.213-2.762-.946-12.25-7.776-17.767-11.694-9.446-33.05-.63-44.161,7.252-10.718,7.6-24.478,23.258-22.549,39.793,1.4,11.98,9.844,14.244,8.714,24.545-1.136,10.364-10.03,11.2-18.519,26.288C4.909,197.3-1.9,209.4.5,222.263c3.1,16.637,18.788,19.493,17.986,32.322-.579,9.269-8.958,10.808-11.782,20.9-3.719,13.287,6.272,26.808,14.737,37.949,9.967,13.119,36.857,48.513,78.864,48.221" transform="translate(0 -33.909)" fill="#d2e1f1"/>
            <g id="Grupo_143960" data-name="Grupo 143960" transform="translate(9.02 61.061)" opacity="0.16" style="mix-blend-mode: screen;isolation: isolate">
              <g id="Grupo_143959" data-name="Grupo 143959">
                <g id="Grupo_143958" data-name="Grupo 143958" clip-path="url(#clip-path-3)">
                  <path id="Trazado_205967" data-name="Trazado 205967" d="M83.567,100.961c5.527,7.353-22.529,22.734-26.341,53.981-4.1,33.621,22.363,65.1,34.594,79.649,20.868,24.822,33.152,25.069,44,48.863,4.3,9.418,13.243,29.037,4.811,49.389-.783,1.891-9.833,22.841-29.847,27.569-22.7,5.362-42.252-14.224-59.1-31.1-10.179-10.2-30.512-30.569-24.282-43.534,3.809-7.925,16.667-11.259,26.041-10.358C66.828,276.7,74.941,286.79,76.778,285c1.655-1.615-3.335-11.351-11.7-20.1-16.722-17.5-29.832-13.169-41.58-28.2-1.424-1.822-12.5-16.42-7.814-31.57C18.39,196.387,26.4,187.238,34,187.78c8.6.613,12.954,13.357,15.358,12.261,2.3-1.048-.288-13.336-4.62-25.108-6.364-17.3-11.19-19.064-12.36-29.071-1.784-15.269,7.535-27.533,8.9-29.277,12.79-16.34,37.56-21.911,42.285-15.624" transform="translate(-14.541 -98.441)" fill="#fff"/>
                </g>
              </g>
            </g>
            <path id="Trazado_205968" data-name="Trazado 205968" d="M319.116,155.337l-71.872-20.848a14.27,14.27,0,0,1-9.941-17.762L258.868,49.77c2.272-7.455,6.622-9.77,15.659-9.784h18.326l54.808,19.4a14.166,14.166,0,0,1,9.385,17.4L350.728,155.9c-2.184,7.371-24.148,1.6-31.611-.566" transform="translate(-89.879 -15.183)" fill="#ba7422"/>
            <path id="Trazado_205969" data-name="Trazado 205969" d="M350.872,159.132,279,138.284a14.27,14.27,0,0,1-9.94-17.762L290.624,49.77a14.149,14.149,0,0,1,18-9.078l70.79,22.485a14.166,14.166,0,0,1,9.385,17.4l-20.48,69.115a14.079,14.079,0,0,1-17.449,9.438" transform="translate(-101.937 -15.183)" fill="#feca2e"/>
            <path id="Trazado_205970" data-name="Trazado 205970" d="M339.679,119.86l-9.464,5.584-6.57,19.2L307.167,139l24.91-72.783,16.48,5.64L337.572,103.95l8.893-7.288,22.56-17.8L389.4,85.837l-34.117,24.286,9.207,48.5-19.531-6.685Z" transform="translate(-116.637 -25.144)" fill="#fff"/>
            <path id="Trazado_205971" data-name="Trazado 205971" d="M121.771,384.916v67.717c0,7.384,3.6,14.489,8.089,15.887l23.492,7.306,21.042,6.545c5.251,1.633,9.57-3.626,9.57-11.769V395.92c0-8.144,83.887-16.027,78.637-16.84l-104.548-6.342-28.192.06c-4.494-.7-8.089,4.734-8.089,12.118" transform="translate(-46.239 -141.535)" fill="#12263f"/>
            <path id="Trazado_205972" data-name="Trazado 205972" d="M283.332,381.2l-42.616,1.09-33.294.852c-8.459.216-15.344,6.995-15.344,15.139v74.682c0,8.144,6.884,14.387,15.344,13.947l34.911-1.816,41-2.133a15.439,15.439,0,0,0,14.643-15.111V395.176A14.052,14.052,0,0,0,283.332,381.2" transform="translate(-72.936 -144.747)" fill="#0f2771"/>
            <path id="Trazado_205973" data-name="Trazado 205973" d="M280.9,478.231l-17.865,1.006V401.715H280.9Z" transform="translate(-99.881 -152.539)" fill="#fff"/>
            <path id="Trazado_205974" data-name="Trazado 205974" d="M129.7,312.74l44.889,7.007c5.147.8,9.379-5.058,9.379-13.1v-75.9c0-8.046,79.188-14.5,74.041-14.492l-54.426-1.458L129.7,216.252c-4.4.006-7.924,5.926-7.924,13.221v68.821c0,7.3,3.523,13.759,7.924,14.446" transform="translate(-46.239 -81.561)" fill="#8da4b6"/>
            <path id="Trazado_205975" data-name="Trazado 205975" d="M283.628,318.862l-76.515,1.957c-8.289.212-15.036-6.084-15.036-14.064V231.479c0-7.98,6.746-14.443,15.036-14.435l76.515.066a14.212,14.212,0,0,1,14.346,14.072v73.253a14.644,14.644,0,0,1-14.346,14.427" transform="translate(-72.936 -82.416)" fill="#bddcf6"/>
            <path id="Trazado_205976" data-name="Trazado 205976" d="M254.023,291.367v26.094l-18.541.3v-77.2h30.613a35.079,35.079,0,0,1,15.421,3.23,24.1,24.1,0,0,1,10.33,9.165,25.2,25.2,0,0,1,3.649,13.475q0,11.154-7.9,17.9-7.922,6.768-21.813,6.918Zm0-14.315,12.072-.091q5.336-.041,8.128-2.744t2.789-7.59a12.337,12.337,0,0,0-2.868-8.559,10.115,10.115,0,0,0-7.84-3.238l-12.282.037Z" transform="translate(-89.417 -91.342)" fill="#fff"/>
          </g>
        </g>
        <g id="Grupo_143964" data-name="Grupo 143964" transform="translate(264.922 118.292)">
          <g id="Grupo_143963" data-name="Grupo 143963" clip-path="url(#clip-path-4)">
            <rect id="Rectángulo_44890" data-name="Rectángulo 44890" width="10.479" height="13.395" transform="translate(-5.876 3.135) rotate(-29.814)" fill="url(#linear-gradient)"/>
          </g>
        </g>
        <g id="Grupo_143966" data-name="Grupo 143966">
          <g id="Grupo_143965" data-name="Grupo 143965" clip-path="url(#clip-path)">
            <path id="Trazado_205978" data-name="Trazado 205978" d="M429.711,203.337s-3.042,22.651,20.825,38.622l-25.4,6.058s-8.129-15.2-2.244-40.377Z" transform="translate(-159.769 -77.211)" fill="#51b3c4"/>
          </g>
        </g>
        <g id="Grupo_143968" data-name="Grupo 143968" transform="translate(291.667 137.175)">
          <g id="Grupo_143967" data-name="Grupo 143967" clip-path="url(#clip-path-6)">
            <rect id="Rectángulo_44892" data-name="Rectángulo 44892" width="14.527" height="17.583" transform="translate(-1.048 0.015) rotate(-1.685)" fill="url(#linear-gradient-2)"/>
          </g>
        </g>
        <g id="Grupo_143970" data-name="Grupo 143970" transform="translate(280.751 150.318)">
          <g id="Grupo_143969" data-name="Grupo 143969" clip-path="url(#clip-path-7)">
            <rect id="Rectángulo_44893" data-name="Rectángulo 44893" width="19.325" height="27.137" transform="matrix(0.027, -1, 1, 0.027, -1.233, 18.607)" fill="url(#linear-gradient-3)"/>
          </g>
        </g>
        <g id="Grupo_143972" data-name="Grupo 143972" transform="translate(289.518 144.822)">
          <g id="Grupo_143971" data-name="Grupo 143971" clip-path="url(#clip-path-8)">
            <rect id="Rectángulo_44894" data-name="Rectángulo 44894" width="15.157" height="14.806" transform="matrix(0.852, -0.523, 0.523, 0.852, -6.275, 2.833)" fill="url(#linear-gradient-4)"/>
          </g>
        </g>
        <g id="Grupo_143974" data-name="Grupo 143974" transform="translate(219.618 126.469)">
          <g id="Grupo_143973" data-name="Grupo 143973" clip-path="url(#clip-path-9)">
            <rect id="Rectángulo_44895" data-name="Rectángulo 44895" width="11.615" height="14.704" transform="translate(-3.862 1.148) rotate(-17.387)" fill="url(#linear-gradient-5)"/>
          </g>
        </g>
        <g id="Grupo_143976" data-name="Grupo 143976" transform="translate(286.075 337.224)">
          <g id="Grupo_143975" data-name="Grupo 143975" clip-path="url(#clip-path-10)">
            <rect id="Rectángulo_44896" data-name="Rectángulo 44896" width="7.505" height="13.177" transform="translate(-1.171 3.884) rotate(-73.919)" fill="url(#linear-gradient-6)"/>
          </g>
        </g>
        <g id="Grupo_143978" data-name="Grupo 143978" transform="translate(294.694 332.865)">
          <g id="Grupo_143977" data-name="Grupo 143977" clip-path="url(#clip-path-11)">
            <rect id="Rectángulo_44897" data-name="Rectángulo 44897" width="3.543" height="6.033" transform="translate(-0.092 0.001) rotate(-0.791)" fill="url(#linear-gradient-7)"/>
          </g>
        </g>
        <g id="Grupo_143980" data-name="Grupo 143980" transform="translate(276.406 333.313)">
          <g id="Grupo_143979" data-name="Grupo 143979" clip-path="url(#clip-path-12)">
            <rect id="Rectángulo_44898" data-name="Rectángulo 44898" width="4.663" height="5.229" transform="translate(-0.071 0.001) rotate(-0.791)" fill="url(#linear-gradient-8)"/>
          </g>
        </g>
        <g id="Grupo_143982" data-name="Grupo 143982" transform="translate(272.158 336.346)">
          <g id="Grupo_143981" data-name="Grupo 143981" clip-path="url(#clip-path-13)">
            <rect id="Rectángulo_44899" data-name="Rectángulo 44899" width="10.265" height="11.786" transform="translate(-2.21 7.197) rotate(-73.919)" fill="url(#linear-gradient-9)"/>
          </g>
        </g>
        <g id="Grupo_143989" data-name="Grupo 143989">
          <g id="Grupo_143988" data-name="Grupo 143988" clip-path="url(#clip-path)">
            <path id="Trazado_205987" data-name="Trazado 205987" d="M487.435,365.772a146.467,146.467,0,0,1-3.663,26.325c-1.809,7.729-2.794,9.051-3.422,14.409-1.365,11.66,2.365,13.414,2.773,26.635a80.478,80.478,0,0,1-5.295,30.494,83.423,83.423,0,0,1-3.974,9.073c-1.362,1.137-3.4.646-5.542.161-.51-13.244-1.233-25.713-1.744-38.957l-6.4-59.858,27.269-8.283" transform="translate(-174.733 -138.89)" fill="#636363"/>
            <path id="Trazado_205988" data-name="Trazado 205988" d="M454.339,369.827A102.362,102.362,0,0,0,438.8,395.769c-3.239,7.893-5.588,13.809-4.851,21.47.81,8.432,4.634,11.462,7.174,18.651,2.463,6.971,3.663,17.7-2.763,33.663l-4.851,1.679c-1.074-4.313-2.812-10.766-5.411-18.451a250.806,250.806,0,0,0-11.67-28.362c-4.888-10.962-5.382-30.531,14.964-68.289l22.945,13.7" transform="translate(-157.057 -135.23)" fill="#636363"/>
            <path id="Trazado_205989" data-name="Trazado 205989" d="M358.75,220.578l6.457-4.522c2.619,16.1,8.572,22.418,13.629,25.182,12.2,6.667,23.085-5.214,46.434-.365,6.434,1.336,17.649,3.825,23.867,12.991,1.634,2.409,2.216,4.233,4.931,21.517,3.47,22.094,3.593,25.949,3.1,30.706-.9,8.706-1.438,13.982-5.452,18.651-10.659,12.4-33.314,6.006-36.154,5.165-5.248-1.554-13.4-3.97-16.643-10.9-1.525-3.262-1.363-6.245.981-18.176,4.642-23.633,5.235-25.163,3.939-27.751-4.372-8.734-18.226-3.736-29.929-11.858-6.843-4.748-14.556-15.1-15.163-40.636" transform="translate(-136.224 -82.04)" fill="#4dd0e1"/>
            <g id="Grupo_143987" data-name="Grupo 143987" transform="translate(228.125 167.414)" opacity="0.3" style="mix-blend-mode: multiply;isolation: isolate">
              <g id="Grupo_143986" data-name="Grupo 143986">
                <g id="Grupo_143985" data-name="Grupo 143985" clip-path="url(#clip-path-15)">
                  <g id="Grupo_143984" data-name="Grupo 143984">
                    <g id="Grupo_143983" data-name="Grupo 143983" clip-path="url(#clip-path-16)">
                      <rect id="Rectángulo_44900" data-name="Rectángulo 44900" width="83.188" height="95.932" transform="translate(-15.654 1.496) rotate(-10.868)" fill="url(#linear-gradient-10)"/>
                    </g>
                  </g>
                </g>
              </g>
            </g>
          </g>
        </g>
      </g>
    </g>
  </g>
</svg>
