<svg xmlns="http://www.w3.org/2000/svg" xmlns:xlink="http://www.w3.org/1999/xlink" width="148" height="148" viewBox="0 0 148 148">
  <defs>
    <clipPath id="clip-path">
      <rect id="Rectángulo_45130" data-name="Rectángulo 45130" width="119.859" height="119.74" fill="none"/>
    </clipPath>
    <clipPath id="clip-path-2">
      <path id="Trazado_206508" data-name="Trazado 206508" d="M51.215.5C25.608,3.847,13.009,24.72,10.624,28.481-2.416,49.04-5.033,80.186,11.777,99.955c11.112,13.067,26.48,16.188,34.431,17.8,5.384,1.094,30.718,5.572,52.129-9.791a42.916,42.916,0,0,0,6.563-5.526C123.365,83,125.319,36.526,97.859,13.52,86.923,4.358,72.506,0,59.016,0a60.279,60.279,0,0,0-7.8.5" transform="translate(0 0)" fill="none"/>
    </clipPath>
    <linearGradient id="linear-gradient" x1="0.164" y1="0.827" x2="0.165" y2="0.827" gradientUnits="objectBoundingBox">
      <stop offset="0" stop-color="#dae3fe"/>
      <stop offset="1" stop-color="#e9effd"/>
    </linearGradient>
    <clipPath id="clip-path-4">
      <path id="Trazado_206510" data-name="Trazado 206510" d="M54.014,123.526A39.209,39.209,0,1,0,93.223,84.317a39.209,39.209,0,0,0-39.209,39.209" transform="translate(-54.014 -84.317)" fill="none"/>
    </clipPath>
    <linearGradient id="linear-gradient-2" x1="0.03" y1="1.057" x2="0.032" y2="1.057" gradientUnits="objectBoundingBox">
      <stop offset="0" stop-color="#4f52ff"/>
      <stop offset="1" stop-color="#4042e2"/>
    </linearGradient>
    <clipPath id="clip-path-6">
      <path id="Trazado_206512" data-name="Trazado 206512" d="M120.626,174.833a23.9,23.9,0,1,0,23.9-23.9,23.9,23.9,0,0,0-23.9,23.9" transform="translate(-120.626 -150.929)" fill="none"/>
    </clipPath>
    <linearGradient id="linear-gradient-3" x1="-0.271" y1="1.413" x2="-0.268" y2="1.413" xlink:href="#linear-gradient-2"/>
    <clipPath id="clip-path-8">
      <rect id="Rectángulo_45069" data-name="Rectángulo 45069" width="52.237" height="1.379" transform="translate(0 36.937) rotate(-45)" fill="none"/>
    </clipPath>
    <linearGradient id="linear-gradient-4" x1="-0.988" y1="2.15" x2="-0.984" y2="2.15" gradientUnits="objectBoundingBox">
      <stop offset="0" stop-color="#09005d"/>
      <stop offset="1" stop-color="#1a0f91"/>
    </linearGradient>
    <clipPath id="clip-path-9">
      <path id="Trazado_206516" data-name="Trazado 206516" d="M231.611,214.951l-7.692,9.785a.389.389,0,0,0,.546.546l9.785-7.692c.506-.507-1.606-2.716-2.427-2.716a.286.286,0,0,0-.211.077" transform="translate(-223.831 -214.874)" fill="none"/>
    </clipPath>
    <linearGradient id="linear-gradient-5" x1="-3.191" y1="4.741" x2="-3.176" y2="4.741" xlink:href="#linear-gradient-4"/>
    <clipPath id="clip-path-11">
      <rect id="Rectángulo_45071" data-name="Rectángulo 45071" width="24.321" height="13.518" fill="none"/>
    </clipPath>
    <clipPath id="clip-path-12">
      <rect id="Rectángulo_45072" data-name="Rectángulo 45072" width="25.24" height="14.165" fill="none"/>
    </clipPath>
    <clipPath id="clip-path-13">
      <rect id="Rectángulo_45073" data-name="Rectángulo 45073" width="16.172" height="5.221" fill="none"/>
    </clipPath>
    <clipPath id="clip-path-14">
      <rect id="Rectángulo_45074" data-name="Rectángulo 45074" width="11.687" height="9.438" fill="none"/>
    </clipPath>
    <clipPath id="clip-path-15">
      <path id="Trazado_206534" data-name="Trazado 206534" d="M65.352,506.877a.906.906,0,0,0,.857.989c1.75.09,5.493.267,6.837.22a.3.3,0,0,0,.263-.4.659.659,0,0,0-.334-.359l-6.158-2.9-1.09-.187s-.247,1.326-.375,2.639" transform="translate(-65.347 -504.238)" fill="none"/>
    </clipPath>
    <linearGradient id="linear-gradient-6" x1="-1.772" y1="0.726" x2="-1.744" y2="0.726" xlink:href="#linear-gradient-4"/>
    <clipPath id="clip-path-16">
      <path id="Trazado_206535" data-name="Trazado 206535" d="M66.193,500.062l.173,1.59a1.971,1.971,0,0,0,1.824-.046l-.432-1.774Z" transform="translate(-66.193 -499.832)" fill="none"/>
    </clipPath>
    <linearGradient id="linear-gradient-7" x1="-6.385" y1="2.337" x2="-6.288" y2="2.337" gradientUnits="objectBoundingBox">
      <stop offset="0" stop-color="#febbba"/>
      <stop offset="1" stop-color="#ff928e"/>
    </linearGradient>
    <clipPath id="clip-path-17">
      <path id="Trazado_206536" data-name="Trazado 206536" d="M46.725,377.662s-.329-10.9,0,.384a104.293,104.293,0,0,0,3.76,22.807.532.532,0,0,0,.524.387,5.368,5.368,0,0,0,1.769-.342.308.308,0,0,0,.185-.357c-2.081-9.111-1.532-29.391-1.447-29.8l-4.466-.043Z" transform="translate(-46.578 -370.693)" fill="none"/>
    </clipPath>
    <linearGradient id="linear-gradient-8" x1="0.062" y1="1.317" x2="0.069" y2="1.317" xlink:href="#linear-gradient-4"/>
    <clipPath id="clip-path-18">
      <path id="Trazado_206537" data-name="Trazado 206537" d="M32.662,509.4a.552.552,0,0,0,.48.666c.578.062,1.467.144,2.179.146h0a.551.551,0,0,0,.55-.609,4.648,4.648,0,0,0-1.06-2.559l-1.392-.089a9.548,9.548,0,0,0-.758,2.445" transform="translate(-32.65 -506.958)" fill="none"/>
    </clipPath>
    <linearGradient id="linear-gradient-9" x1="-1.461" y1="0.85" x2="-1.411" y2="0.85" xlink:href="#linear-gradient-4"/>
    <clipPath id="clip-path-19">
      <path id="Trazado_206538" data-name="Trazado 206538" d="M34.662,497.789l.417,2.406a1.554,1.554,0,0,0,1.3.1l-.185-2.586Z" transform="translate(-34.662 -497.71)" fill="none"/>
    </clipPath>
    <linearGradient id="linear-gradient-10" x1="-2.618" y1="2.779" x2="-2.537" y2="2.779" xlink:href="#linear-gradient-7"/>
    <clipPath id="clip-path-20">
      <path id="Trazado_206539" data-name="Trazado 206539" d="M28.061,369.752c-1.875,10.685.132,26.454.831,29.543a.48.48,0,0,0,.385.369,3.226,3.226,0,0,0,1.388-.042.442.442,0,0,0,.321-.4c.121-2.491.092-17.791,1.8-23.821a1.374,1.374,0,0,1,.537-.753l3.229-2.249.281-3.683Z" transform="translate(-27.282 -368.713)" fill="none"/>
    </clipPath>
    <linearGradient id="linear-gradient-11" x1="0.164" y1="1.217" x2="0.171" y2="1.217" xlink:href="#linear-gradient-4"/>
    <clipPath id="clip-path-22">
      <path id="Trazado_206541" data-name="Trazado 206541" d="M113.479,250.317c-.814,3.3-4.94,5.935-9.165,7.2a11.4,11.4,0,0,0,2.207,4.732c7.029-3.864,8.137-11.593,8.137-11.593a1.019,1.019,0,0,0-.812-.411,1,1,0,0,0-.367.067" transform="translate(-104.314 -250.25)" fill="none"/>
    </clipPath>
    <linearGradient id="linear-gradient-12" x1="-1.908" y1="5.878" x2="-1.889" y2="5.878" xlink:href="#linear-gradient-7"/>
    <clipPath id="clip-path-23">
      <path id="Trazado_206542" data-name="Trazado 206542" d="M144.348,231.415a6.7,6.7,0,0,0,0,2.076c.366.713,1,.455.948.281a1.41,1.41,0,0,0,1.065-.615c.234-.326.482-.742.664-1.063a1.426,1.426,0,0,0,.153-1.049,4.934,4.934,0,0,0-.584-1.181l1.029-1.052a.5.5,0,0,0-.056-.695,27.169,27.169,0,0,0-3.215,3.3" transform="translate(-144.254 -228.117)" fill="none"/>
    </clipPath>
    <linearGradient id="linear-gradient-13" x1="-4.418" y1="11.319" x2="-4.386" y2="11.319" xlink:href="#linear-gradient-7"/>
    <clipPath id="clip-path-24">
      <path id="Trazado_206543" data-name="Trazado 206543" d="M147.38,239.475l-.3.781.819.926a10.688,10.688,0,0,1,.5-1.887c.21-.334.1-.5-.087-.6Z" transform="translate(-147.081 -238.697)" fill="none"/>
    </clipPath>
    <linearGradient id="linear-gradient-14" x1="-11.344" y1="24.509" x2="-11.265" y2="24.509" xlink:href="#linear-gradient-7"/>
    <clipPath id="clip-path-26">
      <path id="Trazado_206545" data-name="Trazado 206545" d="M6.7,328.161c3.236,6.057,12.255-.216,12.255-.216l-.724-1.381s-5.6,3.1-7.458.389a2.113,2.113,0,0,1-.372-1.646,11.746,11.746,0,0,0-4.3-1.2,5.9,5.9,0,0,0,.6,4.052" transform="translate(-5.972 -324.109)" fill="none"/>
    </clipPath>
    <linearGradient id="linear-gradient-15" x1="-0.262" y1="3.542" x2="-0.239" y2="3.542" xlink:href="#linear-gradient-7"/>
    <clipPath id="clip-path-27">
      <path id="Trazado_206546" data-name="Trazado 206546" d="M49.848,271.325a.176.176,0,0,0,.078.213,3.975,3.975,0,0,0,4.125-.238.828.828,0,0,0,.388-.589l.588-4.227-3.442-.033Z" transform="translate(-49.838 -266.451)" fill="none"/>
    </clipPath>
    <linearGradient id="linear-gradient-16" x1="-1.298" y1="7.973" x2="-1.269" y2="7.973" xlink:href="#linear-gradient-7"/>
    <clipPath id="clip-path-28">
      <path id="Trazado_206547" data-name="Trazado 206547" d="M54.729,248.152,56.1,251.94c2,1.166,4.3,1.289,4.55-.12s-1.572-4.922-1.572-4.922Z" transform="translate(-54.729 -246.897)" fill="none"/>
    </clipPath>
    <linearGradient id="linear-gradient-17" x1="-1.313" y1="7.473" x2="-1.287" y2="7.473" xlink:href="#linear-gradient-7"/>
    <clipPath id="clip-path-29">
      <path id="Trazado_206548" data-name="Trazado 206548" d="M49.254,236.56a.144.144,0,0,1-.228,0,1.485,1.485,0,0,0-1.8-.605,1.362,1.362,0,0,0-.945,1.308.143.143,0,0,1-.171.145,1.661,1.661,0,0,0-1.948.886,1.336,1.336,0,0,0,.08,1.6.144.144,0,0,1-.064.238.864.864,0,0,0-.619.98c.042.914,1.064.843,1.355.8a.145.145,0,0,1,.128.047,4.911,4.911,0,0,0,2.573,1.614.145.145,0,0,0,.154-.191l-.512-1.535a.145.145,0,0,1,.08-.179l.262-.113a.144.144,0,0,0,.065-.21,3.75,3.75,0,0,1-.506-1.1s-.332-.217.854-.489,2.955-.695,3.335-1.7c.271-.716-.151-2.234-1-2.234-.311,0-.679.2-1.092.73" transform="translate(-43.553 -235.83)" fill="none"/>
    </clipPath>
    <linearGradient id="linear-gradient-18" x1="-0.737" y1="5.948" x2="-0.717" y2="5.948" xlink:href="#linear-gradient-4"/>
    <clipPath id="clip-path-30">
      <path id="Trazado_206549" data-name="Trazado 206549" d="M55.871,260.038c-.1.763,1.18,1.118,1.82.839l-.4-.682a2.636,2.636,0,0,0-1.078-.46.311.311,0,0,0-.34.3" transform="translate(-55.865 -259.735)" fill="none"/>
    </clipPath>
    <linearGradient id="linear-gradient-19" x1="-5.662" y1="25.392" x2="-5.559" y2="25.392" xlink:href="#linear-gradient-7"/>
    <clipPath id="clip-path-31">
      <path id="Trazado_206550" data-name="Trazado 206550" d="M61.619,306.1c-1.85.157-3.453.338-4.006.4a.311.311,0,0,0-.263.224L54.3,317.389a.312.312,0,0,0,.3.4l7.081.066a.313.313,0,0,0,.252-.123c1.811-2.371,5.429-9.608,6.308-11.388a.312.312,0,0,0-.255-.449c-.4-.034-.872-.048-1.388-.048-1.476,0-3.324.12-4.975.26" transform="translate(-54.286 -305.845)" fill="none"/>
    </clipPath>
    <linearGradient id="linear-gradient-20" x1="-0.68" y1="3.404" x2="-0.666" y2="3.404" xlink:href="#linear-gradient-4"/>
    <clipPath id="clip-path-32">
      <path id="Trazado_206551" data-name="Trazado 206551" d="M56.308,330.33a7.759,7.759,0,0,0,.254,2.368,1.607,1.607,0,0,0,1.454-.508c.334-.327.532-.655.8-.478a.566.566,0,0,0,.829-.191l-.486-.536c.711.346.786-.3.786-.3l-.522-.4a.634.634,0,0,0,.908-.547,16.187,16.187,0,0,0-2.414-.644,1.882,1.882,0,0,0-.3-.025c-.871,0-1.157.705-1.312,1.266" transform="translate(-56.267 -329.064)" fill="none"/>
    </clipPath>
    <linearGradient id="linear-gradient-21" x1="-3.049" y1="11.812" x2="-2.994" y2="11.812" xlink:href="#linear-gradient-7"/>
    <clipPath id="clip-path-34">
      <path id="Trazado_206554" data-name="Trazado 206554" d="M413.309,254.042c-1.234,2.359,1.544,3.48,1.544,3.48s-2.414,4.727,1.228,7.976,6.773.939,6.773.939l2.028-6.431s-4.087,5.391-6.989,3.524-2.157-4.423-1.66-6.356a1.278,1.278,0,0,0-.274-1.439,1.331,1.331,0,0,1-.434-.856s-.516.6-.23,1.033a.467.467,0,0,1,.058.423c-.043-.021-.086-.041-.133-.062a3.33,3.33,0,0,1-1.538-2.192.2.2,0,0,0-.2-.148.2.2,0,0,0-.178.108" transform="translate(-412.993 -253.934)" fill="none"/>
    </clipPath>
    <linearGradient id="linear-gradient-22" x1="-4.866" y1="3.291" x2="-4.854" y2="3.291" xlink:href="#linear-gradient-7"/>
    <clipPath id="clip-path-35">
      <path id="Trazado_206555" data-name="Trazado 206555" d="M462.364,229.382s2.552,1.149-.137,4.363-.129,4.867-.129,4.867c-.11,3.889,5.4,3.162,5.4,3.162,1.935,1.884,5.211.792,5.857-.757a1.68,1.68,0,0,0-.72-2.235c1.687-.5,3.3-2.442,1.545-5.963s-5.767-1.969-5.767-1.969a1.842,1.842,0,0,0-.362-2.6c-.107-1.979-2.2-1.637-2.2-1.637a5.874,5.874,0,0,0-1.313-.168c-2.821,0-2.166,2.941-2.166,2.941" transform="translate(-460.997 -226.441)" fill="none"/>
    </clipPath>
    <linearGradient id="linear-gradient-23" x1="-4.338" y1="3.012" x2="-4.328" y2="3.012" xlink:href="#linear-gradient-4"/>
    <clipPath id="clip-path-37">
      <path id="Trazado_206557" data-name="Trazado 206557" d="M468.867,257.245a40.361,40.361,0,0,1,.343,4.277,2.746,2.746,0,0,0,2.756.444,29.574,29.574,0,0,0-1.38-5.233Z" transform="translate(-468.867 -256.732)" fill="none"/>
    </clipPath>
    <linearGradient id="linear-gradient-24" x1="-15.976" y1="11.534" x2="-15.942" y2="11.534" xlink:href="#linear-gradient-7"/>
    <clipPath id="clip-path-38">
      <path id="Trazado_206558" data-name="Trazado 206558" d="M461.912,235.093s-3.358,4.7-1.351,6.064,4.4-1.974,4.4-1.974.779-2.572-.036-3.445a3.512,3.512,0,0,0-2.381-.672c-.372,0-.63.027-.63.027" transform="translate(-459.922 -235.066)" fill="none"/>
    </clipPath>
    <linearGradient id="linear-gradient-25" x1="-10.683" y1="6.837" x2="-10.659" y2="6.837" xlink:href="#linear-gradient-7"/>
    <clipPath id="clip-path-39">
      <path id="Trazado_206559" data-name="Trazado 206559" d="M469.407,230.084s-1.543.366-1.759,1.064,2.188,1.345,2.861,1.377l.543,2.817s1.6-2.65.969-4.18a1.974,1.974,0,0,0-1.963-1.14,3.206,3.206,0,0,0-.65.062" transform="translate(-467.634 -230.022)" fill="none"/>
    </clipPath>
    <linearGradient id="linear-gradient-26" x1="-14.553" y1="9.269" x2="-14.522" y2="9.269" xlink:href="#linear-gradient-4"/>
    <clipPath id="clip-path-40">
      <path id="Trazado_206560" data-name="Trazado 206560" d="M479.012,248.59l.063.716c.587.485,2.284-.256,1.764-1.243a.541.541,0,0,0-.495-.334c-.589,0-1.332.861-1.332.861" transform="translate(-479.012 -247.729)" fill="none"/>
    </clipPath>
    <linearGradient id="linear-gradient-27" x1="-36.636" y1="22.137" x2="-36.56" y2="22.137" xlink:href="#linear-gradient-7"/>
    <clipPath id="clip-path-41">
      <path id="Trazado_206561" data-name="Trazado 206561" d="M447.638,401.445a1.777,1.777,0,0,0,.191,1.275l8.437,14.2a1.939,1.939,0,0,1,.221.553,12.179,12.179,0,0,1,.308,3.785l-.436.906,1.888-.429.411-5.069-.534-.326a2.542,2.542,0,0,1-1.027-1.2,72.438,72.438,0,0,1-3.146-8.869c-.555-2.613-3.456-4.735-3.456-4.735l.51-1.205-2.685-2.239c.01.255-.438,2.277-.681,3.356" transform="translate(-447.594 -398.089)" fill="none"/>
    </clipPath>
    <linearGradient id="linear-gradient-28" x1="-4.565" y1="1.114" x2="-4.554" y2="1.114" xlink:href="#linear-gradient-7"/>
    <clipPath id="clip-path-42">
      <path id="Trazado_206562" data-name="Trazado 206562" d="M485.6,477.317a36.9,36.9,0,0,0-.194,4.25c.1,1.194-1.35,1.156-1.35,1.156a1.355,1.355,0,0,0-.693.349.34.34,0,0,0,.228.572,8.181,8.181,0,0,0,2.022-.115.618.618,0,0,0,.5-.57l.209-3.517,1.286,1.624.214-.1a11.521,11.521,0,0,1-1.139-2.245c-.1-.55-.373-1.467-.858-1.467a.472.472,0,0,0-.224.062" transform="translate(-483.271 -477.255)" fill="none"/>
    </clipPath>
    <linearGradient id="linear-gradient-29" x1="-17.005" y1="1.955" x2="-16.969" y2="1.955" xlink:href="#linear-gradient-4"/>
    <clipPath id="clip-path-43">
      <path id="Trazado_206563" data-name="Trazado 206563" d="M466.8,406.787s.3,12.7.338,14.506-.285,5.8-2.093,7l.787.583a10.516,10.516,0,0,0,1.944-2.445,14.852,14.852,0,0,1,1.406-2.137l-.358-.733a1.615,1.615,0,0,1-.131-1.034c.39-1.891,1.694-8.183,2.05-9.538a6.1,6.1,0,0,0-1.011-5.523,2.352,2.352,0,0,0-1.827-1.017,1.982,1.982,0,0,0-1.1.342" transform="translate(-465.046 -406.445)" fill="none"/>
    </clipPath>
    <linearGradient id="linear-gradient-30" x1="-4.233" y1="1.676" x2="-4.223" y2="1.676" xlink:href="#linear-gradient-7"/>
    <clipPath id="clip-path-44">
      <path id="Trazado_206564" data-name="Trazado 206564" d="M463.156,486.921a.938.938,0,0,1-1.082.171,1.8,1.8,0,0,0-.818.587.33.33,0,0,0,.26.53l1.679.016a1.181,1.181,0,0,0,1.107-.744,6.3,6.3,0,0,1,1.394-2.3l-.307,2.943a.112.112,0,0,0,.222.028,16.427,16.427,0,0,1,.516-2.561c.235-.5,1-2.623,0-2.8,0,0-2.492,3.641-2.97,4.132" transform="translate(-461.187 -482.789)" fill="none"/>
    </clipPath>
    <linearGradient id="linear-gradient-31" x1="-19.24" y1="1.498" x2="-19.199" y2="1.498" xlink:href="#linear-gradient-4"/>
    <clipPath id="clip-path-45">
      <path id="Trazado_206565" data-name="Trazado 206565" d="M450.8,338.021a5.959,5.959,0,0,1-.2,3.191l-3.6,12.588a.39.39,0,0,0,.244.474,24.048,24.048,0,0,0,9.461,1.147.549.549,0,0,0,.5-.428c.319-1.435,1.407-6.331,1.631-7.337.853-3.833,1.806-7.967-2.386-10.467a8.618,8.618,0,0,1-5.643.831" transform="translate(-446.976 -337.19)" fill="none"/>
    </clipPath>
    <linearGradient id="linear-gradient-32" x1="-4.44" y1="1.93" x2="-4.43" y2="1.93" xlink:href="#linear-gradient-4"/>
    <clipPath id="clip-path-46">
      <path id="Trazado_206566" data-name="Trazado 206566" d="M479.675,287.606a2.1,2.1,0,0,0,.614.836c4.648,3.869,3.522,6.421,1.7,7.246-1.87.847-1.258-.2-2.58-.2a1.9,1.9,0,0,0-1.466.946c-.356.553-.377,1.107.231.9a2.168,2.168,0,0,1,2.081.684s7.011-.5,5.993-5.153-5.119-8.066-5.119-8.066a1.855,1.855,0,0,0-.908-.294c-.965,0-1.261,1.307-.548,3.1" transform="translate(-477.693 -284.505)" fill="none"/>
    </clipPath>
    <linearGradient id="linear-gradient-33" x1="-6.839" y1="3.364" x2="-6.825" y2="3.364" xlink:href="#linear-gradient-7"/>
    <clipPath id="clip-path-48">
      <path id="Trazado_206568" data-name="Trazado 206568" d="M306.347,483.933s-4.73,2.037-4.458,4.169c0,0,4.889-.937,5.764-2.335s.393-2.207.393-2.207Z" transform="translate(-301.877 -483.561)" fill="none"/>
    </clipPath>
    <linearGradient id="linear-gradient-34" x1="-8.772" y1="1.538" x2="-8.743" y2="1.538" xlink:href="#linear-gradient-4"/>
    <clipPath id="clip-path-49">
      <path id="Trazado_206569" data-name="Trazado 206569" d="M317.513,475.683l.465,1.679a.8.8,0,0,0,.777.583,1.792,1.792,0,0,0,.6-.091.686.686,0,0,0,.434-.729l-.24-2.076Z" transform="translate(-317.513 -475.049)" fill="none"/>
    </clipPath>
    <linearGradient id="linear-gradient-35" x1="-21.76" y1="3.667" x2="-21.691" y2="3.667" xlink:href="#linear-gradient-7"/>
    <clipPath id="clip-path-50">
      <path id="Trazado_206570" data-name="Trazado 206570" d="M308.375,407.816c-4.329,2.524.22,14.639.22,14.639a4.394,4.394,0,0,0,2.759-.627s-2.324-8.869,1.712-10.412A23.233,23.233,0,0,1,322.3,410.1l-.87-4.136-.024-.274s-.509-.024-1.34-.024c-2.61,0-8.4.231-11.687,2.146" transform="translate(-306.507 -405.67)" fill="none"/>
    </clipPath>
    <linearGradient id="linear-gradient-36" x1="-2.786" y1="1.289" x2="-2.777" y2="1.289" xlink:href="#linear-gradient-4"/>
    <clipPath id="clip-path-51">
      <path id="Trazado_206571" data-name="Trazado 206571" d="M300.191,494.509a3.873,3.873,0,0,0-1.751.942,3.175,3.175,0,0,0,2.709,1,8.212,8.212,0,0,0,4.277-1.79,1.185,1.185,0,0,0,.21-.889s-.631-.667-1.077-.684h-.009c-.475,0-3.376,1.2-4.359,1.416" transform="translate(-298.44 -493.093)" fill="none"/>
    </clipPath>
    <linearGradient id="linear-gradient-37" x1="-8.441" y1="1.26" x2="-8.412" y2="1.26" xlink:href="#linear-gradient-4"/>
    <clipPath id="clip-path-52">
      <path id="Trazado_206572" data-name="Trazado 206572" d="M299.731,501.728a3.175,3.175,0,0,1-2.709-1c-.459.447-.614.916-.112,1.11a9.357,9.357,0,0,0,5.7-.68,3.7,3.7,0,0,0,1.4-1.216,8.213,8.213,0,0,1-4.277,1.79" transform="translate(-296.598 -499.938)" fill="none"/>
    </clipPath>
    <linearGradient id="linear-gradient-38" x1="-17.971" y1="0.969" x2="-17.912" y2="0.969" xlink:href="#linear-gradient-2"/>
    <clipPath id="clip-path-53">
      <path id="Trazado_206573" data-name="Trazado 206573" d="M322.689,488.349a.512.512,0,0,0,.2.7,2.041,2.041,0,0,0,.524.184.789.789,0,0,0,.733-.221,7.053,7.053,0,0,0,1.158-1.391l-1.6-1.111Z" transform="translate(-322.624 -486.507)" fill="none"/>
    </clipPath>
    <linearGradient id="linear-gradient-39" x1="-22.297" y1="2.5" x2="-22.227" y2="2.5" xlink:href="#linear-gradient-7"/>
    <clipPath id="clip-path-54">
      <path id="Trazado_206574" data-name="Trazado 206574" d="M334.428,403.15l.222,1.368c.122.751.068,1.484-.624,1.8-2.415,1.11-4.115,3.675-5.278,5.455-1.342,2.056-4.56,10.515-4.56,10.515a4.441,4.441,0,0,0,2,1.265c2.711-1.576,5.69-7.059,7.348-9.853s6.474-3.515,8.67-4.616,1.436-6.488,1.436-6.488Z" transform="translate(-324.188 -402.597)" fill="none"/>
    </clipPath>
    <linearGradient id="linear-gradient-40" x1="-2.971" y1="1.205" x2="-2.962" y2="1.205" xlink:href="#linear-gradient-4"/>
    <clipPath id="clip-path-56">
      <path id="Trazado_206576" data-name="Trazado 206576" d="M286.2,363.163c-1.342.551-2.772,2.933-2.772,2.933a.884.884,0,0,0,1.111.246c.6-.378,2.141-1.367,2.141-1.367a8.3,8.3,0,0,0-.518,1.317c0,.208.672.174.709-.387.018-.285.311-.495.6-.632a.576.576,0,0,1,.759.258,6.865,6.865,0,0,0,3.023,3.062A4.411,4.411,0,0,0,291.9,366a8.056,8.056,0,0,1-3.22-2.286,2.722,2.722,0,0,0-1.705-.7,2.024,2.024,0,0,0-.774.154" transform="translate(-283.428 -363.009)" fill="none"/>
    </clipPath>
    <linearGradient id="linear-gradient-41" x1="-9.014" y1="4.022" x2="-8.983" y2="4.022" xlink:href="#linear-gradient-7"/>
    <clipPath id="clip-path-58">
      <path id="Trazado_206578" data-name="Trazado 206578" d="M352.034,310.437l.847,3.575a1.4,1.4,0,0,0,.957,1.019,2.6,2.6,0,0,0,2.994-.833.911.911,0,0,0,.094-.982l-1.635-3.2Z" transform="translate(-352.034 -310.013)" fill="none"/>
    </clipPath>
    <linearGradient id="linear-gradient-42" x1="-12.394" y1="7.968" x2="-12.359" y2="7.968" xlink:href="#linear-gradient-7"/>
    <clipPath id="clip-path-60">
      <path id="Trazado_206580" data-name="Trazado 206580" d="M378.19,374.786c-1.207,1.771-7.028.146-7.028.146-3.8-.4-4.363,4.093-4.363,4.093.684.368,1.228-.27,1.7-.908.383-.517.719-1.033,1.045-1.015a6.986,6.986,0,0,0,1.9-.383,1.022,1.022,0,0,1,.767.064c1.448.73,6.776,3.167,9.539.993a6.394,6.394,0,0,0-3.414-3.385.923.923,0,0,1-.15.394" transform="translate(-366.799 -374.392)" fill="none"/>
    </clipPath>
    <linearGradient id="linear-gradient-43" x1="-5.458" y1="2.841" x2="-5.443" y2="2.841" xlink:href="#linear-gradient-7"/>
    <clipPath id="clip-path-61">
      <path id="Trazado_206581" data-name="Trazado 206581" d="M345.512,286.776c-.052.045-2.208,3.81-3.305,5.73a1.129,1.129,0,0,0,.536,1.6l.475.2c.65.278,2.047.511,2.6.068l3.466-3.659s-2.144-4.077-3.412-4.077a.531.531,0,0,0-.357.136" transform="translate(-342.058 -286.64)" fill="none"/>
    </clipPath>
    <linearGradient id="linear-gradient-44" x1="-8.103" y1="6.062" x2="-8.079" y2="6.062" xlink:href="#linear-gradient-7"/>
    <clipPath id="clip-path-62">
      <path id="Trazado_206582" data-name="Trazado 206582" d="M352.29,278.355c-.343,1.008,1.136,1.793,2.081,1.953.718.122,1.069.95,1.2,1.34a.429.429,0,0,1-.051.367l-1.054,1.6c.29.364.547.75.8,1.14.095-.1.178-.187.242-.247.458-.419,1.272-.2,1.607-.088a.424.424,0,0,0,.333-.024,1.116,1.116,0,0,0,.5-1.721.431.431,0,0,1,.159-.6,1.118,1.118,0,0,0,.538-1.578,1.577,1.577,0,0,0-1.719-.889.431.431,0,0,1-.457-.31.34.34,0,0,0-.3-.244.424.424,0,0,1-.335-.531,1.285,1.285,0,0,0-.641-1.54,1.719,1.719,0,0,0-.9-.266,2.345,2.345,0,0,0-2,1.636" transform="translate(-352.239 -276.719)" fill="none"/>
    </clipPath>
    <linearGradient id="linear-gradient-45" x1="-7.426" y1="5.365" x2="-7.405" y2="5.365" xlink:href="#linear-gradient-4"/>
    <clipPath id="clip-path-63">
      <path id="Trazado_206583" data-name="Trazado 206583" d="M363.723,309.184s.561,1.095,1.79.074c.988-.821.415-1.612-.35-1.708a.51.51,0,0,0-.062,0c-.74,0-1.378,1.639-1.378,1.639" transform="translate(-363.723 -307.545)" fill="none"/>
    </clipPath>
    <linearGradient id="linear-gradient-46" x1="-28.216" y1="16.407" x2="-28.139" y2="16.407" xlink:href="#linear-gradient-7"/>
    <clipPath id="clip-path-64">
      <path id="Trazado_206584" data-name="Trazado 206584" d="M291.487,388.12a.609.609,0,0,0,.608.609l13.6.015h.031a.609.609,0,0,0-.03-1.216l-13.6-.015h-.011a.606.606,0,0,0-.6.608" transform="translate(-291.487 -387.512)" fill="none"/>
    </clipPath>
    <linearGradient id="linear-gradient-47" x1="-4.644" y1="5.698" x2="-4.628" y2="5.698" xlink:href="#linear-gradient-4"/>
    <clipPath id="clip-path-65">
      <path id="Trazado_206585" data-name="Trazado 206585" d="M237.9,339.143a.9.9,0,0,0-.841,1.237l4.06,10.272a1.311,1.311,0,0,0,1.22.83h14.072l-5.235-11.1a2.158,2.158,0,0,0-1.952-1.238Z" transform="translate(-236.997 -339.143)" fill="none"/>
    </clipPath>
    <linearGradient id="linear-gradient-48" x1="-2.358" y1="2.07" x2="-2.347" y2="2.07" xlink:href="#linear-gradient-4"/>
  </defs>
  <g id="Grupo_146525" data-name="Grupo 146525" transform="translate(-15299 -1431.422)">
    <g id="Elipse_4811" data-name="Elipse 4811" transform="translate(8734.266 -2547.991)">
      <circle id="Elipse_4814" data-name="Elipse 4814" cx="74" cy="74" r="74" transform="translate(6564.735 3979.413)" fill="#4dcedf"/>
      <circle id="Elipse_4815" data-name="Elipse 4815" cx="73.5" cy="73.5" r="73.5" transform="translate(6565.235 3979.913)" fill="#4dcedf"/>
    </g>
    <g id="Grupo_144453" data-name="Grupo 144453" transform="translate(15315.07 1445.552)">
      <g id="Grupo_144452" data-name="Grupo 144452" clip-path="url(#clip-path)">
        <g id="Grupo_144319" data-name="Grupo 144319" transform="translate(0)">
          <g id="Grupo_144318" data-name="Grupo 144318" clip-path="url(#clip-path-2)">
            <rect id="Rectángulo_45062" data-name="Rectángulo 45062" width="178.878" height="177.813" transform="translate(-65.279 48.509) rotate(-38.841)" fill="url(#linear-gradient)"/>
          </g>
        </g>
        <g id="Grupo_144321" data-name="Grupo 144321">
          <g id="Grupo_144320" data-name="Grupo 144320" clip-path="url(#clip-path)">
            <path id="Trazado_206509" data-name="Trazado 206509" d="M116.6,100.959A45.941,45.941,0,1,1,70.656,55.018,45.941,45.941,0,0,1,116.6,100.959" transform="translate(-19.036 -42.377)" fill="#bdd0fb"/>
          </g>
        </g>
        <g id="Grupo_144323" data-name="Grupo 144323" transform="translate(12.411 19.373)">
          <g id="Grupo_144322" data-name="Grupo 144322" clip-path="url(#clip-path-4)">
            <rect id="Rectángulo_45064" data-name="Rectángulo 45064" width="109.817" height="109.817" transform="translate(-37.685 50.033) rotate(-53.013)" fill="url(#linear-gradient-2)"/>
          </g>
        </g>
        <g id="Grupo_144325" data-name="Grupo 144325">
          <g id="Grupo_144324" data-name="Grupo 144324" clip-path="url(#clip-path)">
            <path id="Trazado_206511" data-name="Trazado 206511" d="M86.641,158.115a41.173,41.173,0,1,1,41.173-41.173,41.22,41.22,0,0,1-41.173,41.173m0-80.382a39.209,39.209,0,1,0,39.209,39.209A39.253,39.253,0,0,0,86.641,77.733" transform="translate(-35.021 -58.36)" fill="#fff"/>
          </g>
        </g>
        <g id="Grupo_144327" data-name="Grupo 144327" transform="translate(27.716 34.679)">
          <g id="Grupo_144326" data-name="Grupo 144326" clip-path="url(#clip-path-6)">
            <rect id="Rectángulo_45066" data-name="Rectángulo 45066" width="66.95" height="66.95" transform="translate(-22.975 30.503) rotate(-53.013)" fill="url(#linear-gradient-3)"/>
          </g>
        </g>
        <g id="Grupo_144329" data-name="Grupo 144329">
          <g id="Grupo_144328" data-name="Grupo 144328" clip-path="url(#clip-path)">
            <path id="Trazado_206513" data-name="Trazado 206513" d="M137.947,194.117a25.868,25.868,0,1,1,25.868-25.868,25.9,25.9,0,0,1-25.868,25.868m0-47.808a21.94,21.94,0,1,0,21.94,21.94,21.965,21.965,0,0,0-21.94-21.94" transform="translate(-86.328 -109.667)" fill="#fff"/>
            <path id="Trazado_206514" data-name="Trazado 206514" d="M202.877,223.918a9.261,9.261,0,1,1-9.261-9.261,9.261,9.261,0,0,1,9.261,9.261" transform="translate(-141.996 -165.335)" fill="#feca2e"/>
            <path id="Trazado_206515" data-name="Trazado 206515" d="M187.033,228.559a11.225,11.225,0,1,1,11.225-11.225,11.238,11.238,0,0,1-11.225,11.225m0-18.522a7.3,7.3,0,1,0,7.3,7.3,7.305,7.305,0,0,0-7.3-7.3" transform="translate(-135.413 -158.752)" fill="#fff"/>
          </g>
        </g>
        <g id="Grupo_144331" data-name="Grupo 144331" transform="translate(58.518 14.865)">
          <g id="Grupo_144330" data-name="Grupo 144330" transform="translate(0)" clip-path="url(#clip-path-8)">
            <rect id="Rectángulo_45068" data-name="Rectángulo 45068" width="52.063" height="52.063" transform="translate(-16.79 10.157) rotate(-31.171)" fill="url(#linear-gradient-4)"/>
          </g>
        </g>
        <g id="Grupo_144333" data-name="Grupo 144333" transform="translate(51.429 49.371)">
          <g id="Grupo_144332" data-name="Grupo 144332" clip-path="url(#clip-path-9)">
            <rect id="Rectángulo_45070" data-name="Rectángulo 45070" width="15.386" height="15.33" transform="matrix(0.77, -0.638, 0.638, 0.77, -5.451, 4.358)" fill="url(#linear-gradient-5)"/>
          </g>
        </g>
        <g id="Grupo_144347" data-name="Grupo 144347">
          <g id="Grupo_144346" data-name="Grupo 144346" clip-path="url(#clip-path)">
            <path id="Trazado_206517" data-name="Trazado 206517" d="M384.891,69.032l4.969.494-6.822,6.822a10.545,10.545,0,0,1-8.5,3.037Z" transform="translate(-288.481 -53.171)" fill="#91b3fa"/>
            <path id="Trazado_206518" data-name="Trazado 206518" d="M380.473,48.129l-.494-4.969-6.822,6.822a10.546,10.546,0,0,0-3.037,8.5Z" transform="translate(-285.038 -33.243)" fill="#91b3fa"/>
            <g id="Grupo_144336" data-name="Grupo 144336" transform="translate(3.023 3.338)" opacity="0.3">
              <g id="Grupo_144335" data-name="Grupo 144335">
                <g id="Grupo_144334" data-name="Grupo 144334" clip-path="url(#clip-path-11)">
                  <path id="Trazado_206519" data-name="Trazado 206519" d="M38.741,19.2a.355.355,0,0,1-.5,0c-.27-.27-.555-.532-.848-.779a.355.355,0,0,1-.047-.5l0-.006a.355.355,0,0,1,.5-.043c.309.26.609.536.893.82a.355.355,0,0,1,.025.475.318.318,0,0,1-.025.028M35.88,17.313c-.324-.2-.66-.4-1-.573a.355.355,0,1,1,.328-.631c.356.185.71.388,1.051.6a.355.355,0,0,1,.111.49.342.342,0,0,1-.025.034.356.356,0,0,1-.466.077M33.167,16c-.361-.127-.731-.24-1.1-.336a.356.356,0,0,1,.178-.688c.39.1.78.22,1.159.354a.355.355,0,1,1-.236.67m-2.94-.677c-.38-.043-.767-.071-1.149-.081a.355.355,0,1,1,.02-.711c.4.011.809.04,1.21.086a.355.355,0,0,1-.081.706m-3.018,0c-.38.042-.763.1-1.139.175a.355.355,0,0,1-.137-.7c.4-.078.8-.14,1.2-.184a.356.356,0,0,1,.078.707m-2.944.663c-.361.125-.722.267-1.071.423a.356.356,0,0,1-.289-.65c.368-.163.747-.313,1.127-.445a.356.356,0,0,1,.392.56.352.352,0,0,1-.16.112M15.2,25.571a.356.356,0,0,1-.255-.434c.1-.389.221-.779.356-1.159a.355.355,0,1,1,.67.238c-.128.361-.242.731-.338,1.1a.355.355,0,0,1-.434.254m6.346-8.3c-.324.2-.644.421-.949.65a.355.355,0,1,1-.426-.569c.322-.241.658-.472,1-.684a.356.356,0,0,1,.464.526.363.363,0,0,1-.088.078m-5.307,5.376a.356.356,0,0,1-.151-.48c.186-.357.39-.71.605-1.05a.356.356,0,1,1,.6.381c-.205.323-.4.659-.575,1a.368.368,0,0,1-.039.06.356.356,0,0,1-.44.091m2.944-3.5c-.271.27-.533.554-.781.846a.355.355,0,0,1-.548-.453l0-.006c.26-.308.537-.608.821-.891a.355.355,0,0,1,.527.475.371.371,0,0,1-.026.028" transform="translate(-14.524 -14.527)" fill="#91b3fa"/>
                  <path id="Trazado_206520" data-name="Trazado 206520" d="M13.789,68.95a.353.353,0,0,0,.078-.2c.014-.183.031-.368.052-.552a.355.355,0,1,0-.706-.081c-.022.193-.041.388-.055.58a.356.356,0,0,0,.631.25" transform="translate(-13.157 -55.563)" fill="#91b3fa"/>
                </g>
              </g>
            </g>
            <g id="Grupo_144339" data-name="Grupo 144339" transform="translate(6.139 17.566)" opacity="0.3">
              <g id="Grupo_144338" data-name="Grupo 144338">
                <g id="Grupo_144337" data-name="Grupo 144337" clip-path="url(#clip-path-12)">
                  <path id="Trazado_206521" data-name="Trazado 206521" d="M27.721,114.06a.355.355,0,0,0-.012-.461c-.122-.136-.244-.278-.361-.42a.356.356,0,0,0-.549.452c.124.15.252.3.38.442a.356.356,0,0,0,.5.027.364.364,0,0,0,.039-.041" transform="translate(-26.718 -104.641)" fill="#91b3fa"/>
                  <path id="Trazado_206522" data-name="Trazado 206522" d="M54.105,94.106a.355.355,0,1,1-.53-.474c.249-.278.491-.572.72-.875a.356.356,0,0,1,.567.429q-.149.2-.3.388c-.147.181-.3.361-.454.533M55.44,91.7a.355.355,0,0,1-.136-.484c.185-.329.358-.669.514-1.011a.355.355,0,0,1,.647.3c-.164.36-.346.718-.54,1.064a.368.368,0,0,1-.034.05.356.356,0,0,1-.45.086m-2.723,3.757c-.3.256-.618.5-.942.732a.355.355,0,1,1-.412-.579c.307-.219.608-.452.894-.7a.356.356,0,0,1,.506.495.363.363,0,0,1-.046.048M56.7,88.926a.356.356,0,0,1-.239-.443c.108-.361.2-.73.278-1.1a.355.355,0,1,1,.7.145c-.081.388-.18.777-.293,1.156a.355.355,0,0,1-.442.239M50.126,97.2c-.35.183-.713.354-1.079.507a.355.355,0,1,1-.275-.656c.347-.146.692-.308,1.025-.482a.356.356,0,1,1,.329.63m-2.911,1.133c-.383.1-.774.19-1.164.26a.355.355,0,0,1-.126-.7c.37-.067.742-.15,1.106-.247a.355.355,0,0,1,.184.687m-3.089.472c-.4.017-.8.017-1.193,0a.356.356,0,0,1,.03-.71c.375.016.757.016,1.133,0a.355.355,0,1,1,.03.71m-3.119-.213c-.39-.07-.782-.158-1.164-.261a.355.355,0,0,1,.185-.686c.363.1.735.181,1.106.248a.356.356,0,0,1-.127.7m-3-.894c-.364-.154-.727-.326-1.077-.511a.356.356,0,0,1,.331-.629c.333.176.677.339,1.023.486a.355.355,0,1,1-.278.654m-2.725-1.528c-.237-.169-.472-.348-.7-.531q-.123-.1-.243-.2a.352.352,0,0,1-.041-.5.356.356,0,0,1,.5-.041q.114.1.231.191c.215.174.438.344.663.505a.355.355,0,0,1,.083.5l-.013.018a.355.355,0,0,1-.483.065" transform="translate(-32.493 -84.655)" fill="#91b3fa"/>
                  <path id="Trazado_206523" data-name="Trazado 206523" d="M133.985,77.6a.354.354,0,0,0,.078-.2c.013-.192.023-.388.028-.582a.355.355,0,0,0-.711-.02c-.005.185-.014.371-.027.553a.355.355,0,0,0,.631.248" transform="translate(-108.852 -76.45)" fill="#91b3fa"/>
                </g>
              </g>
            </g>
            <path id="Trazado_206524" data-name="Trazado 206524" d="M48.785,36.886a.166.166,0,0,0-.142-.131L46.638,36.5a8.811,8.811,0,0,0-1.605-2.359l.5-1.959a.166.166,0,0,0-.07-.18l-2.028-1.33a.166.166,0,0,0-.193.008l-1.6,1.236a8.812,8.812,0,0,0-2.8-.531L37.8,29.646a.166.166,0,0,0-.177-.078l-2.375.494a.166.166,0,0,0-.131.142l-.256,2.006A8.8,8.8,0,0,0,32.5,33.815l-1.959-.5a.166.166,0,0,0-.18.07l-1.33,2.028a.166.166,0,0,0,.008.193l1.236,1.6a8.806,8.806,0,0,0-.531,2.8L28.01,41.046a.166.166,0,0,0-.078.177l.494,2.375a.166.166,0,0,0,.142.131l2.006.256a8.807,8.807,0,0,0,1.605,2.359l-.5,1.959a.166.166,0,0,0,.07.18l2.028,1.33a.166.166,0,0,0,.193-.008l1.6-1.236a8.806,8.806,0,0,0,2.8.531l1.035,1.737a.166.166,0,0,0,.177.078l2.375-.494a.166.166,0,0,0,.131-.142l.256-2.006a8.809,8.809,0,0,0,2.359-1.605l1.959.5a.166.166,0,0,0,.18-.07l1.33-2.028a.166.166,0,0,0-.008-.193l-1.236-1.6a8.806,8.806,0,0,0,.531-2.8L49.2,39.437a.166.166,0,0,0,.078-.176Z" transform="translate(-21.512 -22.772)" fill="#91b3fa"/>
            <path id="Trazado_206525" data-name="Trazado 206525" d="M67.873,69.659a2.436,2.436,0,1,1,.245-.261,2.441,2.441,0,0,1-.245.261m-3.517-1.874a1.869,1.869,0,1,0,.6-1.3,1.915,1.915,0,0,0-.19.2,1.854,1.854,0,0,0-.413,1.1" transform="translate(-49.129 -50.394)" fill="#bdd0fb"/>
            <path id="Trazado_206526" data-name="Trazado 206526" d="M58.722,59.756a6.145,6.145,0,0,0,.363-.5c.036-.054.071-.11.1-.165a6.027,6.027,0,0,0,.434-.857l0-.012.014-.034.026-.067a.142.142,0,0,0-.265-.1,5.715,5.715,0,0,1-8.462,2.726,5.808,5.808,0,0,1-.474-.346A5.711,5.711,0,0,1,57.2,51.2a5.753,5.753,0,0,1,.468.342,5.692,5.692,0,0,1,1.54,1.942.142.142,0,1,0,.256-.124,5.976,5.976,0,0,0-1.617-2.039,6.083,6.083,0,0,0-.492-.359,6,6,0,0,0-7.072,9.663,6.146,6.146,0,0,0,.5.364,6,6,0,0,0,7.937-1.229" transform="translate(-37.029 -38.495)" fill="#bdd0fb"/>
            <g id="Grupo_144342" data-name="Grupo 144342" transform="translate(26.059 0.098)" opacity="0.3">
              <g id="Grupo_144341" data-name="Grupo 144341">
                <g id="Grupo_144340" data-name="Grupo 144340" clip-path="url(#clip-path-13)">
                  <path id="Trazado_206527" data-name="Trazado 206527" d="M181.185,16.716a.22.22,0,0,0,.01-.263c-.106-.153-.218-.306-.333-.453a.219.219,0,1,0-.346.27c.109.14.216.285.317.432a.22.22,0,0,0,.351.013" transform="translate(-165.062 -12.357)" fill="#91b3fa"/>
                  <path id="Trazado_206528" data-name="Trazado 206528" d="M128.438,3.508a.22.22,0,0,1-.311,0,9.108,9.108,0,0,0-.685-.616c-.05-.041-.1-.081-.152-.121a.22.22,0,0,1-.039-.308.227.227,0,0,1,.308-.039l.159.126a9.465,9.465,0,0,1,.718.646.219.219,0,0,1,.016.294l-.015.017m-2.069-1.365a9.149,9.149,0,0,0-.99-.512.22.22,0,0,1,.177-.4,9.5,9.5,0,0,1,1.038.537.22.22,0,0,1,.076.3.236.236,0,0,1-.018.026.22.22,0,0,1-.283.05m-2.036-.9a9.054,9.054,0,0,0-1.086-.253.22.22,0,1,1,.073-.433,9.53,9.53,0,0,1,1.139.265.22.22,0,0,1,.147.273.212.212,0,0,1-.04.075.219.219,0,0,1-.233.072M122.137.876A9.1,9.1,0,0,0,121.023.9a.22.22,0,0,1-.036-.438,9.536,9.536,0,0,1,1.169-.022.22.22,0,1,1-.019.439m-2.219.178a9.145,9.145,0,0,0-1.076.291.22.22,0,1,1-.14-.416,9.585,9.585,0,0,1,1.128-.3.22.22,0,0,1,.215.353.217.217,0,0,1-.126.077m-2.108.711a9.015,9.015,0,0,0-.972.544.22.22,0,0,1-.238-.369,9.392,9.392,0,0,1,1.02-.571.219.219,0,0,1,.19.4m-1.87,1.2a9,9,0,0,0-.809.767.22.22,0,0,1-.321-.3,9.528,9.528,0,0,1,.849-.8.22.22,0,0,1,.312.307.249.249,0,0,1-.03.03m-2.415,2.654a.219.219,0,0,1-.086-.3,9.539,9.539,0,0,1,.538-.861l.089-.125a.218.218,0,0,1,.307-.048.22.22,0,0,1,.048.307c-.028.039-.057.078-.085.118a9.2,9.2,0,0,0-.515.822.193.193,0,0,1-.022.032.219.219,0,0,1-.276.054" transform="translate(-113.412 -0.429)" fill="#91b3fa"/>
                </g>
              </g>
            </g>
            <g id="Grupo_144345" data-name="Grupo 144345" transform="translate(32.179 9.623)" opacity="0.3">
              <g id="Grupo_144344" data-name="Grupo 144344">
                <g id="Grupo_144343" data-name="Grupo 144343" clip-path="url(#clip-path-14)">
                  <path id="Trazado_206529" data-name="Trazado 206529" d="M149.536,53.507a9.558,9.558,0,0,1-.787.837.22.22,0,1,1-.3-.32,9.081,9.081,0,0,0,.751-.8.22.22,0,0,1,.339.279l0,0m.378-.861a.219.219,0,0,1-.065-.3,9.182,9.182,0,0,0,.539-.955.22.22,0,0,1,.395.193,9.634,9.634,0,0,1-.566,1l-.014.019a.219.219,0,0,1-.29.046m-2.049,2.435a9.511,9.511,0,0,1-.967.622.22.22,0,0,1-.215-.383,9.112,9.112,0,0,0,.922-.593.219.219,0,0,1,.3.315.227.227,0,0,1-.041.039m3.079-4.427a.219.219,0,0,1-.136-.279,9.059,9.059,0,0,0,.293-1.057.219.219,0,1,1,.429.091,9.4,9.4,0,0,1-.307,1.109.22.22,0,0,1-.279.136m-5.081,5.55a9.552,9.552,0,0,1-1.088.371.22.22,0,1,1-.116-.423A9.017,9.017,0,0,0,145.7,55.8a.22.22,0,0,1,.167.406m-2.212.609a9.626,9.626,0,0,1-1.145.1.22.22,0,1,1-.012-.439,9.183,9.183,0,0,0,1.093-.1.22.22,0,1,1,.065.434m-2.295.062a9.442,9.442,0,0,1-1.136-.177.22.22,0,0,1,.094-.429,9.006,9.006,0,0,0,1.084.169.219.219,0,0,1,.2.239.214.214,0,0,1-.048.117.219.219,0,0,1-.191.081" transform="translate(-140.048 -47.475)" fill="#91b3fa"/>
                  <path id="Trazado_206530" data-name="Trazado 206530" d="M189.253,42.785a.218.218,0,0,0,.048-.119c.016-.187.027-.376.032-.56a.22.22,0,1,0-.439-.012c0,.176-.015.356-.031.535a.22.22,0,0,0,.389.157" transform="translate(-177.646 -41.88)" fill="#91b3fa"/>
                </g>
              </g>
            </g>
            <path id="Trazado_206531" data-name="Trazado 206531" d="M132.249,15.327a.111.111,0,0,0-.095-.088l-1.342-.171a5.9,5.9,0,0,0-1.074-1.579l.332-1.311a.111.111,0,0,0-.047-.12l-1.357-.89a.111.111,0,0,0-.129.005l-1.07.827a5.9,5.9,0,0,0-1.876-.356l-.692-1.162a.111.111,0,0,0-.118-.052l-1.589.33a.112.112,0,0,0-.088.095l-.171,1.342a5.891,5.891,0,0,0-1.579,1.074l-1.311-.332a.111.111,0,0,0-.12.047l-.89,1.357a.111.111,0,0,0,.005.129l.827,1.07a5.9,5.9,0,0,0-.356,1.876l-1.162.692a.111.111,0,0,0-.052.118l.33,1.589a.111.111,0,0,0,.095.088l1.342.171a5.892,5.892,0,0,0,1.074,1.579l-.332,1.311a.111.111,0,0,0,.047.12l1.357.89a.111.111,0,0,0,.129-.005l1.07-.827a5.9,5.9,0,0,0,1.876.356l.692,1.162a.111.111,0,0,0,.118.052l1.589-.33a.111.111,0,0,0,.088-.095l.171-1.342a5.891,5.891,0,0,0,1.579-1.074l1.311.332a.111.111,0,0,0,.12-.047l.89-1.357a.111.111,0,0,0-.005-.129l-.827-1.07a5.9,5.9,0,0,0,.356-1.876l1.162-.692a.111.111,0,0,0,.052-.118Z" transform="translate(-91.113 -8.032)" fill="#91b3fa"/>
            <path id="Trazado_206532" data-name="Trazado 206532" d="M144.948,37.179a1.652,1.652,0,1,1,.169-.179,1.7,1.7,0,0,1-.169.179m-2.023-.4A1.222,1.222,0,1,0,143,35.056a1.261,1.261,0,0,0-.123.131,1.224,1.224,0,0,0,.05,1.6" transform="translate(-109.499 -26.416)" fill="#bdd0fb"/>
            <path id="Trazado_206533" data-name="Trazado 206533" d="M138.58,30.278a4.2,4.2,0,0,0,.248-.34,4.16,4.16,0,0,0,.388-.748l.014-.035a.22.22,0,1,0-.41-.158,3.7,3.7,0,0,1-.36.7h0l-.024.036a3.659,3.659,0,0,1-1.346,1.211,3.714,3.714,0,0,1-.936.339l-.008,0-.025.005a3.7,3.7,0,1,1,2.574-5.232.22.22,0,1,0,.4-.191,4.128,4.128,0,0,0-1.115-1.407q-.163-.132-.339-.248a4.136,4.136,0,0,0-4.879,6.667c.109.089.224.173.344.251a4.142,4.142,0,0,0,5.479-.852" transform="translate(-101.079 -18.126)" fill="#bdd0fb"/>
          </g>
        </g>
        <g id="Grupo_144349" data-name="Grupo 144349" transform="translate(15.015 115.858)">
          <g id="Grupo_144348" data-name="Grupo 144348" clip-path="url(#clip-path-15)">
            <rect id="Rectángulo_45076" data-name="Rectángulo 45076" width="8.367" height="8.559" transform="translate(-1.989 2.074) rotate(-46.862)" fill="url(#linear-gradient-6)"/>
          </g>
        </g>
        <g id="Grupo_144351" data-name="Grupo 144351" transform="translate(15.209 114.846)">
          <g id="Grupo_144350" data-name="Grupo 144350" clip-path="url(#clip-path-16)">
            <rect id="Rectángulo_45077" data-name="Rectángulo 45077" width="2.354" height="2.019" transform="translate(-0.022 2.335) rotate(-89.456)" fill="url(#linear-gradient-7)"/>
          </g>
        </g>
        <g id="Grupo_144353" data-name="Grupo 144353" transform="translate(10.702 85.174)">
          <g id="Grupo_144352" data-name="Grupo 144352" clip-path="url(#clip-path-17)">
            <rect id="Rectángulo_45078" data-name="Rectángulo 45078" width="31.518" height="26.005" transform="matrix(0.601, -0.799, 0.799, 0.601, -16.749, 18.085)" fill="url(#linear-gradient-8)"/>
          </g>
        </g>
        <g id="Grupo_144355" data-name="Grupo 144355" transform="translate(7.502 116.483)">
          <g id="Grupo_144354" data-name="Grupo 144354" clip-path="url(#clip-path-18)">
            <rect id="Rectángulo_45079" data-name="Rectángulo 45079" width="4.643" height="4.646" transform="translate(-1.681 1.734) rotate(-46.862)" fill="url(#linear-gradient-9)"/>
          </g>
        </g>
        <g id="Grupo_144357" data-name="Grupo 144357" transform="translate(7.964 114.358)">
          <g id="Grupo_144356" data-name="Grupo 144356" clip-path="url(#clip-path-19)">
            <rect id="Rectángulo_45080" data-name="Rectángulo 45080" width="2.829" height="1.74" transform="translate(-0.027 2.813) rotate(-89.456)" fill="url(#linear-gradient-10)"/>
          </g>
        </g>
        <g id="Grupo_144359" data-name="Grupo 144359" transform="translate(6.269 84.719)">
          <g id="Grupo_144358" data-name="Grupo 144358" clip-path="url(#clip-path-20)">
            <rect id="Rectángulo_45081" data-name="Rectángulo 45081" width="31.217" height="27.182" transform="translate(-16.017 19.827) rotate(-53.036)" fill="url(#linear-gradient-11)"/>
          </g>
        </g>
        <g id="Grupo_144361" data-name="Grupo 144361">
          <g id="Grupo_144360" data-name="Grupo 144360" clip-path="url(#clip-path)">
            <path id="Trazado_206540" data-name="Trazado 206540" d="M40.205,282.712A49.952,49.952,0,0,0,29.014,284c-1.672,9.228-.467,19.9-.467,19.9,4.1,1.118,8.761-.576,8.761-.576.721-3.857,4.015-14.7,4.015-14.7a17.5,17.5,0,0,0,6.516-2,11.4,11.4,0,0,1-2.207-4.732,17.831,17.831,0,0,1-5.427.817" transform="translate(-21.664 -217.124)" fill="#feca2e"/>
          </g>
        </g>
        <g id="Grupo_144363" data-name="Grupo 144363" transform="translate(23.968 57.5)">
          <g id="Grupo_144362" data-name="Grupo 144362" clip-path="url(#clip-path-22)">
            <rect id="Rectángulo_45083" data-name="Rectángulo 45083" width="12.101" height="10.458" transform="translate(-0.114 12.002) rotate(-89.456)" fill="url(#linear-gradient-12)"/>
          </g>
        </g>
        <g id="Grupo_144365" data-name="Grupo 144365" transform="translate(33.145 52.414)">
          <g id="Grupo_144364" data-name="Grupo 144364" clip-path="url(#clip-path-23)">
            <rect id="Rectángulo_45084" data-name="Rectángulo 45084" width="7.1" height="5.941" transform="matrix(0.411, -0.912, 0.912, 0.411, -2.392, 5.059)" fill="url(#linear-gradient-13)"/>
          </g>
        </g>
        <g id="Grupo_144367" data-name="Grupo 144367" transform="translate(33.795 54.845)">
          <g id="Grupo_144366" data-name="Grupo 144366" clip-path="url(#clip-path-24)">
            <rect id="Rectángulo_45085" data-name="Rectángulo 45085" width="2.918" height="2.651" transform="translate(-1.145 1.725) rotate(-56.416)" fill="url(#linear-gradient-14)"/>
          </g>
        </g>
        <g id="Grupo_144369" data-name="Grupo 144369">
          <g id="Grupo_144368" data-name="Grupo 144368" clip-path="url(#clip-path)">
            <path id="Trazado_206544" data-name="Trazado 206544" d="M14.356,296.225l-1.989-5.165s-5,3.325-5.853,7.593a11.746,11.746,0,0,1,4.3,1.2c.386-2.016,3.538-3.626,3.538-3.626" transform="translate(-5.017 -224.183)" fill="#feca2e"/>
          </g>
        </g>
        <g id="Grupo_144371" data-name="Grupo 144371" transform="translate(1.372 74.47)">
          <g id="Grupo_144370" data-name="Grupo 144370" clip-path="url(#clip-path-26)">
            <rect id="Rectángulo_45087" data-name="Rectángulo 45087" width="10.233" height="13.212" transform="translate(-0.23 10.108) rotate(-89.456)" fill="url(#linear-gradient-15)"/>
          </g>
        </g>
        <g id="Grupo_144373" data-name="Grupo 144373" transform="translate(11.451 61.222)">
          <g id="Grupo_144372" data-name="Grupo 144372" clip-path="url(#clip-path-27)">
            <rect id="Rectángulo_45088" data-name="Rectángulo 45088" width="7.806" height="7.422" transform="matrix(0.458, -0.889, 0.889, 0.458, -2.501, 4.819)" fill="url(#linear-gradient-16)"/>
          </g>
        </g>
        <g id="Grupo_144375" data-name="Grupo 144375" transform="translate(12.575 56.729)">
          <g id="Grupo_144374" data-name="Grupo 144374" clip-path="url(#clip-path-28)">
            <rect id="Rectángulo_45089" data-name="Rectángulo 45089" width="8.637" height="8.585" transform="translate(-2.842 4.561) rotate(-58.076)" fill="url(#linear-gradient-17)"/>
          </g>
        </g>
        <g id="Grupo_144377" data-name="Grupo 144377" transform="translate(10.007 54.186)">
          <g id="Grupo_144376" data-name="Grupo 144376" clip-path="url(#clip-path-29)">
            <rect id="Rectángulo_45090" data-name="Rectángulo 45090" width="11.335" height="11.343" transform="matrix(0.627, -0.779, 0.779, 0.627, -3.955, 4.601)" fill="url(#linear-gradient-18)"/>
          </g>
        </g>
        <g id="Grupo_144379" data-name="Grupo 144379" transform="translate(12.836 59.679)">
          <g id="Grupo_144378" data-name="Grupo 144378" clip-path="url(#clip-path-30)">
            <rect id="Rectángulo_45091" data-name="Rectángulo 45091" width="2.223" height="2.384" transform="matrix(0.529, -0.849, 0.849, 0.529, -0.736, 1.023)" fill="url(#linear-gradient-19)"/>
          </g>
        </g>
        <g id="Grupo_144381" data-name="Grupo 144381" transform="translate(12.473 70.274)">
          <g id="Grupo_144380" data-name="Grupo 144380" clip-path="url(#clip-path-31)">
            <rect id="Rectángulo_45092" data-name="Rectángulo 45092" width="16.507" height="14.966" transform="matrix(0.972, -0.233, 0.233, 0.972, -2.77, 0.654)" fill="url(#linear-gradient-20)"/>
          </g>
        </g>
        <g id="Grupo_144383" data-name="Grupo 144383" transform="translate(12.928 75.609)">
          <g id="Grupo_144382" data-name="Grupo 144382" clip-path="url(#clip-path-32)">
            <rect id="Rectángulo_45093" data-name="Rectángulo 45093" width="4.197" height="3.736" transform="translate(-0.131 0)" fill="url(#linear-gradient-21)"/>
          </g>
        </g>
        <g id="Grupo_144385" data-name="Grupo 144385">
          <g id="Grupo_144384" data-name="Grupo 144384" clip-path="url(#clip-path)">
            <path id="Trazado_206552" data-name="Trazado 206552" d="M85.314,317.821a.9.9,0,1,0,.9-.9.9.9,0,0,0-.9.9" transform="translate(-65.711 -244.105)" fill="#91b3fa"/>
            <path id="Trazado_206553" data-name="Trazado 206553" d="M68.36,312.175l.622-2.108a.723.723,0,0,1,.543-.507,62.5,62.5,0,0,1,7.332-.493l0-.238a61.094,61.094,0,0,0-7.377.5.961.961,0,0,0-.723.673l-.622,2.108Z" transform="translate(-52.477 -237.869)" fill="#bdd0fb"/>
          </g>
        </g>
        <g id="Grupo_144387" data-name="Grupo 144387" transform="translate(94.893 58.346)">
          <g id="Grupo_144386" data-name="Grupo 144386" clip-path="url(#clip-path-34)">
            <rect id="Rectángulo_45095" data-name="Rectángulo 45095" width="18.707" height="19.347" transform="matrix(0.848, -0.529, 0.529, 0.848, -7.571, 4.151)" fill="url(#linear-gradient-22)"/>
          </g>
        </g>
        <g id="Grupo_144389" data-name="Grupo 144389" transform="translate(105.923 52.029)">
          <g id="Grupo_144388" data-name="Grupo 144388" clip-path="url(#clip-path-35)">
            <rect id="Rectángulo_45096" data-name="Rectángulo 45096" width="23.285" height="23.562" transform="translate(-9.487 5.178) rotate(-33.693)" fill="url(#linear-gradient-23)"/>
          </g>
        </g>
        <g id="Grupo_144391" data-name="Grupo 144391">
          <g id="Grupo_144390" data-name="Grupo 144390" clip-path="url(#clip-path)">
            <path id="Trazado_206556" data-name="Trazado 206556" d="M454.611,276.51a5.926,5.926,0,0,1,5.8,1.478,1.489,1.489,0,0,1,.429,1.484c-.646,2.377-2.349,9.4-.856,12.44,0,0-2.632,2.9-5.5.563,0,0-1.289-5.616-2.977-8.082-1.165-1.7,1.858-6.392,2.623-7.525a.9.9,0,0,1,.485-.358" transform="translate(-347.558 -212.798)" fill="#feca2e"/>
          </g>
        </g>
        <g id="Grupo_144393" data-name="Grupo 144393" transform="translate(107.731 58.989)">
          <g id="Grupo_144392" data-name="Grupo 144392" clip-path="url(#clip-path-37)">
            <rect id="Rectángulo_45098" data-name="Rectángulo 45098" width="6.633" height="5.239" transform="matrix(0.411, -0.912, 0.912, 0.411, -2.201, 4.888)" fill="url(#linear-gradient-24)"/>
          </g>
        </g>
        <g id="Grupo_144395" data-name="Grupo 144395" transform="translate(105.676 54.011)">
          <g id="Grupo_144394" data-name="Grupo 144394" clip-path="url(#clip-path-38)">
            <rect id="Rectángulo_45099" data-name="Rectángulo 45099" width="9.649" height="9.781" transform="matrix(0.908, -0.419, 0.419, 0.908, -4.206, 1.311)" fill="url(#linear-gradient-25)"/>
          </g>
        </g>
        <g id="Grupo_144397" data-name="Grupo 144397" transform="translate(107.448 52.852)">
          <g id="Grupo_144396" data-name="Grupo 144396" clip-path="url(#clip-path-39)">
            <rect id="Rectángulo_45100" data-name="Rectángulo 45100" width="7.298" height="7.324" transform="translate(-2.658 1.637) rotate(-33.693)" fill="url(#linear-gradient-26)"/>
          </g>
        </g>
        <g id="Grupo_144399" data-name="Grupo 144399" transform="translate(110.062 56.92)">
          <g id="Grupo_144398" data-name="Grupo 144398" clip-path="url(#clip-path-40)">
            <rect id="Rectángulo_45101" data-name="Rectángulo 45101" width="2.995" height="2.856" transform="translate(-0.785 0.363) rotate(-24.792)" fill="url(#linear-gradient-27)"/>
          </g>
        </g>
        <g id="Grupo_144401" data-name="Grupo 144401" transform="translate(102.843 91.468)">
          <g id="Grupo_144400" data-name="Grupo 144400" clip-path="url(#clip-path-41)">
            <rect id="Rectángulo_45102" data-name="Rectángulo 45102" width="21.392" height="26.447" transform="translate(-10.26 5.654) rotate(-28.987)" fill="url(#linear-gradient-28)"/>
          </g>
        </g>
        <g id="Grupo_144403" data-name="Grupo 144403" transform="translate(111.041 109.658)">
          <g id="Grupo_144402" data-name="Grupo 144402" clip-path="url(#clip-path-42)">
            <rect id="Rectángulo_45103" data-name="Rectángulo 45103" width="6.47" height="4.722" transform="translate(-0.169 6.426) rotate(-89.456)" fill="url(#linear-gradient-29)"/>
          </g>
        </g>
        <g id="Grupo_144405" data-name="Grupo 144405" transform="translate(106.853 93.388)">
          <g id="Grupo_144404" data-name="Grupo 144404" clip-path="url(#clip-path-43)">
            <rect id="Rectángulo_45104" data-name="Rectángulo 45104" width="23.224" height="12.871" transform="matrix(0.314, -0.95, 0.95, 0.314, -6.679, 20.222)" fill="url(#linear-gradient-30)"/>
          </g>
        </g>
        <g id="Grupo_144407" data-name="Grupo 144407" transform="translate(105.966 110.93)">
          <g id="Grupo_144406" data-name="Grupo 144406" clip-path="url(#clip-path-44)">
            <rect id="Rectángulo_45105" data-name="Rectángulo 45105" width="5.516" height="6.092" transform="translate(-0.15 5.458) rotate(-89.456)" fill="url(#linear-gradient-31)"/>
          </g>
        </g>
        <g id="Grupo_144409" data-name="Grupo 144409" transform="translate(102.701 77.476)">
          <g id="Grupo_144408" data-name="Grupo 144408" clip-path="url(#clip-path-45)">
            <rect id="Rectángulo_45106" data-name="Rectángulo 45106" width="22.168" height="23.069" transform="matrix(0.794, -0.608, 0.608, 0.794, -9.006, 6.873)" fill="url(#linear-gradient-32)"/>
          </g>
        </g>
        <g id="Grupo_144411" data-name="Grupo 144411" transform="translate(109.759 65.37)">
          <g id="Grupo_144410" data-name="Grupo 144410" clip-path="url(#clip-path-46)">
            <rect id="Rectángulo_45107" data-name="Rectángulo 45107" width="15.599" height="16.627" transform="translate(-6.391 4.225) rotate(-33.998)" fill="url(#linear-gradient-33)"/>
          </g>
        </g>
        <g id="Grupo_144413" data-name="Grupo 144413">
          <g id="Grupo_144412" data-name="Grupo 144412" clip-path="url(#clip-path)">
            <rect id="Rectángulo_45108" data-name="Rectángulo 45108" width="1.463" height="15.821" transform="translate(86.069 100.463)" fill="#7d97f4"/>
            <path id="Trazado_206567" data-name="Trazado 206567" d="M362.7,504.228H349.888v-.846a.106.106,0,0,1,.106-.106h12.6a.106.106,0,0,1,.106.106Z" transform="translate(-269.495 -387.639)" fill="#7d97f4"/>
            <rect id="Rectángulo_45109" data-name="Rectángulo 45109" width="17.121" height="4.856" rx="2.428" transform="translate(78.508 96.696)" fill="#7d97f4"/>
          </g>
        </g>
        <g id="Grupo_144415" data-name="Grupo 144415" transform="translate(69.362 111.107)">
          <g id="Grupo_144414" data-name="Grupo 144414" clip-path="url(#clip-path-48)">
            <rect id="Rectángulo_45111" data-name="Rectángulo 45111" width="7.825" height="6.124" transform="matrix(0.968, -0.25, 0.25, 0.968, -1.359, 0.284)" fill="url(#linear-gradient-34)"/>
          </g>
        </g>
        <g id="Grupo_144417" data-name="Grupo 144417" transform="translate(72.955 109.151)">
          <g id="Grupo_144416" data-name="Grupo 144416" clip-path="url(#clip-path-49)">
            <rect id="Rectángulo_45112" data-name="Rectángulo 45112" width="3.329" height="2.883" transform="matrix(0.216, -0.976, 0.976, 0.216, -0.612, 2.763)" fill="url(#linear-gradient-35)"/>
          </g>
        </g>
        <g id="Grupo_144419" data-name="Grupo 144419" transform="translate(70.426 93.21)">
          <g id="Grupo_144418" data-name="Grupo 144418" clip-path="url(#clip-path-50)">
            <rect id="Rectángulo_45113" data-name="Rectángulo 45113" width="23.457" height="22.81" transform="matrix(0.92, -0.391, 0.391, 0.92, -8.59, 2.606)" fill="url(#linear-gradient-36)"/>
          </g>
        </g>
        <g id="Grupo_144421" data-name="Grupo 144421" transform="translate(68.572 113.297)">
          <g id="Grupo_144420" data-name="Grupo 144420" clip-path="url(#clip-path-51)">
            <rect id="Rectángulo_45114" data-name="Rectángulo 45114" width="8.078" height="6.207" transform="translate(-1.318 0.613) rotate(-24.926)" fill="url(#linear-gradient-37)"/>
          </g>
        </g>
        <g id="Grupo_144423" data-name="Grupo 144423" transform="translate(68.149 114.87)">
          <g id="Grupo_144422" data-name="Grupo 144422" clip-path="url(#clip-path-52)">
            <rect id="Rectángulo_45115" data-name="Rectángulo 45115" width="3.885" height="7.917" transform="matrix(0.216, -0.976, 0.976, 0.216, -0.675, 2.19)" fill="url(#linear-gradient-38)"/>
          </g>
        </g>
        <g id="Grupo_144425" data-name="Grupo 144425" transform="translate(74.129 111.784)">
          <g id="Grupo_144424" data-name="Grupo 144424" clip-path="url(#clip-path-53)">
            <rect id="Rectángulo_45116" data-name="Rectángulo 45116" width="3.309" height="3.285" transform="translate(-0.658 2.651) rotate(-77.52)" fill="url(#linear-gradient-39)"/>
          </g>
        </g>
        <g id="Grupo_144427" data-name="Grupo 144427" transform="translate(74.488 92.504)">
          <g id="Grupo_144426" data-name="Grupo 144426" clip-path="url(#clip-path-54)">
            <rect id="Rectángulo_45117" data-name="Rectángulo 45117" width="24.372" height="23.781" transform="translate(-3.856 20.222) rotate(-79.205)" fill="url(#linear-gradient-40)"/>
          </g>
        </g>
        <g id="Grupo_144429" data-name="Grupo 144429">
          <g id="Grupo_144428" data-name="Grupo 144428" clip-path="url(#clip-path)">
            <path id="Trazado_206575" data-name="Trazado 206575" d="M318.121,349.223c3.078.879,4.456-7.784,4.443-7.995l4.719,5.518s-2.812,4.948-7.058,5.474a5.008,5.008,0,0,1-2.754-.4,4.412,4.412,0,0,0,.65-2.594" transform="translate(-244.526 -262.824)" fill="#feca2e"/>
          </g>
        </g>
        <g id="Grupo_144431" data-name="Grupo 144431" transform="translate(65.123 83.408)">
          <g id="Grupo_144430" data-name="Grupo 144430" clip-path="url(#clip-path-56)">
            <rect id="Rectángulo_45119" data-name="Rectángulo 45119" width="7.292" height="9.521" transform="translate(-1.178 5.323) rotate(-77.52)" fill="url(#linear-gradient-41)"/>
          </g>
        </g>
        <g id="Grupo_144433" data-name="Grupo 144433">
          <g id="Grupo_144432" data-name="Grupo 144432" clip-path="url(#clip-path)">
            <path id="Trazado_206577" data-name="Trazado 206577" d="M354.081,323.105s-4.136-2.822-14.126,2.282a3.25,3.25,0,0,0-.547,2.774c.482,1.47,6.413,9.427,6.644,13.162a10.623,10.623,0,0,0,9.318.02s1.765-9.863-1.289-18.239" transform="translate(-261.324 -248.267)" fill="#feca2e"/>
          </g>
        </g>
        <g id="Grupo_144435" data-name="Grupo 144435" transform="translate(80.886 71.231)">
          <g id="Grupo_144434" data-name="Grupo 144434" clip-path="url(#clip-path-58)">
            <rect id="Rectángulo_45121" data-name="Rectángulo 45121" width="6.469" height="6.125" transform="matrix(0.216, -0.976, 0.976, 0.216, -1.162, 5.25)" fill="url(#linear-gradient-42)"/>
          </g>
        </g>
        <g id="Grupo_144437" data-name="Grupo 144437">
          <g id="Grupo_144436" data-name="Grupo 144436" clip-path="url(#clip-path)">
            <path id="Trazado_206579" data-name="Trazado 206579" d="M400.72,336.9c.28-1.947-4.865-5.721-4.865-5.721l1.8-5.464s9.818,7.006,7.753,12.728a4,4,0,0,1-1.276,1.841,6.394,6.394,0,0,0-3.414-3.385" transform="translate(-304.9 -250.875)" fill="#feca2e"/>
          </g>
        </g>
        <g id="Grupo_144439" data-name="Grupo 144439" transform="translate(84.279 86.024)">
          <g id="Grupo_144438" data-name="Grupo 144438" clip-path="url(#clip-path-60)">
            <rect id="Rectángulo_45123" data-name="Rectángulo 45123" width="15.401" height="13.215" transform="translate(-2.629 1.877) rotate(-35.532)" fill="url(#linear-gradient-43)"/>
          </g>
        </g>
        <g id="Grupo_144441" data-name="Grupo 144441" transform="translate(78.594 65.861)">
          <g id="Grupo_144440" data-name="Grupo 144440" clip-path="url(#clip-path-61)">
            <rect id="Rectángulo_45124" data-name="Rectángulo 45124" width="9.545" height="8.952" transform="translate(-1.854 7.824) rotate(-77.966)" fill="url(#linear-gradient-44)"/>
          </g>
        </g>
        <g id="Grupo_144443" data-name="Grupo 144443" transform="translate(80.934 63.581)">
          <g id="Grupo_144442" data-name="Grupo 144442" clip-path="url(#clip-path-62)">
            <rect id="Rectángulo_45125" data-name="Rectángulo 45125" width="10.621" height="10.717" transform="matrix(0.756, -0.654, 0.654, 0.756, -4.27, 3.443)" fill="url(#linear-gradient-45)"/>
          </g>
        </g>
        <g id="Grupo_144445" data-name="Grupo 144445" transform="translate(83.572 70.664)">
          <g id="Grupo_144444" data-name="Grupo 144444" clip-path="url(#clip-path-63)">
            <rect id="Rectángulo_45126" data-name="Rectángulo 45126" width="2.959" height="3" transform="translate(-0.23 2.714) rotate(-85.146)" fill="url(#linear-gradient-46)"/>
          </g>
        </g>
        <g id="Grupo_144447" data-name="Grupo 144447" transform="translate(66.975 89.038)">
          <g id="Grupo_144446" data-name="Grupo 144446" clip-path="url(#clip-path-64)">
            <rect id="Rectángulo_45127" data-name="Rectángulo 45127" width="14.461" height="5.788" transform="translate(-0.365 0.12) rotate(-18.158)" fill="url(#linear-gradient-47)"/>
          </g>
        </g>
        <g id="Grupo_144449" data-name="Grupo 144449" transform="translate(54.454 77.925)">
          <g id="Grupo_144448" data-name="Grupo 144448" clip-path="url(#clip-path-65)">
            <rect id="Rectángulo_45128" data-name="Rectángulo 45128" width="22.423" height="22.707" transform="translate(-6.33 6.51) rotate(-46.586)" fill="url(#linear-gradient-48)"/>
          </g>
        </g>
        <g id="Grupo_144451" data-name="Grupo 144451">
          <g id="Grupo_144450" data-name="Grupo 144450" clip-path="url(#clip-path)">
            <path id="Trazado_206586" data-name="Trazado 206586" d="M269.6,360.111c.245.762.064,1.5-.4,1.654s-1.048-.345-1.294-1.107-.064-1.5.4-1.654,1.048.345,1.294,1.107" transform="translate(-206.259 -276.495)" fill="#91b3fa"/>
            <path id="Trazado_206587" data-name="Trazado 206587" d="M247.011,425.678a.587.587,0,0,1-.225-.045.547.547,0,0,1-.3-.727l11.983-26.969a.579.579,0,0,1,.751-.289.547.547,0,0,1,.3.727l-11.983,26.969a.573.573,0,0,1-.525.335" transform="translate(-189.816 -306.245)" fill="#91b3fa"/>
            <path id="Trazado_206588" data-name="Trazado 206588" d="M265.592,425.677a.572.572,0,0,1-.525-.335l-11.983-26.969a.547.547,0,0,1,.3-.727.579.579,0,0,1,.751.29l11.983,26.969a.547.547,0,0,1-.3.727.586.586,0,0,1-.225.045" transform="translate(-194.897 -306.245)" fill="#91b3fa"/>
            <path id="Trazado_206589" data-name="Trazado 206589" d="M408.447,425.678a.587.587,0,0,1-.225-.045.547.547,0,0,1-.3-.727l11.983-26.969a.579.579,0,0,1,.751-.289.547.547,0,0,1,.3.727l-11.983,26.969a.573.573,0,0,1-.525.335" transform="translate(-314.159 -306.245)" fill="#91b3fa"/>
            <path id="Trazado_206590" data-name="Trazado 206590" d="M427.028,425.677a.572.572,0,0,1-.525-.335L414.52,398.374a.547.547,0,0,1,.3-.727.579.579,0,0,1,.751.29l11.983,26.969a.547.547,0,0,1-.3.727.588.588,0,0,1-.226.045" transform="translate(-319.24 -306.245)" fill="#91b3fa"/>
            <path id="Trazado_206591" data-name="Trazado 206591" d="M288.634,393.027a.657.657,0,0,0-.113-.5.518.518,0,0,0-.416-.219H233.59a.608.608,0,0,0-.523.32.767.767,0,0,0-.041.666l.591,1.431a.827.827,0,0,0,.751.538H287.73a.649.649,0,0,0,.615-.568Z" transform="translate(-179.44 -302.169)" fill="#91b3fa"/>
          </g>
        </g>
      </g>
    </g>
  </g>
</svg>
