<svg xmlns="http://www.w3.org/2000/svg" width="475.934" height="379.521" viewBox="0 0 475.934 379.521">
  <g id="Grupo_146522" data-name="Grupo 146522" transform="translate(-7781 -2019)">
    <g id="_1d" data-name="1d" transform="translate(7770.9 1957.86)">
      <g id="Grupo_141108" data-name="Grupo 141108" transform="translate(10.1 61.14)">
        <g id="Grupo_141083" data-name="Grupo 141083" transform="translate(314.301 58.571)" opacity="0.3">
          <rect id="Rectángulo_44084" data-name="Rectángulo 44084" width="41.641" height="118.891" rx="8.66" fill="#d2e1f1"/>
        </g>
        <path id="Trazado_192070" data-name="Trazado 192070" d="M328.271,134.28l-6.251,64.96H219l6.243-64.96Z" transform="translate(-48.969 -74.749)" fill="#89d1de"/>
        <path id="Trazado_192071" data-name="Trazado 192071" d="M328.434,189.259H285.58l2.6-17.719h42.854Z" transform="translate(-61.357 -81.682)" fill="#daebe8"/>
        <g id="Grupo_141084" data-name="Grupo 141084" transform="translate(229.782 93.147)">
          <path id="Trazado_192072" data-name="Trazado 192072" d="M308.487,176.6H293.47l.106-1.017h15.017Z" transform="translate(-292.607 -175.58)" fill="#1d1d1b"/>
          <path id="Trazado_192073" data-name="Trazado 192073" d="M307.427,187.289H292.41l.106-1.009h15.017Z" transform="translate(-292.41 -177.571)" fill="#1d1d1b"/>
          <path id="Trazado_192074" data-name="Trazado 192074" d="M315.656,181.569H292.98l.1-1.009h22.684Z" transform="translate(-292.516 -176.507)" fill="#1d1d1b"/>
          <path id="Trazado_192075" data-name="Trazado 192075" d="M330.517,176.6H315.5l.1-1.017h15.017Z" transform="translate(-296.706 -175.58)" fill="#1d1d1b"/>
        </g>
        <path id="Trazado_192076" data-name="Trazado 192076" d="M217.08,134.28h7.806l-6.243,64.96H217.08Z" transform="translate(-48.612 -74.749)" fill="#1d1d1b"/>
        <g id="Grupo_141087" data-name="Grupo 141087" transform="translate(177.975 67.093)">
          <path id="Trazado_192077" data-name="Trazado 192077" d="M282.742,206.828c.2.521-41.372-.488-41.372-.488.212-4.582.407-9.539.472-13.747.179-11.338-.887-14.228,8.986-18.59.106-.049.212-.09.317-.138.212-.1.44-.187.667-.285a16.957,16.957,0,0,1,1.986-.594h0a1.017,1.017,0,0,0,.13-.033h0c2.662-.667,9.653-.016,10.37.065,6.772.79,9.588,2.377,12.266,6.853C279.576,184.917,285.249,205.623,282.742,206.828Z" transform="translate(-231.106 -148.982)" fill="#0f2771"/>
          <path id="Trazado_192078" data-name="Trazado 192078" d="M268.07,183.212a.578.578,0,1,1,.578.6A.591.591,0,0,1,268.07,183.212Z" transform="translate(-236.074 -150.835)" fill="#ffb27d"/>
          <path id="Trazado_192079" data-name="Trazado 192079" d="M271.05,207a.578.578,0,1,1,.578.6A.591.591,0,0,1,271.05,207Z" transform="translate(-236.629 -155.261)" fill="#ffb27d"/>
          <path id="Trazado_192080" data-name="Trazado 192080" d="M271.05,196.222a.578.578,0,1,1,.578.6A.591.591,0,0,1,271.05,196.222Z" transform="translate(-236.629 -153.255)" fill="#ffb27d"/>
          <path id="Trazado_192081" data-name="Trazado 192081" d="M239.862,206.568c.179-.57.358-1.148.537-1.726a.155.155,0,0,1,.024-.065c2.141-6.682,4.9-13.357,8.034-16.393l.317-13.487h0l.016-.806v-.212s-.114.033-.334.114c-2.246.822-14.968,6.275-18.419,25.118-.5,2.7-.928,5.193-1.278,7.464h11.094Z" transform="translate(-228.76 -149.21)" fill="#0f2771"/>
          <path id="Trazado_192082" data-name="Trazado 192082" d="M242.441,211.231l-.171-.057c.163-.521.342-1.066.562-1.734a.259.259,0,0,1,.024-.073c1.913-5.706,4.127-10.549,4.151-10.6l.163.073c-.024.049-2.23,4.892-4.143,10.589,0,.016-.016.041-.016.057-.228.676-.407,1.221-.562,1.742Z" transform="translate(-231.274 -153.841)" fill="#1d1d1b"/>
          <path id="Trazado_192083" data-name="Trazado 192083" d="M285.02,208.468a59.824,59.824,0,0,0-.529-6.463v-.065a121.138,121.138,0,0,0-4.021-17.833l.171-.057a121.292,121.292,0,0,1,4.021,17.858v.073a56.069,56.069,0,0,1,.529,6.479h-.179Z" transform="translate(-238.381 -151.103)" fill="#1d1d1b"/>
          <path id="Trazado_192084" data-name="Trazado 192084" d="M256.51,169.619a7.343,7.343,0,0,0,6.056,3.207c3.858.26,2.336-4.013,2.336-4.013a1.442,1.442,0,0,1-1.441-1.612l-.016-1.221v-.6l-.033-1.929-.024-1.734-.081-7.106-2.255,7.081-.383,1.2-1.327,4.151a3.776,3.776,0,0,1-2.808,2.572h-.016Z" transform="translate(-233.923 -145.625)" fill="#ffb27d"/>
          <path id="Trazado_192085" data-name="Trazado 192085" d="M261.61,164.79s1,2.165,2.776,2.491l-.024-1.929a27.554,27.554,0,0,0-2.751-.553Z" transform="translate(-234.872 -147.519)" fill="#1d1d1b"/>
          <path id="Trazado_192086" data-name="Trazado 192086" d="M254.16,155.85a8.194,8.194,0,0,1,.5,3.532c-.057,3.622,3.988,3.988,4.7,2.759.09-.155-1.506-5.836-1.506-5.836l-1.367-.4-2.312-.057Z" transform="translate(-233.486 -145.856)" fill="#1d1d1b"/>
          <path id="Trazado_192087" data-name="Trazado 192087" d="M269.026,152.3c-1.1-4.379-4.762-7.154-8.164-6.194s-5.282,5.3-4.176,9.678,4.762,7.154,8.164,6.194S270.133,156.68,269.026,152.3Z" transform="translate(-233.897 -144.007)" fill="#ffb27d"/>
          <path id="Trazado_192088" data-name="Trazado 192088" d="M263.261,146.966c-.114.293,1.888,4.1-5.128,7.122s-4.957-7.382.342-9.1c7.659-2.483,10.142,2.621,9.889,4.778s-5.112-2.8-5.112-2.8Z" transform="translate(-233.39 -143.711)" fill="#1d1d1b"/>
          <path id="Trazado_192089" data-name="Trazado 192089" d="M259.02,154.45s-2.149,4.094-.285,7.138c0,0-2.214-1.473-2.434-2.189a31.136,31.136,0,0,1-.431-3.492l3.142-1.457Z" transform="translate(-233.804 -145.595)" fill="#1d1d1b"/>
          <path id="Trazado_192090" data-name="Trazado 192090" d="M257.9,158.536a1.537,1.537,0,0,0,2.222-.456,1.843,1.843,0,0,0-.944-2.263,1.537,1.537,0,0,0-2.222.456A1.851,1.851,0,0,0,257.9,158.536Z" transform="translate(-233.982 -145.799)" fill="#ffb27d"/>
          <path id="Trazado_192091" data-name="Trazado 192091" d="M264.684,155.72a.3.3,0,0,0,.073-.114.161.161,0,0,0-.122-.171,1.567,1.567,0,0,0-1.709.936.148.148,0,0,0,.057.2.151.151,0,0,0,.2-.065,2.5,2.5,0,0,1,1.424-.781.161.161,0,0,0,.09-.016Z" transform="translate(-235.113 -145.774)" fill="#080435"/>
          <path id="Trazado_192092" data-name="Trazado 192092" d="M264.225,157.977c.073.35.342.586.586.529s.383-.4.3-.749-.342-.586-.586-.529S264.143,157.627,264.225,157.977Z" transform="translate(-235.354 -146.11)" fill="#080435"/>
          <path id="Trazado_192093" data-name="Trazado 192093" d="M271.049,154.868a.137.137,0,0,0,.106-.073.148.148,0,0,0-.057-.2,1.519,1.519,0,0,0-1.921.187.154.154,0,0,0-.024.212.159.159,0,0,0,.2.024,2.371,2.371,0,0,1,1.6-.155.119.119,0,0,0,.09.016Z" transform="translate(-236.27 -145.573)" fill="#080435"/>
          <path id="Trazado_192094" data-name="Trazado 192094" d="M269.827,156.7c-.057.358.1.684.342.724s.5-.212.553-.57-.1-.684-.342-.724S269.884,156.341,269.827,156.7Z" transform="translate(-236.399 -145.907)" fill="#080435"/>
          <g id="Grupo_141085" data-name="Grupo 141085" transform="translate(25.537 7.184)" opacity="0.3">
            <ellipse id="Elipse_4924" data-name="Elipse 4924" cx="2.474" cy="3.785" rx="2.474" ry="3.785" transform="translate(0 0.694) rotate(-8.06)" fill="#fff"/>
          </g>
          <g id="Grupo_141086" data-name="Grupo 141086" transform="translate(32.465 6.895)" opacity="0.3">
            <path id="Trazado_192095" data-name="Trazado 192095" d="M268.658,155.166c.13,2,1.229,3.866,2.474,4.159s2.141-1.083,2.019-3.085-1.229-3.866-2.474-4.159S268.535,153.164,268.658,155.166Z" transform="translate(-268.646 -152.042)" fill="#fff"/>
          </g>
          <path id="Trazado_192096" data-name="Trazado 192096" d="M260.764,156.172a4.8,4.8,0,0,1-.008-.684,4.942,4.942,0,0,1,.073-.619.116.116,0,0,0-.024.016c-.016.057-.024.122-.041.187-.024.122-.041.252-.057.383a1.457,1.457,0,0,1-.016.187v.374a1.516,1.516,0,0,1,.081.163Zm0,0a4.8,4.8,0,0,1-.008-.684,4.942,4.942,0,0,1,.073-.619.116.116,0,0,0-.024.016c-.016.057-.024.122-.041.187-.024.122-.041.252-.057.383a1.457,1.457,0,0,1-.016.187v.374a1.516,1.516,0,0,1,.081.163Zm0,0a4.8,4.8,0,0,1-.008-.684,4.942,4.942,0,0,1,.073-.619.116.116,0,0,0-.024.016c-.016.057-.024.122-.041.187-.024.122-.041.252-.057.383a1.457,1.457,0,0,1-.016.187v.374a1.516,1.516,0,0,1,.081.163Zm5.25-.383h0a2.752,2.752,0,0,0-.09-.464h0a4.29,4.29,0,0,0-2.043-2.963h0a2.828,2.828,0,0,0-.366-.138,1.944,1.944,0,0,0-1.726.35,3.619,3.619,0,0,0-1.229,2.434c-.016.155-.033.309-.041.464v.277h0a6.492,6.492,0,0,0,.049.806c.033.22.073.431.122.643.024.1.057.2.09.3h0a4.439,4.439,0,0,0,1.465,2.263.025.025,0,0,1,.016.008,2.506,2.506,0,0,0,.822.407,1.921,1.921,0,0,0,.83.049,1.612,1.612,0,0,0,.212-.049h0a2.143,2.143,0,0,0,.676-.35,3.31,3.31,0,0,0,1.115-1.848,5.347,5.347,0,0,0,.155-1.05,5.913,5.913,0,0,0-.057-1.14Zm-.334,2.124a3.675,3.675,0,0,1-.464,1.091h0v.008a2.366,2.366,0,0,1-.553.61,1.933,1.933,0,0,1-.537.293.116.116,0,0,0-.049.016,1.664,1.664,0,0,1-.936,0,2.144,2.144,0,0,1-.8-.415.344.344,0,0,0-.057-.041,4.417,4.417,0,0,1-1.376-2.377h0c-.033-.155-.065-.309-.09-.472a4.113,4.113,0,0,1-.049-.456h0a4.8,4.8,0,0,1-.008-.684,4.942,4.942,0,0,1,.073-.619,2.447,2.447,0,0,1,.073-.334v-.049h0a3.908,3.908,0,0,1,.2-.594,2.692,2.692,0,0,1,.822-1.107,1.705,1.705,0,0,1,1.522-.309,1.592,1.592,0,0,1,.277.1h0a3.965,3.965,0,0,1,1.978,2.849h0a4.4,4.4,0,0,1,.081.472h0a5.47,5.47,0,0,1,.049,1.034,4.863,4.863,0,0,1-.146,1Zm-4.916-1.742a4.8,4.8,0,0,1-.008-.684,4.942,4.942,0,0,1,.073-.619.116.116,0,0,0-.024.016c-.016.057-.024.122-.041.187-.024.122-.041.252-.057.383a1.457,1.457,0,0,1-.016.187v.374a1.516,1.516,0,0,1,.081.163Zm0,0a4.8,4.8,0,0,1-.008-.684,4.942,4.942,0,0,1,.073-.619.116.116,0,0,0-.024.016c-.016.057-.024.122-.041.187-.024.122-.041.252-.057.383a1.457,1.457,0,0,1-.016.187v.374a1.516,1.516,0,0,1,.081.163Z" transform="translate(-234.669 -145.168)" fill="#68a1bf"/>
          <path id="Trazado_192097" data-name="Trazado 192097" d="M268.77,155.6s-.024,0-.033-.016a.06.06,0,0,1-.049-.016h0v.016h0v.016a1.9,1.9,0,0,0,.041.228v.049a.347.347,0,0,0,.016.09,1.3,1.3,0,0,0,.041.171.1.1,0,0,0,.008.049c.016.049.024.09.041.138l.049.171h0c.016.057.041.114.057.171.016.041.033.09.049.13s.024.065.033.1.024.065.041.1h0v.024a.907.907,0,0,0,.057.13.061.061,0,0,0,.008.033h0a6.246,6.246,0,0,1-.383-1.6Zm0,0s-.024,0-.033-.016a.06.06,0,0,1-.049-.016h0v.016h0v.016a1.9,1.9,0,0,0,.041.228v.049a.347.347,0,0,0,.016.09,1.3,1.3,0,0,0,.041.171.1.1,0,0,0,.008.049c.016.049.024.09.041.138l.049.171h0c.016.057.041.114.057.171.016.041.033.09.049.13s.024.065.033.1.024.065.041.1h0v.024a.907.907,0,0,0,.057.13.061.061,0,0,0,.008.033h0a6.246,6.246,0,0,1-.383-1.6Zm0,0s-.024,0-.033-.016a.06.06,0,0,1-.049-.016h0v.016h0v.016a1.9,1.9,0,0,0,.041.228v.049a.347.347,0,0,0,.016.09,1.3,1.3,0,0,0,.041.171.1.1,0,0,0,.008.049c.016.049.024.09.041.138l.049.171h0c.016.057.041.114.057.171.016.041.033.09.049.13s.024.065.033.1.024.065.041.1h0v.024a.907.907,0,0,0,.057.13.061.061,0,0,0,.008.033h0a6.246,6.246,0,0,1-.383-1.6Zm0,0s-.024,0-.033-.016a.06.06,0,0,1-.049-.016h0v.016h0v.016a1.9,1.9,0,0,0,.041.228v.049a.347.347,0,0,0,.016.09,1.3,1.3,0,0,0,.041.171.1.1,0,0,0,.008.049c.016.049.024.09.041.138l.049.171h0c.016.057.041.114.057.171.016.041.033.09.049.13s.024.065.033.1.024.065.041.1h0v.024a.907.907,0,0,0,.057.13.061.061,0,0,0,.008.033h0a6.246,6.246,0,0,1-.383-1.6Zm0,0s-.024,0-.033-.016a.06.06,0,0,1-.049-.016h0v.016h0v.016a1.9,1.9,0,0,0,.041.228v.049a.347.347,0,0,0,.016.09,1.3,1.3,0,0,0,.041.171.1.1,0,0,0,.008.049c.016.049.024.09.041.138l.049.171h0c.016.057.041.114.057.171.016.041.033.09.049.13s.024.065.033.1.024.065.041.1h0v.024a.907.907,0,0,0,.057.13.061.061,0,0,0,.008.033h0a6.246,6.246,0,0,1-.383-1.6Zm0,0s-.024,0-.033-.016a.06.06,0,0,1-.049-.016h0v.016h0v.016a1.9,1.9,0,0,0,.041.228v.049a.347.347,0,0,0,.016.09,1.3,1.3,0,0,0,.041.171.1.1,0,0,0,.008.049c.016.049.024.09.041.138l.049.171h0c.016.057.041.114.057.171.016.041.033.09.049.13s.024.065.033.1.024.065.041.1h0v.024a.907.907,0,0,0,.057.13.061.061,0,0,0,.008.033h0a6.246,6.246,0,0,1-.383-1.6Zm0,0s-.024,0-.033-.016a.06.06,0,0,1-.049-.016h0v.016h0v.016a1.9,1.9,0,0,0,.041.228v.049a.347.347,0,0,0,.016.09,1.3,1.3,0,0,0,.041.171.1.1,0,0,0,.008.049c.016.049.024.09.041.138l.049.171h0c.016.057.041.114.057.171.016.041.033.09.049.13s.024.065.033.1.024.065.041.1h0v.024a.907.907,0,0,0,.057.13.061.061,0,0,0,.008.033h0a6.246,6.246,0,0,1-.383-1.6Zm4.591.5c.049-2.149-.993-4.2-2.312-4.574-.033,0-.057-.016-.081-.016h0a1.558,1.558,0,0,0-.334-.041h0a1.4,1.4,0,0,0-.448.073h0a1.9,1.9,0,0,0-.521.277,3.9,3.9,0,0,0-1.156,2.979v.252a4.589,4.589,0,0,0,.024.472h0a5.808,5.808,0,0,0,.171,1.009,5.308,5.308,0,0,0,.83,1.839h0a2.506,2.506,0,0,0,1.286.993c.033,0,.057.016.09.016h0a1.555,1.555,0,0,0,.724-.016,1.728,1.728,0,0,0,.57-.293,3.87,3.87,0,0,0,1.156-2.979Zm-2.6,2.987h-.016a2.126,2.126,0,0,1-.806-.578,4.071,4.071,0,0,1-.741-1.221.155.155,0,0,0-.024-.065h0a6.246,6.246,0,0,1-.383-1.6c-.016-.163-.024-.334-.033-.5h0v-.293a5.21,5.21,0,0,1,.3-1.669,2.666,2.666,0,0,1,.724-1.083h0l.033-.033a1.44,1.44,0,0,1,.48-.252,1.225,1.225,0,0,1,.456-.041,1.2,1.2,0,0,1,.236.041c1.221.342,2.181,2.287,2.141,4.322v.024h0v.016h0a3.606,3.606,0,0,1-1.058,2.727,1.282,1.282,0,0,1-1.05.277h0a.436.436,0,0,1-.13-.033.564.564,0,0,1-.106-.041h0Zm-1.994-3.5s-.024,0-.033-.016a.06.06,0,0,1-.049-.016h0v.016h0v.016a1.9,1.9,0,0,0,.041.228v.049a.347.347,0,0,0,.016.09,1.3,1.3,0,0,0,.041.171.1.1,0,0,0,.008.049c.016.049.024.09.041.138l.049.171h0c.016.057.041.114.057.171.016.041.033.09.049.13s.024.065.033.1.024.065.041.1h0V157a.907.907,0,0,0,.057.13.061.061,0,0,0,.008.033h0a6.246,6.246,0,0,1-.383-1.6Zm0,0s-.024,0-.033-.016a.06.06,0,0,1-.049-.016h0v.016h0v.016a1.9,1.9,0,0,0,.041.228v.049a.347.347,0,0,0,.016.09,1.3,1.3,0,0,0,.041.171.1.1,0,0,0,.008.049c.016.049.024.09.041.138l.049.171h0c.016.057.041.114.057.171.016.041.033.09.049.13s.024.065.033.1.024.065.041.1h0V157a.907.907,0,0,0,.057.13.061.061,0,0,0,.008.033h0a6.246,6.246,0,0,1-.383-1.6Zm0,0s-.024,0-.033-.016a.06.06,0,0,1-.049-.016h0v.016h0v.016a1.9,1.9,0,0,0,.041.228v.049a.347.347,0,0,0,.016.09,1.3,1.3,0,0,0,.041.171.1.1,0,0,0,.008.049c.016.049.024.09.041.138l.049.171h0c.016.057.041.114.057.171.016.041.033.09.049.13s.024.065.033.1.024.065.041.1h0V157a.907.907,0,0,0,.057.13.061.061,0,0,0,.008.033h0a6.246,6.246,0,0,1-.383-1.6Zm0,0s-.024,0-.033-.016a.06.06,0,0,1-.049-.016h0v.016h0v.016a1.9,1.9,0,0,0,.041.228v.049a.347.347,0,0,0,.016.09,1.3,1.3,0,0,0,.041.171.1.1,0,0,0,.008.049c.016.049.024.09.041.138l.049.171h0c.016.057.041.114.057.171.016.041.033.09.049.13s.024.065.033.1.024.065.041.1h0V157a.907.907,0,0,0,.057.13.061.061,0,0,0,.008.033h0a6.246,6.246,0,0,1-.383-1.6Zm0,0s-.024,0-.033-.016a.06.06,0,0,1-.049-.016h0v.016h0v.016a1.9,1.9,0,0,0,.041.228v.049a.347.347,0,0,0,.016.09,1.3,1.3,0,0,0,.041.171.1.1,0,0,0,.008.049c.016.049.024.09.041.138l.049.171h0c.016.057.041.114.057.171.016.041.033.09.049.13s.024.065.033.1.024.065.041.1h0V157a.907.907,0,0,0,.057.13.061.061,0,0,0,.008.033h0a6.246,6.246,0,0,1-.383-1.6Zm0,0s-.024,0-.033-.016a.06.06,0,0,1-.049-.016h0v.016h0v.016a1.9,1.9,0,0,0,.041.228v.049a.347.347,0,0,0,.016.09,1.3,1.3,0,0,0,.041.171.1.1,0,0,0,.008.049c.016.049.024.09.041.138l.049.171h0c.016.057.041.114.057.171.016.041.033.09.049.13s.024.065.033.1.024.065.041.1h0V157a.907.907,0,0,0,.057.13.061.061,0,0,0,.008.033h0a6.246,6.246,0,0,1-.383-1.6Zm0,0s-.024,0-.033-.016a.06.06,0,0,1-.049-.016h0v.016h0v.016a1.9,1.9,0,0,0,.041.228v.049a.347.347,0,0,0,.016.09,1.3,1.3,0,0,0,.041.171.1.1,0,0,0,.008.049c.016.049.024.09.041.138l.049.171h0c.016.057.041.114.057.171.016.041.033.09.049.13s.024.065.033.1.024.065.041.1h0V157a.907.907,0,0,0,.057.13.061.061,0,0,0,.008.033h0a6.246,6.246,0,0,1-.383-1.6Zm0,0s-.024,0-.033-.016a.06.06,0,0,1-.049-.016h0v.016h0v.016a1.9,1.9,0,0,0,.041.228v.049a.347.347,0,0,0,.016.09,1.3,1.3,0,0,0,.041.171.1.1,0,0,0,.008.049c.016.049.024.09.041.138l.049.171h0c.016.057.041.114.057.171.016.041.033.09.049.13s.024.065.033.1.024.065.041.1h0V157a.907.907,0,0,0,.057.13.061.061,0,0,0,.008.033h0a6.246,6.246,0,0,1-.383-1.6Z" transform="translate(-236.156 -145.041)" fill="#68a1bf"/>
          <path id="Trazado_192098" data-name="Trazado 192098" d="M268.55,156.438a.208.208,0,0,0,.147-.138.237.237,0,0,0-.114-.309,2.351,2.351,0,0,0-2.01.22.238.238,0,0,0-.1.317.221.221,0,0,0,.3.1,1.932,1.932,0,0,1,1.628-.2.184.184,0,0,0,.146.008Z" transform="translate(-235.773 -145.858)" fill="#1d1d1b"/>
          <path id="Trazado_192099" data-name="Trazado 192099" d="M255.877,173.05l-2.645.358a1.468,1.468,0,0,0,.692,1.921c1.245.537,1.506.553,1.84,1.612a1.958,1.958,0,0,0,2.507.887c.578-.326,1.473,1.091,2.377,1.148s1.555-1.579,1.278-2.719a16.271,16.271,0,0,1-6.056-3.207Z" transform="translate(-233.291 -149.056)" fill="#fff"/>
          <path id="Trazado_192100" data-name="Trazado 192100" d="M266.286,172.042s1.335,4.159-2.336,4.013c0,0,1.791,2.141,3.191,1.424s.163-1.522.765-2.027,1.709-.765,1.18-1.433c-.236-.3-.212-.5-.106-.643a.486.486,0,0,0-.024-.651,2.827,2.827,0,0,0-2.67-.692Z" transform="translate(-235.308 -148.854)" fill="#fff"/>
          <path id="Trazado_192101" data-name="Trazado 192101" d="M266.637,162.493a4.8,4.8,0,0,1-1.229-.171.073.073,0,0,1-.049-.1c.016-.041.057-.073.1-.049.024,0,2.466.765,3.394-1.034a.1.1,0,0,1,.106-.033.086.086,0,0,1,.033.106,2.481,2.481,0,0,1-2.352,1.27Z" transform="translate(-235.569 -146.834)" fill="#020202"/>
          <path id="Trazado_192102" data-name="Trazado 192102" d="M255.9,146.842s-.627-2.963-3.394-3.239-3.239,1.3-3.793,2.637-2.369,3.467,0,4.965,5.608,0,5.608,0l1.571-4.363Z" transform="translate(-232.251 -143.571)" fill="#1d1d1b"/>
        </g>
        <path id="Trazado_192103" data-name="Trazado 192103" d="M330.954,160.5H288.1l2.6-17.719h42.854Z" transform="translate(-61.826 -76.33)" fill="#daebe8"/>
        <g id="Grupo_141088" data-name="Grupo 141088" transform="translate(231.833 69.738)">
          <path id="Trazado_192104" data-name="Trazado 192104" d="M311.007,147.837H295.99l.106-1.017h15.017Z" transform="translate(-295.127 -146.82)" fill="#1d1d1b"/>
          <path id="Trazado_192105" data-name="Trazado 192105" d="M309.947,158.529H294.93l.106-1.009h15.017Z" transform="translate(-294.93 -148.811)" fill="#1d1d1b"/>
          <path id="Trazado_192106" data-name="Trazado 192106" d="M318.176,152.817H295.5l.1-1.017h22.684Z" transform="translate(-295.036 -147.747)" fill="#1d1d1b"/>
          <path id="Trazado_192107" data-name="Trazado 192107" d="M333.037,147.837H318.02l.1-1.017h15.017Z" transform="translate(-299.226 -146.82)" fill="#1d1d1b"/>
        </g>
        <path id="Trazado_192108" data-name="Trazado 192108" d="M322.034,199.661H216.41V133.61H328.383l-6.349,66.051ZM217.5,198.57H321.041l6.137-63.869H217.5Z" transform="translate(-48.487 -74.624)" fill="#1d1d1b"/>
        <g id="Grupo_141089" data-name="Grupo 141089" transform="translate(371.795 58.574)" opacity="0.5">
          <path id="Trazado_192109" data-name="Trazado 192109" d="M474.492,312.142,466.9,146.059a9.715,9.715,0,0,1,9.23-10.166l85.659-2.784a8.984,8.984,0,0,1,9.238,9.263l-2.377,168.851a9.7,9.7,0,0,1-9.531,9.6l-75.68.016a8.971,8.971,0,0,1-8.937-8.693Z" transform="translate(-466.888 -133.104)" fill="#d2e1f1"/>
          <path id="Trazado_192110" data-name="Trazado 192110" d="M555.846,316.57h-.016l-67.036-.106a8.417,8.417,0,0,1-8.123-8.351l-6.723-155.559a9.67,9.67,0,0,1,2.531-6.975,8.342,8.342,0,0,1,5.844-2.743l75.875-2.466a7.834,7.834,0,0,1,5.746,2.271,9.1,9.1,0,0,1,2.645,6.634L564.482,307.4c-.065,5.063-3.94,9.181-8.636,9.181Zm-74.76-8.481a8.01,8.01,0,0,0,7.708,7.952l67.036.106h.016c4.469,0,8.156-3.931,8.221-8.774l2.108-158.131a8.737,8.737,0,0,0-2.515-6.332,7.378,7.378,0,0,0-5.209-2.157h-.244l-75.875,2.466a7.917,7.917,0,0,0-5.551,2.613,9.267,9.267,0,0,0-2.417,6.682l6.723,155.559Z" transform="translate(-468.199 -134.455)" fill="#e4f9f6"/>
          <path id="Trazado_192111" data-name="Trazado 192111" d="M485.03,240.544a3.78,3.78,0,0,1,3.6-3.785,3.492,3.492,0,0,1,3.6,3.549,3.78,3.78,0,0,1-3.6,3.785A3.492,3.492,0,0,1,485.03,240.544Z" transform="translate(-470.263 -152.39)" fill="#e4f9f6"/>
        </g>
        <rect id="Rectángulo_44085" data-name="Rectángulo 44085" width="4.973" height="162.331" transform="translate(94.628 36.22)" fill="#1d1d1b"/>
        <rect id="Rectángulo_44086" data-name="Rectángulo 44086" width="4.973" height="162.331" transform="translate(34.438 36.22)" fill="#1d1d1b"/>
        <rect id="Rectángulo_44087" data-name="Rectángulo 44087" width="4.973" height="162.331" transform="translate(290.404 36.22)" fill="#1d1d1b"/>
        <g id="Grupo_141090" data-name="Grupo 141090" transform="translate(107.921 85.849)">
          <path id="Trazado_192112" data-name="Trazado 192112" d="M240.475,223.3s17.321,51.359,17.5,65.75-16.336-3.728-16.336-3.728l-9.409-56.365,8.253-5.657Z" transform="translate(-159.352 -177.161)" fill="#ffb27d"/>
          <path id="Trazado_192113" data-name="Trazado 192113" d="M189.95,200.9s.871-3.256-2.849-4.355-1.172,7.667-10.418,6.723-6.129,3.06-9.1,5.974-16.01-3.785-20.69,7.716,3.541,19.95,19.7,20.527,9.775,9.743,23.449,4.656,7.618-27.478,3.777-30.987-3.866-10.247-3.866-10.247Z" transform="translate(-143.232 -172.165)" fill="#1d1d1b"/>
          <path id="Trazado_192114" data-name="Trazado 192114" d="M236.464,292.268s-.236,23.555-2.084,65.123c-1.449,32.59-1.148,62.787-3.923,77.1-.993,5.12-37.767,2.507-37.368-3.126l8.7-100.676,1.66-31.874,33.013-6.552Z" transform="translate(-152.069 -189.992)" fill="#e84828"/>
          <path id="Trazado_192115" data-name="Trazado 192115" d="M171.69,312.895c.309,2.6,14.635,2.287,32.183,0s31.2-6.186,30.9-8.79-14.455-2.922-32-.635-31.377,6.821-31.068,9.425Z" transform="translate(-148.088 -191.792)" fill="#1d1d1b"/>
          <path id="Trazado_192116" data-name="Trazado 192116" d="M206.942,310.582,174.287,437.491c-1.571,5.177-32.549,4.485-31.573-1.009L168.053,316.45a3.779,3.779,0,0,1,2.588-2.865c7.024-2.084,37-8.115,36.31-3Z" transform="translate(-142.692 -193.028)" fill="#e84828"/>
          <path id="Trazado_192117" data-name="Trazado 192117" d="M178.4,222.732s3.329-11.509,21.081-10.858c9.743.358,19.99-2.458,24.556,13.226a311.369,311.369,0,0,1,10.711,62.242s-29.074-6.552-63.121,8.734c0,0-1.017-52.344,6.78-73.344Z" transform="translate(-148.068 -175.03)" fill="#f4d402"/>
          <path id="Trazado_192118" data-name="Trazado 192118" d="M164.42,220.877l11.126,9.393s41.966,10.98,48.1,4.6c4.208-4.379,6.446-10.63,5.022-13.869a43.019,43.019,0,0,0-29.725-9.971,59.16,59.16,0,0,1-7,.057c-14.871-.863-27.511,9.783-27.511,9.783Z" transform="translate(-146.735 -174.868)" fill="#f4d402"/>
          <path id="Trazado_192119" data-name="Trazado 192119" d="M198.587,388.5l-.627-.146,9.971-43.668A24.406,24.406,0,0,1,218.715,331l.326.545a23.769,23.769,0,0,0-10.492,13.3L198.587,388.5Z" transform="translate(-152.976 -197.2)" fill="#020202"/>
          <path id="Trazado_192120" data-name="Trazado 192120" d="M197.126,206.447a5.429,5.429,0,0,0,4.42-3.321l2.434-5.8.708-1.685,4.151-9.9L208.123,196l-.431,6.161-.122,1.758a2.787,2.787,0,0,0,2.246,2.955h.024c.741,1.237,1.758,3.744-1.286,4.737-3.581,1.172-9.368-1.726-11.444-5.152h.033Z" transform="translate(-152.817 -170.172)" fill="#ffb27d"/>
          <path id="Trazado_192121" data-name="Trazado 192121" d="M206.17,199.234a7.656,7.656,0,0,0,3.174,5.266l.024-.016.431-6.161c-1.05-.4-3.63.846-3.622.9Z" transform="translate(-154.503 -172.499)" fill="#1d1d1b"/>
          <ellipse id="Elipse_4925" data-name="Elipse 4925" cx="9.409" cy="11.859" rx="9.409" ry="11.859" transform="matrix(0.955, -0.298, 0.298, 0.955, 42.759, 8.111)" fill="#ffb27d"/>
          <path id="Trazado_192122" data-name="Trazado 192122" d="M189.02,310.9s35.015-6.87,46.37-3.63l-5.445,8.294-20.234,1.18-20.682-5.836Z" transform="translate(-151.312 -192.624)" fill="#e84828"/>
          <path id="Trazado_192123" data-name="Trazado 192123" d="M202.039,177.379c1.017,1.913,5.763,1.815,9.051.814,4.1-1.245,5.6,4.127,6.381,1.636s.5-9.539-4.192-12.2-15.505.334-16.189,4.135c-1,5.592,4.078,3.98,4.949,5.616Z" transform="translate(-152.79 -166.614)" fill="#1d1d1b"/>
          <path id="Trazado_192124" data-name="Trazado 192124" d="M196.612,175.634s2.914-.285,3.215.985,2.987,2.914,1.481,4.33-1.766,2.035-1.294,3.394c.334.944-.562,3.622-.488,5.738a6.909,6.909,0,0,0,1.115,2.5s-7.561.106-9.075-8.253c-.985-5.445,3.117-8.774,5.046-8.685Z" transform="translate(-151.758 -168.287)" fill="#1d1d1b"/>
          <path id="Trazado_192125" data-name="Trazado 192125" d="M200.236,192.005a2.275,2.275,0,0,0,3.207-.912,2.666,2.666,0,0,0-1.644-3.15,2.275,2.275,0,0,0-3.207.912A2.666,2.666,0,0,0,200.236,192.005Z" transform="translate(-153.07 -170.529)" fill="#ffb27d"/>
          <path id="Trazado_192126" data-name="Trazado 192126" d="M183.249,235.29c-.863,1.392-5.779-.22-10.988-3.614s-8.734-7.26-7.871-8.66,5.779.22,10.988,3.614S184.112,233.89,183.249,235.29Z" transform="translate(-146.705 -177.015)" fill="#1d1d1b"/>
          <rect id="Rectángulo_44088" data-name="Rectángulo 44088" width="9.596" height="4.778" transform="translate(42.735 51.688) rotate(-12.85)" fill="#daebe8"/>
          <path id="Trazado_192127" data-name="Trazado 192127" d="M163.608,227.12s-13.5,41.576-12.315,69.5h18.672s2.124-37.872,7.92-56.927c.643-2.116.846-4.631-.692-6.218C173.457,229.635,165.285,223.523,163.608,227.12Z" transform="translate(-144.279 -177.668)" fill="#ffb27d"/>
        </g>
        <g id="Grupo_141091" data-name="Grupo 141091" transform="translate(59.998 192.658)">
          <path id="Trazado_192128" data-name="Trazado 192128" d="M168.9,497.443h0c.863-.016,1.481-1.408,1.262-2.694l-3.557-21.439H161.79l5.16,22.644A1.664,1.664,0,0,0,168.9,497.443Z" transform="translate(-98.322 -330.489)" fill="#1d1d1b"/>
          <path id="Trazado_192129" data-name="Trazado 192129" d="M99.941,488.343h0c-.863-.016-1.481-1.408-1.262-2.694l3.557-21.439h4.818l-5.16,22.644A1.664,1.664,0,0,1,99.941,488.343Z" transform="translate(-86.571 -328.796)" fill="#1d1d1b"/>
          <path id="Trazado_192130" data-name="Trazado 192130" d="M100.911,441.542l38.947,6.479,154.778-1.839c5.339-.09,9.694-4.615,9.938-10.329L310,309.172c.26-6.17-4.33-11.322-10.093-11.322H93.92c-5.714,0-10.288,5.063-10.1,11.175l6.438,118.94C90.436,433.875,95.4,441.632,100.911,441.542Z" transform="translate(-83.813 -297.842)" fill="#12263f"/>
          <path id="Trazado_192131" data-name="Trazado 192131" d="M152.653,448.223l197.615-2.051c5.339-.09,9.694-4.615,9.938-10.329l5.421-126.681c.26-6.17-4.33-11.322-10.093-11.322H149.56c-5.714,0-10.288,5.063-10.1,11.175l3.948,130.051c.179,5.909,3.736,9.246,9.254,9.149Z" transform="translate(-94.166 -297.84)" fill="#0f2771"/>
        </g>
        <rect id="Rectángulo_44089" data-name="Rectángulo 44089" width="269.6" height="42.056" rx="13.48" transform="translate(13.3)" fill="#d2e1f1"/>
        <rect id="Rectángulo_44090" data-name="Rectángulo 44090" width="269.6" height="42.056" rx="13.48" transform="translate(53.41)" fill="#4dd0e1"/>
        <rect id="Rectángulo_44091" data-name="Rectángulo 44091" width="94.726" height="21" rx="5.65" transform="translate(376.494 23.832)" fill="#85dbe8"/>
        <g id="Grupo_141095" data-name="Grupo 141095" transform="translate(256.1 114.145)">
          <path id="Trazado_192132" data-name="Trazado 192132" d="M393.918,510.01s-.13,5.307-3.752,6.8-14.1,2.849-10.182,6.259c2.246,1.953,12.836.692,15.831.692s5.8,1.294,8.017-.692c2.442-2.181,0-13.064,0-13.064a12.037,12.037,0,0,1-4.9,1.278,9.585,9.585,0,0,1-5.014-1.278Z" transform="translate(-334.862 -258.803)" fill="#1d1d1b"/>
          <path id="Trazado_192133" data-name="Trazado 192133" d="M338.3,264.786s-7.391.627-10.288-2.238-4.412-8.693-2.238-7.293a27.043,27.043,0,0,1,4.452,3.939s-4.615-5.665-2.816-6.162,5.771,4.469,5.771,4.469-4.949-7.179-3.093-7.1,5.575,5.559,5.575,5.559-4.338-6.861-2.181-6.723,3.549,5.689,5.348,5.193,7.675-.733,8.807,2.808l-9.344,7.545Z" transform="translate(-324.745 -210.283)" fill="#ffb27d"/>
          <path id="Trazado_192134" data-name="Trazado 192134" d="M367.876,344.332s-3.484,11.045,3.663,53.655c5.16,30.759,9.491,61.444,12.478,76.3a11.665,11.665,0,0,0,10.915,9.417l2.865.114a9.763,9.763,0,0,0,10.036-10.54l-7.244-100.529-1.783-33.086-30.921,4.672Z" transform="translate(-332.612 -227.107)" fill="#f4d402"/>
          <path id="Trazado_192135" data-name="Trazado 192135" d="M427.716,347.988c-.9,3.85-15.294,7.9-32.509,3.809s-30.661-8.424-29.757-12.282,15.807-5.763,33.029-1.677,30.148,6.292,29.245,10.142Z" transform="translate(-332.311 -226.343)" fill="#1d1d1b"/>
          <path id="Trazado_192136" data-name="Trazado 192136" d="M444.968,510.01s-.13,5.307-3.752,6.8-14.1,2.849-10.182,6.259c2.246,1.953,12.836.692,15.831.692s5.8,1.294,8.017-.692c2.442-2.181,0-13.064,0-13.064a12.037,12.037,0,0,1-4.9,1.278A9.585,9.585,0,0,1,444.968,510.01Z" transform="translate(-344.361 -258.803)" fill="#1d1d1b"/>
          <path id="Trazado_192137" data-name="Trazado 192137" d="M368.069,344.878l32.256,58.937,25.085,73.8a12.97,12.97,0,0,0,12.111,9.149l2.417.041a9.137,9.137,0,0,0,9.043-10.85L424.491,351.772c-.317-1.433-5.82-3.321-7.22-3.671-13.576-3.345-49.935-8.538-49.194-3.223Z" transform="translate(-332.806 -227.654)" fill="#f4d402"/>
          <path id="Trazado_192138" data-name="Trazado 192138" d="M409.061,418.359l-8.88-33.3c-.317-.952-.627-2.01-.96-3.109-1.62-5.429-3.63-12.176-8.44-14.2l.26-.619c5.1,2.149,7.171,9.067,8.831,14.635.326,1.091.635,2.141.96,3.1l8.888,33.314-.651.179Z" transform="translate(-337.032 -232.219)" fill="#020202"/>
          <path id="Trazado_192139" data-name="Trazado 192139" d="M395.96,210.024s-.252-8.53,7.35-8.644,5.421,5.4,6.666,6.951-2.58,5.527-6.251,5.779-7.757-4.094-7.757-4.094Z" transform="translate(-337.995 -201.378)" fill="#1d1d1b"/>
          <path id="Trazado_192140" data-name="Trazado 192140" d="M368.512,278.79c-4.241-1.929-9.482,6.577-9.482,6.577-.073.057,7.651-35.406,32.15-32.028,2.621.358,14.293,2.67,16.7,3.638,18.224,7.309,16.319,11.59,16.621,30.14.293,17.8,2.092,44.091,2.035,44.823-33.192-14.862-62.274-7.749-62.274-7.749-.244-26.331,3.728-44.083,4.257-45.393Z" transform="translate(-331.124 -211.004)" fill="#fff"/>
          <path id="Trazado_192141" data-name="Trazado 192141" d="M412.248,250.441c-2.906,3.353-6.178,4.436-10.435,4.436-6.446,0-3.443-6.585-3.443-6.585a2.356,2.356,0,0,0,2.58-2.4l.155-1.929.081-.952.252-3.052.228-2.735.928-11.232,2.971,11.436.5,1.945,1.742,6.707a6.116,6.116,0,0,0,4.4,4.363.049.049,0,0,1,.033.008Z" transform="translate(-338.314 -205.957)" fill="#ffb27d"/>
          <path id="Trazado_192142" data-name="Trazado 192142" d="M406.882,242.418s-1.9,3.321-4.892,3.638l.252-3.052c1.864-.366,4.639-.594,4.639-.594Z" transform="translate(-339.118 -209.013)" fill="#1d1d1b"/>
          <path id="Trazado_192143" data-name="Trazado 192143" d="M419.267,229.041s-1.009,1.6-1.213,5.527c-.3,5.738-7.081,5.885-8.115,3.866-.13-.252,3.158-9.075,3.158-9.075l2.32-.488,3.858.163Z" transform="translate(-340.596 -206.493)" fill="#1d1d1b"/>
          <ellipse id="Elipse_4926" data-name="Elipse 4926" cx="13.031" cy="10.638" rx="13.031" ry="10.638" transform="translate(50.559 30.574) rotate(-70.94)" fill="#ffb27d"/>
          <path id="Trazado_192144" data-name="Trazado 192144" d="M401.494,213.86c.155.472-3.6,6.284,7.741,11.8s9.075-11.151.44-14.431C397.2,206.5,392.5,214.3,392.679,217.743s8.815-3.891,8.815-3.891Z" transform="translate(-337.384 -202.935)" fill="#1d1d1b"/>
          <path id="Trazado_192145" data-name="Trazado 192145" d="M412.186,226.27s3.117,6.7-.326,11.314c0,0,3.85-2.1,4.3-3.215a46.165,46.165,0,0,0,1.1-5.47Z" transform="translate(-340.954 -206.009)" fill="#1d1d1b"/>
          <path id="Trazado_192146" data-name="Trazado 192146" d="M413.54,232.91c-1.514.692-3.142.269-3.655-.96s.309-2.784,1.815-3.476,3.142-.269,3.655.96S415.046,232.218,413.54,232.91Z" transform="translate(-340.559 -206.358)" fill="#ffb27d"/>
          <path id="Trazado_192147" data-name="Trazado 192147" d="M403.186,227.727a.234.234,0,0,1-.106-.187.249.249,0,0,1,.228-.252,2.637,2.637,0,0,1,2.743,1.66.242.242,0,0,1-.114.317.268.268,0,0,1-.326-.114,4.2,4.2,0,0,0-2.279-1.384A.281.281,0,0,1,403.186,227.727Z" transform="translate(-339.32 -206.196)" fill="#080435"/>
          <path id="Trazado_192148" data-name="Trazado 192148" d="M404.045,231.367c-.171.545-.627.9-1.026.773a.93.93,0,0,1-.423-1.213c.171-.545.627-.9,1.026-.773A.93.93,0,0,1,404.045,231.367Z" transform="translate(-339.219 -206.728)" fill="#080435"/>
          <path id="Trazado_192149" data-name="Trazado 192149" d="M392.606,225.714a.254.254,0,0,1-.171-.13.242.242,0,0,1,.114-.317,2.636,2.636,0,0,1,3.174.5.244.244,0,0,1,.016.342.269.269,0,0,1-.342.016,4.231,4.231,0,0,0-2.637-.415.255.255,0,0,1-.155.016Z" transform="translate(-337.335 -205.762)" fill="#080435"/>
          <path id="Trazado_192150" data-name="Trazado 192150" d="M394.874,228.76c.057.57-.236,1.066-.651,1.107s-.8-.391-.855-.96.236-1.066.651-1.107S394.817,228.19,394.874,228.76Z" transform="translate(-337.512 -206.293)" fill="#080435"/>
          <g id="Grupo_141092" data-name="Grupo 141092" transform="translate(61.234 17.831)" opacity="0.3">
            <path id="Trazado_192151" data-name="Trazado 192151" d="M408.453,228.368c-.073,3.239-2.035,6.243-4.371,6.707s-4.175-1.783-4.1-5.022,2.035-6.243,4.371-6.707S408.526,225.129,408.453,228.368Z" transform="translate(-399.977 -223.285)" fill="#fff"/>
          </g>
          <g id="Grupo_141093" data-name="Grupo 141093" transform="translate(51.365 16.222)" opacity="0.3">
            <path id="Trazado_192152" data-name="Trazado 192152" d="M395.518,226.429c-.431,3.15-2.482,5.974-4.574,6.316s-3.443-1.937-3.012-5.087,2.482-5.974,4.574-6.316S395.949,223.279,395.518,226.429Z" transform="translate(-387.851 -221.308)" fill="#fff"/>
          </g>
          <path id="Trazado_192153" data-name="Trazado 192153" d="M408.426,229.464a8.223,8.223,0,0,0,.179-1.27c.008-.146.016-.3.024-.448,0-.252,0-.5-.016-.741a5.578,5.578,0,0,0-1.783-3.98,3.3,3.3,0,0,0-2.833-.741,3.432,3.432,0,0,0-.627.179,6.865,6.865,0,0,0-3.736,4.469,7.464,7.464,0,0,0-.2.733,8.224,8.224,0,0,0-.22,1.791,8.519,8.519,0,0,0,.146,1.677,5.15,5.15,0,0,0,1.652,3.044,3.511,3.511,0,0,0,1.091.627,2.573,2.573,0,0,0,.358.1,3.435,3.435,0,0,0,1.384.016,4.4,4.4,0,0,0,1.433-.57,7.08,7.08,0,0,0,2.694-3.419c.065-.146.122-.309.179-.464a8.26,8.26,0,0,0,.277-1Zm-8.025,3.362a5.63,5.63,0,0,1-.651-1.766,7.279,7.279,0,0,1-.138-1.6,8.312,8.312,0,0,1,.187-1.628,5.83,5.83,0,0,1,.2-.741,6.358,6.358,0,0,1,3.606-4.289,3.116,3.116,0,0,1,.472-.13,2.935,2.935,0,0,1,1.221.008,2.884,2.884,0,0,1,1.278.643,4.281,4.281,0,0,1,1.237,1.839,5.726,5.726,0,0,1,.269.96.159.159,0,0,0,.008.057.049.049,0,0,0,.008.033,3.779,3.779,0,0,1,.081.529,7.876,7.876,0,0,1,.049.993,8.1,8.1,0,0,1-.089,1.091,6.426,6.426,0,0,1-.138.708c-.057.244-.13.488-.2.724h0a7.019,7.019,0,0,1-2.556,3.63,3.813,3.813,0,0,1-1.465.627,2.979,2.979,0,0,1-1.563-.106,2.878,2.878,0,0,1-.936-.545,3.777,3.777,0,0,1-.855-1.026s0-.008-.016-.016Z" transform="translate(-338.602 -205.255)" fill="#68a1bf"/>
          <path id="Trazado_192154" data-name="Trazado 192154" d="M395.164,227.556a4.915,4.915,0,0,0,.122-.5c-.073.016-.122.024-.155.033a9.543,9.543,0,0,1-.822,2.507.008.008,0,0,1,.008-.008,2.462,2.462,0,0,0,.13-.252c0-.016.016-.033.016-.041.049-.1.106-.2.146-.309.073-.155.147-.309.212-.472s.122-.317.179-.488c.049-.155.106-.317.146-.472Zm0,0a4.915,4.915,0,0,0,.122-.5c-.073.016-.122.024-.155.033a9.543,9.543,0,0,1-.822,2.507.008.008,0,0,1,.008-.008,2.462,2.462,0,0,0,.13-.252c0-.016.016-.033.016-.041.049-.1.106-.2.146-.309.073-.155.147-.309.212-.472s.122-.317.179-.488c.049-.155.106-.317.146-.472Zm0,0a4.915,4.915,0,0,0,.122-.5c-.073.016-.122.024-.155.033a9.543,9.543,0,0,1-.822,2.507.008.008,0,0,1,.008-.008,2.462,2.462,0,0,0,.13-.252c0-.016.016-.033.016-.041.049-.1.106-.2.146-.309.073-.155.147-.309.212-.472s.122-.317.179-.488c.049-.155.106-.317.146-.472Zm0,0a4.915,4.915,0,0,0,.122-.5c-.073.016-.122.024-.155.033a9.543,9.543,0,0,1-.822,2.507.008.008,0,0,1,.008-.008,2.462,2.462,0,0,0,.13-.252c0-.016.016-.033.016-.041.049-.1.106-.2.146-.309.073-.155.147-.309.212-.472s.122-.317.179-.488c.049-.155.106-.317.146-.472Zm0,0a4.915,4.915,0,0,0,.122-.5c-.073.016-.122.024-.155.033a9.543,9.543,0,0,1-.822,2.507.008.008,0,0,1,.008-.008,2.462,2.462,0,0,0,.13-.252c0-.016.016-.033.016-.041.049-.1.106-.2.146-.309.073-.155.147-.309.212-.472s.122-.317.179-.488c.049-.155.106-.317.146-.472Zm0,0a4.915,4.915,0,0,0,.122-.5c-.073.016-.122.024-.155.033a9.543,9.543,0,0,1-.822,2.507.008.008,0,0,1,.008-.008,2.462,2.462,0,0,0,.13-.252c0-.016.016-.033.016-.041.049-.1.106-.2.146-.309.073-.155.147-.309.212-.472s.122-.317.179-.488c.049-.155.106-.317.146-.472Zm0,0a4.915,4.915,0,0,0,.122-.5c-.073.016-.122.024-.155.033a9.543,9.543,0,0,1-.822,2.507.008.008,0,0,1,.008-.008,2.462,2.462,0,0,0,.13-.252c0-.016.016-.033.016-.041.049-.1.106-.2.146-.309.073-.155.147-.309.212-.472s.122-.317.179-.488c.049-.155.106-.317.146-.472Zm0,0a4.915,4.915,0,0,0,.122-.5c-.073.016-.122.024-.155.033a9.543,9.543,0,0,1-.822,2.507.008.008,0,0,1,.008-.008,2.462,2.462,0,0,0,.13-.252c0-.016.016-.033.016-.041.049-.1.106-.2.146-.309.073-.155.147-.309.212-.472s.122-.317.179-.488c.049-.155.106-.317.146-.472Zm.391-.537a5.708,5.708,0,0,0,.1-.749c.008-.13.016-.269.024-.407a5.988,5.988,0,0,0-1.6-4.835,2.92,2.92,0,0,0-.83-.5,2.569,2.569,0,0,0-.741-.163,2.634,2.634,0,0,0-.562.033h0a1.1,1.1,0,0,0-.147.024c-2.238.448-4.2,3.581-4.355,6.984a5.988,5.988,0,0,0,1.6,4.835,2.772,2.772,0,0,0,.9.529,2.575,2.575,0,0,0,1.2.106h.016a1.2,1.2,0,0,0,.155-.024,4.2,4.2,0,0,0,2.255-1.433h0a8.387,8.387,0,0,0,1.579-2.824,9.052,9.052,0,0,0,.391-1.571Zm-1.286,2.678a6.7,6.7,0,0,1-1.367,1.856,3.492,3.492,0,0,1-1.4.83h-.008a.151.151,0,0,1-.057.016,1.258,1.258,0,0,1-.187.049,2.044,2.044,0,0,1-.22.033,2.159,2.159,0,0,1-1.709-.545,5.544,5.544,0,0,1-1.465-4.428v-.033h0v-.049c.155-3.231,1.962-6.2,4.037-6.617a2.392,2.392,0,0,1,1.148.065,2.258,2.258,0,0,1,.773.448c.016.016.041.033.057.049a4.129,4.129,0,0,1,1.091,1.791,7.479,7.479,0,0,1,.317,2.67c-.008.155-.016.309-.033.464-.024.26-.065.529-.106.79a9.544,9.544,0,0,1-.822,2.507c-.016.033-.041.065-.057.1Zm.9-2.141a4.914,4.914,0,0,0,.122-.5c-.073.016-.122.024-.155.033a9.544,9.544,0,0,1-.822,2.507.008.008,0,0,1,.008-.008,2.456,2.456,0,0,0,.13-.252c0-.016.016-.033.016-.041.049-.1.106-.2.147-.309.073-.155.147-.309.212-.472s.122-.317.179-.488c.049-.155.106-.317.147-.472Zm0,0a4.914,4.914,0,0,0,.122-.5c-.073.016-.122.024-.155.033a9.544,9.544,0,0,1-.822,2.507.008.008,0,0,1,.008-.008,2.456,2.456,0,0,0,.13-.252c0-.016.016-.033.016-.041.049-.1.106-.2.147-.309.073-.155.147-.309.212-.472s.122-.317.179-.488c.049-.155.106-.317.147-.472Zm0,0a4.914,4.914,0,0,0,.122-.5c-.073.016-.122.024-.155.033a9.544,9.544,0,0,1-.822,2.507.008.008,0,0,1,.008-.008,2.456,2.456,0,0,0,.13-.252c0-.016.016-.033.016-.041.049-.1.106-.2.147-.309.073-.155.147-.309.212-.472s.122-.317.179-.488c.049-.155.106-.317.147-.472Zm0,0a4.914,4.914,0,0,0,.122-.5c-.073.016-.122.024-.155.033a9.544,9.544,0,0,1-.822,2.507.008.008,0,0,1,.008-.008,2.456,2.456,0,0,0,.13-.252c0-.016.016-.033.016-.041.049-.1.106-.2.147-.309.073-.155.147-.309.212-.472s.122-.317.179-.488c.049-.155.106-.317.147-.472Zm0,0a4.914,4.914,0,0,0,.122-.5c-.073.016-.122.024-.155.033a9.544,9.544,0,0,1-.822,2.507.008.008,0,0,1,.008-.008,2.456,2.456,0,0,0,.13-.252c0-.016.016-.033.016-.041.049-.1.106-.2.147-.309.073-.155.147-.309.212-.472s.122-.317.179-.488c.049-.155.106-.317.147-.472Zm0,0a4.914,4.914,0,0,0,.122-.5c-.073.016-.122.024-.155.033a9.544,9.544,0,0,1-.822,2.507.008.008,0,0,1,.008-.008,2.456,2.456,0,0,0,.13-.252c0-.016.016-.033.016-.041.049-.1.106-.2.147-.309.073-.155.147-.309.212-.472s.122-.317.179-.488c.049-.155.106-.317.147-.472Zm0,0a4.914,4.914,0,0,0,.122-.5c-.073.016-.122.024-.155.033a9.544,9.544,0,0,1-.822,2.507.008.008,0,0,1,.008-.008,2.456,2.456,0,0,0,.13-.252c0-.016.016-.033.016-.041.049-.1.106-.2.147-.309.073-.155.147-.309.212-.472s.122-.317.179-.488c.049-.155.106-.317.147-.472Z" transform="translate(-336.41 -204.911)" fill="#68a1bf"/>
          <path id="Trazado_192155" data-name="Trazado 192155" d="M396.511,228.459a.365.365,0,0,1-.236-.228.369.369,0,0,1,.228-.472,4.091,4.091,0,0,1,3.329.57.363.363,0,0,1,.122.513.372.372,0,0,1-.513.122,3.352,3.352,0,0,0-2.686-.5.359.359,0,0,1-.244,0Z" transform="translate(-338.05 -206.262)" fill="#1d1d1b"/>
          <path id="Trazado_192156" data-name="Trazado 192156" d="M416.04,214.29s3.679-7.7,10.516-4.371,4.013,6.837,2.759,9.189c-.936,1.758-4.827,3.752-8.229,2.32s-5.046-7.146-5.046-7.146Z" transform="translate(-341.732 -202.812)" fill="#1d1d1b"/>
          <path id="Trazado_192157" data-name="Trazado 192157" d="M413.76,246.932a.358.358,0,0,0,.13-.016.234.234,0,0,0,.122-.3,10.481,10.481,0,0,0-3.793-4.192.23.23,0,0,0-.244.391,10.084,10.084,0,0,1,3.614,3.988.244.244,0,0,0,.171.138Z" transform="translate(-340.583 -209.009)" fill="#1d1d1b"/>
          <path id="Trazado_192158" data-name="Trazado 192158" d="M413.153,256.03l4.355.846a2.271,2.271,0,0,1-1.359,2.963c-2.133.716-2.564.716-3.248,2.352s-3.345,1.709-4.273,1.139-2.572,1.571-4.086,1.571-2.409-2.662-1.823-4.436A27.842,27.842,0,0,0,413.153,256.03Z" transform="translate(-339.219 -211.547)" fill="#85dbe8"/>
          <path id="Trazado_192159" data-name="Trazado 192159" d="M397.5,253.192s-2.678,6.43,3.443,6.585c0,0-3.215,3.2-5.47,1.913s-.1-2.426-1.05-3.28-2.01-1.473-1.05-2.474.358-2.979.358-2.979,1.522-1.457,3.777.228Z" transform="translate(-337.444 -210.866)" fill="#85dbe8"/>
          <path id="Trazado_192160" data-name="Trazado 192160" d="M395.461,272.792a.96.96,0,1,0-.96.952A.955.955,0,0,0,395.461,272.792Z" transform="translate(-337.545 -214.488)" fill="#1d1d1b"/>
          <ellipse id="Elipse_4927" data-name="Elipse 4927" cx="0.96" cy="0.952" rx="0.96" ry="0.952" transform="translate(51.958 88.029)" fill="#1d1d1b"/>
          <ellipse id="Elipse_4928" data-name="Elipse 4928" cx="0.96" cy="0.952" rx="0.96" ry="0.952" transform="translate(51.958 74.135)" fill="#1d1d1b"/>
          <g id="Grupo_141094" data-name="Grupo 141094" transform="translate(82.853 128.637)">
            <path id="Trazado_192161" data-name="Trazado 192161" d="M449.745,375l-2.3-.049.187-9.393a5.1,5.1,0,0,1,4.249-4.819l7.5-1.245a5.1,5.1,0,0,1,5.331,2.6l4.8,9.8-2.067,1.009-4.786-9.759a2.785,2.785,0,0,0-2.914-1.392l-7.5,1.245a2.777,2.777,0,0,0-2.328,2.621L449.737,375Z" transform="translate(-430.429 -359.421)" fill="#bddcf6"/>
            <path id="Trazado_192162" data-name="Trazado 192162" d="M439.986,406.469l35.235-2.5a4.511,4.511,0,0,0,4.2-4.77l-1.6-24.963a4.53,4.53,0,0,0-5.16-4.167L430.438,376a4.5,4.5,0,0,0-3.581,6.113l8.6,21.529a4.535,4.535,0,0,0,4.534,2.832Z" transform="translate(-426.538 -361.394)" fill="#0f2771"/>
            <path id="Trazado_192163" data-name="Trazado 192163" d="M453.843,392.456l-.081-.016-25.191-4.566.1-.529,25.11,4.558,24.63-10.923.212.48Z" transform="translate(-426.916 -363.433)" fill="#bddcf6"/>
            <path id="Trazado_192164" data-name="Trazado 192164" d="M459.085,396.578h0a1.471,1.471,0,0,0,1.213-1.685l-.236-1.392a1.468,1.468,0,0,0-1.693-1.2h0a1.471,1.471,0,0,0-1.213,1.685l.236,1.392A1.468,1.468,0,0,0,459.085,396.578Z" transform="translate(-432.231 -365.536)" fill="#bddcf6"/>
          </g>
          <path id="Trazado_192165" data-name="Trazado 192165" d="M444.8,358.364a46.507,46.507,0,0,0,1.783-4.534,28.572,28.572,0,0,1,1.449-3.524c.448-.83,9.84-.936,9.84-.936a31.761,31.761,0,0,1,2.8,6.78,3.664,3.664,0,0,1,.26.781c.448,2.067,1.465,4.908.2,6.007-1.376,1.2-2.23-.863-2.58-1.986.236,1.034.513,3.02-.5,4.143-1.066,1.18-2.287-2.051-2.824-3.687h-.016c.374,1.473.9,4.33-.448,5.112-1.6.92-2.824-3.475-3.15-4.485h-.114c-.928,6.251-3.427,3.093-3.988-1.717-.912,1-2.979,2.8-3.646,2.336-.773-.537.488-3.451.92-4.289Z" transform="translate(-346.865 -228.914)" fill="#ffb27d"/>
          <path id="Trazado_192166" data-name="Trazado 192166" d="M420.4,257.99s24.972,7.2,31.288,39.989c2.963,15.367,4.525,26.445,3.606,32.59a4.139,4.139,0,0,1-3.394,3.443l-5.974,1.05a3.989,3.989,0,0,1-4.582-3.02c-2.45-10.72-10.239-41.73-20.381-51.058l-.57-22.994Z" transform="translate(-342.541 -211.911)" fill="#fff"/>
          <path id="Trazado_192167" data-name="Trazado 192167" d="M350.7,317.16a15.069,15.069,0,0,0,6.031-2.124c6.121-3.736,10.223-11.615,13.308-25.566,1.424-6.422,5.567-14.171,5.608-14.244l-13.332-7.5c-.212.391-5.673,9.849-7.561,18.411-1.074,4.843-1.644-25.745-4.281-28.634-1.62-1.774-12.706,9.434-12.706,9.434-1.05,3.931-1.921,29.464-1.75,34.039a29.279,29.279,0,0,0,1.188,7.936c1.8,5.575,5.575,7.3,7.659,7.838a15.691,15.691,0,0,0,5.836.407Z" transform="translate(-326.838 -211.786)" fill="#fff"/>
          <path id="Trazado_192168" data-name="Trazado 192168" d="M360.593,308.294l-.285-.041c.008-.081,1.042-8.53-2.108-15.131l.26-.122c3.191,6.682,2.141,15.2,2.133,15.294Z" transform="translate(-330.97 -218.426)" fill="#1d1d1b"/>
          <path id="Trazado_192169" data-name="Trazado 192169" d="M438.63,323.315a171.047,171.047,0,0,0-9.71-25.745l.26-.13a171.936,171.936,0,0,1,9.727,25.8l-.277.073Z" transform="translate(-344.128 -219.252)" fill="#1d1d1b"/>
          <path id="Trazado_192170" data-name="Trazado 192170" d="M365.527,315.4c-.391-17.141,7.537-41.022,7.618-41.267l.269.09c-.081.236-7.993,24.076-7.6,41.169h-.285Z" transform="translate(-332.33 -214.914)" fill="#1d1d1b"/>
          <path id="Trazado_192171" data-name="Trazado 192171" d="M398.995,238.2a4.368,4.368,0,0,1-4.257-2.271.123.123,0,0,1,.065-.163.127.127,0,0,1,.163.057c1.351,2.922,5.51,1.986,5.551,1.978a.119.119,0,0,1,.147.09.121.121,0,0,1-.09.147,8.105,8.105,0,0,1-1.571.155Z" transform="translate(-337.766 -207.774)" fill="#020202"/>
        </g>
        <g id="Grupo_141097" data-name="Grupo 141097" transform="translate(374.089 82.43)">
          <path id="Trazado_192172" data-name="Trazado 192172" d="M569.227,277.17c-.887,1.424-2.01,4.631-2.873,6.064-.374.627-1.481,2.808-.92,3.272.488.4,2.189-.912,2.922-1.628.3,4.81,2.857,11.7,2.955,1.571h.016c.081,1.026.553,6.723,1.856,6.08,1.148-.57.985-4.664.863-6.357a.1.1,0,0,0,.049-.008c.269,1.7,1.026,5.8,1.945,4.9,1.156-1.131,1.074-5.624,1.074-5.624s.22,5.738,1.709,4.6c.838-.643.374-3.915.057-5.95h0c-.065-.423-.13-.8-.171-1.083a2.535,2.535,0,0,0-.163-.619,25.242,25.242,0,0,0-1.783-5.4,3.545,3.545,0,0,0-3.76-2.377,5.7,5.7,0,0,0-3.768,2.564Z" transform="translate(-487.489 -183.286)" fill="#ffb27d"/>
          <path id="Trazado_192173" data-name="Trazado 192173" d="M565.967,265.538c-10.736-7.049.8-28.887-3.663-43.952a44.693,44.693,0,0,0-2.369-6.756c-.716-1.563,1.221-4.607,3.883-5.868,2.5-1.18,8.489-.407,8.961.391,7.228,12.063,9.564,31.857,5.958,57.13,0,0-8.164,2.076-12.771-.944Z" transform="translate(-486.467 -170.962)" fill="#f4d402"/>
          <path id="Trazado_192174" data-name="Trazado 192174" d="M546.071,390.96s.089,3.638,2.556,4.664,9.588,1.953,6.927,4.289c-1.53,1.343-8.734.472-10.768.472s-3.948.887-5.453-.472c-1.66-1.5,0-8.953,0-8.953a8.166,8.166,0,0,0,3.337.871,6.447,6.447,0,0,0,3.41-.871Z" transform="translate(-482.523 -204.938)" fill="#1d1d1b"/>
          <path id="Trazado_192175" data-name="Trazado 192175" d="M566.4,256.11s.488,16.417-4.745,47.9c-3.785,22.733-8.245,45.637-10.435,56.617a8.559,8.559,0,0,1-8,6.959l-2.108.081a7.189,7.189,0,0,1-7.358-7.789l5.315-74.3,1.31-24.451,26.03-5.022Z" transform="translate(-481.62 -179.847)" fill="#0f2771"/>
          <path id="Trazado_192176" data-name="Trazado 192176" d="M517.431,390.96s.09,3.638,2.556,4.664,9.588,1.953,6.927,4.289c-1.53,1.343-8.734.472-10.768.472s-3.948.887-5.453-.472c-1.66-1.5,0-8.953,0-8.953a8.166,8.166,0,0,0,3.337.871,6.447,6.447,0,0,0,3.41-.871Z" transform="translate(-477.195 -204.938)" fill="#1d1d1b"/>
          <path id="Trazado_192177" data-name="Trazado 192177" d="M537.762,256.11s.488,16.417-4.745,47.9c-3.785,22.733-8.245,45.637-10.435,56.617a8.559,8.559,0,0,1-8,6.959l-2.108.081a7.189,7.189,0,0,1-7.358-7.789l5.315-74.3,1.31-24.451,26.03-5.022Z" transform="translate(-476.291 -179.847)" fill="#0f2771"/>
          <path id="Trazado_192178" data-name="Trazado 192178" d="M510.09,277.074c.049,1.978,12.022,2.767,26.835,2.3s26.648-2.507,26.591-4.493-11.965-3.142-26.779-2.678-26.705,2.889-26.648,4.867Z" transform="translate(-477.22 -182.823)" fill="#1d1d1b"/>
          <path id="Trazado_192179" data-name="Trazado 192179" d="M513.61,206.933s2.621-10.378,21.944-10.483c27.869-.155,25.289,25.452,27.861,64.366,0,0-27.446-3.882-53.443,1.7,0,0-2.409-39.72,3.638-55.576Z" transform="translate(-477.11 -168.746)" fill="#f4d402"/>
          <path id="Trazado_192180" data-name="Trazado 192180" d="M505.78,205.426l12.624,6.984s27.633,2.507,34.967,1.3,9.352-6.593,9.352-6.593a40.431,40.431,0,0,0-21.089-10.239,40.24,40.24,0,0,0-10.6-.309c-16.832,1.9-25.248,8.864-25.248,8.864Z" transform="translate(-476.418 -168.728)" fill="#f4d402"/>
          <path id="Trazado_192181" data-name="Trazado 192181" d="M561.546,277.12s-16.051-4.721-49.284,1.758l-.252,4.778,48.722,1.726.822-8.261Z" transform="translate(-477.577 -183.448)" fill="#0f2771"/>
          <path id="Trazado_192182" data-name="Trazado 192182" d="M499.639,264.539c1.164-12.787,10.622-46.272,11.721-48.1.887-1.473-.7-4.713-3.207-6.259-2.352-1.449-5.388-3.3-6.1-2.7-9.93,8.375-18.484,38.979-15.782,55.934l13.365,1.131Z" transform="translate(-472.695 -170.776)" fill="#f4d402"/>
          <path id="Trazado_192183" data-name="Trazado 192183" d="M533.8,193.131c2,2.466,5.592,2.116,8.4.871,2.255-1,1.937-.977,1.62-1.343-.765-.9-1.4-1.115-1.441-2.149l-.057-1.351v-.171l-.081-1.766-.13-3.044-.326-8.017-2.5,8.058-.423,1.367-1.457,4.7c-.472,1.522-3.6,2.824-3.614,2.832Z" transform="translate(-481.63 -164.971)" fill="#ffb27d"/>
          <path id="Trazado_192184" data-name="Trazado 192184" d="M539.658,189.228a5.535,5.535,0,0,0,3.752,2.36v-.171l-.081-1.766c-1.384-.13-3.679-.431-3.679-.431Z" transform="translate(-482.72 -167.401)" fill="#1d1d1b"/>
          <path id="Trazado_192185" data-name="Trazado 192185" d="M556.509,245.455s-.806,7.4-6.064,11.4a22.681,22.681,0,0,1-5.641-5.641,13.139,13.139,0,0,1-2.393-5.763,41.29,41.29,0,0,1-.1-5.136c.073-1.888.2-4.127.326-6.568.228-4.281.553-9.14.781-13.715.122-2.515.228-4.957.277-7.146.1-4.656-.024-8.31-.6-9.588l2.515-.781s1.083,2.792,2.564,7.049c.553,1.636,1.18,3.476,1.839,5.437,1.009,3.15,2.092,6.642,3.069,10.166.529,1.937,1.058,3.9,1.481,5.811a72.843,72.843,0,0,1,1.864,10.9,21.406,21.406,0,0,1,.073,3.573Z" transform="translate(-483.211 -169.876)" fill="#1d1d1b"/>
          <path id="Trazado_192186" data-name="Trazado 192186" d="M486.39,275.529c-.081,1.856,2.865,3.508,6.577,3.7s6.788-1.148,6.861-3-2.865-3.508-6.577-3.7S486.463,273.673,486.39,275.529Z" transform="translate(-472.81 -182.898)" fill="#1d1d1b"/>
          <path id="Trazado_192187" data-name="Trazado 192187" d="M574.553,265.28l-.326-.024c.024-.277,2.255-27.739-5.7-44.718l.293-.138c7.985,17.06,5.746,44.6,5.722,44.88Z" transform="translate(-488.094 -173.203)" fill="#1d1d1b"/>
          <path id="Trazado_192188" data-name="Trazado 192188" d="M509.617,241.782l-.317-.081a47.559,47.559,0,0,1,6.56-14.871l.26.187a47.258,47.258,0,0,0-6.511,14.757Z" transform="translate(-477.073 -174.399)" fill="#1d1d1b"/>
          <path id="Trazado_192189" data-name="Trazado 192189" d="M546.638,169.89a10.629,10.629,0,0,1,1.457,4.151c.334,2.474-4-2.369-4-2.369l2.556-1.774Z" transform="translate(-483.546 -163.805)" fill="#1d1d1b"/>
          <path id="Trazado_192190" data-name="Trazado 192190" d="M546.468,174.508c-2.149-4.257-6.756-6.259-10.288-4.477s-4.648,6.682-2.491,10.939,6.756,6.259,10.288,4.477S548.625,178.765,546.468,174.508Z" transform="translate(-481.406 -163.71)" fill="#ffb27d"/>
          <path id="Trazado_192191" data-name="Trazado 192191" d="M531.237,177.4l3.15-1.49a2.533,2.533,0,0,0,1.392-1.693c.3-1.286.92-2.108,4.013-3.06,3.915-1.213,5.657-4.412,5.364-6.577a2.448,2.448,0,0,0-4.363-1.253c-1.6,1.669-1.612-1.042-3.565-.643-3.655.749-3.362,3.663-6.251,4.574-3.785,1.2-9.49,6.4-4,11.867l4.257-1.734Z" transform="translate(-479.939 -162.414)" fill="#1d1d1b"/>
          <path id="Trazado_192192" data-name="Trazado 192192" d="M542.3,178.425a.224.224,0,0,0,.024-.13.145.145,0,0,0-.179-.106,1.558,1.558,0,0,0-1.262,1.449.147.147,0,0,0,.122.163.158.158,0,0,0,.163-.122,2.434,2.434,0,0,1,1.05-1.2.119.119,0,0,0,.073-.049Z" transform="translate(-482.949 -165.348)" fill="#080435"/>
          <path id="Trazado_192193" data-name="Trazado 192193" d="M542.618,180.71a.478.478,0,1,0,.016-.773A.569.569,0,0,0,542.618,180.71Z" transform="translate(-483.246 -165.663)" fill="#080435"/>
          <path id="Trazado_192194" data-name="Trazado 192194" d="M547.882,175.509a.225.225,0,0,0,.041-.1.164.164,0,0,0-.138-.146,1.02,1.02,0,0,0-1.245.814.169.169,0,0,0,.089.179.117.117,0,0,0,.155-.049,1.513,1.513,0,0,1,1.034-.676.121.121,0,0,0,.073-.016Z" transform="translate(-484.001 -164.801)" fill="#080435"/>
          <path id="Trazado_192195" data-name="Trazado 192195" d="M547.539,177.756c.114.326.4.521.635.44a.561.561,0,0,0,.22-.741c-.114-.326-.4-.521-.635-.44A.561.561,0,0,0,547.539,177.756Z" transform="translate(-484.179 -165.127)" fill="#080435"/>
          <path id="Trazado_192196" data-name="Trazado 192196" d="M527.5,182.121s3.972,4.078,7.3,3.313c0,0-3.891-2.808.773-6.984,0,0-5.291.969-8.066,3.671Z" transform="translate(-480.459 -165.397)" fill="#1d1d1b"/>
          <path id="Trazado_192197" data-name="Trazado 192197" d="M533.917,183.69a1.4,1.4,0,1,0-1.2-1.709A1.478,1.478,0,0,0,533.917,183.69Z" transform="translate(-481.423 -165.86)" fill="#ffb27d"/>
          <path id="Trazado_192198" data-name="Trazado 192198" d="M548.177,164.33a1.12,1.12,0,0,1-1.1-.806.16.16,0,0,1,.114-.2.151.151,0,0,1,.2.114.815.815,0,0,0,1.066.529.172.172,0,0,1,.187.13.155.155,0,0,1-.13.187,1.728,1.728,0,0,1-.342.033Z" transform="translate(-484.101 -162.583)" fill="#e84828"/>
          <path id="Trazado_192199" data-name="Trazado 192199" d="M544.1,169.942l-.057-.081s3.72-2.686,3.15-4.867c-.163-.61-.4-.977-.733-1.107-.529-.2-1.213.228-1.815.61l-.269.171-.049-.081.269-.171c.619-.391,1.319-.838,1.9-.619a1.583,1.583,0,0,1,.789,1.172c.594,2.246-3.028,4.859-3.182,4.965Z" transform="translate(-483.537 -162.66)" fill="#fff"/>
          <path id="Trazado_192200" data-name="Trazado 192200" d="M530.756,169.1l-.016-.1c4.2-.863,5.348-3.8,5.356-3.825l.09.033S535.013,168.224,530.756,169.1Z" transform="translate(-481.062 -162.928)" fill="#fff"/>
          <path id="Trazado_192201" data-name="Trazado 192201" d="M538.234,315.2l-.2-.041c.049-.228,4.761-23.132,5.771-26.721a6.813,6.813,0,0,1,4.81-4.509l.041.2A6.63,6.63,0,0,0,544,288.488c-1.017,3.581-5.722,26.477-5.771,26.705Z" transform="translate(-482.419 -185.024)" fill="#1d1d1b"/>
          <path id="Trazado_192202" data-name="Trazado 192202" d="M543.882,212.88c.1-4.656-.024-8.31-.6-9.588l2.515-.781s1.083,2.792,2.564,7.049c-1.514,1.083-3.117,2.263-4.477,3.321Z" transform="translate(-483.396 -169.874)" fill="#0c0c0b"/>
          <path id="Trazado_192203" data-name="Trazado 192203" d="M553.163,228.018c-3.549,2.743-8.554,6.7-10.443,8.587.228-4.281.553-9.14.781-13.715l6.593-5.03c1.009,3.15,2.092,6.642,3.069,10.166Z" transform="translate(-483.291 -172.73)" fill="#0c0c0b"/>
          <path id="Trazado_192204" data-name="Trazado 192204" d="M556.436,248.389c-3.2,2.515-8.278,6.52-11.631,9.336a13.139,13.139,0,0,1-2.393-5.763,41.29,41.29,0,0,1-.1-5.136l12.258-9.336A72.835,72.835,0,0,1,556.436,248.389Z" transform="translate(-483.211 -176.383)" fill="#0c0c0b"/>
          <path id="Trazado_192205" data-name="Trazado 192205" d="M541.461,198.445s3.394-1.05,4.3-.236.236,4.542-1.327,4.875S539.914,199.341,541.461,198.445Z" transform="translate(-482.976 -169.016)" fill="#1d1d1b"/>
          <path id="Trazado_192206" data-name="Trazado 192206" d="M541.57,196.685s-4.428-1.563-5.3-3.134-5.453,2.051-5.372,3.134,8.343,7.073,8.88,6.316,2.865-5.291,1.783-6.316Z" transform="translate(-481.092 -168.135)" fill="#f2bc0f"/>
          <path id="Trazado_192207" data-name="Trazado 192207" d="M544.009,196.742a4.826,4.826,0,0,0,.342-2.539s-.212-.781.464-.733,4.346,2.621,4.672,3.4.374,4.452-.814,4.729-4.053-3.679-4.387-4.062a1.09,1.09,0,0,1-.277-.8Z" transform="translate(-483.53 -168.192)" fill="#f2bc0f"/>
          <path id="Trazado_192208" data-name="Trazado 192208" d="M544.75,203.879a3.073,3.073,0,0,1-1.88-.912l.114-.114a2.927,2.927,0,0,0,1.766.871h.024c.912-.016,1.457-1.978,1.465-1.994l.155.041c-.024.09-.586,2.1-1.612,2.116h-.024Z" transform="translate(-483.319 -169.729)" fill="#1d1d1b"/>
          <path id="Trazado_192209" data-name="Trazado 192209" d="M545.448,184.382a3.742,3.742,0,0,1-1.351-.269.145.145,0,0,1-.09-.2.142.142,0,0,1,.2-.09c2.385.879,3.272-.887,3.313-.969a.153.153,0,0,1,.277.13,2.638,2.638,0,0,1-2.344,1.392Z" transform="translate(-483.529 -166.201)" fill="#1d1d1b"/>
          <g id="Grupo_141096" data-name="Grupo 141096" transform="translate(0 99.093)">
            <path id="Trazado_192210" data-name="Trazado 192210" d="M497.183,295.018l1.791-.334-1.351-7.309a4.031,4.031,0,0,0-3.931-3.215h-6.015a4,4,0,0,0-3.826,2.7v.033l-2.491,8.229,1.742.529,2.482-8.213a2.207,2.207,0,0,1,2.1-1.473H493.7a2.237,2.237,0,0,1,2.157,1.758l1.351,7.293Z" transform="translate(-471.874 -284.16)" fill="#1d1d1b"/>
            <path id="Trazado_192211" data-name="Trazado 192211" d="M476.913,319.134l27.812,2.564a3.572,3.572,0,0,0,3.891-3.182l1.945-19.689a3.579,3.579,0,0,0-3.492-3.915l-33.705-.781a3.551,3.551,0,0,0-3.573,4.306l3.948,17.9a3.593,3.593,0,0,0,3.174,2.792Z" transform="translate(-469.706 -286.015)" fill="#1d1d1b"/>
            <path id="Trazado_192212" data-name="Trazado 192212" d="M489.636,309.94,470.5,303.119l.138-.4,19.014,6.772,20.617-5.364.106.407Z" transform="translate(-469.854 -287.613)" fill="#fff"/>
            <path id="Trazado_192213" data-name="Trazado 192213" d="M493.352,312.727h0a1.15,1.15,0,0,0,1.156-1.156v-1.115a1.174,1.174,0,0,0-1.172-1.156h0a1.15,1.15,0,0,0-1.156,1.156v1.115A1.174,1.174,0,0,0,493.352,312.727Z" transform="translate(-473.888 -288.837)" fill="#fff"/>
          </g>
          <path id="Trazado_192214" data-name="Trazado 192214" d="M499.625,282.2a35.134,35.134,0,0,1-1.319-3.345c-.366-1.009-1.123-3.052-1.4-3.712-.651-1.571-4.762-1.75-6.178-.871-1.4.863-1.9,3.158-2.841,6.3a2.671,2.671,0,0,0-.2.578c-.334,1.522-1.083,3.63-.155,4.436,1.017.879,1.652-.635,1.9-1.473-.171.765-.383,2.23.366,3.06.79.871,1.693-1.514,2.084-2.727h.008c-.277,1.091-.667,3.2.326,3.777,1.18.676,2.084-2.572,2.328-3.313h.09c.684,4.623,2.531,2.287,2.946-1.27.676.741,2.206,2.067,2.694,1.726.57-.4-.358-2.548-.684-3.166Z" transform="translate(-472.94 -183.128)" fill="#ffb27d"/>
        </g>
        <g id="Grupo_141107" data-name="Grupo 141107" transform="translate(0 120.723)">
          <g id="Grupo_141099" data-name="Grupo 141099">
            <g id="Grupo_141098" data-name="Grupo 141098" opacity="0.5">
              <path id="Trazado_192215" data-name="Trazado 192215" d="M87.432,457.7H24.287L10.1,209.46h3.671Z" transform="translate(-10.1 -209.46)" fill="#4dd0e1"/>
            </g>
            <path id="Trazado_192216" data-name="Trazado 192216" d="M91.95,457.7H28.805L14.61,209.46H77.755Z" transform="translate(-10.939 -209.46)" fill="#fff"/>
            <rect id="Rectángulo_44092" data-name="Rectángulo 44092" width="69.184" height="8.587" transform="translate(7.651 245.572)" fill="#1d1d1b"/>
            <rect id="Rectángulo_44093" data-name="Rectángulo 44093" width="72.75" height="8.587" transform="translate(14.895 245.572)" fill="#1d1d1b"/>
          </g>
          <g id="Grupo_141106" data-name="Grupo 141106" transform="translate(9.49 2.857)">
            <path id="Trazado_192217" data-name="Trazado 192217" d="M73.9,212.97l9.263,158.872H31.389L21.76,212.97Z" transform="translate(-21.76 -212.97)" fill="#85dbe8"/>
            <g id="Grupo_141100" data-name="Grupo 141100" transform="translate(7.643 17.003)">
              <path id="Trazado_192218" data-name="Trazado 192218" d="M48.7,235.13H31.231l-.081-1.27H48.617Z" transform="translate(-31.15 -233.86)" fill="#fff"/>
              <path id="Trazado_192219" data-name="Trazado 192219" d="M49.587,248.55H32.12l-.09-1.27H49.5Z" transform="translate(-31.314 -236.357)" fill="#fff"/>
              <path id="Trazado_192220" data-name="Trazado 192220" d="M58.021,241.378H31.641L31.56,240.1H57.94Z" transform="translate(-31.226 -235.021)" fill="#fff"/>
              <path id="Trazado_192221" data-name="Trazado 192221" d="M74.318,235.13H56.851l-.081-1.27H74.237Z" transform="translate(-35.917 -233.86)" fill="#fff"/>
            </g>
            <g id="Grupo_141101" data-name="Grupo 141101" transform="translate(11.631 88.1)">
              <path id="Trazado_192222" data-name="Trazado 192222" d="M53.631,322.48H36.164l-.114-1.27H53.517Z" transform="translate(-36.05 -321.21)" fill="#fff"/>
              <path id="Trazado_192223" data-name="Trazado 192223" d="M54.811,335.9H37.344l-.114-1.27H54.7Z" transform="translate(-36.27 -323.707)" fill="#fff"/>
              <path id="Trazado_192224" data-name="Trazado 192224" d="M63.094,328.73H36.714l-.114-1.27H62.98Z" transform="translate(-36.152 -322.373)" fill="#fff"/>
              <path id="Trazado_192225" data-name="Trazado 192225" d="M79.243,322.48H61.776l-.106-1.27H79.129Z" transform="translate(-40.817 -321.21)" fill="#fff"/>
            </g>
            <g id="Grupo_141103" data-name="Grupo 141103" transform="translate(9.311 38.654)">
              <path id="Trazado_192226" data-name="Trazado 192226" d="M36.155,295H72.92L69.974,260.46H33.2Z" transform="translate(-33.2 -260.46)" fill="#fff"/>
              <g id="Grupo_141102" data-name="Grupo 141102" transform="translate(9.345 7.708)">
                <path id="Trazado_192227" data-name="Trazado 192227" d="M66.665,275.973s2.7,14.447.733,15.416-21.984,1.376-22.619,0,1.962-11.021,4.452-11.086,4.493,11.607,7.211,5.706,8.725-15.676,10.223-10.036Z" transform="translate(-44.681 -270.739)" fill="#daebe8"/>
                <path id="Trazado_192228" data-name="Trazado 192228" d="M56.4,272.819a2.783,2.783,0,0,0-2.71-2.889,2.87,2.87,0,0,0-2.784,2.889,2.783,2.783,0,0,0,2.71,2.889A2.87,2.87,0,0,0,56.4,272.819Z" transform="translate(-45.84 -269.93)" fill="#daebe8"/>
              </g>
            </g>
            <g id="Grupo_141105" data-name="Grupo 141105" transform="translate(14.586 113.593)">
              <path id="Trazado_192229" data-name="Trazado 192229" d="M42.626,387.082H79.392L76.445,352.53H39.68Z" transform="translate(-39.68 -352.53)" fill="#fff"/>
              <g id="Grupo_141104" data-name="Grupo 141104" transform="translate(9.337 7.716)">
                <path id="Trazado_192230" data-name="Trazado 192230" d="M73.135,368.043s2.7,14.447.733,15.416-21.984,1.376-22.619,0,1.962-11.021,4.452-11.086,4.493,11.607,7.211,5.706,8.725-15.676,10.223-10.036Z" transform="translate(-51.151 -362.818)" fill="#daebe8"/>
                <path id="Trazado_192231" data-name="Trazado 192231" d="M62.884,364.9a2.783,2.783,0,0,0-2.71-2.889A2.87,2.87,0,0,0,57.39,364.9a2.783,2.783,0,0,0,2.71,2.889A2.87,2.87,0,0,0,62.884,364.9Z" transform="translate(-52.312 -362.01)" fill="#daebe8"/>
              </g>
            </g>
          </g>
        </g>
      </g>
      <g id="Grupo_141109" data-name="Grupo 141109" transform="translate(172.626 158.508)">
        <path id="Trazado_192232" data-name="Trazado 192232" d="M217.048,181.616c-.057,0-1.416-.236-1.416-.236a.31.31,0,0,1,.106-.61l1.359.236a.312.312,0,0,1,.252.358A.3.3,0,0,1,217.048,181.616Z" transform="translate(-210.821 -180.766)"/>
        <path id="Trazado_192233" data-name="Trazado 192233" d="M210.089,182.081a.31.31,0,0,1-.073-.61l2.3-.562a.31.31,0,1,1,.147.6l-2.3.562h-.073Z" transform="translate(-209.779 -180.791)"/>
        <path id="Trazado_192234" data-name="Trazado 192234" d="M211.085,188.029a.306.306,0,0,1-.3-.252l-.285-1.652a.313.313,0,0,1,.13-.3l1.156-.806a.309.309,0,1,1,.358.5l-.993.7.252,1.457a.31.31,0,0,1-.252.358h-.057Z" transform="translate(-209.913 -181.546)"/>
        <path id="Trazado_192235" data-name="Trazado 192235" d="M217.915,186.509a.306.306,0,0,1-.3-.252l-.285-1.652a.313.313,0,0,1,.13-.3l1.156-.806a.309.309,0,1,1,.358.5l-.993.7.252,1.457a.31.31,0,0,1-.252.358h-.057Z" transform="translate(-211.184 -181.263)"/>
        <path id="Trazado_192236" data-name="Trazado 192236" d="M216.374,191.6a.286.286,0,0,1-.1-.016.307.307,0,0,1-.2-.391c.627-1.9-.643-4.265-.659-4.289a.306.306,0,1,1,.537-.293c.057.106,1.416,2.613.708,4.778a.305.305,0,0,1-.293.212Z" transform="translate(-210.822 -181.824)"/>
        <path id="Trazado_192237" data-name="Trazado 192237" d="M213.967,197.358c-1.441,0-2.027-1.636-2.051-1.7a.3.3,0,0,1,.041-.277.312.312,0,0,1,.252-.13h3.516a.312.312,0,0,1,.252.13.307.307,0,0,1,.041.277C215.994,195.73,215.408,197.358,213.967,197.358Zm-1.262-1.5a1.345,1.345,0,0,0,2.523,0H212.7Z" transform="translate(-210.174 -183.461)"/>
      </g>
    </g>
  </g>
</svg>
