<svg xmlns="http://www.w3.org/2000/svg" width="566" height="232" viewBox="0 0 566 232">
  <g id="Grupo_146534" data-name="Grupo 146534" transform="translate(-7796.658 -10283)">
    <g id="Grupo_141928" data-name="Grupo 141928" transform="translate(6986.658 9558.879)">
      <rect id="Rectángulo_42499" data-name="Rectángulo 42499" width="521" height="2" transform="translate(855 724.121)" fill="#4dd0e1" opacity="0.2"/>
      <rect id="Rectángulo_42500" data-name="Rectángulo 42500" width="521" height="2" transform="translate(855 954.121)" fill="#4dd0e1" opacity="0.2"/>
      <rect id="Rectángulo_42501" data-name="Rectángulo 42501" width="190" height="232" transform="translate(1186 724.121)" fill="#4dd0e1"/>
      <rect id="_30" data-name="30" width="555" height="214" rx="15" transform="translate(810 733.121)" fill="#fff"/>
    </g>
    <g id="_6" data-name="6" transform="translate(7962.742 10302.827)">
      <path id="Shadow" d="M183.289,499.958a2.087,2.087,0,0,1-2.023-1.676l-.471-2.469a27.778,27.778,0,0,1-3.136-.767h-.079l-4.358,2.018a2.39,2.39,0,0,1-1.018.213,2.552,2.552,0,0,1-1.239-.313l-4.341-2.506a1.723,1.723,0,0,1-.15-2.944l2.627-1.889a9.643,9.643,0,0,1-.655-.988l-5.53-.35a1.984,1.984,0,0,1-1.856-1.977v-3.228a1.984,1.984,0,0,1,1.86-1.977l5.53-.35a9.883,9.883,0,0,1,.655-.988l-2.627-1.889a1.723,1.723,0,0,1,.15-2.944l4.341-2.506a2.562,2.562,0,0,1,2.256-.1l4.358,2.018h.054c.013,0,0,0-.017.012a26.744,26.744,0,0,1,3.174-.78l.471-2.469a2.09,2.09,0,0,1,2.023-1.676h6.385a2.087,2.087,0,0,1,2.023,1.676l.467,2.473a27.573,27.573,0,0,1,3.136.767h.079l4.358-2.018a2.455,2.455,0,0,1,1.018-.213,2.551,2.551,0,0,1,1.239.313l4.341,2.506a1.723,1.723,0,0,1,.15,2.944l-2.627,1.889a9.883,9.883,0,0,1,.655.988l5.53.35a1.987,1.987,0,0,1,1.856,1.977v3.227a1.984,1.984,0,0,1-1.856,1.977l-5.53.35a9.206,9.206,0,0,1-.655.988l2.627,1.889a1.723,1.723,0,0,1-.15,2.944l-4.341,2.506a2.5,2.5,0,0,1-1.239.313h0a2.468,2.468,0,0,1-1.018-.213l-4.358-2.018h-.058c-.013,0,0,0,.017-.012a26.966,26.966,0,0,1-3.174.78l-.471,2.473a2.09,2.09,0,0,1-2.023,1.676h-6.385Zm3.19-19.849a13.5,13.5,0,0,0-6.631,1.564c-1.485.855-2.335,1.956-2.335,3.019s.851,2.16,2.335,3.019a14.842,14.842,0,0,0,13.262,0c1.485-.855,2.335-1.956,2.335-3.019s-.851-2.16-2.335-3.019A13.5,13.5,0,0,0,186.479,480.109Z" transform="translate(-117.9 -307.616)" fill="#e1e1e1"/>
      <path id="Shadow-2" d="M277.718,442.874a2.332,2.332,0,0,1-1.635-.717l-1.731-1.822c-.425.021-.859.033-1.28.033s-.842-.013-1.259-.033l-1.843,1.939a2.052,2.052,0,0,1-1.5.592,2.189,2.189,0,0,1-.551-.067l-4.3-1.026a1.854,1.854,0,0,1-1.268-1,1.618,1.618,0,0,1,.021-1.4l.684-1.351c-.367-.2-.717-.421-1.047-.646l-4.062.684a1.816,1.816,0,0,1-.309.025,2.214,2.214,0,0,1-1.739-.909l-1.626-2.26a1.868,1.868,0,0,1-.354-1.047,1.663,1.663,0,0,1,1.172-1.61l3.124-.988v-.142l-3.024-.959a1.762,1.762,0,0,1-1.289-1.539v-.108a1.619,1.619,0,0,1,.313-.946l1.772-2.473a2.035,2.035,0,0,1,1.66-.788,2.176,2.176,0,0,1,.367.029l4,.671c.288-.2.6-.392.926-.58.042-.021.083-.046.125-.071l-.634-1.251a1.85,1.85,0,0,1-.2-.713l-.017-.208.025-.117a1.688,1.688,0,0,1,1.28-1.439l4.5-1.076a1.8,1.8,0,0,1,.434-.05,2.34,2.34,0,0,1,1.635.717l1.731,1.818c.438-.025.876-.033,1.31-.033s.826.013,1.234.033l1.839-1.935a2.055,2.055,0,0,1,1.5-.592,2.156,2.156,0,0,1,.546.067l4.3,1.03a1.769,1.769,0,0,1,1.418,1.664,1.6,1.6,0,0,1-.154.7l-.7,1.384.142.079c.321.188.626.375.9.567l4.07-.684a1.8,1.8,0,0,1,.3-.025,2.224,2.224,0,0,1,1.735.9l1.631,2.273a1.8,1.8,0,0,1,.35,1.017l.013.179-.033.129a1.632,1.632,0,0,1-1.126,1.322l-3.145,1v.142l3.024.955a1.752,1.752,0,0,1,.984,2.585c-.521.8-1.122,1.568-1.681,2.344l-.1.133a2.034,2.034,0,0,1-1.66.788,2.24,2.24,0,0,1-.375-.033l-3.991-.671c-.334.229-.684.442-1.051.646l.634,1.255a1.779,1.779,0,0,1,.038,1.551,1.692,1.692,0,0,1-1.159.93l-4.471,1.072a1.914,1.914,0,0,1-.43.05Zm-10.852-10.867a3.264,3.264,0,0,0,.842.859,4.669,4.669,0,0,0,.521.338,8.125,8.125,0,0,0,2.164.826,11.6,11.6,0,0,0,2.686.309,10.093,10.093,0,0,0,4.842-1.126,5.143,5.143,0,0,0,.521-.338,3.452,3.452,0,0,0,.776-.759,1.388,1.388,0,0,0,.133-1.635s-.058-.1-.079-.129c-.033-.05-.067-.1-.1-.146a1.345,1.345,0,0,0-.113-.133l-.038-.033L278.99,430l-.038-.038a6.581,6.581,0,0,0-3.186-1.6,11.6,11.6,0,0,0-2.686-.309c-2.677,0-5.2.913-6.143,2.227a1.371,1.371,0,0,0-.238,1.409l.05.117.113.2v.012Z" transform="translate(-172.021 -278.512)" fill="#e1e1e1"/>
      <ellipse id="Shadow-3" cx="24.406" cy="14.09" rx="24.406" ry="14.09" transform="translate(174.147 121.199)" fill="#e1e1e1"/>
      <ellipse id="Shadow-4" cx="24.406" cy="14.09" rx="24.406" ry="14.09" transform="translate(128.088 138.121)" fill="#e1e1e1"/>
      <g id="Gears" transform="translate(45.162 136.841)">
        <g id="Grupo_142200" data-name="Grupo 142200" transform="translate(0 19.644)">
          <path id="Trazado_196797" data-name="Trazado 196797" d="M165.888,471.272l.013,7.71a.575.575,0,0,0,.53.563l4.02.254v5.667h0a.343.343,0,0,0,.2.288l4.241,2.448a1.064,1.064,0,0,0,.538.108v.008a1.009,1.009,0,0,0,.4-.075l4.3-1.989a1.591,1.591,0,0,1,.984-.058,25.277,25.277,0,0,0,3.336.792.814.814,0,0,1,.621.6l.538,2.831a.655.655,0,0,0,.234.371h0a.631.631,0,0,0,.4.15h6.235a.62.62,0,0,0,.354-.133.434.434,0,0,0,.079-.071c.029-.029.067-.046.088-.079V490.6c.033-.058.092-.1.1-.171l.538-2.831a.814.814,0,0,1,.621-.6,25.942,25.942,0,0,0,3.336-.792,1.591,1.591,0,0,1,.984.058l4.3,1.989a.986.986,0,0,0,.259.042v.029c.05,0,.1,0,.15,0h.113a1.017,1.017,0,0,0,.4-.1h.008l4.241-2.448a.45.45,0,0,0,.15-.142l.008-.008a.29.29,0,0,0,.033-.113s0-.013,0-.017h0v-2.414h0v-3.257h0l3.949-.25h.075c.042-.008.063-.042.1-.054a.535.535,0,0,0,.267-.129.615.615,0,0,0,.083-.2c.025-.063.075-.108.075-.179h0v-3.161h0V471.8h0v-3.152a.575.575,0,0,0-.53-.563l-4.025-.254v-5.65a.331.331,0,0,0-.2-.3l-4.241-2.448a1.135,1.135,0,0,0-.938-.042l-4.3,1.989a1.59,1.59,0,0,1-.984.058,25.951,25.951,0,0,0-3.336-.792.815.815,0,0,1-.621-.6l-.538-2.831a.663.663,0,0,0-.63-.521h-6.235a.671.671,0,0,0-.63.521l-.538,2.831a.815.815,0,0,1-.621.6,25.951,25.951,0,0,0-3.336.792,1.59,1.59,0,0,1-.984-.058l-4.3-1.989a1.151,1.151,0,0,0-.938.042l-4.241,2.448a.335.335,0,0,0-.2.309h0v5.646l-4.02.254a.572.572,0,0,0-.53.563v2.523a.49.49,0,0,0-.013.113Zm16.294,2a15.825,15.825,0,0,1,14.326,0c.3.171.576.35.834.53a9.238,9.238,0,0,1-.83.546,15.825,15.825,0,0,1-14.326,0,8.38,8.38,0,0,1-.83-.542c.254-.179.525-.359.826-.53Z" transform="translate(-165.872 -456.673)" fill="#feca2e"/>
          <path id="Trazado_196798" data-name="Trazado 196798" d="M165.877,491.514l.013,7.71a.575.575,0,0,0,.53.563l4.02.254v5.667a.343.343,0,0,0,.2.288l4.241,2.444a1.05,1.05,0,0,0,.534.113v.008a.88.88,0,0,0,.4-.079l4.3-1.989a1.309,1.309,0,0,1,.4-.1h0a1.461,1.461,0,0,1,.58.038,25.269,25.269,0,0,0,3.336.792.719.719,0,0,1,.263.108v.033a.752.752,0,0,1,.359.463l.538,2.831a.634.634,0,0,0,.234.371h0a.609.609,0,0,0,.4.15h6.235a.467.467,0,0,0,.113-.013.671.671,0,0,0,.409-.271v-.067c.033-.058.092-.1.1-.171l.538-2.831a.733.733,0,0,1,.25-.4v-.008a.734.734,0,0,1,.371-.188,25.941,25.941,0,0,0,3.336-.792,1.608,1.608,0,0,1,.655-.033v.017a1.429,1.429,0,0,1,.325.075l4.3,1.989a.838.838,0,0,0,.259.042v.029h0a1.124,1.124,0,0,0,.671-.113h0L208.028,506a.583.583,0,0,0,.092-.067.389.389,0,0,0,.067-.083.359.359,0,0,0,.038-.125h0V500.05l.734-.05,3.211-.2h.075a.58.58,0,0,0,.525-.559v-7.206a.571.571,0,0,1-.525.563l-5.651.359a1.043,1.043,0,0,0-.763.509,8.386,8.386,0,0,1-1.2,1.668.447.447,0,0,0,.063.688l3.357,2.419a.317.317,0,0,1-.029.575l-4.237,2.448a1.15,1.15,0,0,1-.938.042l-4.3-1.989a1.561,1.561,0,0,0-.984-.058,25.279,25.279,0,0,1-3.336.792.816.816,0,0,0-.621.6l-.538,2.831a.662.662,0,0,1-.626.521h-6.235a.662.662,0,0,1-.626-.521l-.538-2.831a.8.8,0,0,0-.617-.6,26.01,26.01,0,0,1-3.341-.8,1.591,1.591,0,0,0-.984.058l-4.3,1.989a1.135,1.135,0,0,1-.938-.042l-4.241-2.448a.316.316,0,0,1-.029-.571l3.361-2.419a.446.446,0,0,0,.058-.688,8.583,8.583,0,0,1-1.2-1.664,1.054,1.054,0,0,0-.763-.509L166.4,492.6a.571.571,0,0,1-.525-.563v-.63a.518.518,0,0,0-.013.113Z" transform="translate(-165.86 -476.915)" fill="#0f2771"/>
          <path id="Trazado_196799" data-name="Trazado 196799" d="M176.83,469.83v5.646l1.631-.1a1.032,1.032,0,0,0,.763-.509,8.411,8.411,0,0,1,1.2-1.664.446.446,0,0,0-.058-.688l-3.361-2.419a.381.381,0,0,1-.167-.263h0Z" transform="translate(-172.255 -464.334)" fill="#0f2771"/>
          <path id="Trazado_196800" data-name="Trazado 196800" d="M199.99,484.525q.175-.125.363-.25l.042-.029c.133-.088.271-.171.417-.254a15.825,15.825,0,0,1,14.326,0q.194.113.375.225c.158.1.309.2.45.3,3.1-2.3,2.828-5.617-.826-7.727a15.825,15.825,0,0,0-14.326,0c-3.662,2.11-3.933,5.433-.826,7.727Z" transform="translate(-184.505 -467.395)" fill="#0f2771"/>
          <path id="Trazado_196801" data-name="Trazado 196801" d="M258.654,473.192a8.363,8.363,0,0,1,1.2,1.664,1.051,1.051,0,0,0,.763.509l1.622.1V469.81a.358.358,0,0,1-.167.279l-3.357,2.419a.447.447,0,0,0-.063.688Z" transform="translate(-219.877 -464.322)" fill="#0f2771"/>
          <path id="Trazado_196802" data-name="Trazado 196802" d="M202.88,459.352l-4.3,1.989a1.591,1.591,0,0,1-.984.058,25.951,25.951,0,0,0-3.336-.792.815.815,0,0,1-.621-.6l-.538-2.831a.663.663,0,0,0-.63-.521h-6.235a.671.671,0,0,0-.63.521L185.072,460a.815.815,0,0,1-.621.6,25.952,25.952,0,0,0-3.336.792,1.591,1.591,0,0,1-.984-.058l-4.3-1.989a1.151,1.151,0,0,0-.938.042l-4.241,2.448a.317.317,0,0,0-.029.575l3.361,2.419a.447.447,0,0,1,.063.688,8.535,8.535,0,0,0-1.2,1.664,1.043,1.043,0,0,1-.763.509l-5.651.359a.572.572,0,0,0-.53.563v3.152a.575.575,0,0,0,.53.563l5.651.359a1.031,1.031,0,0,1,.763.509,8.365,8.365,0,0,0,1.2,1.664.447.447,0,0,1-.063.688l-3.361,2.419a.317.317,0,0,0,.029.575l4.241,2.448a1.135,1.135,0,0,0,.938.042l4.3-1.989a1.591,1.591,0,0,1,.984-.058,25.269,25.269,0,0,0,3.336.792.814.814,0,0,1,.621.6l.538,2.831a.663.663,0,0,0,.63.521h6.235a.671.671,0,0,0,.63-.521l.538-2.831a.815.815,0,0,1,.621-.6,25.951,25.951,0,0,0,3.336-.792,1.591,1.591,0,0,1,.984.058l4.3,1.989a1.151,1.151,0,0,0,.938-.042l4.241-2.448a.317.317,0,0,0,.029-.575l-3.361-2.419a.447.447,0,0,1-.063-.688,8.539,8.539,0,0,0,1.2-1.664,1.043,1.043,0,0,1,.763-.509l5.651-.359a.572.572,0,0,0,.53-.563v-3.152a.575.575,0,0,0-.53-.563l-5.651-.359a1.031,1.031,0,0,1-.763-.509,8.364,8.364,0,0,0-1.2-1.664.447.447,0,0,1,.063-.688l3.361-2.419a.317.317,0,0,0-.029-.576l-4.241-2.448A1.135,1.135,0,0,0,202.88,459.352Zm-6.36,6.7c3.954,2.285,3.954,5.984,0,8.269a15.825,15.825,0,0,1-14.326,0c-3.954-2.285-3.954-5.988,0-8.269A15.825,15.825,0,0,1,196.52,466.053Z" transform="translate(-165.883 -456.65)" fill="#feca2e"/>
          <path id="Trazado_196803" data-name="Trazado 196803" d="M264.854,499.364a.365.365,0,0,0-.171-.284l-1.693-1.218v-4a1.006,1.006,0,0,1,.234-.058l5.651-.359a.568.568,0,0,0,.525-.563v7.206a.576.576,0,0,1-.525.555H268.8l-3.211.208-.734.05v-1.535Z" transform="translate(-222.482 -477.772)" fill="#feca2e"/>
          <path id="Trazado_196804" data-name="Trazado 196804" d="M264.854,499.364a.365.365,0,0,0-.171-.284l-1.693-1.218v-4a1.006,1.006,0,0,1,.234-.058l5.651-.359a.568.568,0,0,0,.525-.563v7.206a.576.576,0,0,1-.525.555H268.8l-3.211.208-.734.05v-1.535Z" transform="translate(-222.482 -477.772)" fill="#0f2771"/>
          <path id="Trazado_196805" data-name="Trazado 196805" d="M243.49,510.12a1.194,1.194,0,0,1,.325.088l4.3,1.989a1.089,1.089,0,0,0,.551.071v7.2a1.33,1.33,0,0,1-.288,0h0v-.029a.96.96,0,0,1-.259-.042l-4.3-1.989a1.392,1.392,0,0,0-.321-.075v-7.21Z" transform="translate(-211.115 -487.824)" fill="#feca2e"/>
          <path id="Trazado_196806" data-name="Trazado 196806" d="M243.49,510.12a1.194,1.194,0,0,1,.325.088l4.3,1.989a1.089,1.089,0,0,0,.551.071v7.2a1.33,1.33,0,0,1-.288,0h0v-.029a.96.96,0,0,1-.259-.042l-4.3-1.989a1.392,1.392,0,0,0-.321-.075v-7.21Z" transform="translate(-211.115 -487.824)" fill="#0f2771"/>
          <path id="Trazado_196807" data-name="Trazado 196807" d="M230.93,516.268a.592.592,0,0,0,.079-.2l.538-2.831a.631.631,0,0,1,.083-.217v7.2a.591.591,0,0,0-.083.208l-.538,2.831a.33.33,0,0,1-.079.138Z" transform="translate(-203.793 -489.514)" fill="#feca2e"/>
          <path id="Trazado_196808" data-name="Trazado 196808" d="M230.93,516.268a.592.592,0,0,0,.079-.2l.538-2.831a.631.631,0,0,1,.083-.217v7.2a.591.591,0,0,0-.083.208l-.538,2.831a.33.33,0,0,1-.079.138Z" transform="translate(-203.793 -489.514)" fill="#0f2771"/>
          <path id="Trazado_196809" data-name="Trazado 196809" d="M211.68,513.02a.664.664,0,0,1,.083.213l.538,2.831a.545.545,0,0,0,.083.2v7.193a.7.7,0,0,1-.083-.2l-.538-2.831a.527.527,0,0,0-.083-.192v-7.214Z" transform="translate(-192.571 -489.514)" fill="#0f2771"/>
          <path id="Trazado_196810" data-name="Trazado 196810" d="M188.4,512.267a1.083,1.083,0,0,0,.551-.071l4.3-1.989a1.365,1.365,0,0,1,.325-.088v7.2a1.243,1.243,0,0,0-.325.083l-4.3,1.989a1.008,1.008,0,0,1-.4.079v-.008c-.05,0-.1,0-.15,0v-7.189Z" transform="translate(-179 -487.824)" fill="#0f2771"/>
          <path id="Trazado_196811" data-name="Trazado 196811" d="M166.438,492.583l5.651.354a.712.712,0,0,1,.234.058v4l-1.693,1.218a.353.353,0,0,0-.167.284v1.53l-4.02-.254a.572.572,0,0,1-.53-.563l-.013-7.71a.465.465,0,0,1,.013-.113v.63a.571.571,0,0,0,.525.563Z" transform="translate(-165.883 -476.904)" fill="#0f2771"/>
        </g>
        <g id="Grupo_142201" data-name="Grupo 142201" transform="translate(38.614)">
          <path id="Trazado_196812" data-name="Trazado 196812" d="M293.2,422.184h0v-.008h0a.186.186,0,0,0-.029-.1h0c0-1.789,0-4.887,0-5.083v-.008a.431.431,0,0,0-.088-.242l-1.585-2.21a.767.767,0,0,0-.655-.309l-4.145.7a1.286,1.286,0,0,1-.792-.225c-.259-.179-.534-.354-.822-.517v-3.294c0-.133-.125-.259-.329-.309l-4.212-1a.787.787,0,0,0-.68.129l-2.014,2.118a.957.957,0,0,1-.663.2,22.25,22.25,0,0,0-2.74,0,1.1,1.1,0,0,1-.738-.321l-1.8-1.9a.827.827,0,0,0-.7-.259l-4.375,1.042a.289.289,0,0,0-.225.288v3.286a11.459,11.459,0,0,0-.976.621,1.136,1.136,0,0,1-.721.121l-4.016-.676a.7.7,0,0,0-.638.188l-1.743,2.431a.18.18,0,0,0-.038.108v.017c0,.367-.008,6.276-.008,6.313a.238.238,0,0,0,.033.1c0,1.818,0,5-.008,5.079a.426.426,0,0,0,.092.259l1.585,2.214a.752.752,0,0,0,.655.3l4.146-.7a1.306,1.306,0,0,1,.792.225c.259.179.534.354.826.521v3.286c-.013.133.121.267.329.317l4.208,1a.787.787,0,0,0,.68-.129l2.014-2.118a.951.951,0,0,1,.663-.2,23.1,23.1,0,0,0,2.74,0,1.1,1.1,0,0,1,.738.321l1.806,1.9a.839.839,0,0,0,.7.258l4.375-1.047a.283.283,0,0,0,.225-.242c.013-.071.008-3.332.008-3.332a11.434,11.434,0,0,0,.976-.621,1.108,1.108,0,0,1,.721-.125l4.02.68a.714.714,0,0,0,.638-.188l1.743-2.431a.2.2,0,0,0,.038-.113c0-.117.008-6.1,0-6.317h0Zm-23.426.129c.192-.133.4-.267.626-.4a12.035,12.035,0,0,1,10.885,0c.217.129.425.259.613.388a6.176,6.176,0,0,1-.659.43,12.153,12.153,0,0,1-8.349.942,9.352,9.352,0,0,1-2.469-.947,6.083,6.083,0,0,1-.642-.417Z" transform="translate(-258.456 -409.542)" fill="#feca2e"/>
          <path id="Trazado_196813" data-name="Trazado 196813" d="M293.2,422.184h0v-.008h0a.186.186,0,0,0-.029-.1h0c0-1.789,0-4.887,0-5.083v-.008a.431.431,0,0,0-.088-.242l-1.585-2.21a.767.767,0,0,0-.655-.309l-4.145.7a1.286,1.286,0,0,1-.792-.225c-.259-.179-.534-.354-.822-.517v-3.294c0-.133-.125-.259-.329-.309l-4.212-1a.787.787,0,0,0-.68.129l-2.014,2.118a.957.957,0,0,1-.663.2,22.25,22.25,0,0,0-2.74,0,1.1,1.1,0,0,1-.738-.321l-1.8-1.9a.827.827,0,0,0-.7-.259l-4.375,1.042a.289.289,0,0,0-.225.288v3.286a11.459,11.459,0,0,0-.976.621,1.136,1.136,0,0,1-.721.121l-4.016-.676a.7.7,0,0,0-.638.188l-1.743,2.431a.18.18,0,0,0-.038.108v.017c0,.367-.008,6.276-.008,6.313a.238.238,0,0,0,.033.1c0,1.818,0,5-.008,5.079a.426.426,0,0,0,.092.259l1.585,2.214a.752.752,0,0,0,.655.3l4.146-.7a1.306,1.306,0,0,1,.792.225c.259.179.534.354.826.521v3.286c-.013.133.121.267.329.317l4.208,1a.787.787,0,0,0,.68-.129l2.014-2.118a.951.951,0,0,1,.663-.2,23.1,23.1,0,0,0,2.74,0,1.1,1.1,0,0,1,.738.321l1.806,1.9a.839.839,0,0,0,.7.258l4.375-1.047a.283.283,0,0,0,.225-.242c.013-.071.008-3.332.008-3.332a11.434,11.434,0,0,0,.976-.621,1.108,1.108,0,0,1,.721-.125l4.02.68a.714.714,0,0,0,.638-.188l1.743-2.431a.2.2,0,0,0,.038-.113c0-.117.008-6.1,0-6.317h0Zm-23.426.129c.192-.133.4-.267.626-.4a12.035,12.035,0,0,1,10.885,0c.217.129.425.259.613.388a6.176,6.176,0,0,1-.659.43,12.153,12.153,0,0,1-8.349.942,9.352,9.352,0,0,1-2.469-.947,6.083,6.083,0,0,1-.642-.417Z" transform="translate(-258.456 -409.542)" fill="#0f2771"/>
          <path id="Trazado_196814" data-name="Trazado 196814" d="M258.464,427.272v0a.192.192,0,0,1,0-.042.178.178,0,0,0-.008.046Z" transform="translate(-258.456 -419.854)" fill="#feca2e"/>
          <path id="Trazado_196815" data-name="Trazado 196815" d="M278.938,415.563c-.334.154-.659.321-.968.5V412.79a.333.333,0,0,0,.05.167l1.047,2.077a.38.38,0,0,1-.133.53Z" transform="translate(-269.829 -411.435)" fill="#0f2771"/>
          <path id="Trazado_196816" data-name="Trazado 196816" d="M262.733,429.259a4.207,4.207,0,0,0,0,1.372.441.441,0,0,1-.279.484l-3.787,1.2a.249.249,0,0,0-.179.242v1.23a.244.244,0,0,1-.033-.092c0-2.152.008-5.742.008-6.059v-.263c0,.113.121.225.3.284l3.578,1.134A.488.488,0,0,1,262.733,429.259Z" transform="translate(-258.45 -419.936)" fill="#0f2771"/>
          <path id="Trazado_196817" data-name="Trazado 196817" d="M268.1,444.726v6.33c-.054,0-.1,0-.15,0l-4.145.7a.538.538,0,0,1-.213-.017v-6.317a.5.5,0,0,0,.221.013l4.145-.7A.53.53,0,0,1,268.1,444.726Z" transform="translate(-261.446 -430.053)" fill="#0f2771"/>
          <path id="Trazado_196818" data-name="Trazado 196818" d="M275.864,451.806c-.288-.167-.563-.338-.822-.517a1.423,1.423,0,0,0-.642-.229v-6.33a1.4,1.4,0,0,1,.646.234,12.4,12.4,0,0,0,1.681.963c.246.121.384.334.3.5l-1.139,2.256a.19.19,0,0,0-.021.1c0,.129,0,3.027,0,3.027Z" transform="translate(-267.748 -430.057)" fill="#0f2771"/>
          <path id="Trazado_196819" data-name="Trazado 196819" d="M292.176,451.85v6.326a.644.644,0,0,0-.254.142l-2.014,2.118a.617.617,0,0,1-.367.146v-6.326a.6.6,0,0,0,.375-.142l2.014-2.122a.64.64,0,0,1,.242-.142Z" transform="translate(-276.574 -434.208)" fill="#0f2771"/>
          <path id="Trazado_196820" data-name="Trazado 196820" d="M299.276,451.729v6.326a.924.924,0,0,0-.263-.042,22.324,22.324,0,0,1-2.744,0,1.061,1.061,0,0,0-.409.063V451.75a1.091,1.091,0,0,1,.417-.063,23.093,23.093,0,0,0,2.74,0A.742.742,0,0,1,299.276,451.729Z" transform="translate(-280.258 -434.112)" fill="#0f2771"/>
          <path id="Trazado_196821" data-name="Trazado 196821" d="M306.732,454.2v6.322a.926.926,0,0,1-.4-.234l-1.806-1.9a1.16,1.16,0,0,0-.475-.279V451.79a1.122,1.122,0,0,1,.484.279l1.806,1.9A.93.93,0,0,0,306.732,454.2Z" transform="translate(-285.033 -434.173)" fill="#0f2771"/>
          <path id="Trazado_196822" data-name="Trazado 196822" d="M315.379,454.57v2.986h0V459.3c0,.788,0,1.555-.008,1.589a.287.287,0,0,1-.225.242l-4.375,1.047a.63.63,0,0,1-.3-.021v-6.322a.615.615,0,0,0,.309.021l4.375-1.047a.279.279,0,0,0,.225-.234Z" transform="translate(-288.775 -435.794)" fill="#feca2e"/>
          <path id="Trazado_196823" data-name="Trazado 196823" d="M315.379,454.57v2.986h0V459.3c0,.788,0,1.555-.008,1.589a.287.287,0,0,1-.225.242l-4.375,1.047a.63.63,0,0,1-.3-.021v-6.322a.615.615,0,0,0,.309.021l4.375-1.047a.279.279,0,0,0,.225-.234Z" transform="translate(-288.775 -435.794)" fill="#0f2771"/>
          <path id="Trazado_196824" data-name="Trazado 196824" d="M322.054,444.75v6.326a.892.892,0,0,0-.438.133,10.812,10.812,0,0,1-.976.617s.008-2.9,0-3.036a.409.409,0,0,0-.046-.179l-1.051-2.081a.377.377,0,0,1,.133-.525,11.944,11.944,0,0,0,1.943-1.113.872.872,0,0,1,.43-.133Z" transform="translate(-294.037 -430.068)" fill="#0f2771"/>
          <path id="Trazado_196825" data-name="Trazado 196825" d="M338.845,439.86c0,.221,0,6.2,0,6.317a.18.18,0,0,1-.042.113l-1.743,2.427a.507.507,0,0,1-.3.171V442.57a.555.555,0,0,0,.309-.175l1.739-2.431A.169.169,0,0,0,338.845,439.86Z" transform="translate(-304.101 -427.217)" fill="#feca2e"/>
          <path id="Trazado_196826" data-name="Trazado 196826" d="M338.845,439.86c0,.221,0,6.2,0,6.317a.18.18,0,0,1-.042.113l-1.743,2.427a.507.507,0,0,1-.3.171V442.57a.555.555,0,0,0,.309-.175l1.739-2.431A.169.169,0,0,0,338.845,439.86Z" transform="translate(-304.101 -427.217)" fill="#feca2e"/>
          <path id="Trazado_196827" data-name="Trazado 196827" d="M338.845,439.86c0,.221,0,6.2,0,6.317a.18.18,0,0,1-.042.113l-1.743,2.427a.507.507,0,0,1-.3.171V442.57a.555.555,0,0,0,.309-.175l1.739-2.431A.169.169,0,0,0,338.845,439.86Z" transform="translate(-304.101 -427.217)" fill="#0f2771"/>
          <path id="Trazado_196828" data-name="Trazado 196828" d="M266.6,410.9v.017a.373.373,0,0,0,.046.167l1.047,2.077a.38.38,0,0,1-.133.53c-.334.154-.659.321-.968.5a11.437,11.437,0,0,0-.976.621,1.135,1.135,0,0,1-.722.121l-4.016-.675a.7.7,0,0,0-.638.188l-1.743,2.431a.18.18,0,0,0-.038.108v.017c.008.113.121.225.3.284l3.578,1.134a.489.489,0,0,1,.392.475,4.327,4.327,0,0,0,0,1.372.441.441,0,0,1-.279.484l-3.787,1.2a.244.244,0,0,0-.179.238.477.477,0,0,0,.088.246l1.589,2.21a.757.757,0,0,0,.655.309l4.145-.7a1.265,1.265,0,0,1,.792.229,12.411,12.411,0,0,0,1.681.967c.246.121.384.338.3.5L266.6,428.2c-.079.163.058.338.309.4l4.208,1a.8.8,0,0,0,.68-.125l2.014-2.118a.969.969,0,0,1,.659-.208,22.243,22.243,0,0,0,2.74,0,1.1,1.1,0,0,1,.742.317l1.806,1.9a.835.835,0,0,0,.7.259l4.379-1.047a.305.305,0,0,0,.179-.467l-1.051-2.081a.381.381,0,0,1,.133-.53,12.138,12.138,0,0,0,1.943-1.118,1.113,1.113,0,0,1,.721-.125l4.02.676a.706.706,0,0,0,.638-.188l1.743-2.427a.18.18,0,0,0,.038-.108h0V422.2a.186.186,0,0,0-.029-.1h0a.474.474,0,0,0-.275-.192l-3.578-1.13a.493.493,0,0,1-.392-.475,4.326,4.326,0,0,0,0-1.372.438.438,0,0,1,.279-.484l3.787-1.2a.243.243,0,0,0,.175-.229v-.008a.431.431,0,0,0-.088-.242l-1.585-2.21a.766.766,0,0,0-.655-.309l-4.145.7a1.286,1.286,0,0,1-.792-.225c-.259-.179-.534-.354-.822-.517-.271-.154-.559-.3-.855-.45-.246-.117-.384-.334-.3-.492l1.143-2.26a.224.224,0,0,0,.021-.088c0-.133-.125-.258-.329-.309l-4.212-1a.787.787,0,0,0-.68.129l-2.014,2.118a.958.958,0,0,1-.663.2,22.237,22.237,0,0,0-2.74,0,1.1,1.1,0,0,1-.738-.321l-1.8-1.9a.826.826,0,0,0-.7-.259l-4.375,1.042a.289.289,0,0,0-.225.288Zm15.919,6.5c.038.038.071.071.108.113.029.025.05.054.075.079.054.063.1.125.154.188s.113.15.163.229c.033.05.063.1.092.146.013.025.029.046.042.071a2.719,2.719,0,0,1-.209,3.069,4.72,4.72,0,0,1-1.043,1.034,6.182,6.182,0,0,1-.659.429,12.153,12.153,0,0,1-8.349.942,9.354,9.354,0,0,1-2.469-.947,6.082,6.082,0,0,1-.642-.417,4.326,4.326,0,0,1-1.314-1.459c0-.008-.008-.013-.008-.021a.831.831,0,0,1-.042-.088c-.017-.033-.029-.063-.042-.092a.939.939,0,0,1-.042-.1,2.715,2.715,0,0,1,.392-2.685c1.626-2.268,6.131-3.344,10.055-2.406a7.739,7.739,0,0,1,3.741,1.91Z" transform="translate(-258.456 -409.559)" fill="#feca2e"/>
        </g>
      </g>
      <g id="Screen" transform="translate(37.618 0)">
        <g id="Window">
          <g id="Grupo_142203" data-name="Grupo 142203">
            <path id="Trazado_196829" data-name="Trazado 196829" d="M150.948,113.316a7.022,7.022,0,0,0-3.178,5.5V234.088c0,2.027,1.422,2.848,3.178,1.835l54.575-31.508a7.051,7.051,0,0,0,3.178-5.5V83.643c0-2.018-1.43-2.844-3.178-1.835Z" transform="translate(-147.77 -81.377)" fill="#bddcf6"/>
            <g id="Grupo_142202" data-name="Grupo 142202" transform="translate(0 0.001)">
              <path id="Trazado_196830" data-name="Trazado 196830" d="M149.851,236.45c-.943,0-1.531-.78-1.531-2.039V119.142a6.775,6.775,0,0,1,3.061-5.3L205.956,82.33a2.657,2.657,0,0,1,1.3-.4c.947,0,1.535.78,1.535,2.035V199.233a6.775,6.775,0,0,1-3.061,5.3l-54.575,31.508a2.707,2.707,0,0,1-1.305.4Z" transform="translate(-148.091 -81.701)" fill="#727997"/>
              <path id="Trazado_196831" data-name="Trazado 196831" d="M206.937,81.839c.817,0,1.305.676,1.305,1.806V198.913a6.626,6.626,0,0,1-2.949,5.1l-54.575,31.508a2.473,2.473,0,0,1-1.189.371c-.813,0-1.3-.676-1.3-1.81V118.821a6.52,6.52,0,0,1,2.949-5.1L205.752,82.21a2.433,2.433,0,0,1,1.184-.371m0-.459a2.882,2.882,0,0,0-1.414.429l-54.575,31.508a7.022,7.022,0,0,0-3.178,5.5V234.09c0,1.439.717,2.268,1.76,2.268a2.862,2.862,0,0,0,1.418-.434l54.575-31.508a7.051,7.051,0,0,0,3.178-5.5V83.644c0-1.434-.721-2.264-1.768-2.264h0Z" transform="translate(-147.77 -81.38)" fill="#27debf"/>
            </g>
          </g>
        </g>
        <g id="Grupo_142210" data-name="Grupo 142210" transform="translate(3.462 7.765)">
          <g id="Grupo_142204" data-name="Grupo 142204" transform="translate(6.656 25.544)">
            <path id="Trazado_196832" data-name="Trazado 196832" d="M172.768,165.905a.266.266,0,0,1-.017-.088v-.43l-.667.388c-.038.021-.054,0-.054-.058v-.154a.481.481,0,0,1,0-.083.567.567,0,0,1,.025-.083l.713-1.943a.741.741,0,0,1,.033-.075.113.113,0,0,1,.046-.042l.092-.054q.044-.025.063,0a.161.161,0,0,1,.021.1v1.493l.146-.088c.029-.017.046-.017.058,0a.161.161,0,0,1,.017.092v.1a.269.269,0,0,1-.017.108.122.122,0,0,1-.058.063l-.146.088v.43a.257.257,0,0,1-.017.108.159.159,0,0,1-.063.067l-.113.063c-.029.017-.046.017-.058,0Zm.025-.9v-1.067l-.484,1.347Z" transform="translate(-172.03 -162.431)" fill="#fafafa"/>
            <path id="Trazado_196833" data-name="Trazado 196833" d="M175.426,164.011a1.42,1.42,0,0,1-.2-.876,2.823,2.823,0,0,1,.2-1.1,1.356,1.356,0,0,1,.555-.667.8.8,0,0,1,.267-.1.337.337,0,0,1,.208.029.044.044,0,0,1,.021.038.124.124,0,0,1-.008.05l-.063.225q-.012.044-.025.05h-.029a.381.381,0,0,0-.342.054.94.94,0,0,0-.38.459,2.08,2.08,0,0,0-.138.813,1.131,1.131,0,0,0,.133.659c.088.108.209.117.367.029a.748.748,0,0,0,.163-.121.691.691,0,0,0,.129-.146v-.7l-.279.163c-.029.017-.046.017-.058,0a.161.161,0,0,1-.017-.092v-.1a.257.257,0,0,1,.017-.108.139.139,0,0,1,.058-.063l.446-.259c.029-.017.054-.017.067,0a.2.2,0,0,1,.021.108v.992a.257.257,0,0,1-.008.088.131.131,0,0,1-.029.067,1.412,1.412,0,0,1-.53.521c-.238.138-.425.129-.555-.025Z" transform="translate(-173.895 -161.258)" fill="#fafafa"/>
          </g>
          <g id="Grupo_142205" data-name="Grupo 142205" transform="translate(12.028 22.405)">
            <path id="Trazado_196834" data-name="Trazado 196834" d="M188.146,159.1a1.031,1.031,0,0,1-.388.821c-.213.125-.388-.042-.388-.375a1.025,1.025,0,0,1,.388-.821C187.971,158.6,188.146,158.764,188.146,159.1Z" transform="translate(-186.345 -156.616)" fill="#fafafa"/>
            <path id="Trazado_196835" data-name="Trazado 196835" d="M187.011,156.28a2.347,2.347,0,0,0-.9,1.355c-.033.121-.017.238.042.271h0c.075.046.184-.05.225-.2a1.65,1.65,0,0,1,.634-.959.409.409,0,0,1,.634.225c.042.1.154.071.225-.058h0a.412.412,0,0,0,.042-.321.587.587,0,0,0-.9-.313Z" transform="translate(-185.598 -155.155)" fill="#fafafa"/>
            <path id="Trazado_196836" data-name="Trazado 196836" d="M186.325,153.9a3.653,3.653,0,0,0-1.389,1.972c-.042.129-.029.259.033.3h0c.071.046.175-.042.221-.188a2.966,2.966,0,0,1,1.13-1.614.752.752,0,0,1,1.134.309c.05.092.15.058.221-.067h0a.389.389,0,0,0,.033-.334.923.923,0,0,0-1.389-.375Z" transform="translate(-184.912 -153.73)" fill="#fafafa"/>
          </g>
          <g id="Grupo_142206" data-name="Grupo 142206" transform="translate(23.575 13.515)">
            <path id="Trazado_196837" data-name="Trazado 196837" d="M212.612,141.532a.175.175,0,0,1-.013-.071.232.232,0,0,1,.025-.088l.559-1c.013-.025.029-.046.042-.071a.178.178,0,0,1,.046-.05l.2-.117a.1.1,0,0,1,.05,0,.086.086,0,0,1,.021.063v2.556a.224.224,0,0,1-.021.088.1.1,0,0,1-.05.058l-.209.121a.1.1,0,0,1-.05,0,.086.086,0,0,1-.021-.063V141l-.363.65c-.017.025-.033.046-.05.05a.04.04,0,0,1-.046-.012l-.121-.163Z" transform="translate(-212.598 -136.912)" fill="#fafafa"/>
            <path id="Trazado_196838" data-name="Trazado 196838" d="M215.732,139.738a.174.174,0,0,1-.013-.071.231.231,0,0,1,.025-.088l.559-1c.012-.025.029-.046.042-.071a.177.177,0,0,1,.046-.05l.2-.117a.1.1,0,0,1,.05,0,.086.086,0,0,1,.021.063v2.556a.224.224,0,0,1-.021.088.1.1,0,0,1-.05.058l-.209.121a.1.1,0,0,1-.05,0,.086.086,0,0,1-.021-.063v-1.956l-.363.65c-.017.025-.033.046-.05.05a.04.04,0,0,1-.046-.012l-.121-.163Z" transform="translate(-214.417 -135.868)" fill="#fafafa"/>
            <path id="Trazado_196839" data-name="Trazado 196839" d="M219.409,139.055a.1.1,0,0,1,.05,0,.086.086,0,0,1,.021.063v.388a.225.225,0,0,1-.021.088.1.1,0,0,1-.05.058l-.238.138a.1.1,0,0,1-.05,0,.086.086,0,0,1-.021-.063v-.388a.224.224,0,0,1,.021-.088.1.1,0,0,1,.05-.058Zm0,1.384a.1.1,0,0,1,.05,0,.087.087,0,0,1,.021.063v.388a.225.225,0,0,1-.021.088.1.1,0,0,1-.05.058l-.238.138a.1.1,0,0,1-.05,0,.086.086,0,0,1-.021-.063v-.388a.224.224,0,0,1,.021-.088.1.1,0,0,1,.05-.058Z" transform="translate(-216.389 -136.282)" fill="#fafafa"/>
            <path id="Trazado_196840" data-name="Trazado 196840" d="M221.828,137.886a.1.1,0,0,1-.05,0,.086.086,0,0,1-.021-.063v-.48l-.8.459a.1.1,0,0,1-.05,0,.086.086,0,0,1-.021-.063v-.279a.327.327,0,0,1,.017-.108c.013-.033.025-.071.042-.113l.788-1.964a.319.319,0,0,1,.1-.158l.2-.113a.1.1,0,0,1,.05,0,.086.086,0,0,1,.021.063v1.58l.221-.129a.1.1,0,0,1,.05,0,.086.086,0,0,1,.021.063v.279a.224.224,0,0,1-.021.088.1.1,0,0,1-.05.058l-.221.129v.48a.224.224,0,0,1-.021.088.1.1,0,0,1-.05.058l-.209.121Zm-.071-1.038V136l-.438,1.1Z" transform="translate(-217.432 -133.921)" fill="#fafafa"/>
            <path id="Trazado_196841" data-name="Trazado 196841" d="M225.394,133.12a.224.224,0,0,1,.021-.088.1.1,0,0,1,.05-.058l.968-.559a.1.1,0,0,1,.05,0,.086.086,0,0,1,.021.063v.279a.224.224,0,0,1-.021.088.1.1,0,0,1-.05.058l-.721.417-.029.521a.653.653,0,0,1,.138-.129c.046-.029.083-.054.113-.071a.692.692,0,0,1,.267-.1.284.284,0,0,1,.213.054.426.426,0,0,1,.142.2,1.085,1.085,0,0,1,.05.363,1.784,1.784,0,0,1-.054.463,1.466,1.466,0,0,1-.146.379,1.243,1.243,0,0,1-.475.5.81.81,0,0,1-.3.113.3.3,0,0,1-.213-.05.4.4,0,0,1-.125-.175.761.761,0,0,1-.046-.267.17.17,0,0,1,.021-.088.181.181,0,0,1,.05-.058l.208-.121s.033-.013.046,0a.074.074,0,0,1,.029.054.217.217,0,0,0,.05.121.121.121,0,0,0,.075.046.2.2,0,0,0,.1-.013.464.464,0,0,0,.113-.054.653.653,0,0,0,.238-.259.857.857,0,0,0,.092-.388.282.282,0,0,0-.092-.246q-.088-.069-.238.013a.6.6,0,0,0-.121.088c-.029.029-.054.058-.075.083s-.038.05-.05.071a.17.17,0,0,1-.058.05l-.238.138a.1.1,0,0,1-.05,0,.086.086,0,0,1-.021-.063l.075-1.384Z" transform="translate(-219.968 -132.411)" fill="#fafafa"/>
          </g>
          <g id="Grupo_142207" data-name="Grupo 142207" transform="translate(0 28.039)">
            <path id="Trazado_196842" data-name="Trazado 196842" d="M156.07,178.858v-.826l.713-.413v.826Z" transform="translate(-156.07 -173.292)" fill="#fafafa"/>
            <path id="Trazado_196843" data-name="Trazado 196843" d="M158.64,176.22v-1.647l.713-.413v1.647Z" transform="translate(-157.568 -171.274)" fill="#fafafa"/>
            <path id="Trazado_196844" data-name="Trazado 196844" d="M161.21,173.586v-2.473l.713-.413v2.473Z" transform="translate(-159.066 -169.257)" fill="#fafafa"/>
            <path id="Trazado_196845" data-name="Trazado 196845" d="M163.77,170.951v-3.3l.717-.413v3.3Z" transform="translate(-160.559 -167.24)" fill="#fafafa"/>
          </g>
          <g id="Grupo_142209" data-name="Grupo 142209" transform="translate(50.133)">
            <path id="Trazado_196846" data-name="Trazado 196846" d="M279.525,100.112c-.075-.113-.171-.142-.267-.083l-2.669,1.535a1.023,1.023,0,0,0-.309.809v1.5a.886.886,0,0,0,.117.48.259.259,0,0,0,.108.1.179.179,0,0,0,.159-.012l2.669-1.535a1.023,1.023,0,0,0,.309-.809v-1.5a.86.86,0,0,0-.117-.475Zm-3.053,4.041a.422.422,0,0,1-.042-.221v-1.5a.81.81,0,0,1,.234-.617l2.669-1.535a.1.1,0,0,1,.083-.013.074.074,0,0,1,.033.029.415.415,0,0,1,.042.217v1.5a.8.8,0,0,1-.234.617l-2.669,1.535a.082.082,0,0,1-.121-.021Z" transform="translate(-276.28 -100)" fill="#fafafa"/>
            <g id="Grupo_142208" data-name="Grupo 142208" transform="translate(0.388 0.642)">
              <path id="Trazado_196847" data-name="Trazado 196847" d="M277.715,104.29v1.772l-.421.242a.055.055,0,0,1-.083-.046v-1.318a.617.617,0,0,1,.175-.459l.325-.188Z" transform="translate(-277.21 -103.143)" fill="#fafafa"/>
              <path id="Trazado_196848" data-name="Trazado 196848" d="M278.89,103.622l.5-.292V105.1l-.5.288Z" transform="translate(-278.189 -102.583)" fill="#fafafa"/>
              <path id="Trazado_196849" data-name="Trazado 196849" d="M280.55,102.662l.5-.292v1.781l-.5.288Z" transform="translate(-279.157 -102.023)" fill="#fafafa"/>
              <path id="Trazado_196850" data-name="Trazado 196850" d="M282.72,101.606v1.276a.664.664,0,0,1-.334.571l-.167.1v-1.772l.4-.229a.069.069,0,0,1,.1.054Z" transform="translate(-280.131 -101.538)" fill="#fafafa"/>
            </g>
            <path id="Trazado_196851" data-name="Trazado 196851" d="M284.393,101.291c.075-.046.133.171.133.48v.279a1.159,1.159,0,0,1-.133.651l-.133.092v-1.418s.063-.038.138-.079Z" transform="translate(-280.932 -100.749)" fill="#fafafa"/>
          </g>
          <path id="Trazado_196852" data-name="Trazado 196852" d="M266.58,108.952l2.594-2.3-.8,3.373-.38-1.405Z" transform="translate(-220.492 -103.877)" fill="#fafafa"/>
        </g>
        <g id="Grupo_142228" data-name="Grupo 142228" transform="translate(7.461 24.088)">
          <g id="Grupo_142215" data-name="Grupo 142215" transform="translate(0 87.648)">
            <g id="Grupo_142212" data-name="Grupo 142212" transform="translate(0 17.548)">
              <path id="Trazado_196853" data-name="Trazado 196853" d="M166.444,406.113a.785.785,0,0,1-.375-.1.916.916,0,0,1-.409-.846V401a2.424,2.424,0,0,1,1.114-1.926l12.962-7.485a.833.833,0,0,1,1.343.776v4.174a2.424,2.424,0,0,1-1.114,1.926L167,405.947a1.115,1.115,0,0,1-.559.167ZM180.3,391.882a.714.714,0,0,0-.329.1l-12.962,7.485a1.975,1.975,0,0,0-.88,1.526v4.174a.5.5,0,0,0,.175.446.508.508,0,0,0,.475-.071l12.962-7.485a1.975,1.975,0,0,0,.88-1.526v-4.174a.5.5,0,0,0-.175-.446A.28.28,0,0,0,180.3,391.882Z" transform="translate(-165.66 -391.418)" fill="#e1e1e1"/>
              <g id="Grupo_142211" data-name="Grupo 142211" transform="translate(3.745 3.788)">
                <path id="Trazado_196854" data-name="Trazado 196854" d="M175.057,411.358v.571a.476.476,0,0,0,.021.138.163.163,0,0,0,.05.1.1.1,0,0,0,.083.038.257.257,0,0,0,.125-.042.489.489,0,0,0,.2-.208.427.427,0,0,0,.046-.113.535.535,0,0,0,.025-.1.535.535,0,0,1,.025-.092.1.1,0,0,1,.05-.05l.288-.167s.025-.008.033,0a.067.067,0,0,1,.012.046,1.33,1.33,0,0,1-.054.354,1.6,1.6,0,0,1-.146.35,1.752,1.752,0,0,1-.217.3,1.036,1.036,0,0,1-.271.221.562.562,0,0,1-.284.092.316.316,0,0,1-.213-.075.488.488,0,0,1-.138-.217,1.077,1.077,0,0,1-.054-.321c0-.092,0-.188,0-.3s0-.208,0-.309a1.548,1.548,0,0,1,.054-.384,1.87,1.87,0,0,1,.133-.371,1.533,1.533,0,0,1,.213-.321,1.179,1.179,0,0,1,.284-.238.634.634,0,0,1,.271-.092.345.345,0,0,1,.217.054.4.4,0,0,1,.146.179.775.775,0,0,1,.054.292.167.167,0,0,1-.012.063.087.087,0,0,1-.033.042l-.288.167c-.025.012-.042.017-.05.008a.154.154,0,0,1-.025-.063.481.481,0,0,0-.025-.071.131.131,0,0,0-.046-.058.148.148,0,0,0-.079-.021.311.311,0,0,0-.125.042.439.439,0,0,0-.125.1.552.552,0,0,0-.083.133.95.95,0,0,0-.05.154c-.008.054-.017.108-.021.158Z" transform="translate(-174.64 -406.137)" fill="#e1e1e1"/>
                <path id="Trazado_196855" data-name="Trazado 196855" d="M178.52,411.282a.909.909,0,0,1,.113-.434,1.486,1.486,0,0,1,.363-.421l.259-.217a.178.178,0,0,0-.029-.117c-.021-.025-.054-.021-.1,0a.319.319,0,0,0-.079.067c-.017.025-.033.046-.042.063a.165.165,0,0,1-.079.083l-.279.163s-.025.008-.038,0a.067.067,0,0,1-.012-.046.51.51,0,0,1,.046-.188,1.053,1.053,0,0,1,.108-.217,1.287,1.287,0,0,1,.167-.213.874.874,0,0,1,.209-.167.512.512,0,0,1,.234-.083.251.251,0,0,1,.163.046.311.311,0,0,1,.1.158.908.908,0,0,1,.029.254v1.026a.164.164,0,0,1-.017.075.1.1,0,0,1-.042.05l-.275.158s-.029.008-.042,0a.071.071,0,0,1-.017-.054v-.1a1.29,1.29,0,0,1-.129.238.661.661,0,0,1-.2.179.4.4,0,0,1-.167.058.182.182,0,0,1-.125-.042.266.266,0,0,1-.075-.125.689.689,0,0,1-.025-.2Zm.5-.213a.323.323,0,0,0,.092-.079.515.515,0,0,0,.071-.113.691.691,0,0,0,.05-.129.518.518,0,0,0,.017-.138l-.2.163a.406.406,0,0,0-.1.113.241.241,0,0,0-.038.125c0,.042.008.067.029.075a.111.111,0,0,0,.079-.021Z" transform="translate(-176.902 -405.783)" fill="#e1e1e1"/>
                <path id="Trazado_196856" data-name="Trazado 196856" d="M183.254,408.913a.163.163,0,0,1-.017.075.1.1,0,0,1-.042.05l-.275.158s-.029.008-.042,0-.017-.029-.017-.054v-.859a.376.376,0,0,0-.046-.209c-.029-.042-.079-.042-.146,0a.321.321,0,0,0-.142.171.715.715,0,0,0-.046.259v.859a.164.164,0,0,1-.017.075.1.1,0,0,1-.042.05l-.275.158s-.029.008-.042,0a.071.071,0,0,1-.017-.054v-1.576a.164.164,0,0,1,.017-.075.1.1,0,0,1,.042-.05l.267-.154s.029-.008.042,0a.071.071,0,0,1,.017.054v.079a.655.655,0,0,1,.046-.1.975.975,0,0,1,.063-.1.627.627,0,0,1,.088-.1.641.641,0,0,1,.117-.083.441.441,0,0,1,.192-.067.215.215,0,0,1,.15.054.362.362,0,0,1,.1.183,1.18,1.18,0,0,1,.033.325v.93Z" transform="translate(-178.983 -404.535)" fill="#e1e1e1"/>
                <path id="Trazado_196857" data-name="Trazado 196857" d="M186,406.455v.238a.227.227,0,0,0,.058.163c.033.029.083.029.142-.008a.325.325,0,0,0,.113-.1.585.585,0,0,0,.063-.125l.025-.063a.075.075,0,0,1,.038-.042l.288-.167s.029-.008.042,0a.071.071,0,0,1,.017.054,1.062,1.062,0,0,1-.029.175,1.425,1.425,0,0,1-.092.263,1.334,1.334,0,0,1-.179.284.967.967,0,0,1-.288.242.558.558,0,0,1-.229.079.315.315,0,0,1-.188-.046.4.4,0,0,1-.129-.171.748.748,0,0,1-.05-.292v-.271a1.454,1.454,0,0,1,.05-.354,1.668,1.668,0,0,1,.129-.321,1.24,1.24,0,0,1,.188-.263,1.079,1.079,0,0,1,.229-.188.505.505,0,0,1,.288-.088.306.306,0,0,1,.179.075.326.326,0,0,1,.092.154.955.955,0,0,1,.029.142.124.124,0,0,1-.017.075.1.1,0,0,1-.042.05l-.288.167s-.029.008-.038,0a.23.23,0,0,1-.025-.033.111.111,0,0,0-.063-.054.157.157,0,0,0-.113.033.366.366,0,0,0-.142.154.534.534,0,0,0-.058.229Z" transform="translate(-181.029 -403.39)" fill="#e1e1e1"/>
                <path id="Trazado_196858" data-name="Trazado 196858" d="M189.436,404.8a.387.387,0,0,0,.017.117.122.122,0,0,0,.046.054.082.082,0,0,0,.063,0,.192.192,0,0,0,.067-.029.359.359,0,0,0,.1-.079.558.558,0,0,0,.067-.1c.017-.029.029-.05.033-.058a.148.148,0,0,1,.038-.029l.288-.167c.033-.017.05,0,.05.046a.579.579,0,0,1-.033.142,1.28,1.28,0,0,1-.1.229,1.581,1.581,0,0,1-.179.254,1.119,1.119,0,0,1-.263.217.533.533,0,0,1-.254.083.255.255,0,0,1-.188-.075.48.48,0,0,1-.113-.221,1.455,1.455,0,0,1-.038-.359,2.036,2.036,0,0,1,.038-.388,1.6,1.6,0,0,1,.113-.354,1.3,1.3,0,0,1,.188-.3.964.964,0,0,1,.254-.217.425.425,0,0,1,.275-.075.273.273,0,0,1,.183.108.623.623,0,0,1,.1.238,1.459,1.459,0,0,1,.033.309v.1a.163.163,0,0,1-.017.075.1.1,0,0,1-.042.05l-.734.421Zm.2-.763a.333.333,0,0,0-.142.167.757.757,0,0,0-.058.221l.4-.229a.27.27,0,0,0-.058-.158c-.033-.038-.079-.038-.142,0Z" transform="translate(-183.034 -402.245)" fill="#e1e1e1"/>
                <path id="Trazado_196859" data-name="Trazado 196859" d="M193.032,402.782a.163.163,0,0,1-.017.075.1.1,0,0,1-.042.05l-.275.158s-.029.008-.042,0a.071.071,0,0,1-.017-.054v-2.223a.163.163,0,0,1,.017-.075.1.1,0,0,1,.042-.05l.275-.158s.029-.008.042,0a.071.071,0,0,1,.017.054Z" transform="translate(-185.133 -400.501)" fill="#e1e1e1"/>
              </g>
            </g>
            <g id="Grupo_142214" data-name="Grupo 142214" transform="translate(31.053)">
              <path id="Trazado_196860" data-name="Trazado 196860" d="M240.12,362.856v-4.174a2.2,2.2,0,0,1,1-1.726l12.962-7.485c.551-.317,1-.058,1,.575v4.174a2.2,2.2,0,0,1-1,1.726l-12.962,7.485C240.566,363.748,240.12,363.49,240.12,362.856Z" transform="translate(-240.12 -349.335)" fill="#feca2e"/>
              <g id="Grupo_142213" data-name="Grupo 142213" transform="translate(4.116 4.489)">
                <path id="Trazado_196861" data-name="Trazado 196861" d="M250.928,366.632c.029-.017.05-.017.067,0a.147.147,0,0,1,.033.054l.48,1.856a.311.311,0,0,1,.008.046.168.168,0,0,1-.013.063.087.087,0,0,1-.033.042l-.275.158c-.029.017-.05.021-.063.008a.086.086,0,0,1-.025-.042l-.063-.246-.584.338-.063.317s-.013.042-.025.071a.16.16,0,0,1-.063.067l-.275.158s-.025.008-.033,0a.067.067,0,0,1-.013-.046.154.154,0,0,1,.008-.054l.48-2.41a.307.307,0,0,1,.033-.092.168.168,0,0,1,.067-.075l.354-.2Zm-.354,1.685.354-.2-.179-.709-.179.917Z" transform="translate(-249.99 -363.902)" fill="#fafafa"/>
                <path id="Trazado_196862" data-name="Trazado 196862" d="M254.974,367.649a.4.4,0,0,1-.113.046.556.556,0,0,1-.083,0,.134.134,0,0,1-.058-.033.17.17,0,0,1-.038-.042v.721a.164.164,0,0,1-.017.075.1.1,0,0,1-.042.05l-.275.158s-.029.008-.042,0a.071.071,0,0,1-.017-.054v-2.223a.164.164,0,0,1,.017-.075.1.1,0,0,1,.042-.05l.267-.154s.029-.008.042,0a.071.071,0,0,1,.017.054v.079c.013-.029.025-.062.042-.1a.618.618,0,0,1,.058-.1.573.573,0,0,1,.083-.1.531.531,0,0,1,.121-.088.454.454,0,0,1,.188-.063.213.213,0,0,1,.154.054.411.411,0,0,1,.108.179,1.094,1.094,0,0,1,.046.321v.275a1.483,1.483,0,0,1-.046.371,1.31,1.31,0,0,1-.108.3,1.193,1.193,0,0,1-.154.234.711.711,0,0,1-.188.154Zm.1-.876a1.4,1.4,0,0,0,0-.188.292.292,0,0,0-.05-.175c-.029-.042-.079-.042-.146,0a.23.23,0,0,0-.083.071.456.456,0,0,0-.058.1.828.828,0,0,0-.038.108.488.488,0,0,0-.017.108c0,.038,0,.075,0,.121a.987.987,0,0,0,0,.117.273.273,0,0,0,.017.088.175.175,0,0,0,.038.067.1.1,0,0,0,.058.029.145.145,0,0,0,.083-.025.329.329,0,0,0,.146-.171.756.756,0,0,0,.05-.238Z" transform="translate(-252.497 -363.4)" fill="#fafafa"/>
                <path id="Trazado_196863" data-name="Trazado 196863" d="M258.578,365.569a.4.4,0,0,1-.113.046.549.549,0,0,1-.083,0,.135.135,0,0,1-.058-.033.392.392,0,0,1-.042-.042v.721a.163.163,0,0,1-.017.075.1.1,0,0,1-.042.05l-.275.158s-.029.008-.042,0a.071.071,0,0,1-.017-.054v-2.223a.163.163,0,0,1,.017-.075.1.1,0,0,1,.042-.05l.267-.154s.029-.008.042,0a.071.071,0,0,1,.017.054v.079c.013-.029.029-.063.042-.1a.626.626,0,0,1,.058-.1.568.568,0,0,1,.083-.1.528.528,0,0,1,.121-.088.453.453,0,0,1,.188-.063.213.213,0,0,1,.154.054.411.411,0,0,1,.108.179,1.228,1.228,0,0,1,.046.321v.275a1.483,1.483,0,0,1-.046.371,1.535,1.535,0,0,1-.108.3,1.032,1.032,0,0,1-.154.233.711.711,0,0,1-.188.154Zm.1-.876a1.4,1.4,0,0,0,0-.188.324.324,0,0,0-.05-.175c-.029-.042-.079-.042-.146,0a.271.271,0,0,0-.083.071.455.455,0,0,0-.058.1.476.476,0,0,0-.038.108.488.488,0,0,0-.017.108v.238a.272.272,0,0,0,.017.088.174.174,0,0,0,.038.067.1.1,0,0,0,.058.029.145.145,0,0,0,.083-.025.328.328,0,0,0,.146-.171.755.755,0,0,0,.05-.238Z" transform="translate(-254.595 -362.188)" fill="#fafafa"/>
                <path id="Trazado_196864" data-name="Trazado 196864" d="M261.886,363.042a.163.163,0,0,1-.017.075.1.1,0,0,1-.042.05l-.279.158s-.029.008-.042,0-.017-.029-.017-.054v-2.223a.163.163,0,0,1,.017-.075.1.1,0,0,1,.042-.05l.279-.158s.029-.008.042,0a.071.071,0,0,1,.017.054Z" transform="translate(-256.694 -360.486)" fill="#fafafa"/>
                <path id="Trazado_196865" data-name="Trazado 196865" d="M263.79,362.757s-.013.042-.021.067a.085.085,0,0,1-.042.05l-.288.167s-.029.008-.038,0-.017-.025-.017-.05v-.025l.167-.7-.442-1.33v-.021a.132.132,0,0,1,.017-.067.084.084,0,0,1,.038-.046l.288-.167s.033-.008.042,0a.129.129,0,0,1,.021.042l.246.738.242-1.022s.012-.042.021-.067a.1.1,0,0,1,.042-.05l.292-.167s.025-.008.038,0a.07.07,0,0,1,.017.05v.025l-.613,2.573Z" transform="translate(-257.638 -360.101)" fill="#fafafa"/>
              </g>
            </g>
          </g>
          <g id="Grupo_142218" data-name="Grupo 142218" transform="translate(3.436)">
            <path id="Trazado_196866" data-name="Trazado 196866" d="M179.18,183.871c2.907-1.668,5.263-.317,5.263,3.023a11.568,11.568,0,0,1-5.28,9.074c-2.915,1.672-5.271.321-5.263-3.023A11.6,11.6,0,0,1,179.18,183.871Z" transform="translate(-173.9 -164.804)" fill="#feca2e"/>
            <g id="Grupo_142217" data-name="Grupo 142217" transform="translate(14.634)">
              <path id="Trazado_196867" data-name="Trazado 196867" d="M210.144,168.969l22.892-13.214c.617-.354,1.118-.1,1.118.563a2.388,2.388,0,0,1-1.118,1.851l-22.971,13.26c-.617.354-1.1.092-1.076-.588a2.513,2.513,0,0,1,1.155-1.876Z" transform="translate(-208.988 -148.735)" fill="#e1e1e1"/>
              <g id="Grupo_142216" data-name="Grupo 142216">
                <path id="Trazado_196868" data-name="Trazado 196868" d="M210.144,154.546l26.408-15.241c.617-.354,1.118-.1,1.118.563a2.388,2.388,0,0,1-1.118,1.851l-26.487,15.287c-.617.354-1.1.092-1.076-.588a2.513,2.513,0,0,1,1.155-1.876Z" transform="translate(-208.988 -139.144)" fill="#feca2e"/>
                <path id="Trazado_196869" data-name="Trazado 196869" d="M210.144,154.546l26.408-15.241c.617-.354,1.118-.1,1.118.563a2.388,2.388,0,0,1-1.118,1.851l-26.487,15.287c-.617.354-1.1.092-1.076-.588a2.513,2.513,0,0,1,1.155-1.876Z" transform="translate(-208.988 -139.144)" fill="#feca2e"/>
                <path id="Trazado_196870" data-name="Trazado 196870" d="M210.144,154.546l26.408-15.241c.617-.354,1.118-.1,1.118.563a2.388,2.388,0,0,1-1.118,1.851l-26.487,15.287c-.617.354-1.1.092-1.076-.588a2.513,2.513,0,0,1,1.155-1.876Z" transform="translate(-208.988 -139.144)" fill="#0f2771"/>
              </g>
            </g>
          </g>
          <g id="Grupo_142220" data-name="Grupo 142220" transform="translate(4.271 53.441)">
            <path id="Trazado_196871" data-name="Trazado 196871" d="M177.018,305.91l6.093-3.507c.613-.359,1.114-.075,1.118.638l.042,9.482a2.449,2.449,0,0,1-1.109,1.931L177.018,318c-.617.354-1.118.067-1.118-.642v-9.5a2.475,2.475,0,0,1,1.114-1.939Z" transform="translate(-175.9 -287.677)" fill="#feca2e"/>
            <path id="Trazado_196872" data-name="Trazado 196872" d="M207.2,296.392l17.858-10.287c.617-.354,1.118-.1,1.118.563a2.388,2.388,0,0,1-1.118,1.851l-17.937,10.333c-.617.354-1.1.092-1.076-.588a2.513,2.513,0,0,1,1.155-1.876Z" transform="translate(-193.475 -278.171)" fill="#e1e1e1"/>
            <g id="Grupo_142219" data-name="Grupo 142219" transform="translate(12.573)">
              <path id="Trazado_196873" data-name="Trazado 196873" d="M207.2,280.679,230.1,267.465c.617-.354,1.118-.1,1.118.563a2.388,2.388,0,0,1-1.118,1.851l-22.971,13.26c-.617.354-1.1.092-1.076-.588a2.513,2.513,0,0,1,1.155-1.876Z" transform="translate(-206.048 -267.304)" fill="#feca2e"/>
              <path id="Trazado_196874" data-name="Trazado 196874" d="M207.2,280.679,230.1,267.465c.617-.354,1.118-.1,1.118.563a2.388,2.388,0,0,1-1.118,1.851l-22.971,13.26c-.617.354-1.1.092-1.076-.588a2.513,2.513,0,0,1,1.155-1.876Z" transform="translate(-206.048 -267.304)" fill="#feca2e"/>
              <path id="Trazado_196875" data-name="Trazado 196875" d="M207.2,280.679,230.1,267.465c.617-.354,1.118-.1,1.118.563a2.388,2.388,0,0,1-1.118,1.851l-22.971,13.26c-.617.354-1.1.092-1.076-.588a2.513,2.513,0,0,1,1.155-1.876Z" transform="translate(-206.048 -267.304)" fill="#0f2771"/>
            </g>
          </g>
          <g id="Grupo_142222" data-name="Grupo 142222" transform="translate(4.271 70.421)">
            <path id="Trazado_196876" data-name="Trazado 196876" d="M177.018,346.5l6.093-3.515c.613-.359,1.114-.075,1.118.638l.042,9.537a2.449,2.449,0,0,1-1.109,1.931l-6.143,3.544c-.617.354-1.118.067-1.118-.642v-9.557a2.475,2.475,0,0,1,1.114-1.939Z" transform="translate(-175.9 -328.315)" fill="#feca2e"/>
            <path id="Trazado_196877" data-name="Trazado 196877" d="M207.2,337.112l17.858-10.287c.617-.354,1.118-.1,1.118.563a2.388,2.388,0,0,1-1.118,1.851l-17.937,10.333c-.617.354-1.1.092-1.076-.588a2.513,2.513,0,0,1,1.155-1.876Z" transform="translate(-193.475 -318.891)" fill="#e1e1e1"/>
            <g id="Grupo_142221" data-name="Grupo 142221" transform="translate(12.573)">
              <path id="Trazado_196878" data-name="Trazado 196878" d="M207.2,321.4,230.1,308.185c.617-.354,1.118-.1,1.118.563A2.388,2.388,0,0,1,230.1,310.6l-22.971,13.26c-.617.354-1.1.092-1.076-.588A2.513,2.513,0,0,1,207.2,321.4Z" transform="translate(-206.048 -308.024)" fill="#feca2e"/>
              <path id="Trazado_196879" data-name="Trazado 196879" d="M207.2,321.4,230.1,308.185c.617-.354,1.118-.1,1.118.563A2.388,2.388,0,0,1,230.1,310.6l-22.971,13.26c-.617.354-1.1.092-1.076-.588A2.513,2.513,0,0,1,207.2,321.4Z" transform="translate(-206.048 -308.024)" fill="#feca2e"/>
              <path id="Trazado_196880" data-name="Trazado 196880" d="M207.2,321.4,230.1,308.185c.617-.354,1.118-.1,1.118.563A2.388,2.388,0,0,1,230.1,310.6l-22.971,13.26c-.617.354-1.1.092-1.076-.588A2.513,2.513,0,0,1,207.2,321.4Z" transform="translate(-206.048 -308.024)" fill="#0f2771"/>
            </g>
          </g>
          <g id="Grupo_142227" data-name="Grupo 142227" transform="translate(0.412 19.783)">
            <g id="Grupo_142223" data-name="Grupo 142223" transform="translate(0.222 10.23)">
              <path id="Trazado_196881" data-name="Trazado 196881" d="M168.135,221.536l17.808-10.279c.53-.3.955-.088.955.484a2.051,2.051,0,0,1-.955,1.585L168.135,223.6c-.53.3-.955.088-.955-.484A2.051,2.051,0,0,1,168.135,221.536Z" transform="translate(-167.18 -211.12)" fill="#feca2e"/>
              <path id="Trazado_196882" data-name="Trazado 196882" d="M168.135,221.536l17.808-10.279c.53-.3.955-.088.955.484a2.051,2.051,0,0,1-.955,1.585L168.135,223.6c-.53.3-.955.088-.955-.484A2.051,2.051,0,0,1,168.135,221.536Z" transform="translate(-167.18 -211.12)" fill="#feca2e"/>
              <path id="Trazado_196883" data-name="Trazado 196883" d="M168.135,221.536l17.808-10.279c.53-.3.955-.088.955.484a2.051,2.051,0,0,1-.955,1.585L168.135,223.6c-.53.3-.955.088-.955-.484A2.051,2.051,0,0,1,168.135,221.536Z" transform="translate(-167.18 -211.12)" fill="#0f2771"/>
            </g>
            <path id="Trazado_196884" data-name="Trazado 196884" d="M168.135,249.121l10.468-6.034c.53-.3.955-.088.955.484a2.051,2.051,0,0,1-.955,1.585l-10.468,6.034c-.53.3-.955.088-.955-.484A2.051,2.051,0,0,1,168.135,249.121Z" transform="translate(-166.958 -219.447)" fill="#e1e1e1"/>
            <path id="Trazado_196885" data-name="Trazado 196885" d="M166.869,213.93a.222.222,0,0,1-.192-.108.218.218,0,0,1,.079-.3l46.609-26.9a.22.22,0,1,1,.221.379l-46.609,26.9A.2.2,0,0,1,166.869,213.93Z" transform="translate(-166.647 -186.587)" fill="#feca2e"/>
            <path id="Trazado_196886" data-name="Trazado 196886" d="M166.869,233.77a.222.222,0,0,1-.192-.108.218.218,0,0,1,.079-.3l46.609-26.9a.22.22,0,1,1,.221.379l-46.609,26.9A.2.2,0,0,1,166.869,233.77Z" transform="translate(-166.647 -198.154)" fill="#feca2e"/>
            <g id="Grupo_142224" data-name="Grupo 142224" transform="translate(40.834 3.551)">
              <path id="Trazado_196887" data-name="Trazado 196887" d="M266.753,200.935c.446-.259.809-.05.809.467a1.768,1.768,0,0,1-.813,1.4c-.45.254-.813.046-.809-.467A1.8,1.8,0,0,1,266.753,200.935Z" transform="translate(-265.364 -198.439)" fill="#e1e1e1"/>
              <path id="Trazado_196888" data-name="Trazado 196888" d="M265.423,200.239a.844.844,0,0,1-.421-.108,1,1,0,0,1-.442-.9,2.994,2.994,0,0,1,1.393-2.327l2.736-1.585a1.115,1.115,0,0,1,1.118-.1.985.985,0,0,1,.434.9,2.953,2.953,0,0,1-1.4,2.323l-2.728,1.589a1.4,1.4,0,0,1-.7.213Zm-.555-1.017a.7.7,0,0,0,.288.642.831.831,0,0,0,.813-.1l2.728-1.589a2.662,2.662,0,0,0,1.243-2.06.707.707,0,0,0-.279-.642.831.831,0,0,0-.813.1l-2.736,1.585a2.64,2.64,0,0,0-1.239,2.06h0Z" transform="translate(-264.56 -195.103)" fill="#e1e1e1"/>
            </g>
            <path id="Trazado_196889" data-name="Trazado 196889" d="M168.135,264.466l16.019-9.249c.53-.3.955-.088.955.484a2.051,2.051,0,0,1-.955,1.585l-16.019,9.249c-.53.3-.955.088-.955-.484A2.051,2.051,0,0,1,168.135,264.466Z" transform="translate(-166.958 -226.519)" fill="#e1e1e1"/>
            <path id="Trazado_196890" data-name="Trazado 196890" d="M166.869,253.61a.222.222,0,0,1-.192-.108.218.218,0,0,1,.079-.3l46.609-26.9a.22.22,0,1,1,.221.379l-46.609,26.9A.2.2,0,0,1,166.869,253.61Z" transform="translate(-166.647 -209.721)" fill="#feca2e"/>
            <g id="Grupo_142225" data-name="Grupo 142225" transform="translate(40.834 11.82)">
              <path id="Trazado_196891" data-name="Trazado 196891" d="M265.423,220.069a.844.844,0,0,1-.421-.108,1,1,0,0,1-.442-.9,2.994,2.994,0,0,1,1.393-2.327l2.736-1.585a1.115,1.115,0,0,1,1.118-.1.985.985,0,0,1,.434.9,2.953,2.953,0,0,1-1.4,2.323l-2.728,1.589a1.4,1.4,0,0,1-.7.213Z" transform="translate(-264.56 -214.933)" fill="#feca2e"/>
              <path id="Trazado_196892" data-name="Trazado 196892" d="M273.783,216.655c.446-.259.809-.05.809.467a1.768,1.768,0,0,1-.813,1.4c-.45.254-.813.046-.809-.467A1.792,1.792,0,0,1,273.783,216.655Z" transform="translate(-269.463 -215.872)" fill="#fafafa"/>
            </g>
            <path id="Trazado_196893" data-name="Trazado 196893" d="M168.135,288.791l10.468-6.034c.53-.3.955-.088.955.484a2.051,2.051,0,0,1-.955,1.585l-10.468,6.034c-.53.3-.955.088-.955-.484A2.051,2.051,0,0,1,168.135,288.791Z" transform="translate(-166.958 -242.575)" fill="#e1e1e1"/>
            <g id="Grupo_142226" data-name="Grupo 142226" transform="translate(40.834 20.093)">
              <path id="Trazado_196894" data-name="Trazado 196894" d="M266.753,240.6c.446-.259.809-.05.809.467a1.768,1.768,0,0,1-.813,1.4c-.45.254-.813.046-.809-.467A1.792,1.792,0,0,1,266.753,240.6Z" transform="translate(-265.364 -238.109)" fill="#e1e1e1"/>
              <path id="Trazado_196895" data-name="Trazado 196895" d="M265.423,239.909A.844.844,0,0,1,265,239.8a1,1,0,0,1-.442-.9,2.994,2.994,0,0,1,1.393-2.327l2.736-1.585a1.115,1.115,0,0,1,1.118-.1.985.985,0,0,1,.434.9,2.953,2.953,0,0,1-1.4,2.323l-2.728,1.589a1.4,1.4,0,0,1-.7.213Zm-.555-1.017a.7.7,0,0,0,.288.642.831.831,0,0,0,.813-.1l2.728-1.589a2.662,2.662,0,0,0,1.243-2.06.707.707,0,0,0-.279-.642.831.831,0,0,0-.813.1l-2.736,1.585a2.64,2.64,0,0,0-1.239,2.06h0Z" transform="translate(-264.56 -234.773)" fill="#e1e1e1"/>
            </g>
          </g>
        </g>
      </g>
      <g id="Check_Box" transform="translate(0 0.384)">
        <g id="Grupo_142229" data-name="Grupo 142229">
          <path id="Trazado_196896" data-name="Trazado 196896" d="M87.182,86.477a3.788,3.788,0,0,0-1.71-2.965l-1.393-.8a3.782,3.782,0,0,0-3.424,0L59.29,95.063a3.777,3.777,0,0,0-1.71,2.965v23.506a3.788,3.788,0,0,0,1.71,2.965l1.393.8a3.782,3.782,0,0,0,3.424,0l21.365-12.355a3.777,3.777,0,0,0,1.71-2.965Z" transform="translate(-57.576 -82.298)" fill="#feca2e"/>
          <path id="Trazado_196897" data-name="Trazado 196897" d="M57.574,141.18a3.788,3.788,0,0,0,1.71,2.965l1.393.8a3.817,3.817,0,0,0,3.128.138c-.8.3-1.418-.15-1.418-1.126V120.456a3.491,3.491,0,0,1,.5-1.685L58.07,115.99a3.517,3.517,0,0,0-.5,1.685V141.18Z" transform="translate(-57.57 -101.941)" fill="#0f2771"/>
          <path id="Trazado_196898" data-name="Trazado 196898" d="M87.839,86c-.2-.726-.863-.959-1.652-.5l-21.37,12.36a3.4,3.4,0,0,0-1.205,1.276L58.8,96.357a3.46,3.46,0,0,1,1.205-1.276l21.361-12.36a3.808,3.808,0,0,1,3.424,0l1.4.8A3.776,3.776,0,0,1,87.839,86Z" transform="translate(-58.287 -82.308)" fill="#fff" opacity="0.5"/>
        </g>
        <path id="Check" d="M94.809,105.507a1.967,1.967,0,0,0-2.573,1.051l-7.423,17.66L83.044,122.5a1.964,1.964,0,0,0-2.736,2.819l3.833,3.724a1.948,1.948,0,0,0,1.368.555,2.114,2.114,0,0,0,.392-.038,1.961,1.961,0,0,0,1.418-1.163l8.537-20.312a1.97,1.97,0,0,0-1.047-2.573Z" transform="translate(-70.478 -95.74)" fill="#fafafa"/>
      </g>
      <g id="Check_Box-2" transform="translate(0 42.379)">
        <g id="Grupo_142230" data-name="Grupo 142230">
          <path id="Trazado_196899" data-name="Trazado 196899" d="M87.182,187.187a3.788,3.788,0,0,0-1.71-2.965l-1.393-.8a3.782,3.782,0,0,0-3.424,0L59.29,195.773a3.777,3.777,0,0,0-1.71,2.965v23.506a3.788,3.788,0,0,0,1.71,2.965l1.393.8a3.782,3.782,0,0,0,3.424,0l21.365-12.355a3.777,3.777,0,0,0,1.71-2.965Z" transform="translate(-57.576 -183.008)" fill="#feca2e"/>
          <path id="Trazado_196900" data-name="Trazado 196900" d="M57.574,241.88a3.789,3.789,0,0,0,1.71,2.965l1.393.8a3.817,3.817,0,0,0,3.128.138c-.8.3-1.418-.15-1.418-1.126V221.156a3.491,3.491,0,0,1,.5-1.685L58.07,216.69a3.517,3.517,0,0,0-.5,1.685V241.88Z" transform="translate(-57.57 -202.645)" fill="#0f2771"/>
          <path id="Trazado_196901" data-name="Trazado 196901" d="M87.839,186.7c-.2-.726-.863-.959-1.652-.5l-21.37,12.36a3.4,3.4,0,0,0-1.205,1.276L58.8,197.057a3.46,3.46,0,0,1,1.205-1.276l21.361-12.36a3.808,3.808,0,0,1,3.424,0l1.4.8a3.776,3.776,0,0,1,1.652,2.473Z" transform="translate(-58.287 -183.012)" fill="#fff" opacity="0.5"/>
        </g>
        <path id="Check-2" d="M94.809,206.207a1.967,1.967,0,0,0-2.573,1.051l-7.423,17.659L83.044,223.2a1.964,1.964,0,0,0-2.736,2.819l3.833,3.724a1.948,1.948,0,0,0,1.368.555,2.113,2.113,0,0,0,.392-.038,1.961,1.961,0,0,0,1.418-1.163l8.537-20.312a1.97,1.97,0,0,0-1.047-2.573Z" transform="translate(-70.478 -196.444)" fill="#fafafa"/>
      </g>
      <g id="Character" transform="translate(162.202 19.212)">
        <g id="Grupo_142231" data-name="Grupo 142231">
          <path id="Trazado_196902" data-name="Trazado 196902" d="M461.146,154.9c-2.056-.4-2.673-.867-4.758-3.636-1.084-1.443-5.021-7.6-5.505-8.327a11.856,11.856,0,0,0-1.739-1.885,8.81,8.81,0,0,1-1.8-1.76,3.748,3.748,0,0,1-.425-4.02,2.344,2.344,0,0,0,.417-.751c.054-.309-.1-.634-.017-.938.129-.463.73-.625.976-1.038.008-.017.017-.029.025-.046a1.483,1.483,0,0,0-.067-1.113q-.332-.988-.659-1.977c-.108-.329-.221-.659-.329-.988-.067-.2-.271-.484-.2-.709a.392.392,0,0,1,.284-.238,1.156,1.156,0,0,1,1.055.413,7.084,7.084,0,0,1,1.4,2.448,24.491,24.491,0,0,0,1.364,2.877c.133.246.621,1.122.934.755a1.873,1.873,0,0,0,.313-1.084,2.556,2.556,0,0,1,.334-1.009c.183-.309.788-.809.988-.234a1.252,1.252,0,0,1,.046.375c.008.688.046,1.372.042,2.056,0,.342-.017.684-.042,1.026-.013.179-.029.354-.05.53a1.714,1.714,0,0,0-.063.492,8.664,8.664,0,0,0-.15,1.535,2.7,2.7,0,0,0,.9,1.8c.225.242.455.484.684.726l6.86,8.081,22.483,2.243L480.18,158.1s-15.385-2.485-19.038-3.2Z" transform="translate(-446.498 -127.45)" fill="#c76668"/>
          <path id="Trazado_196903" data-name="Trazado 196903" d="M491.375,172.12c-2.99-.288-19.843-1.6-19.843-1.6l-4.145-4.883S466.1,168.813,462.92,169c0,0,3.186,5.146,4.375,6.743s1.556,1.43,5.317,2.085,15.456,2.673,15.456,2.673Z" transform="translate(-456.071 -149.715)" fill="#feca2e"/>
          <path id="Trazado_196904" data-name="Trazado 196904" d="M491.375,172.12c-2.99-.288-19.843-1.6-19.843-1.6l-4.145-4.883S466.1,168.813,462.92,169c0,0,3.186,5.146,4.375,6.743s1.556,1.43,5.317,2.085,15.456,2.673,15.456,2.673Z" transform="translate(-456.071 -149.715)" fill="#fff" opacity="0.65"/>
          <path id="Trazado_196905" data-name="Trazado 196905" d="M451.864,140.317a2.2,2.2,0,0,1,1.677.676,15.715,15.715,0,0,1,1.063,2.018.764.764,0,0,1-.271,1,.928.928,0,0,1-.484.892,1.009,1.009,0,0,1-.513.934.937.937,0,0,1-.459.767,3.436,3.436,0,0,0,1.172-1.58.913.913,0,0,0,.521-.842.876.876,0,0,0,.409-.967,6.924,6.924,0,0,0-.947-1.993c-.321-.55-.659-1.172-2.173-.909Z" transform="translate(-449.624 -134.913)" fill="#b0494c"/>
        </g>
        <g id="Grupo_142239" data-name="Grupo 142239" transform="translate(21.054 3.208)">
          <g id="Botom" transform="translate(0 45.997)">
            <g id="Grupo_142234" data-name="Grupo 142234">
              <path id="Trazado_196906" data-name="Trazado 196906" d="M560.8,386.312a6.108,6.108,0,0,1-4.867.425l-.855-8.778,5.493.559.234,7.794Z" transform="translate(-530.85 -322.705)" fill="#c76668"/>
              <path id="Trazado_196907" data-name="Trazado 196907" d="M523.54,375.343c-1.03,2.419-3.04,1.814-5.33.354l.142-8.515,5.409-.163Z" transform="translate(-509.356 -316.327)" fill="#c76668"/>
              <g id="Grupo_142232" data-name="Grupo 142232" transform="translate(20.586 61.639)">
                <path id="Trazado_196908" data-name="Trazado 196908" d="M546.416,407.817a1.974,1.974,0,0,0,.1,1.305,4.128,4.128,0,0,0,2.948,1.138,7.078,7.078,0,0,0,4.158-.859,2.906,2.906,0,0,0,1.493-2.327,5.977,5.977,0,0,1,.367-2.64c.4-.7,1.055-1.484,1.189-1.86a3.733,3.733,0,0,0-.046-1.956Z" transform="translate(-546.342 -397.554)" fill="#1a2e35"/>
                <path id="Trazado_196909" data-name="Trazado 196909" d="M550.1,394.928c-.008.067-.017.138-.021.2a9.65,9.65,0,0,1-.817,3.14,9.813,9.813,0,0,1-.817,1.459,13.341,13.341,0,0,1-1.089,1.251,3.463,3.463,0,0,0-.98,2.1c-.033,1.326,1.418,1.73,2.527,1.893a8.1,8.1,0,0,0,3.587-.288,3.294,3.294,0,0,0,2.34-2.706c.05-.367.017-.742.05-1.113a5.2,5.2,0,0,1,.959-2.344,6.979,6.979,0,0,0,.751-1.284,3.967,3.967,0,0,0-.229-2.552c-.213-.7-.45-1.489-.7-1.414a1.41,1.41,0,0,1-.1.542,2.3,2.3,0,0,0-.083.584,2.558,2.558,0,0,1-.171.726.719.719,0,0,1-.121.213.288.288,0,0,1-.213.108q0-.425-.025-.851a.4.4,0,0,0-.1-.3c-.171-.167-.534-.042-.742-.021-.338.033-.671.063-1.013.067a10.969,10.969,0,0,1-2.023-.15,1.029,1.029,0,0,0-.6.017.849.849,0,0,0-.375.717Z" transform="translate(-546.364 -393.268)" fill="#bddcf6"/>
              </g>
              <g id="Grupo_142233" data-name="Grupo 142233" transform="translate(0 56.593)">
                <path id="Trazado_196910" data-name="Trazado 196910" d="M497.23,396.283a1.6,1.6,0,0,0,.1,1.176c.175.338,2,1.3,4.425,1.063a10.156,10.156,0,0,0,4.967-1.9,5.822,5.822,0,0,1,3.065-.888c1.2-.1,2.761-.751,3.007-1.322a2.678,2.678,0,0,0-.083-1.53l-15.481,3.4Z" transform="translate(-497.085 -387.996)" fill="#1a2e35"/>
                <path id="Trazado_196911" data-name="Trazado 196911" d="M506.66,381.7l-.638-.213a.512.512,0,0,0-.359-.029c-.154.063-.208.246-.246.409a5.955,5.955,0,0,1-.234,1.063,2.632,2.632,0,0,1-.659.734,11.04,11.04,0,0,1-1.906,1.309c-.78.45-1.547.8-2.356,1.2a20.562,20.562,0,0,0-2.565,1.122,1.748,1.748,0,0,0,.1,2.89,8.569,8.569,0,0,0,5.993.234c1.4-.442,2.911-1.989,4.754-2.189,1.172-.125,3.382-.521,4.112-1.439.267-.4-.142-1.647-.48-2.719-.371-1.172-.551-3.015-.938-2.9-.017.392-.35.63-.546.967a6.505,6.505,0,0,0-.392.951,1.744,1.744,0,0,1-.588.826.781.781,0,0,1-.951-.025c-.359-.346-.171-.98-.434-1.4a1.49,1.49,0,0,0-.842-.517c-.271-.092-.542-.179-.813-.271Z" transform="translate(-496.981 -381.167)" fill="#bddcf6"/>
              </g>
              <path id="Trazado_196912" data-name="Trazado 196912" d="M535.162,247.306c.58,9.253,1.522,29.665,1.522,29.665.133,1.151.555,3.911.767,8.06.3,6.013.1,21.07.1,21.07s-3.211,1.422-5.876.4c0,0-2.953-20.708-4.049-26.612-.963-5.187-2.836-14.962-2.836-14.962l-.876,12.643a41.468,41.468,0,0,1-.2,7.639c-.342,2.744-1.756,16.242-1.756,16.242a13.044,13.044,0,0,1-6.327.075s-.254-21.054-.375-23.581c-.142-2.881-.742-32.5-.742-32.5l20.652,1.86Z" transform="translate(-507.2 -245.45)" fill="#0f2771"/>
              <path id="Trazado_196913" data-name="Trazado 196913" d="M530.6,279.184l-1.6-7.548a5.876,5.876,0,0,1-4.529-1.726s.642,1.851,3.808,2.619l1.6,7.639.158,7.1.559-8.085Z" transform="translate(-513.006 -259.71)" fill="#1a2e35"/>
            </g>
          </g>
          <g id="Grupo_142238" data-name="Grupo 142238" transform="translate(6.684)">
            <path id="Trazado_196914" data-name="Trazado 196914" d="M532.544,182.3c1.818.321,1.939,1.226,2.336,3.027a14.817,14.817,0,0,1,.463,4.433l-1.355,10.662.463,12.28c-2.928,3.186-14.63,4.2-21.023-.463,0,0-1.064-15.166.2-22.864.968-5.884,3.24-8.215,7.006-8.2l6.439.546,5.463.575Z" transform="translate(-513.009 -161.977)" fill="#feca2e"/>
            <path id="Trazado_196915" data-name="Trazado 196915" d="M532.544,182.3c1.818.321,1.939,1.226,2.336,3.027a14.817,14.817,0,0,1,.463,4.433l-1.355,10.662.463,12.28c-2.928,3.186-14.63,4.2-21.023-.463,0,0-1.064-15.166.2-22.864.968-5.884,3.24-8.215,7.006-8.2l6.439.546,5.463.575Z" transform="translate(-513.009 -161.977)" fill="#fff" opacity="0.8"/>
            <g id="Grupo_142237" data-name="Grupo 142237" transform="translate(1.08)">
              <path id="Trazado_196916" data-name="Trazado 196916" d="M527.551,141.564a5.716,5.716,0,1,1-5.7-5.734A5.717,5.717,0,0,1,527.551,141.564Z" transform="translate(-515.903 -135.543)" fill="#1a2e35"/>
              <g id="Grupo_142235" data-name="Grupo 142235">
                <path id="Trazado_196917" data-name="Trazado 196917" d="M547.686,147.657l1.222-3.278a2.148,2.148,0,0,1,1.772.63c.759.784.325,3.219-.634,5.609a49.992,49.992,0,0,1-1.314,5.062,1.974,1.974,0,0,1-1.143.913Z" transform="translate(-534.248 -140.519)" fill="#1a2e35"/>
                <path id="Trazado_196918" data-name="Trazado 196918" d="M530.654,147.059c.35.208.851-.459,1.284-.909a1.516,1.516,0,0,1,2.54.421c.709,1.51-.634,3.5-1.743,3.845-1.914.592-2.194-.634-2.194-.634l-.171,6.893a6.151,6.151,0,0,1-4.65,3.5c-3.391.446-2.682-2.343-1.564-3.707l.013-2.1a12.012,12.012,0,0,1-2.577.125,3.5,3.5,0,0,1-2.707-2.856c-.676-2.444-.93-4.42-.334-9.22.655-5.262,6.781-5.3,10.08-3.2s2.019,7.848,2.019,7.848Z" transform="translate(-517.125 -136.764)" fill="#c76668"/>
                <path id="Trazado_196919" data-name="Trazado 196919" d="M529.1,145.9c.555-.158.955-1.042,1.318-1.372.6-.546-.154-5.521-.154-5.521a2.356,2.356,0,0,0-.576-2.519,4.376,4.376,0,0,0-1.8-.942,13.452,13.452,0,0,0-5.584-.221,18.067,18.067,0,0,1-5.605.083,1.36,1.36,0,0,0-.43-.046.861.861,0,0,0-.663.872,3.4,3.4,0,0,0,1.28,2.21,7.234,7.234,0,0,0,2.21,1.418,8.962,8.962,0,0,0,4.425.617,8.6,8.6,0,0,0,1.885-.438,4.75,4.75,0,0,0,.417.646,2.858,2.858,0,0,0,.609.534,2.51,2.51,0,0,0,.734.342c.271.071.526.038.676.325a1.363,1.363,0,0,1,.108.609c.017.609.038,1.218.054,1.826a2.953,2.953,0,0,0,.125.917,1,1,0,0,0,.617.646.59.59,0,0,0,.35,0Z" transform="translate(-515.599 -135.142)" fill="#1a2e35"/>
                <path id="Trazado_196920" data-name="Trazado 196920" d="M532.484,173.594a23.993,23.993,0,0,0,4.237-1.2,3.644,3.644,0,0,0,1.522-1.493,4.953,4.953,0,0,1-.867,1.768c-.8,1.022-4.9,1.764-4.9,1.764V173.6Z" transform="translate(-525.44 -155.989)" fill="#b0494c"/>
              </g>
              <g id="Grupo_142236" data-name="Grupo 142236" transform="translate(1.639 6.904)">
                <path id="Trazado_196921" data-name="Trazado 196921" d="M533.6,156.635a.628.628,0,1,0,.63-.655A.642.642,0,0,0,533.6,156.635Z" transform="translate(-527.731 -154.194)" fill="#1a2e35"/>
                <path id="Trazado_196922" data-name="Trazado 196922" d="M535.4,152.351l1.393.9a.87.87,0,0,0-.254-1.176.813.813,0,0,0-1.139.275Z" transform="translate(-528.781 -151.845)" fill="#1a2e35"/>
                <path id="Trazado_196923" data-name="Trazado 196923" d="M533.02,166.72l-2.21.947a1.216,1.216,0,0,0,1.622.642A1.166,1.166,0,0,0,533.02,166.72Z" transform="translate(-526.105 -160.456)" fill="#b0494c"/>
                <path id="Trazado_196924" data-name="Trazado 196924" d="M519.633,152.887l1.322-.8a.745.745,0,0,0-1.043-.279.813.813,0,0,0-.284,1.084Z" transform="translate(-519.528 -151.698)" fill="#1a2e35"/>
                <path id="Trazado_196925" data-name="Trazado 196925" d="M521.02,156.165a.628.628,0,1,0,.63-.655A.642.642,0,0,0,521.02,156.165Z" transform="translate(-520.398 -153.921)" fill="#1a2e35"/>
                <path id="Trazado_196926" data-name="Trazado 196926" d="M525.116,156.73l-.538,4.011-2.048-.884Z" transform="translate(-521.278 -154.632)" fill="#b0494c"/>
              </g>
            </g>
          </g>
        </g>
        <g id="Grupo_142242" data-name="Grupo 142242" transform="translate(15.603 23.527)">
          <g id="Grupo_142241" data-name="Grupo 142241" transform="translate(0 14.68)">
            <path id="Trazado_196927" data-name="Trazado 196927" d="M483.91,223.61l15.723.113,4.058,17.805-14.93-.5Z" transform="translate(-483.91 -221.719)" fill="#feca2e"/>
            <path id="Trazado_196928" data-name="Trazado 196928" d="M515.875,254.73c-.071.367.2.863.951,1.426.6.455,1.03,1.284,2.023,1.459a6.585,6.585,0,0,0,3.015.021l-.555-2.435-5.43-.471Z" transform="translate(-502.538 -239.862)" fill="#0f2771"/>
            <path id="Trazado_196929" data-name="Trazado 196929" d="M494.668,225.922s-.05-.246-.113-.55.867-.546,2.077-.542l2.315.008c1.209,0,2.24.254,2.3.559l.113.55-6.7-.021Z" transform="translate(-490.114 -222.43)" fill="#0f2771"/>
            <g id="Grupo_142240" data-name="Grupo 142240" transform="translate(3.521)">
              <path id="Trazado_196930" data-name="Trazado 196930" d="M498.754,221.036l1.777.013-.1-.334c-.058-.183-.542-.346-1.084-.359s-.98-.025-.98-.025-.4-1.322-2.44-1.255-1.8,1.259-1.8,1.259l-.917-.017c-.5-.008-.884.138-.847.325s.075.354.075.354l1.585.012c.35.033.525.138.592.467.108.534.146.938.146.938l3.582.029s-.15-.676-.2-.938.079-.45.609-.459Z" transform="translate(-492.354 -219.074)" fill="#0f2771"/>
              <path id="Trazado_196931" data-name="Trazado 196931" d="M494.428,226.112s-.05-.246-.113-.55.867-.546,2.077-.542l2.315.008c1.209,0,2.24.254,2.3.559l.113.55-6.7-.021Z" transform="translate(-493.496 -222.541)" fill="#bddcf6"/>
            </g>
          </g>
          <path id="Trazado_196932" data-name="Trazado 196932" d="M518.808,208.979c1.113-.013,2.848.271,3.812.363a4.7,4.7,0,0,0,1.51-.012,7.013,7.013,0,0,0,1.18-.309c1.33-.709,12.2-5.98,12.2-5.98l-3.624-9.728s-1.314-5.346-.73-8.853c4.6.3,5.543,2.956,6.89,7.439,1.539,5.125,3.524,10.508,3.9,13.056.171,1.168-.25,2.373-2.723,3.507-2.615,1.2-5.563,2.089-14.226,5.154a44.5,44.5,0,0,1-4.979,1.76c-4.454.98-6.3.271-7.3-1.409-.292-.488-.363-1.047-.634-1.547a3.848,3.848,0,0,1-.421-.838.666.666,0,0,1,.325-.792.88.88,0,0,1,.43-.008c.721.1,1.443.192,2.164.242a14.039,14.039,0,0,0,2.477-.063.323.323,0,0,0,.125-.029c.121-.063.088-.108.013-.146" transform="translate(-501.238 -184.214)" fill="#c76668"/>
          <path id="Trazado_196933" data-name="Trazado 196933" d="M553.455,183.87c2.11.133,4.683.1,6.081,3.565,1.243,3.082,2.181,5.613,3.712,10.308,1.18,3.619,2.26,7.1,1.868,8.294s-3.011,2.3-4.479,2.84c-2.2.8-8.745,2.861-8.745,2.861a6.717,6.717,0,0,0-3.011-4.558l8.65-4.716-3.09-8.586a12.9,12.9,0,0,1-.984-10.008Z" transform="translate(-521.784 -183.87)" fill="#feca2e"/>
          <path id="Trazado_196934" data-name="Trazado 196934" d="M553.455,183.87c2.11.133,4.683.1,6.081,3.565,1.243,3.082,2.181,5.613,3.712,10.308,1.18,3.619,2.26,7.1,1.868,8.294s-3.011,2.3-4.479,2.84c-2.2.8-8.745,2.861-8.745,2.861a6.717,6.717,0,0,0-3.011-4.558l8.65-4.716-3.09-8.586a12.9,12.9,0,0,1-.984-10.008Z" transform="translate(-521.784 -183.87)" fill="#fff" opacity="0.65"/>
        </g>
      </g>
      <g id="Character-2" transform="translate(69.38 7.353)">
        <path id="Arm" d="M371.781,228.754c-3.933-.075-5.009,2.36-6.177,5.613-1.122,3.132-2.11,6.776-3.078,8.857-2.974.959-8.449,2.377-10.7,2.435a1.8,1.8,0,0,1-1.176-.409,10.227,10.227,0,0,0-2.557-1.343c-.751-.35-1.043-.755-1.2-.63a.887.887,0,0,0-.046,1.243,6.222,6.222,0,0,0,1.139,1.051,7.32,7.32,0,0,1-3.253-.284c-2.018-.763-3.107.133-1.935,2.535.417.859,2.265,2.36,6.314,2.427a36.254,36.254,0,0,0,4.316-.058c3.937-.421,8.153-.947,10.864-1.459a4.329,4.329,0,0,0,2.761-1.751c.988-1.3,4.817-10.124,6.3-13.648l-1.564-4.583Z" transform="translate(-292.942 -174.65)" fill="#ffa8a7"/>
        <g id="Character-3" transform="translate(66.405 33.001)">
          <g id="Grupo_142245" data-name="Grupo 142245" transform="translate(0 39.539)">
            <g id="Grupo_142243" data-name="Grupo 142243" transform="translate(22.088 49.939)">
              <path id="Trazado_196935" data-name="Trazado 196935" d="M444.876,432.94a21.166,21.166,0,0,1,.4,3.474c.083,2.114.488,2.856.571,4.587a5.12,5.12,0,0,1-1.009,3.861c-.784,1.13-2.874,2.185-3.8.317a7.479,7.479,0,0,1-.592-5.05c.254-2.014.271-3.127.409-4.662.125-1.355.284-2.385.284-2.385Z" transform="translate(-438.541 -416.173)" fill="#1a2e35"/>
              <path id="Trazado_196936" data-name="Trazado 196936" d="M436.12,393l6.961-.267c-.008,4.649-.592,12.4-.626,16.767,0,.821.15,6.38-.125,8.073-.413,2.548-3.432,2.264-3.624.751s.033-8.01.008-8.682c-.029-2.8-1.489-10.07-2.277-15.078C436.4,394.315,436.158,393.234,436.12,393Z" transform="translate(-436.12 -392.73)" fill="#ffa8a7"/>
            </g>
            <g id="Grupo_142244" data-name="Grupo 142244" transform="translate(0 49.814)">
              <path id="Trazado_196937" data-name="Trazado 196937" d="M395.749,424.58s.359,0,.434.292c.088.346.133.9.309,1.459a8.354,8.354,0,0,1,.4,2.74c-.083.655-1.51,1.7-2.515,1.926a7.89,7.89,0,0,0-3.128,2.093,7.764,7.764,0,0,1-4.4,2.014c-1.226.058-3.053-.167-3.587-1.476a1.254,1.254,0,0,1,.067-1.143,2.135,2.135,0,0,1,.976-.684,23.181,23.181,0,0,0,2.419-1.289,16.751,16.751,0,0,0,3.332-2.594,8.039,8.039,0,0,0,1.084-1.376,7.856,7.856,0,0,0,.4-.738,6.213,6.213,0,0,1,.325-.78l3.879-.446Z" transform="translate(-383.157 -411.174)" fill="#1a2e35"/>
              <path id="Trazado_196938" data-name="Trazado 196938" d="M399.528,405.865c.05-1.439.6-4.453,1.551-12.973l-6.523-.463s.792,11.1.822,12.535a3.546,3.546,0,0,1-.822,2.786c-.513.63-1.08,1.222-1.647,1.806a19.884,19.884,0,0,1-1.839,1.664l-1.447,1.159c-.154.125-.325.3-.275.484a.455.455,0,0,0,.338.271,3.512,3.512,0,0,0,2.269-.234,12.044,12.044,0,0,0,3.153-1.751c.475-.367.876-.826,1.343-1.2s.976-.726,1.443-1.113c.759-.63,2.01-2.056,1.639-2.977Z" transform="translate(-386.761 -392.43)" fill="#ffa8a7"/>
            </g>
            <path id="Trazado_196939" data-name="Trazado 196939" d="M415.24,272.97a22.272,22.272,0,0,1,4.563,8.936c1.485,6.447.621,25.19.621,25.19.121,1.155.246,3.3.838,8.39a62.425,62.425,0,0,1-.2,13s-3.578,1.059-5.91,0c0,0-2.29-12.168-3.165-18.139-.763-5.212-3.145-18.147-3.145-18.147l-1.714,16.671s.046,2.819.238,5.571c.242,3.532-1.435,13.79-1.435,13.79s-3.391.73-5.576,0c0,0-1.493-15.441-1.668-19.69-.209-5.108.342-15.233,1.013-23.351.2-2.448,1.084-9.374,1.472-11.476l14.063-.742Z" transform="translate(-392.184 -272.97)" fill="#bddcf6"/>
            <path id="Trazado_196940" data-name="Trazado 196940" d="M413.777,309.723l-.817-4.929a12.31,12.31,0,0,1-5.86-1.764,7.431,7.431,0,0,0,4.925,2.627l.542,4.416-.284,14.144,1.489-14.49Z" transform="translate(-397.115 -290.495)" fill="#1a2e35"/>
          </g>
          <g id="Grupo_142246" data-name="Grupo 142246" transform="translate(6.629 21.029)">
            <path id="Trazado_196941" data-name="Trazado 196941" d="M400.844,242c.075,1.451.576,5.825.576,5.825,5.93,4.016,14.2-.55,14.2-.55l2.139-8.707s-3.9-4.624-1-9.19l-4.846-.73-5.413-.071-1.639.075c-1.814,1.33-4.6,4.245-5.18,5.738a7.024,7.024,0,0,0,1.168,7.61Z" transform="translate(-399.051 -228.58)" fill="#feca2e"/>
            <path id="Trazado_196942" data-name="Trazado 196942" d="M400.844,242c.075,1.451.576,5.825.576,5.825,5.93,4.016,14.2-.55,14.2-.55l2.139-8.707s-3.9-4.624-1-9.19l-4.846-.73-5.413-.071-1.639.075c-1.814,1.33-4.6,4.245-5.18,5.738a7.024,7.024,0,0,0,1.168,7.61Z" transform="translate(-399.051 -228.58)" fill="#fff" opacity="0.65"/>
          </g>
          <g id="Grupo_142248" data-name="Grupo 142248" transform="translate(6.916)">
            <path id="Trazado_196943" data-name="Trazado 196943" d="M399.74,198.028h7.586a11.066,11.066,0,0,0,11.068-11.067h0a8.811,8.811,0,0,0-8.812-8.811h-1.026a8.811,8.811,0,0,0-8.812,8.811v11.067Z" transform="translate(-399.74 -178.15)" fill="#1a2e35"/>
            <path id="Trazado_196944" data-name="Trazado 196944" d="M437.381,178.15l-.6,2.31a1.157,1.157,0,0,0,1.468-.809,1.254,1.254,0,0,0-.867-1.5Z" transform="translate(-421.332 -178.15)" fill="#1a2e35"/>
            <path id="Trazado_196945" data-name="Trazado 196945" d="M439.646,183.2l-2.385.088a1.161,1.161,0,0,0,1.2,1.176,1.254,1.254,0,0,0,1.189-1.263Z" transform="translate(-421.612 -181.094)" fill="#1a2e35"/>
            <g id="Grupo_142247" data-name="Grupo 142247" transform="translate(1.372 4.182)">
              <path id="Trazado_196946" data-name="Trazado 196946" d="M405.119,188.184c-.984.584-2.2,3.061-2.081,8.252.1,4.4,1.531,5.488,2.244,5.8a7.614,7.614,0,0,0,3.441-.1v2.64s-1.856,2.156-1.739,3.369,2.682,1.5,4.417.313a11.239,11.239,0,0,0,2.853-2.986v-6.847s.734.78,2.035-.113a2.4,2.4,0,0,0,.613-3.482,1.775,1.775,0,0,0-2.694.321,13.3,13.3,0,0,1-4.658-1.726,9.2,9.2,0,0,1-4.433-5.446Z" transform="translate(-403.03 -188.18)" fill="#ffa8a7"/>
              <path id="Trazado_196947" data-name="Trazado 196947" d="M416.009,204.566a.56.56,0,0,0,.525.6.569.569,0,0,0,.584-.546.554.554,0,1,0-1.105-.054Z" transform="translate(-410.596 -197.414)" fill="#1a2e35"/>
              <path id="Trazado_196948" data-name="Trazado 196948" d="M412.674,214.28l-1.284.409a.664.664,0,0,0,.834.463A.71.71,0,0,0,412.674,214.28Z" transform="translate(-407.903 -203.397)" fill="#f28f8f"/>
              <path id="Trazado_196949" data-name="Trazado 196949" d="M404.085,199.743l1.122-.776a.655.655,0,0,0-.93-.192A.717.717,0,0,0,404.085,199.743Z" transform="translate(-403.581 -194.289)" fill="#1a2e35"/>
              <path id="Trazado_196950" data-name="Trazado 196950" d="M404.854,203.606a.554.554,0,1,0,.58-.546.569.569,0,0,0-.584.546Z" transform="translate(-404.091 -196.855)" fill="#1a2e35"/>
              <path id="Trazado_196951" data-name="Trazado 196951" d="M409.653,203.61l-.088,3.332-1.756-.542Z" transform="translate(-405.816 -197.176)" fill="#f28f8f"/>
              <path id="Trazado_196952" data-name="Trazado 196952" d="M416.68,218.622c1.414-.188,4.329-1.022,4.784-2.173a2.955,2.955,0,0,1-1.022,1.468,15.321,15.321,0,0,1-3.762,1.585Z" transform="translate(-410.987 -204.662)" fill="#f28f8f"/>
            </g>
          </g>
        </g>
        <g id="Magnifying_glass">
          <g id="Grupo_142249" data-name="Grupo 142249" transform="translate(43.549 57.571)">
            <path id="Trazado_196953" data-name="Trazado 196953" d="M341.233,253.891h0a2.106,2.106,0,0,1-.509-2.068,6.616,6.616,0,0,1,3.9-4.549,2.11,2.11,0,0,1,2.119.179h0l34.577,27.359h0a2.869,2.869,0,0,1,.813,2.969,9.259,9.259,0,0,1-5.442,6.363,2.854,2.854,0,0,1-3.053-.346l-.008.008-32.388-29.915Z" transform="translate(-335.529 -242.909)" fill="#feca2e"/>
            <path id="Trazado_196954" data-name="Trazado 196954" d="M341.233,253.891h0a2.106,2.106,0,0,1-.509-2.068,6.616,6.616,0,0,1,3.9-4.549,2.11,2.11,0,0,1,2.119.179h0l34.577,27.359h0a2.869,2.869,0,0,1,.813,2.969,9.259,9.259,0,0,1-5.442,6.363,2.854,2.854,0,0,1-3.053-.346l-.008.008-32.388-29.915Z" transform="translate(-335.529 -242.909)" fill="#0f2771"/>
            <path id="Trazado_196955" data-name="Trazado 196955" d="M344.619,247.272c1.8-.638,2.978.371,2.627,2.248a6.616,6.616,0,0,1-3.9,4.549c-1.8.638-2.978-.371-2.627-2.248A6.616,6.616,0,0,1,344.619,247.272Z" transform="translate(-335.528 -242.908)" fill="#feca2e"/>
            <path id="Trazado_196956" data-name="Trazado 196956" d="M344.619,247.272c1.8-.638,2.978.371,2.627,2.248a6.616,6.616,0,0,1-3.9,4.549c-1.8.638-2.978-.371-2.627-2.248A6.616,6.616,0,0,1,344.619,247.272Z" transform="translate(-335.528 -242.908)" fill="#0f2771"/>
            <path id="Trazado_196957" data-name="Trazado 196957" d="M328.389,239.94a4,4,0,0,1,2.352-2.752,1.27,1.27,0,0,1,1.28.108h0l6.452,5.592h0a1.278,1.278,0,0,1,.309,1.251,4,4,0,0,1-2.352,2.752,1.27,1.27,0,0,1-1.28-.108l-6.452-5.6h0a1.278,1.278,0,0,1-.309-1.251Z" transform="translate(-328.353 -237.073)" fill="#0f2771"/>
            <path id="Trazado_196958" data-name="Trazado 196958" d="M330.741,237.194a2.873,2.873,0,0,0-.417.192c-.021.013-.042.029-.067.042a2.915,2.915,0,0,0-.346.229c-.008.008-.017.013-.025.021a4.008,4.008,0,0,0-1.5,2.273,1.278,1.278,0,0,0,.309,1.251l2.16,1.872a13.464,13.464,0,0,0,1.868-1.818l5.359,4.358a3.564,3.564,0,0,0,.7-1.459,1.278,1.278,0,0,0-.309-1.251h0l-4.337-3.761h0l-2.114-1.835h0a1.272,1.272,0,0,0-1.28-.108Z" transform="translate(-328.353 -237.079)" fill="#bddcf6"/>
            <path id="Trazado_196959" data-name="Trazado 196959" d="M354.81,251.769l34.919,28.376a7.273,7.273,0,0,0,.642-1.847,2.855,2.855,0,0,0-.817-2.965h0L354.989,247.97a2.1,2.1,0,0,1,.5,2.068,5.528,5.528,0,0,1-.684,1.73Z" transform="translate(-343.776 -243.426)" fill="#fff" opacity="0.4"/>
            <path id="Trazado_196960" data-name="Trazado 196960" d="M429.75,310.726h0l-2.594-2.056c-.646.363-1.276.771-1.768,1.055-.717.409-1.226.413-1.209.617a.938.938,0,0,0,1.03.755,14.938,14.938,0,0,0,2.173-.534,25.62,25.62,0,0,1-2.456,2.514c-1.622,1.405-1.772,2.79.934,3.219,1.764.279,2.94-.43,4.717-2.715a2.818,2.818,0,0,0-.83-2.856Z" transform="translate(-383.968 -278.815)" fill="#0f2771"/>
          </g>
          <g id="Grupo_142250" data-name="Grupo 142250">
            <path id="Trazado_196961" data-name="Trazado 196961" d="M287.185,121.362c-.008-.346-.025-.684-.054-1.022s-.042-.667-.075-1c-.017-.221-.042-.442-.071-.663-.058-.575-.142-1.143-.234-1.685-.042-.246-.088-.5-.138-.746s-.1-.467-.146-.692c-.146-.625-.3-1.238-.475-1.822-.092-.279-.179-.559-.271-.83a.774.774,0,0,1-.042-.129c-.1-.271-.2-.534-.3-.788-.117-.3-.234-.592-.371-.876-.1-.208-.188-.413-.3-.613a3.609,3.609,0,0,0-.217-.442c-.088-.179-.179-.359-.279-.53a.788.788,0,0,0-.071-.117c-.083-.154-.179-.3-.267-.459-.063-.1-.129-.2-.188-.288a15.108,15.108,0,0,0-1.46-1.939c-.092-.1-.188-.2-.267-.3s-.154-.163-.229-.238c-.092-.1-.192-.2-.3-.3a9.61,9.61,0,0,0-.88-.788c-.146-.125-.3-.242-.45-.354s-.3-.225-.467-.338a8.333,8.333,0,0,0-.755-.492c-.067-.042-.138-.088-.2-.129l-.042-.033h-.013l-4.738-2.785h-.017l-.067-.042a15.054,15.054,0,0,0-7.544-1.906c-3.933,0-8.374,1.288-13.079,4-16.152,9.328-29.252,32.012-29.252,50.668,0,9.3,3.257,15.846,8.516,18.915l.05.025v.008l4.746,2.777a.008.008,0,0,0,.008.008l.054.033v-.008c.025.013.05.025.071.038s.05.029.075.042c.225.133.455.25.692.363.288.146.584.271.884.388a7.739,7.739,0,0,0,.8.3,3.363,3.363,0,0,0,.43.129,3,3,0,0,0,.467.138c.163.05.313.088.475.121a2.624,2.624,0,0,0,.35.075c.2.042.421.088.634.113a.429.429,0,0,0,.146.025c.25.042.509.079.759.1,4.358.459,9.425-.771,14.847-3.9,16.165-9.328,29.264-32.021,29.264-50.668,0-.45-.008-.892-.025-1.334ZM233.874,165.38a28.449,28.449,0,0,1-.988-7.656c0-17.676,12.937-40.085,28.251-48.925a27.261,27.261,0,0,1,7.165-2.965,15.917,15.917,0,0,1,3.687-.467,11.512,11.512,0,0,1,1.868.146l.05.021c3.136,3.707,3.595,9.645,3.595,12.818,0,17.676-12.924,40.085-28.242,48.921a22.516,22.516,0,0,1-10.856,3.436,7.414,7.414,0,0,1-1.973-.254h0A13.983,13.983,0,0,1,233.874,165.38Z" transform="translate(-223.936 -99.016)" fill="#feca2e"/>
            <path id="Trazado_196962" data-name="Trazado 196962" d="M287.185,121.362c-.008-.346-.025-.684-.054-1.022s-.042-.667-.075-1c-.017-.221-.042-.442-.071-.663-.058-.575-.142-1.143-.234-1.685-.042-.246-.088-.5-.138-.746s-.1-.467-.146-.692c-.146-.625-.3-1.238-.475-1.822-.092-.279-.179-.559-.271-.83a.774.774,0,0,1-.042-.129c-.1-.271-.2-.534-.3-.788-.117-.3-.234-.592-.371-.876-.1-.208-.188-.413-.3-.613a3.609,3.609,0,0,0-.217-.442c-.088-.179-.179-.359-.279-.53a.788.788,0,0,0-.071-.117c-.083-.154-.179-.3-.267-.459-.063-.1-.129-.2-.188-.288a15.108,15.108,0,0,0-1.46-1.939c-.092-.1-.188-.2-.267-.3s-.154-.163-.229-.238c-.092-.1-.192-.2-.3-.3a9.61,9.61,0,0,0-.88-.788c-.146-.125-.3-.242-.45-.354s-.3-.225-.467-.338a8.333,8.333,0,0,0-.755-.492c-.067-.042-.138-.088-.2-.129l-.042-.033h-.013l-4.738-2.785h-.017l-.067-.042a15.054,15.054,0,0,0-7.544-1.906c-3.933,0-8.374,1.288-13.079,4-16.152,9.328-29.252,32.012-29.252,50.668,0,9.3,3.257,15.846,8.516,18.915l.05.025v.008l4.746,2.777a.008.008,0,0,0,.008.008l.054.033v-.008c.025.013.05.025.071.038s.05.029.075.042c.225.133.455.25.692.363.288.146.584.271.884.388a7.739,7.739,0,0,0,.8.3,3.363,3.363,0,0,0,.43.129,3,3,0,0,0,.467.138c.163.05.313.088.475.121a2.624,2.624,0,0,0,.35.075c.2.042.421.088.634.113a.429.429,0,0,0,.146.025c.25.042.509.079.759.1,4.358.459,9.425-.771,14.847-3.9,16.165-9.328,29.264-32.021,29.264-50.668,0-.45-.008-.892-.025-1.334ZM233.874,165.38a28.449,28.449,0,0,1-.988-7.656c0-17.676,12.937-40.085,28.251-48.925a27.261,27.261,0,0,1,7.165-2.965,15.917,15.917,0,0,1,3.687-.467,11.512,11.512,0,0,1,1.868.146l.05.021c3.136,3.707,3.595,9.645,3.595,12.818,0,17.676-12.924,40.085-28.242,48.921a22.516,22.516,0,0,1-10.856,3.436,7.414,7.414,0,0,1-1.973-.254h0A13.983,13.983,0,0,1,233.874,165.38Z" transform="translate(-223.936 -99.016)" fill="#fff" opacity="0.6"/>
            <path id="Trazado_196963" data-name="Trazado 196963" d="M300.45,130.525c0,9.391-3.649,20.111-9.371,29.431-.267.442-.542.876-.826,1.314-.238.375-.48.751-.734,1.122-.538.8-1.08,1.585-1.652,2.356-.267.367-.538.734-.817,1.088q-.45.594-.913,1.176c-.588.742-1.2,1.464-1.814,2.168-.4.471-.822.93-1.243,1.376a47.588,47.588,0,0,1-10.877,8.886c-.734.421-1.456.809-2.173,1.155a21.717,21.717,0,0,1-7.448,2.223c-.421.042-.83.058-1.23.058-.213,0-.417,0-.617-.017h-.025a9.474,9.474,0,0,1-1.164-.121c-.188-.029-.375-.058-.555-.1s-.359-.075-.534-.129a8.569,8.569,0,0,1-4.588-2.969,7.419,7.419,0,0,0,1.973.25A22.493,22.493,0,0,0,266.7,176.36c15.318-8.836,28.242-31.245,28.242-48.921,0-3.173-.459-9.115-3.595-12.822l-.05-.017c4,.638,6.264,3.353,7.544,6.493a18.017,18.017,0,0,1,.872,2.74c.008.05.025.1.033.154.042.167.083.342.113.509s.067.329.1.5c.008.038.017.083.025.129.033.179.067.354.092.525.1.655.184,1.3.238,1.906.013.179.029.346.042.517.013.125.021.259.029.379,0,.05.008.108.008.158.008.138.017.271.025.4v.113c.008.167.012.338.017.5.008.317.013.617.013.9Z" transform="translate(-241.384 -108.099)" fill="#feca2e"/>
            <path id="Trazado_196964" data-name="Trazado 196964" d="M258.809,181.387a15.667,15.667,0,0,0,3.687-.467,27.4,27.4,0,0,0,7.165-2.965c15.314-8.84,28.251-31.245,28.251-48.925a28.451,28.451,0,0,0-.988-7.656,12.584,12.584,0,0,0-3.728-6.267c-.058-.021-.121-.042-.184-.067-.167-.058-.334-.113-.509-.163-.1-.029-.2-.058-.3-.083-.171-.046-.35-.083-.53-.117-.1-.021-.2-.046-.313-.063a.081.081,0,0,1-.033,0l.033.013c3.136,3.707,3.595,9.645,3.595,12.822,0,17.676-12.924,40.085-28.242,48.921a22.519,22.519,0,0,1-10.856,3.432,7.419,7.419,0,0,1-1.973-.25c.008.013.021.025.029.038a9.478,9.478,0,0,0,1.151,1.163,10.509,10.509,0,0,0,3.745.638Z" transform="translate(-241.389 -108.105)" fill="#fff" opacity="0.6"/>
            <path id="Trazado_196965" data-name="Trazado 196965" d="M278.68,103.776l-.042-.033h-.013l-4.738-2.785h-.017l-.067-.042a15.054,15.054,0,0,0-7.544-1.906c-3.933,0-8.374,1.284-13.079,3.995-8.954,5.171-16.97,14.449-22.329,24.865l.033.021-.033-.021c-4.312,8.373-6.923,17.489-6.923,25.807,0,9.286,3.253,15.829,8.516,18.9l4.392,2.581c-5.067-3.152-8.166-9.607-8.166-18.706,0-8.269,2.828-17.226,7.1-25.549,5.38-10.266,13.333-19.557,22.162-25.119,8.02-5.05,15.627-5.121,20.94-1.889-.067-.042-.133-.088-.2-.125Z" transform="translate(-223.93 -99.01)" fill="#fff" opacity="0.4"/>
          </g>
        </g>
        <path id="Arm-2" d="M440.5,251.083c-.4-3.665-3.14-11.959-3.828-14.957-.784-3.423-2.19-5.2-5.513-5.625-1.668.417-2.461,5.834-.288,9.378.784,2.519,3.929,10.6,3.929,10.6a106.358,106.358,0,0,1-5,10.512,1.746,1.746,0,0,1-1.005.721,17.73,17.73,0,0,0-3.395,1.785c-.717.409-1.226.413-1.209.617a.938.938,0,0,0,1.03.755,14.944,14.944,0,0,0,2.173-.534,25.616,25.616,0,0,1-2.456,2.514c-1.622,1.405-1.772,2.79.934,3.219,2.048.325,3.295-.676,5.618-3.932.667-.938,1.464-2.381,2.277-3.594,2.056-3.065,3.253-4.287,4.421-6.267,1.839-3.123,2.469-3.778,2.315-5.192Z" transform="translate(-340.424 -175.67)" fill="#ffa8a7"/>
      </g>
    </g>
  </g>
</svg>
