<svg xmlns="http://www.w3.org/2000/svg" xmlns:xlink="http://www.w3.org/1999/xlink" width="394.667" height="372.972" viewBox="0 0 394.667 372.972">
  <defs>
    <linearGradient id="linear-gradient" y1="0.5" x2="1" y2="0.5" gradientUnits="objectBoundingBox">
      <stop offset="0" stop-color="#fff"/>
      <stop offset="1" stop-color="#ebeff2"/>
    </linearGradient>
    <clipPath id="clip-path">
      <path id="Trazado_192269" data-name="Trazado 192269" d="M484.415,201.867,344.93,203.883V59.54L484.415,63.5Z" transform="translate(-344.93 -59.54)" fill="none"/>
    </clipPath>
    <linearGradient id="linear-gradient-2" y1="0.5" x2="1" y2="0.5" gradientUnits="objectBoundingBox">
      <stop offset="0" stop-color="#ffaa96"/>
      <stop offset="0.43" stop-color="#f9ab99"/>
      <stop offset="0.55" stop-color="#fba28f"/>
      <stop offset="0.78" stop-color="#fe9983"/>
      <stop offset="1" stop-color="#ff967f"/>
    </linearGradient>
    <linearGradient id="linear-gradient-3" x1="0" y1="0.5" x2="1" y2="0.5" xlink:href="#linear-gradient-2"/>
    <linearGradient id="linear-gradient-4" x1="0.46" y1="1.712" x2="0.575" y2="-1.836" xlink:href="#linear-gradient-2"/>
    <linearGradient id="linear-gradient-5" x1="0.448" y1="1.803" x2="0.607" y2="-1.746" xlink:href="#linear-gradient-2"/>
    <clipPath id="clip-path-2">
      <path id="Trazado_192290" data-name="Trazado 192290" d="M463.212,389.5,349.05,396.573V276.068l114.162-2.978Z" transform="translate(-349.05 -273.09)" fill="none"/>
    </clipPath>
    <linearGradient id="linear-gradient-7" x1="0.502" y1="1.272" x2="0.497" y2="0.376" gradientUnits="objectBoundingBox">
      <stop offset="0" stop-color="#ab316d"/>
      <stop offset="1" stop-color="#792d3d"/>
    </linearGradient>
    <linearGradient id="linear-gradient-8" x1="0.441" y1="0.85" x2="0.581" y2="-0.359" xlink:href="#linear-gradient-7"/>
    <linearGradient id="linear-gradient-9" x1="0.421" y1="1.322" x2="0.886" y2="-2.775" xlink:href="#linear-gradient-7"/>
    <linearGradient id="linear-gradient-10" x1="0.398" y1="1.534" x2="0.877" y2="-2.554" xlink:href="#linear-gradient-7"/>
    <clipPath id="clip-path-3">
      <path id="Trazado_192317" data-name="Trazado 192317" d="M327.725,307.853,152.5,315.132V150.03l175.225.962Z" transform="translate(-152.5 -150.03)" fill="none"/>
    </clipPath>
    <linearGradient id="linear-gradient-12" x1="0.863" y1="-13.175" x2="0.544" y2="-1.426" gradientUnits="objectBoundingBox">
      <stop offset="0" stop-color="#ffc444"/>
      <stop offset="1" stop-color="#f36f56"/>
    </linearGradient>
  </defs>
  <g id="Grupo_146523" data-name="Grupo 146523" transform="translate(-7822 -2693)">
    <g id="_1e" data-name="1e" transform="translate(7725.11 2633.46)">
      <g id="Layer_1" transform="translate(96.89 59.54)">
        <g id="Grupo_141142" data-name="Grupo 141142">
          <g id="Grupo_141114" data-name="Grupo 141114" transform="translate(103.145 27.025)">
            <g id="Grupo_141110" data-name="Grupo 141110" transform="translate(72.76 32.138)">
              <path id="Trazado_192238" data-name="Trazado 192238" d="M328.955,418.813c-17.554-3.2-21.9-40.9-22.454-46.267-1.383-13.42-3.087-30.055,6.613-44.133,14.028-20.346,37.916-15.048,43.618-31.936,3.5-10.384-5.12-13.572-5.525-33.42-.118-5.694-.54-26.259,13.842-42.885,10.257-11.851,23.29-16.221,30.181-17.908a66.419,66.419,0,0,0,4.8-24.8c-.1-16.854-6.984-23.357-3.416-32.3,4.1-10.24,18.7-15.588,29.818-15.487,29.608.278,45.837,39.342,46.942,42.117,2.868,7.178,11.97,29.928,1.561,46.486-8.224,13.083-22.2,12.071-24.336,22.826-2.126,10.73,11.16,14.905,14.3,31.286,2.682,13.986-3.222,30.662-13.665,40.05-17.444,15.681-38.8,3.155-48.148,16.153-10.873,15.133,11.067,41.855,1.358,50.873-9.211,8.562-33.294-11.506-45.027-1.51-8.486,7.229-.616,21.729-12.054,33.336-.683.692-9.27,9.186-18.431,7.516Z" transform="translate(-305.428 -129.678)" fill="#727997"/>
              <path id="Trazado_192239" data-name="Trazado 192239" d="M422.277,140.188c11.253,2.6,16.457,36.482,10.51,65.491-4.091,19.975-9.928,20.346-24.918,54.162-20.32,45.829-12.771,52.3-27.541,68.308-20.27,21.974-41.063,16.921-52.222,38.06-7.55,14.306-5.365,30.527-2.092,42.446a79.6,79.6,0,0,1-12.509-34.424c-1.181-10.485-3.323-29.456,7.592-41,13.091-13.851,32.383-3.686,41.375-16.567,5.095-7.3.515-12.889-.666-37.832-1.189-25.154-1.78-37.731,5.027-48.469,12.147-19.148,33.985-11.337,41.459-27.954,7.752-17.225-11.927-34.044-1.7-51.5,3.3-5.626,10.122-12.012,15.673-10.73Z" transform="translate(-306.536 -131.296)" fill="#f4f7fa" opacity="0.5"/>
            </g>
            <g id="Grupo_141111" data-name="Grupo 141111">
              <path id="Trazado_192240" data-name="Trazado 192240" d="M384.433,408.3c19.232-3.509,23.99-44.808,24.6-50.679,1.51-14.7,3.383-32.923-7.246-48.342C386.415,287,360.249,292.8,354,274.295c-3.838-11.371,5.609-14.863,6.056-36.609.127-6.242.59-28.772-15.167-46.984-11.236-12.99-25.516-17.765-33.066-19.62a72.638,72.638,0,0,1-5.255-27.161c.11-18.465,7.659-25.592,3.737-35.377-4.488-11.219-20.489-17.081-32.67-16.963-32.433.3-50.206,43.1-51.429,46.141-3.146,7.87-13.108,32.788-1.7,50.923,9.009,14.331,24.319,13.226,26.655,25.01,2.328,11.75-12.223,16.331-15.664,34.272-2.935,15.318,3.526,33.589,14.972,43.872,19.114,17.182,42.5,3.458,52.737,17.7,11.911,16.575-12.121,45.845-1.493,55.723,10.088,9.372,36.474-12.611,49.329-1.653,9.3,7.912.675,23.8,13.21,36.524.751.759,10.156,10.063,20.194,8.233Z" transform="translate(-219.169 -91.578)" fill="#12263f"/>
              <path id="Trazado_192241" data-name="Trazado 192241" d="M292.689,103.086c-12.324,2.843-18.026,39.958-11.514,71.741,4.488,21.881,10.881,22.294,27.3,59.333,22.261,50.206,13.986,57.292,30.173,74.829,22.21,24.074,44.985,18.541,57.208,41.7,8.275,15.673,5.879,33.446,2.286,46.5a87.173,87.173,0,0,0,13.707-37.705c1.291-11.489,3.636-32.273-8.317-44.917-14.348-15.175-35.478-4.04-45.322-18.153-5.584-8-.565-14.121.725-41.442,1.3-27.558,1.957-41.333-5.508-53.091-13.3-20.97-37.233-12.425-45.424-30.62-8.486-18.861,13.066-37.3,1.856-56.415-3.619-6.166-11.084-13.159-17.166-11.759Z" transform="translate(-228.446 -93.35)" fill="#f4f7fa" opacity="0.5"/>
            </g>
            <g id="Grupo_141112" data-name="Grupo 141112" transform="translate(73.524 111.462)">
              <path id="Trazado_192242" data-name="Trazado 192242" d="M320.873,435.722c-10.5-1.805-16.305-27.684-14.062-47.76.869-7.769,1.738-15.5,7.389-22.53,9.54-11.877,20.565-6.672,28.95-16.255,12.391-14.146-3.028-35.343,8.9-46.849,8.773-8.461,19.89.329,30.358-8.84,12.138-10.637,4.749-29.093,15.192-33.791,6.065-2.725,10.164,2.784,26.6,1.62,6.428-.456,9.641-.683,12.585-2.455,10.308-6.217,5.323-20.27,13.572-28.891,9.076-9.481,28.747-6.681,40.438-1.442,20.961,9.388,30.392,32.889,30.713,51.573.068,4.007.1,30.08-18.591,43.888-13.6,10.038-31.868,9.743-34.837,9.692-11.548-.194-13.859-3.543-17.959-1.122-11.851,7.01,4.682,36.668-10.46,55.588-6.183,7.727-16.719,12.5-26.056,12.923-15.107.692-21.611-10.223-29.633-6.478-10.384,4.85-4.1,25.263-15.487,31.286-8.056,4.26-14.247-4.353-27.828-.768C328.6,428.3,327.106,436.768,320.89,435.7Z" transform="translate(-306.332 -223.717)" fill="#0f2771"/>
              <path id="Trazado_192243" data-name="Trazado 192243" d="M322.991,418.154c4.791,1.189,7.347-11.826,23.694-28.916,17.857-18.659,27.465-16.347,44.091-33.134,18.979-19.165,10.223-25.964,26.124-40.81,21.552-20.11,39.873-9.7,65.8-33.252,7.777-7.06,18.127-16.735,16.44-28.612-1.459-10.291-11.776-20.894-23.475-20.911-.489,0-10.333.135-16.609,7.7-7.7,9.279-1.08,18.929-8.224,25.964-3.745,3.686-9.574,4.116-21.24,4.968-16.778,1.232-19.578-2.32-24.167.742-10.375,6.925,0,27.659-10.536,36.255-9.043,7.381-22.067-3.509-29.987,3.56-9.566,8.536,5.331,28.03-4.521,42.294-8.486,12.282-24.352,4.8-35.782,17.63-13.5,15.15-8.511,44.8-1.6,46.52Z" transform="translate(-307.861 -225.095)" fill="#f4f7fa" opacity="0.5"/>
            </g>
            <g id="Grupo_141113" data-name="Grupo 141113" transform="translate(131.56 186.256)">
              <path id="Trazado_192244" data-name="Trazado 192244" d="M393,438.816c7.98.557,9.059-14.1,22.994-18.49,15.411-4.859,25.188,9.582,35.926,4.066,12.062-6.2,5.272-27.279,18.819-35.192,9.253-5.407,15.7,2.522,27.339-2.438,12.13-5.171,23.973-21.813,19.317-38.136-3.889-13.614-17.9-22.252-29.177-22.336-9.228-.067-11.843,5.626-19.916,3.948-10.055-2.092-9.81-11.717-20.346-16.052-10.477-4.31-24.808-.582-32.695,7.98-6.554,7.119-7.229,16.018-7.811,23.779-1.569,20.843,7.946,28.874,2.868,36.879-6.335,10-23.7,1.527-31.624,11.43-9.9,12.4,2.834,43.77,14.306,44.572Z" transform="translate(-375.134 -312.385)" fill="#b0c0d2"/>
              <path id="Trazado_192245" data-name="Trazado 192245" d="M390.9,425.539c2.919.582,3.779-8.916,12.956-16.845,10.519-9.093,18.439-4.428,30.206-11.607,14.584-8.9,9.043-20.093,22.024-29.118,18.2-12.653,40.809,1.2,46.925-9.135,3.568-6.031-.439-17.031-6.883-20.624-6.875-3.83-11.742,3.442-23.543,1.721-11.05-1.611-11.666-8.705-25.306-12.265-6.647-1.738-15.377-4.015-20.962.261-10.932,8.376-4.994,38.279-3.188,47.414,1.67,8.4,3.214,11.657,1.029,15.082-5.728,8.958-24.715-.287-33.5,9.388-7.347,8.089-3.534,24.985.236,25.736Z" transform="translate(-376.909 -314.434)" fill="#f4f7fa" opacity="0.5"/>
            </g>
          </g>
          <g id="Grupo_141116" data-name="Grupo 141116" transform="translate(0 145.398)">
            <path id="Trazado_192246" data-name="Trazado 192246" d="M492.281,463.712,101.52,460.38v9.852a5.247,5.247,0,0,0,4.015,5.356L216.028,495a15.6,15.6,0,0,0,3.965.186l268.046-22.126c2.4-.194,4.243-2.48,4.243-5.23v-4.116Z" transform="translate(-97.614 -267.661)" fill="#26264f"/>
            <g id="Grupo_141115" data-name="Grupo 141115">
              <path id="Trazado_192247" data-name="Trazado 192247" d="M349.752,412.162,104.836,430.188a7.422,7.422,0,0,1-7.946-7.659V240.151a8.1,8.1,0,0,1,7.946-8.241H349.752c3.61,0,6.529,3.332,6.529,7.448V404.224c0,4.116-2.919,7.668-6.529,7.929Z" transform="translate(-96.89 -231.91)" fill="#26264f"/>
              <path id="Trazado_192248" data-name="Trazado 192248" d="M354.382,412.162,109.466,430.188a7.422,7.422,0,0,1-7.946-7.659V240.151a8.1,8.1,0,0,1,7.946-8.241H354.382c3.61,0,6.529,3.332,6.529,7.448V404.224c0,4.116-2.919,7.668-6.529,7.929Z" transform="translate(-97.614 -231.91)" fill="#bddcf6"/>
              <path id="Trazado_192249" data-name="Trazado 192249" d="M348.725,402.5,120.611,418.166a6.084,6.084,0,0,1-6.461-6.284V252.2a6.638,6.638,0,0,1,6.461-6.757l228.113-.987c2.978-.017,5.39,2.725,5.39,6.107v145.44C354.115,399.389,351.7,402.3,348.725,402.5Z" transform="translate(-99.591 -233.874)" fill="#4dd0e1"/>
              <path id="Trazado_192250" data-name="Trazado 192250" d="M265.323,237.25a2.832,2.832,0,1,1-2.817-3.07A2.962,2.962,0,0,1,265.323,237.25Z" transform="translate(-122.363 -232.265)" fill="#fff"/>
            </g>
            <path id="Trazado_192251" data-name="Trazado 192251" d="M364.142,444.41,101.52,463.389,216.028,483.5a15.606,15.606,0,0,0,3.965.186L492.281,461.2,368.317,444.537a20.328,20.328,0,0,0-4.175-.127Z" transform="translate(-97.614 -265.153)" fill="#bddcf6"/>
            <path id="Trazado_192252" data-name="Trazado 192252" d="M146.95,464.135,365.591,448.1l67.667,9.026L216.5,474.266Z" transform="translate(-104.723 -265.739)" fill="#26264f"/>
          </g>
          <g id="Grupo_141138" data-name="Grupo 141138" transform="translate(20.101)">
            <g id="Grupo_141123" data-name="Grupo 141123" transform="translate(167.776)">
              <g id="Grupo_141119" data-name="Grupo 141119" transform="translate(0 7.766)">
                <path id="Trazado_192253" data-name="Trazado 192253" d="M498.818,83.352V202.609c0,5.5-3.745,10.055-8.452,10.164l-39.2.962L330.248,216.7a10.183,10.183,0,0,1-10.046-9.152c-.042-.4-.582-.8-.582-1.223V79.252a11.542,11.542,0,0,1,2.1-5.761c.025-.051.321-.084.346-.127a9.291,9.291,0,0,1,8.073-4.445l18.347.489,141.863,3.762c4.707.127,8.477,4.682,8.477,10.181Z" transform="translate(-319.62 -68.773)" fill="#fff"/>
                <path id="Trazado_192254" data-name="Trazado 192254" d="M331.03,213.94c-3.593.084-6.52-3.087-6.52-7.06V79.972c0-3.981,2.927-7.136,6.52-7.052L491.2,76.985c3.2.084,5.795,3.189,5.795,6.934V203.294c0,3.745-2.6,6.849-5.795,6.917L331.03,213.94Z" transform="translate(-320.385 -69.399)" fill="url(#linear-gradient)"/>
                <path id="Trazado_192255" data-name="Trazado 192255" d="M490.629,73.161,330.461,68.909c-5.289-.143-9.591,4.5-9.591,10.358v7.609l178.261,3.61V83.342c0-5.5-3.8-10.063-8.5-10.181Z" transform="translate(-319.816 -68.772)" fill="#d8dee8"/>
                <path id="Trazado_192256" data-name="Trazado 192256" d="M339.944,79.5a3.047,3.047,0,0,1-3.113,3.087,3.234,3.234,0,0,1-3.121-3.239,3.049,3.049,0,0,1,3.121-3.087A3.232,3.232,0,0,1,339.944,79.5Z" transform="translate(-321.825 -69.922)" fill="#fff"/>
                <path id="Trazado_192257" data-name="Trazado 192257" d="M352.861,79.8a3.036,3.036,0,0,1-3.1,3.079,3.214,3.214,0,0,1-3.1-3.222,3.041,3.041,0,0,1,3.1-3.079A3.214,3.214,0,0,1,352.861,79.8Z" transform="translate(-323.853 -69.972)" fill="#fff"/>
                <path id="Trazado_192258" data-name="Trazado 192258" d="M365.689,80.1a3.028,3.028,0,0,1-3.07,3.07,3.2,3.2,0,0,1-3.079-3.214,3.02,3.02,0,0,1,3.079-3.07A3.2,3.2,0,0,1,365.689,80.1Z" transform="translate(-325.867 -70.021)" fill="#fff"/>
                <path id="Trazado_192259" data-name="Trazado 192259" d="M491.278,209.776,334.13,213.049V113.1l157.148,2.143Z" transform="translate(-321.89 -75.687)" fill="#d8dee8"/>
                <g id="Grupo_141117" data-name="Grupo 141117" transform="translate(12.24 27.055)" opacity="0.5">
                  <path id="Trazado_192260" data-name="Trazado 192260" d="M418.153,102.271,334.13,100.82v5.4l84.023,1.3Z" transform="translate(-334.13 -100.82)" fill="#fff"/>
                  <path id="Trazado_192261" data-name="Trazado 192261" d="M509.68,103.85v5.129l9.068.135v-5.1Z" transform="translate(-361.6 -101.294)" fill="#fff"/>
                </g>
                <g id="Grupo_141118" data-name="Grupo 141118" transform="translate(0.987)" opacity="0.5">
                  <path id="Trazado_192262" data-name="Trazado 192262" d="M452.371,213.709l-120.936,2.961a10.215,10.215,0,0,1-10.08-9.152c0-.118-.565-.228-.565-.346v-128c0-2.117,1.113-4.074,2.067-5.711.025-.051.329-.084.363-.127a9.32,9.32,0,0,1,8.14-4.58l18.245.481c.008.042.059.093.076.135.337,1.113.734,2.235,1.139,3.383A72.684,72.684,0,0,0,357.5,86.725c.177.287.363.574.54.852a59.573,59.573,0,0,0,6.773,8.764,55.516,55.516,0,0,0,5.854,5.432,61.876,61.876,0,0,0,7.237,4.985c17.756,10.536,37.7,11.911,50.923,33.032,11.337,18.1,3.214,27.6,14.18,55.293q1.784,4.517,3.83,8.638c1.156,2.353,2.362,4.606,3.619,6.782.624,1.088,1.265,2.151,1.906,3.189Z" transform="translate(-320.79 -68.747)" fill="#fff"/>
                </g>
              </g>
              <g id="Grupo_141121" data-name="Grupo 141121" transform="translate(21.35)" clip-path="url(#clip-path)">
                <g id="Grupo_141120" data-name="Grupo 141120" transform="translate(9.189 25.612)">
                  <path id="Trazado_192263" data-name="Trazado 192263" d="M393.863,205.185c-27.288-4.2-33.361-7.3-36.179-13.091-4.1-8.427-1.113-22.134,5.888-30.569,6.116-7.372,13.733-8.806,13.5-13.91-.186-4.192-5.4-4.757-9.237-12.687-1.122-2.311-3.3-6.816-2.353-12.2,1.383-7.878,8.452-11.927,9.026-12.248,7.356-4.066,11.548.793,17.056-2.86,6.883-4.555,3.762-14.407,10.207-17.115,4.673-1.965,10.637,1.417,12.189,2.3,5.171,2.935,4.622,5.8,8.983,7.642,5.1,2.151,7.533-1.08,13.437.337,4.859,1.164,8.376,4.749,11.236,8.342,6.419,8.064,3.231,12.762,7.963,22.64C462.231,145.64,472.226,144.1,474,155.155c.928,5.778-1.451,8.4.371,17.242,1.232,5.972,2.775,7.035,3.054,10.544.784,10.1-10.62,19.08-12.754,20.666-13.64,10.131-32.661,7.448-70.805,1.577Z" transform="translate(-355.824 -89.904)" fill="#0f2771"/>
                  <path id="Trazado_192264" data-name="Trazado 192264" d="M364.418,256.3c-4.133-10.367-1.611-26.748-1.08-30.2a66.677,66.677,0,0,1,8.722-24.766c12.138-20.27,30.5-20.118,44.276-20.008,6.79.059,13.808-.1,22.362,3.062a58.514,58.514,0,0,1,12.45,6.655c16.972,12.391,30.325,52.948,16.685,68.511-8.722,9.954-17.689-2.429-56.845,4.2-15.841,2.682-32.611,7.069-42.606-1.594a14.724,14.724,0,0,1-3.965-5.879Z" transform="translate(-356.804 -104.207)" fill="#12263f"/>
                  <path id="Trazado_192265" data-name="Trazado 192265" d="M415.333,152.53s2.9,21.721-11.851,26.065a2.408,2.408,0,0,0-.936,4.015l18.186,17.68a2.611,2.611,0,0,0,3.83-.194l16.288-18.971a2.4,2.4,0,0,0-.886-3.779c-5.213-2.008-14.585-7.862-12.619-23.7l-12-1.105Z" transform="translate(-363.021 -99.703)" fill="url(#linear-gradient-2)"/>
                  <path id="Trazado_192266" data-name="Trazado 192266" d="M407.11,134.863c0,.236,3.981,21.5,14.163,21.527,9.582.025,13.21-15.5,14.39-22.733l.38-3.695a7.008,7.008,0,0,1-4.184.084c-.439-.127-3.214-.945-4.243-3.357-1.147-2.682.962-4.783-.236-7.136a5.158,5.158,0,0,0-3.18-2.353c.717,1.105,2.109,3.577,1.316,5.787-.531,1.485-2.008,2.9-5.306,3.737-9.473,2.4-13.184,3.315-13.091,8.132Z" transform="translate(-363.849 -94.175)" fill="url(#linear-gradient-3)"/>
                  <path id="Trazado_192267" data-name="Trazado 192267" d="M408.991,140.668s-5.272-4.682-5.736-1.847c-.962,5.922,3.56,9.22,6.006,7.465S408.991,140.668,408.991,140.668Z" transform="translate(-363.225 -97.416)" fill="url(#linear-gradient-4)"/>
                  <path id="Trazado_192268" data-name="Trazado 192268" d="M443.194,139.169c-.228-1.4-1.62-.979-2.961-.2a2.706,2.706,0,0,1,.017.641,11.805,11.805,0,0,1-1.2,4.192q-.089.519-.2,1.038v.11a4.32,4.32,0,0,1-.54,1.965c2.446.464,5.7-2.632,4.884-7.744Z" transform="translate(-368.731 -97.469)" fill="url(#linear-gradient-5)"/>
                </g>
              </g>
              <g id="Grupo_141122" data-name="Grupo 141122" transform="translate(61.813 126.933)">
                <path id="Trazado_192270" data-name="Trazado 192270" d="M403.748,216.157a5.611,5.611,0,0,1-5.415,5.694,5.454,5.454,0,0,1-5.432-5.567,5.614,5.614,0,0,1,5.432-5.694A5.456,5.456,0,0,1,403.748,216.157Z" transform="translate(-392.9 -210.109)" fill="#fff"/>
                <path id="Trazado_192271" data-name="Trazado 192271" d="M433.609,215.825a5.54,5.54,0,0,1-5.331,5.643,5.39,5.39,0,0,1-5.348-5.525,5.537,5.537,0,0,1,5.348-5.643A5.4,5.4,0,0,1,433.609,215.825Z" transform="translate(-397.599 -210.064)" fill="#fff"/>
                <path id="Trazado_192272" data-name="Trazado 192272" d="M463.017,215.5a5.484,5.484,0,0,1-5.255,5.6,5.339,5.339,0,0,1-5.272-5.483,5.481,5.481,0,0,1,5.272-5.6A5.341,5.341,0,0,1,463.017,215.5Z" transform="translate(-402.225 -210.02)" fill="#fff"/>
              </g>
            </g>
            <g id="Grupo_141129" data-name="Grupo 141129" transform="translate(175.714 180.134)">
              <path id="Trazado_192273" data-name="Trazado 192273" d="M475.475,291.931v98.093c0,4.53-3.07,8.427-6.967,8.705l-32.349,2.311h-.034L337.1,408.126a7.468,7.468,0,0,1-1.9-.118c-.118-.017-.219-.051-.337-.076-.219-.059-.439-.127-.649-.2a6.677,6.677,0,0,1-.633-.262,8.224,8.224,0,0,1-.886-.5c-.186-.127-.371-.261-.548-.4a6.623,6.623,0,0,1-.515-.455,8.232,8.232,0,0,1-2.421-5.095,9.413,9.413,0,0,1-.177-1v-103.8c0-.11.017-.211.017-.321a9.852,9.852,0,0,1,1.383-4.116c.017-.042.1-.076.127-.11a8.134,8.134,0,0,1,4.985-3.771c.245-.059.489-.11.734-.143a5.772,5.772,0,0,1,.768-.042l14.9-.4h.008l32.164-.945,84.352-2.421c.093,0,.177-.008.261,0h.312c.1,0,.2.017.3.025,3.467.4,6.1,3.762,6.1,7.946Z" transform="translate(-329.032 -274.79)" fill="#fff"/>
              <path id="Trazado_192274" data-name="Trazado 192274" d="M337.606,405.861c-2.919.2-5.306-2.261-5.306-5.5v-103.4c0-3.239,2.379-5.947,5.306-6.031l131.488-3.872c2.649-.076,4.8,2.362,4.8,5.441v98.186c0,3.079-2.151,5.736-4.8,5.922L337.606,405.87Z" transform="translate(-329.542 -275.276)" fill="url(#linear-gradient)"/>
              <path id="Trazado_192275" data-name="Trazado 192275" d="M468.631,283.949l-131.488,3.745c-4.3.127-7.8,4.091-7.8,8.865v6.2l146.334-4.943v-5.879c0-4.521-3.155-8.106-7.052-7.988Z" transform="translate(-329.079 -274.789)" fill="#d8dee8"/>
              <path id="Trazado_192276" data-name="Trazado 192276" d="M344.868,296.637a2.657,2.657,0,0,1-2.539,2.657,2.464,2.464,0,0,1-2.539-2.5,2.657,2.657,0,0,1,2.539-2.657A2.469,2.469,0,0,1,344.868,296.637Z" transform="translate(-330.714 -276.384)" fill="#fff"/>
              <path id="Trazado_192277" data-name="Trazado 192277" d="M355.394,296.318a2.646,2.646,0,0,1-2.522,2.649,2.453,2.453,0,0,1-2.522-2.488,2.646,2.646,0,0,1,2.522-2.649A2.453,2.453,0,0,1,355.394,296.318Z" transform="translate(-332.366 -276.335)" fill="#fff"/>
              <path id="Trazado_192278" data-name="Trazado 192278" d="M365.849,295.988a2.63,2.63,0,0,1-2.505,2.64,2.451,2.451,0,0,1-2.514-2.488,2.631,2.631,0,0,1,2.514-2.64A2.444,2.444,0,0,1,365.849,295.988Z" transform="translate(-334.006 -276.284)" fill="#fff"/>
              <path id="Trazado_192279" data-name="Trazado 192279" d="M469.138,396.022,340.13,404.837V323.37l129.008-5.07Z" transform="translate(-330.767 -280.164)" fill="#d8dee8"/>
              <g id="Grupo_141124" data-name="Grupo 141124" transform="translate(9.363 30.088)" opacity="0.5">
                <path id="Trazado_192280" data-name="Trazado 192280" d="M408.835,311.35l-68.7,2.5v4.4l68.7-2.606Z" transform="translate(-340.13 -309.165)" fill="#fff"/>
                <path id="Trazado_192281" data-name="Trazado 192281" d="M484.17,309.03v4.209l7.507-.278v-4.2Z" transform="translate(-362.669 -308.76)" fill="#fff"/>
              </g>
              <g id="Grupo_141125" data-name="Grupo 141125" transform="translate(0 12.383)" opacity="0.5">
                <path id="Trazado_192282" data-name="Trazado 192282" d="M436.157,401.654l-99.063,7.077a7.468,7.468,0,0,1-1.9-.118c-.118-.017-.219-.051-.337-.076-.219-.059-.439-.127-.649-.2a6.686,6.686,0,0,1-.633-.261,8.243,8.243,0,0,1-.886-.5c-.186-.127-.371-.262-.548-.4a6.613,6.613,0,0,1-.515-.456,8.163,8.163,0,0,1-2.438-5.095c0-.093-.16-.194-.16-.287V296.821c0-.11.017-.211.017-.321a9.986,9.986,0,0,1,1.358-4.116c.017-.042.118-.076.135-.11a7.972,7.972,0,0,1,6.546-4.091l14.778-.413v.1h0a17.086,17.086,0,0,1,.97,2.708,55.935,55.935,0,0,0,5.474,11.109c.143.228.3.456.456.675a45.509,45.509,0,0,0,5.533,6.858,40.41,40.41,0,0,0,4.791,4.175A45.994,45.994,0,0,0,375,317.15h0a77.461,77.461,0,0,0,9.127,4.083c11.9,4.563,24,7.474,32.636,20.767,8.241,12.687,3.99,20.506,9.11,37.5.54,1.78,1.173,3.661,1.94,5.652.2.523.4,1.054.624,1.594q1.468,3.631,3.155,6.934,1.43,2.822,2.986,5.424.772,1.291,1.569,2.531v.008Z" transform="translate(-329.03 -287.77)" fill="#fff"/>
              </g>
              <g id="Grupo_141127" data-name="Grupo 141127" transform="translate(16.887)" clip-path="url(#clip-path-2)">
                <g id="Grupo_141126" data-name="Grupo 141126" transform="translate(7.605 25.158)">
                  <path id="Trazado_192283" data-name="Trazado 192283" d="M359.436,436.365c-3.981-10.375,1.636-28.165,5.162-36.271,10.24-23.526,28.891-25.255,44.023-26.672,14.736-1.375,28.832-2.682,39.072,13.986,6.655,10.839,12.754,31,8.688,42.218-4.285,11.826-16.238,3.728-45.027,5.593-32.256,2.083-46.959,14.053-51.919,1.139Z" transform="translate(-358.066 -313.831)" fill="#0f2771"/>
                  <path id="Trazado_192284" data-name="Trazado 192284" d="M428.944,375.224c0,2.843-6.647,6.622-14.88,7.06-8.275.447-15.015-2.632-15.015-5.508s6.74-1.932,15.015-2.362c8.233-.422,14.88-2.041,14.88.8Z" transform="translate(-364.479 -313.971)" fill="#12263f"/>
                  <path id="Trazado_192285" data-name="Trazado 192285" d="M409.207,353.1c-2.286.1,2.978,16.525-5.314,19.241a.977.977,0,0,0-.2,1.771c2.235,1.139,6.4,2.505,13.226,2.143a17.036,17.036,0,0,0,9.3-3.408.958.958,0,0,0-.1-1.62c-2.531-1.232-6.056-5.4-5-18.254l-11.911.127Z" transform="translate(-365.13 -310.748)" fill="url(#linear-gradient-7)"/>
                  <path id="Trazado_192286" data-name="Trazado 192286" d="M402.09,327.891c.034.211.725,15.428,4.083,22.893.962,2.134,5.719,1.653,8.789,1.24,2.666-.354,6.833.464,8-1.51,4.7-7.9,3.906-26.908,3.906-26.908s-2.412-6.242-12.324-5.7c-9.97.548-12.459,10-12.459,10Z" transform="translate(-364.955 -305.255)" fill="url(#linear-gradient-8)"/>
                  <path id="Trazado_192287" data-name="Trazado 192287" d="M403.714,338.838s-2.092-2.438-4.074-2.7-3.264,5.12-.565,8.461,5.8.337,5.8.337l-1.164-6.1Z" transform="translate(-364.242 -308.112)" fill="url(#linear-gradient-9)"/>
                  <path id="Trazado_192288" data-name="Trazado 192288" d="M428.674,337.757s2.067-2.6,4.007-3.011,3.205,4.8.557,8.342a3.754,3.754,0,0,1-5.728.835l1.156-6.166Z" transform="translate(-368.933 -307.892)" fill="url(#linear-gradient-10)"/>
                  <path id="Trazado_192289" data-name="Trazado 192289" d="M402.09,333.522c.261.489.565.945.768.886.844-.262-2.421-8.7.59-11.818,1.552-1.611,3.3-.27,9.641-.81,6.36-.548,7.98-2.193,9.9-1.054,1.746,1.038,3.307,4.133,2.008,13.53l1.08-.3a10.165,10.165,0,0,1,.649-6.234,7.271,7.271,0,0,0,1.173-3.728c-.042-1.021-.363-1.054-.413-1.889-.16-2.455,2.522-3.214,2.649-5.652.1-1.873-1.442-2.244-1.156-4.2.236-1.67,1.442-2.024,1.248-3.214-.2-1.291-1.814-2.193-2.944-2.5-1.156-.3-1.569.093-2.252-.371-1.1-.751-.565-2.176-1.358-2.666-1.409-.877-4.218,2.919-6.04,2.058-1.105-.523-.675-2.21-1.653-2.581-1.889-.717-5.23,4.909-6.571,4.226-.641-.329-.025-1.7-.928-2.657a3.645,3.645,0,0,0-4.783.228c-1.088,1.189-.16,2.531-1.316,4.024-1.038,1.341-2.227.852-3.4,1.94-1.991,1.856-1.3,5.862-1.046,7.3.852,4.926,3.492,5.82,2.9,9.22a7.93,7.93,0,0,0-.253,3.248,6.394,6.394,0,0,0,1.5,3.045Z" transform="translate(-364.255 -302.915)" fill="#feca2e"/>
                </g>
              </g>
              <g id="Grupo_141128" data-name="Grupo 141128" transform="translate(49.211 103.687)">
                <path id="Trazado_192291" data-name="Trazado 192291" d="M396.252,403.163a4.866,4.866,0,0,1-4.437,4.867,4.215,4.215,0,0,1-4.445-4.344,4.861,4.861,0,0,1,4.445-4.867A4.218,4.218,0,0,1,396.252,403.163Z" transform="translate(-387.37 -396.45)" fill="#fff"/>
                <path id="Trazado_192292" data-name="Trazado 192292" d="M420.753,401.727a4.815,4.815,0,0,1-4.378,4.833,4.182,4.182,0,0,1-4.395-4.319,4.817,4.817,0,0,1,4.395-4.833A4.178,4.178,0,0,1,420.753,401.727Z" transform="translate(-391.221 -396.229)" fill="#fff"/>
                <path id="Trazado_192293" data-name="Trazado 192293" d="M444.953,400.312a4.778,4.778,0,0,1-4.327,4.8,4.142,4.142,0,0,1-4.336-4.293,4.766,4.766,0,0,1,4.336-4.8A4.14,4.14,0,0,1,444.953,400.312Z" transform="translate(-395.025 -396.012)" fill="#fff"/>
              </g>
            </g>
            <path id="Trazado_192294" data-name="Trazado 192294" d="M384.139,286.79v46.6c0,6.613-4.757,12.223-10.637,12.526l-35.107,1.814-6.6.337-2.758.143V296.659c0-.11.017-.211.017-.321a9.987,9.987,0,0,1,1.358-4.116c.017-.042.118-.076.135-.11a7.971,7.971,0,0,1,6.546-4.091l14.829-.413a.727.727,0,0,1,.042.1l32.163-.919Z" transform="translate(-153.318 -95.1)" fill="#d8dee8"/>
            <g id="Grupo_141137" data-name="Grupo 141137" transform="translate(0 76.33)">
              <path id="Trazado_192295" data-name="Trazado 192295" d="M346.276,163.68c0-5.787-3.661-10.628-8.5-11.776-.169-.042-.363-.076-.54-.11a9.425,9.425,0,0,0-1.628-.143L234,151.06l-100.252-.59c-.211,0-.422,0-.633.017a11.717,11.717,0,0,0-7.077,2.834c-.034.034-.076.059-.11.093-.278.245-.548.5-.81.768l-.017.017c-.152.16-.3.329-.447.5a13.175,13.175,0,0,0-3.138,8.6v9.253h0V317.732a13.292,13.292,0,0,0,.388,3.205,13.454,13.454,0,0,0,.574,1.763,11.443,11.443,0,0,0,11.261,7.3l153.411-7.946h0l48.46-2.505c5.862-.3,10.637-5.9,10.637-12.518V172.267h0V163.68Z" transform="translate(-120.845 -150.099)" fill="#d8dee8"/>
              <g id="Grupo_141132" data-name="Grupo 141132" transform="translate(0 0.118)">
                <path id="Trazado_192296" data-name="Trazado 192296" d="M346.573,163.583V307.066c0,6.613-4.757,12.223-10.637,12.526l-49.169,2.539L133.66,330.06a12.053,12.053,0,0,1-12.509-10.78c-.059-.489-.43-156.094-.43-156.094a13.647,13.647,0,0,1,2.353-7.069c.034-.059.245-.11.278-.169a12.158,12.158,0,0,1,10.223-5.609l23.332.135,179.012,1.046c5.879.034,10.654,5.424,10.654,12.045Z" transform="translate(-120.72 -150.196)" fill="#fff"/>
                <path id="Trazado_192297" data-name="Trazado 192297" d="M134.516,326.726a8.077,8.077,0,0,1-8.326-8.359v-154.4a8.525,8.525,0,0,1,8.326-8.739l202.268.919c4,.017,7.246,3.695,7.246,8.2V307.992c0,4.5-3.248,8.326-7.246,8.528L134.516,326.726Z" transform="translate(-121.576 -150.962)" fill="url(#linear-gradient)"/>
                <path id="Trazado_192298" data-name="Trazado 192298" d="M336.056,151.541,133.788,150.36c-6.748-.042-12.248,5.711-12.248,12.838v9.262l225.136-.278v-8.6c0-6.613-4.749-12.012-10.628-12.045Z" transform="translate(-120.848 -150.2)" fill="#d8dee8"/>
                <path id="Trazado_192299" data-name="Trazado 192299" d="M145.884,163.015a3.979,3.979,0,1,1-3.973-3.855A3.91,3.91,0,0,1,145.884,163.015Z" transform="translate(-123.413 -151.577)" fill="#fff"/>
                <path id="Trazado_192300" data-name="Trazado 192300" d="M162.347,163.058a3.945,3.945,0,1,1-3.939-3.838A3.882,3.882,0,0,1,162.347,163.058Z" transform="translate(-126 -151.586)" fill="#fff"/>
                <path id="Trazado_192301" data-name="Trazado 192301" d="M178.659,163.091a3.911,3.911,0,1,1-3.906-3.821A3.855,3.855,0,0,1,178.659,163.091Z" transform="translate(-128.563 -151.594)" fill="#fff"/>
                <path id="Trazado_192302" data-name="Trazado 192302" d="M336.934,315.789,138.47,325.254V203.711l198.464-1.721Z" transform="translate(-123.498 -158.279)" fill="#d8dee8"/>
                <g id="Grupo_141130" data-name="Grupo 141130" transform="translate(14.972 31.927)" opacity="0.5">
                  <path id="Trazado_192303" data-name="Trazado 192303" d="M245.083,188.53l-106.613.489v6.563l106.613-.717Z" transform="translate(-138.47 -188.1)" fill="#fff"/>
                  <path id="Trazado_192304" data-name="Trazado 192304" d="M360.29,188.071v6.175l11.354-.076V188.02Z" transform="translate(-173.18 -188.02)" fill="#fff"/>
                </g>
                <g id="Grupo_141131" data-name="Grupo 141131" opacity="0.5">
                  <path id="Trazado_192305" data-name="Trazado 192305" d="M286.767,322.113,133.66,330.042a12.085,12.085,0,0,1-12.543-10.78c0-.143-.4-156.161-.4-156.161a13.736,13.736,0,0,1,2.32-6.993c.034-.059.261-.11.3-.169a12.149,12.149,0,0,1,10.308-5.77l23.214.135c.017.051.059.11.076.16.43,1.341.919,2.7,1.442,4.083a85.511,85.511,0,0,0,8.494,16.8c.228.346.456.683.692,1.021a71.158,71.158,0,0,0,8.6,10.46,67.662,67.662,0,0,0,7.44,6.428,77.009,77.009,0,0,0,9.178,5.854c22.5,12.265,47.693,13.37,64.378,38.524,14.272,21.518,4.049,33.252,17.857,66.343q2.252,5.39,4.816,10.3,2.176,4.188,4.547,8.056,1.177,1.936,2.4,3.779Z" transform="translate(-120.72 -150.17)" fill="#fff"/>
                </g>
              </g>
              <g id="Grupo_141133" data-name="Grupo 141133" transform="translate(76.938 135.11)">
                <path id="Trazado_192306" data-name="Trazado 192306" d="M227.788,320.936a8.478,8.478,0,0,1-7.9,8.528,7.694,7.694,0,0,1-7.954-7.887,8.474,8.474,0,0,1,7.954-8.528,7.692,7.692,0,0,1,7.9,7.887Z" transform="translate(-211.93 -310.648)" fill="#fff"/>
                <path id="Trazado_192307" data-name="Trazado 192307" d="M265.522,319.422a8.351,8.351,0,0,1-7.735,8.435,7.563,7.563,0,0,1-7.777-7.8,8.34,8.34,0,0,1,7.777-8.435,7.571,7.571,0,0,1,7.735,7.811Z" transform="translate(-217.889 -310.424)" fill="#fff"/>
                <path id="Trazado_192308" data-name="Trazado 192308" d="M302.425,317.944a8.212,8.212,0,0,1-7.566,8.334,7.442,7.442,0,0,1-7.609-7.727,8.208,8.208,0,0,1,7.609-8.342,7.448,7.448,0,0,1,7.566,7.727Z" transform="translate(-223.716 -310.204)" fill="#fff"/>
              </g>
              <g id="Grupo_141135" data-name="Grupo 141135" transform="translate(26.807)" clip-path="url(#clip-path-3)">
                <g id="Grupo_141134" data-name="Grupo 141134" transform="translate(6.857 0.665)">
                  <path id="Trazado_192309" data-name="Trazado 192309" d="M245.994,338.884c-53.724,2.817-72.956,10.814-81.737-.548-8.123-10.5-1.392-49.675,8.258-60.852,15.15-17.545,39.2-18.886,71.564-20.464,29.894-1.451,48.055-2.337,62.26,10.156,13.167,11.59,21.527,52.34,13.378,64.108C312.118,342.25,295.762,336.277,245.994,338.884Z" transform="translate(-160.629 -167.31)" fill="#feca2e"/>
                  <path id="Trazado_192310" data-name="Trazado 192310" d="M236.99,257l-6.276,1.729a2.353,2.353,0,0,0-1.383,3.534c4.277,6.537,15.563,22.876,22.589,24.622,7.237,1.8,20.666-19.485,25.112-26.925a2.263,2.263,0,0,0-1.248-3.349l-4.5-1.35a29.448,29.448,0,0,0-11.455-1.08l-16.98,1.721A35.6,35.6,0,0,0,237,257Z" transform="translate(-171.321 -166.968)" fill="#12263f"/>
                  <path id="Trazado_192311" data-name="Trazado 192311" d="M243.736,228.664s3.433,24.589-1.316,27.043l13.471,14.357,13.538-17.638s-5.1-3.762-3.762-24.066l-21.94.3Z" transform="translate(-173.428 -162.952)" fill="#e8e8e8"/>
                  <path id="Trazado_192312" data-name="Trazado 192312" d="M234.282,185.339c-.489.666-6.875,31.894,15.124,34.854,21.721,2.927,22.674-19.848,22.4-29.506s-10.173-13.15-15.867-13.825C250.224,176.186,236.019,182.985,234.282,185.339Z" transform="translate(-171.962 -154.886)" fill="#e8e8e8"/>
                  <path id="Trazado_192313" data-name="Trazado 192313" d="M231.861,207.944s-1.105-5.086-4.892-1.881,2.235,11.59,7.2,11.185l-2.3-9.312Z" transform="translate(-170.823 -159.297)" fill="#e8e8e8"/>
                  <path id="Trazado_192314" data-name="Trazado 192314" d="M277.754,203.706c-.624.43-2.4,12.273-2.4,12.273s3.121.337,5.373-3.931S284.055,199.37,277.754,203.706Z" transform="translate(-178.581 -158.905)" fill="#e8e8e8"/>
                  <path id="Trazado_192315" data-name="Trazado 192315" d="M276.716,173.03c-2.261-3.787-8-1.991-9.675-5.652-1.409-3.079,1.906-5.972.127-8.629-1.485-2.227-5.129-2.185-5.778-2.185-4.935.059-6.065,3.981-9.591,3.88-4.319-.118-4.488-6.04-10.215-8.553-5.576-2.455-13.758-.523-17.081,4.024-2.581,3.543-.388,6.149-3.779,10.7-2.337,3.138-4.4,3.273-5.567,6.352-1.088,2.893-.354,5.643.228,7.684,1.383,4.892,3.965,7.035,7.853,12.214a83.43,83.43,0,0,1,6.571,10.266,115.3,115.3,0,0,1,3.855,12.248c1.232,4.833,1.164,5.82,2.311,7.372,3.973,5.348,12.99,4.673,16.778,4.386,4.327-.321,9.7-.725,12.4-4.53,1.459-2.05,1.274-3.889,1.611-8.8a124.452,124.452,0,0,1,1.864-14.39,45.389,45.389,0,0,1,1.755-6.107c1.561-4.209,3.18-4.884,4.943-9.228,1.409-3.484,3.231-7.971,1.383-11.05Zm-17.883,32.906c-2.674.751-4.471.118-8.106-.051-7.28-.346-9.591,3.1-13.049,1.636-1.442-.607-4.783-2.337-5.491-5.694a26.831,26.831,0,0,1-.228-8.621c.574-4.226,1.24-9.1,4.631-11.261,4.909-3.138,11.151,2.2,15.622-1.282a8.058,8.058,0,0,0,2.7-4.884c.987.337,8.84,3.189,11.725,11.582a19.021,19.021,0,0,1-.11,12.315c-1.62,2.48-4.1,5.255-7.71,6.267Z" transform="translate(-169.074 -150.818)" fill="#12263f"/>
                  <path id="Trazado_192316" data-name="Trazado 192316" d="M249.055,222.325a17.942,17.942,0,0,0,11.759-.472c.489-.194.911.337.5.633a10.955,10.955,0,0,1-6.833,2.37,14.083,14.083,0,0,1-5.837-1.839c-.455-.253-.093-.835.413-.683Z" transform="translate(-174.369 -161.927)" fill="url(#linear-gradient-12)"/>
                </g>
              </g>
              <g id="Grupo_141136" data-name="Grupo 141136" transform="translate(77.941 136.604)">
                <path id="Trazado_192318" data-name="Trazado 192318" d="M226.861,321.14A7.155,7.155,0,0,1,220,328.209a6.554,6.554,0,0,1-6.883-6.571A7.148,7.148,0,0,1,220,314.569,6.552,6.552,0,0,1,226.861,321.14Z" transform="translate(-213.12 -312.38)" fill="#fff"/>
                <path id="Trazado_192319" data-name="Trazado 192319" d="M264.6,319.771a7.055,7.055,0,0,1-6.731,7,6.464,6.464,0,0,1-6.757-6.512,7.053,7.053,0,0,1,6.757-7A6.462,6.462,0,0,1,264.6,319.771Z" transform="translate(-219.065 -312.176)" fill="#fff"/>
                <path id="Trazado_192320" data-name="Trazado 192320" d="M301.652,318.432a6.964,6.964,0,0,1-6.613,6.942,6.376,6.376,0,0,1-6.638-6.453,6.969,6.969,0,0,1,6.638-6.942A6.38,6.38,0,0,1,301.652,318.432Z" transform="translate(-224.9 -311.975)" fill="#fff"/>
              </g>
            </g>
          </g>
          <g id="Grupo_141141" data-name="Grupo 141141" transform="translate(0.363 40.312)">
            <path id="Trazado_192321" data-name="Trazado 192321" d="M183.663,161.147a29.311,29.311,0,0,0,6.748-18.38c0-19.57-20.843-35.436-46.545-35.436S97.32,123.2,97.32,142.766,118.163,178.2,143.865,178.2a57.059,57.059,0,0,0,26.014-6.048c4.909.835,12.526,2.244,16.55,2.995a1.548,1.548,0,0,0,1.729-2.067l-4.488-11.936Z" transform="translate(-97.32 -107.33)" fill="#0f2771"/>
            <g id="Grupo_141140" data-name="Grupo 141140" transform="translate(17.25 20.692)">
              <path id="Trazado_192322" data-name="Trazado 192322" d="M177.93,133.648a1.789,1.789,0,0,1-1.788,1.788H119.558a1.789,1.789,0,0,1-1.788-1.788h0a1.789,1.789,0,0,1,1.788-1.788h56.583a1.789,1.789,0,0,1,1.788,1.788Z" transform="translate(-117.77 -131.86)" fill="#fff"/>
              <g id="Grupo_141139" data-name="Grupo 141139" transform="translate(0 10.73)">
                <path id="Trazado_192323" data-name="Trazado 192323" d="M177.93,146.368a1.789,1.789,0,0,1-1.788,1.788H119.558a1.789,1.789,0,0,1-1.788-1.788h0a1.789,1.789,0,0,1,1.788-1.788h56.583a1.789,1.789,0,0,1,1.788,1.788Z" transform="translate(-117.77 -144.58)" fill="#fff"/>
                <path id="Trazado_192324" data-name="Trazado 192324" d="M151.131,159.078a1.789,1.789,0,0,1-1.788,1.788H119.558a1.789,1.789,0,0,1-1.788-1.788h0a1.789,1.789,0,0,1,1.788-1.788h29.785a1.789,1.789,0,0,1,1.788,1.788Z" transform="translate(-117.77 -146.569)" fill="#fff"/>
              </g>
            </g>
          </g>
        </g>
      </g>
    </g>
  </g>
</svg>
