<svg xmlns="http://www.w3.org/2000/svg" width="56.496" height="48.147" viewBox="0 0 56.496 48.147">
  <g id="Grupo_146539" data-name="Grupo 146539" transform="translate(-1182.752 -9089.854)">
    <g id="_12" data-name="12" transform="translate(1182.752 9089.854)" opacity="0.5">
      <path id="Trazado_200412" data-name="Trazado 200412" d="M95.415,74a5.35,5.35,0,1,1,5.1-5.345A5.236,5.236,0,0,1,95.415,74Zm0-8.859a3.523,3.523,0,1,0,3.275,3.514A3.4,3.4,0,0,0,95.415,65.14Z" transform="translate(-82.721 -63.092)" fill="#4dd0e1"/>
      <path id="Trazado_200413" data-name="Trazado 200413" d="M106.425,191.758a.915.915,0,0,1-.915-.915V175.385a.915.915,0,0,1,1.83,0v15.458A.915.915,0,0,1,106.425,191.758Z" transform="translate(-93.732 -143.612)" fill="#4dd0e1"/>
      <path id="Trazado_200414" data-name="Trazado 200414" d="M115.726,232.38H63.7a.915.915,0,0,1,0-1.83h52.031a.915.915,0,0,1,0,1.83Z" transform="translate(-62.78 -184.233)" fill="#4dd0e1"/>
      <path id="Trazado_200415" data-name="Trazado 200415" d="M170.98,178.582a.9.9,0,0,1-.325-.061.914.914,0,0,1-.532-1.18l7.748-20.469a.915.915,0,0,1,1.712.648l-7.748,20.469a.917.917,0,0,1-.857.593Z" transform="translate(-140.491 -130.435)" fill="#4dd0e1"/>
      <path id="Trazado_200416" data-name="Trazado 200416" d="M206.844,178.581a.919.919,0,0,1-.857-.593L200.01,162.2v15.461a.915.915,0,0,1-1.83,0V157.194a.916.916,0,0,1,1.772-.325l7.748,20.469a.915.915,0,0,1-.532,1.18.9.9,0,0,1-.325.061Z" transform="translate(-160.858 -130.434)" fill="#4dd0e1"/>
      <path id="Trazado_200417" data-name="Trazado 200417" d="M161,114.573a.918.918,0,0,1-.485-1.7l6.626-4.126a.917.917,0,0,1,.959-.006l2.853,1.726,3.465-2.864A.914.914,0,0,1,175,107.4h3.7l2.048-3.881a.916.916,0,0,1,1.621.854l-2.307,4.369a.918.918,0,0,1-.81.488h-3.92L171.62,112.3a.918.918,0,0,1-1.058.077l-2.927-1.772-6.15,3.829a.92.92,0,0,1-.485.138Z" transform="translate(-133.264 -91.863)" fill="#4dd0e1"/>
      <path id="Trazado_200418" data-name="Trazado 200418" d="M86.637,124.376H77.276a.915.915,0,0,1-.915-.915V107.641a3.23,3.23,0,0,1-4.631-2.911v-10.4a5.552,5.552,0,0,1,5.546-5.546h9.2a28.228,28.228,0,0,0,9.573-6.395,3.29,3.29,0,0,1,4.341-.245,3.14,3.14,0,0,1,.83,4.184A20.823,20.823,0,0,1,87.552,95.56v27.9a.915.915,0,0,1-.915.915Zm-8.443-1.833h7.528V94.791a.913.913,0,0,1,.772-.9,18.982,18.982,0,0,0,13.159-8.5,1.323,1.323,0,0,0-.383-1.794,1.456,1.456,0,0,0-1.921.094,29.065,29.065,0,0,1-10.428,6.886.911.911,0,0,1-.284.044H77.276a3.716,3.716,0,0,0-3.713,3.713v10.4a1.4,1.4,0,1,0,2.8,0,.915.915,0,1,1,1.83,0V122.54Z" transform="translate(-69.263 -76.229)" fill="#4dd0e1"/>
      <path id="Trazado_200419" data-name="Trazado 200419" d="M89.455,143.779a.915.915,0,0,1-.915-.915v-7.859a.915.915,0,0,1,1.83,0v7.859A.915.915,0,0,1,89.455,143.779Z" transform="translate(-81.439 -114.362)" fill="#4dd0e1"/>
      <path id="Trazado_200420" data-name="Trazado 200420" d="M168.249,90.2h-2.315a.915.915,0,1,1,0-1.83h1.4V67.644a.915.915,0,0,1,.915-.915h1.715V64.353H137.118v2.376h1.715a.915.915,0,0,1,.915.915v3.151a30.03,30.03,0,0,0,2.346-2.111,3.29,3.29,0,0,1,4.341-.245,3.14,3.14,0,0,1,.83,4.184,20.072,20.072,0,0,1-7.517,7v8.741h19.631a.915.915,0,1,1,0,1.83H138.832a.915.915,0,0,1-.915-.915V79.075a.92.92,0,0,1,.5-.816,18.576,18.576,0,0,0,7.283-6.582,1.323,1.323,0,0,0-.383-1.794,1.456,1.456,0,0,0-1.921.094,32.275,32.275,0,0,1-4.024,3.41.915.915,0,0,1-1.447-.744V68.559h-1.715a.915.915,0,0,1-.915-.915V63.435a.915.915,0,0,1,.915-.915h34.679a.915.915,0,0,1,.915.915v4.209a.915.915,0,0,1-.915.915h-1.715V89.282a.915.915,0,0,1-.915.915Z" transform="translate(-115.303 -62.52)" fill="#4dd0e1"/>
      <path id="Trazado_200421" data-name="Trazado 200421" d="M168.9,79.62H145.735a.915.915,0,1,1,0-1.83H168.9a.915.915,0,1,1,0,1.83Z" transform="translate(-122.206 -73.581)" fill="#4dd0e1"/>
    </g>
  </g>
</svg>
