<svg xmlns="http://www.w3.org/2000/svg" xmlns:xlink="http://www.w3.org/1999/xlink" width="566" height="232" viewBox="0 0 566 232">
  <defs>
    <clipPath id="clip-path">
      <path id="Trazado_196622" data-name="Trazado 196622" d="M166.736,126.052c-6.614,3.728-11.976,13.016-11.976,20.745s5.362,10.893,11.98,7.076,11.98-13.106,11.976-20.745S173.354,122.324,166.736,126.052Z" transform="translate(-154.76 -124.489)" fill="#12263f"/>
    </clipPath>
  </defs>
  <g id="Grupo_146532" data-name="Grupo 146532" transform="translate(-7796.658 -9365)">
    <g id="Grupo_141923" data-name="Grupo 141923" transform="translate(6986.658 8640.879)">
      <rect id="Rectángulo_42499" data-name="Rectángulo 42499" width="521" height="2" transform="translate(855 724.121)" fill="#4dd0e1" opacity="0.2"/>
      <rect id="Rectángulo_42500" data-name="Rectángulo 42500" width="521" height="2" transform="translate(855 954.121)" fill="#4dd0e1" opacity="0.2"/>
      <rect id="Rectángulo_42501" data-name="Rectángulo 42501" width="190" height="232" transform="translate(1186 724.121)" fill="#4dd0e1"/>
      <rect id="_30" data-name="30" width="555" height="214" rx="15" transform="translate(810 733.121)" fill="#fff"/>
    </g>
    <g id="_4" data-name="4" transform="translate(7976.266 9378)">
      <path id="Trazado_196498" data-name="Trazado 196498" d="M372.4,482.878c-10.572,5.039-27.716,5.039-38.292,0s-10.572-13.207,0-18.249,27.716-5.038,38.292,0S382.971,477.839,372.4,482.878Z" transform="translate(-224.605 -281.726)" fill="#ececec"/>
      <path id="Trazado_196499" data-name="Trazado 196499" d="M501.1,417.333c-8.158,3.888-21.382,3.888-29.539,0s-8.158-10.19,0-14.077,21.382-3.888,29.539,0S509.26,413.446,501.1,417.333Z" transform="translate(-309.721 -244.74)" fill="#ececec"/>
      <path id="Trazado_196505" data-name="Trazado 196505" d="M137.468,196.75a2.74,2.74,0,0,1-1.2-2.165V53.713a2.83,2.83,0,0,1,1.275-2.212L226.023.427A2.734,2.734,0,0,1,228.5.381a2.74,2.74,0,0,1,1.2,2.165L139.944,196.707a2.734,2.734,0,0,1-2.473.047Z" transform="translate(-108.539 -0.107)" fill="#e1e1e1"/>
      <g id="Grupo_142116" data-name="Grupo 142116" transform="translate(27.735 31.387)">
        <path id="Trazado_196506" data-name="Trazado 196506" d="M138.671,105.733l35.935-23.509-2.4-1.384-34.656,20.006a2.824,2.824,0,0,0-1.275,2.212v1.291l2.4,1.384Z" transform="translate(-136.28 -80.84)" fill="#0f2771"/>
        <path id="Trazado_196507" data-name="Trazado 196507" d="M138.671,105.733l35.935-23.509-2.4-1.384-34.656,20.006a2.824,2.824,0,0,0-1.275,2.212v1.291l2.4,1.384Z" transform="translate(-136.28 -80.84)" fill="#0f2771" opacity="0.2"/>
      </g>
      <g id="Grupo_142117" data-name="Grupo 142117" transform="translate(27.731 52.349)">
        <path id="Trazado_196508" data-name="Trazado 196508" d="M150.641,142.843l-14-8.083a2.629,2.629,0,0,0-.373,1.26V276.888a2.4,2.4,0,0,0,3.671,2.119l10.7-6.178Z" transform="translate(-136.27 -134.76)" fill="#1a2e35"/>
        <path id="Trazado_196509" data-name="Trazado 196509" d="M150.641,142.843l-14-8.083a2.629,2.629,0,0,0-.373,1.26V276.888a2.4,2.4,0,0,0,3.671,2.119l10.7-6.178Z" transform="translate(-136.27 -134.76)" fill="#1a2e35" opacity="0.4"/>
      </g>
      <g id="Grupo_142118" data-name="Grupo 142118" transform="translate(30.127 1.531)">
        <path id="Trazado_196510" data-name="Trazado 196510" d="M143.709,199.115l88.478-51.077a2.824,2.824,0,0,0,1.275-2.212V4.957c0-.813-.572-1.143-1.279-.739L143.705,55.292A2.824,2.824,0,0,0,142.43,57.5V198.376C142.43,199.189,143,199.519,143.709,199.115Z" transform="translate(-142.43 -4.046)" fill="#bddcf6"/>
        <path id="Trazado_196511" data-name="Trazado 196511" d="M143.709,199.115l88.478-51.077a2.824,2.824,0,0,0,1.275-2.212V4.957c0-.813-.572-1.143-1.279-.739L143.705,55.292A2.824,2.824,0,0,0,142.43,57.5V198.376C142.43,199.189,143,199.519,143.709,199.115Z" transform="translate(-142.43 -4.046)" fill="#bddcf6" opacity="0.1"/>
      </g>
      <path id="Trazado_196512" data-name="Trazado 196512" d="M157.3,205.393l21.246-12.262c1.411-.813,2.555-.237,2.555,1.291a5.479,5.479,0,0,1-2.555,4.242L157.3,210.925c-1.411.813-2.555.237-2.555-1.291A5.479,5.479,0,0,1,157.3,205.393Z" transform="translate(-119.833 -117.863)" fill="#feca2e"/>
      <path id="Trazado_196513" data-name="Trazado 196513" d="M157.3,234.294l14.056-8.114c1.411-.813,2.555-.237,2.555,1.291a5.479,5.479,0,0,1-2.555,4.242L157.3,239.827c-1.411.813-2.555.237-2.555-1.291A5.479,5.479,0,0,1,157.3,234.294Z" transform="translate(-119.833 -138.064)" fill="#feca2e"/>
      <path id="Trazado_196514" data-name="Trazado 196514" d="M155.773,283.236l2.749-1.586c.564-.327,1.023-.062,1.023.591v3.172a2.258,2.258,0,0,1-1.023,1.769l-2.749,1.586c-.564.327-1.023.062-1.023-.591v-3.172A2.258,2.258,0,0,1,155.773,283.236Z" transform="translate(-119.833 -172.108)" fill="#feca2e"/>
      <path id="Trazado_196515" data-name="Trazado 196515" d="M155.773,283.236l2.749-1.586c.564-.327,1.023-.062,1.023.591v3.172a2.258,2.258,0,0,1-1.023,1.769l-2.749,1.586c-.564.327-1.023.062-1.023-.591v-3.172A2.258,2.258,0,0,1,155.773,283.236Z" transform="translate(-119.833 -172.108)" fill="#0f2771"/>
      <g id="Grupo_142119" data-name="Grupo 142119" transform="translate(34.917 120.466)">
        <path id="Trazado_196516" data-name="Trazado 196516" d="M155.773,311.7l2.749-1.586c.564-.327,1.023-.062,1.023.591v3.172a2.258,2.258,0,0,1-1.023,1.769l-2.749,1.586c-.564.327-1.023.062-1.023-.591v-3.172A2.258,2.258,0,0,1,155.773,311.7Z" transform="translate(-154.75 -309.97)" fill="#feca2e"/>
        <path id="Trazado_196517" data-name="Trazado 196517" d="M155.773,311.7l2.749-1.586c.564-.327,1.023-.062,1.023.591v3.172a2.258,2.258,0,0,1-1.023,1.769l-2.749,1.586c-.564.327-1.023.062-1.023-.591v-3.172A2.258,2.258,0,0,1,155.773,311.7Z" transform="translate(-154.75 -309.97)" fill="#0f2771"/>
      </g>
      <g id="Grupo_142120" data-name="Grupo 142120" transform="translate(42.106 109.509)">
        <path id="Trazado_196518" data-name="Trazado 196518" d="M174.515,291.557l16.611-9.587c.7-.408,1.275-.117,1.275.645a2.736,2.736,0,0,1-1.275,2.119l-16.611,9.587c-.7.408-1.275.117-1.275-.645A2.736,2.736,0,0,1,174.515,291.557Z" transform="translate(-173.24 -281.785)" fill="#feca2e"/>
        <path id="Trazado_196519" data-name="Trazado 196519" d="M174.515,291.557l16.611-9.587c.7-.408,1.275-.117,1.275.645a2.736,2.736,0,0,1-1.275,2.119l-16.611,9.587c-.7.408-1.275.117-1.275-.645A2.736,2.736,0,0,1,174.515,291.557Z" transform="translate(-173.24 -281.785)" fill="#0f2771"/>
      </g>
      <path id="Trazado_196520" data-name="Trazado 196520" d="M155.773,340.146l2.749-1.586c.564-.327,1.023-.062,1.023.591v3.172a2.258,2.258,0,0,1-1.023,1.769l-2.749,1.586c-.564.327-1.023.062-1.023-.591v-3.172A2.258,2.258,0,0,1,155.773,340.146Z" transform="translate(-119.833 -206.893)" fill="#e1e1e1"/>
      <path id="Trazado_196521" data-name="Trazado 196521" d="M174.515,320.007l16.611-9.587c.7-.408,1.275-.117,1.275.645a2.736,2.736,0,0,1-1.275,2.119l-16.611,9.587c-.7.408-1.275.117-1.275-.645A2.736,2.736,0,0,1,174.515,320.007Z" transform="translate(-131.134 -189.665)" fill="#f0f0f0"/>
      <path id="Trazado_196522" data-name="Trazado 196522" d="M155.773,368.686l2.749-1.586c.564-.327,1.023-.062,1.023.591v3.172a2.258,2.258,0,0,1-1.023,1.769l-2.749,1.586c-.564.327-1.023.062-1.023-.591v-3.172A2.258,2.258,0,0,1,155.773,368.686Z" transform="translate(-119.833 -224.337)" fill="#e1e1e1"/>
      <path id="Trazado_196523" data-name="Trazado 196523" d="M174.515,348.537l16.611-9.587c.7-.408,1.275-.117,1.275.645a2.736,2.736,0,0,1-1.275,2.119L174.515,351.3c-.7.408-1.275.117-1.275-.645A2.736,2.736,0,0,1,174.515,348.537Z" transform="translate(-131.134 -207.104)" fill="#f0f0f0"/>
      <path id="Trazado_196524" data-name="Trazado 196524" d="M155.773,397.136l2.749-1.586c.564-.327,1.023-.062,1.023.591v3.172a2.258,2.258,0,0,1-1.023,1.769l-2.749,1.586c-.564.327-1.023.062-1.023-.591v-3.172A2.258,2.258,0,0,1,155.773,397.136Z" transform="translate(-119.833 -241.727)" fill="#e1e1e1"/>
      <path id="Trazado_196525" data-name="Trazado 196525" d="M174.515,377l16.611-9.587c.7-.408,1.275-.117,1.275.645a2.736,2.736,0,0,1-1.275,2.119l-16.611,9.587c-.7.408-1.275.117-1.275-.645A2.736,2.736,0,0,1,174.515,377Z" transform="translate(-131.134 -224.499)" fill="#f0f0f0"/>
      <path id="Trazado_196526" data-name="Trazado 196526" d="M156.035,416.833l11.82-6.823c.7-.408,1.275-.117,1.275.645a2.736,2.736,0,0,1-1.275,2.119l-11.82,6.823c-.7.408-1.275.117-1.275-.645A2.736,2.736,0,0,1,156.035,416.833Z" transform="translate(-119.839 -250.538)" fill="#feca2e"/>
      <g id="Grupo_142121" data-name="Grupo 142121" transform="translate(34.921 157.903)">
        <path id="Trazado_196527" data-name="Trazado 196527" d="M156.035,420.189l23.8-13.739c.7-.408,1.275-.117,1.275.645a2.736,2.736,0,0,1-1.275,2.119l-23.8,13.739c-.7.408-1.275.117-1.275-.645A2.736,2.736,0,0,1,156.035,420.189Z" transform="translate(-154.76 -406.265)" fill="#feca2e"/>
        <path id="Trazado_196528" data-name="Trazado 196528" d="M156.035,420.189l23.8-13.739c.7-.408,1.275-.117,1.275.645a2.736,2.736,0,0,1-1.275,2.119l-23.8,13.739c-.7.408-1.275.117-1.275-.645A2.736,2.736,0,0,1,156.035,420.189Z" transform="translate(-154.76 -406.265)" fill="#fff" opacity="0.8"/>
      </g>
      <path id="Trazado_196529" data-name="Trazado 196529" d="M156.035,426.717l16.611-9.587c.7-.408,1.275-.117,1.275.645a2.736,2.736,0,0,1-1.275,2.119l-16.611,9.587c-.7.408-1.275.117-1.275-.645A2.736,2.736,0,0,1,156.035,426.717Z" transform="translate(-119.839 -254.89)" fill="#feca2e"/>
      <path id="Trazado_196530" data-name="Trazado 196530" d="M156.035,445.273l11.82-6.823c.7-.408,1.275-.117,1.275.645a2.736,2.736,0,0,1-1.275,2.119l-11.82,6.823c-.7.408-1.275.117-1.275-.645A2.736,2.736,0,0,1,156.035,445.273Z" transform="translate(-119.839 -267.921)" fill="#feca2e"/>
      <g id="Grupo_142122" data-name="Grupo 142122" transform="translate(42.106 98.444)">
        <path id="Trazado_196531" data-name="Trazado 196531" d="M174.515,263.1l16.611-9.587c.7-.408,1.275-.117,1.275.645a2.736,2.736,0,0,1-1.275,2.119l-16.611,9.587c-.7.408-1.275.117-1.275-.645A2.736,2.736,0,0,1,174.515,263.1Z" transform="translate(-173.24 -253.325)" fill="#feca2e"/>
        <path id="Trazado_196532" data-name="Trazado 196532" d="M174.515,263.1l16.611-9.587c.7-.408,1.275-.117,1.275.645a2.736,2.736,0,0,1-1.275,2.119l-16.611,9.587c-.7.408-1.275.117-1.275-.645A2.736,2.736,0,0,1,174.515,263.1Z" transform="translate(-173.24 -253.325)" fill="#0f2771"/>
      </g>
      <path id="Trazado_196533" data-name="Trazado 196533" d="M156.035,445.273l11.82-6.823c.7-.408,1.275-.117,1.275.645a2.736,2.736,0,0,1-1.275,2.119l-11.82,6.823c-.7.408-1.275.117-1.275-.645A2.736,2.736,0,0,1,156.035,445.273Z" transform="translate(-119.839 -267.921)" fill="#feca2e"/>
      <g id="Grupo_142123" data-name="Grupo 142123" transform="translate(34.921 168.96)">
        <path id="Trazado_196534" data-name="Trazado 196534" d="M156.035,448.629l23.8-13.739c.7-.408,1.275-.117,1.275.645a2.736,2.736,0,0,1-1.275,2.119l-23.8,13.739c-.7.408-1.275.117-1.275-.645A2.736,2.736,0,0,1,156.035,448.629Z" transform="translate(-154.76 -434.705)" fill="#feca2e"/>
        <path id="Trazado_196535" data-name="Trazado 196535" d="M156.035,448.629l23.8-13.739c.7-.408,1.275-.117,1.275.645a2.736,2.736,0,0,1-1.275,2.119l-23.8,13.739c-.7.408-1.275.117-1.275-.645A2.736,2.736,0,0,1,156.035,448.629Z" transform="translate(-154.76 -434.705)" fill="#fff" opacity="0.8"/>
      </g>
      <path id="Trazado_196536" data-name="Trazado 196536" d="M156.035,450.8l21.4-12.355c.7-.408,1.275-.117,1.275.645a2.736,2.736,0,0,1-1.275,2.119l-21.4,12.355c-.7.408-1.275.117-1.275-.645A2.736,2.736,0,0,1,156.035,450.8Z" transform="translate(-119.839 -267.921)" fill="#feca2e"/>
      <g id="Grupo_142124" data-name="Grupo 142124" transform="translate(66.062 1.531)">
        <path id="Trazado_196537" data-name="Trazado 196537" d="M288.668,4.219,234.85,35.286V179.108l53.822-31.071a2.824,2.824,0,0,0,1.275-2.212V4.957C289.947,4.145,289.375,3.814,288.668,4.219Z" transform="translate(-234.85 -4.046)" fill="#ececec"/>
        <path id="Trazado_196538" data-name="Trazado 196538" d="M288.668,4.219,234.85,35.286V179.108l53.822-31.071a2.824,2.824,0,0,0,1.275-2.212V4.957C289.947,4.145,289.375,3.814,288.668,4.219Z" transform="translate(-234.85 -4.046)" fill="#fafafa" opacity="0.6"/>
      </g>
      <path id="Trazado_196539" data-name="Trazado 196539" d="M227.31,52.977l0,11.064-4.794,5.532h4.79V80.635L277.617,51.6V23.94Z" transform="translate(-161.252 -14.675)" fill="#feca2e"/>
      <path id="Trazado_196540" data-name="Trazado 196540" d="M247.808,86.647l39.447-22.77c.354-.2.638-.058.638.323a1.383,1.383,0,0,1-.638,1.061l-39.447,22.77c-.354.2-.638.058-.638-.323a1.383,1.383,0,0,1,.638-1.061Z" transform="translate(-176.318 -39.029)" fill="#feca2e"/>
      <g id="Grupo_142125" data-name="Grupo 142125" transform="translate(70.852 24.756)">
        <path id="Trazado_196541" data-name="Trazado 196541" d="M247.808,86.647l39.447-22.77c.354-.2.638-.058.638.323a1.383,1.383,0,0,1-.638,1.061l-39.447,22.77c-.354.2-.638.058-.638-.323a1.383,1.383,0,0,1,.638-1.061Z" transform="translate(-247.17 -63.785)" fill="#feca2e"/>
        <path id="Trazado_196542" data-name="Trazado 196542" d="M247.808,86.647l39.447-22.77c.354-.2.638-.058.638.323a1.383,1.383,0,0,1-.638,1.061l-39.447,22.77c-.354.2-.638.058-.638-.323a1.383,1.383,0,0,1,.638-1.061Z" transform="translate(-247.17 -63.785)" fill="#fff" opacity="0.6"/>
      </g>
      <g id="Grupo_142127" data-name="Grupo 142127" transform="translate(70.852 28.904)">
        <g id="Grupo_142126" data-name="Grupo 142126">
          <path id="Trazado_196543" data-name="Trazado 196543" d="M247.808,97.317l39.447-22.77c.354-.2.638-.058.638.323a1.383,1.383,0,0,1-.638,1.061L247.808,98.7c-.354.2-.638.058-.638-.323a1.383,1.383,0,0,1,.638-1.061Z" transform="translate(-247.17 -74.455)" fill="#feca2e"/>
          <path id="Trazado_196544" data-name="Trazado 196544" d="M247.808,97.317l39.447-22.77c.354-.2.638-.058.638.323a1.383,1.383,0,0,1-.638,1.061L247.808,98.7c-.354.2-.638.058-.638-.323a1.383,1.383,0,0,1,.638-1.061Z" transform="translate(-247.17 -74.455)" fill="#fff" opacity="0.6"/>
        </g>
        <path id="Trazado_196545" data-name="Trazado 196545" d="M247.808,107.987l39.447-22.77c.354-.2.638-.058.638.323a1.383,1.383,0,0,1-.638,1.061l-39.447,22.77c-.354.2-.638.058-.638-.323a1.383,1.383,0,0,1,.638-1.061Z" transform="translate(-247.17 -80.976)" fill="#fff" opacity="0.6"/>
      </g>
      <g id="Grupo_142128" data-name="Grupo 142128" transform="translate(71.953 65.789)">
        <path id="Trazado_196546" data-name="Trazado 196546" d="M251.023,171.056l2.749-1.586c.564-.327,1.023-.062,1.023.591v3.172A2.258,2.258,0,0,1,253.772,175l-2.749,1.586c-.564.327-1.023.062-1.023-.591v-3.172A2.258,2.258,0,0,1,251.023,171.056Z" transform="translate(-250 -169.33)" fill="#feca2e"/>
        <path id="Trazado_196547" data-name="Trazado 196547" d="M251.023,171.056l2.749-1.586c.564-.327,1.023-.062,1.023.591v3.172A2.258,2.258,0,0,1,253.772,175l-2.749,1.586c-.564.327-1.023.062-1.023-.591v-3.172A2.258,2.258,0,0,1,251.023,171.056Z" transform="translate(-250 -169.33)" fill="#fff" opacity="0.2"/>
      </g>
      <g id="Grupo_142129" data-name="Grupo 142129" transform="translate(79.142 54.828)">
        <path id="Trazado_196548" data-name="Trazado 196548" d="M269.765,150.907l16.611-9.587c.7-.408,1.275-.117,1.275.645a2.736,2.736,0,0,1-1.275,2.119l-16.611,9.587c-.7.408-1.275.117-1.275-.645A2.736,2.736,0,0,1,269.765,150.907Z" transform="translate(-268.49 -141.135)" fill="#feca2e"/>
        <path id="Trazado_196549" data-name="Trazado 196549" d="M269.765,150.907l16.611-9.587c.7-.408,1.275-.117,1.275.645a2.736,2.736,0,0,1-1.275,2.119l-16.611,9.587c-.7.408-1.275.117-1.275-.645A2.736,2.736,0,0,1,269.765,150.907Z" transform="translate(-268.49 -141.135)" fill="#fff" opacity="0.8"/>
      </g>
      <path id="Trazado_196550" data-name="Trazado 196550" d="M250.648,161.125l41.842-24.158c.354-.2.638-.058.638.323a1.383,1.383,0,0,1-.638,1.061l-41.842,24.158c-.354.2-.638.058-.638-.323A1.372,1.372,0,0,1,250.648,161.125Z" transform="translate(-178.053 -83.703)" fill="#feca2e"/>
      <path id="Trazado_196551" data-name="Trazado 196551" d="M250.648,171.795l41.842-24.158c.354-.2.638-.058.638.323a1.383,1.383,0,0,1-.638,1.061l-41.842,24.158c-.354.2-.638.058-.638-.323A1.372,1.372,0,0,1,250.648,171.795Z" transform="translate(-178.053 -90.225)" fill="#feca2e"/>
      <path id="Trazado_196552" data-name="Trazado 196552" d="M250.648,182.465l41.842-24.158c.354-.2.638-.058.638.323a1.383,1.383,0,0,1-.638,1.061l-41.842,24.158c-.354.2-.638.058-.638-.323A1.372,1.372,0,0,1,250.648,182.465Z" transform="translate(-178.053 -96.747)" fill="#feca2e"/>
      <path id="Trazado_196553" data-name="Trazado 196553" d="M250.648,193.165l41.842-24.158c.354-.2.638-.058.638.323a1.383,1.383,0,0,1-.638,1.061l-41.842,24.158c-.354.2-.638.058-.638-.323A1.372,1.372,0,0,1,250.648,193.165Z" transform="translate(-178.053 -103.287)" fill="#feca2e"/>
      <g id="Grupo_142130" data-name="Grupo 142130" transform="translate(71.957 53.171)">
        <path id="Trazado_196554" data-name="Trazado 196554" d="M250.648,161.125l41.842-24.158c.354-.2.638-.058.638.323a1.383,1.383,0,0,1-.638,1.061l-41.842,24.158c-.354.2-.638.058-.638-.323A1.372,1.372,0,0,1,250.648,161.125Z" transform="translate(-250.01 -136.875)" fill="#e1e1e1"/>
        <path id="Trazado_196555" data-name="Trazado 196555" d="M250.648,171.795l41.842-24.158c.354-.2.638-.058.638.323a1.383,1.383,0,0,1-.638,1.061l-41.842,24.158c-.354.2-.638.058-.638-.323A1.372,1.372,0,0,1,250.648,171.795Z" transform="translate(-250.01 -143.396)" fill="#e1e1e1"/>
        <path id="Trazado_196556" data-name="Trazado 196556" d="M250.648,182.465l41.842-24.158c.354-.2.638-.058.638.323a1.383,1.383,0,0,1-.638,1.061l-41.842,24.158c-.354.2-.638.058-.638-.323A1.372,1.372,0,0,1,250.648,182.465Z" transform="translate(-250.01 -149.918)" fill="#e1e1e1"/>
        <path id="Trazado_196557" data-name="Trazado 196557" d="M250.648,193.165l41.842-24.158c.354-.2.638-.058.638.323a1.383,1.383,0,0,1-.638,1.061l-41.842,24.158c-.354.2-.638.058-.638-.323A1.372,1.372,0,0,1,250.648,193.165Z" transform="translate(-250.01 -156.458)" fill="#e1e1e1"/>
        <path id="Trazado_196558" data-name="Trazado 196558" d="M250.648,161.125l41.842-24.158c.354-.2.638-.058.638.323a1.383,1.383,0,0,1-.638,1.061l-41.842,24.158c-.354.2-.638.058-.638-.323A1.372,1.372,0,0,1,250.648,161.125Z" transform="translate(-250.01 -136.875)" fill="#e1e1e1" opacity="0.8"/>
        <path id="Trazado_196559" data-name="Trazado 196559" d="M250.648,171.795l41.842-24.158c.354-.2.638-.058.638.323a1.383,1.383,0,0,1-.638,1.061l-41.842,24.158c-.354.2-.638.058-.638-.323A1.372,1.372,0,0,1,250.648,171.795Z" transform="translate(-250.01 -143.396)" fill="#e1e1e1" opacity="0.8"/>
        <path id="Trazado_196560" data-name="Trazado 196560" d="M250.648,182.465l41.842-24.158c.354-.2.638-.058.638.323a1.383,1.383,0,0,1-.638,1.061l-41.842,24.158c-.354.2-.638.058-.638-.323A1.372,1.372,0,0,1,250.648,182.465Z" transform="translate(-250.01 -149.918)" fill="#e1e1e1" opacity="0.8"/>
        <path id="Trazado_196561" data-name="Trazado 196561" d="M250.648,193.165l41.842-24.158c.354-.2.638-.058.638.323a1.383,1.383,0,0,1-.638,1.061l-41.842,24.158c-.354.2-.638.058-.638-.323A1.372,1.372,0,0,1,250.648,193.165Z" transform="translate(-250.01 -156.458)" fill="#e1e1e1" opacity="0.8"/>
      </g>
      <g id="Grupo_142131" data-name="Grupo 142131" transform="translate(71.957 83.243)">
        <path id="Trazado_196562" data-name="Trazado 196562" d="M250.648,238.475l41.842-24.158c.354-.2.638-.058.638.323a1.383,1.383,0,0,1-.638,1.061l-41.842,24.158c-.354.2-.638.058-.638-.323A1.372,1.372,0,0,1,250.648,238.475Z" transform="translate(-250.01 -214.225)" fill="#e1e1e1"/>
        <path id="Trazado_196563" data-name="Trazado 196563" d="M250.648,249.145l41.842-24.158c.354-.2.638-.058.638.323a1.383,1.383,0,0,1-.638,1.061l-41.842,24.158c-.354.2-.638.058-.638-.323A1.372,1.372,0,0,1,250.648,249.145Z" transform="translate(-250.01 -220.746)" fill="#e1e1e1"/>
        <path id="Trazado_196564" data-name="Trazado 196564" d="M250.648,259.815l41.842-24.158c.354-.2.638-.058.638.323a1.383,1.383,0,0,1-.638,1.061L250.648,261.2c-.354.2-.638.058-.638-.323A1.372,1.372,0,0,1,250.648,259.815Z" transform="translate(-250.01 -227.268)" fill="#e1e1e1"/>
        <path id="Trazado_196565" data-name="Trazado 196565" d="M250.648,270.515l41.842-24.158c.354-.2.638-.058.638.323a1.383,1.383,0,0,1-.638,1.061L250.648,271.9c-.354.2-.638.058-.638-.323A1.372,1.372,0,0,1,250.648,270.515Z" transform="translate(-250.01 -233.808)" fill="#e1e1e1"/>
        <path id="Trazado_196566" data-name="Trazado 196566" d="M250.648,238.475l41.842-24.158c.354-.2.638-.058.638.323a1.383,1.383,0,0,1-.638,1.061l-41.842,24.158c-.354.2-.638.058-.638-.323A1.372,1.372,0,0,1,250.648,238.475Z" transform="translate(-250.01 -214.225)" fill="#e1e1e1" opacity="0.8"/>
        <path id="Trazado_196567" data-name="Trazado 196567" d="M250.648,249.145l41.842-24.158c.354-.2.638-.058.638.323a1.383,1.383,0,0,1-.638,1.061l-41.842,24.158c-.354.2-.638.058-.638-.323A1.372,1.372,0,0,1,250.648,249.145Z" transform="translate(-250.01 -220.746)" fill="#e1e1e1" opacity="0.8"/>
        <path id="Trazado_196568" data-name="Trazado 196568" d="M250.648,259.815l41.842-24.158c.354-.2.638-.058.638.323a1.383,1.383,0,0,1-.638,1.061L250.648,261.2c-.354.2-.638.058-.638-.323A1.372,1.372,0,0,1,250.648,259.815Z" transform="translate(-250.01 -227.268)" fill="#e1e1e1" opacity="0.8"/>
        <path id="Trazado_196569" data-name="Trazado 196569" d="M250.648,270.515l41.842-24.158c.354-.2.638-.058.638.323a1.383,1.383,0,0,1-.638,1.061L250.648,271.9c-.354.2-.638.058-.638-.323A1.372,1.372,0,0,1,250.648,270.515Z" transform="translate(-250.01 -233.808)" fill="#e1e1e1" opacity="0.8"/>
      </g>
      <g id="Grupo_142132" data-name="Grupo 142132" transform="translate(71.957 113.906)">
        <path id="Trazado_196570" data-name="Trazado 196570" d="M250.648,317.345l41.842-24.158c.354-.2.638-.058.638.323a1.383,1.383,0,0,1-.638,1.061l-41.842,24.158c-.354.2-.638.058-.638-.323A1.372,1.372,0,0,1,250.648,317.345Z" transform="translate(-250.01 -293.095)" fill="#e1e1e1"/>
        <path id="Trazado_196571" data-name="Trazado 196571" d="M250.648,328.015l41.842-24.158c.354-.2.638-.058.638.323a1.383,1.383,0,0,1-.638,1.061L250.648,329.4c-.354.2-.638.058-.638-.323A1.372,1.372,0,0,1,250.648,328.015Z" transform="translate(-250.01 -299.616)" fill="#e1e1e1"/>
        <path id="Trazado_196572" data-name="Trazado 196572" d="M250.648,338.685l41.842-24.158c.354-.2.638-.058.638.323a1.383,1.383,0,0,1-.638,1.061l-41.842,24.158c-.354.2-.638.058-.638-.323A1.372,1.372,0,0,1,250.648,338.685Z" transform="translate(-250.01 -306.138)" fill="#e1e1e1"/>
        <path id="Trazado_196573" data-name="Trazado 196573" d="M250.648,349.385l41.842-24.158c.354-.2.638-.058.638.323a1.383,1.383,0,0,1-.638,1.061l-41.842,24.158c-.354.2-.638.058-.638-.323A1.372,1.372,0,0,1,250.648,349.385Z" transform="translate(-250.01 -312.678)" fill="#e1e1e1"/>
        <path id="Trazado_196574" data-name="Trazado 196574" d="M250.648,317.345l41.842-24.158c.354-.2.638-.058.638.323a1.383,1.383,0,0,1-.638,1.061l-41.842,24.158c-.354.2-.638.058-.638-.323A1.372,1.372,0,0,1,250.648,317.345Z" transform="translate(-250.01 -293.095)" fill="#e1e1e1" opacity="0.8"/>
        <path id="Trazado_196575" data-name="Trazado 196575" d="M250.648,328.015l41.842-24.158c.354-.2.638-.058.638.323a1.383,1.383,0,0,1-.638,1.061L250.648,329.4c-.354.2-.638.058-.638-.323A1.372,1.372,0,0,1,250.648,328.015Z" transform="translate(-250.01 -299.616)" fill="#e1e1e1" opacity="0.8"/>
        <path id="Trazado_196576" data-name="Trazado 196576" d="M250.648,338.685l41.842-24.158c.354-.2.638-.058.638.323a1.383,1.383,0,0,1-.638,1.061l-41.842,24.158c-.354.2-.638.058-.638-.323A1.372,1.372,0,0,1,250.648,338.685Z" transform="translate(-250.01 -306.138)" fill="#e1e1e1" opacity="0.8"/>
        <path id="Trazado_196577" data-name="Trazado 196577" d="M250.648,349.385l41.842-24.158c.354-.2.638-.058.638.323a1.383,1.383,0,0,1-.638,1.061l-41.842,24.158c-.354.2-.638.058-.638-.323A1.372,1.372,0,0,1,250.648,349.385Z" transform="translate(-250.01 -312.678)" fill="#e1e1e1" opacity="0.8"/>
      </g>
      <g id="Grupo_142133" data-name="Grupo 142133" transform="translate(71.953 96.211)">
        <path id="Trazado_196578" data-name="Trazado 196578" d="M251.023,249.306l2.749-1.586c.564-.327,1.023-.062,1.023.591v3.172a2.258,2.258,0,0,1-1.023,1.769l-2.749,1.586c-.564.327-1.023.062-1.023-.591v-3.172a2.258,2.258,0,0,1,1.023-1.769Z" transform="translate(-250 -247.58)" fill="#feca2e"/>
        <path id="Trazado_196579" data-name="Trazado 196579" d="M251.023,249.306l2.749-1.586c.564-.327,1.023-.062,1.023.591v3.172a2.258,2.258,0,0,1-1.023,1.769l-2.749,1.586c-.564.327-1.023.062-1.023-.591v-3.172a2.258,2.258,0,0,1,1.023-1.769Z" transform="translate(-250 -247.58)" fill="#fff" opacity="0.2"/>
      </g>
      <g id="Grupo_142134" data-name="Grupo 142134" transform="translate(79.142 85.253)">
        <path id="Trazado_196580" data-name="Trazado 196580" d="M269.765,229.167l16.611-9.587c.7-.408,1.275-.117,1.275.645a2.736,2.736,0,0,1-1.275,2.119l-16.611,9.587c-.7.408-1.275.117-1.275-.645A2.736,2.736,0,0,1,269.765,229.167Z" transform="translate(-268.49 -219.395)" fill="#feca2e"/>
        <path id="Trazado_196581" data-name="Trazado 196581" d="M269.765,229.167l16.611-9.587c.7-.408,1.275-.117,1.275.645a2.736,2.736,0,0,1-1.275,2.119l-16.611,9.587c-.7.408-1.275.117-1.275-.645A2.736,2.736,0,0,1,269.765,229.167Z" transform="translate(-268.49 -219.395)" fill="#fff" opacity="0.8"/>
      </g>
      <g id="Grupo_142135" data-name="Grupo 142135" transform="translate(71.953 126.636)">
        <path id="Trazado_196582" data-name="Trazado 196582" d="M251.023,327.566l2.749-1.586c.564-.327,1.023-.062,1.023.591v3.172a2.258,2.258,0,0,1-1.023,1.769l-2.749,1.586c-.564.327-1.023.062-1.023-.591v-3.172A2.258,2.258,0,0,1,251.023,327.566Z" transform="translate(-250 -325.84)" fill="#feca2e"/>
        <path id="Trazado_196583" data-name="Trazado 196583" d="M251.023,327.566l2.749-1.586c.564-.327,1.023-.062,1.023.591v3.172a2.258,2.258,0,0,1-1.023,1.769l-2.749,1.586c-.564.327-1.023.062-1.023-.591v-3.172A2.258,2.258,0,0,1,251.023,327.566Z" transform="translate(-250 -325.84)" fill="#fff" opacity="0.2"/>
      </g>
      <g id="Grupo_142136" data-name="Grupo 142136" transform="translate(79.142 115.675)">
        <path id="Trazado_196584" data-name="Trazado 196584" d="M269.765,307.417l16.611-9.587c.7-.408,1.275-.117,1.275.645a2.736,2.736,0,0,1-1.275,2.119l-16.611,9.587c-.7.408-1.275.117-1.275-.645A2.736,2.736,0,0,1,269.765,307.417Z" transform="translate(-268.49 -297.645)" fill="#feca2e"/>
        <path id="Trazado_196585" data-name="Trazado 196585" d="M269.765,307.417l16.611-9.587c.7-.408,1.275-.117,1.275.645a2.736,2.736,0,0,1-1.275,2.119l-16.611,9.587c-.7.408-1.275.117-1.275-.645A2.736,2.736,0,0,1,269.765,307.417Z" transform="translate(-268.49 -297.645)" fill="#fff" opacity="0.8"/>
      </g>
      <path id="Trazado_196586" data-name="Trazado 196586" d="M261.083,396.466l2.749-1.586c.564-.327,1.023-.062,1.023.591v3.172a2.258,2.258,0,0,1-1.023,1.769L261.083,402c-.564.327-1.023.062-1.023-.591v-3.172A2.258,2.258,0,0,1,261.083,396.466Z" transform="translate(-184.196 -241.317)" fill="#feca2e"/>
      <path id="Trazado_196587" data-name="Trazado 196587" d="M250.648,416.463l11.338-6.547c.354-.2.638-.058.638.323a1.372,1.372,0,0,1-.638,1.061l-11.338,6.547c-.354.2-.638.058-.638-.323A1.372,1.372,0,0,1,250.648,416.463Z" transform="translate(-178.053 -250.537)" fill="#e1e1e1"/>
      <path id="Trazado_196588" data-name="Trazado 196588" d="M300.313,373.8l2.749-1.586c.564-.327,1.023-.062,1.023.591v3.172a2.258,2.258,0,0,1-1.023,1.769l-2.749,1.586c-.564.327-1.023.062-1.023-.591v-3.172A2.258,2.258,0,0,1,300.313,373.8Z" transform="translate(-208.172 -227.461)" fill="#feca2e"/>
      <path id="Trazado_196589" data-name="Trazado 196589" d="M289.868,393.793l11.338-6.547c.354-.2.638-.058.638.323a1.383,1.383,0,0,1-.638,1.061l-11.338,6.547c-.354.2-.638.058-.638-.323A1.383,1.383,0,0,1,289.868,393.793Z" transform="translate(-202.023 -236.681)" fill="#e1e1e1"/>
      <path id="Trazado_196590" data-name="Trazado 196590" d="M339.533,351.136l2.749-1.586c.564-.327,1.023-.062,1.023.591v3.172a2.258,2.258,0,0,1-1.023,1.769l-2.749,1.586c-.564.327-1.023.062-1.023-.591v-3.172A2.258,2.258,0,0,1,339.533,351.136Z" transform="translate(-232.142 -213.61)" fill="#feca2e"/>
      <path id="Trazado_196591" data-name="Trazado 196591" d="M261.083,396.466l2.749-1.586c.564-.327,1.023-.062,1.023.591v3.172a2.258,2.258,0,0,1-1.023,1.769L261.083,402c-.564.327-1.023.062-1.023-.591v-3.172A2.258,2.258,0,0,1,261.083,396.466Z" transform="translate(-184.196 -241.317)" fill="#fff" opacity="0.2"/>
      <path id="Trazado_196592" data-name="Trazado 196592" d="M300.313,373.8l2.749-1.586c.564-.327,1.023-.062,1.023.591v3.172a2.258,2.258,0,0,1-1.023,1.769l-2.749,1.586c-.564.327-1.023.062-1.023-.591v-3.172A2.258,2.258,0,0,1,300.313,373.8Z" transform="translate(-208.172 -227.461)" fill="#fff" opacity="0.2"/>
      <path id="Trazado_196593" data-name="Trazado 196593" d="M339.533,351.136l2.749-1.586c.564-.327,1.023-.062,1.023.591v3.172a2.258,2.258,0,0,1-1.023,1.769l-2.749,1.586c-.564.327-1.023.062-1.023-.591v-3.172A2.258,2.258,0,0,1,339.533,351.136Z" transform="translate(-232.142 -213.61)" fill="#fff" opacity="0.2"/>
      <path id="Trazado_196594" data-name="Trazado 196594" d="M329.1,371.133l11.338-6.547c.354-.2.638-.058.638.323a1.383,1.383,0,0,1-.638,1.061L329.1,372.517c-.354.2-.638.058-.638-.323A1.383,1.383,0,0,1,329.1,371.133Z" transform="translate(-226 -222.831)" fill="#e1e1e1"/>
      <g id="Grupo_142142" data-name="Grupo 142142" transform="translate(34.921 48.356)">
        <path id="Trazado_196595" data-name="Trazado 196595" d="M166.736,126.052c-6.614,3.728-11.976,13.016-11.976,20.745s5.362,10.893,11.98,7.076,11.98-13.106,11.976-20.745S173.354,122.324,166.736,126.052Z" transform="translate(-154.76 -124.489)" fill="#12263f"/>
        <g id="Grupo_142141" data-name="Grupo 142141" clip-path="url(#clip-path)">
          <path id="Trazado_196596" data-name="Trazado 196596" d="M166.736,126.052c-6.614,3.728-11.976,13.016-11.976,20.745s5.362,10.893,11.98,7.076,11.98-13.106,11.976-20.745S173.354,122.324,166.736,126.052Z" transform="translate(-154.76 -124.489)" fill="#fafafa"/>
          <path id="Trazado_196597" data-name="Trazado 196597" d="M166.736,126.052c-6.614,3.728-11.976,13.016-11.976,20.745s5.362,10.893,11.98,7.076,11.98-13.106,11.976-20.745S173.354,122.324,166.736,126.052Z" transform="translate(-154.76 -124.489)" fill="#12263f"/>
          <path id="Trazado_196598" data-name="Trazado 196598" d="M166.736,126.052c-6.614,3.728-11.976,13.016-11.976,20.745s5.362,10.893,11.98,7.076,11.98-13.106,11.976-20.745S173.354,122.324,166.736,126.052Z" transform="translate(-154.76 -124.489)" fill="#12263f"/>
          <path id="Trazado_196599" data-name="Trazado 196599" d="M183.269,155.273l-9.585,2.57a1.047,1.047,0,0,1-1.365-1.1V140.426a6.542,6.542,0,0,1,4.518-6.053l3.278-.879c2.5-.669,4.518.956,4.518,3.631v16.321A1.974,1.974,0,0,1,183.269,155.273Z" transform="translate(-165.492 -129.901)" fill="#0f2771"/>
          <g id="Grupo_142137" data-name="Grupo 142137" transform="translate(14.74 17.403)">
            <path id="Trazado_196600" data-name="Trazado 196600" d="M196.976,181.844l-1.027-4.451s.012-6.007-.859-6.562a11.287,11.287,0,0,0-1.1-.657c1.1-.377,3.41-.665,4.141,1.446.688,1.991,1.723,6.9,2.212,9.327l-3.367.9Z" transform="translate(-193.477 -169.654)" fill="#f28f8f"/>
            <path id="Trazado_196601" data-name="Trazado 196601" d="M196.088,181.463l-3.418-11.644c1.516-.591,3.457-1.081,4.4.482.848,1.4,2.2,8.751,2.473,10.236l-3.457.925Z" transform="translate(-192.67 -169.253)" fill="#feca2e"/>
            <path id="Trazado_196602" data-name="Trazado 196602" d="M196.088,181.463l-3.418-11.644c1.516-.591,3.457-1.081,4.4.482.848,1.4,2.2,8.751,2.473,10.236l-3.457.925Z" transform="translate(-192.67 -169.253)" fill="#0f2771"/>
          </g>
          <path id="Trazado_196603" data-name="Trazado 196603" d="M197.359,194.207l-3.359.9a7.44,7.44,0,0,1,.941-2.737A5.459,5.459,0,0,1,197.7,190.3a19.8,19.8,0,0,0-.334,3.911Z" transform="translate(-178.742 -164.714)" fill="#feca2e"/>
          <g id="Grupo_142138" data-name="Grupo 142138" transform="translate(15.258 25.586)">
            <path id="Trazado_196604" data-name="Trazado 196604" d="M197.359,194.207l-3.359.9a7.44,7.44,0,0,1,.941-2.737A5.459,5.459,0,0,1,197.7,190.3a19.8,19.8,0,0,0-.334,3.911Z" transform="translate(-194 -190.3)" fill="#feca2e"/>
            <path id="Trazado_196605" data-name="Trazado 196605" d="M197.359,194.207l-3.359.9a7.44,7.44,0,0,1,.941-2.737A5.459,5.459,0,0,1,197.7,190.3a19.8,19.8,0,0,0-.334,3.911Z" transform="translate(-194 -190.3)" fill="#0f2771"/>
          </g>
          <path id="Trazado_196606" data-name="Trazado 196606" d="M183.337,182.406l-9.406,2.519-1.042-3.219s2.753-6.446-.649-8.1c.435-.327,4.059-1.742,4.059-1.742l3.9-1.166c.743-.2,3.744,1.131,4.507,4.086.272,1.05.175,1.983-1.349,7.418a1.123,1.123,0,0,0-.016.2Z" transform="translate(-165.443 -152.722)" fill="#feca2e"/>
          <path id="Trazado_196607" data-name="Trazado 196607" d="M185.641,138.864c.649.237,1.454,1.777,1.376,5.47-.066,3.134-1.011,4.156-1.481,4.5a5.094,5.094,0,0,1-2.271.536v1.87s1.225,1.2,1.147,2.076-1.769,1.532-2.916,1a6.533,6.533,0,0,1-2.111-1.9l.019-4.3A.988.988,0,0,1,178,148.2a1.675,1.675,0,0,1-.408-2.348c.568-.774,1.621-.886,2.026-.109a5.817,5.817,0,0,1,2.535-2.861,7.1,7.1,0,0,0,3.5-4.024Z" transform="translate(-168.52 -133.273)" fill="#ffa8a7"/>
          <path id="Trazado_196608" data-name="Trazado 196608" d="M192.83,152.686a.534.534,0,0,1-.346.517.286.286,0,0,1-.385-.284.534.534,0,0,1,.346-.517A.286.286,0,0,1,192.83,152.686Z" transform="translate(-177.58 -141.54)" fill="#0f2771"/>
          <path id="Trazado_196609" data-name="Trazado 196609" d="M194.2,159.89l.848.062a.594.594,0,0,1-.552.474C194.263,160.411,194.131,160.17,194.2,159.89Z" transform="translate(-178.854 -146.127)" fill="#f28f8f"/>
          <path id="Trazado_196610" data-name="Trazado 196610" d="M200.529,146.929l-.739-.35a.5.5,0,0,1,.614-.3A.466.466,0,0,1,200.529,146.929Z" transform="translate(-182.281 -137.789)" fill="#0f2771"/>
          <path id="Trazado_196611" data-name="Trazado 196611" d="M191.122,150.164l.739-.746c-.136-.19-.408-.179-.614.031a.591.591,0,0,0-.124.719Z" transform="translate(-176.938 -139.643)" fill="#0f2771"/>
          <path id="Trazado_196612" data-name="Trazado 196612" d="M200.1,150.016a.534.534,0,0,1-.346.517.286.286,0,0,1-.385-.284.534.534,0,0,1,.346-.517A.286.286,0,0,1,200.1,150.016Z" transform="translate(-182.023 -139.908)" fill="#0f2771"/>
          <path id="Trazado_196613" data-name="Trazado 196613" d="M196.81,151.1l.058,2.34,1.159-.692Z" transform="translate(-180.46 -140.754)" fill="#f28f8f"/>
          <path id="Trazado_196614" data-name="Trazado 196614" d="M187.707,164.812c-.933.121-2.858.043-3.157-.692a1.509,1.509,0,0,0,.673.859,7.839,7.839,0,0,0,2.485.455Z" transform="translate(-172.967 -148.712)" fill="#f28f8f"/>
          <path id="Trazado_196615" data-name="Trazado 196615" d="M176.04,205.1l-.4-1.407,1.042,1.232Z" transform="translate(-167.521 -172.899)" fill="#feca2e"/>
          <g id="Grupo_142139" data-name="Grupo 142139" transform="translate(5.62 19.148)">
            <path id="Trazado_196616" data-name="Trazado 196616" d="M171.336,187a41.2,41.2,0,0,0-1.726-5.933c-.992-2.718.117-5.066.782-5.583a29.99,29.99,0,0,1,4.059-1.742c1.225,3.5,1.563,8.168,1.59,12l-4.7,1.26Z" transform="translate(-169.214 -173.74)" fill="#feca2e"/>
            <path id="Trazado_196617" data-name="Trazado 196617" d="M171.336,187a41.2,41.2,0,0,0-1.726-5.933c-.992-2.718.117-5.066.782-5.583a29.99,29.99,0,0,1,4.059-1.742c1.225,3.5,1.563,8.168,1.59,12l-4.7,1.26Z" transform="translate(-169.214 -173.74)" fill="#0f2771"/>
          </g>
          <g id="Grupo_142140" data-name="Grupo 142140" transform="translate(2.438 20.885)">
            <path id="Trazado_196618" data-name="Trazado 196618" d="M164.662,190.176l-3.367.9a1.973,1.973,0,0,1-.264-.218s1.594-6.143,2.1-8.184.894-3.441,2.263-4.467c2.457,1.6,1.322,6.038,1.322,6.038l-2.053,5.925Z" transform="translate(-161.03 -178.21)" fill="#feca2e"/>
            <path id="Trazado_196619" data-name="Trazado 196619" d="M164.662,190.176l-3.367.9a1.973,1.973,0,0,1-.264-.218s1.594-6.143,2.1-8.184.894-3.441,2.263-4.467c2.457,1.6,1.322,6.038,1.322,6.038l-2.053,5.925Z" transform="translate(-161.03 -178.21)" fill="#0f2771"/>
          </g>
          <path id="Trazado_196620" data-name="Trazado 196620" d="M166.736,126.052c-6.614,3.728-11.976,13.016-11.976,20.745s5.362,10.893,11.98,7.076,11.98-13.106,11.976-20.745S173.354,122.324,166.736,126.052Z" transform="translate(-154.76 -124.489)" fill="#12263f"/>
          <path id="Trazado_196621" data-name="Trazado 196621" d="M166.736,126.052c-6.614,3.728-11.976,13.016-11.976,20.745s5.362,10.893,11.98,7.076,11.98-13.106,11.976-20.745S173.354,122.324,166.736,126.052Z" transform="translate(-154.76 -124.489)" fill="#12263f"/>
        </g>
      </g>
      <g id="Grupo_142148" data-name="Grupo 142148" transform="translate(129.406 11.602)">
        <g id="Grupo_142146" data-name="Grupo 142146">
          <path id="Trazado_196623" data-name="Trazado 196623" d="M481.011,107.123,476.45,104.5l2.508-.529,2.492,1.742Z" transform="translate(-445.853 -75.193)" fill="#e1e1e1"/>
          <g id="Grupo_142145" data-name="Grupo 142145">
            <g id="Grupo_142143" data-name="Grupo 142143">
              <path id="Trazado_196624" data-name="Trazado 196624" d="M424.935,38.395c-.008-7.091-4.332-10.361-9.655-7.29l-7.866,4.541c-5.323,3.071-9.655,11.348-9.655,18.447,0,.292.008.575.023.848,0,.156.016.292.023.443s.023.276.043.412c.016.159.035.315.058.47a11.331,11.331,0,0,0,.622,2.449,9.231,9.231,0,0,0,.4.836,3,3,0,0,0,.226.4c.023.043.051.082.074.124a3.708,3.708,0,0,0,.455.622c.093.1.187.218.284.315l.3.3c.109.082.21.183.319.264a3.96,3.96,0,0,0,.334.233c.117.066.233.132.354.2a4.518,4.518,0,0,0,1.443.486.272.272,0,0,1,.117.023c.136.012.261.027.393.031a2.622,2.622,0,0,0,.428.012,4.74,4.74,0,0,0,1.124-.124,6.711,6.711,0,0,0,.653-.167v.012A9.166,9.166,0,0,0,407.4,61.4l7.866-4.541a13.2,13.2,0,0,0,1.544-1.05c-.008-.1-.016-.179-.023-.264-.008-.163-.016-.28-.016-.381q-.023-.356-.023-.723c0-6.1,3.636-13.191,8.177-16.049Z" transform="translate(-397.76 -29.951)" fill="#e1e1e1"/>
              <path id="Trazado_196625" data-name="Trazado 196625" d="M463.882,34.418,459.31,31.79c.027.016.463,3.18.463,3.18l3.394.4Z" transform="translate(-435.377 -31.075)" fill="#e1e1e1"/>
              <path id="Trazado_196626" data-name="Trazado 196626" d="M410.117,112.563l-4.227-2.391,2.543-1.092Z" transform="translate(-402.729 -78.317)" fill="#e1e1e1"/>
              <path id="Trazado_196627" data-name="Trazado 196627" d="M419.949,107.29a8.564,8.564,0,0,1-1.614,4.86c-.187.249.1.467.315.358a8.193,8.193,0,0,0,2.512-2.026,12.868,12.868,0,0,0,2.718-5.462l-3.935,2.27Z" transform="translate(-410.298 -75.835)" fill="#e1e1e1"/>
              <path id="Trazado_196628" data-name="Trazado 196628" d="M418.56,117.563l4.573,2.628a8.792,8.792,0,0,0,2.562-6.543l-4.958-.338a5.894,5.894,0,0,1-2.177,4.253Z" transform="translate(-410.472 -80.902)" fill="#e1e1e1"/>
            </g>
            <g id="Grupo_142144" data-name="Grupo 142144" transform="translate(20.258 5.656)">
              <path id="Trazado_196629" data-name="Trazado 196629" d="M449.86,62.612c0,.218.008.432.019.638,0,.117.012.218.019.334s.019.206.031.311c.012.121.023.237.043.354a7.535,7.535,0,0,0,.366,1.536,1.936,1.936,0,0,0,.093.264c.043.117.089.233.144.346a3.5,3.5,0,0,0,.159.319,2.176,2.176,0,0,0,.171.3.487.487,0,0,0,.058.093c.109.163.222.319.342.467a3.176,3.176,0,0,0,.214.237l.225.222a2.333,2.333,0,0,0,.241.2,2.252,2.252,0,0,0,.253.175c.089.051.171.1.264.152a1.742,1.742,0,0,0,.272.128c.093.039.191.074.284.1h.008a3.986,3.986,0,0,0,.525.132c.031.008.058.008.089.016a2.4,2.4,0,0,0,.3.023,1.467,1.467,0,0,0,.323.008,3.76,3.76,0,0,0,.758-.074,4,4,0,0,0,.579-.132,7.048,7.048,0,0,0,1.481-.653l5.906-3.41a9.79,9.79,0,0,0,1.481-1.057V63.63c.163-.136.327-.292.49-.443a10.126,10.126,0,0,0,.844-.883c.109-.121.214-.241.323-.377.1-.117.194-.237.3-.365a.842.842,0,0,1,.089-.117,16.512,16.512,0,0,0,1.085-1.617c.089-.152.175-.3.264-.455s.171-.307.253-.467.159-.319.241-.474l.226-.482c.074-.159.144-.327.214-.486.124-.284.241-.575.342-.859.019-.054.039-.1.058-.159.062-.163.121-.33.171-.494.109-.323.2-.638.3-.968a17.966,17.966,0,0,0,.467-2.379c.019-.136.031-.272.043-.4.012-.117.023-.233.031-.346s.019-.237.019-.354c.012-.218.019-.439.019-.657,0-5.326-3.251-7.787-7.248-5.478l-5.906,3.41c-4,2.305-7.248,8.518-7.248,13.848Z" transform="translate(-449.86 -44.498)" fill="#e1e1e1"/>
              <path id="Trazado_196630" data-name="Trazado 196630" d="M497.925,48.465l-4.53-2.6-1.715,1.2,5.292,3.2Z" transform="translate(-475.419 -45.331)" fill="#e1e1e1"/>
              <path id="Trazado_196631" data-name="Trazado 196631" d="M460.541,106.923,455.98,104.3l3.573-1.069Z" transform="translate(-453.6 -80.397)" fill="#e1e1e1"/>
              <path id="Trazado_196632" data-name="Trazado 196632" d="M476.647,97.764a3.129,3.129,0,0,0,2.527,2.469c.187.035.136.435-.078.575a4.1,4.1,0,0,1-2.636.439,3.3,3.3,0,0,1-2.831-1.742l3.021-1.746Z" transform="translate(-464.388 -77.053)" fill="#feca2e"/>
            </g>
          </g>
        </g>
        <g id="Grupo_142147" data-name="Grupo 142147" transform="translate(4.557 2.638)">
          <path id="Trazado_196633" data-name="Trazado 196633" d="M427,37.88l-7.874,4.541c-5.323,3.071-9.651,11.348-9.651,18.443,0,.292,0,.579.023.851,0,.159.016.292.023.443s.027.276.047.412c.016.159.035.319.054.474a11.559,11.559,0,0,0,.626,2.449c.124.3.253.575.393.84a2.4,2.4,0,0,0,.225.393c.027.047.051.086.078.124a3.888,3.888,0,0,0,.451.626c.1.1.187.218.288.315l.3.3c.1.078.21.179.315.264a3.978,3.978,0,0,0,.338.229c.117.062.237.128.354.2a4.4,4.4,0,0,0,1.443.49.186.186,0,0,1,.117.023c.136.012.264.027.393.027a3.982,3.982,0,0,0,.428.012,5.129,5.129,0,0,0,1.124-.124c.218-.051.439-.1.657-.167v.012a9.142,9.142,0,0,0,1.971-.867h0a8.572,8.572,0,0,1-1.614,4.86c-.187.249.1.467.315.358a8.194,8.194,0,0,0,2.512-2.026,12.869,12.869,0,0,0,2.718-5.462l-.564.327,4.5-2.6a12.461,12.461,0,0,0,1.256-.828c-.035-.152-.054-.3-.078-.455-.016-.1-.035-.249-.047-.4a3.53,3.53,0,0,1-.039-.393v-.074a1.94,1.94,0,0,1-.023-.3c-.012-.218-.016-.455-.016-.692,0-5.972,3.55-12.693,8.092-15.31l.5-.292c-.113-6.9-4.394-10.042-9.647-7.01Z" transform="translate(-409.48 -36.736)" fill="#f0f0f0"/>
          <path id="Trazado_196634" data-name="Trazado 196634" d="M474.754,52.12l-5.906,3.41c-4,2.305-7.248,8.518-7.248,13.848,0,.218.008.432.019.638,0,.117.012.218.019.334s.019.206.031.311c.012.121.023.237.043.354a7.535,7.535,0,0,0,.366,1.536,1.927,1.927,0,0,0,.093.264c.043.117.089.233.144.346a3.479,3.479,0,0,0,.159.319,2.173,2.173,0,0,0,.171.3.487.487,0,0,0,.058.093c.109.163.222.319.342.467a3.188,3.188,0,0,0,.214.237l.226.222a2.33,2.33,0,0,0,.241.2,2.248,2.248,0,0,0,.253.175c.089.051.171.1.264.152a1.741,1.741,0,0,0,.272.128c.093.039.19.074.284.1h.008a3.988,3.988,0,0,0,.525.132c.031.008.058.008.089.016a2.4,2.4,0,0,0,.3.023,1.469,1.469,0,0,0,.323.008,3.759,3.759,0,0,0,.758-.074,4,4,0,0,0,.579-.132,7.047,7.047,0,0,0,1.481-.653l1.987-1.147a3.3,3.3,0,0,0,2.831,1.742,4.062,4.062,0,0,0,2.636-.439c.214-.14.264-.54.078-.575a3.129,3.129,0,0,1-2.527-2.469l.9-.517a9.791,9.791,0,0,0,1.481-1.057V70.4c.163-.136.327-.292.49-.443a10.131,10.131,0,0,0,.844-.883c.109-.121.214-.241.323-.377.1-.117.194-.237.3-.365a.847.847,0,0,1,.089-.117,16.513,16.513,0,0,0,1.085-1.617c.089-.152.175-.3.264-.455s.171-.307.253-.467.156-.319.241-.474l.226-.482c.078-.159.144-.327.214-.486.124-.284.241-.575.342-.859.019-.054.039-.1.058-.159.062-.163.121-.33.171-.494.109-.323.2-.638.3-.968a17.976,17.976,0,0,0,.467-2.379c.019-.136.031-.272.043-.4.012-.117.023-.233.031-.346s.019-.237.019-.354c.012-.218.019-.439.019-.657,0-5.326-3.251-7.787-7.248-5.478Z" transform="translate(-441.334 -45.618)" fill="#f0f0f0"/>
        </g>
      </g>
      <g id="Grupo_142149" data-name="Grupo 142149" transform="translate(108.865 77.098)">
        <path id="Trazado_196635" data-name="Trazado 196635" d="M356.071,253.847c-2.232-.7-4.522,1.108-6.019,4.755a142.847,142.847,0,0,0-5.105,15.38c-.463,2.473,10.078,7.849,9.783,7.706S356.071,253.847,356.071,253.847Z" transform="translate(-344.932 -232.207)" fill="#1a2e35"/>
        <path id="Trazado_196636" data-name="Trazado 196636" d="M360.216,465.907c-.315.121-.393.719-.443,1.909-.035.9-.229,2.476.828,2.791a3.3,3.3,0,0,0,3.282-.7c.844-1.061,1.415-1.994,2.621-3.289a9.149,9.149,0,0,0,2.6-3.748c.381-1.423.062-2.041-.906-2.453-1.334-.568-3.433,1.291-4.479,1.582C362.817,462.257,360.531,465.787,360.216,465.907Z" transform="translate(-353.98 -358.496)" fill="#1a2e35"/>
        <path id="Trazado_196637" data-name="Trazado 196637" d="M360.97,471.029v1.462a3.58,3.58,0,0,0,3.7.1c.062-.14.385-2.092.385-2.092Z" transform="translate(-354.734 -364.721)" fill="#ffa8a7"/>
        <path id="Trazado_196638" data-name="Trazado 196638" d="M390.006,496.39a24.444,24.444,0,0,0-.645,2.387,6.447,6.447,0,0,0-.128,3.029c.311.665,1.52,1.1,3.391,1.081a11.1,11.1,0,0,1,4.4,1.536,11.659,11.659,0,0,0,5.533.879c1.668-.194,3.394-1.162,3.663-1.854s-.089-1.407-4.017-3.079c-.035-.016-5.463-1.781-7.361-3.876l-4.837-.1Z" transform="translate(-371.919 -380.546)" fill="#1a2e35"/>
        <path id="Trazado_196639" data-name="Trazado 196639" d="M391.444,492.32s0,1.085,0,1.707.727,1.543,2.625,1.477c1.334-.047,2.263-.4,2.209-1.5v-1.582l-4.837-.1Z" transform="translate(-373.356 -378.058)" fill="#ffa8a7"/>
        <path id="Trazado_196640" data-name="Trazado 196640" d="M358.266,361.311a39.706,39.706,0,0,1,1.726-7.62s-.521-6.574-.774-12.81c-.272-6.734.016-15.2-.113-16.877,0,0,21.732-4.4,22.12,3.386s-.859,27.6-1.116,31.016-.848,6.442-1.555,11.986c-.7,5.47-2.652,18.389-2.652,18.389a5.142,5.142,0,0,1-4.837-.1s-1.528-15.563-1.369-19.509a33.606,33.606,0,0,1,1.5-8.611s-.412-6.419-.778-12-.75-8.265-.832-10.691l-.467-.233s-.478,9.63-.735,13.051-.8,6.7-1.789,13.051c-.859,5.509-3.414,17.168-3.414,17.168-2.481,1.341-3.962-.175-3.962-.175s-1.621-14.637-.953-19.419Z" transform="translate(-352.982 -274.423)" fill="#bddcf6"/>
        <path id="Trazado_196641" data-name="Trazado 196641" d="M375.209,353.841A45.318,45.318,0,0,1,367.3,348.9a17.418,17.418,0,0,0,5.665,4.98s1.143,11.963,1.139,11.725l.661-11.788.447.019Z" transform="translate(-358.603 -290.396)" fill="#0f2771"/>
        <path id="Trazado_196642" data-name="Trazado 196642" d="M387.639,245.521l-1.287,7.076-6.392-.467,1.341-8.02Z" transform="translate(-366.34 -226.346)" fill="#ffa8a7"/>
        <path id="Trazado_196643" data-name="Trazado 196643" d="M361.339,257.706c.634-1.924,3.076-4.02,5.517-3.565a72.273,72.273,0,0,1,10.7,2.671c2.236.8,4.273,2.733,4.46,10.089l1.135,21.915-2.706.583-.945-4.965-.439,4.965c-2.831.711-7.742.124-10.969-.583-6.723-1.47-7.532-4.257-7.532-4.257s-.086-12.332.117-17.658c.171-4.525.229-7.873.665-9.195Z" transform="translate(-354.473 -232.439)" fill="#0f2771"/>
        <path id="Trazado_196644" data-name="Trazado 196644" d="M411.88,226.17s1.548,2.294,1.349,2.539a3.665,3.665,0,0,1-1.163.513Z" transform="translate(-385.849 -215.38)" fill="#ffa8a7"/>
        <path id="Trazado_196645" data-name="Trazado 196645" d="M383.745,206.581c1.489.75,4.067,2.142,4.779,7.6.731,5.6-.229,7.406-.988,8.149-.513.5-3.293.533-4.685.113-1.742-.525-5.677-2.018-7.469-4.895-2.107-3.386-2.582-7.919-.2-9.723A8.958,8.958,0,0,1,383.745,206.581Z" transform="translate(-362.446 -203.054)" fill="#ffa8a7"/>
        <path id="Trazado_196646" data-name="Trazado 196646" d="M384.668,203.818c-.49,1.345-1.314,4.63-4.748,6.007,0,0-.49-2.1-2.251-1.874s-2.065,2.473-.98,3.864,2.135.894,2.135.894.237,3.005-1.769,4.37a5.616,5.616,0,0,1-4.989.354c-1.155-.529-2.788-3.3-3.748-5.567-2.03-4.8-2.317-8.65.747-9.867a3.623,3.623,0,0,1,3.336-3.41c4.254-.879,7.469,1.917,11.039,1.423,1.862-.257,1.792,2.267,1.233,3.8Z" transform="translate(-358.283 -198.417)" fill="#0f2771"/>
        <path id="Trazado_196647" data-name="Trazado 196647" d="M369.326,206.7l-2.006-1.244a1.18,1.18,0,0,1,2.006,1.244Z" transform="translate(-358.615 -202.378)" fill="#0f2771"/>
        <path id="Trazado_196648" data-name="Trazado 196648" d="M385.9,251.4l.727,2.115s-.533.945-2.819.991-4.709-.676-5.471-1.648a1.719,1.719,0,0,1-.428-1.423s.906-2.006,1.765-1.917l-.144.867s.194.715,2.267,1.267c3.219.855,4.1-.257,4.1-.257Z" transform="translate(-365.073 -229.648)" fill="#bddcf6"/>
        <path id="Trazado_196649" data-name="Trazado 196649" d="M445.66,279.114c.922-1.054,1.275-3.4,2.5-5,1.2-1.563,1.676-2.78,2.162-2.076.642.925-.8,2.78-.486,2.966a9.652,9.652,0,0,1,1.649,3.989c.121,1.357-3.476,4.77-3.476,4.77Z" transform="translate(-406.494 -243.292)" fill="#ffa8a7"/>
        <path id="Trazado_196650" data-name="Trazado 196650" d="M398.5,254.358a.819.819,0,0,1,.727.42,19.233,19.233,0,0,1,.968,2.014l-.968-.315-.727-2.115Z" transform="translate(-377.671 -232.608)" fill="#bddcf6"/>
        <path id="Trazado_196651" data-name="Trazado 196651" d="M456.16,279.191s4.347-.377,4.981-.012.443,2.259,0,3.413-2.66,1.9-4.716,3.3C456.421,285.691,456.16,279.191,456.16,279.191Z" transform="translate(-412.911 -247.684)" fill="#ffa8a7"/>
        <path id="Trazado_196652" data-name="Trazado 196652" d="M400.063,260.614c1.87.649,3.5,1.4,5.245,4.677,2.24,4.21,6.505,10.948,6.505,10.948l4.888-4.311s.739-.715,2.111,1.555a4.706,4.706,0,0,1,.5,4.187s-5.638,6.621-6.723,7.628-2.866.225-4.028-1.361-8.5-10.757-8.5-10.757-4.009-5.268,0-12.569Z" transform="translate(-377.535 -236.431)" fill="#0f2771"/>
      </g>
      <g id="Grupo_142152" data-name="Grupo 142152" transform="translate(150.385 59.631)">
        <path id="Trazado_196653" data-name="Trazado 196653" d="M1.979,0H15.9a1.984,1.984,0,0,1,1.983,1.983V24.1a6.564,6.564,0,0,1-6.563,6.563H6.563A6.564,6.564,0,0,1,0,24.1V1.983A1.984,1.984,0,0,1,1.983,0Z" transform="translate(33.414 30.666) rotate(180)" fill="#0f2771"/>
        <path id="Trazado_196654" data-name="Trazado 196654" d="M470.884,207.464c-1.353,3.985-3.616,15.43-3.616,15.43s-4.744,5.769-6.256,7.165c-.844.778-2.741,2.173-2.741,2.173l3.449,2.539a76.992,76.992,0,0,0,8.753-7.877,5.01,5.01,0,0,0,1.225-2.282l2.36-10.12s-.016-8.137,1.248-9.206S476.9,204,476.9,204c-1.594-.113-4.954.338-6.019,3.468Z" transform="translate(-455.721 -184.351)" fill="#f28f8f"/>
        <path id="Trazado_196655" data-name="Trazado 196655" d="M492.279,203.571c-2.2-.253-5.02-.206-6.4,2.255s-3.663,15.147-3.663,15.147a8.3,8.3,0,0,0,4.5,1.652l5.556-19.054Z" transform="translate(-470.358 -184.039)" fill="#feca2e"/>
        <g id="Grupo_142150" data-name="Grupo 142150" transform="translate(14.331 31.37)">
          <path id="Trazado_196656" data-name="Trazado 196656" d="M490.044,234.184a22.8,22.8,0,0,1,.459,5.769,32.265,32.265,0,0,1-1.932,6.99s1.373,1.512,5.249.906c3.153-.494,2.041-10.011.226-11.858a5.99,5.99,0,0,0-4-1.812Z" transform="translate(-488.57 -234.18)" fill="#feca2e"/>
          <path id="Trazado_196657" data-name="Trazado 196657" d="M490.044,234.184a22.8,22.8,0,0,1,.459,5.769,32.265,32.265,0,0,1-1.932,6.99s1.373,1.512,5.249.906c3.153-.494,2.041-10.011.226-11.858a5.99,5.99,0,0,0-4-1.812Z" transform="translate(-488.57 -234.18)" fill="#0f2771"/>
        </g>
        <path id="Trazado_196658" data-name="Trazado 196658" d="M500.538,405.428a2.108,2.108,0,0,1-.315,1.236,15.3,15.3,0,0,1-2.045,2.679c-1.093,1.174-2.726,2.562-3.9,3.584-.653.568-.677,1.427.257,1.73a7,7,0,0,0,5.125-.715c1.163-.626,2.819-3.511,3.787-3.946a5.069,5.069,0,0,0,2.111-1.267,1.8,1.8,0,0,0,.226-2.235c-.525-.976-1.31-2.48-1.637-2.313l.1.311c-.257.8-2.426,1.722-3.538,1.5l-.179-.564Z" transform="translate(-477.443 -306.71)" fill="#0f2771"/>
        <path id="Trazado_196659" data-name="Trazado 196659" d="M509.072,290.132c.505-5.322,1.944-13.844.467-20.162L489.961,271c-.544,6.236-1.166,25.69-.5,27.918.789,2.628,7.85,20.83,8.235,24.493a3,3,0,0,1-.311,1.225,15.646,15.646,0,0,1-2.045,2.679c-.533.572-1.19,1.19-1.866,1.792a.55.55,0,0,0-.1.284c0,.61,1.481.77,2.352.517a5.472,5.472,0,0,0,2.683-2.06c.5-.669,1.625-1.948,2.337-2.908a5.079,5.079,0,0,0,.622-.964,1.962,1.962,0,0,0,.089-1.38l-.047-.144a15.417,15.417,0,0,1-.708-3.682c-.276-4.012-.96-13.292-1.6-15.761a21.751,21.751,0,0,0-2-5.167l2.236-17.386s.241,15.325.933,19.237c.552,3.134.766,7.052,1.4,12.417.61,5.14,1.275,14.2,1.275,14.2a.155.155,0,0,0,.051.027v4.28h3.725v-2.511a21.01,21.01,0,0,1,.276-3.386c.564-3.417,1.816-11.243,2.072-13.887a30.813,30.813,0,0,0-1.112-9.478s.61-6.053,1.1-11.236Z" transform="translate(-474.608 -224.686)" fill="#ffa8a7"/>
        <g id="Grupo_142151" data-name="Grupo 142151" transform="translate(13.079 19.551)">
          <path id="Trazado_196660" data-name="Trazado 196660" d="M499.834,203.943s5.269.606,5.9.89c-4.942,3.476-.941,11.212-.941,11.212l-1.894,5.933c2.107,2.7,3.927,4.3,5.051,7.258,1.256,3.3,2.376,8.211,2.069,18.257-4.724,3.55-19.072,3.157-24.667,0,0,0,.945-8.883,2.061-15.788.735-4.556,2.481-9.521,2.181-11.189-2.212-6.815-2.352-8.044-1.96-9.564,1.1-4.277,5.467-7.173,6.544-7.173l5.661.167Z" transform="translate(-485.35 -203.78)" fill="#feca2e"/>
          <path id="Trazado_196661" data-name="Trazado 196661" d="M499.834,203.943s5.269.606,5.9.89c-4.942,3.476-.941,11.212-.941,11.212l-1.894,5.933c2.107,2.7,3.927,4.3,5.051,7.258,1.256,3.3,2.376,8.211,2.069,18.257-4.724,3.55-19.072,3.157-24.667,0,0,0,.945-8.883,2.061-15.788.735-4.556,2.481-9.521,2.181-11.189-2.212-6.815-2.352-8.044-1.96-9.564,1.1-4.277,5.467-7.173,6.544-7.173l5.661.167Z" transform="translate(-485.35 -203.78)" fill="#fff" opacity="0.6"/>
        </g>
        <path id="Trazado_196662" data-name="Trazado 196662" d="M515.494,420.437V419.9a10.318,10.318,0,0,1-2.66,4.661c-1.174,1.073-2.776,2.309-3.185,3.5-.424,1.24,1.894,1.734,3.41,1.582a6.13,6.13,0,0,0,3.822-2,12.856,12.856,0,0,0,1.4-2.473c.451-.61,1.489-1.291,1.734-2a4.5,4.5,0,0,0-.214-1.956c-.171-.657-.362-1.384-.583-1.322v.4a2.945,2.945,0,0,1-1.862.63c-.544.019-1.866-.086-1.862-.5Z" transform="translate(-487.092 -316.327)" fill="#0f2771"/>
        <path id="Trazado_196663" data-name="Trazado 196663" d="M522.347,420.314a2.959,2.959,0,0,1-1.862.63c-.544.019-1.866-.086-1.862-.5v-.533a10.3,10.3,0,0,1-2.663,4.661c-.28.257-.587.521-.894.8-.626.7-.447,1.3,1.019,1.431s2.761-.758,3.873-2.127a24.205,24.205,0,0,0,2.387-4.354Z" transform="translate(-490.224 -316.333)" fill="#ffa8a7"/>
        <path id="Trazado_196664" data-name="Trazado 196664" d="M496.057,162.79c-.945.56-2.111,2.935-2,7.915.1,4.222,1.466,5.264,2.154,5.563a7.294,7.294,0,0,0,3.3-.1v2.535s-1.781,2.068-1.668,3.231,2.57,1.435,4.238.3a13.481,13.481,0,0,0,3.068-3.347l-.027-5.824s.758.735,2.045-.389c1.061-.929,1.419-2.492.591-3.332a1.85,1.85,0,0,0-2.943.587,5.618,5.618,0,0,0-3.682-2.959c-2.683-.875-4.137-1.886-5.078-4.183Z" transform="translate(-477.589 -159.174)" fill="#ffa8a7"/>
        <path id="Trazado_196665" data-name="Trazado 196665" d="M506.189,179.594a.53.53,0,1,0,.556-.525A.538.538,0,0,0,506.189,179.594Z" transform="translate(-485.007 -169.124)" fill="#0f2771"/>
        <path id="Trazado_196666" data-name="Trazado 196666" d="M503.893,189.63l-1.233.393a.635.635,0,0,0,.8.443A.678.678,0,0,0,503.893,189.63Z" transform="translate(-482.851 -175.58)" fill="#f28f8f"/>
        <path id="Trazado_196667" data-name="Trazado 196667" d="M494.834,174.6l1.073-.743a.625.625,0,0,0-.89-.183.691.691,0,0,0-.183.929Z" transform="translate(-478.003 -165.756)" fill="#0f2771"/>
        <path id="Trazado_196668" data-name="Trazado 196668" d="M508.473,175.607l-1.073-.743a.625.625,0,0,1,.89-.183.691.691,0,0,1,.183.929Z" transform="translate(-485.748 -166.373)" fill="#0f2771"/>
        <path id="Trazado_196669" data-name="Trazado 196669" d="M495.629,178.614a.53.53,0,1,0,.556-.525A.538.538,0,0,0,495.629,178.614Z" transform="translate(-478.553 -168.525)" fill="#0f2771"/>
        <path id="Trazado_196670" data-name="Trazado 196670" d="M499.3,178.65l-.082,3.2-1.684-.521Z" transform="translate(-479.715 -168.868)" fill="#f28f8f"/>
        <path id="Trazado_196671" data-name="Trazado 196671" d="M508.084,193.934c1.357-.179,4.153-.98,4.584-2.084a2.849,2.849,0,0,1-.98,1.407,14.721,14.721,0,0,1-3.608,1.52v-.844Z" transform="translate(-486.163 -176.937)" fill="#f28f8f"/>
        <path id="Trazado_196672" data-name="Trazado 196672" d="M526.983,242.25l-3.713,5.035,2.8-1.792Z" transform="translate(-495.447 -207.742)" fill="#feca2e"/>
        <path id="Trazado_196673" data-name="Trazado 196673" d="M453.94,274.8c-.793,1.03-1.287,3.021-1.707,3.693s-.922,1.256,0,1.384S454.5,278.2,455,277.109a2.622,2.622,0,0,1,1.341-1.384c-.435-.144-.206-1.878-.509-2.115,0,0-1.563.641-1.89,1.194Z" transform="translate(-451.714 -226.911)" fill="#f28f8f"/>
        <path id="Trazado_196674" data-name="Trazado 196674" d="M456.824,289.609c.832-.622.855-1.38,1.019-2.593s3.488-2.511,3.593-1.61.408,1.656-.614,2.749-2.477,2.263-4,1.454Z" transform="translate(-454.835 -233.937)" fill="#f28f8f"/>
        <path id="Trazado_196675" data-name="Trazado 196675" d="M518.971,204.2s4.93.428,5.9.89,2.574,3.238,1.135,7.282-2.745,8.79-2.6,9.743,3.585,5.89,3.585,5.89a9.37,9.37,0,0,1-3.161,1.52l-1.761-3.845.412,4.086a21.049,21.049,0,0,1-5.432.571s-1.672-15.671,1.925-26.137Z" transform="translate(-491.408 -184.485)" fill="#feca2e"/>
        <path id="Trazado_196676" data-name="Trazado 196676" d="M537.514,245.285c.389-2.329,0-3.087-.817-5.365l-4.157,2.671a8.84,8.84,0,0,1,.614,2.694,63.051,63.051,0,0,1-1.808,9.657,1.784,1.784,0,0,1-.848.952,10.354,10.354,0,0,0-2.29,1.9c-.63.575-1.139.692-1.077.894a.971.971,0,0,0,1.209.525,6.916,6.916,0,0,0,1.466-.669,9.046,9.046,0,0,1-1.617,2.387c-1.513,1.617-1.649,2.663,1.17,2.881,1.765.136,3.251-.855,4.849-4.658a36.025,36.025,0,0,0,1.221-4.265c.848-3.32,1.691-7.27,2.08-9.607Z" transform="translate(-497.804 -206.318)" fill="#ffa8a7"/>
        <path id="Trazado_196677" data-name="Trazado 196677" d="M534.141,206.49c1.987.894,2.551,2.648,3.286,5.233s3.052,10.33,3.052,10.33-1.987,2.375-4.744,1.7l-3.515-8.592s-1.653-5.606,1.921-8.666Z" transform="translate(-500.684 -185.885)" fill="#feca2e"/>
      </g>
    </g>
  </g>
</svg>
