<svg xmlns="http://www.w3.org/2000/svg" xmlns:xlink="http://www.w3.org/1999/xlink" width="566" height="232" viewBox="0 0 566 232">
  <defs>
    <linearGradient id="linear-gradient" x1="-40.485" y1="0.461" x2="-40.868" y2="0.59" gradientUnits="objectBoundingBox">
      <stop offset="0" stop-color="#f4a999"/>
      <stop offset="0.32" stop-color="#f1a18f"/>
      <stop offset="0.85" stop-color="#ea8c77"/>
      <stop offset="1" stop-color="#e8856f"/>
    </linearGradient>
    <linearGradient id="linear-gradient-2" x1="-107.298" y1="0.609" x2="-107.137" y2="0.36" gradientUnits="objectBoundingBox">
      <stop offset="0" stop-color="#f4a999"/>
      <stop offset="0.34" stop-color="#f3a695"/>
      <stop offset="0.62" stop-color="#f09d8b"/>
      <stop offset="0.87" stop-color="#eb8f7b"/>
      <stop offset="1" stop-color="#e8856f"/>
    </linearGradient>
    <linearGradient id="linear-gradient-3" x1="-41.193" y1="0.5" x2="-40.193" y2="0.5" gradientUnits="objectBoundingBox">
      <stop offset="0" stop-color="#f0f0fb"/>
      <stop offset="1" stop-color="#d2d7f6"/>
    </linearGradient>
    <linearGradient id="linear-gradient-4" x1="-141.433" y1="0.5" x2="-140.433" y2="0.5" gradientUnits="objectBoundingBox">
      <stop offset="0" stop-color="#5752d0"/>
      <stop offset="1" stop-color="#7f7cf9"/>
    </linearGradient>
    <linearGradient id="linear-gradient-5" x1="-102.918" y1="0.576" x2="-102.81" y2="0.394" xlink:href="#linear-gradient-2"/>
    <linearGradient id="linear-gradient-6" x1="-138.815" y1="-11.842" x2="-137.465" y2="-11.842" xlink:href="#linear-gradient-4"/>
    <linearGradient id="linear-gradient-7" x1="-86.014" y1="-8.793" x2="-84.834" y2="-8.793" xlink:href="#linear-gradient-3"/>
    <linearGradient id="linear-gradient-8" x1="-32.439" y1="0.358" x2="-33.012" y2="0.762" gradientUnits="objectBoundingBox">
      <stop offset="0" stop-color="#fff"/>
      <stop offset="0.44" stop-color="#edeffb"/>
      <stop offset="1" stop-color="#d2d7f6"/>
    </linearGradient>
    <linearGradient id="linear-gradient-9" x1="-32.404" y1="-4.373" x2="-32.404" y2="-5.188" xlink:href="#linear-gradient-4"/>
    <linearGradient id="linear-gradient-10" x1="-3762.084" y1="-51.818" x2="-3760.612" y2="-51.818" xlink:href="#linear-gradient-4"/>
    <linearGradient id="linear-gradient-11" x1="1" y1="0.5" x2="0" y2="0.5" gradientUnits="objectBoundingBox">
      <stop offset="0" stop-color="#1f1b7a"/>
      <stop offset="1" stop-color="#3531a1"/>
    </linearGradient>
    <linearGradient id="linear-gradient-12" x1="530.795" y1="-873.06" x2="530.795" y2="-873.842" xlink:href="#linear-gradient-4"/>
    <linearGradient id="linear-gradient-13" x1="-47.252" y1="-4.07" x2="-47.866" y2="-3.632" xlink:href="#linear-gradient-2"/>
    <linearGradient id="linear-gradient-14" x1="-109.389" y1="0.813" x2="-110.016" y2="0.464" xlink:href="#linear-gradient-2"/>
    <linearGradient id="linear-gradient-15" x1="-91.02" y1="0.374" x2="-91.395" y2="0.862" xlink:href="#linear-gradient-2"/>
    <linearGradient id="linear-gradient-16" x1="-465.201" y1="0.27" x2="-466.223" y2="0.662" xlink:href="#linear-gradient-2"/>
    <radialGradient id="radial-gradient" cx="0.5" cy="0.5" r="0.5" gradientTransform="translate(0)" gradientUnits="objectBoundingBox">
      <stop offset="0" stop-color="#3458cf"/>
      <stop offset="1" stop-color="#fff"/>
    </radialGradient>
    <radialGradient id="radial-gradient-2" cx="0.5" cy="0.5" r="0.5" xlink:href="#radial-gradient"/>
    <radialGradient id="radial-gradient-3" cx="0.5" cy="0.5" r="0.5" gradientTransform="translate(0.129 -0.102) rotate(13.33)" xlink:href="#radial-gradient"/>
    <radialGradient id="radial-gradient-4" cx="0.5" cy="0.5" r="0.5" xlink:href="#radial-gradient"/>
    <radialGradient id="radial-gradient-5" cx="0.5" cy="0.5" r="0.5" xlink:href="#radial-gradient"/>
    <radialGradient id="radial-gradient-6" cx="0.5" cy="0.5" r="0.5" xlink:href="#radial-gradient"/>
    <radialGradient id="radial-gradient-7" cx="0.5" cy="0.5" r="0.5" gradientTransform="matrix(1, 0, 0, 1, 0, 0)" xlink:href="#radial-gradient"/>
    <radialGradient id="radial-gradient-8" cx="0.5" cy="0.5" r="0.5" xlink:href="#radial-gradient"/>
    <linearGradient id="linear-gradient-17" x1="1" y1="0.5" x2="0" y2="0.5" xlink:href="#linear-gradient-11"/>
    <linearGradient id="linear-gradient-21" x1="1" y1="0.5" x2="0" y2="0.5" xlink:href="#linear-gradient-11"/>
    <linearGradient id="linear-gradient-24" x1="1" y1="0.5" x2="0" y2="0.5" xlink:href="#linear-gradient-11"/>
    <linearGradient id="linear-gradient-25" y1="0.5" x2="1" y2="0.5" gradientUnits="objectBoundingBox">
      <stop offset="0" stop-color="#c8d6f9"/>
      <stop offset="1" stop-color="#acb5e8"/>
    </linearGradient>
    <radialGradient id="radial-gradient-9" cx="0.497" cy="0.441" r="0.521" gradientTransform="matrix(0.963, -0.035, 0.03, 0.897, -2.772, 8.851)" gradientUnits="objectBoundingBox">
      <stop offset="0" stop-color="#1d1273"/>
      <stop offset="1" stop-color="#fff"/>
    </radialGradient>
    <linearGradient id="linear-gradient-26" x1="0" y1="0.501" x2="1" y2="0.501" xlink:href="#linear-gradient-11"/>
    <linearGradient id="linear-gradient-28" x1="0" y1="0.499" x2="1" y2="0.499" xlink:href="#linear-gradient-11"/>
  </defs>
  <g id="Grupo_146524" data-name="Grupo 146524" transform="translate(-810 -6662)">
    <g id="Grupo_137087" data-name="Grupo 137087" transform="translate(0 5937.879)">
      <rect id="Rectángulo_42499" data-name="Rectángulo 42499" width="521" height="2" transform="translate(855 724.121)" fill="#4dd0e1" opacity="0.2"/>
      <rect id="Rectángulo_42500" data-name="Rectángulo 42500" width="521" height="2" transform="translate(855 954.121)" fill="#4dd0e1" opacity="0.2"/>
      <rect id="Rectángulo_42501" data-name="Rectángulo 42501" width="190" height="232" transform="translate(1186 724.121)" fill="#4dd0e1"/>
      <rect id="_30" data-name="30" width="555" height="214" rx="15" transform="translate(810 733.121)" fill="#fff"/>
    </g>
    <g id="_1_3_c" data-name="1_3_c" transform="translate(849.195 6598.176)">
      <g id="Layer_1" transform="translate(45.805 74.824)">
        <g id="Grupo_141803" data-name="Grupo 141803" transform="translate(225.547 96.244)">
          <path id="Trazado_195163" data-name="Trazado 195163" d="M758.862,338.3l-8.182-.2V334.85l8.182.437Z" transform="translate(-645.356 -309.038)" fill="#4dd0e1"/>
          <path id="Trazado_195164" data-name="Trazado 195164" d="M701.833,338.1l-43.213,9.82v-3.553l43.213-9.515Z" transform="translate(-596.51 -309.038)" fill="#0f2771"/>
          <path id="Trazado_195165" data-name="Trazado 195165" d="M710.015,341.967,666.8,351.482l-8.182.108,43.213-9.82Z" transform="translate(-596.51 -312.709)" fill="#0f2771"/>
          <path id="Trazado_195166" data-name="Trazado 195166" d="M664.435,358.29l4.722.1-14.627,53.043H651.4l6.3-51.526Z" transform="translate(-592.679 -321.475)" fill="#0f2771"/>
          <path id="Trazado_195167" data-name="Trazado 195167" d="M670.908,358.389l-14.627,53.043H654.7l11.486-53.141Z" transform="translate(-594.43 -321.475)" fill="#4dd0e1"/>
          <path id="Trazado_195168" data-name="Trazado 195168" d="M741.255,344.7l6.825,59.464h-3.14L730.36,346.3l6.149-1.7Z" transform="translate(-634.575 -314.211)" fill="#0f2771"/>
          <path id="Trazado_195169" data-name="Trazado 195169" d="M755.031,404.167h-1.587L743.46,344.6l4.746.1Z" transform="translate(-641.525 -314.211)" fill="#4dd0e1"/>
          <path id="Trazado_195170" data-name="Trazado 195170" d="M529.892,285.463h0l7.858-4.093,36.6,3.544a6.125,6.125,0,0,1,6.041,5.14l7.036,41.073a6.119,6.119,0,0,1-6.041,7.1H539.717a6.117,6.117,0,0,1-6.032-5.093l-7.294-41.073A6.122,6.122,0,0,1,529.892,285.463Z" transform="translate(-526.302 -280.661)" fill="#0d0848"/>
          <path id="Trazado_195171" data-name="Trazado 195171" d="M549.887,279.86h41.927a6.125,6.125,0,0,1,6.041,5.14l7.036,41.073a6.122,6.122,0,0,1-6.041,7.1H557.186a6.117,6.117,0,0,1-6.032-5.093l-7.294-41.073a6.121,6.121,0,0,1,6.032-7.149Z" transform="translate(-535.571 -279.86)" fill="#1d1273"/>
          <rect id="Rectángulo_44302" data-name="Rectángulo 44302" width="55.385" height="3.563" transform="translate(57.97 68.087)" fill="#4dd0e1"/>
          <path id="Trazado_195172" data-name="Trazado 195172" d="M591.365,428.473l-51.7,1.995v-3.431l51.7-2.126Z" transform="translate(-533.395 -356.823)" fill="#0f2771"/>
          <path id="Trazado_195173" data-name="Trazado 195173" d="M700.668,379.564l2.263,12.843c.446,2.708-1.286,6.393-4.027,6.44l-57.46.038L637.97,375.79h58.258A4.5,4.5,0,0,1,700.668,379.564Z" transform="translate(-585.553 -330.76)" fill="#3531a1"/>
          <path id="Trazado_195174" data-name="Trazado 195174" d="M548.578,384.893l37.557-8.858a6.525,6.525,0,0,1,8.215,5.365l1.455,11.641a5.132,5.132,0,0,1-4.863,5.849L542.8,400.975l2.253-11.435a4.819,4.819,0,0,1,3.525-4.642Z" transform="translate(-535.056 -330.761)" fill="#3531a1"/>
          <path id="Trazado_195175" data-name="Trazado 195175" d="M635.572,336.251l-8.182-.192V332.81l8.182.432Z" transform="translate(-579.939 -307.955)" fill="#4dd0e1"/>
          <path id="Trazado_195176" data-name="Trazado 195176" d="M577.381,336.058,533.14,346.836v-3.553l44.241-10.472Z" transform="translate(-529.93 -307.955)" fill="#0f2771"/>
          <path id="Trazado_195177" data-name="Trazado 195177" d="M585.563,339.922,541.317,350.4l-8.177.108,44.241-10.777Z" transform="translate(-529.93 -311.627)" fill="#0f2771"/>
          <path id="Trazado_195178" data-name="Trazado 195178" d="M622.339,341.873l6.98,60.792h-3.211L611.2,343.507l6.29-1.737Z" transform="translate(-571.349 -312.709)" fill="#0f2771"/>
          <path id="Trazado_195179" data-name="Trazado 195179" d="M636.429,402.666H634.8l-10.2-60.9,4.849.1Z" transform="translate(-578.459 -312.709)" fill="#4dd0e1"/>
          <path id="Trazado_195180" data-name="Trazado 195180" d="M542.2,357.07l4.849.1-15.016,53.5H528.82l7.088-51.855Z" transform="translate(-527.638 -320.827)" fill="#0f2771"/>
          <path id="Trazado_195181" data-name="Trazado 195181" d="M548.84,357.173l-15.016,53.5H532.2l11.791-53.606Z" transform="translate(-529.431 -320.827)" fill="#4dd0e1"/>
        </g>
        <g id="Grupo_141810" data-name="Grupo 141810" transform="translate(255.359 40.414)">
          <path id="Trazado_195182" data-name="Trazado 195182" d="M618.943,256.169c-3.807,1.845-16.964,4.821-18.311,8.4s-3.2,3.084-3.535,5.009-1.605,1.235-1.676.329a4.167,4.167,0,0,1,.84-2.544,25.952,25.952,0,0,1-3.244,1.328s-.667,3.112-1.741,2.741-1.141-.882-.568-2.3-.277-1.263.39-2.028a2.507,2.507,0,0,1-.357-2.14s-.789-.357-.92-.873,1.371-1.732,1.624-2.511,1.375-.446,2.9-1.366,2.746.066,4.211-1.014,11.153-8.252,16.725-11.43,8.463,6.074,3.666,8.4Z" transform="translate(-589.813 -206.652)" fill="url(#linear-gradient)"/>
          <path id="Trazado_195183" data-name="Trazado 195183" d="M670.339,215.352c-11.862,2.676-31.779,15.016-31.779,15.016,1.84,5.055,3.915,10.576,7.5,14.537,0,0,14.11-7.393,21.278-15.345C668.254,228.538,673.883,214.55,670.339,215.352Z" transform="translate(-615.678 -189.784)" fill="#0f2771"/>
          <g id="Grupo_141804" data-name="Grupo 141804" transform="translate(43.761 68.784)">
            <path id="Trazado_195184" data-name="Trazado 195184" d="M745.1,422.625a20.832,20.832,0,0,0,1.774,5.361c1.037,1.6,3.46,9.341,3.891,10.594s-4.675,3.624-7.266-1.511c-2.769-5.492-5.882-12.89-5.882-12.89l7.482-1.558Z" transform="translate(-712 -368.561)" fill="url(#linear-gradient-2)"/>
            <path id="Trazado_195185" data-name="Trazado 195185" d="M683.04,316.428c0,3.126.282,6.257,5.426,11.4s7.7,10.425,11.073,17.255,7.525,17.734,9.167,21.1,11.331,0,8.736-5.45c0,0-6.487-18.424-7.525-21.02s-4.314-17.861-5.882-22.606c-3.286-9.947-20.978-15.223-21-.69Z" transform="translate(-683.04 -307.455)" fill="#bddcf6"/>
            <path id="Trazado_195186" data-name="Trazado 195186" d="M711.317,378.127a7.8,7.8,0,0,0,6.6-3.474l-.488-.338a7.3,7.3,0,0,1-7.205,3.136c-.723-1.784-7.656-18.879-10.669-25.719-2.53-5.745-7.046-10.58-9.74-13.467-.742-.793-1.38-1.479-1.807-1.995-1.925-2.347-3.22-6.853-3.229-6.9l-.573.16c.052.188,1.338,4.671,3.342,7.116.437.53,1.08,1.22,1.831,2.023,2.671,2.863,7.144,7.651,9.632,13.3,3.164,7.177,10.646,25.667,10.721,25.855l.056.141.15.038a7.067,7.067,0,0,0,1.38.122Z" transform="translate(-683.656 -319.083)" fill="url(#linear-gradient-3)"/>
            <path id="Trazado_195187" data-name="Trazado 195187" d="M750.287,428.795s-1.6,3.591,1.859,8.994c0,0-1.774-3.112-3.633-2.338s-2.075,3.375-4.713,2.68c0,0,.751.216,1.99,1.8s2.479,6.431,2.77,7.755,4.5,4.5,6.572,3.863,5.018-3.633,2.131-9.167-5.6-8.276-6.98-13.594Z" transform="translate(-715.279 -371.835)" fill="#1d1273"/>
            <path id="Trazado_195188" data-name="Trazado 195188" d="M759.776,462.309c2.037-.577,4.929-3.309,2.094-8.355,0,0-2.342-4.755.54.784s-.056,8.534-2.136,9.167-6.285-2.535-6.572-3.863c-.047-.207-.113-.5-.2-.859.878,1.342,4.431,3.652,6.271,3.131Z" transform="translate(-720.426 -384.179)" fill="url(#linear-gradient-4)"/>
          </g>
          <g id="Grupo_141806" data-name="Grupo 141806" transform="translate(55.518 66.584)">
            <path id="Trazado_195189" data-name="Trazado 195189" d="M738.006,387.933s-5.52,4.473-7.041,7.924-4,6.7-5.694,2.953.108-8.961.742-9.787,3.14-2.605,3.9-3.356,3.22-2.985,3.22-2.985,6.112,3.91,4.872,5.248Z" transform="translate(-716.829 -345.169)" fill="url(#linear-gradient-5)"/>
            <g id="Grupo_141805" data-name="Grupo 141805" transform="translate(3.186 41.44)">
              <path id="Trazado_195190" data-name="Trazado 195190" d="M722.692,391.05a7.5,7.5,0,0,0,1.15,3.844c1.094,1.333-2.915,2.065-2.92,5.966,0,0,.516-.953,2.638-1.5s6.933-.46,6.783.685-3.783-.441-4.441,2.314-.746,5.839,1.6,8.515,1.61,5.149-.315,5.492-7.755-.376-9.956-7.337-2.882-10.214-1.957-12.082,3.469-3.117,4.215-3.624,3.2-2.267,3.2-2.267Z" transform="translate(-714.873 -391.05)" fill="#1d1273"/>
              <path id="Trazado_195191" data-name="Trazado 195191" d="M715.28,401.456a6.112,6.112,0,0,1,1.619-1.9,4.736,4.736,0,0,0-.343.573c-.92,1.873-.3,5.1,1.756,12.007s7.694,7.553,9.562,7.191a2.108,2.108,0,0,0,1.094-.573,2.122,2.122,0,0,1-1.779,2.117c-1.929.343-7.755-.376-9.956-7.337s-2.882-10.214-1.957-12.082Z" transform="translate(-714.873 -395.565)" fill="url(#linear-gradient-6)"/>
            </g>
            <path id="Trazado_195192" data-name="Trazado 195192" d="M729.436,305.792c5.961,4.53,16.129,12.557,20.208,21.588,1.169,2.582-.972,6.9-6.994,10.5s-14.1,9.759-14.1,9.759a8.659,8.659,0,0,1-6.29-6.9s3.511-3.3,4.239-4.76,3.826-7.126,6.079-7.886-16.044-5.492-22.78-11.7,7.778-19.616,19.635-10.6Z" transform="translate(-708.086 -302.768)" fill="#bddcf6"/>
            <path id="Trazado_195193" data-name="Trazado 195193" d="M713.35,306.2c-2.3,2.549,5.248,8.416,8.576,10.036,11.608,5.656,18.532,13.162,16.129,13.866s-5.337,4.286-6.079,5.736-8.567,9.609-8.567,9.609c.023.113.056.221.085.329a8.764,8.764,0,0,1-1.225-3.215s3.511-3.3,4.239-4.76,3.826-7.126,6.079-7.886-16.044-5.492-22.78-11.7c-3.544-3.267-1.2-9.388,3.544-12.012Z" transform="translate(-708.091 -304.589)" fill="#3531a1"/>
            <path id="Trazado_195194" data-name="Trazado 195194" d="M728.088,352.926a23.224,23.224,0,0,0,6-6.877,11.692,11.692,0,0,1,5.281-5.192l.2-.08-.009-.211c-.009-.136-.286-3.375-9.806-6.8-9.21-3.314-12.336-9-12.364-9.055l-.526.277c.127.239,3.248,5.938,12.688,9.336,7.731,2.784,9.12,5.375,9.365,6.088a12.463,12.463,0,0,0-5.351,5.356,22.931,22.931,0,0,1-5.83,6.68l.352.479Z" transform="translate(-712.741 -314.41)" fill="url(#linear-gradient-7)"/>
          </g>
          <path id="Trazado_195195" data-name="Trazado 195195" d="M707.254,213.591c3.751,2.774,3.741,10.975,3.431,21.489s6.121,24.414,6.557,26.488c0,0-6.295-.441-14.185,5.675-4.417,3.427-7.731,7.694-13.918,7.623-5.239-.056-6.6-1.849-13.65-1.6,0-8.867,3.436-38.031,4.661-42.03a64.508,64.508,0,0,1,6.83-15.523c2.769-4.337,17.373-4.276,20.273-2.126Z" transform="translate(-635.273 -188.107)" fill="url(#linear-gradient-8)"/>
          <g id="Grupo_141807" data-name="Grupo 141807" transform="translate(45.05 36.55)">
            <path id="Trazado_195196" data-name="Trazado 195196" d="M694.583,239.235l-6.952-.418a1.209,1.209,0,0,0-1.333,1.267l.723,14.584a1.533,1.533,0,0,0,1.333,1.314l6.328.887a1.1,1.1,0,0,0,1.375-.981l.038-15.152A1.58,1.58,0,0,0,694.583,239.235Z" transform="translate(-686.057 -238.8)" fill="url(#linear-gradient-9)"/>
            <path id="Trazado_195197" data-name="Trazado 195197" d="M706.774,247.354l-.164-.014v1.821l.16.014a.229.229,0,0,0,.258-.211v-1.357a.265.265,0,0,0-.253-.253Z" transform="translate(-696.835 -243.324)" fill="url(#linear-gradient-10)"/>
            <path id="Trazado_195198" data-name="Trazado 195198" d="M694.054,239.2l-6.938-.413a1.205,1.205,0,0,0-1.328,1.267l.737,14.57a1.533,1.533,0,0,0,1.333,1.314l6.313.882a1.092,1.092,0,0,0,1.371-.981l.014-15.138a1.571,1.571,0,0,0-1.507-1.5Z" transform="translate(-685.786 -238.784)" fill="url(#linear-gradient-11)"/>
            <path id="Trazado_195199" data-name="Trazado 195199" d="M706.61,247.34v1.821c.07,0,.131-.028.131-.07v-1.652c0-.047-.056-.089-.131-.094Z" transform="translate(-696.835 -243.324)" fill="#1d1273"/>
            <path id="Trazado_195200" data-name="Trazado 195200" d="M689.148,241.746a.846.846,0,1,1-.559,1.009.819.819,0,0,1,.559-1.009Z" transform="translate(-687.259 -240.344)" fill="url(#linear-gradient-12)"/>
          </g>
          <path id="Trazado_195201" data-name="Trazado 195201" d="M724.791,267.614c-4.1-1.051-16.72-3.821-18.753-7.06s-3.1-3.3-3.816-5.121-1.817-.887-1.709.009.3,3.028.681,3.244a25.689,25.689,0,0,0-3.441-.657s-1.272-2.915-2.248-2.342-.939,1.094-.094,2.37-.019,1.291.784,1.91a2.515,2.515,0,0,0,.075,2.169s-.7.507-.728,1.037,1.69,1.427,2.089,2.136,1.441.164,3.107.765,2.68-.61,4.328.155,11.331,8,17.429,10.008,7.454-7.294,2.291-8.618Z" transform="translate(-645.505 -210.515)" fill="url(#linear-gradient-13)"/>
          <path id="Trazado_195202" data-name="Trazado 195202" d="M739.428,213.92s6.637.784,11.82,11.289,2.615,27.239,2.615,27.239c-2.117.361-8.139-1.76-12.2-7.421,0,0,2.309-24.564-2.882-27.479Z" transform="translate(-668.854 -189.042)" fill="#0f2771"/>
          <path id="Trazado_195203" data-name="Trazado 195203" d="M708.574,212.925c-1.389,3.234,3.417,5.051,7.633,5.051s7.632-2.263,7.632-5.051-2.859-3.755-7.074-3.755-7.248,1.544-8.2,3.755Z" transform="translate(-652.697 -186.521)" fill="#fff"/>
          <path id="Trazado_195204" data-name="Trazado 195204" d="M722.8,196.64s-.131,5.408.887,6.877a3.644,3.644,0,0,1-1,5.126c-2.474,1.929-8.933,1.666-10.618-.5-1.558-1.995,2.464-3.807,1.774-6.313C712.658,197.527,722.8,196.64,722.8,196.64Z" transform="translate(-654.491 -179.873)" fill="url(#linear-gradient-14)"/>
          <g id="Grupo_141809" data-name="Grupo 141809" transform="translate(51.213)">
            <path id="Trazado_195205" data-name="Trazado 195205" d="M705.227,174.522a24.621,24.621,0,0,0-.066,5.013c.169,1.432-.521,6.027.15,7.628s1.685,3.835,6.2,2.821,6.4-3.229,7.534-6.6,1.357-6.966.934-7.9-1.76-4.929-6.684-4.929C708.728,170.56,705.518,171.917,705.227,174.522Z" transform="translate(-702.15 -166.035)" fill="url(#linear-gradient-15)"/>
            <path id="Trazado_195206" data-name="Trazado 195206" d="M702.3,165.661s2.291-4.741,6.9-4.741,6.168,3.2,6.168,3.2c3.5-1.127,3.093,2.422,4.872,3.014,3.159,1.051,2.234,3.877.765,4.83,0,0,1.61,5.3-2.277,7.787s-2.788-3.807-3.253-6.745c-.4-2.558-1.258-3.206-2.671-3.206-.606-1.1-2-2.938-6-1.08-4.281,1.99-5.3,2.436-6.933,1.441s-1.427-3.891,2.422-4.5Z" transform="translate(-698.916 -160.92)" fill="#1d1273"/>
            <path id="Trazado_195207" data-name="Trazado 195207" d="M709.756,191.55a10.785,10.785,0,0,1-1.366,2.22,1.416,1.416,0,0,0,1.389.5Z" transform="translate(-703.943 -177.172)" fill="#e26c6c"/>
            <path id="Trazado_195208" data-name="Trazado 195208" d="M719.885,186.042a.455.455,0,0,1-.263-.08,3.377,3.377,0,0,0-2.3-.319.473.473,0,1,1-.155-.934,4.341,4.341,0,0,1,2.99.465.472.472,0,0,1-.268.864Z" transform="translate(-708.387 -173.504)" fill="#0d0848"/>
            <path id="Trazado_195209" data-name="Trazado 195209" d="M706.716,184.866a.451.451,0,0,1-.315-.122,1.477,1.477,0,0,0-1.371-.122.475.475,0,1,1-.286-.906,2.358,2.358,0,0,1,2.3.324.475.475,0,0,1,.028.671A.47.47,0,0,1,706.716,184.866Z" transform="translate(-701.832 -172.939)" fill="#0d0848"/>
            <g id="Grupo_141808" data-name="Grupo 141808" transform="translate(4.832 18.847)">
              <path id="Trazado_195210" data-name="Trazado 195210" d="M709.21,201.075a10.71,10.71,0,0,1,.253,1.892c.141.023.282.047.422.061,1.92.268,2.882-.1,3.375-.587a1.654,1.654,0,0,0,.441-.836,1.456,1.456,0,0,0,.023-.526,11.513,11.513,0,0,1-3.859.075c-.4-.042-.657-.085-.657-.085Z" transform="translate(-709.21 -201.07)" fill="#0d0848"/>
              <path id="Trazado_195211" data-name="Trazado 195211" d="M709.8,201.142l.361.9a6.777,6.777,0,0,0,3.849-.418,1.454,1.454,0,0,0,.023-.526A13.8,13.8,0,0,1,709.8,201.142Z" transform="translate(-709.523 -201.086)" fill="#fff"/>
              <path id="Trazado_195212" data-name="Trazado 195212" d="M710.65,204.507c1.92.268,2.882-.1,3.375-.587a7.938,7.938,0,0,0-2.183.028A2.319,2.319,0,0,0,710.65,204.507Z" transform="translate(-709.974 -202.55)" fill="#e26c6c"/>
            </g>
            <path id="Trazado_195213" data-name="Trazado 195213" d="M719.6,190.239a1.527,1.527,0,0,0-.925-.286,2.086,2.086,0,0,0-.352.033.868.868,0,0,1-.127-.512.883.883,0,0,1,1.76.136A.858.858,0,0,1,719.6,190.239Z" transform="translate(-709.145 -175.641)" fill="#0d0848"/>
            <path id="Trazado_195214" data-name="Trazado 195214" d="M707.091,188.764a1.528,1.528,0,0,0-.925-.286,2.039,2.039,0,0,0-.352.033.865.865,0,0,1,.821-1.314.882.882,0,0,1,.812.943.868.868,0,0,1-.352.629Z" transform="translate(-702.508 -174.86)" fill="#0d0848"/>
            <path id="Trazado_195215" data-name="Trazado 195215" d="M733.187,189.019c.319-.4,2.117-1.216,2.338.136a3.8,3.8,0,0,1-1.756,4.032C732.065,194.164,732.483,189.887,733.187,189.019Z" transform="translate(-716.775 -175.505)" fill="url(#linear-gradient-16)"/>
          </g>
        </g>
        <g id="Grupo_141811" data-name="Grupo 141811" transform="translate(0 31.73)">
          <path id="Trazado_195216" data-name="Trazado 195216" d="M189.449,416.127c-.268-2.141-1.84-17.917-1.666-17.917h3.37l37.289,34.421-59.5-.019c-.441,0-.451-.939-.009-.925C192.683,432.4,189.913,419.854,189.449,416.127Z" transform="translate(-110.962 -278.141)" fill="#1d1273"/>
          <path id="Trazado_195217" data-name="Trazado 195217" d="M216.319,418.985c-.131-.906-1.788-19.987-1.849-20.785l47.466.164s.61,14.955,1.2,18.114a12.557,12.557,0,0,0,8.8,10.21c7.651,2.544,25.479,4.642,25.728,4.821.77.54.315,1.084-.014,1.1l-44.875.019s-24.794-2.164-24.892-2.178a13.247,13.247,0,0,1-11.566-11.463Z" transform="translate(-135.298 -278.136)" fill="#3531a1"/>
          <path id="Trazado_195218" data-name="Trazado 195218" d="M51.008,142.42H238.023c3.1,0,7.1,2.8,7.337,6.154l8.215,117.646c.235,3.361-1.77,6.928-5.215,6.928H60.19c-3.553,0-5.774-3.572-6.008-6.928L45.822,148.5C45.587,145.143,47.91,142.42,51.008,142.42Z" transform="translate(-45.805 -142.42)" fill="#0d0848"/>
          <path id="Trazado_195219" data-name="Trazado 195219" d="M54.762,142.42H241.35a6.3,6.3,0,0,1,5.98,5.985l8.158,116.863a5.328,5.328,0,0,1-5.145,5.985H63.761a6.3,6.3,0,0,1-5.98-5.985L49.622,148.4a5.328,5.328,0,0,1,5.145-5.985Z" transform="translate(-47.822 -142.42)" fill="#1d1273"/>
          <path id="Trazado_195220" data-name="Trazado 195220" d="M67.354,272.754H256.293L247.909,152.69H58.97Z" transform="translate(-52.79 -147.869)" fill="#4dd0e1"/>
        </g>
        <g id="Grupo_141812" data-name="Grupo 141812" transform="translate(31.222 5.959)">
          <path id="Trazado_195222" data-name="Trazado 195222" d="M278.127,128.161v-1.887h-9.773a26.144,26.144,0,0,0-12.082,2.962q.19-1.9.192-3.858a37.783,37.783,0,0,0-27.615-36.534V87.53h-9.773a37.376,37.376,0,0,0-34.262,22.7,25.591,25.591,0,0,0-7.224-4.6v-1.981h-9.773a25.753,25.753,0,0,0-25.6,25.911,23.993,23.993,0,0,0,.155,2.615h-6.365a23.995,23.995,0,0,0-2.338,47.842v.117H268.354a26.979,26.979,0,0,0,9.773-51.972Z" transform="translate(-112.32 -87.525)" fill="#3531a1"/>
          <path id="Trazado_195223" data-name="Trazado 195223" d="M156.826,132.17a23.492,23.492,0,0,1,6.482.929,26.035,26.035,0,0,1-.268-3.549,25.756,25.756,0,0,1,25.6-25.911,25.288,25.288,0,0,1,17,6.576,37.319,37.319,0,0,1,71.65,15.157q0,1.95-.192,3.858a26.2,26.2,0,0,1,12.082-2.962,26.932,26.932,0,0,1,0,53.859H154.493v-.117a23.995,23.995,0,0,1,2.338-47.842Z" transform="translate(-123.367 -87.52)" fill="#bddcf6"/>
        </g>
        <g id="Grupo_141813" data-name="Grupo 141813" transform="translate(132.022 38.216)">
          <path id="Trazado_195224" data-name="Trazado 195224" d="M656.658,204.86a3.628,3.628,0,1,0,3.629,3.628A3.628,3.628,0,0,0,656.658,204.86Z" transform="translate(-500.019 -182.037)" fill="url(#radial-gradient)"/>
          <path id="Trazado_195225" data-name="Trazado 195225" d="M612.38,173.35a4.3,4.3,0,1,0,4.3,4.3A4.29,4.29,0,0,0,612.38,173.35Z" transform="translate(-476.174 -165.317)" fill="url(#radial-gradient-2)"/>
          <circle id="Elipse_4990" data-name="Elipse 4990" cx="4.957" cy="4.957" r="4.957" transform="matrix(0.973, -0.231, 0.231, 0.973, 106.281, 2.286)" fill="url(#radial-gradient-3)"/>
          <path id="Trazado_195226" data-name="Trazado 195226" d="M507.249,162.49a5.619,5.619,0,1,0,5.619,5.619A5.619,5.619,0,0,0,507.249,162.49Z" transform="translate(-419.686 -159.555)" fill="url(#radial-gradient-4)"/>
          <path id="Trazado_195227" data-name="Trazado 195227" d="M457.565,181.47a6.283,6.283,0,1,0,6.281,6.285A6.285,6.285,0,0,0,457.565,181.47Z" transform="translate(-392.971 -169.626)" fill="url(#radial-gradient-5)"/>
          <path id="Trazado_195228" data-name="Trazado 195228" d="M412.8,209.69a6.947,6.947,0,1,0,6.947,6.947A6.946,6.946,0,0,0,412.8,209.69Z" transform="translate(-368.866 -184.599)" fill="url(#radial-gradient-6)"/>
          <path id="Trazado_195229" data-name="Trazado 195229" d="M372.339,243.53a7.609,7.609,0,1,0,7.609,7.609A7.611,7.611,0,0,0,372.339,243.53Z" transform="translate(-347.048 -202.555)" fill="url(#radial-gradient-7)"/>
          <path id="Trazado_195230" data-name="Trazado 195230" d="M335.331,280.96a8.273,8.273,0,1,0,8.271,8.271A8.272,8.272,0,0,0,335.331,280.96Z" transform="translate(-327.06 -222.415)" fill="url(#radial-gradient-8)"/>
        </g>
        <g id="Grupo_141814" data-name="Grupo 141814" transform="translate(133.205 36.437)">
          <path id="Trazado_195231" data-name="Trazado 195231" d="M659.188,201.07a3.628,3.628,0,1,0,3.628,3.628A3.628,3.628,0,0,0,659.188,201.07Z" transform="translate(-502.544 -178.247)" fill="url(#linear-gradient-17)"/>
          <path id="Trazado_195232" data-name="Trazado 195232" d="M614.91,169.56a4.3,4.3,0,1,0,4.3,4.3A4.29,4.29,0,0,0,614.91,169.56Z" transform="translate(-478.699 -161.528)" fill="url(#linear-gradient-17)"/>
          <circle id="Elipse_4991" data-name="Elipse 4991" cx="4.957" cy="4.957" r="4.957" transform="matrix(0.973, -0.231, 0.231, 0.973, 106.28, 2.286)" fill="url(#linear-gradient-17)"/>
          <path id="Trazado_195233" data-name="Trazado 195233" d="M509.779,158.7a5.619,5.619,0,1,0,5.619,5.619A5.619,5.619,0,0,0,509.779,158.7Z" transform="translate(-422.212 -155.766)" fill="url(#linear-gradient-17)"/>
          <path id="Trazado_195234" data-name="Trazado 195234" d="M460.1,177.68a6.283,6.283,0,1,0,6.281,6.285A6.285,6.285,0,0,0,460.1,177.68Z" transform="translate(-395.496 -165.836)" fill="url(#linear-gradient-21)"/>
          <path id="Trazado_195235" data-name="Trazado 195235" d="M415.327,205.9a6.947,6.947,0,1,0,6.947,6.947A6.946,6.946,0,0,0,415.327,205.9Z" transform="translate(-371.391 -180.81)" fill="url(#linear-gradient-17)"/>
          <path id="Trazado_195236" data-name="Trazado 195236" d="M374.869,239.74a7.609,7.609,0,1,0,7.609,7.609,7.611,7.611,0,0,0-7.609-7.609Z" transform="translate(-349.573 -198.765)" fill="url(#linear-gradient-17)"/>
          <path id="Trazado_195237" data-name="Trazado 195237" d="M337.851,277.17a8.273,8.273,0,1,0,8.271,8.271A8.272,8.272,0,0,0,337.851,277.17Z" transform="translate(-329.58 -218.626)" fill="url(#linear-gradient-24)"/>
        </g>
        <path id="Trazado_195239" data-name="Trazado 195239" d="M206.637,223.153a39.679,39.679,0,0,1,21.057-25.362,41.553,41.553,0,0,1,17.471-4.14c2.924-.056,0,0,8.111-.009,1.751,18.537,6.7,72.762,7.2,88.886-8.426-.009-.239.155-8.426-.009a45.38,45.38,0,0,1-4.652-.333,48.59,48.59,0,0,1-33.778-20.766c-8.261-11.946-10.374-26-6.98-38.266Z" transform="translate(-130.32 -137.86)" fill="#1d1273"/>
        <path id="Trazado_195240" data-name="Trazado 195240" d="M222.493,223.171a39.665,39.665,0,0,1,21.057-25.362,41.7,41.7,0,0,1,18.147-4.15,48.175,48.175,0,0,1,36.548,17.006c18.03,21.273,14.3,51.536-6.867,65.28a41.177,41.177,0,0,1-22.484,6.6,46.294,46.294,0,0,1-5.638-.343,48.6,48.6,0,0,1-33.778-20.766c-8.261-11.946-10.374-26-6.98-38.266Z" transform="translate(-138.735 -137.878)" fill="#feca2e"/>
        <g id="Grupo_141815" data-name="Grupo 141815" transform="translate(92.446 71.898)">
          <path id="Trazado_195241" data-name="Trazado 195241" d="M311.237,255.2a1.177,1.177,0,0,1,1.127-.54l4.243.39a22.712,22.712,0,0,0-3.873-10.1,23.71,23.71,0,0,0-14.138-9.7,20.729,20.729,0,0,0-16.143,2.629,3.47,3.47,0,0,1-4.661-1.089,3.226,3.226,0,0,1,.737-4.586c12.664-8.2,30.445-4.051,39.608,9.252a30.107,30.107,0,0,1,5.224,14.218l4.727.432a1.4,1.4,0,0,1,1.1.742,1.263,1.263,0,0,1-.023,1.281l-8.116,12.852a1.165,1.165,0,0,1-1,.544,1.06,1.06,0,0,1-.122,0,1.4,1.4,0,0,1-1.1-.742l-7.614-14.3a1.263,1.263,0,0,1,.023-1.281Z" transform="translate(-261.005 -227.993)" fill="#0f2771"/>
          <path id="Trazado_195242" data-name="Trazado 195242" d="M242.937,269.356l8.069-12.852a1.169,1.169,0,0,1,1.127-.54,1.41,1.41,0,0,1,1.108.742l7.665,14.3a1.264,1.264,0,0,1-.019,1.281,1.177,1.177,0,0,1-1.127.54l-4.243-.39a22.811,22.811,0,0,0,3.9,10.1,23.752,23.752,0,0,0,14.12,9.7,20.608,20.608,0,0,0,16.091-2.629,3.447,3.447,0,0,1,4.642,1.089,3.234,3.234,0,0,1-.742,4.586,26.355,26.355,0,0,1-14.429,4.211,30.777,30.777,0,0,1-25.066-13.462,30.341,30.341,0,0,1-5.281-14.218l-4.732-.432a1.41,1.41,0,0,1-1.108-.742,1.263,1.263,0,0,1,.019-1.281Z" transform="translate(-242.748 -242.831)" fill="#12263f"/>
        </g>
        <path id="Trazado_195244" data-name="Trazado 195244" d="M103.564,318.905c2.516-13.256,18.246-19.288,28.986-11.735l10.585-4.29-5.192,10.026c4.539,7.065,3.051,18.091-3.605,23.62a17.621,17.621,0,0,1-4.717,3.07c-14.012,6.149-28.718-5.483-26.057-20.7Z" transform="translate(-76.285 -195.83)" fill="url(#linear-gradient-25)"/>
        <path id="Trazado_195246" data-name="Trazado 195246" d="M383.674,396.522c-12.951-3.783-17.434-20.02-8.881-29.981l-3.248-10.951,9.477,6.135c7.473-3.835,18.3-1.291,23.16,5.868a17.745,17.745,0,0,1,2.6,4.99,18.7,18.7,0,0,1-23.113,23.935Z" transform="translate(-218.038 -223.798)" fill="#12263f"/>
        <path id="Trazado_195247" data-name="Trazado 195247" d="M209.264,102.314c.46,13.1,11.857,23.325,25.456,22.846s24.245-11.486,23.785-24.583-11.862-23.325-25.456-22.846S208.8,89.218,209.264,102.314Z" transform="translate(-132.528 -76.358)" fill="url(#radial-gradient-9)" style="mix-blend-mode: multiply;isolation: isolate"/>
        <path id="Trazado_195248" data-name="Trazado 195248" d="M264.086,80.633c9.379,9.7,5.239,26.024-7.126,30.445l-2.6,11.12-5.2-10.022c-8.388-.366-16.542-7.942-17.218-16.565a17.728,17.728,0,0,1,.211-5.623,18.7,18.7,0,0,1,31.934-9.355Z" transform="translate(-144.503 -74.824)" fill="#0f2771"/>
        <path id="Trazado_195249" data-name="Trazado 195249" d="M407.642,378.62a.742.742,0,0,0-.685-.085L395.039,383a.742.742,0,0,0-.483.7v12.862a3.35,3.35,0,1,0,1.488,2.784v-10.66l10.43-3.91v7.313a3.35,3.35,0,1,0,1.488,2.784V379.23a.761.761,0,0,0-.319-.615Z" transform="translate(-228.084 -235.947)" fill="#fff"/>
        <path id="Trazado_195250" data-name="Trazado 195250" d="M274.036,103.267l-12.589-8.548a.914.914,0,0,0-1.427.775l.361,17.612a.911.911,0,0,0,1.455.713l12.223-9.059a.911.911,0,0,0-.033-1.488Z" transform="translate(-159.467 -85.296)" fill="#fff"/>
        <g id="Grupo_141816" data-name="Grupo 141816" transform="translate(33.888 116.696)">
          <path id="Trazado_195251" data-name="Trazado 195251" d="M128.674,323.43H118.033L118,325.8h10.674Z" transform="translate(-118 -323.43)" fill="url(#linear-gradient-26)"/>
          <path id="Trazado_195252" data-name="Trazado 195252" d="M157.739,323.43H147.06v2.37h10.646Z" transform="translate(-133.419 -323.43)" fill="url(#linear-gradient-26)"/>
          <path id="Trazado_195253" data-name="Trazado 195253" d="M137.574,336.07H118.033L118,338.44h19.541Z" transform="translate(-118 -330.137)" fill="url(#linear-gradient-28)"/>
          <path id="Trazado_195254" data-name="Trazado 195254" d="M140.74,349.81h13.613l.033-2.37H140.773Z" transform="translate(-130.066 -336.17)" fill="url(#linear-gradient-26)"/>
          <path id="Trazado_195255" data-name="Trazado 195255" d="M125.712,347.44h-7.679L118,349.81h7.679Z" transform="translate(-118 -336.17)" fill="url(#linear-gradient-26)"/>
          <path id="Trazado_195256" data-name="Trazado 195256" d="M118,362.45h15.387l.033-2.37H118.033Z" transform="translate(-118 -342.876)" fill="url(#linear-gradient-28)"/>
        </g>
      </g>
    </g>
  </g>
</svg>
