<svg xmlns="http://www.w3.org/2000/svg" xmlns:xlink="http://www.w3.org/1999/xlink" width="566" height="232" viewBox="0 0 566 232">
  <defs>
    <linearGradient id="linear-gradient" x1="0.5" y1="3.2" x2="0.5" y2="1.24" gradientUnits="objectBoundingBox">
      <stop offset="0" stop-color="#c8d6f9"/>
      <stop offset="1" stop-color="#bac1e8"/>
    </linearGradient>
    <linearGradient id="linear-gradient-2" x1="0.809" y1="0.5" x2="0.142" y2="0.5" xlink:href="#linear-gradient"/>
    <linearGradient id="linear-gradient-3" x1="0.5" y1="0.169" x2="0.5" y2="0.842" xlink:href="#linear-gradient"/>
    <linearGradient id="linear-gradient-4" x1="0.5" y1="2.212" x2="0.5" y2="0.253" xlink:href="#linear-gradient"/>
    <linearGradient id="linear-gradient-6" x1="0.5" y1="0.169" x2="0.5" y2="0.842" xlink:href="#linear-gradient"/>
    <linearGradient id="linear-gradient-7" x1="0.5" y1="1.211" x2="0.5" y2="-0.748" xlink:href="#linear-gradient"/>
    <linearGradient id="linear-gradient-9" x1="0.5" y1="0.169" x2="0.5" y2="0.842" xlink:href="#linear-gradient"/>
    <linearGradient id="linear-gradient-10" x1="0.5" y1="0.212" x2="0.5" y2="-1.748" xlink:href="#linear-gradient"/>
    <linearGradient id="linear-gradient-13" x1="0.5" y1="3.2" x2="0.5" y2="1.24" xlink:href="#linear-gradient"/>
    <linearGradient id="linear-gradient-14" x1="0.809" y1="0.5" x2="0.142" y2="0.5" xlink:href="#linear-gradient"/>
    <linearGradient id="linear-gradient-16" x1="0.5" y1="2.212" x2="0.5" y2="0.253" xlink:href="#linear-gradient"/>
    <linearGradient id="linear-gradient-19" x1="0.5" y1="1.211" x2="0.5" y2="-0.748" xlink:href="#linear-gradient"/>
    <linearGradient id="linear-gradient-22" x1="0.5" y1="0.212" x2="0.5" y2="-1.748" xlink:href="#linear-gradient"/>
    <linearGradient id="linear-gradient-25" x1="0.513" y1="0.953" x2="0.494" y2="0.285" gradientUnits="objectBoundingBox">
      <stop offset="0" stop-color="#5752d0"/>
      <stop offset="1" stop-color="#7f7cf9"/>
    </linearGradient>
    <linearGradient id="linear-gradient-26" x1="0.5" y1="61.415" x2="0.5" y2="8.661" xlink:href="#linear-gradient-25"/>
    <linearGradient id="linear-gradient-27" x1="0.5" y1="55.41" x2="0.5" y2="2.651" xlink:href="#linear-gradient-25"/>
    <linearGradient id="linear-gradient-28" x1="0.499" y1="61.415" x2="0.499" y2="8.661" xlink:href="#linear-gradient-25"/>
    <linearGradient id="linear-gradient-30" x1="0.5" y1="58.412" x2="0.5" y2="5.656" xlink:href="#linear-gradient-25"/>
    <linearGradient id="linear-gradient-31" x1="0.5" y1="55.41" x2="0.5" y2="2.651" xlink:href="#linear-gradient-25"/>
    <linearGradient id="linear-gradient-32" x1="0.501" y1="61.415" x2="0.501" y2="8.661" xlink:href="#linear-gradient-25"/>
    <linearGradient id="linear-gradient-33" x1="0.5" y1="52.494" x2="0.5" y2="-0.246" xlink:href="#linear-gradient-25"/>
    <linearGradient id="linear-gradient-34" x1="0.5" y1="46.489" x2="0.5" y2="-6.256" xlink:href="#linear-gradient-25"/>
    <linearGradient id="linear-gradient-35" x1="0.499" y1="52.494" x2="0.499" y2="-0.246" xlink:href="#linear-gradient-25"/>
    <linearGradient id="linear-gradient-36" x1="0.5" y1="49.499" x2="0.5" y2="-3.251" xlink:href="#linear-gradient-25"/>
    <linearGradient id="linear-gradient-38" x1="0.5" y1="43.6" x2="0.5" y2="-9.152" xlink:href="#linear-gradient-25"/>
    <linearGradient id="linear-gradient-39" x1="0.5" y1="40.595" x2="0.5" y2="-12.157" xlink:href="#linear-gradient-25"/>
    <linearGradient id="linear-gradient-40" x1="0.5" y1="37.675" x2="0.5" y2="-15.2" xlink:href="#linear-gradient-25"/>
    <linearGradient id="linear-gradient-41" x1="0.499" y1="43.6" x2="0.499" y2="-9.152" xlink:href="#linear-gradient-25"/>
    <linearGradient id="linear-gradient-43" x1="0.5" y1="40.595" x2="0.5" y2="-12.157" xlink:href="#linear-gradient-25"/>
    <linearGradient id="linear-gradient-44" x1="0.5" y1="37.675" x2="0.5" y2="-15.2" xlink:href="#linear-gradient-25"/>
    <linearGradient id="linear-gradient-46" x1="0.5" y1="34.769" x2="0.5" y2="-18.102" xlink:href="#linear-gradient-25"/>
    <linearGradient id="linear-gradient-47" x1="0.5" y1="31.756" x2="0.5" y2="-21.112" xlink:href="#linear-gradient-25"/>
    <linearGradient id="linear-gradient-48" x1="0.5" y1="34.769" x2="0.5" y2="-18.102" xlink:href="#linear-gradient-25"/>
    <linearGradient id="linear-gradient-51" x1="0.5" y1="28.749" x2="0.5" y2="-24.129" xlink:href="#linear-gradient-25"/>
    <linearGradient id="linear-gradient-52" x1="0.499" y1="34.769" x2="0.499" y2="-18.102" xlink:href="#linear-gradient-25"/>
    <linearGradient id="linear-gradient-53" x1="0.5" y1="25.85" x2="0.5" y2="-27.038" xlink:href="#linear-gradient-25"/>
    <linearGradient id="linear-gradient-54" x1="0.5" y1="19.822" x2="0.5" y2="-33.056" xlink:href="#linear-gradient-25"/>
    <linearGradient id="linear-gradient-55" x1="0.501" y1="25.85" x2="0.501" y2="-27.038" xlink:href="#linear-gradient-25"/>
    <linearGradient id="linear-gradient-56" x1="0.5" y1="25.85" x2="0.5" y2="-27.038" xlink:href="#linear-gradient-25"/>
    <linearGradient id="linear-gradient-57" x1="0.5" y1="22.838" x2="0.5" y2="-30.048" xlink:href="#linear-gradient-25"/>
    <linearGradient id="linear-gradient-59" x1="0.499" y1="25.85" x2="0.499" y2="-27.038" xlink:href="#linear-gradient-25"/>
    <linearGradient id="linear-gradient-60" x1="0.5" y1="16.921" x2="0.5" y2="-35.964" xlink:href="#linear-gradient-25"/>
    <linearGradient id="linear-gradient-61" x1="0.5" y1="13.904" x2="0.5" y2="-38.967" xlink:href="#linear-gradient-25"/>
    <linearGradient id="linear-gradient-62" x1="0.501" y1="16.921" x2="0.501" y2="-35.964" xlink:href="#linear-gradient-25"/>
    <linearGradient id="linear-gradient-65" x1="0.5" y1="10.868" x2="0.5" y2="-41.891" xlink:href="#linear-gradient-25"/>
    <linearGradient id="linear-gradient-67" x1="0.5" y1="7.975" x2="0.5" y2="-44.81" xlink:href="#linear-gradient-25"/>
    <linearGradient id="linear-gradient-68" x1="0.5" y1="4.965" x2="0.5" y2="-47.775" xlink:href="#linear-gradient-25"/>
    <linearGradient id="linear-gradient-69" x1="0.499" y1="7.975" x2="0.499" y2="-44.81" xlink:href="#linear-gradient-25"/>
    <linearGradient id="linear-gradient-70" x1="0.5" y1="7.975" x2="0.5" y2="-44.81" xlink:href="#linear-gradient-25"/>
    <linearGradient id="linear-gradient-71" x1="0.5" y1="4.965" x2="0.5" y2="-47.775" xlink:href="#linear-gradient-25"/>
    <linearGradient id="linear-gradient-73" x1="0.5" y1="61.415" x2="0.5" y2="8.661" xlink:href="#linear-gradient-25"/>
    <linearGradient id="linear-gradient-77" x1="0.5" y1="58.412" x2="0.5" y2="5.656" xlink:href="#linear-gradient-25"/>
    <linearGradient id="linear-gradient-80" x1="0.5" y1="52.494" x2="0.5" y2="-0.246" xlink:href="#linear-gradient-25"/>
    <linearGradient id="linear-gradient-81" x1="0.5" y1="49.499" x2="0.5" y2="-3.251" xlink:href="#linear-gradient-25"/>
    <linearGradient id="linear-gradient-82" x1="0.5" y1="46.489" x2="0.5" y2="-6.256" xlink:href="#linear-gradient-25"/>
    <linearGradient id="linear-gradient-86" x1="0.5" y1="43.6" x2="0.5" y2="-9.152" xlink:href="#linear-gradient-25"/>
    <linearGradient id="linear-gradient-87" x1="0.5" y1="40.595" x2="0.5" y2="-12.157" xlink:href="#linear-gradient-25"/>
    <linearGradient id="linear-gradient-89" x1="0.501" y1="43.6" x2="0.501" y2="-9.152" xlink:href="#linear-gradient-25"/>
    <linearGradient id="linear-gradient-94" x1="0.5" y1="34.769" x2="0.5" y2="-18.102" xlink:href="#linear-gradient-25"/>
    <linearGradient id="linear-gradient-95" x1="0.5" y1="31.756" x2="0.5" y2="-21.112" xlink:href="#linear-gradient-25"/>
    <linearGradient id="linear-gradient-96" x1="0.501" y1="34.769" x2="0.501" y2="-18.102" xlink:href="#linear-gradient-25"/>
    <linearGradient id="linear-gradient-99" x1="0.5" y1="28.749" x2="0.5" y2="-24.129" xlink:href="#linear-gradient-25"/>
    <linearGradient id="linear-gradient-103" x1="0.5" y1="19.822" x2="0.5" y2="-33.056" xlink:href="#linear-gradient-25"/>
    <linearGradient id="linear-gradient-105" x1="0.5" y1="25.85" x2="0.5" y2="-27.038" xlink:href="#linear-gradient-25"/>
    <linearGradient id="linear-gradient-106" x1="0.5" y1="22.838" x2="0.5" y2="-30.048" xlink:href="#linear-gradient-25"/>
    <linearGradient id="linear-gradient-110" x1="0.5" y1="16.921" x2="0.5" y2="-35.964" xlink:href="#linear-gradient-25"/>
    <linearGradient id="linear-gradient-119" x1="0.501" y1="7.975" x2="0.501" y2="-44.81" xlink:href="#linear-gradient-25"/>
    <linearGradient id="linear-gradient-120" x1="1" y1="0.5" x2="0" y2="0.5" xlink:href="#linear-gradient"/>
    <linearGradient id="linear-gradient-121" y1="0.5" x2="1" y2="0.5" gradientUnits="objectBoundingBox">
      <stop offset="0" stop-color="#f0f0fb"/>
      <stop offset="1" stop-color="#d2d7f6"/>
    </linearGradient>
    <linearGradient id="linear-gradient-122" x1="0" y1="0.5" x2="1" y2="0.5" xlink:href="#linear-gradient-121"/>
    <linearGradient id="linear-gradient-123" x1="0" y1="0.5" x2="1" y2="0.5" xlink:href="#linear-gradient-25"/>
    <linearGradient id="linear-gradient-124" y1="0.5" x2="1" y2="0.5" gradientUnits="objectBoundingBox">
      <stop offset="0" stop-color="#009bae"/>
      <stop offset="1" stop-color="#00ebe9"/>
    </linearGradient>
    <linearGradient id="linear-gradient-125" x1="0" y1="0.5" x2="1" y2="0.5" xlink:href="#linear-gradient-121"/>
    <linearGradient id="linear-gradient-127" x1="0" y1="0.5" x2="1" y2="0.5" xlink:href="#linear-gradient-121"/>
    <linearGradient id="linear-gradient-128" x1="0" y1="0.5" x2="1" y2="0.5" xlink:href="#linear-gradient-121"/>
    <linearGradient id="linear-gradient-129" x1="-151.893" y1="-12.48" x2="-150.941" y2="-12.48" gradientUnits="objectBoundingBox">
      <stop offset="0" stop-color="#f4a999"/>
      <stop offset="1" stop-color="#e8856f"/>
    </linearGradient>
    <linearGradient id="linear-gradient-130" x1="-32.016" y1="6.664" x2="-32.368" y2="6.424" xlink:href="#linear-gradient-25"/>
    <linearGradient id="linear-gradient-131" x1="-78.293" y1="0.481" x2="-78.802" y2="1.007" xlink:href="#linear-gradient-25"/>
    <linearGradient id="linear-gradient-132" x1="-173.724" y1="0.676" x2="-173.06" y2="0.475" xlink:href="#linear-gradient-129"/>
    <linearGradient id="linear-gradient-133" x1="23.127" y1="-11.025" x2="22.76" y2="-10.552" gradientUnits="objectBoundingBox">
      <stop offset="0" stop-color="#f4a999"/>
      <stop offset="0.34" stop-color="#f3a695"/>
      <stop offset="0.62" stop-color="#f09d8b"/>
      <stop offset="0.87" stop-color="#eb8f7b"/>
      <stop offset="1" stop-color="#e8856f"/>
    </linearGradient>
    <linearGradient id="linear-gradient-134" x1="120.46" y1="-43.042" x2="119.37" y2="-42.665" xlink:href="#linear-gradient-133"/>
    <linearGradient id="linear-gradient-135" x1="-676.902" y1="0.515" x2="-675.902" y2="0.515" gradientUnits="objectBoundingBox">
      <stop offset="0" stop-color="#aaceff"/>
      <stop offset="1" stop-color="#dbe9ff"/>
    </linearGradient>
    <linearGradient id="linear-gradient-136" x1="-679.308" y1="0.515" x2="-678.309" y2="0.515" xlink:href="#linear-gradient-135"/>
    <linearGradient id="linear-gradient-137" x1="-681.716" y1="0.515" x2="-680.717" y2="0.515" xlink:href="#linear-gradient-135"/>
    <linearGradient id="linear-gradient-138" x1="-684.123" y1="0.515" x2="-683.125" y2="0.515" xlink:href="#linear-gradient-135"/>
    <linearGradient id="linear-gradient-139" x1="-1175.566" y1="0.515" x2="-1174.566" y2="0.515" xlink:href="#linear-gradient-135"/>
    <linearGradient id="linear-gradient-140" x1="-1177.996" y1="0.515" x2="-1176.996" y2="0.515" xlink:href="#linear-gradient-135"/>
    <linearGradient id="linear-gradient-141" x1="-1180.284" y1="0.515" x2="-1179.284" y2="0.515" xlink:href="#linear-gradient-135"/>
    <linearGradient id="linear-gradient-142" x1="0" y1="0.501" x2="1" y2="0.501" xlink:href="#linear-gradient"/>
    <linearGradient id="linear-gradient-143" x1="-94.155" y1="0.581" x2="-95.018" y2="0.478" xlink:href="#linear-gradient-25"/>
    <linearGradient id="linear-gradient-144" x1="0" y1="0.5" x2="1" y2="0.5" xlink:href="#linear-gradient"/>
    <linearGradient id="linear-gradient-145" x1="-77.861" y1="0.251" x2="-78.366" y2="0.45" xlink:href="#linear-gradient-25"/>
    <linearGradient id="linear-gradient-146" x1="-48.598" y1="0.395" x2="-48.513" y2="0.82" xlink:href="#linear-gradient-129"/>
  </defs>
  <g id="Grupo_146525" data-name="Grupo 146525" transform="translate(-7775.658 -6722)">
    <g id="Grupo_141796" data-name="Grupo 141796" transform="translate(6965.658 5997.879)">
      <rect id="Rectángulo_42499" data-name="Rectángulo 42499" width="521" height="2" transform="translate(855 724.121)" fill="#4dd0e1" opacity="0.2"/>
      <rect id="Rectángulo_42500" data-name="Rectángulo 42500" width="521" height="2" transform="translate(855 954.121)" fill="#4dd0e1" opacity="0.2"/>
      <rect id="Rectángulo_42501" data-name="Rectángulo 42501" width="190" height="232" transform="translate(1186 724.121)" fill="#4dd0e1"/>
      <rect id="_30" data-name="30" width="555" height="214" rx="15" transform="translate(810 733.121)" fill="#fff"/>
    </g>
    <g id="_1_3_d" data-name="1_3_d" transform="translate(7792.869 6652.179)">
      <g id="Layer_1" transform="translate(76.789 92.421)">
        <g id="Grupo_141821" data-name="Grupo 141821" transform="translate(57.157 20.007)">
          <g id="Grupo_141817" data-name="Grupo 141817">
            <rect id="Rectángulo_44303" data-name="Rectángulo 44303" width="42.004" height="40.605" transform="translate(2.533)" fill="url(#linear-gradient)"/>
            <rect id="Rectángulo_44304" data-name="Rectángulo 44304" width="34.655" height="40.605" fill="#fff"/>
            <rect id="Rectángulo_44305" data-name="Rectángulo 44305" width="30.455" height="36.333" transform="translate(2.201 2.153)" fill="url(#linear-gradient-2)"/>
            <rect id="Rectángulo_44306" data-name="Rectángulo 44306" width="9.665" height="36.304" transform="translate(2.201 2.148)" fill="url(#linear-gradient-3)"/>
          </g>
          <g id="Grupo_141818" data-name="Grupo 141818" transform="translate(0 40.105)">
            <rect id="Rectángulo_44307" data-name="Rectángulo 44307" width="42.004" height="40.605" transform="translate(2.533)" fill="url(#linear-gradient-4)"/>
            <rect id="Rectángulo_44308" data-name="Rectángulo 44308" width="34.655" height="40.605" fill="#fff"/>
            <rect id="Rectángulo_44309" data-name="Rectángulo 44309" width="30.455" height="36.333" transform="translate(2.201 2.158)" fill="url(#linear-gradient-2)"/>
            <rect id="Rectángulo_44310" data-name="Rectángulo 44310" width="9.665" height="36.357" transform="translate(2.201 2.124)" fill="url(#linear-gradient-6)"/>
          </g>
          <g id="Grupo_141819" data-name="Grupo 141819" transform="translate(0 80.749)">
            <rect id="Rectángulo_44311" data-name="Rectángulo 44311" width="42.004" height="40.605" transform="translate(2.533)" fill="url(#linear-gradient-7)"/>
            <rect id="Rectángulo_44312" data-name="Rectángulo 44312" width="34.655" height="40.605" fill="#fff"/>
            <rect id="Rectángulo_44313" data-name="Rectángulo 44313" width="30.455" height="36.333" transform="translate(2.201 2.153)" fill="url(#linear-gradient-2)"/>
            <rect id="Rectángulo_44314" data-name="Rectángulo 44314" width="9.665" height="36.337" transform="translate(2.201 2.134)" fill="url(#linear-gradient-9)"/>
          </g>
          <g id="Grupo_141820" data-name="Grupo 141820" transform="translate(0 121.335)">
            <rect id="Rectángulo_44315" data-name="Rectángulo 44315" width="42.004" height="40.605" transform="translate(2.533)" fill="url(#linear-gradient-10)"/>
            <rect id="Rectángulo_44316" data-name="Rectángulo 44316" width="34.655" height="40.605" fill="#fff"/>
            <rect id="Rectángulo_44317" data-name="Rectángulo 44317" width="30.455" height="36.333" transform="translate(2.201 2.158)" fill="url(#linear-gradient-2)"/>
            <rect id="Rectángulo_44318" data-name="Rectángulo 44318" width="9.665" height="36.337" transform="translate(2.201 2.134)" fill="url(#linear-gradient-3)"/>
          </g>
        </g>
        <g id="Grupo_141826" data-name="Grupo 141826" transform="translate(93.735 20.007)">
          <g id="Grupo_141822" data-name="Grupo 141822">
            <rect id="Rectángulo_44319" data-name="Rectángulo 44319" width="41.999" height="40.605" transform="translate(2.533)" fill="url(#linear-gradient-13)"/>
            <rect id="Rectángulo_44320" data-name="Rectángulo 44320" width="34.655" height="40.605" fill="#fff"/>
            <rect id="Rectángulo_44321" data-name="Rectángulo 44321" width="30.455" height="36.333" transform="translate(2.196 2.153)" fill="url(#linear-gradient-14)"/>
            <rect id="Rectángulo_44322" data-name="Rectángulo 44322" width="9.665" height="36.304" transform="translate(2.196 2.148)" fill="url(#linear-gradient-3)"/>
          </g>
          <g id="Grupo_141823" data-name="Grupo 141823" transform="translate(0 40.105)">
            <rect id="Rectángulo_44323" data-name="Rectángulo 44323" width="41.999" height="40.605" transform="translate(2.533)" fill="url(#linear-gradient-16)"/>
            <rect id="Rectángulo_44324" data-name="Rectángulo 44324" width="34.655" height="40.605" fill="#fff"/>
            <rect id="Rectángulo_44325" data-name="Rectángulo 44325" width="30.455" height="36.333" transform="translate(2.196 2.158)" fill="url(#linear-gradient-14)"/>
            <rect id="Rectángulo_44326" data-name="Rectángulo 44326" width="9.665" height="36.357" transform="translate(2.196 2.124)" fill="url(#linear-gradient-6)"/>
          </g>
          <g id="Grupo_141824" data-name="Grupo 141824" transform="translate(0 80.749)">
            <rect id="Rectángulo_44327" data-name="Rectángulo 44327" width="41.999" height="40.605" transform="translate(2.533)" fill="url(#linear-gradient-19)"/>
            <rect id="Rectángulo_44328" data-name="Rectángulo 44328" width="34.655" height="40.605" fill="#fff"/>
            <rect id="Rectángulo_44329" data-name="Rectángulo 44329" width="30.455" height="36.333" transform="translate(2.196 2.153)" fill="url(#linear-gradient-14)"/>
            <rect id="Rectángulo_44330" data-name="Rectángulo 44330" width="9.665" height="36.337" transform="translate(2.196 2.134)" fill="url(#linear-gradient-9)"/>
          </g>
          <g id="Grupo_141825" data-name="Grupo 141825" transform="translate(0 121.335)">
            <rect id="Rectángulo_44331" data-name="Rectángulo 44331" width="41.999" height="40.605" transform="translate(2.533)" fill="url(#linear-gradient-22)"/>
            <rect id="Rectángulo_44332" data-name="Rectángulo 44332" width="34.655" height="40.605" fill="#fff"/>
            <rect id="Rectángulo_44333" data-name="Rectángulo 44333" width="30.455" height="36.333" transform="translate(2.196 2.158)" fill="url(#linear-gradient-14)"/>
            <rect id="Rectángulo_44334" data-name="Rectángulo 44334" width="9.665" height="36.337" transform="translate(2.196 2.134)" fill="url(#linear-gradient-3)"/>
          </g>
        </g>
        <g id="Grupo_141827" data-name="Grupo 141827" transform="translate(148.156 140.145)">
          <path id="Trazado_195257" data-name="Trazado 195257" d="M453.719,462.846a3.455,3.455,0,0,1,.409.135c-.144-.082-.284-.163-.428-.24C453.7,462.764,453.714,462.8,453.719,462.846Z" transform="translate(-420.716 -424.913)" fill="#fff"/>
          <path id="Trazado_195258" data-name="Trazado 195258" d="M447.7,457.69c-.1-.082-.187-.163-.288-.25a.221.221,0,0,1-.034.034,3.117,3.117,0,0,0,.322.216Z" transform="translate(-417.433 -422.16)" fill="#fff"/>
          <path id="Trazado_195259" data-name="Trazado 195259" d="M421.94,423.833a29.2,29.2,0,0,0-3.4-1.706l-.235-.178a5.249,5.249,0,0,0,3.994-.312c3.148-1.423,3.22-2.811,4.393-3.287a19.587,19.587,0,0,1-3.619.6,12.548,12.548,0,0,0-4.83.755,3.782,3.782,0,0,0,1.293-1.485c1.8-3.326,2.379-6.022,3.2-7.137,0,0,.183-.658.029-.442a48.471,48.471,0,0,1-3.345,3.725c-.591.452-2.259,1.115-3.157,1.735-.879.606-.764,2.8-1.221,3.22.1.086.2.168.288.25a2.936,2.936,0,0,0,2.47.351,3.618,3.618,0,0,0-1.072.851l-.1-.077s-.553-.481-1.3-1.129a3.111,3.111,0,0,1-.322-.216.222.222,0,0,1,.034-.034,42.59,42.59,0,0,0-3.845-3.09,10.573,10.573,0,0,0,4.027-5.854,5.743,5.743,0,0,1,2.677-3.6c-5.955.019-6.911,4.479-6.911,4.479-.6,3.5-.149,4.561.086,4.864-.673-.63-1.4-1.326-2.167-2.1.279-.586,1.783-4.128,1.057-10.309-.673-5.7-.533-7.834-.476-8.29-.163.807-1.427,6.454-1.812,8.314a16.7,16.7,0,0,0,1.024,10.078c-.831-.841-1.721-1.778-2.648-2.792a.058.058,0,0,0,0-.024,45.981,45.981,0,0,0,.034-7.2c-.336-2.417-1.091-5.729-1.091-6.185s.082-3.816.13-4.1-1.019.63-1.346,4.633-.269,7.045,1.129,10.4c.582,1.389.875,2.047,1.024,2.34q-1.233-1.362-2.562-2.927v-.216s.538-5.056-.8-7.79a27,27,0,0,1-2.129-9.227s-.5.625-.317,4.2c-.183-.779-.4-1.692-.639-2.773-.5-2.249-1.144-6.738-1.225-6.82-.077-.053-.053,1.966.043,7.935a33.815,33.815,0,0,0,2.4,11.318s.014.058.038.13c-.668-.851-1.346-1.745-2.028-2.672.019.014.014-.029-.048-.2-.2-.509-.519-5.431-.663-6.781a36.991,36.991,0,0,0-1.365-5.142,50.7,50.7,0,0,1-.846-5.882s-.187.159-.178,2.672a48.965,48.965,0,0,0,.942,8.353,34.162,34.162,0,0,0,1.97,6.69s.043.072.086.149q-2.055-2.79-4.21-6.055a7.8,7.8,0,0,0,.49.855,17.844,17.844,0,0,0-3.576-2.432c-2.725-1.557-5.315-2.158-6.224-2.682-.3-.168,2.735,2.1,4.561,3.35a12.5,12.5,0,0,0,5.45,2.1c.4.644.971,1.523,1.682,2.571a15.771,15.771,0,0,0-8.569-3.552,7.879,7.879,0,0,1-2.225-.75s-1.932-1.11,2.273,1.778c5.633,3.869,8.213,2.984,8.684,2.763.6.865,1.283,1.845,2.042,2.9-1.211-.783-4.907-2.994-7.906-2.912-3.725.1-5.57-2.283-5.056-1.447a9.271,9.271,0,0,0,2.711,2.091,22.833,22.833,0,0,0,4.82,2.139,16.22,16.22,0,0,0,5.642.423c.654.889,1.36,1.826,2.115,2.8-2-1.278-3.763-2.1-9.7-1.629-.913.077-1.312.36-3.566-.572-.274-.115.7.668,1.413,1.134,6.257,4.056,11.265,1.769,12.072,1.346.783,1,1.615,2.028,2.494,3.066a19.607,19.607,0,0,0-4.767-.913c-2.182-.019-3.206,1.283-4.791,2a10.757,10.757,0,0,1-3.677.74c4.474,3.652,13.178-1.077,13.586-1.408.822.966,1.682,1.937,2.571,2.888a.06.06,0,0,0-.014.01c-.812-.264-10.073,1.129-10.073,1.129,1.591,1.485,4.777,1.682,6.022,1.591a6.677,6.677,0,0,0,4.364-2.408c.779.831,1.576,1.648,2.393,2.441a43.489,43.489,0,0,0-5.272.932,5.075,5.075,0,0,1-3.576-.428s3.085,3.9,7.733,2.22c.831-.3,1.259-1.812,1.5-2.35.726.7,1.466,1.374,2.216,2.023a1.855,1.855,0,0,1-.932.567,19.043,19.043,0,0,0-3.345,1.423s-1.1.1-3.244,3.455c0,0-1.485,1.461-2.225,1.485s-1.769-.034-1.576.163c0,0,3.537,3.037,9.549-1.759.788-.63,2.4-4.018,2.067-5.085a42.057,42.057,0,0,0,4.349,3.278,4.4,4.4,0,0,0,1.091.682l-.12.019s-.553,1.523-1.105,3.628a8.8,8.8,0,0,0-.226,3.6c-.014.755-1.389,1.533-1.48,1.586a3.263,3.263,0,0,0,1.86-.74,7.449,7.449,0,0,0,1.442-3.9,15.411,15.411,0,0,0-.255-3.936c.038.029.091.067.159.111,0,0,2.047,3.883,4.724,3.484,3.143-.466,1.346-.183,3.758-1.1a7.282,7.282,0,0,1-4.791-.735ZM400.9,404.9a.894.894,0,0,0,.024-.192c.058-1.437.087-2.542.091-3.4a32.332,32.332,0,0,0,2.3,6.56Q402.13,406.474,400.9,404.9Zm17.172,17.061c0-.043-.019-.082-.019-.106.139.082.284.163.428.24A2.723,2.723,0,0,0,418.071,421.963Z" transform="translate(-385.068 -384.03)" fill="#fff"/>
        </g>
        <g id="Grupo_141828" data-name="Grupo 141828" transform="translate(143.804 34.357)">
          <path id="Trazado_195260" data-name="Trazado 195260" d="M612.542,434.743c-22.708.678-20.06-11.313-19.613-14.874.255-2.047,1.759-17.128,1.591-17.128H591.3l-35.65,32.906,56.883-.019C612.951,435.627,612.965,434.728,612.542,434.743Z" transform="translate(-469.318 -287.96)" fill="#1d1273"/>
          <path id="Trazado_195261" data-name="Trazado 195261" d="M498.927,420.209a11.987,11.987,0,0,1-8.415,9.756c-7.315,2.437-24.356,4.441-24.6,4.609-.735.514-.3,1.038.014,1.052l42.9.019s23.7-2.067,23.794-2.081a12.669,12.669,0,0,0,11.058-10.957c.125-.865,1.711-19.108,1.769-19.868l-45.377.159s-.582,14.293-1.149,17.316Z" transform="translate(-422.5 -287.96)" fill="#3531a1"/>
          <path id="Trazado_195262" data-name="Trazado 195262" d="M569.675,163.91H390.9c-2.96,0-6.791,2.672-7.012,5.882l-7.853,112.463c-.226,3.21,1.692,6.623,4.989,6.623H560.9c3.4,0,5.517-3.412,5.743-6.623l7.992-112.53a5.158,5.158,0,0,0-4.96-5.815Z" transform="translate(-376.013 -163.91)" fill="#0d0848"/>
          <path id="Trazado_195263" data-name="Trazado 195263" d="M568.119,163.91H389.753a6.027,6.027,0,0,0-5.719,5.724l-7.8,111.718a5.091,5.091,0,0,0,4.916,5.724H559.516a6.027,6.027,0,0,0,5.719-5.724l7.8-111.718A5.091,5.091,0,0,0,568.119,163.91Z" transform="translate(-376.119 -163.91)" fill="#1d1273"/>
          <path id="Trazado_195264" data-name="Trazado 195264" d="M384.54,287.1H565.156l8.016-114.78H392.551Z" transform="translate(-380.442 -168.278)" fill="url(#linear-gradient-25)"/>
        </g>
        <g id="Grupo_141832" data-name="Grupo 141832" transform="translate(176.819 9.188)">
          <path id="Trazado_195266" data-name="Trazado 195266" d="M456.859,136.7,444.724,258.049a2.518,2.518,0,0,0,2.552,2.836H560.359a3.092,3.092,0,0,0,3.037-2.836l8.67-121.349h-115.2Z" transform="translate(-444.709 -124.608)" fill="#1d1273"/>
          <path id="Trazado_195267" data-name="Trazado 195267" d="M583.308,111.54H473.935a3.159,3.159,0,0,0-3.028,2.835l-.928,9.256h115.2l.663-9.256A2.563,2.563,0,0,0,583.308,111.54Z" transform="translate(-457.835 -111.54)" fill="#4dd0e1"/>
          <g id="Grupo_141829" data-name="Grupo 141829" transform="translate(17.728 4.95)">
            <path id="Trazado_195268" data-name="Trazado 195268" d="M482.915,121.84a1.368,1.368,0,0,0-1.312,1.23,1.08,1.08,0,0,0,1.072,1.23,1.368,1.368,0,0,0,1.312-1.23A1.08,1.08,0,0,0,482.915,121.84Z" transform="translate(-481.597 -121.84)" fill="#fff"/>
            <path id="Trazado_195269" data-name="Trazado 195269" d="M493.375,121.84a1.368,1.368,0,0,0-1.312,1.23,1.08,1.08,0,0,0,1.072,1.23,1.368,1.368,0,0,0,1.312-1.23A1.08,1.08,0,0,0,493.375,121.84Z" transform="translate(-487.03 -121.84)" fill="#fff"/>
            <path id="Trazado_195270" data-name="Trazado 195270" d="M503.85,121.84a1.36,1.36,0,0,0-1.307,1.23,1.08,1.08,0,0,0,1.072,1.23,1.36,1.36,0,0,0,1.307-1.23A1.08,1.08,0,0,0,503.85,121.84Z" transform="translate(-492.473 -121.84)" fill="#fff"/>
          </g>
          <g id="Grupo_141830" data-name="Grupo 141830" transform="translate(63.799 19.286)">
            <path id="Trazado_195271" data-name="Trazado 195271" d="M672.386,151.67l-.106,1.9h9.232l.1-1.9Z" transform="translate(-626.71 -151.67)" fill="url(#linear-gradient-26)"/>
            <path id="Trazado_195272" data-name="Trazado 195272" d="M650.461,163.54l-.111,1.9h19.541l.1-1.9Z" transform="translate(-615.32 -157.835)" fill="#4dd0e1"/>
            <path id="Trazado_195273" data-name="Trazado 195273" d="M658.121,175.41l-.111,1.9h15.7l.1-1.9Z" transform="translate(-619.298 -164.001)" fill="url(#linear-gradient-27)"/>
            <path id="Trazado_195274" data-name="Trazado 195274" d="M664.586,151.67l-.106,1.9h2.8l.106-1.9Z" transform="translate(-622.659 -151.67)" fill="url(#linear-gradient-28)"/>
            <path id="Trazado_195275" data-name="Trazado 195275" d="M615.83,151.67l-.12,1.9h9.232l.111-1.9Z" transform="translate(-597.327 -151.67)" fill="url(#linear-gradient-26)"/>
            <path id="Trazado_195276" data-name="Trazado 195276" d="M593.825,163.54l-.125,1.9h19.541l.115-1.9Z" transform="translate(-585.895 -157.835)" fill="url(#linear-gradient-30)"/>
            <path id="Trazado_195277" data-name="Trazado 195277" d="M601.4,175.41l-.12,1.9h15.7l.115-1.9Z" transform="translate(-589.832 -164.001)" fill="url(#linear-gradient-31)"/>
            <path id="Trazado_195278" data-name="Trazado 195278" d="M608.03,151.67l-.12,1.9h2.8l.115-1.9Z" transform="translate(-593.276 -151.67)" fill="url(#linear-gradient-32)"/>
            <path id="Trazado_195279" data-name="Trazado 195279" d="M670,186.85l-.106,1.9h9.271l.1-1.9Z" transform="translate(-625.469 -169.943)" fill="url(#linear-gradient-33)"/>
            <path id="Trazado_195280" data-name="Trazado 195280" d="M647.986,198.72l-.106,1.9H667.5l.1-1.9Z" transform="translate(-614.037 -176.108)" fill="#4dd0e1"/>
            <path id="Trazado_195281" data-name="Trazado 195281" d="M655.676,210.59l-.106,1.9h15.768l.1-1.9Z" transform="translate(-618.031 -182.274)" fill="url(#linear-gradient-34)"/>
            <path id="Trazado_195282" data-name="Trazado 195282" d="M662.166,186.85l-.106,1.9h2.811l.106-1.9Z" transform="translate(-621.402 -169.943)" fill="url(#linear-gradient-35)"/>
            <path id="Trazado_195283" data-name="Trazado 195283" d="M613.205,186.85l-.115,1.9h9.266l.11-1.9Z" transform="translate(-595.967 -169.943)" fill="#4dd0e1"/>
            <path id="Trazado_195284" data-name="Trazado 195284" d="M591.11,198.72l-.12,1.9h19.623l.115-1.9Z" transform="translate(-584.488 -176.108)" fill="url(#linear-gradient-36)"/>
            <path id="Trazado_195285" data-name="Trazado 195285" d="M598.72,210.59l-.12,1.9h15.768l.115-1.9Z" transform="translate(-588.44 -182.274)" fill="#fff"/>
            <path id="Trazado_195286" data-name="Trazado 195286" d="M605.37,186.85l-.12,1.9h2.811l.12-1.9Z" transform="translate(-591.894 -169.943)" fill="url(#linear-gradient-33)"/>
            <path id="Trazado_195287" data-name="Trazado 195287" d="M667.606,222.03l-.106,1.9h9.309l.1-1.9Z" transform="translate(-624.228 -188.216)" fill="url(#linear-gradient-38)"/>
            <path id="Trazado_195288" data-name="Trazado 195288" d="M645.511,233.9l-.111,1.9h19.7l.1-1.9Z" transform="translate(-612.749 -194.381)" fill="url(#linear-gradient-39)"/>
            <path id="Trazado_195289" data-name="Trazado 195289" d="M653.241,245.78l-.111,1.894h15.835l.1-1.894Z" transform="translate(-616.764 -200.552)" fill="url(#linear-gradient-40)"/>
            <path id="Trazado_195290" data-name="Trazado 195290" d="M659.746,222.03l-.106,1.9h2.821l.106-1.9Z" transform="translate(-620.145 -188.216)" fill="url(#linear-gradient-41)"/>
            <path id="Trazado_195291" data-name="Trazado 195291" d="M610.58,222.03l-.12,1.9h9.309l.111-1.9Z" transform="translate(-594.601 -188.216)" fill="url(#linear-gradient-38)"/>
            <path id="Trazado_195292" data-name="Trazado 195292" d="M588.4,233.9l-.12,1.9h19.7l.11-1.9Z" transform="translate(-583.08 -194.381)" fill="url(#linear-gradient-43)"/>
            <path id="Trazado_195293" data-name="Trazado 195293" d="M596.05,245.78l-.12,1.894h15.831l.115-1.894Z" transform="translate(-587.053 -200.552)" fill="url(#linear-gradient-44)"/>
            <path id="Trazado_195294" data-name="Trazado 195294" d="M602.71,222.03l-.12,1.9h2.826l.115-1.9Z" transform="translate(-590.513 -188.216)" fill="url(#linear-gradient-38)"/>
            <path id="Trazado_195295" data-name="Trazado 195295" d="M665.226,257.22l-.106,1.894h9.347l.1-1.894Z" transform="translate(-622.991 -206.494)" fill="url(#linear-gradient-46)"/>
            <path id="Trazado_195296" data-name="Trazado 195296" d="M643.041,269.09l-.111,1.894h19.786l.1-1.894Z" transform="translate(-611.466 -212.659)" fill="url(#linear-gradient-47)"/>
            <path id="Trazado_195297" data-name="Trazado 195297" d="M657.326,257.22l-.106,1.894h2.836l.106-1.894Z" transform="translate(-618.888 -206.494)" fill="url(#linear-gradient-48)"/>
            <path id="Trazado_195298" data-name="Trazado 195298" d="M607.96,257.22l-.12,1.894h9.343l.115-1.894Z" transform="translate(-593.24 -206.494)" fill="url(#linear-gradient-48)"/>
            <path id="Trazado_195299" data-name="Trazado 195299" d="M585.69,269.09l-.12,1.894h19.786l.11-1.894Z" transform="translate(-581.672 -212.659)" fill="url(#linear-gradient-47)"/>
            <path id="Trazado_195300" data-name="Trazado 195300" d="M593.375,280.96l-.115,1.893h15.9l.111-1.893Z" transform="translate(-585.667 -218.824)" fill="url(#linear-gradient-51)"/>
            <path id="Trazado_195301" data-name="Trazado 195301" d="M600.06,257.22l-.12,1.894h2.836l.12-1.894Z" transform="translate(-589.136 -206.494)" fill="url(#linear-gradient-52)"/>
            <path id="Trazado_195302" data-name="Trazado 195302" d="M662.841,292.4l-.1,1.894h9.381l.1-1.894Z" transform="translate(-621.755 -224.766)" fill="url(#linear-gradient-53)"/>
            <path id="Trazado_195303" data-name="Trazado 195303" d="M640.571,304.27l-.111,1.894h19.868l.1-1.894Z" transform="translate(-610.183 -230.932)" fill="#4dd0e1"/>
            <path id="Trazado_195304" data-name="Trazado 195304" d="M648.366,316.14l-.106,1.893h15.965l.1-1.893Z" transform="translate(-614.234 -237.097)" fill="url(#linear-gradient-54)"/>
            <path id="Trazado_195305" data-name="Trazado 195305" d="M654.906,292.4l-.106,1.894h2.85l.106-1.894Z" transform="translate(-617.631 -224.766)" fill="url(#linear-gradient-55)"/>
            <path id="Trazado_195306" data-name="Trazado 195306" d="M605.335,292.4l-.115,1.894h9.386l.11-1.894Z" transform="translate(-591.879 -224.766)" fill="url(#linear-gradient-56)"/>
            <path id="Trazado_195307" data-name="Trazado 195307" d="M582.985,304.27l-.125,1.894h19.868l.115-1.894Z" transform="translate(-580.265 -230.932)" fill="url(#linear-gradient-57)"/>
            <path id="Trazado_195308" data-name="Trazado 195308" d="M590.705,316.14l-.115,1.893h15.96l.115-1.893Z" transform="translate(-584.28 -237.097)" fill="url(#linear-gradient-54)"/>
            <path id="Trazado_195309" data-name="Trazado 195309" d="M597.405,292.4l-.115,1.894h2.845l.12-1.894Z" transform="translate(-587.76 -224.766)" fill="url(#linear-gradient-59)"/>
            <path id="Trazado_195310" data-name="Trazado 195310" d="M660.466,327.58l-.106,1.894h9.42l.1-1.894Z" transform="translate(-620.519 -243.039)" fill="url(#linear-gradient-60)"/>
            <path id="Trazado_195311" data-name="Trazado 195311" d="M638.1,339.45l-.111,1.894h19.949l.1-1.894Z" transform="translate(-608.9 -249.205)" fill="url(#linear-gradient-61)"/>
            <path id="Trazado_195312" data-name="Trazado 195312" d="M645.936,351.32l-.106,1.9h16.028l.1-1.9Z" transform="translate(-612.972 -255.37)" fill="#0d0848"/>
            <path id="Trazado_195313" data-name="Trazado 195313" d="M652.5,327.58l-.106,1.894h2.859l.106-1.894Z" transform="translate(-616.379 -243.039)" fill="url(#linear-gradient-62)"/>
            <path id="Trazado_195314" data-name="Trazado 195314" d="M602.725,327.58l-.115,1.894h9.42l.111-1.894Z" transform="translate(-590.523 -243.039)" fill="url(#linear-gradient-60)"/>
            <path id="Trazado_195315" data-name="Trazado 195315" d="M580.28,339.45l-.12,1.894h19.949l.111-1.894Z" transform="translate(-578.862 -249.205)" fill="url(#linear-gradient-61)"/>
            <path id="Trazado_195316" data-name="Trazado 195316" d="M588.04,351.32l-.12,1.9h16.028l.11-1.9Z" transform="translate(-582.893 -255.37)" fill="url(#linear-gradient-65)"/>
            <path id="Trazado_195317" data-name="Trazado 195317" d="M594.76,327.58l-.12,1.894H597.5l.115-1.894Z" transform="translate(-586.383 -243.039)" fill="url(#linear-gradient-62)"/>
            <path id="Trazado_195318" data-name="Trazado 195318" d="M658.081,362.76l-.1,1.9h9.458l.1-1.9Z" transform="translate(-619.283 -261.312)" fill="url(#linear-gradient-67)"/>
            <path id="Trazado_195319" data-name="Trazado 195319" d="M635.631,374.63l-.111,1.9h20.036l.1-1.9Z" transform="translate(-607.617 -267.477)" fill="url(#linear-gradient-68)"/>
            <path id="Trazado_195320" data-name="Trazado 195320" d="M650.086,362.76l-.106,1.9h2.869l.106-1.9Z" transform="translate(-615.128 -261.312)" fill="url(#linear-gradient-69)"/>
            <path id="Trazado_195321" data-name="Trazado 195321" d="M600.105,362.76l-.115,1.9h9.463l.111-1.9Z" transform="translate(-589.162 -261.312)" fill="url(#linear-gradient-70)"/>
            <path id="Trazado_195322" data-name="Trazado 195322" d="M577.58,374.63l-.12,1.9h20.031l.11-1.9Z" transform="translate(-577.46 -267.477)" fill="url(#linear-gradient-71)"/>
            <path id="Trazado_195323" data-name="Trazado 195323" d="M592.11,362.76l-.12,1.9h2.869l.12-1.9Z" transform="translate(-585.007 -261.312)" fill="url(#linear-gradient-70)"/>
          </g>
          <g id="Grupo_141831" data-name="Grupo 141831" transform="translate(7.882 19.286)">
            <path id="Trazado_195324" data-name="Trazado 195324" d="M559.075,151.67l-.135,1.9h9.232l.125-1.9Z" transform="translate(-511.924 -151.67)" fill="url(#linear-gradient-73)"/>
            <path id="Trazado_195325" data-name="Trazado 195325" d="M536.995,163.54l-.135,1.9H556.4l.125-1.9Z" transform="translate(-500.455 -157.835)" fill="url(#linear-gradient-30)"/>
            <path id="Trazado_195326" data-name="Trazado 195326" d="M544.485,175.41l-.135,1.9h15.7l.13-1.9Z" transform="translate(-504.346 -164.001)" fill="url(#linear-gradient-27)"/>
            <path id="Trazado_195327" data-name="Trazado 195327" d="M551.275,151.67l-.135,1.9h2.8l.13-1.9Z" transform="translate(-507.872 -151.67)" fill="url(#linear-gradient-26)"/>
            <path id="Trazado_195328" data-name="Trazado 195328" d="M502.514,151.67l-.144,1.9H511.6l.139-1.9Z" transform="translate(-482.541 -151.67)" fill="#0d0848"/>
            <path id="Trazado_195329" data-name="Trazado 195329" d="M480.354,163.54l-.144,1.9h19.541l.139-1.9Z" transform="translate(-471.031 -157.835)" fill="url(#linear-gradient-77)"/>
            <path id="Trazado_195330" data-name="Trazado 195330" d="M487.769,175.41l-.149,1.9h15.7l.139-1.9Z" transform="translate(-474.88 -164.001)" fill="url(#linear-gradient-27)"/>
            <path id="Trazado_195331" data-name="Trazado 195331" d="M494.714,151.67l-.144,1.9h2.8l.144-1.9Z" transform="translate(-478.489 -151.67)" fill="url(#linear-gradient-28)"/>
            <path id="Trazado_195332" data-name="Trazado 195332" d="M556.21,186.85l-.13,1.9h9.271l.125-1.9Z" transform="translate(-510.438 -169.943)" fill="url(#linear-gradient-80)"/>
            <path id="Trazado_195333" data-name="Trazado 195333" d="M534.035,198.72l-.135,1.9h19.622l.13-1.9Z" transform="translate(-498.918 -176.108)" fill="url(#linear-gradient-81)"/>
            <path id="Trazado_195334" data-name="Trazado 195334" d="M541.575,210.59l-.135,1.9h15.768l.125-1.9Z" transform="translate(-502.834 -182.274)" fill="url(#linear-gradient-82)"/>
            <path id="Trazado_195335" data-name="Trazado 195335" d="M548.38,186.85l-.13,1.9h2.811l.13-1.9Z" transform="translate(-506.371 -169.943)" fill="url(#linear-gradient-33)"/>
            <path id="Trazado_195336" data-name="Trazado 195336" d="M499.414,186.85l-.144,1.9h9.271l.139-1.9Z" transform="translate(-480.931 -169.943)" fill="url(#linear-gradient-33)"/>
            <path id="Trazado_195337" data-name="Trazado 195337" d="M477.169,198.72l-.149,1.9h19.623l.139-1.9Z" transform="translate(-469.374 -176.108)" fill="#4dd0e1"/>
            <path id="Trazado_195338" data-name="Trazado 195338" d="M484.619,210.59l-.149,1.9h15.768l.139-1.9Z" transform="translate(-473.243 -182.274)" fill="#fff"/>
            <path id="Trazado_195339" data-name="Trazado 195339" d="M491.584,186.85l-.144,1.9h2.811l.144-1.9Z" transform="translate(-476.864 -169.943)" fill="url(#linear-gradient-35)"/>
            <path id="Trazado_195340" data-name="Trazado 195340" d="M553.35,222.03l-.13,1.9h9.3l.13-1.9Z" transform="translate(-508.953 -188.216)" fill="url(#linear-gradient-86)"/>
            <path id="Trazado_195341" data-name="Trazado 195341" d="M531.095,233.9l-.135,1.9h19.7l.125-1.9Z" transform="translate(-497.391 -194.381)" fill="url(#linear-gradient-87)"/>
            <path id="Trazado_195342" data-name="Trazado 195342" d="M538.66,245.78l-.13,1.894h15.831l.125-1.894Z" transform="translate(-501.323 -200.552)" fill="url(#linear-gradient-44)"/>
            <path id="Trazado_195343" data-name="Trazado 195343" d="M545.485,222.03l-.135,1.9h2.826l.13-1.9Z" transform="translate(-504.865 -188.216)" fill="url(#linear-gradient-89)"/>
            <path id="Trazado_195344" data-name="Trazado 195344" d="M496.319,222.03l-.139,1.9h9.3l.139-1.9Z" transform="translate(-479.326 -188.216)" fill="url(#linear-gradient-86)"/>
            <path id="Trazado_195345" data-name="Trazado 195345" d="M473.979,233.9l-.149,1.9h19.7l.139-1.9Z" transform="translate(-467.717 -194.381)" fill="url(#linear-gradient-43)"/>
            <path id="Trazado_195346" data-name="Trazado 195346" d="M481.469,245.78l-.149,1.894h15.835l.139-1.894Z" transform="translate(-471.607 -200.552)" fill="url(#linear-gradient-44)"/>
            <path id="Trazado_195347" data-name="Trazado 195347" d="M488.454,222.03l-.144,1.9h2.826l.139-1.9Z" transform="translate(-475.238 -188.216)" fill="url(#linear-gradient-89)"/>
            <path id="Trazado_195348" data-name="Trazado 195348" d="M550.49,257.22l-.13,1.894h9.348l.125-1.894Z" transform="translate(-507.467 -206.494)" fill="url(#linear-gradient-94)"/>
            <path id="Trazado_195349" data-name="Trazado 195349" d="M528.145,269.09l-.135,1.894H547.8l.125-1.894Z" transform="translate(-495.858 -212.659)" fill="url(#linear-gradient-95)"/>
            <path id="Trazado_195350" data-name="Trazado 195350" d="M542.59,257.22l-.13,1.894H545.3l.13-1.894Z" transform="translate(-503.364 -206.494)" fill="url(#linear-gradient-96)"/>
            <path id="Trazado_195351" data-name="Trazado 195351" d="M493.224,257.22l-.144,1.894h9.348l.135-1.894Z" transform="translate(-477.715 -206.494)" fill="url(#linear-gradient-46)"/>
            <path id="Trazado_195352" data-name="Trazado 195352" d="M470.8,269.09l-.149,1.894h19.786l.139-1.894Z" transform="translate(-466.065 -212.659)" fill="url(#linear-gradient-47)"/>
            <path id="Trazado_195353" data-name="Trazado 195353" d="M478.324,280.96l-.144,1.893h15.9l.135-1.893Z" transform="translate(-469.976 -218.824)" fill="url(#linear-gradient-99)"/>
            <path id="Trazado_195354" data-name="Trazado 195354" d="M485.324,257.22l-.144,1.894h2.835l.144-1.894Z" transform="translate(-473.612 -206.494)" fill="url(#linear-gradient-48)"/>
            <path id="Trazado_195355" data-name="Trazado 195355" d="M547.64,292.4l-.13,1.894h9.381l.125-1.894Z" transform="translate(-505.987 -224.766)" fill="url(#linear-gradient-56)"/>
            <path id="Trazado_195356" data-name="Trazado 195356" d="M525.2,304.27l-.135,1.894h19.868l.125-1.894Z" transform="translate(-494.331 -230.932)" fill="url(#linear-gradient-57)"/>
            <path id="Trazado_195357" data-name="Trazado 195357" d="M532.845,316.14l-.135,1.893h15.965l.12-1.893Z" transform="translate(-498.3 -237.097)" fill="url(#linear-gradient-103)"/>
            <path id="Trazado_195358" data-name="Trazado 195358" d="M539.7,292.4l-.13,1.894h2.85l.13-1.894Z" transform="translate(-501.863 -224.766)" fill="url(#linear-gradient-56)"/>
            <path id="Trazado_195359" data-name="Trazado 195359" d="M490.134,292.4l-.144,1.894h9.381l.139-1.894Z" transform="translate(-476.111 -224.766)" fill="url(#linear-gradient-105)"/>
            <path id="Trazado_195360" data-name="Trazado 195360" d="M467.619,304.27l-.149,1.894h19.868l.139-1.894Z" transform="translate(-464.413 -230.932)" fill="url(#linear-gradient-106)"/>
            <path id="Trazado_195361" data-name="Trazado 195361" d="M475.179,316.14l-.149,1.893H491l.139-1.893Z" transform="translate(-468.34 -237.097)" fill="#fff"/>
            <path id="Trazado_195362" data-name="Trazado 195362" d="M482.2,292.4l-.144,1.894h2.845l.144-1.894Z" transform="translate(-471.992 -224.766)" fill="url(#linear-gradient-56)"/>
            <path id="Trazado_195363" data-name="Trazado 195363" d="M544.78,327.58l-.13,1.894h9.424l.125-1.894Z" transform="translate(-504.501 -243.039)" fill="url(#linear-gradient-60)"/>
            <path id="Trazado_195364" data-name="Trazado 195364" d="M522.26,339.45l-.13,1.894h19.949l.125-1.894Z" transform="translate(-492.804 -249.205)" fill="#0d0848"/>
            <path id="Trazado_195365" data-name="Trazado 195365" d="M529.935,351.32l-.135,1.9h16.033l.125-1.9Z" transform="translate(-496.788 -255.37)" fill="url(#linear-gradient-65)"/>
            <path id="Trazado_195366" data-name="Trazado 195366" d="M536.815,327.58l-.135,1.894h2.86l.13-1.894Z" transform="translate(-500.362 -243.039)" fill="url(#linear-gradient-110)"/>
            <path id="Trazado_195367" data-name="Trazado 195367" d="M487.044,327.58l-.144,1.894h9.42l.139-1.894Z" transform="translate(-474.506 -243.039)" fill="url(#linear-gradient-60)"/>
            <path id="Trazado_195368" data-name="Trazado 195368" d="M464.439,339.45l-.149,1.894h19.949l.139-1.894Z" transform="translate(-462.762 -249.205)" fill="url(#linear-gradient-61)"/>
            <path id="Trazado_195369" data-name="Trazado 195369" d="M472.034,351.32l-.144,1.9h16.028l.139-1.9Z" transform="translate(-466.709 -255.37)" fill="url(#linear-gradient-65)"/>
            <path id="Trazado_195370" data-name="Trazado 195370" d="M479.074,327.58l-.144,1.894h2.859l.144-1.894Z" transform="translate(-470.366 -243.039)" fill="url(#linear-gradient-62)"/>
            <path id="Trazado_195371" data-name="Trazado 195371" d="M541.93,362.76l-.13,1.9h9.463l.12-1.9Z" transform="translate(-503.021 -261.312)" fill="url(#linear-gradient-70)"/>
            <path id="Trazado_195372" data-name="Trazado 195372" d="M519.315,374.63l-.135,1.9h20.031l.13-1.9Z" transform="translate(-491.272 -267.477)" fill="url(#linear-gradient-68)"/>
            <path id="Trazado_195373" data-name="Trazado 195373" d="M533.93,362.76l-.13,1.9h2.869l.13-1.9Z" transform="translate(-498.866 -261.312)" fill="url(#linear-gradient-70)"/>
            <path id="Trazado_195374" data-name="Trazado 195374" d="M483.954,362.76l-.144,1.9h9.463l.135-1.9Z" transform="translate(-472.901 -261.312)" fill="url(#linear-gradient-67)"/>
            <path id="Trazado_195375" data-name="Trazado 195375" d="M461.259,374.63l-.149,1.9h20.036l.135-1.9Z" transform="translate(-461.11 -267.477)" fill="#4dd0e1"/>
            <path id="Trazado_195376" data-name="Trazado 195376" d="M475.954,362.76l-.144,1.9h2.869l.144-1.9Z" transform="translate(-468.745 -261.312)" fill="url(#linear-gradient-119)"/>
          </g>
        </g>
        <g id="Grupo_141833" data-name="Grupo 141833" transform="translate(168.861 77.86)">
          <path id="Trazado_195378" data-name="Trazado 195378" d="M569.021,254.43H438.886a10.741,10.741,0,0,0,0,21.482h130.13a10.741,10.741,0,0,0,0-21.482Z" transform="translate(-428.15 -254.43)" fill="url(#linear-gradient-120)"/>
          <path id="Trazado_195379" data-name="Trazado 195379" d="M713.056,260.91a7.656,7.656,0,1,0,7.656,7.656A7.655,7.655,0,0,0,713.056,260.91Z" transform="translate(-572.156 -257.796)" fill="#0f2771"/>
        </g>
        <g id="Grupo_141836" data-name="Grupo 141836" transform="translate(112.862 44.387)">
          <path id="Trazado_195381" data-name="Trazado 195381" d="M360.833,184.78H315.21a3.583,3.583,0,0,0-3.58,3.58v28.533a3.583,3.583,0,0,0,3.58,3.58h45.618a3.583,3.583,0,0,0,3.58-3.58V188.36A3.573,3.573,0,0,0,360.833,184.78Z" transform="translate(-311.63 -184.78)" fill="#fff"/>
          <path id="Trazado_195382" data-name="Trazado 195382" d="M362.8,241.87H326.018a2.362,2.362,0,0,0-2.278,2.24,1.49,1.49,0,0,0,1.557,1.528h36.784a2.362,2.362,0,0,0,2.278-2.24A1.49,1.49,0,0,0,362.8,241.87Z" transform="translate(-317.92 -214.433)" fill="#3531a1"/>
          <path id="Trazado_195383" data-name="Trazado 195383" d="M363.462,227.8H326.678a2.362,2.362,0,0,0-2.278,2.24,1.49,1.49,0,0,0,1.557,1.528h36.784a2.362,2.362,0,0,0,2.278-2.24A1.49,1.49,0,0,0,363.462,227.8Z" transform="translate(-318.263 -207.125)" fill="#3531a1"/>
          <path id="Trazado_195384" data-name="Trazado 195384" d="M360.894,226.37a2.624,2.624,0,0,0-2.614,2.571,2.518,2.518,0,0,0,2.523,2.571,2.624,2.624,0,0,0,2.614-2.571A2.518,2.518,0,0,0,360.894,226.37Z" transform="translate(-335.86 -206.382)" fill="#0f2771"/>
          <path id="Trazado_195385" data-name="Trazado 195385" d="M381,240.44a2.678,2.678,0,0,0-2.658,2.571,2.468,2.468,0,0,0,2.48,2.571,2.678,2.678,0,0,0,2.658-2.571A2.468,2.468,0,0,0,381,240.44Z" transform="translate(-346.278 -213.69)" fill="#0f2771"/>
          <g id="Grupo_141834" data-name="Grupo 141834" transform="translate(30.796 3.672)">
            <path id="Trazado_195386" data-name="Trazado 195386" d="M383.775,193.79a6.719,6.719,0,0,0-6.695,6.68,6.451,6.451,0,0,0,6.474,6.464,6.768,6.768,0,0,0,4.926-2.172,6.657,6.657,0,0,0,1.764-4.508,6.474,6.474,0,0,0-6.474-6.464Zm3.907,10.294a5.25,5.25,0,0,1-3.9,1.7,5.586,5.586,0,0,1-4.061-1.793,5.524,5.524,0,0,1-1.461-3.739,5.275,5.275,0,0,1,5.3-5.315,5.534,5.534,0,0,1,5.522,5.532,5.347,5.347,0,0,1-1.394,3.614Z" transform="translate(-376.422 -193.132)" fill="url(#linear-gradient-121)"/>
            <path id="Trazado_195387" data-name="Trazado 195387" d="M383.073,192.42h-.5l-.476,2.47h.74a4.876,4.876,0,0,1,4.868,4.878,4.668,4.668,0,0,1-1.216,3.162,4.587,4.587,0,0,1-3.412,1.485,4.939,4.939,0,0,1-3.58-1.581,4.869,4.869,0,0,1-1.288-3.3V198.8l-2.494.461v.509a7.1,7.1,0,0,0,7.122,7.113,7.428,7.428,0,0,0,5.421-2.393,7.318,7.318,0,0,0,1.942-4.96,7.126,7.126,0,0,0-7.122-7.113Z" transform="translate(-375.71 -192.42)" fill="#4dd0e1"/>
          </g>
          <g id="Grupo_141835" data-name="Grupo 141835" transform="translate(10.761 3.672)">
            <path id="Trazado_195388" data-name="Trazado 195388" d="M340.485,193.79a6.439,6.439,0,0,0-6.459,6.68,6.723,6.723,0,0,0,6.7,6.464,6.515,6.515,0,0,0,4.849-2.172,6.44,6.44,0,0,0,1.61-4.508,6.755,6.755,0,0,0-6.7-6.464Zm4.268,10.289a5.066,5.066,0,0,1-3.845,1.7,5.8,5.8,0,0,1-4.123-1.793,5.73,5.73,0,0,1-1.591-3.739,5.057,5.057,0,0,1,5.113-5.311,5.772,5.772,0,0,1,5.714,5.532,5.134,5.134,0,0,1-1.269,3.609Z" transform="translate(-334.022 -193.132)" fill="url(#linear-gradient-122)"/>
            <path id="Trazado_195389" data-name="Trazado 195389" d="M346.5,192.42h-.524l-.389,2.47h.716a5.11,5.11,0,0,1,5.061,4.9,4.488,4.488,0,0,1-1.1,3.148,4.4,4.4,0,0,1-3.345,1.475H346.4l-.389,2.47h.716a7.106,7.106,0,0,0,7.127-7.367,7.41,7.41,0,0,0-7.348-7.094Z" transform="translate(-340.03 -192.42)" fill="url(#linear-gradient-123)"/>
          </g>
        </g>
        <g id="Grupo_141837" data-name="Grupo 141837" transform="translate(200.537 48.981)">
          <path id="Trazado_195392" data-name="Trazado 195392" d="M510.973,258.572c-4.095-24.207.279-46.122,9.953-55.552l-7.593.5-9.655,9.333-5.878,20.9,1.374,28.143,5.162,19.555,8.728,16.374,9.963,9.165,9.593,3,6.094-2.2c-12.26-5.685-23.635-24.967-27.74-49.217Z" transform="translate(-496.003 -198.848)" fill="#feca2e"/>
          <path id="Trazado_195393" data-name="Trazado 195393" d="M589.563,245.254c2.571,15.206,1.8,29.5-1.523,40.365a1.428,1.428,0,0,1-.053.154q-.469,1.528-1.009,2.96l-.173.461c-3.465,8.934-8.872,14.927-15.677,16.22h.067L557,307.144a23.971,23.971,0,0,0,5.6-2.312c11.674-7.473,17.292-31.676,12.865-57.868-3.206-18.959-10.857-34.872-19.9-43.638-.1-.091-.836-.788-1.11-1.033-.091-.082-.894-.774-1.206-1.028-.058-.048-1.672-1.288-2.437-1.793-.067-.043-.817-.514-1.129-.7-.1-.058-.192-.111-.288-.168-.288-.163-.572-.317-.86-.461-.1-.053-.894-.442-1.192-.567-.087-.038-.168-.077-.255-.111-.36-.154-.716-.3-1.076-.423a16.175,16.175,0,0,0-6.406-.99l14.855-1.716c14.821-.067,30.176,21.848,35.1,50.914Z" transform="translate(-517.719 -194.34)" fill="#feca2e"/>
          <path id="Trazado_195394" data-name="Trazado 195394" d="M514.317,198.057c-15.528,2.624-23.9,29.6-18.724,60.237s21.968,53.346,37.486,50.722,23.9-29.595,18.724-60.232S529.845,195.433,514.317,198.057Zm33.737,51.361c2.071,12.226,1.956,24.491-.327,34.545-2.134,9.41-5.979,16.345-10.847,19.531a11.8,11.8,0,0,1-4.436,1.783c-5.935,1-12.837-3.158-18.926-11.4-6.738-9.112-11.774-21.963-14.182-36.213-2.067-12.221-1.946-24.486.332-34.54,2.129-9.41,5.979-16.345,10.842-19.526a11.548,11.548,0,0,1,4.441-1.778c5.935-1.009,12.827,3.153,18.93,11.395,6.724,9.107,11.765,21.963,14.168,36.208Z" transform="translate(-494.061 -196.163)" fill="#feb12e"/>
          <path id="Trazado_195395" data-name="Trazado 195395" d="M626.684,353.921a5.635,5.635,0,0,0,.721,7.925l25.37,20.084,11.39-5.21L634.638,353.2A5.639,5.639,0,0,0,626.684,353.921Z" transform="translate(-562.271 -276.171)" fill="#feb12e"/>
          <path id="Trazado_195396" data-name="Trazado 195396" d="M670.932,386.024c-4.609,5.613-4.671,13.187-.125,16.922a.268.268,0,0,1,.038.024l22.285,18.69c-4.042-3.864-3.816-11.078.615-16.484,4.479-5.455,11.616-7.045,16.167-3.7-3.768-3.158-22.852-19.238-23.1-19.358-4.58-3.061-11.5-1.432-15.879,3.9Z" transform="translate(-584.113 -291.078)" fill="#feca2e"/>
          <path id="Trazado_195397" data-name="Trazado 195397" d="M756.724,424.8a6.171,6.171,0,0,0-.49-.433c-.1-.082-.2-.159-.317-.235l-.086-.058c.668.562,1.029.855.932.764a.221.221,0,0,0-.034-.034Z" transform="translate(-630.026 -313.664)" fill="#2b1bea"/>
          <path id="Trazado_195398" data-name="Trazado 195398" d="M735.506,422.937s-.346-.327-.524-.466a3.2,3.2,0,0,0-.317-.235c-4.546-3.431-11.746-1.85-16.254,3.638-4.436,5.4-4.662,12.62-.615,16.484.014.014.634.543.711.6,4.311,3.326,11.044,2.11,15.6-2.711.019-.029,1.158-1.384,1.225-1.475,3.965-5.3,4.037-12.111.178-15.831Z" transform="translate(-608.774 -311.771)" fill="#feb12e"/>
          <path id="Trazado_195399" data-name="Trazado 195399" d="M563.947,272.322a78.066,78.066,0,0,1-1.783,15.754c-2.139,9.42-5.983,16.354-10.852,19.541a12.225,12.225,0,0,1-1.562.87c-4.83-2.672-9.482-7.425-13.557-13.726q-1.1-1.7-2.148-3.556c-.279-.5-.557-1-.827-1.509q-.973-1.824-1.884-3.773a102.127,102.127,0,0,1-7.9-25.947c-3.907-23.116-.106-44.142,8.665-54.215,5.258.442,11.015,4.5,16.21,11.51,6.728,9.112,11.77,21.977,14.177,36.237.365,2.167.663,4.34.894,6.5.183,1.663.312,3.326.409,4.965.043.7.077,1.408.1,2.1q.1,2.653.053,5.248Z" transform="translate(-508.521 -200.271)" fill="#fff" opacity="0.6"/>
        </g>
        <path id="Trazado_195400" data-name="Trazado 195400" d="M562.22,277.387a55.338,55.338,0,0,0-2.538-8.78L561.264,264l-4.32-8.1h-2.836l.783,3.725a17.311,17.311,0,0,0-4.474-4.345l-.928-6.618L544.4,247.61H541.56l3.2,6.5a7.243,7.243,0,0,0-3.787,2.638L538.09,252h-2.835l-.043,6.6,2.576,5.469a38.294,38.294,0,0,0-.884,8.074l-3.157-.1H530.91l3.859,10.4,3.268,1.225a54.409,54.409,0,0,0,2.542,8.785L539,297.077l1.49,8.1h2.836l2.052-3.725a17.39,17.39,0,0,0,4.474,4.345l.928,6.618,2.259,1.052h2.835l-.365-6.5a7.161,7.161,0,0,0,3.782-2.648l.053,4.753h2.836l2.874-6.608L562.48,297a38.407,38.407,0,0,0,.884-8.074l.322.1h2.835l-1.024-10.4-3.268-1.235Zm-4.594,4.7c.831,8.449-1.85,14.605-5.993,13.75s-8.17-8.4-9-16.845,1.85-14.61,5.988-13.755S556.795,273.648,557.626,282.092Z" transform="translate(-312.664 -173.028)" fill="#0d0848"/>
        <path id="Trazado_195401" data-name="Trazado 195401" d="M559.385,277.387a55.338,55.338,0,0,0-2.538-8.78L558.429,264l-4.321-8.1-2.052,3.725a17.311,17.311,0,0,0-4.474-4.345l-.928-6.618-5.094-1.053.365,6.5a7.243,7.243,0,0,0-3.787,2.638L535.254,252l-2.879,6.6,2.576,5.469a38.3,38.3,0,0,0-.884,8.074l-3.157-.1,1.024,10.4,3.268,1.225a54.409,54.409,0,0,0,2.542,8.785l-1.581,4.609,4.325,8.1,2.052-3.725a17.39,17.39,0,0,0,4.474,4.345l.927,6.618,5.094,1.052-.365-6.5a7.162,7.162,0,0,0,3.782-2.648l2.888,4.753,2.874-6.608L559.644,297a38.4,38.4,0,0,0,.884-8.074l3.158.1-1.024-10.4-3.268-1.235Zm-4.594,4.7c.831,8.449-1.85,14.605-5.993,13.75s-8.17-8.4-9-16.845,1.85-14.61,5.988-13.755S553.959,273.648,554.791,282.092Z" transform="translate(-312.664 -173.028)" fill="#3531a1"/>
        <path id="Trazado_195402" data-name="Trazado 195402" d="M754.781,307.66H728.7a3.971,3.971,0,0,0-3.97,3.97v26.082a3.971,3.971,0,0,0,3.97,3.97h3.97l-2.268,7.372,11.342-7.372h13.043a3.971,3.971,0,0,0,3.97-3.97V311.63a3.971,3.971,0,0,0-3.97-3.97Z" transform="translate(-413.336 -204.218)" fill="url(#linear-gradient-124)"/>
        <g id="Grupo_141838" data-name="Grupo 141838" transform="translate(316.743 108.205)">
          <rect id="Rectángulo_44335" data-name="Rectángulo 44335" width="3.97" height="24.486" transform="translate(23.323 24.486) rotate(180)" fill="url(#linear-gradient-125)"/>
          <rect id="Rectángulo_44336" data-name="Rectángulo 44336" width="3.97" height="20.632" transform="translate(16.878 24.491) rotate(180)" fill="url(#linear-gradient-125)"/>
          <rect id="Rectángulo_44337" data-name="Rectángulo 44337" width="3.97" height="16.316" transform="translate(10.434 24.491) rotate(180)" fill="url(#linear-gradient-127)"/>
          <rect id="Rectángulo_44338" data-name="Rectángulo 44338" width="3.97" height="12.37" transform="translate(0 12.116)" fill="url(#linear-gradient-128)"/>
        </g>
        <g id="Grupo_141845" data-name="Grupo 141845" transform="translate(0 59.077)">
          <g id="Grupo_141839" data-name="Grupo 141839" transform="translate(66.326 26.274)">
            <path id="Trazado_195403" data-name="Trazado 195403" d="M217.63,270.052c3.22.524,11.207,5.527,16.206,21.737.606,1.966-6.531,5.267-9.751,2.023-8.641-8.718-12.269-24.7-6.454-23.756Z" transform="translate(-214.798 -270.016)" fill="#4dd0e1"/>
            <path id="Trazado_195404" data-name="Trazado 195404" d="M237,310.665c.4,1.49.851,3.21-1.572,5.974s-2.062,3.984-2.038,4.556-1.427.36-1.4-1.317l.014-1.389a9.961,9.961,0,0,1-1.557,1.158c-.586.288-1.3,1.788-2.47,1.629s-.509-1.322-.509-1.322-1.322,2.11-2.408,1.567.711-2.566,1.533-3.537.087-.851.087-.851-1.048.365-1.711.61-.178,3.864-1.821,3.114c-.668-.3-.014-3.7-.014-3.7s-.759-.2-.221-1.254,2.523-1.091,3.316-1.49,1.985-.058,2.288-.557-1.25-1.437-1.25-2.052c0-1.985,8.771-4.71,9.737-1.149Z" transform="translate(-218.912 -290.228)" fill="url(#linear-gradient-129)"/>
          </g>
          <path id="Trazado_195405" data-name="Trazado 195405" d="M306.36,343.283l-8.04-.192V339.9l8.04.428Z" transform="translate(-191.854 -280.04)" fill="#4dd0e1"/>
          <path id="Trazado_195406" data-name="Trazado 195406" d="M252.42,343.091l-42.47,9.645v-3.484l42.47-9.352Z" transform="translate(-145.954 -280.04)" fill="#0f2771"/>
          <path id="Trazado_195407" data-name="Trazado 195407" d="M260.46,346.732l-42.47,9.352-8.04.1,42.47-9.645Z" transform="translate(-145.954 -283.489)" fill="#0f2771"/>
          <path id="Trazado_195408" data-name="Trazado 195408" d="M215.838,362.39l4.643.1L206.1,414.616H203.03l6.19-50.635Z" transform="translate(-142.36 -291.722)" fill="#0f2771"/>
          <path id="Trazado_195409" data-name="Trazado 195409" d="M222.122,362.491l-14.379,52.125H206.19l11.289-52.226Z" transform="translate(-144.001 -291.722)" fill="#4dd0e1"/>
          <path id="Trazado_195410" data-name="Trazado 195410" d="M289.513,349.356l6.714,58.44h-3.09L278.81,350.928l6.046-1.668Z" transform="translate(-181.721 -284.902)" fill="#0f2771"/>
          <path id="Trazado_195411" data-name="Trazado 195411" d="M302.761,407.8H301.2L291.39,349.26l4.657.1Z" transform="translate(-188.255 -284.902)" fill="#4dd0e1"/>
          <path id="Trazado_195412" data-name="Trazado 195412" d="M80.317,292.593h0l7.723-4.023,35.967,3.484a6.01,6.01,0,0,1,5.935,5.051l6.916,40.36a6.016,6.016,0,0,1-5.935,6.978H89.972a6.019,6.019,0,0,1-5.93-5l-7.166-40.36a6.01,6.01,0,0,1,3.441-6.483Z" transform="translate(-76.789 -253.379)" fill="#0d0848"/>
          <path id="Trazado_195413" data-name="Trazado 195413" d="M99.557,287.12h41.2a6.01,6.01,0,0,1,5.935,5.051l6.916,40.36a6.016,6.016,0,0,1-5.935,6.978H106.722a6.019,6.019,0,0,1-5.93-5l-7.166-40.36a6.012,6.012,0,0,1,5.93-7.021Z" transform="translate(-85.489 -252.626)" fill="#1d1273"/>
          <rect id="Rectángulo_44339" data-name="Rectángulo 44339" width="59.367" height="3.504" transform="translate(56.96 101.402)" fill="#4dd0e1"/>
          <path id="Trazado_195414" data-name="Trazado 195414" d="M140.414,429.844,89.62,431.8v-3.374l50.794-2.086Z" transform="translate(-83.454 -324.938)" fill="#0f2771"/>
          <path id="Trazado_195415" data-name="Trazado 195415" d="M192.377,357c6.1,3.278,11.092,6.305,34.463,5.041,19.772-1.072,18.094-9.593,5.7-14.432a76.928,76.928,0,0,0-26.24-5.3c-11.025-.389-26.058,8.18-13.923,14.692Z" transform="translate(-134.49 -281.283)" fill="url(#linear-gradient-130)"/>
          <path id="Trazado_195416" data-name="Trazado 195416" d="M172.293,350.648c-1.677.293-5.123.394-7.43,2.441-1.615,1.437-2.465,14.413,7.036,15.321,10.2.98,15.768-1.624,16.374-3.753s-.1-16.792-15.98-14.014Z" transform="translate(-122.014 -285.439)" fill="url(#linear-gradient-131)"/>
          <path id="Trazado_195417" data-name="Trazado 195417" d="M180.428,264.039c-1.211-.159-6.291-1.086-9.29-.3-3.1.812-7.742.774-10.419,3.162s-1.346,21.862-.836,27.442c.471,5.171,2.163,14.322,2.163,14.322s8.151-4.4,17.066-2.461c8,1.745,10.083-2.067,14.49-4.753a24.637,24.637,0,0,0-2.432-6.2c-1.61-2.648-.971-5.243.971-11.4s.8-15.288-2.1-16.869c-4.359-2.369-5-2.345-9.612-2.946Z" transform="translate(-119.542 -240.32)" fill="#4dd0e1"/>
          <path id="Trazado_195418" data-name="Trazado 195418" d="M191.4,306.6c-1.317.5-2.6,1.081-3.95,1.49a24.332,24.332,0,0,1-6.152.774,83.178,83.178,0,0,1-11.217-.663,58.545,58.545,0,0,0-10.5.12c-.087-1.475-.173-3.085-.231-4.734,1.144-.072,2.283-.216,3.465-.312,2.619-.211,5.282-.014,7.911.01,5.484.048,11.1.336,16.571-.053a15.187,15.187,0,0,0,5.488-1.48,19.566,19.566,0,0,1-.5,2.014c-.332,1.048-.62,1.985-.87,2.84Z" transform="translate(-119.672 -260.225)" fill="#fff"/>
          <path id="Trazado_195419" data-name="Trazado 195419" d="M190.514,247.04a42.2,42.2,0,0,0-2.062,7.8c-.255,2.658-.067,13.336,7.118,11.919,8.136-1.605,1.389-15.4,1.389-15.4l-6.44-4.325Z" transform="translate(-134.755 -231.808)" fill="url(#linear-gradient-132)"/>
          <path id="Trazado_195420" data-name="Trazado 195420" d="M202.22,275.684s.73-3.643,2.235-4.561c1.312-.8,1.336-7.223,1.336-7.223C208.939,264.054,209.131,279.409,202.22,275.684Z" transform="translate(-141.939 -240.565)" fill="#4dd0e1"/>
          <path id="Trazado_195421" data-name="Trazado 195421" d="M190.685,273.913s-1.211-3.643-3.72-4.561c-2.182-.8-1.985-8.862-1.985-8.862-5.229.154-5.791,17.147,5.7,13.423Z" transform="translate(-131.13 -238.794)" fill="#4dd0e1"/>
          <path id="Trazado_195422" data-name="Trazado 195422" d="M207.442,229.315a24.8,24.8,0,0,1-.894,4.9c-.437,1.365-.649,5.979-1.61,7.411s-2.379,3.417-6.584,1.567-5.623-4.378-6.084-7.887.014-7.055.606-7.877,2.662-4.469,7.468-3.528c4.45.875,7.324,2.816,7.1,5.407Z" transform="translate(-136.675 -219.711)" fill="url(#linear-gradient-133)"/>
          <path id="Trazado_195423" data-name="Trazado 195423" d="M215.837,244.985a11.148,11.148,0,0,0,.937,2.513,1.458,1.458,0,0,1-1.5.226l.562-2.744Z" transform="translate(-148.717 -230.738)" fill="#e26c6c"/>
          <path id="Trazado_195424" data-name="Trazado 195424" d="M205.1,237.79a.411.411,0,0,0,.221-.067,3.583,3.583,0,0,1,2.437-.36.4.4,0,0,0,.12-.783,4.37,4.37,0,0,0-3.009.49.4.4,0,0,0,.226.726Z" transform="translate(-143.224 -226.34)" fill="#0d0848"/>
          <path id="Trazado_195425" data-name="Trazado 195425" d="M221.024,239.291a.394.394,0,0,0,.317-.63,2.332,2.332,0,0,0-2.028-1.067.4.4,0,0,0-.346.442.391.391,0,0,0,.437.346,1.592,1.592,0,0,1,1.307.759.389.389,0,0,0,.317.159Z" transform="translate(-150.636 -226.899)" fill="#0d0848"/>
          <path id="Trazado_195426" data-name="Trazado 195426" d="M211.762,254.879a3.837,3.837,0,0,1-2.191,1.4c-.644.058-2.451-1.48-2.451-1.749a1.662,1.662,0,0,1,.077-.538,11.862,11.862,0,0,0,3.883.841c.418.038.678.043.678.043Z" transform="translate(-144.484 -235.418)" fill="#0d0848"/>
          <path id="Trazado_195427" data-name="Trazado 195427" d="M207.2,253.99a13.678,13.678,0,0,0,3.845.836l-.471.764c-2.518-.091-3.451-.928-3.451-1.062A1.663,1.663,0,0,1,207.2,253.99Z" transform="translate(-144.484 -235.418)" fill="#fff"/>
          <path id="Trazado_195428" data-name="Trazado 195428" d="M206.345,241.9a1.613,1.613,0,0,1,.995-.106,1.82,1.82,0,0,1,.346.106.9.9,0,0,0-.567-1.5.9.9,0,0,0-1,.793.875.875,0,0,0,.236.7Z" transform="translate(-143.959 -228.358)" fill="#0d0848"/>
          <path id="Trazado_195429" data-name="Trazado 195429" d="M218.975,242.888a1.613,1.613,0,0,1,.995-.106,1.822,1.822,0,0,1,.346.106.912.912,0,0,0,.231-.495.907.907,0,0,0-1.8-.207.891.891,0,0,0,.235.706Z" transform="translate(-150.519 -228.872)" fill="#0d0848"/>
          <path id="Trazado_195430" data-name="Trazado 195430" d="M198.132,216.261c8.391-1.115,7.738,4.686,7.05,6.334a17.871,17.871,0,0,0-.961,3.96,15.225,15.225,0,0,0-.519-3.422s-3.119,1.264-5.517-.471c-2.73-1.975-4.561-1.134-5.065,1.149-1.394,6.315-3.071,4.272-3.148,3.845s-2.153-2.091-2.456.317c-.24,1.9,1.961,3.547,1.307,4.811-4.21,1.077-2.11-4.643-3.1-7.867s.649-2.312,2.211-7.108,6.084-1,10.2-1.552Z" transform="translate(-133.213 -215.346)" fill="#1d1273"/>
          <path id="Trazado_195431" data-name="Trazado 195431" d="M191.64,239.062c-.245-.466-1.9-1.648-2.389-.327a3.92,3.92,0,0,0,.971,4.426c1.528,1.326,1.956-3.081,1.418-4.1Z" transform="translate(-135.05 -227.179)" fill="url(#linear-gradient-134)"/>
          <g id="Grupo_141842" data-name="Grupo 141842" transform="translate(49.828 41.338)">
            <path id="Trazado_195432" data-name="Trazado 195432" d="M210.656,351.92a.172.172,0,0,1-.173.173H180.816a.345.345,0,0,1-.346-.346v-.827h30.181v1Z" transform="translate(-180.47 -327.102)" fill="#1d1273"/>
            <g id="Grupo_141840" data-name="Grupo 141840" transform="translate(2.826 23.352)">
              <path id="Trazado_195433" data-name="Trazado 195433" d="M187.407,350.065v.351H186.35v-.466h.942a.117.117,0,0,1,.115.115Z" transform="translate(-186.35 -349.95)" fill="#1d1273"/>
              <path id="Trazado_195434" data-name="Trazado 195434" d="M189.967,350.065v.351H188.91v-.466h.942a.117.117,0,0,1,.115.115Z" transform="translate(-187.68 -349.95)" fill="#1d1273"/>
              <path id="Trazado_195435" data-name="Trazado 195435" d="M192.517,350.065v.351H191.46v-.466h.942A.117.117,0,0,1,192.517,350.065Z" transform="translate(-189.004 -349.95)" fill="#1d1273"/>
              <path id="Trazado_195436" data-name="Trazado 195436" d="M203.167,350.065v.351H202.11v-.466h.942a.117.117,0,0,1,.115.115Z" transform="translate(-194.536 -349.95)" fill="#1d1273"/>
              <path id="Trazado_195437" data-name="Trazado 195437" d="M205.727,350.065v.351H204.67v-.466h.942A.117.117,0,0,1,205.727,350.065Z" transform="translate(-195.866 -349.95)" fill="#1d1273"/>
              <path id="Trazado_195438" data-name="Trazado 195438" d="M235.737,350.065v.351H234.68v-.466h.942A.117.117,0,0,1,235.737,350.065Z" transform="translate(-211.453 -349.95)" fill="#1d1273"/>
              <path id="Trazado_195439" data-name="Trazado 195439" d="M238.3,350.065v.351H237.24v-.466h.942A.117.117,0,0,1,238.3,350.065Z" transform="translate(-212.783 -349.95)" fill="#1d1273"/>
              <path id="Trazado_195440" data-name="Trazado 195440" d="M197.743,350.065v.351H194.1v-.466h3.528A.117.117,0,0,1,197.743,350.065Z" transform="translate(-190.375 -349.95)" fill="#1d1273"/>
              <path id="Trazado_195441" data-name="Trazado 195441" d="M243.8,350.065v.351H240.16v-.466h3.528A.117.117,0,0,1,243.8,350.065Z" transform="translate(-214.299 -349.95)" fill="#1d1273"/>
              <path id="Trazado_195442" data-name="Trazado 195442" d="M220.414,350.065v.351H207.77v-.466H220.3A.117.117,0,0,1,220.414,350.065Z" transform="translate(-197.476 -349.95)" fill="#1d1273"/>
            </g>
            <g id="Grupo_141841" data-name="Grupo 141841" transform="translate(31.921 23.347)">
              <path id="Trazado_195443" data-name="Trazado 195443" d="M247.005,349.945h2.566a.263.263,0,0,1,.264.26v.2H246.89v-.351a.117.117,0,0,1,.115-.115Z" transform="translate(-246.89 -349.94)" fill="url(#linear-gradient-135)"/>
              <path id="Trazado_195444" data-name="Trazado 195444" d="M254.385,349.945h2.566a.263.263,0,0,1,.264.26v.2H254.27v-.351a.117.117,0,0,1,.115-.115Z" transform="translate(-250.723 -349.94)" fill="url(#linear-gradient-136)"/>
              <path id="Trazado_195445" data-name="Trazado 195445" d="M261.765,349.945h2.566a.263.263,0,0,1,.264.26v.2H261.65v-.351a.117.117,0,0,1,.115-.115Z" transform="translate(-254.556 -349.94)" fill="url(#linear-gradient-137)"/>
              <path id="Trazado_195446" data-name="Trazado 195446" d="M269.145,349.945h2.566a.263.263,0,0,1,.264.26v.2H269.03v-.351a.117.117,0,0,1,.115-.115Z" transform="translate(-258.39 -349.94)" fill="url(#linear-gradient-138)"/>
              <path id="Trazado_195447" data-name="Trazado 195447" d="M277.835,349.945h1.341a.263.263,0,0,1,.264.26v.2h-1.72v-.351a.117.117,0,0,1,.115-.115Z" transform="translate(-262.903 -349.94)" fill="url(#linear-gradient-139)"/>
              <path id="Trazado_195448" data-name="Trazado 195448" d="M282.185,349.945h1.341a.263.263,0,0,1,.264.26v.2H282.07v-.351a.117.117,0,0,1,.115-.115Z" transform="translate(-265.163 -349.94)" fill="url(#linear-gradient-140)"/>
              <path id="Trazado_195449" data-name="Trazado 195449" d="M286.275,349.945h1.341a.263.263,0,0,1,.264.26v.2h-1.72v-.351a.117.117,0,0,1,.115-.115Z" transform="translate(-267.287 -349.94)" fill="url(#linear-gradient-141)"/>
            </g>
            <path id="Trazado_195450" data-name="Trazado 195450" d="M233.943,302.96c.231-.942.606-1.6,1.572-1.6l-5.988,24.851a1.36,1.36,0,0,1-.875-1.644c.24-1.062,4.042-16.532,5.286-21.607Z" transform="translate(-205.473 -301.36)" fill="#1d1273"/>
            <path id="Trazado_195451" data-name="Trazado 195451" d="M235.662,301.36h31.6a.68.68,0,0,1,.658.846L262.1,325.178H228.89l5.844-23.092a.957.957,0,0,1,.928-.721Z" transform="translate(-205.62 -301.36)" fill="#3531a1"/>
            <path id="Trazado_195452" data-name="Trazado 195452" d="M261.938,351.92a.172.172,0,0,1-.173.173h-32.6a.344.344,0,0,1-.341-.346v-.827h33.118v1Z" transform="translate(-205.583 -327.102)" fill="#3531a1"/>
          </g>
          <path id="Trazado_195453" data-name="Trazado 195453" d="M250.512,382.9l2.225,12.62c.437,2.662-1.264,6.281-3.96,6.329l-61.41.038-3.417-22.7h62.193a4.419,4.419,0,0,1,4.364,3.705Z" transform="translate(-132.449 -300.448)" fill="#3531a1"/>
          <path id="Trazado_195454" data-name="Trazado 195454" d="M98.3,388.135l36.9-8.7a6.41,6.41,0,0,1,8.074,5.272l1.432,11.438a5.044,5.044,0,0,1-4.777,5.748L92.62,403.937,94.836,392.7a4.739,4.739,0,0,1,3.46-4.561Z" transform="translate(-85.012 -300.449)" fill="#3531a1"/>
          <path id="Trazado_195455" data-name="Trazado 195455" d="M181.845,341.323l-8.035-.192V337.94l8.035.423Z" transform="translate(-127.183 -279.022)" fill="#4dd0e1"/>
          <path id="Trazado_195456" data-name="Trazado 195456" d="M126.819,341.131,83.34,351.719v-3.484l43.479-10.294Z" transform="translate(-80.192 -279.022)" fill="#0f2771"/>
          <g id="Grupo_141843" data-name="Grupo 141843" transform="translate(85.675 112.307)">
            <path id="Trazado_195457" data-name="Trazado 195457" d="M257.078,449.03a17.166,17.166,0,0,0-2.018,8.4,13.191,13.191,0,0,0,.12,1.788s.98,1.24,5.008.918,12.183,1.163,17.172-1.721l.284-1.72s.192-1.557-7.752-2.355c-5.647-.567-3.186-4.892-3.186-4.892l-9.621-.413Z" transform="translate(-255.06 -449.03)" fill="#0d0848"/>
            <path id="Trazado_195458" data-name="Trazado 195458" d="M259.948,466.768c3.883-.183,11.943,1.451,17.7-1.788l.284,2.288c-4.989,2.879-13.711,1.4-17.739,1.721s-5.008-.918-5.008-.918a20.691,20.691,0,0,1-.115-2.326C255.5,466.071,256.843,466.912,259.948,466.768Z" transform="translate(-255.065 -457.315)" fill="url(#linear-gradient-142)"/>
          </g>
          <path id="Trazado_195459" data-name="Trazado 195459" d="M277.075,366.274c.918,2.956-7.728,39.255-7.646,42.032,0,0-7.267,1.2-13.529-1.423,0,0,5.608-34.4,7.858-37.419,2.057-2.763,11.284-9.751,13.317-3.191Z" transform="translate(-169.821 -292.323)" fill="url(#linear-gradient-143)"/>
          <path id="Trazado_195460" data-name="Trazado 195460" d="M269.222,377.35s-3.037,30.623-3.768,36.808l-.634-.106c.721-6.137,3.681-31.806,4.4-36.7Z" transform="translate(-174.454 -299.492)" fill="#fff"/>
          <g id="Grupo_141844" data-name="Grupo 141844" transform="translate(62.516 113.455)">
            <path id="Trazado_195461" data-name="Trazado 195461" d="M216.6,452.7s.332,2.946.779,5.1,2.557,2.3,2.787,3.806c.269,1.74-.865,1.754-.865,1.754s-2.538,1.283-7.8.332c-3.057-.553-1.591-2.143-3.835-3.47-.687-.409-.846-.457-.779-1.2.154-1.692,1.49-4.032.509-6.031,0,0,7.372-3.326,9.2-.288Z" transform="translate(-206.876 -451.419)" fill="#0d0848"/>
            <path id="Trazado_195462" data-name="Trazado 195462" d="M207.351,467.6c2.307,1.254.8,2.278,3.931,2.8,5.387.9,8.574-.312,8.574-.312s.178-.034.288-.332c0,.019.019.038.019.058.269,1.74-.3,2.321-.3,2.321s-3.1,1.283-8.362.332c-3.057-.553-1.591-2.143-3.835-3.47a1.658,1.658,0,0,1-.779-1.769,1.6,1.6,0,0,0,.461.375Z" transform="translate(-206.871 -459.631)" fill="url(#linear-gradient-144)"/>
          </g>
          <path id="Trazado_195463" data-name="Trazado 195463" d="M177.845,364.89A47.361,47.361,0,0,0,184.914,361c2.038-1.62,10.578-2.427,10.8,7.584s5.681,28.682,6.82,37.313a19.651,19.651,0,0,0-5.935.658c-4.075.9-4.494,1.86-4.494,1.86S182.036,386,182.036,376.828s-4.2-11.933-4.2-11.933Z" transform="translate(-129.276 -290.493)" fill="url(#linear-gradient-145)"/>
          <path id="Trazado_195464" data-name="Trazado 195464" d="M186.176,383.714c.9,4.013,2.864,12.38,4.306,16.028,1.937,4.9,6.031,17.21,6.075,17.335l-.61.2c-.038-.125-4.133-12.418-6.06-17.3-1.437-3.633-4.623-16.624-5.546-20.718C184.551,379.177,186,383.844,186.176,383.714Z" transform="translate(-132.652 -300.483)" fill="#fff"/>
          <path id="Trazado_195465" data-name="Trazado 195465" d="M134.855,344.772,91.38,355.066l-8.04.1,43.479-10.587Z" transform="translate(-80.192 -282.471)" fill="#0f2771"/>
          <path id="Trazado_195466" data-name="Trazado 195466" d="M169.213,346.641l6.858,59.742h-3.153L158.27,348.246l6.18-1.706Z" transform="translate(-119.111 -283.489)" fill="#0f2771"/>
          <path id="Trazado_195467" data-name="Trazado 195467" d="M182.751,406.383h-1.6L171.13,346.54l4.763.1Z" transform="translate(-125.791 -283.489)" fill="#4dd0e1"/>
          <path id="Trazado_195468" data-name="Trazado 195468" d="M92.344,361.22l4.767.1L82.357,413.9H79.2l6.964-50.957Z" transform="translate(-78.041 -291.114)" fill="#0f2771"/>
          <path id="Trazado_195469" data-name="Trazado 195469" d="M98.8,361.321,84.046,413.9h-1.6L94.032,361.22Z" transform="translate(-79.729 -291.114)" fill="#4dd0e1"/>
          <path id="Trazado_195470" data-name="Trazado 195470" d="M147.875,328.713c2.667,2.513,9.626,3.734,21.117,3.119,11.539-.62,12.543,1.615,17.743-1.168a2.007,2.007,0,0,0-.706-2.2,1.5,1.5,0,0,0-.73-2.1c-1.461-.654.673-1.451-2.893-2.835s-4.032,2.379-8.506,1.927-16.907-3.5-19.353-3.576-9.026,4.618-6.675,6.829Z" transform="translate(-113.45 -270.68)" fill="url(#linear-gradient-146)"/>
          <path id="Trazado_195471" data-name="Trazado 195471" d="M155.937,267.658c-3.431.3-7.142,3.081-9.352,13.159-1.1,5.013-3.643,20.3,1.115,22.232,4.412,1.788,8.18,2.6,10.285.658,2.528-2.336,2.908-7.814,2.389-9.275-.389-1.105-4.936-.572-4.551-1.672a44.277,44.277,0,0,0,1.821-7.752s4.21-17.859-1.711-17.349Z" transform="translate(-112.174 -242.512)" fill="#4dd0e1"/>
        </g>
      </g>
    </g>
  </g>
</svg>
