<svg xmlns="http://www.w3.org/2000/svg" width="610" height="340" viewBox="0 0 610 340">
  <g id="Grupo_146517" data-name="Grupo 146517" transform="translate(-4065.685 -3295)">
    <g id="Grupo_141520" data-name="Grupo 141520" transform="translate(0 352)">
      <g id="Grupo_141519" data-name="Grupo 141519" transform="translate(3255.685 217)">
        <g id="Rectángulo_44266" data-name="Rectángulo 44266" transform="translate(810 2726)" fill="#fff" stroke="#707070" stroke-width="1">
          <path d="M20,0H590a20,20,0,0,1,20,20V340a0,0,0,0,1,0,0H0a0,0,0,0,1,0,0V20A20,20,0,0,1,20,0Z" stroke="none"/>
          <path d="M20,.5H590A19.5,19.5,0,0,1,609.5,20V339.5a0,0,0,0,1,0,0H.5a0,0,0,0,1,0,0V20A19.5,19.5,0,0,1,20,.5Z" fill="none"/>
        </g>
      </g>
      <g id="_1_1_tarjetaA" data-name="1_1_tarjetaA" transform="translate(4188.675 2947.989)">
        <g id="Grupo_141404" data-name="Grupo 141404" transform="translate(90.831 98.961)">
          <path id="Trazado_193985" data-name="Trazado 193985" d="M148.006,185.8a11.381,11.381,0,0,1,2.766-1.2l.569-2.741,4.631-.081.665,2.716a11.142,11.142,0,0,1,2.807,1.1l2.338-1.532,3.331,3.215-1.451,2.394a11.38,11.38,0,0,1,1.2,2.766l2.741.569.081,4.631-2.716.665a11.217,11.217,0,0,1-1.1,2.807l1.532,2.338-3.215,3.331-2.394-1.451a11.38,11.38,0,0,1-2.766,1.2l-.569,2.741-4.631.081-.665-2.716a11.413,11.413,0,0,1-2.807-1.1l-2.338,1.532-3.331-3.215,1.451-2.394a11.381,11.381,0,0,1-1.2-2.766l-2.741-.569-.081-4.631,2.716-.665a11.411,11.411,0,0,1,1.1-2.807l-1.532-2.338,3.215-3.331,2.394,1.451Zm2.469,6.168a4.966,4.966,0,1,0,7.024-.126A4.972,4.972,0,0,0,150.475,191.964Z" transform="translate(-139.994 -181.689)" fill="#e1e1e1"/>
          <path id="Trazado_193986" data-name="Trazado 193986" d="M159.222,200.409a3.753,3.753,0,0,1,.927-.811,4.967,4.967,0,0,1,3.24-.766,5.027,5.027,0,0,1,3.981,2.787,4.984,4.984,0,0,1,.454,1.4,4.84,4.84,0,0,1,.03,1.527,5.079,5.079,0,0,1-4.193,4.344,5.1,5.1,0,0,1-2.938-.378,5.074,5.074,0,0,1-2.066-1.708,5.024,5.024,0,0,1-.207-5.437,3.817,3.817,0,0,1,.776-.952c.025.025-.3.328-.68,1.008A4.952,4.952,0,0,0,158,204.6a4.855,4.855,0,0,0,2.832,3.673,4.567,4.567,0,0,0,1.335.373,4.5,4.5,0,0,0,1.446-.03,4.8,4.8,0,0,0,3.961-4.1,4.878,4.878,0,0,0-.438-2.771,4.933,4.933,0,0,0-1.673-1.925,4.825,4.825,0,0,0-2.1-.781,4.964,4.964,0,0,0-3.159.66c-.67.408-.957.746-.983.716Z" transform="translate(-148.745 -190.14)" fill="#e1e1e1"/>
          <path id="Trazado_193987" data-name="Trazado 193987" d="M147.892,185.717l-.156-.081c-.111-.066-.262-.151-.459-.267-.418-.247-1.023-.6-1.8-1.063h.055c-.816.852-1.895,1.98-3.195,3.341l.01-.091c.469.705.988,1.492,1.542,2.333l.03.04-.025.045a11.346,11.346,0,0,0-1.088,2.792l-.015.055-.055.015c-.847.212-1.764.438-2.716.675l.076-.1c.03,1.456.06,3,.091,4.626l-.091-.106c.847.176,1.784.368,2.741.564l.071.015.02.071a11.131,11.131,0,0,0,1.194,2.736l.04.066-.04.066c-.448.741-.942,1.562-1.446,2.394l-.02-.156c1.048,1.008,2.177,2.1,3.336,3.21l-.166-.015c.731-.479,1.527-1,2.338-1.537l.071-.045.071.04a11.347,11.347,0,0,0,2.777,1.088l.081.02.02.081c.212.852.438,1.779.67,2.716l-.136-.106c1.466-.025,3.039-.055,4.631-.086l-.136.111c.181-.867.373-1.8.569-2.741l.015-.086.081-.025a11.248,11.248,0,0,0,2.731-1.184h0l.076-.045.071.045c.8.489,1.6.973,2.394,1.451l-.176.025q1.633-1.686,3.215-3.331l-.015.176c-.514-.786-1.028-1.567-1.532-2.338l-.045-.071.04-.076a11.216,11.216,0,0,0,1.093-2.771l.02-.081.081-.02c.917-.227,1.824-.443,2.716-.665l-.1.136q-.038-2.373-.076-4.631l.106.126c-.927-.2-1.844-.388-2.741-.574l-.076-.015-.02-.076a11.217,11.217,0,0,0-1.184-2.741l-.04-.066.04-.066c.5-.821.983-1.612,1.456-2.389l.02.146c-1.169-1.134-2.273-2.2-3.326-3.22l.136.015c-.826.539-1.6,1.043-2.343,1.527l-.05.035-.055-.03a11.335,11.335,0,0,0-2.782-1.1l-.055-.015-.015-.055c-.237-.988-.454-1.88-.655-2.721l.086.066c-1.794.025-3.321.045-4.631.06l.06-.05c-.237,1.093-.428,1.99-.59,2.736v.025l-.03.005a11.647,11.647,0,0,0-2.116.816c-.212.111-.378.2-.5.262a1.149,1.149,0,0,1-.166.086,1.757,1.757,0,0,1,.156-.106c.106-.066.267-.161.489-.282a11.07,11.07,0,0,1,2.111-.862l-.03.035c.151-.751.333-1.648.554-2.741l.01-.05h.05c1.31-.03,2.837-.065,4.631-.1h.066l.015.066c.207.842.428,1.728.675,2.716l-.071-.071a11.315,11.315,0,0,1,2.837,1.109h-.106c.746-.484,1.512-.993,2.338-1.537l.071-.045.06.06q1.58,1.519,3.336,3.21l.071.066-.05.081q-.7,1.164-1.446,2.394v-.126a11.42,11.42,0,0,1,1.219,2.8l-.1-.091q1.345.28,2.741.564l.1.02v.106q.045,2.26.086,4.631v.106l-.106.025q-1.338.333-2.716.67l.1-.1a11.5,11.5,0,0,1-1.119,2.842v-.146c.5.771,1.013,1.552,1.527,2.338l.06.1-.081.081q-1.587,1.64-3.215,3.331l-.081.081-.1-.06-2.394-1.451h.146a11.354,11.354,0,0,1-2.8,1.214l.1-.106c-.2.942-.388,1.875-.569,2.741l-.025.111h-.111c-1.592.03-3.165.055-4.631.081h-.111l-.025-.106c-.232-.937-.459-1.864-.665-2.716l.1.1a11.686,11.686,0,0,1-2.842-1.119h.141c-.811.524-1.612,1.048-2.343,1.527l-.091.06-.076-.076c-1.154-1.119-2.283-2.207-3.326-3.22l-.076-.071.05-.086c.5-.831,1-1.648,1.451-2.389v.126a11.332,11.332,0,0,1-1.209-2.8l.091.081c-.957-.2-1.89-.4-2.736-.574l-.086-.02v-.091c-.025-1.623-.05-3.17-.071-4.631v-.081l.076-.02c.952-.232,1.875-.454,2.721-.66l-.071.071a11.458,11.458,0,0,1,1.124-2.827v.086c-.544-.847-1.058-1.633-1.522-2.343l-.03-.05.04-.04c1.315-1.35,2.409-2.464,3.235-3.311l.025-.025.03.02c.766.474,1.355.842,1.764,1.1l.454.287a1.064,1.064,0,0,1,.151.106Z" transform="translate(-139.88 -181.61)" fill="#e1e1e1"/>
        </g>
        <g id="Grupo_141405" data-name="Grupo 141405" transform="translate(229.94 133.464)">
          <path id="Trazado_193988" data-name="Trazado 193988" d="M420.817,252.6a6.891,6.891,0,0,1,1.658-.721l.343-1.638,2.771-.05.4,1.628a6.756,6.756,0,0,1,1.683.66l1.4-.917,2,1.925-.867,1.431a6.894,6.894,0,0,1,.721,1.658l1.638.343.05,2.771-1.628.4a6.755,6.755,0,0,1-.66,1.683l.917,1.4-1.925,2-1.431-.867a6.893,6.893,0,0,1-1.658.721l-.343,1.638-2.771.05-.4-1.628a6.757,6.757,0,0,1-1.683-.66l-1.4.917-2-1.925.867-1.431a6.891,6.891,0,0,1-.721-1.658l-1.638-.343-.05-2.771,1.628-.4a6.757,6.757,0,0,1,.66-1.683l-.917-1.4,1.925-2,1.431.867h0Zm1.476,3.694a2.972,2.972,0,1,0,4.2-.076A2.97,2.97,0,0,0,422.293,256.292Z" transform="translate(-416.014 -250.135)" fill="#f5f5f5"/>
          <path id="Trazado_193989" data-name="Trazado 193989" d="M427.532,261.345a2.3,2.3,0,0,1,.554-.484,3.006,3.006,0,0,1,3.26.01,3.1,3.1,0,0,1,1.068,1.2,2.91,2.91,0,0,1,.272.836,2.8,2.8,0,0,1,.015.917,3.044,3.044,0,0,1-.826,1.713,3.088,3.088,0,0,1-1.683.887,2.807,2.807,0,0,1-.917.015,2.9,2.9,0,0,1-.842-.242,3.087,3.087,0,0,1-1.24-1.023,2.946,2.946,0,0,1-.514-1.3,2.994,2.994,0,0,1,.388-1.955,2.222,2.222,0,0,1,.464-.569,7.1,7.1,0,0,0-.408.6,2.994,2.994,0,0,0-.328,1.9,2.9,2.9,0,0,0,1.7,2.2,2.907,2.907,0,0,0,1.668.2,2.884,2.884,0,0,0,2.368-2.459,2.775,2.775,0,0,0-.01-.867,2.743,2.743,0,0,0-.252-.791,2.936,2.936,0,0,0-4.147-1.23C427.723,261.159,427.547,261.361,427.532,261.345Z" transform="translate(-421.253 -255.193)" fill="#f5f5f5"/>
          <path id="Trazado_193990" data-name="Trazado 193990" d="M420.742,252.544s-.03-.015-.091-.05-.156-.091-.272-.161c-.252-.146-.61-.363-1.078-.635h.035c-.489.509-1.134,1.184-1.915,2v-.055c.287.423.595.892.927,1.4l.015.025-.015.025a6.845,6.845,0,0,0-.65,1.668l-.01.035-.035.01c-.509.126-1.053.262-1.628.4l.045-.06c.015.872.035,1.8.055,2.771l-.055-.066c.509.106,1.068.222,1.643.338l.04.01.01.04a6.61,6.61,0,0,0,.716,1.638l.025.04-.025.04c-.267.443-.564.932-.867,1.431l-.01-.1c.625.6,1.305,1.255,2,1.925l-.1-.01,1.4-.917.04-.025.04.025a6.686,6.686,0,0,0,1.663.65l.05.01.01.05c.126.509.262,1.063.4,1.628l-.081-.066c.877-.015,1.819-.03,2.772-.05l-.081.066c.106-.519.222-1.078.343-1.638l.01-.05.05-.015a6.8,6.8,0,0,0,1.633-.711h0l.045-.025.045.025c.479.292.957.579,1.431.867l-.106.015c.65-.675,1.3-1.34,1.925-2l-.01.106c-.307-.474-.615-.937-.917-1.4l-.03-.04.025-.045a6.844,6.844,0,0,0,.655-1.658l.01-.05.05-.01c.549-.136,1.093-.267,1.628-.4l-.06.081c-.015-.947-.03-1.87-.045-2.771l.06.076-1.638-.343-.045-.01-.01-.045a6.631,6.631,0,0,0-.711-1.638l-.025-.04.025-.04.872-1.431.01.086c-.7-.68-1.361-1.32-1.99-1.93l.081.01c-.494.323-.957.625-1.4.912l-.03.02-.03-.02a6.76,6.76,0,0,0-1.663-.66l-.035-.01-.01-.03c-.141-.59-.272-1.124-.393-1.628l.05.04c-1.073.015-1.99.025-2.771.035l.035-.03c-.141.655-.257,1.189-.353,1.638v.015h-.02a6.565,6.565,0,0,0-1.265.489c-.126.066-.227.116-.3.156s-.1.05-.1.05a.727.727,0,0,1,.091-.06c.066-.04.161-.1.292-.166a6.478,6.478,0,0,1,1.265-.514l-.02.02c.091-.448.2-.988.333-1.643v-.03h.035c.781-.015,1.7-.035,2.772-.06h.04l.01.04c.126.5.257,1.033.4,1.628l-.04-.04a6.909,6.909,0,0,1,1.7.66h-.066c.443-.292.907-.595,1.4-.917l.045-.03.035.035c.63.61,1.3,1.245,2,1.92l.04.04-.03.05c-.282.464-.569.942-.867,1.431v-.076a6.93,6.93,0,0,1,.731,1.673l-.055-.055,1.643.338.06.015v.06c.02.9.035,1.824.05,2.771v.065l-.06.015c-.534.131-1.078.267-1.628.4l.06-.06a7.005,7.005,0,0,1-.67,1.7v-.086c.3.464.6.927.917,1.4l.035.055-.045.05q-.952.983-1.925,2l-.045.05-.06-.035c-.474-.287-.952-.574-1.431-.867h.086a6.769,6.769,0,0,1-1.678.726l.06-.065c-.116.564-.232,1.124-.343,1.638l-.015.065h-.065c-.952.015-1.895.035-2.771.05h-.066l-.015-.066c-.136-.559-.272-1.119-.4-1.628l.06.06a7.1,7.1,0,0,1-1.7-.67h.086c-.484.312-.962.63-1.4.912l-.055.035-.045-.045c-.69-.67-1.366-1.32-1.99-1.925l-.045-.04.03-.05c.3-.5.6-.988.872-1.431v.076a6.907,6.907,0,0,1-.726-1.678l.055.05-1.638-.343-.05-.01v-.055c-.015-.973-.03-1.9-.045-2.771v-.05l.045-.01c.569-.136,1.119-.272,1.628-.393l-.04.04a6.984,6.984,0,0,1,.67-1.693v.05c-.328-.5-.635-.978-.912-1.406l-.02-.03.025-.025c.786-.806,1.441-1.476,1.935-1.98l.015-.015.02.01c.459.287.811.5,1.053.655.116.076.207.131.272.171l.091.06Z" transform="translate(-415.94 -250.08)" fill="#f5f5f5"/>
        </g>
        <g id="Grupo_141406" data-name="Grupo 141406" transform="translate(250.323 31.01)">
          <path id="Trazado_193991" data-name="Trazado 193991" d="M462.652,50.019a8.767,8.767,0,0,1,2.132-.927l.438-2.111,3.568-.06.514,2.1a8.93,8.93,0,0,1,2.167.852l1.8-1.184,2.565,2.479-1.119,1.844a8.767,8.767,0,0,1,.927,2.132l2.111.438.06,3.568-2.1.514a8.93,8.93,0,0,1-.852,2.167l1.179,1.8-2.479,2.565-1.844-1.119A8.767,8.767,0,0,1,469.6,66l-.438,2.111-3.568.06-.514-2.1a8.931,8.931,0,0,1-2.167-.852l-1.8,1.184-2.565-2.479,1.119-1.844a8.765,8.765,0,0,1-.927-2.132l-2.111-.438-.06-3.568,2.1-.514a8.93,8.93,0,0,1,.852-2.167l-1.179-1.8,2.479-2.565,1.844,1.119Zm1.9,4.752a3.827,3.827,0,1,0,5.412-.1,3.828,3.828,0,0,0-5.412.1Z" transform="translate(-456.474 -46.839)" fill="#f5f5f5"/>
          <path id="Trazado_193992" data-name="Trazado 193992" d="M471.3,61.293a2.93,2.93,0,0,1,.711-.625,3.867,3.867,0,0,1,4.2.015,3.916,3.916,0,0,1,1.371,1.547,3.674,3.674,0,0,1,.348,1.073,3.554,3.554,0,0,1,.02,1.179,3.9,3.9,0,0,1-3.23,3.346,3.711,3.711,0,0,1-1.179.02,3.612,3.612,0,0,1-1.088-.312,3.935,3.935,0,0,1-1.592-1.315,3.861,3.861,0,0,1-.156-4.187,2.866,2.866,0,0,1,.6-.736,8.718,8.718,0,0,0-.524.776,3.807,3.807,0,0,0-.423,2.449A3.724,3.724,0,0,0,471,66.116a3.78,3.78,0,0,0,1.527,1.24,3.528,3.528,0,0,0,1.033.287,3.45,3.45,0,0,0,1.114-.025,3.705,3.705,0,0,0,3.054-3.159,3.732,3.732,0,0,0-.338-2.132,3.734,3.734,0,0,0-2.908-2.081,3.816,3.816,0,0,0-2.434.509,8.425,8.425,0,0,0-.756.554Z" transform="translate(-463.218 -53.357)" fill="#f5f5f5"/>
          <path id="Trazado_193993" data-name="Trazado 193993" d="M462.568,49.94l-.121-.06c-.086-.05-.2-.116-.353-.207-.323-.191-.786-.464-1.391-.821h.045c-.63.655-1.461,1.527-2.464,2.575v-.071c.368.544.766,1.149,1.194,1.8l.02.03-.02.035a8.54,8.54,0,0,0-.836,2.152l-.01.04-.04.01-2.091.519.06-.076q.03,1.686.071,3.568l-.071-.081c.655.136,1.376.282,2.111.433l.055.01.015.05a8.741,8.741,0,0,0,.922,2.111l.03.05-.03.05c-.348.569-.726,1.2-1.114,1.844l-.015-.121c.806.776,1.678,1.618,2.57,2.474l-.126-.01c.559-.368,1.179-.771,1.8-1.184l.05-.035.055.03a8.746,8.746,0,0,0,2.137.842l.06.015.015.06c.161.655.338,1.371.514,2.1l-.106-.081c1.129-.02,2.338-.04,3.568-.066l-.106.086c.136-.665.287-1.386.438-2.111l.015-.066.065-.02A8.635,8.635,0,0,0,471.6,64.9h0l.055-.035.055.035q.93.559,1.844,1.119l-.136.015q1.255-1.3,2.479-2.565l-.015.136c-.4-.6-.791-1.209-1.179-1.8l-.035-.055.03-.055a8.69,8.69,0,0,0,.842-2.137l.015-.06.06-.015c.711-.171,1.406-.343,2.1-.514l-.081.1q-.03-1.829-.06-3.568l.081.1c-.716-.151-1.421-.3-2.111-.443l-.06-.01-.015-.055a8.6,8.6,0,0,0-.912-2.111l-.03-.05.03-.05c.383-.63.756-1.245,1.119-1.839l.015.111q-1.353-1.308-2.56-2.484l.106.01c-.635.413-1.23.8-1.8,1.179l-.04.025-.04-.025A8.739,8.739,0,0,0,469.2,49l-.04-.01-.01-.04c-.186-.761-.348-1.446-.509-2.1l.065.05c-1.381.02-2.56.035-3.568.045l.045-.04c-.181.842-.328,1.532-.454,2.106v.02l-.025.005a9.093,9.093,0,0,0-1.633.63c-.166.086-.292.151-.383.2a.941.941,0,0,1-.126.066s.04-.03.121-.081.207-.126.378-.217a8.774,8.774,0,0,1,1.628-.665l-.025.025c.116-.574.257-1.27.423-2.116l.01-.04h.04c1.008-.025,2.187-.05,3.568-.081h.05l.015.05c.161.645.333,1.33.519,2.091l-.05-.05a9.029,9.029,0,0,1,2.187.852h-.081c.574-.373,1.169-.766,1.8-1.184l.055-.035.05.045c.811.781,1.668,1.6,2.57,2.474l.05.05-.04.06c-.363.6-.731,1.214-1.114,1.844v-.1a8.828,8.828,0,0,1,.942,2.157l-.076-.071c.69.141,1.4.287,2.111.438l.081.015v.081q.038,1.738.066,3.568v.086l-.081.02c-.69.171-1.386.343-2.1.514l.076-.076a8.856,8.856,0,0,1-.862,2.192v-.111c.388.595.781,1.194,1.179,1.8l.045.071-.06.06q-1.225,1.262-2.479,2.57l-.06.066-.076-.045q-.915-.552-1.844-1.119h.116a8.782,8.782,0,0,1-2.157.937l.076-.081c-.151.726-.3,1.446-.438,2.111l-.02.086h-.086c-1.23.02-2.439.045-3.568.06h-.086l-.02-.081c-.176-.721-.353-1.441-.514-2.1l.076.076a9.118,9.118,0,0,1-2.192-.862h.106c-.625.4-1.245.806-1.8,1.174l-.071.045-.06-.055c-.892-.862-1.759-1.7-2.565-2.479l-.055-.055.04-.066c.388-.64.771-1.27,1.119-1.839v.1a8.958,8.958,0,0,1-.932-2.157l.071.066c-.736-.156-1.456-.307-2.111-.443l-.065-.015v-.071c-.02-1.25-.04-2.444-.055-3.568v-.06l.06-.015c.736-.176,1.441-.348,2.1-.509l-.05.05a8.691,8.691,0,0,1,.867-2.177v.066c-.418-.65-.816-1.26-1.174-1.809l-.025-.035.03-.03,2.494-2.555.02-.02.025.015c.59.368,1.043.65,1.355.847l.348.222a.576.576,0,0,1,.116.081Z" transform="translate(-456.39 -46.76)" fill="#f5f5f5"/>
        </g>
        <g id="Grupo_141407" data-name="Grupo 141407" transform="translate(193.462 47.538)">
          <path id="Trazado_193994" data-name="Trazado 193994" d="M348.427,82.079a6.891,6.891,0,0,1,1.658-.721l.343-1.638,2.771-.05.4,1.628a6.757,6.757,0,0,1,1.683.66l1.4-.917,2,1.925-.867,1.431a6.893,6.893,0,0,1,.721,1.658l1.638.343.05,2.771-1.628.4a6.832,6.832,0,0,1-.66,1.683l.917,1.4-1.925,2-1.431-.867a6.891,6.891,0,0,1-1.658.721l-.343,1.638-2.772.05-.4-1.628a6.756,6.756,0,0,1-1.683-.66l-1.4.917-2-1.925.867-1.431a6.893,6.893,0,0,1-.721-1.658l-1.638-.343-.05-2.771,1.628-.4a6.756,6.756,0,0,1,.66-1.683l-.917-1.4,1.925-2,1.431.867Zm1.476,3.694a2.972,2.972,0,1,0,4.2-.076A2.97,2.97,0,0,0,349.9,85.772Z" transform="translate(-343.624 -79.615)" fill="#f5f5f5"/>
          <path id="Trazado_193995" data-name="Trazado 193995" d="M355.142,90.835a2.3,2.3,0,0,1,.554-.484,2.958,2.958,0,0,1,1.94-.459,3.031,3.031,0,0,1,1.32.469,3.1,3.1,0,0,1,1.068,1.2,2.911,2.911,0,0,1,.272.836,2.8,2.8,0,0,1,.015.917,3.044,3.044,0,0,1-.826,1.713,3.088,3.088,0,0,1-1.683.887,2.806,2.806,0,0,1-.917.015,2.9,2.9,0,0,1-.842-.242,3.087,3.087,0,0,1-1.24-1.023,2.946,2.946,0,0,1-.514-1.3,2.994,2.994,0,0,1,.388-1.955,2.222,2.222,0,0,1,.464-.569,7.074,7.074,0,0,0-.408.6,2.994,2.994,0,0,0-.328,1.9,2.874,2.874,0,0,0,.509,1.24,2.9,2.9,0,0,0,1.189.962,2.906,2.906,0,0,0,1.668.2,2.884,2.884,0,0,0,2.368-2.459,2.775,2.775,0,0,0-.01-.867,2.742,2.742,0,0,0-.252-.791,2.936,2.936,0,0,0-4.147-1.23C355.333,90.649,355.157,90.851,355.142,90.835Z" transform="translate(-348.863 -84.678)" fill="#f5f5f5"/>
          <path id="Trazado_193996" data-name="Trazado 193996" d="M348.347,82.024s-.03-.015-.091-.05-.156-.091-.272-.156c-.252-.146-.61-.363-1.078-.635h.035c-.489.509-1.134,1.184-1.915,2v-.055c.287.423.595.892.927,1.4l.015.025-.015.025a6.844,6.844,0,0,0-.65,1.668l-.01.035-.035.01c-.509.126-1.053.262-1.628.4l.045-.06c.015.872.035,1.8.055,2.771l-.055-.066c.509.106,1.068.222,1.643.338l.04.01.01.04a6.611,6.611,0,0,0,.716,1.638l.025.04-.025.04c-.267.443-.564.932-.867,1.431l-.01-.1c.625.6,1.305,1.255,2,1.925l-.1-.01,1.4-.917.04-.025.045.025a6.687,6.687,0,0,0,1.663.65l.05.01.01.05c.126.509.262,1.063.4,1.628l-.081-.066c.877-.015,1.819-.03,2.771-.05l-.081.066c.106-.519.222-1.078.343-1.638l.01-.05.05-.015a6.805,6.805,0,0,0,1.633-.711h0l.045-.025.045.025c.479.292.957.579,1.431.867l-.106.015c.65-.675,1.3-1.34,1.925-2l-.01.106c-.307-.474-.615-.937-.917-1.4l-.03-.04.025-.045a6.845,6.845,0,0,0,.655-1.658l.01-.05.05-.01c.549-.136,1.094-.267,1.628-.4l-.06.081c-.015-.947-.03-1.869-.045-2.771l.06.076-1.638-.343-.045-.01-.01-.045a6.629,6.629,0,0,0-.711-1.638l-.025-.04.025-.04.872-1.431.01.086c-.7-.68-1.361-1.32-1.99-1.93l.081.01c-.494.323-.957.625-1.4.912l-.03.02-.03-.02a6.761,6.761,0,0,0-1.663-.66l-.035-.01-.01-.035c-.141-.59-.272-1.124-.393-1.628l.05.04c-1.073.015-1.99.025-2.772.035l.035-.03c-.141.655-.257,1.189-.353,1.638v.015h-.02a6.566,6.566,0,0,0-1.265.489c-.126.066-.227.116-.3.156s-.1.05-.1.05a.725.725,0,0,1,.091-.06c.065-.04.161-.1.292-.166a6.478,6.478,0,0,1,1.265-.514l-.02.02c.091-.448.2-.988.333-1.643v-.03h.035c.781-.015,1.7-.035,2.771-.06h.04l.01.04c.126.5.257,1.033.4,1.628l-.04-.04a6.908,6.908,0,0,1,1.7.66h-.065c.443-.292.907-.595,1.4-.917l.045-.03.035.035c.63.61,1.3,1.245,2,1.92l.04.04-.03.05c-.282.464-.569.942-.867,1.431V84.3a6.932,6.932,0,0,1,.731,1.673l-.055-.055,1.643.338.06.015v.06c.02.9.035,1.824.05,2.771v.066l-.06.015c-.534.131-1.078.267-1.628.4l.06-.06a7,7,0,0,1-.67,1.7V91.14c.3.464.6.927.917,1.4l.035.055-.045.05q-.952.983-1.925,2l-.045.05-.06-.035c-.474-.287-.952-.574-1.431-.867h.086a6.77,6.77,0,0,1-1.678.726l.06-.066c-.116.564-.232,1.124-.343,1.638l-.015.066H353.4c-.952.015-1.895.035-2.771.05h-.065l-.015-.066c-.136-.559-.272-1.119-.4-1.628l.06.06a7.1,7.1,0,0,1-1.7-.67h.086c-.484.312-.962.63-1.4.912l-.055.035-.045-.045c-.69-.67-1.366-1.32-1.99-1.925l-.045-.04.03-.05c.3-.5.6-.988.872-1.431v.076a6.907,6.907,0,0,1-.726-1.678l.055.05-1.638-.343-.05-.01V89.4c-.015-.973-.03-1.9-.045-2.771v-.05l.045-.01c.569-.136,1.119-.272,1.628-.393l-.04.04a6.983,6.983,0,0,1,.67-1.693v.05c-.328-.5-.635-.978-.912-1.406l-.02-.03.025-.025c.786-.806,1.441-1.476,1.935-1.98l.015-.015.02.01c.459.287.811.5,1.053.655.116.076.207.131.272.171l.091.06Z" transform="translate(-343.55 -79.56)" fill="#f5f5f5"/>
        </g>
        <g id="Grupo_141408" data-name="Grupo 141408" transform="translate(66.483 96.412)">
          <path id="Trazado_193997" data-name="Trazado 193997" d="M96.427,179.069a6.892,6.892,0,0,1,1.658-.721l.343-1.638,2.771-.05.4,1.628a6.756,6.756,0,0,1,1.683.66l1.4-.917,2,1.925-.867,1.431a6.892,6.892,0,0,1,.721,1.658l1.638.343.05,2.771-1.628.4a6.833,6.833,0,0,1-.66,1.683l.917,1.4-1.925,2-1.431-.867a6.891,6.891,0,0,1-1.658.721l-.343,1.638-2.771.05-.4-1.628a6.756,6.756,0,0,1-1.683-.66l-1.4.917-2-1.925.867-1.431a6.892,6.892,0,0,1-.721-1.658l-1.638-.343-.05-2.771,1.628-.4a6.756,6.756,0,0,1,.66-1.683l-.917-1.4,1.925-2,1.431.867Zm1.476,3.694a2.972,2.972,0,1,0,4.2-.076A2.97,2.97,0,0,0,97.9,182.762Z" transform="translate(-91.629 -176.605)" fill="#f5f5f5"/>
          <path id="Trazado_193998" data-name="Trazado 193998" d="M103.142,187.825a2.3,2.3,0,0,1,.554-.484,2.958,2.958,0,0,1,1.94-.459,3.031,3.031,0,0,1,1.32.469,3.1,3.1,0,0,1,1.068,1.2,2.91,2.91,0,0,1,.272.836,2.8,2.8,0,0,1,.015.917,3.044,3.044,0,0,1-.826,1.713,3.088,3.088,0,0,1-1.683.887,2.807,2.807,0,0,1-.917.015,2.9,2.9,0,0,1-.842-.242,3.087,3.087,0,0,1-1.24-1.023,2.946,2.946,0,0,1-.514-1.3,2.994,2.994,0,0,1,.388-1.955,2.222,2.222,0,0,1,.464-.569,7.08,7.08,0,0,0-.408.6,2.994,2.994,0,0,0-.328,1.9,2.9,2.9,0,0,0,1.7,2.2,2.906,2.906,0,0,0,1.668.2,2.884,2.884,0,0,0,2.368-2.459,2.774,2.774,0,0,0-.01-.867,2.742,2.742,0,0,0-.252-.791,2.935,2.935,0,0,0-4.147-1.23c-.4.242-.574.443-.59.428Z" transform="translate(-96.868 -181.668)" fill="#f5f5f5"/>
          <path id="Trazado_193999" data-name="Trazado 193999" d="M96.357,179.014s-.03-.015-.091-.05-.156-.091-.272-.156c-.252-.146-.61-.363-1.078-.635h.035c-.489.509-1.134,1.184-1.915,2v-.055c.287.423.595.892.927,1.4l.015.025-.015.025a6.845,6.845,0,0,0-.65,1.668l-.01.035-.035.01c-.509.126-1.053.262-1.628.4l.045-.06c.015.872.035,1.8.055,2.771l-.055-.066c.509.106,1.068.222,1.643.338l.04.01.01.04a6.613,6.613,0,0,0,.716,1.638l.025.04-.025.04c-.267.443-.564.932-.867,1.431l-.01-.1c.625.6,1.305,1.255,2,1.925l-.1-.01,1.4-.917.04-.025.045.025a6.686,6.686,0,0,0,1.663.65l.05.01.01.05c.126.509.262,1.063.4,1.628l-.081-.065c.877-.015,1.819-.03,2.771-.05l-.081.066c.106-.519.222-1.078.343-1.638l.01-.05.05-.015a6.8,6.8,0,0,0,1.633-.711h0l.045-.025.045.025c.479.292.957.579,1.431.867l-.106.015c.65-.675,1.3-1.34,1.925-2l-.01.106c-.307-.474-.615-.937-.917-1.4l-.03-.04.025-.045a6.845,6.845,0,0,0,.655-1.658l.01-.05.05-.01c.549-.136,1.093-.267,1.628-.4l-.06.081c-.015-.947-.03-1.869-.045-2.771l.06.076-1.638-.343-.045-.01-.01-.045a6.631,6.631,0,0,0-.711-1.638l-.025-.04.025-.04.872-1.431.01.086c-.7-.68-1.361-1.32-1.99-1.93l.081.01c-.494.322-.957.625-1.4.912l-.03.02-.03-.02a6.761,6.761,0,0,0-1.663-.66l-.035-.01-.01-.035c-.141-.59-.272-1.124-.393-1.628l.05.04c-1.073.015-1.99.025-2.771.035l.035-.03c-.141.655-.257,1.189-.353,1.638v.015h-.02a6.565,6.565,0,0,0-1.265.489c-.126.066-.227.116-.3.156s-.1.05-.1.05a.726.726,0,0,1,.091-.06c.066-.04.161-.1.292-.166A6.478,6.478,0,0,1,98,178.263l-.02.02c.091-.448.2-.988.333-1.643v-.03h.035c.781-.015,1.7-.035,2.771-.06h.04l.01.04c.126.5.257,1.033.4,1.628l-.04-.04a6.909,6.909,0,0,1,1.7.66h-.066c.443-.292.907-.595,1.4-.917l.045-.03.035.035q.945.907,2,1.92l.04.04-.03.05c-.282.464-.569.942-.867,1.431v-.076a6.93,6.93,0,0,1,.731,1.673l-.055-.055,1.643.338.06.015v.06c.02.9.035,1.824.05,2.771v.066l-.06.015c-.534.131-1.078.267-1.628.4l.06-.06a7,7,0,0,1-.67,1.7v-.086c.3.464.6.927.917,1.4l.035.055-.045.05q-.952.983-1.925,2l-.045.05-.06-.035c-.474-.287-.952-.574-1.431-.867h.086a6.77,6.77,0,0,1-1.678.726l.06-.066c-.116.564-.232,1.124-.343,1.638l-.015.066h-.066c-.952.015-1.895.035-2.771.05h-.066l-.015-.066c-.136-.559-.272-1.119-.4-1.628l.06.06a7.1,7.1,0,0,1-1.7-.67H96.6c-.484.312-.962.63-1.4.912l-.055.035-.045-.045c-.69-.67-1.366-1.32-1.99-1.925l-.045-.04.03-.05c.3-.5.6-.988.872-1.431v.076a6.907,6.907,0,0,1-.726-1.678l.055.05-1.638-.343-.05-.01v-.055c-.015-.973-.03-1.9-.045-2.771v-.05l.045-.01c.569-.136,1.119-.272,1.628-.393l-.04.04a6.983,6.983,0,0,1,.67-1.693v.05c-.328-.5-.635-.978-.912-1.406l-.02-.03.025-.025c.786-.806,1.441-1.476,1.935-1.98l.015-.015.02.01c.459.287.811.5,1.053.655.116.076.207.131.272.171l.091.06Z" transform="translate(-91.56 -176.55)" fill="#f5f5f5"/>
        </g>
        <g id="Grupo_141409" data-name="Grupo 141409" transform="translate(69.052 134.19)">
          <path id="Trazado_194000" data-name="Trazado 194000" d="M112.046,259.494a21.524,21.524,0,0,1,5.251-2.283l1.083-5.2,8.778-.156,1.265,5.155a21.383,21.383,0,0,1,5.326,2.1l4.439-2.908,6.319,6.1-2.751,4.535a21.607,21.607,0,0,1,2.283,5.251l5.2,1.083.156,8.778-5.155,1.265a21.578,21.578,0,0,1-2.1,5.326l2.908,4.439-6.1,6.319-4.535-2.751a21.608,21.608,0,0,1-5.251,2.283l-1.083,5.2-8.778.156-1.265-5.155a21.578,21.578,0,0,1-5.326-2.1l-4.439,2.908-6.319-6.1,2.751-4.535a21.607,21.607,0,0,1-2.283-5.251l-5.2-1.083L97.07,274.1l5.155-1.265a21.578,21.578,0,0,1,2.1-5.326l-2.908-4.439,6.1-6.319,4.535,2.751h0Zm4.681,11.7a9.417,9.417,0,1,0,13.318-.237,9.422,9.422,0,0,0-13.318.237Z" transform="translate(-96.863 -251.689)" fill="none" stroke="#e1e1e1" stroke-miterlimit="10" stroke-width="0.06"/>
          <path id="Trazado_194001" data-name="Trazado 194001" d="M133.315,287.224a7.1,7.1,0,0,1,1.754-1.537,9.358,9.358,0,0,1,6.148-1.451,9.542,9.542,0,0,1,7.554,5.286,9.1,9.1,0,0,1,.857,2.646,9,9,0,0,1,.05,2.9,9.614,9.614,0,0,1-7.952,8.239,9.065,9.065,0,0,1-2.9.05,8.925,8.925,0,0,1-2.671-.766,9.623,9.623,0,0,1-3.92-3.24,9.467,9.467,0,0,1-1.628-4.122,9.363,9.363,0,0,1,1.235-6.193,7.2,7.2,0,0,1,1.476-1.809c.05.045-.569.62-1.3,1.91a9.392,9.392,0,0,0-1.043,6.032,9.212,9.212,0,0,0,5.377,6.969,8.662,8.662,0,0,0,2.54.705,8.536,8.536,0,0,0,2.746-.06,9.13,9.13,0,0,0,7.518-7.785,8.642,8.642,0,0,0-.035-2.746,8.546,8.546,0,0,0-.8-2.509,9.257,9.257,0,0,0-3.18-3.653,9.145,9.145,0,0,0-3.976-1.476,9.373,9.373,0,0,0-5.991,1.255c-1.265.771-1.819,1.411-1.864,1.361Z" transform="translate(-113.451 -267.722)" fill="#ececec"/>
          <path id="Trazado_194002" data-name="Trazado 194002" d="M111.843,259.321s-.1-.045-.292-.156c-.212-.126-.5-.287-.872-.5-.791-.469-1.935-1.144-3.422-2.021l.106-.015c-1.552,1.628-3.593,3.764-6.062,6.354l.015-.171c.887,1.34,1.869,2.832,2.928,4.424l.05.081-.045.086a21.47,21.47,0,0,0-2.061,5.291l-.025.106-.106.025c-1.607.4-3.346.831-5.15,1.28l.146-.191c.055,2.766.111,5.7.176,8.778l-.171-.2c1.607.333,3.381.7,5.2,1.073l.131.025.035.131a21.322,21.322,0,0,0,2.268,5.19l.076.121-.076.121c-.852,1.406-1.789,2.958-2.746,4.54l-.04-.3c1.985,1.915,4.127,3.976,6.324,6.092l-.312-.03c1.381-.907,2.9-1.9,4.434-2.913l.131-.086.136.076a21.282,21.282,0,0,0,5.266,2.066l.151.035.04.156c.4,1.613.831,3.376,1.265,5.155l-.262-.2c2.782-.05,5.76-.106,8.778-.156l-.257.212c.343-1.643.711-3.411,1.078-5.2l.035-.161.156-.045a21.186,21.186,0,0,0,5.18-2.252h0l.141-.086.136.086c1.522.922,3.039,1.839,4.535,2.751l-.333.045q3.091-3.2,6.1-6.314l-.03.333q-1.466-2.245-2.908-4.439l-.086-.136.081-.141a21.131,21.131,0,0,0,2.071-5.261l.04-.156.156-.035q2.615-.643,5.155-1.26l-.2.252q-.076-4.5-.146-8.778l.2.237q-2.646-.552-5.2-1.088l-.146-.03-.04-.141a21.4,21.4,0,0,0-2.247-5.2l-.076-.121.076-.121q1.421-2.328,2.756-4.53l.035.277q-3.326-3.228-6.3-6.112l.257.025-4.444,2.9-.1.066-.1-.055a21.446,21.446,0,0,0-5.276-2.091l-.106-.025-.025-.106c-.454-1.875-.862-3.563-1.245-5.16l.156.121c-3.4.045-6.3.081-8.783.116l.116-.1c-.443,2.071-.811,3.774-1.114,5.19l-.01.05-.05.015a22.475,22.475,0,0,0-4.016,1.542c-.408.212-.716.373-.942.494a2.61,2.61,0,0,1-.317.161,3.533,3.533,0,0,1,.292-.2c.2-.121.5-.307.927-.534a20.745,20.745,0,0,1,4.006-1.633l-.06.066c.287-1.421.63-3.124,1.048-5.205l.02-.1h.1l8.778-.2h.126l.03.121c.4,1.592.816,3.28,1.28,5.15l-.131-.131a21.422,21.422,0,0,1,5.377,2.1h-.2c1.411-.922,2.872-1.885,4.429-2.913l.136-.091.121.116,6.329,6.087.131.126-.091.156c-.892,1.476-1.8,2.983-2.741,4.54v-.242a21.519,21.519,0,0,1,2.313,5.306l-.181-.171q2.555.529,5.2,1.073l.2.04v.2q.083,4.278.166,8.778v.207l-.2.05q-2.54.627-5.155,1.27l.191-.191a21.892,21.892,0,0,1-2.116,5.392l-.01-.272q1.444,2.2,2.913,4.434l.116.176-.146.156q-3.008,3.114-6.1,6.319l-.151.156-.186-.111c-1.5-.907-3.013-1.829-4.535-2.751h.277a21.863,21.863,0,0,1-5.311,2.308l.191-.207c-.373,1.784-.741,3.558-1.083,5.2l-.045.212h-.217c-3.018.055-6,.106-8.778.156h-.212l-.05-.2c-.433-1.779-.867-3.542-1.26-5.155l.191.191a21.8,21.8,0,0,1-5.387-2.126l.267-.01c-1.537,1.008-3.059,2-4.439,2.9l-.166.111-.146-.141c-2.192-2.121-4.329-4.187-6.309-6.107l-.136-.136.1-.166c.962-1.577,1.9-3.129,2.756-4.53v.242a21.824,21.824,0,0,1-2.3-5.311l.171.156c-1.814-.383-3.588-.756-5.2-1.093l-.166-.035v-.171c-.05-3.079-.1-6.017-.136-8.778v-.156l.146-.035c1.809-.438,3.553-.862,5.16-1.25l-.131.131a21.659,21.659,0,0,1,2.132-5.362v.166c-1.033-1.6-2.011-3.1-2.882-4.449l-.06-.091.076-.076c2.5-2.56,4.565-4.671,6.138-6.284l.05-.05.055.035q2.177,1.353,3.341,2.081c.368.232.65.413.862.544a2.46,2.46,0,0,1,.292.2Z" transform="translate(-96.66 -251.52)" fill="#ececec"/>
        </g>
        <g id="Grupo_141410" data-name="Grupo 141410" transform="translate(217.418 50.138)">
          <path id="Trazado_194003" data-name="Trazado 194003" d="M409.47,88.045a14.515,14.515,0,0,1,3.8.585l2.479-2.57,5.049,3.064-1.129,3.386a14.538,14.538,0,0,1,2.278,3.1l3.568-.06,1.406,5.74-3.195,1.592a14.515,14.515,0,0,1-.585,3.8l2.57,2.479-3.064,5.049-3.386-1.129a14.539,14.539,0,0,1-3.1,2.278l.06,3.568-5.734,1.406-1.592-3.195a14.515,14.515,0,0,1-3.8-.585l-2.479,2.57-5.049-3.064,1.129-3.386a14.538,14.538,0,0,1-2.278-3.1l-3.568.06-1.406-5.74,3.195-1.592a14.515,14.515,0,0,1,.585-3.8l-2.57-2.479,3.064-5.049L399.1,92.1a14.539,14.539,0,0,1,3.1-2.278l-.06-3.568,5.734-1.406,1.592,3.195h0Zm-1.532,8.335a6.338,6.338,0,1,0,7.664,4.646A6.336,6.336,0,0,0,407.938,96.379Z" transform="translate(-391.264 -84.784)" fill="#e1e1e1"/>
          <path id="Trazado_194004" data-name="Trazado 194004" d="M419.279,107.485a4.854,4.854,0,0,1,1.552-.247,6.274,6.274,0,0,1,4.016,1.381,6.362,6.362,0,0,1,1.844,2.343,6.461,6.461,0,0,1,.554,3.376,6.493,6.493,0,0,1-1.476,3.482,6.466,6.466,0,0,1-7.478,1.834,6.284,6.284,0,0,1-1.668-1.013,5.927,5.927,0,0,1-1.245-1.4,6.48,6.48,0,0,1-1.068-3.25,6.352,6.352,0,0,1,.554-2.928,6.284,6.284,0,0,1,2.928-3.079,4.744,4.744,0,0,1,1.487-.5,14.622,14.622,0,0,0-1.421.625,6.318,6.318,0,0,0-2.756,3.059,6.179,6.179,0,0,0,.559,5.9,5.975,5.975,0,0,0,1.189,1.315,5.831,5.831,0,0,0,1.582.952,6.147,6.147,0,0,0,7.07-1.733,5.741,5.741,0,0,0,.962-1.577,5.822,5.822,0,0,0,.448-1.713,6.188,6.188,0,0,0-2.232-5.483,6.3,6.3,0,0,0-3.86-1.436c-1-.015-1.542.151-1.547.106Z" transform="translate(-402.605 -95.89)" fill="#e1e1e1"/>
          <path id="Trazado_194005" data-name="Trazado 194005" d="M409.3,87.98s-.04-.06-.111-.191c-.076-.146-.181-.343-.312-.6-.282-.549-.69-1.345-1.219-2.373l.066.03c-1.466.368-3.4.852-5.729,1.441l.071-.091c.025,1.083.05,2.283.076,3.568v.066l-.055.03a14.392,14.392,0,0,0-3.074,2.273l-.05.05-.071-.025c-1.058-.348-2.2-.726-3.391-1.119l.151-.055q-1.444,2.389-3.049,5.059l-.025-.176,2.575,2.474.066.066-.025.086a14.581,14.581,0,0,0-.574,3.769v.1l-.086.04-3.19,1.6.086-.181c.443,1.8.922,3.744,1.411,5.734l-.166-.131c1.114-.02,2.333-.045,3.568-.066h.106l.05.091a14.238,14.238,0,0,0,2.252,3.064l.076.076-.035.1c-.353,1.063-.741,2.217-1.129,3.386l-.076-.207c1.6.967,3.316,2.006,5.054,3.059l-.222.03c.781-.811,1.628-1.688,2.479-2.57l.076-.081.106.03a14.37,14.37,0,0,0,3.754.579h.111l.05.1c.534,1.073,1.068,2.137,1.592,3.195l-.207-.1q2.91-.711,5.74-1.406l-.136.176q-.03-1.8-.06-3.568V115.2l.091-.05a14.316,14.316,0,0,0,3.069-2.247l.076-.076.1.035L422.539,114l-.2.076q1.572-2.585,3.069-5.049l.025.207c-.872-.842-1.723-1.668-2.565-2.484l-.071-.071.03-.1a14.38,14.38,0,0,0,.585-3.764v-.1l.086-.04q1.64-.816,3.195-1.587l-.081.171c-.489-2.021-.952-3.925-1.4-5.74l.136.106c-1.255.02-2.434.035-3.568.055H421.7l-.035-.066a14.362,14.362,0,0,0-2.252-3.084l-.05-.05.025-.071c.413-1.23.791-2.338,1.144-3.381l.045.126-5.039-3.084.1-.015c-1,1.018-1.814,1.854-2.494,2.555l-.025.025-.035-.01a15.287,15.287,0,0,0-2.837-.564l-.716-.06c-.161-.01-.242-.02-.237-.02s.086-.005.237-.01.4.005.716.03a13.808,13.808,0,0,1,2.867.509l-.06.015c.67-.705,1.482-1.552,2.464-2.585l.045-.045.055.035c1.431.862,3.1,1.864,5.064,3.039l.076.045-.025.081c-.348,1.048-.711,2.157-1.119,3.391l-.025-.121a14.564,14.564,0,0,1,2.308,3.124l-.116-.066c1.134-.025,2.313-.045,3.568-.071h.111l.025.106c.448,1.814.917,3.719,1.416,5.734l.03.116-.106.055c-1.038.519-2.1,1.053-3.19,1.6l.086-.136a14.4,14.4,0,0,1-.59,3.85l-.045-.161,2.57,2.479.1.091-.071.116q-1.489,2.464-3.059,5.054l-.071.116-.131-.045c-1.114-.373-2.242-.746-3.386-1.129l.176-.04a14.589,14.589,0,0,1-3.139,2.308l.091-.161q.03,1.769.065,3.568v.141l-.136.035q-2.827.7-5.734,1.406l-.141.035-.065-.131c-.529-1.053-1.058-2.121-1.592-3.195l.161.1h0a14.647,14.647,0,0,1-3.85-.595l.181-.05c-.852.882-1.7,1.759-2.479,2.57l-.1.106-.121-.076c-1.738-1.053-3.452-2.1-5.049-3.064l-.121-.076.045-.136c.393-1.169.776-2.323,1.134-3.386l.04.176a14.77,14.77,0,0,1-2.3-3.144l.156.091c-1.235.02-2.459.04-3.568.06h-.136l-.03-.131c-.484-1.99-.957-3.936-1.4-5.74l-.03-.126.116-.055c1.114-.554,2.2-1.1,3.195-1.587l-.086.136a14.486,14.486,0,0,1,.6-3.845l.04.151c-.9-.867-1.769-1.713-2.565-2.484l-.081-.081.06-.1,3.074-5.044.055-.091.1.035c1.189.4,2.328.786,3.381,1.139l-.121.025a14.739,14.739,0,0,1,3.134-2.288l-.055.1c-.015-1.285-.035-2.489-.05-3.568v-.076l.071-.015c2.338-.559,4.273-1.023,5.745-1.371l.045-.01.02.04c.5,1.033.887,1.829,1.154,2.383.126.262.222.469.292.62s.1.212.1.217Z" transform="translate(-391.09 -84.72)" fill="#e1e1e1"/>
        </g>
        <g id="Grupo_141411" data-name="Grupo 141411" transform="translate(235.367 154.185)">
          <path id="Trazado_194006" data-name="Trazado 194006" d="M455.16,314.225a4.768,4.768,0,0,1,1.567-.247,6.453,6.453,0,0,1,5.916,3.754,6.515,6.515,0,0,1,.559,3.406,6.265,6.265,0,0,1-.464,1.829,6.157,6.157,0,0,1-1.018,1.683,6.52,6.52,0,0,1-7.549,1.849,6.583,6.583,0,0,1-2.943-2.429,6.549,6.549,0,0,1-1.078-3.28,6.482,6.482,0,0,1,.559-2.958,6.357,6.357,0,0,1,2.953-3.109,4.781,4.781,0,0,1,1.5-.5c.015.045-.549.151-1.436.63a6.377,6.377,0,0,0-2.782,3.084,6.2,6.2,0,0,0-.489,2.837,6.278,6.278,0,0,0,1.058,3.114,5.959,5.959,0,0,0,1.2,1.325,5.8,5.8,0,0,0,1.6.957,6.2,6.2,0,0,0,7.135-1.749,5.905,5.905,0,0,0,.973-1.587,5.773,5.773,0,0,0,.454-1.728,6.247,6.247,0,0,0-2.252-5.533,6.4,6.4,0,0,0-3.9-1.451c-1.008-.015-1.557.151-1.562.106Z" transform="translate(-438.334 -302.499)" fill="#ececec"/>
          <path id="Trazado_194007" data-name="Trazado 194007" d="M457.685,302.286H457.6l-.04-.071a14.466,14.466,0,0,0-2.273-3.114l-.05-.055.025-.071c.418-1.24.8-2.358,1.154-3.411l.045.126c-1.97-1.2-3.648-2.232-5.084-3.114l.1-.015c-1.008,1.028-1.834,1.875-2.52,2.575l-.025.025-.035-.01a15.682,15.682,0,0,0-2.867-.569l-.721-.06c-.166-.01-.242-.02-.237-.02s.086-.005.242-.01.4.005.726.03a14.122,14.122,0,0,1,2.892.514l-.06.015c.68-.711,1.492-1.567,2.484-2.61l.045-.045.055.035c1.446.867,3.129,1.88,5.11,3.069l.076.045-.025.081c-.348,1.058-.721,2.177-1.129,3.422l-.025-.121a14.711,14.711,0,0,1,2.328,3.154l-.116-.071c1.144-.025,2.333-.045,3.6-.071h.111l.025.106c.454,1.829.927,3.749,1.431,5.785l.03.116-.111.055c-1.043.524-2.116,1.058-3.22,1.613l.086-.141a14.656,14.656,0,0,1-.595,3.885L459,313.19c.852.816,1.713,1.653,2.6,2.5l.1.1-.071.116q-1.5,2.487-3.084,5.1l-.071.121-.131-.045c-1.124-.373-2.263-.756-3.417-1.139l.181-.04a14.692,14.692,0,0,1-3.17,2.328l.1-.161q.03,1.784.066,3.6v.146l-.136.035q-2.857.7-5.79,1.421l-.141.035-.066-.131c-.534-1.063-1.068-2.142-1.607-3.22l.161.1h0a14.914,14.914,0,0,1-3.885-.6l.181-.05c-.862.892-1.713,1.774-2.5,2.59l-.1.106-.126-.076c-1.754-1.063-3.482-2.116-5.094-3.094l-.121-.076.045-.136c.393-1.179.786-2.348,1.144-3.416l.04.181a14.8,14.8,0,0,1-2.323-3.17l.156.091c-1.25.02-2.479.04-3.6.06h-.136l-.03-.131c-.489-2.011-.967-3.971-1.411-5.79l-.03-.126.116-.06c1.124-.559,2.227-1.109,3.225-1.6l-.086.136a14.721,14.721,0,0,1,.6-3.88l.04.151c-.9-.877-1.789-1.733-2.585-2.509l-.081-.081.06-.1,3.1-5.089.055-.091.1.035c1.2.4,2.348.791,3.416,1.149l-.121.025a14.712,14.712,0,0,1,3.165-2.308l-.055.1c-.015-1.3-.035-2.509-.05-3.6v-.076l.071-.015c2.363-.564,4.313-1.033,5.8-1.386l.045-.01.02.04c.5,1.043.9,1.844,1.164,2.4.126.267.222.474.3.625s.1.217.1.222-.04-.06-.111-.2-.181-.348-.317-.6c-.287-.554-.7-1.356-1.235-2.4l.066.03c-1.481.373-3.427.862-5.78,1.451l.071-.091c.025,1.093.05,2.3.076,3.6v.066l-.055.03a14.511,14.511,0,0,0-3.1,2.293l-.05.05-.071-.025c-1.068-.353-2.222-.736-3.422-1.134l.151-.055c-.967,1.607-2,3.316-3.079,5.1l-.025-.176c.806.771,1.688,1.623,2.6,2.5l.066.065-.025.086a14.6,14.6,0,0,0-.58,3.8v.1l-.086.045-3.22,1.612.086-.186c.448,1.819.932,3.779,1.426,5.79l-.171-.131c1.124-.02,2.353-.045,3.6-.066h.106l.05.091a14.508,14.508,0,0,0,2.273,3.094l.076.076-.035.1-1.139,3.417-.076-.212c1.613.978,3.346,2.026,5.1,3.089l-.227.03c.791-.821,1.643-1.7,2.5-2.6l.076-.081.106.03a14.43,14.43,0,0,0,3.789.585h.111l.05.1c.539,1.083,1.078,2.157,1.607,3.225l-.207-.1q2.933-.718,5.79-1.416l-.136.181q-.03-1.822-.06-3.6v-.111l.1-.05a14.436,14.436,0,0,0,3.094-2.268l.076-.076.1.035c1.154.388,2.293.766,3.416,1.144l-.207.076q1.587-2.608,3.094-5.094l.025.207c-.877-.852-1.744-1.683-2.59-2.5l-.071-.071.03-.1a14.4,14.4,0,0,0,.59-3.8v-.1l.086-.04q1.655-.824,3.225-1.6l-.081.171c-.494-2.036-.962-3.961-1.406-5.795l.141.106c-1.265.02-2.454.035-3.6.055" transform="translate(-426.71 -291.2)" fill="#ececec"/>
        </g>
        <g id="Grupo_141412" data-name="Grupo 141412" transform="translate(60.541 260.489)">
          <path id="Trazado_194008" data-name="Trazado 194008" d="M84.46,512.32v18.312h56.312V512.32Z" transform="translate(-82.097 -507.2)" fill="#f5f5f5"/>
          <path id="Trazado_194009" data-name="Trazado 194009" d="M79.77,502.16v5.12h60.645v-5.12H79.77Z" transform="translate(-79.77 -502.16)" fill="#e1e1e1"/>
          <path id="Trazado_194010" data-name="Trazado 194010" d="M138.784,525.592h28.35V507.28h1.97v-5.12H137.6v4.646Z" transform="translate(-108.459 -502.16)" fill="#e1e1e1"/>
          <rect id="Rectángulo_44202" data-name="Rectángulo 44202" width="11.419" height="2.756" transform="translate(10.239 8.073)" fill="#e1e1e1"/>
          <rect id="Rectángulo_44203" data-name="Rectángulo 44203" width="14.664" height="5.82" transform="translate(8.768 14.276)" fill="#fff"/>
        </g>
        <g id="Grupo_141413" data-name="Grupo 141413" transform="translate(69.209 237.082)">
          <path id="Trazado_194011" data-name="Trazado 194011" d="M101.65,465.87v18.312h56.312V465.87Z" transform="translate(-99.292 -460.75)" fill="#f5f5f5"/>
          <path id="Trazado_194012" data-name="Trazado 194012" d="M96.97,455.71v5.12h60.64v-5.12H96.97Z" transform="translate(-96.97 -455.71)" fill="#e1e1e1"/>
          <path id="Trazado_194013" data-name="Trazado 194013" d="M155.974,479.142h28.35V460.83h1.97v-5.12h-31.5v4.646Z" transform="translate(-125.654 -455.71)" fill="#e1e1e1"/>
          <rect id="Rectángulo_44204" data-name="Rectángulo 44204" width="11.419" height="2.756" transform="translate(10.234 8.073)" fill="#e1e1e1"/>
          <rect id="Rectángulo_44205" data-name="Rectángulo 44205" width="14.664" height="5.82" transform="translate(8.768 14.276)" fill="#fff"/>
        </g>
        <path id="Trazado_194014" data-name="Trazado 194014" d="M314.878,548.506c0,.086-61.31.156-136.927.156s-136.942-.071-136.942-.156,61.3-.156,136.942-.156S314.878,548.421,314.878,548.506Z" transform="translate(0 -264.586)" fill="#1a2e35"/>
        <g id="Grupo_141415" data-name="Grupo 141415" transform="translate(60.733 24.59)">
          <path id="Trazado_194015" data-name="Trazado 194015" d="M100.11,44.083a28.393,28.393,0,0,1,6.979-3l1.461-6.893,11.655-.166,1.653,6.848a28.672,28.672,0,0,1,7.065,2.807l5.906-3.84,8.36,8.128-3.673,6.012a28.345,28.345,0,0,1,3,6.984l6.893,1.461.166,11.655-6.848,1.653a28.671,28.671,0,0,1-2.807,7.065l3.84,5.906-8.128,8.36-6.012-3.673a28.345,28.345,0,0,1-6.984,3l-1.461,6.893-11.655.166L107.87,96.6a28.672,28.672,0,0,1-7.065-2.807L94.9,97.633l-8.36-8.128,3.673-6.012a28.345,28.345,0,0,1-3-6.984l-6.893-1.461L80.15,63.393,87,61.74A28.671,28.671,0,0,1,89.8,54.675l-3.84-5.906,8.128-8.36,6.012,3.673h0Z" transform="translate(-80.15 -34.02)" fill="#0f2771" fill-rule="evenodd"/>
          <g id="Grupo_141414" data-name="Grupo 141414" transform="translate(21.255 21.055)">
            <path id="Trazado_194016" data-name="Trazado 194016" d="M142.673,86.026a16.575,16.575,0,0,0-.373-2.449,9.53,9.53,0,0,0-1.129-2.661,10.07,10.07,0,0,0-2.55-2.827,9.945,9.945,0,0,0-9.433-1.411,9.376,9.376,0,0,0-2.514,1.356,11.822,11.822,0,0,0-1.129.957,11.316,11.316,0,0,0-.973,1.154,9.909,9.909,0,0,0,0,11.751,11.891,11.891,0,0,0,.973,1.154,11.231,11.231,0,0,0,1.129.957,9.376,9.376,0,0,0,2.514,1.356,10,10,0,0,0,11.983-4.238,9.841,9.841,0,0,0,1.129-2.661,15.749,15.749,0,0,0,.373-2.449.5.5,0,0,1,.005.161c0,.126-.005.282-.01.484a4.3,4.3,0,0,1-.066.781,6.928,6.928,0,0,1-.191,1.053,9.634,9.634,0,0,1-1.093,2.721,10.151,10.151,0,0,1-12.225,4.414,9.644,9.644,0,0,1-2.6-1.386,11.28,11.28,0,0,1-1.164-.988,12.006,12.006,0,0,1-1.008-1.184,10.183,10.183,0,0,1,0-12.109,10.861,10.861,0,0,1,1.008-1.184,11.945,11.945,0,0,1,1.164-.988,9.57,9.57,0,0,1,2.6-1.386,10.216,10.216,0,0,1,5.372-.428,10.183,10.183,0,0,1,6.858,4.843,9.43,9.43,0,0,1,1.093,2.721,6.929,6.929,0,0,1,.191,1.053,4.814,4.814,0,0,1,.066.781c0,.2.005.358.01.484a.754.754,0,0,1-.005.161Z" transform="translate(-122.33 -75.804)" fill="#fff"/>
            <path id="Trazado_194017" data-name="Trazado 194017" d="M156.389,110.679c.06-.06,2.258,2.041,4.913,4.691s4.752,4.853,4.691,4.913-2.257-2.041-4.913-4.691S156.328,110.739,156.389,110.679Z" transform="translate(-139.226 -93.104)" fill="#fff"/>
          </g>
        </g>
        <g id="Grupo_141417" data-name="Grupo 141417" transform="translate(134.777 65.845)">
          <path id="Trazado_194018" data-name="Trazado 194018" d="M252.7,128.81a36.767,36.767,0,0,1,8.959-3.86l1.875-8.849,14.966-.212,2.121,8.793a36.6,36.6,0,0,1,9.065,3.6l7.579-4.928,10.728,10.431-4.712,7.715a36.508,36.508,0,0,1,3.855,8.964l8.849,1.875L316.2,167.3l-8.793,2.121a36.8,36.8,0,0,1-3.6,9.065l4.928,7.579L298.3,196.8l-7.715-4.717a36.556,36.556,0,0,1-8.959,3.855l-1.875,8.849L264.782,205l-2.121-8.793a36.607,36.607,0,0,1-9.065-3.6l-7.579,4.928L235.289,187.1l4.717-7.715a36.508,36.508,0,0,1-3.855-8.965l-8.849-1.875-.212-14.961,8.793-2.121a36.6,36.6,0,0,1,3.6-9.065l-4.928-7.579,10.431-10.728,7.715,4.717h0Z" transform="translate(-227.09 -115.89)" fill="#4dd0e1" fill-rule="evenodd"/>
          <g id="Grupo_141416" data-name="Grupo 141416" transform="translate(29.002 26.78)">
            <path id="Trazado_194019" data-name="Trazado 194019" d="M295.134,202.407s.065-.005.181-.01.3-.005.509-.01c.459-.005,1.119-.01,1.965-.02,1.718-.01,4.2-.03,7.342-.05l-.091.091c-.03-1.265-.065-2.681-.1-4.2v-.071l.065-.03a22.626,22.626,0,0,0,6.284-4.3,16.037,16.037,0,0,0,2.635-3.376,11.559,11.559,0,0,0,1.451-4.293,14.264,14.264,0,0,0-2.247-9.4,17.123,17.123,0,0,0-8.188-6.531,14.092,14.092,0,0,0-7.861-.544,15.467,15.467,0,0,0-6.828,3.154,13.9,13.9,0,0,0-4.122,5.694c-.181.539-.418,1.058-.549,1.6s-.262,1.078-.393,1.607a17.152,17.152,0,0,0-.282,3.17,14.432,14.432,0,0,0,.378,2.988,13.877,13.877,0,0,0,.962,2.661,15.239,15.239,0,0,0,2.958,4.1,20.387,20.387,0,0,0,6.122,4.187l.035.015v.035c-.071,1.144-.121,2.016-.161,2.62-.02.287-.035.509-.045.675-.01.151-.02.232-.02.232v-.217c0-.161.01-.378.02-.66.02-.61.055-1.5.1-2.656l.035.055a20.114,20.114,0,0,1-6.218-4.152,15.367,15.367,0,0,1-3.029-4.137,13.868,13.868,0,0,1-.993-2.7,14.874,14.874,0,0,1-.4-3.039,17.276,17.276,0,0,1,.272-3.225c.131-.539.257-1.083.393-1.633s.373-1.078.554-1.628a14.189,14.189,0,0,1,4.193-5.82,15.691,15.691,0,0,1,6.959-3.23,14.413,14.413,0,0,1,8.027.554,17.344,17.344,0,0,1,8.335,6.657,14.078,14.078,0,0,1,2,4.712,8.627,8.627,0,0,1,.222,1.23,8.478,8.478,0,0,1,.126,1.23c.01.408.035.816.035,1.219-.035.4-.076.806-.111,1.2a11.755,11.755,0,0,1-1.5,4.389,16.121,16.121,0,0,1-2.691,3.422,22.791,22.791,0,0,1-6.379,4.313l.066-.1c.025,1.517.05,2.938.071,4.2v.1h-.091c-3.159-.02-5.664-.04-7.4-.05-.837-.01-1.487-.015-1.945-.02-.207,0-.373-.005-.494-.01a.511.511,0,0,1-.161-.01Z" transform="translate(-284.645 -169.036)" fill="#fff"/>
            <path id="Trazado_194020" data-name="Trazado 194020" d="M315.48,240.621a42.469,42.469,0,0,1-5.135.156,43.161,43.161,0,0,1-5.135-.151,42.469,42.469,0,0,1,5.135-.156A43.16,43.16,0,0,1,315.48,240.621Z" transform="translate(-294.847 -204.474)" fill="#fff"/>
            <path id="Trazado_194021" data-name="Trazado 194021" d="M315.423,248.327a6.225,6.225,0,0,1-3.623-.116,40.71,40.71,0,0,1,3.623.111Z" transform="translate(-298.116 -208.294)" fill="#fff"/>
            <path id="Trazado_194022" data-name="Trazado 194022" d="M307.759,216.615a1.077,1.077,0,0,1-.01-.171v-.5c.005-.459.015-1.1.03-1.91.04-1.683.1-4.077.166-7.024.04-1.487.081-3.109.131-4.848a3.293,3.293,0,0,0-.171-1.255.821.821,0,0,0-.9-.6,1.2,1.2,0,0,0-.8.9,1.83,1.83,0,0,0,.166,1.305,2.982,2.982,0,0,0,2.293,1.527,3.042,3.042,0,0,0,2.671-1.068,4.537,4.537,0,0,0,1.124-2.872,2.758,2.758,0,0,0-.312-1.517.994.994,0,0,0-1.859.7,3.1,3.1,0,0,0,.711,1.4,5.659,5.659,0,0,0,2.474,1.91,3.212,3.212,0,0,0,1.487.176,2.956,2.956,0,0,0,1.35-.564,2.333,2.333,0,0,0,.847-1.129,1.7,1.7,0,0,0-.081-1.335,1.152,1.152,0,0,0-1.013-.69,1.415,1.415,0,0,0-1.063.635,6.126,6.126,0,0,0-.625,2.535c-.186,1.728-.312,3.351-.423,4.827-.2,2.943-.358,5.331-.474,7.009-.055.811-.1,1.446-.126,1.9-.015.2-.03.368-.04.494a.616.616,0,0,1-.025.166.546.546,0,0,1-.005-.171c0-.131.005-.292.01-.5.015-.459.04-1.1.071-1.91.071-1.658.186-4.056.378-7.014.1-1.481.207-3.1.388-4.843.055-.433.1-.877.171-1.325a3.225,3.225,0,0,1,.484-1.335,1.669,1.669,0,0,1,1.28-.756,1.442,1.442,0,0,1,1.275.836,1.989,1.989,0,0,1,.1,1.557,2.616,2.616,0,0,1-.947,1.27,3.285,3.285,0,0,1-1.487.625,3.535,3.535,0,0,1-1.633-.186,6.016,6.016,0,0,1-2.615-2.006,3.32,3.32,0,0,1-.776-1.542,1.434,1.434,0,0,1,.8-1.567,1.413,1.413,0,0,1,1.628.665,2.977,2.977,0,0,1,.358,1.693,4.858,4.858,0,0,1-1.2,3.064,3.332,3.332,0,0,1-2.933,1.159,3.28,3.28,0,0,1-2.514-1.693,2.116,2.116,0,0,1-.176-1.507,1.452,1.452,0,0,1,1.013-1.088.994.994,0,0,1,.761.171,1.253,1.253,0,0,1,.443.6,3.456,3.456,0,0,1,.181,1.361c-.06,1.744-.116,3.366-.166,4.848-.111,2.948-.2,5.336-.262,7.019-.035.811-.066,1.451-.086,1.91-.01.2-.02.368-.03.494a.845.845,0,0,1-.02.166Z" transform="translate(-295.174 -183.244)" fill="#fff"/>
            <path id="Trazado_194023" data-name="Trazado 194023" d="M315.585,244.476a55.662,55.662,0,0,1-8.335,0,55.673,55.673,0,0,1,8.335,0Z" transform="translate(-295.859 -206.384)" fill="#fff"/>
          </g>
        </g>
        <g id="Grupo_141419" data-name="Grupo 141419" transform="translate(242.281 94.013)">
          <path id="Trazado_194024" data-name="Trazado 194024" d="M456.8,180.432a23.81,23.81,0,0,1,5.775-2.6l1.124-5.76,9.705-.287,1.466,5.684a23.765,23.765,0,0,1,5.916,2.247l4.868-3.275,7.065,6.657-2.978,5.054a23.811,23.811,0,0,1,2.6,5.775l5.76,1.124.287,9.705-5.684,1.466a23.765,23.765,0,0,1-2.247,5.916l3.275,4.868-6.657,7.065-5.054-2.978a23.809,23.809,0,0,1-5.775,2.6l-1.124,5.76-9.705.287-1.466-5.684a23.766,23.766,0,0,1-5.916-2.247l-4.868,3.275-7.065-6.657,2.978-5.054a23.809,23.809,0,0,1-2.6-5.775l-5.76-1.124-.287-9.705,5.684-1.466a23.765,23.765,0,0,1,2.247-5.916l-3.275-4.868,6.657-7.065,5.054,2.978h0Z" transform="translate(-440.43 -171.79)" fill="#0f2771" fill-rule="evenodd"/>
          <g id="Grupo_141418" data-name="Grupo 141418" transform="translate(17.496 17.415)">
            <path id="Trazado_194025" data-name="Trazado 194025" d="M499.64,228.351s-.161.02-.469.03c-.338.005-.786.015-1.35.03-1.2.01-2.892.03-4.963.05-4.223.01-10,.025-16.382.045H475.15v-.156c.02-6.117.035-11.6.045-15.6.02-1.96.035-3.553.05-4.686q.015-.794.03-1.27a2.516,2.516,0,0,1,.03-.443,2.518,2.518,0,0,1,.03.443q.008.476.03,1.27c.01,1.139.03,2.726.05,4.686.01,4,.03,9.484.045,15.6l-.156-.156h1.169c6.384.02,12.159.035,16.382.045,2.071.02,3.759.035,4.963.05.564.01,1.013.02,1.35.03A2.828,2.828,0,0,1,499.64,228.351Z" transform="translate(-475.15 -206.35)" fill="#fff"/>
            <path id="Trazado_194026" data-name="Trazado 194026" d="M499.325,216.94s-.247.262-.726.7c-.524.459-1.219,1.068-2.056,1.8-1.743,1.512-4.167,3.588-6.853,5.86l-.408.343-.106.091-.1-.091c-1.073-1-2.1-1.95-3.049-2.832h.191c-1.794,1.487-3.336,2.756-4.475,3.7-.529.423-.957.766-1.3,1.038a3.355,3.355,0,0,1-.484.348,3.458,3.458,0,0,1,.423-.418c.328-.287.741-.655,1.245-1.1,1.124-.962,2.64-2.263,4.4-3.779l.1-.081.1.086c.952.877,1.985,1.824,3.064,2.817h-.207l.408-.348c2.686-2.278,5.135-4.324,6.914-5.79.862-.705,1.577-1.285,2.116-1.728a5.409,5.409,0,0,1,.806-.6Z" transform="translate(-477.536 -211.604)" fill="#fff"/>
            <path id="Trazado_194027" data-name="Trazado 194027" d="M512.739,221.772a7.59,7.59,0,0,1-.106-1.517c-.03-.942-.045-2.247-.045-3.7l.156.156h-.262c-1.512,0-2.882-.015-3.875-.045a8.2,8.2,0,0,1-1.607-.111,8.2,8.2,0,0,1,1.607-.111c.993-.03,2.363-.045,3.875-.045h.418v.156c0,1.456-.02,2.756-.045,3.7a8.029,8.029,0,0,1-.106,1.517Z" transform="translate(-490.951 -211.336)" fill="#fff"/>
          </g>
        </g>
        <g id="Grupo_141420" data-name="Grupo 141420" transform="translate(123.423 82.75)">
          <path id="Trazado_194028" data-name="Trazado 194028" d="M205.662,248.361a5.267,5.267,0,0,1-.69-1.648,5.05,5.05,0,0,1-.393-1.744,10.224,10.224,0,0,1,1.083,3.391Z" transform="translate(-204.557 -196.83)" fill="#1a2e35"/>
          <path id="Trazado_194029" data-name="Trazado 194029" d="M215.756,270.847a24.021,24.021,0,0,1-3.542-6.158,30.969,30.969,0,0,1,1.809,3.059A33.741,33.741,0,0,1,215.756,270.847Z" transform="translate(-208.353 -206.613)" fill="#1a2e35"/>
          <path id="Trazado_194030" data-name="Trazado 194030" d="M232.736,293.222a14.967,14.967,0,0,1-2.681-2.343,15.525,15.525,0,0,1-2.3-2.721,34.266,34.266,0,0,1,2.52,2.5A31.594,31.594,0,0,1,232.736,293.222Z" transform="translate(-216.065 -218.255)" fill="#1a2e35"/>
          <path id="Trazado_194031" data-name="Trazado 194031" d="M254.891,310.449a14.785,14.785,0,0,1-3.21-1.547,15.268,15.268,0,0,1-2.933-2.026,33.743,33.743,0,0,1,3.084,1.759,33.95,33.95,0,0,1,3.054,1.814Z" transform="translate(-226.48 -227.54)" fill="#1a2e35"/>
          <path id="Trazado_194032" data-name="Trazado 194032" d="M280.9,320.947a19.522,19.522,0,0,1-3.517-.554A20.44,20.44,0,0,1,274,319.279a20.354,20.354,0,0,1,3.457.816,21.11,21.11,0,0,1,3.447.857Z" transform="translate(-239.007 -233.689)" fill="#1a2e35"/>
          <path id="Trazado_194033" data-name="Trazado 194033" d="M308.82,323.185a15.459,15.459,0,0,1-3.537.418,14.846,14.846,0,0,1-3.563-.111,33.02,33.02,0,0,1,3.548-.2,31.673,31.673,0,0,1,3.553-.111Z" transform="translate(-252.759 -235.615)" fill="#1a2e35"/>
          <path id="Trazado_194034" data-name="Trazado 194034" d="M336.558,317.13a25.213,25.213,0,0,1-6.838,1.915,29.689,29.689,0,0,1,3.406-1.013,28.252,28.252,0,0,1,3.437-.9Z" transform="translate(-266.649 -232.623)" fill="#1a2e35"/>
          <path id="Trazado_194035" data-name="Trazado 194035" d="M362.628,305.2a15.4,15.4,0,0,1-3.008,1.91,15.617,15.617,0,0,1-3.25,1.456,30.187,30.187,0,0,1,3.1-1.728A29.421,29.421,0,0,1,362.628,305.2Z" transform="translate(-279.87 -226.705)" fill="#1a2e35"/>
          <path id="Trazado_194036" data-name="Trazado 194036" d="M385.529,287.5a22.529,22.529,0,0,1-5.21,4.827,33.184,33.184,0,0,1,2.585-2.434A34.783,34.783,0,0,1,385.529,287.5Z" transform="translate(-291.75 -217.927)" fill="#1a2e35"/>
          <path id="Trazado_194037" data-name="Trazado 194037" d="M402.837,264.109a14.884,14.884,0,0,1-1.461,3.25,13.531,13.531,0,0,1-1.97,2.968c-.071-.05.761-1.4,1.7-3.119A32.221,32.221,0,0,1,402.837,264.109Z" transform="translate(-301.218 -206.325)" fill="#1a2e35"/>
          <path id="Trazado_194038" data-name="Trazado 194038" d="M413.678,237.63a40.928,40.928,0,0,1-2.217,6.752,20.848,20.848,0,0,1,.962-3.427A20.367,20.367,0,0,1,413.678,237.63Z" transform="translate(-307.196 -193.189)" fill="#1a2e35"/>
          <path id="Trazado_194039" data-name="Trazado 194039" d="M422.515,210.91a25.551,25.551,0,0,1-1.094,3.381,21.132,21.132,0,0,1-1.31,3.306,20.873,20.873,0,0,1,1.023-3.411c.312-.932.655-1.754.912-2.343a3.594,3.594,0,0,1,.474-.932Z" transform="translate(-311.487 -179.933)" fill="#1a2e35"/>
          <path id="Trazado_194040" data-name="Trazado 194040" d="M433.991,185.669a31.55,31.55,0,0,1-1.683,3.129,28.128,28.128,0,0,1-1.774,3.079,15.957,15.957,0,0,1,1.5-3.23,15.209,15.209,0,0,1,1.95-2.978Z" transform="translate(-316.66 -167.411)" fill="#1a2e35"/>
          <path id="Trazado_194041" data-name="Trazado 194041" d="M451.073,164.847c.055.071-1.194,1.053-2.625,2.389s-2.525,2.484-2.59,2.424a13.545,13.545,0,0,1,2.378-2.651A12.8,12.8,0,0,1,451.073,164.847Z" transform="translate(-324.263 -157.08)" fill="#1a2e35"/>
          <path id="Trazado_194042" data-name="Trazado 194042" d="M475.031,152.935c.025.086-1.5.549-3.336,1.209s-3.306,1.275-3.346,1.194a13.875,13.875,0,0,1,3.24-1.487,14.636,14.636,0,0,1,3.442-.922Z" transform="translate(-335.422 -151.165)" fill="#1a2e35"/>
          <path id="Trazado_194043" data-name="Trazado 194043" d="M502.545,149.64c-.005.091-1.592.05-3.547.121s-3.537.2-3.548.111a14.227,14.227,0,0,1,3.537-.418,13.45,13.45,0,0,1,3.558.191Z" transform="translate(-348.867 -149.438)" fill="#1a2e35"/>
          <path id="Trazado_194044" data-name="Trazado 194044" d="M530.132,154.432a33.3,33.3,0,0,1-3.356-1.159,34.982,34.982,0,0,1-3.336-1.214,14.7,14.7,0,0,1,3.442.922,14.965,14.965,0,0,1,3.255,1.451Z" transform="translate(-362.752 -150.732)" fill="#1a2e35"/>
          <path id="Trazado_194045" data-name="Trazado 194045" d="M555.019,167.383c-.055.066-1.305-.912-2.9-2.046s-2.923-2.006-2.877-2.081a14.809,14.809,0,0,1,3.059,1.829A14.138,14.138,0,0,1,555.019,167.383Z" transform="translate(-375.551 -156.29)" fill="#1a2e35"/>
          <path id="Trazado_194046" data-name="Trazado 194046" d="M572.77,184.269a6.457,6.457,0,0,1-1.144-1.371,6.285,6.285,0,0,1-.973-1.492,7.868,7.868,0,0,1,2.111,2.862Z" transform="translate(-386.172 -165.295)" fill="#1a2e35"/>
        </g>
        <path id="Trazado_194047" data-name="Trazado 194047" d="M56.51,50.823s.03-.181.111-.539.2-.887.358-1.572a39.875,39.875,0,0,1,1.975-5.871,44.184,44.184,0,0,1,4.913-8.471,48.544,48.544,0,0,1,9.06-9.272,47.858,47.858,0,0,1,13.807-7.468,50.731,50.731,0,0,1,8.531-2.061,55.085,55.085,0,0,1,9.287-.539,48.33,48.33,0,0,1,9.7,1.23,43.944,43.944,0,0,1,9.615,3.4,43.45,43.45,0,0,1,8.788,5.85,41.581,41.581,0,0,1,7.3,8.057,40.213,40.213,0,0,1,4.893,9.71A45.745,45.745,0,0,1,147.072,53.6c.066.867.156,1.723.2,2.585.02.862.04,1.713.06,2.565s-.045,1.7-.066,2.545c-.076.842-.131,1.678-.242,2.509a37.427,37.427,0,0,1-2.55,9.438,73.873,73.873,0,0,1-4.218,8.294q-2.283,3.9-4.429,7.559a44.507,44.507,0,0,0-5.18,14.719,65.168,65.168,0,0,0-.842,6.793c-.166,2.157-.232,4.2-.242,6.107a67.736,67.736,0,0,0,.459,9.766,39.233,39.233,0,0,0,1.356,6.027c.217.675.4,1.179.539,1.517.066.171.126.292.156.378s.05.131.05.131a13.809,13.809,0,0,1-.806-2.006,37.232,37.232,0,0,1-1.416-6.032,66.528,66.528,0,0,1-.514-9.786c0-1.91.06-3.956.222-6.117a64.2,64.2,0,0,1,.821-6.818,44.488,44.488,0,0,1,5.175-14.81q2.139-3.666,4.419-7.569a72.455,72.455,0,0,0,4.187-8.264,37.123,37.123,0,0,0,2.52-9.368c.106-.821.161-1.653.237-2.489.02-.836.076-1.678.06-2.525s-.04-1.7-.06-2.55c-.04-.852-.136-1.708-.2-2.57a45.349,45.349,0,0,0-2.217-10.255,39.783,39.783,0,0,0-4.858-9.635,41.412,41.412,0,0,0-7.241-8,41.654,41.654,0,0,0-18.267-9.191,47.7,47.7,0,0,0-9.64-1.23,54.5,54.5,0,0,0-9.237.524,50.793,50.793,0,0,0-8.486,2.036,47.8,47.8,0,0,0-13.752,7.4,48.594,48.594,0,0,0-9.055,9.2A44.812,44.812,0,0,0,59.075,42.9a42.37,42.37,0,0,0-2.026,5.835c-.166.68-.3,1.2-.383,1.562s-.141.529-.141.529Z" transform="translate(-7.689)" fill="#1a2e35"/>
        <g id="Grupo_141441" data-name="Grupo 141441" transform="translate(125.157 131.539)">
          <g id="Grupo_141424" data-name="Grupo 141424" transform="translate(68.158 127.64)">
            <g id="Grupo_141422" data-name="Grupo 141422">
              <path id="Trazado_194048" data-name="Trazado 194048" d="M343.26,509.517l8.909,3.124-.1,8.566c-4.263,1.2-4.863,3.361-4.863,3.361l8.914-.2L363.88,508.6l-6.138-4.016-11.469-5.019" transform="translate(-343.26 -499.56)" fill="#afafaf"/>
              <g id="Grupo_141421" data-name="Grupo 141421" transform="translate(3.956 8.178)" opacity="0.6">
                <path id="Trazado_194049" data-name="Trazado 194049" d="M367.779,516.642l-7.755,15.772-8.914.207.973-1.366,7.241-.564,7.15-14.9Z" transform="translate(-351.11 -515.79)" fill="#fff"/>
              </g>
            </g>
            <path id="Trazado_194050" data-name="Trazado 194050" d="M360.686,534.134c.071.091.574-.212,1.265-.212.69-.015,1.2.277,1.27.186.081-.071-.433-.595-1.27-.579-.842,0-1.345.534-1.26.6Z" transform="translate(-351.903 -516.412)" fill="#1a2e35"/>
            <path id="Trazado_194051" data-name="Trazado 194051" d="M360.862,529.476c.091.06.474-.474,1.184-.63s1.285.156,1.34.065c.03-.04-.076-.186-.333-.317a1.671,1.671,0,0,0-2.031.458c-.171.227-.207.4-.161.428Z" transform="translate(-351.983 -513.88)" fill="#1a2e35"/>
            <path id="Trazado_194052" data-name="Trazado 194052" d="M360.621,523.945c.1.045.393-.474,1.008-.705s1.179-.04,1.219-.141c.025-.045-.091-.166-.343-.252a1.542,1.542,0,0,0-1.8.68c-.131.232-.136.4-.086.418Z" transform="translate(-351.858 -511.075)" fill="#1a2e35"/>
            <path id="Trazado_194053" data-name="Trazado 194053" d="M359.146,522.866c.111-.025.04-.59.307-1.189.252-.61.7-.952.645-1.048-.03-.1-.69.146-1.008.892s-.045,1.4.05,1.345Z" transform="translate(-351.038 -510.001)" fill="#1a2e35"/>
            <path id="Trazado_194054" data-name="Trazado 194054" d="M356,519.3a3.77,3.77,0,0,0,.212-1.2c.04-.428.081-.862.121-1.305a2.854,2.854,0,0,0,0-.831.725.725,0,0,0-.317-.443.549.549,0,0,0-.6.025,1.675,1.675,0,0,0-.509.791,2.936,2.936,0,0,0-.161.806,2.976,2.976,0,0,0,.237,1.35c.318.726.766.988.781.957a8.951,8.951,0,0,1-.524-1.053,3.1,3.1,0,0,1-.136-1.224,2.931,2.931,0,0,1,.161-.7,1.4,1.4,0,0,1,.368-.6.161.161,0,0,1,.186-.015.355.355,0,0,1,.146.207,2.993,2.993,0,0,1,.01.711c-.01.443-.025.882-.035,1.31A3.932,3.932,0,0,0,356,519.3Z" transform="translate(-348.955 -507.439)" fill="#1a2e35"/>
            <path id="Trazado_194055" data-name="Trazado 194055" d="M353.551,523.149c.035-.025-.227-.413-.912-.635a2.229,2.229,0,0,0-2.53.9.41.41,0,0,0,.04.348.5.5,0,0,0,.232.191,1.468,1.468,0,0,0,.418.086,3.877,3.877,0,0,0,.726,0,3.729,3.729,0,0,0,1.179-.3c.64-.282.932-.6.9-.64-.035-.05-.383.181-1,.378a4.449,4.449,0,0,1-1.109.2,4.183,4.183,0,0,1-.66-.02,1.1,1.1,0,0,1-.3-.06c-.076-.045-.055-.03-.055-.061a.709.709,0,0,1,.176-.212,2.664,2.664,0,0,1,.262-.212,2.08,2.08,0,0,1,.574-.277,2.161,2.161,0,0,1,1.078-.055,8.5,8.5,0,0,1,.983.368Z" transform="translate(-346.647 -510.899)" fill="#1a2e35"/>
            <g id="Grupo_141423" data-name="Grupo 141423" transform="translate(13.504 7.84)" opacity="0.6">
              <path id="Trazado_194056" data-name="Trazado 194056" d="M370.06,516.2a1.056,1.056,0,1,0,1.033-1.078A1.057,1.057,0,0,0,370.06,516.2Z" transform="translate(-370.059 -515.119)" fill="#fff"/>
            </g>
          </g>
          <g id="Grupo_141429" data-name="Grupo 141429" transform="translate(10.55 134.009)">
            <g id="Grupo_141427" data-name="Grupo 141427">
              <path id="Trazado_194057" data-name="Trazado 194057" d="M240.832,512.2l.121,11.67s-11.822,4.041-12.013,6.2l22.641.579.559-18.2-11.308-.257Z" transform="translate(-228.939 -512.2)" fill="#afafaf"/>
              <g id="Grupo_141425" data-name="Grupo 141425" transform="translate(17.917 10.83)" opacity="0.6">
                <path id="Trazado_194058" data-name="Trazado 194058" d="M265.62,533.736a.93.93,0,0,1,.615,1.073.887.887,0,0,1-1.058.615.977.977,0,0,1-.645-1.139.921.921,0,0,1,1.169-.519" transform="translate(-264.493 -533.692)" fill="#fff"/>
              </g>
              <g id="Grupo_141426" data-name="Grupo 141426" transform="translate(0 16.624)" opacity="0.6">
                <path id="Trazado_194059" data-name="Trazado 194059" d="M251.584,547.024l-.015-1.834-21.7.131s-1.018.413-.922,1.124Z" transform="translate(-228.937 -545.19)" fill="#fff"/>
              </g>
              <path id="Trazado_194060" data-name="Trazado 194060" d="M252.06,535.029c0,.111.554.176,1.088.544s.811.842.917.8c.1-.02-.045-.685-.7-1.119s-1.325-.328-1.3-.227Z" transform="translate(-240.408 -523.479)" fill="#1a2e35"/>
              <path id="Trazado_194061" data-name="Trazado 194061" d="M247.3,536.913c-.03.106.448.307.811.786.378.469.459.973.569.973.106.02.2-.625-.267-1.209s-1.109-.65-1.114-.544Z" transform="translate(-238.046 -524.441)" fill="#1a2e35"/>
              <path id="Trazado_194062" data-name="Trazado 194062" d="M243.658,540.622c.1.025.267-.524,0-1.134s-.781-.867-.826-.776c-.066.091.262.423.474.927.227.5.242.968.353.983Z" transform="translate(-235.826 -525.344)" fill="#1a2e35"/>
              <path id="Trazado_194063" data-name="Trazado 194063" d="M252.586,529.475c.045.1.554-.035,1.179.02s1.1.267,1.164.176-.4-.5-1.134-.559-1.265.277-1.209.363Z" transform="translate(-240.667 -520.586)" fill="#1a2e35"/>
            </g>
            <g id="Grupo_141428" data-name="Grupo 141428" transform="translate(11.924 2.313)" opacity="0.3">
              <path id="Trazado_194064" data-name="Trazado 194064" d="M252.6,516.79l.015,2.081,11.131.181.06-1.87Z" transform="translate(-252.6 -516.79)"/>
            </g>
            <path id="Trazado_194065" data-name="Trazado 194065" d="M252.62,523.442a2.135,2.135,0,0,0,1.134.025,5.2,5.2,0,0,0,1.194-.333,5.343,5.343,0,0,0,.66-.328,1.461,1.461,0,0,0,.348-.257.479.479,0,0,0,.066-.584.613.613,0,0,0-.479-.267,1.386,1.386,0,0,0-.428.05,4.185,4.185,0,0,0-.711.222,3.925,3.925,0,0,0-1.063.66c-.539.474-.726.882-.69.9.05.035.312-.3.857-.69a4.544,4.544,0,0,1,1.028-.544,4.3,4.3,0,0,1,.655-.186c.242-.055.443-.055.5.055.02.04.025.055-.03.126a1,1,0,0,1-.257.186,6.146,6.146,0,0,1-1.718.721,7.859,7.859,0,0,0-1.078.242Z" transform="translate(-240.681 -516.911)" fill="#1a2e35"/>
            <path id="Trazado_194066" data-name="Trazado 194066" d="M251.506,521.917c.04.02.267-.373.328-1.088a3.63,3.63,0,0,0-.393-1.94.937.937,0,0,0-.711-.59.54.54,0,0,0-.484.3,1.473,1.473,0,0,0-.126.413,2.458,2.458,0,0,0-.02.766,2.639,2.639,0,0,0,.454,1.184c.428.6.887.741.9.706.04-.055-.343-.277-.665-.852a2.616,2.616,0,0,1-.333-1.073,2.409,2.409,0,0,1,.035-.655c.04-.242.136-.433.227-.4.111,0,.3.186.388.383a4.344,4.344,0,0,1,.267.62,4.2,4.2,0,0,1,.191,1.139c.015.665-.116,1.078-.055,1.094Z" transform="translate(-239.426 -515.225)" fill="#1a2e35"/>
          </g>
          <g id="Grupo_141431" data-name="Grupo 141431" transform="translate(17.304 76.662)">
            <g id="Grupo_141430" data-name="Grupo 141430">
              <path id="Trazado_194067" data-name="Trazado 194067" d="M302.082,473.924l-26.072-9.7,27.408-3.845L304.8,447.03,253.546,451.5,246.31,461.92l1.9,13.076,49.932,12.693Z" transform="translate(-244.309 -422.523)" fill="#12263f"/>
              <path id="Trazado_194068" data-name="Trazado 194068" d="M244.834,459.139l-2.494-47.715a13.415,13.415,0,0,1,6.692-11.222h0A13.435,13.435,0,0,1,260,399.083l33.253,11.086,18.251,4.691s3.109,7.669,1.28,13.626c-1.789,5.83-8.178,9.71-13.807,8.042-6.984-2.071-39.053-15.863-39.053-15.863v38.856l-15.092-.388Z" transform="translate(-242.34 -398.396)" fill="#12263f"/>
              <path id="Trazado_194069" data-name="Trazado 194069" d="M315.65,458.376a1.365,1.365,0,0,1-.2-.065c-.141-.055-.333-.126-.569-.222-.514-.207-1.25-.5-2.182-.872l-8-3.26c-6.757-2.787-16.065-6.626-26.344-10.869-.459-.192-.917-.378-1.34-.554l.212-.141c-.02,10.794-.035,20.5-.045,27.528-.02,3.492-.035,6.319-.05,8.289-.01.962-.02,1.718-.03,2.247-.005.242-.01.438-.015.584a.1.1,0,1,1-.03,0c0-.146-.01-.343-.015-.584-.005-.534-.015-1.285-.03-2.247-.01-1.975-.03-4.8-.05-8.289-.01-7.03-.03-16.735-.045-27.528v-.232l.212.091c.423.176.882.368,1.34.554,10.265,4.273,19.562,8.143,26.309,10.955,3.346,1.411,6.062,2.555,7.962,3.351.922.4,1.648.705,2.157.927.232.106.418.186.559.247a.886.886,0,0,1,.186.1Z" transform="translate(-259.495 -420.107)" fill="#375a64"/>
              <path id="Trazado_194070" data-name="Trazado 194070" d="M292.83,474.439a10.892,10.892,0,0,1,6.248,3.462c-.066.071-1.25-1.033-2.983-1.985s-3.29-1.381-3.265-1.476Z" transform="translate(-267.387 -436.115)" fill="#375a64"/>
            </g>
            <path id="Trazado_194071" data-name="Trazado 194071" d="M271.485,429.8a15.655,15.655,0,0,1,1.759,3.225,15.4,15.4,0,0,1,1.24,3.462,36.022,36.022,0,0,1-1.522-3.331C272.135,431.311,271.409,429.844,271.485,429.8Z" transform="translate(-256.796 -413.974)" fill="#375a64"/>
          </g>
          <path id="Trazado_194072" data-name="Trazado 194072" d="M259.768,386.989l-5.881-1.1-6.178,6.3,1.139,4.011,7.206-2.651Z" transform="translate(-227.7 -315.529)" fill="#ffbf9d"/>
          <g id="Grupo_141432" data-name="Grupo 141432" transform="translate(0 0)">
            <path id="Trazado_194073" data-name="Trazado 194073" d="M221.723,249.25l-1.592.136s-2.867.469-2.867.534-1.26,1.824-1.26,1.829l-1.154,1.784a1.664,1.664,0,0,0,1.612-.3l-.4.9a1.786,1.786,0,0,0,2.212-.862,20.577,20.577,0,0,1,1.25-1.774l.524-.045c.045.106,2.056,2.943,2.1,2.877s1.713-1.678,1.713-1.678l-2.132-3.4Z" transform="translate(-211.398 -247.743)" fill="#ff9a6c"/>
            <path id="Trazado_194074" data-name="Trazado 194074" d="M226.215,260.128l.469-8.808-4.465-5.059-4.908.3-2.011,1.4c.1.484,1.5.821,3,.383a7.642,7.642,0,0,1,3.089-.106l1.89,3.3-1.25,1.381,1.6,8.451,2.58-1.235Z" transform="translate(-211.621 -246.26)" fill="#ffbf9d"/>
            <path id="Trazado_194075" data-name="Trazado 194075" d="M209.567,250.75h15.959a.731.731,0,0,1,.731.731h0a.731.731,0,0,1-.731.731H209.567L208,251.481Z" transform="translate(-208 -248.487)" fill="#1a2e35"/>
            <path id="Trazado_194076" data-name="Trazado 194076" d="M224.223,263.454l-1.628-4a3.711,3.711,0,0,1-.272-1.6,27.355,27.355,0,0,0-.045-4.984c-.3-.892-1.487-3.941-.816-4.389s1.6-.595,2.247,1.189,2.661,5.654,2.661,5.654l1.522,6.374-3.668,1.754Z" transform="translate(-214.578 -247.219)" fill="#ffbf9d"/>
            <path id="Trazado_194077" data-name="Trazado 194077" d="M226.052,254.858a11.66,11.66,0,0,1-.922-1.708c-.534-1.058-1.26-2.6-2.031-4.187a1.165,1.165,0,0,0-.942-.615.862.862,0,0,0-.8.595,2.284,2.284,0,0,0,.03,1.043c.066.343.136.66.212.942.312,1.144.64,1.814.59,1.834-.02.01-.121-.146-.272-.448a9.156,9.156,0,0,1-.529-1.325c-.091-.287-.181-.61-.257-.957a2.464,2.464,0,0,1-.055-1.179,1.146,1.146,0,0,1,1.058-.811,1.454,1.454,0,0,1,1.209.751c.826,1.688,1.476,3.159,1.97,4.263a11.715,11.715,0,0,1,.726,1.8Z" transform="translate(-214.462 -247.143)" fill="#ff9a6c"/>
          </g>
          <g id="Grupo_141435" data-name="Grupo 141435" transform="translate(8.128 12.613)">
            <path id="Trazado_194078" data-name="Trazado 194078" d="M359.848,423.761,358.22,420.9l-17.4-4.354,2.051,3.537Z" transform="translate(-282.019 -343.352)" fill="#ffbf9d"/>
            <path id="Trazado_194079" data-name="Trazado 194079" d="M224.13,274.913l10.955,25.951a10.1,10.1,0,0,0,5.457,5.407l23.633,9.705,5.5-15.223-23.013-8.148L231.714,271.29l-7.584,3.628Z" transform="translate(-224.13 -271.29)" fill="#feca2e"/>
            <path id="Trazado_194080" data-name="Trazado 194080" d="M292.235,327.532c.025.61-2.555,19.5-2.555,23.351s7.387,8.047,7.387,8.047l8.088,17.178h28.813l-9.851-18.5-4.455-14.815a34.868,34.868,0,0,0-8.944-14.825l-4.812-3.22-13.681,2.782Z" transform="translate(-256.649 -297.811)" fill="#feca2e"/>
            <path id="Trazado_194081" data-name="Trazado 194081" d="M287.994,352l4.837,20.307-24.409-6.878-4.162,7.352,31.761,14.467a8.919,8.919,0,0,0,11.005-3h0a8.935,8.935,0,0,0,1.34-7.342l-7.11-27.78a6.794,6.794,0,0,0-8.743-4.757h0A6.8,6.8,0,0,0,287.989,352Z" transform="translate(-244.038 -307.369)" fill="#feca2e"/>
            <path id="Trazado_194082" data-name="Trazado 194082" d="M296.944,366.48a1.994,1.994,0,0,1-.282-.121c-.181-.086-.438-.227-.771-.413a21.92,21.92,0,0,1-2.676-1.774,10.908,10.908,0,0,1-3.149-3.578,10.589,10.589,0,0,1-.443-5.8c.3-2.056.716-3.971.967-5.74.272-1.764.459-3.361.554-4.706s.121-2.439.116-3.19-.025-1.174,0-1.174a1.308,1.308,0,0,1,.05.3c.025.2.05.494.071.872a30.048,30.048,0,0,1-.02,3.21c-.071,1.356-.237,2.963-.494,4.732-.232,1.774-.65,3.709-.942,5.74a10.446,10.446,0,0,0,.393,5.644,10.937,10.937,0,0,0,3.029,3.527,28.046,28.046,0,0,0,2.6,1.844c.64.4,1,.615.988.635Z" transform="translate(-256.526 -305.367)" fill="#1a2e35"/>
            <path id="Trazado_194083" data-name="Trazado 194083" d="M324.5,348.061a13.963,13.963,0,0,0-3.285-.791,13.518,13.518,0,0,0-3.366.343,6.777,6.777,0,0,1,6.652.448Z" transform="translate(-270.623 -308.822)" fill="#1a2e35"/>
            <path id="Trazado_194084" data-name="Trazado 194084" d="M311.651,327.429a5.175,5.175,0,0,1-.438.494c-.3.3-.736.731-1.3,1.25-1.109,1.033-2.681,2.419-4.49,3.87s-3.5,2.681-4.757,3.537c-.625.428-1.139.766-1.5.988a2.472,2.472,0,0,1-.574.323,3.11,3.11,0,0,1,.509-.423l1.441-1.068c1.214-.9,2.887-2.157,4.686-3.6s3.391-2.8,4.535-3.789c.534-.459.988-.852,1.356-1.174A2.554,2.554,0,0,1,311.651,327.429Z" transform="translate(-261.074 -299.14)" fill="#1a2e35"/>
            <path id="Trazado_194085" data-name="Trazado 194085" d="M265.3,313.686c.03.086-.852.464-1.834,1.109s-1.683,1.3-1.749,1.235a4.466,4.466,0,0,1,1.582-1.5,4.355,4.355,0,0,1,2.006-.847Z" transform="translate(-242.774 -292.315)" fill="#1a2e35"/>
            <g id="Grupo_141433" data-name="Grupo 141433" transform="translate(1.682 5.064)">
              <path id="Trazado_194086" data-name="Trazado 194086" d="M303.021,374.863a3.8,3.8,0,0,1-.529.171,10.039,10.039,0,0,1-1.5.262,13.94,13.94,0,0,1-2.258.06,16.1,16.1,0,0,1-2.736-.413,15.657,15.657,0,0,1-2.61-.927,13.831,13.831,0,0,1-1.96-1.119,9.818,9.818,0,0,1-1.194-.937c-.262-.242-.4-.383-.388-.4.035-.045.63.479,1.7,1.154a15.874,15.874,0,0,0,4.525,1.925,16.114,16.114,0,0,0,4.9.433c1.265-.091,2.036-.272,2.046-.217Z" transform="translate(-258.415 -326.094)" fill="#fafafa"/>
              <path id="Trazado_194087" data-name="Trazado 194087" d="M312.145,394.381a3.113,3.113,0,0,1-1.093.2,10.008,10.008,0,0,1-5.215-1.058,3.07,3.07,0,0,1-.927-.61,14.9,14.9,0,0,0,7.241,1.476Z" transform="translate(-265.886 -336.688)" fill="#fafafa"/>
              <path id="Trazado_194088" data-name="Trazado 194088" d="M331.506,384.821a3.318,3.318,0,0,1-.453.272,13.535,13.535,0,0,1-1.31.59,20.07,20.07,0,0,1-9.322,1.29,13.481,13.481,0,0,1-1.421-.212,1.556,1.556,0,0,1-.509-.141c.01-.05.746.06,1.95.131a24.333,24.333,0,0,0,4.681-.181,24.024,24.024,0,0,0,4.55-1.1c1.134-.393,1.819-.7,1.839-.655Z" transform="translate(-272.624 -332.671)" fill="#fafafa"/>
              <path id="Trazado_194089" data-name="Trazado 194089" d="M326.679,364.336c-.01.05-.756-.091-1.965-.237a31.273,31.273,0,0,0-4.752-.2,31.74,31.74,0,0,0-4.727.544c-1.2.232-1.93.423-1.945.378a1.853,1.853,0,0,1,.5-.2c.328-.111.806-.247,1.4-.393a24.753,24.753,0,0,1,9.559-.348c.6.1,1.094.2,1.426.287a1.863,1.863,0,0,1,.509.161Z" transform="translate(-270.044 -322.133)" fill="#fafafa"/>
              <path id="Trazado_194090" data-name="Trazado 194090" d="M335.689,410.3a6.865,6.865,0,0,1-.7-.136,16.58,16.58,0,0,1-1.839-.569,24.252,24.252,0,0,1-5.629-2.938,24.521,24.521,0,0,1-4.676-4.3,17.661,17.661,0,0,1-1.159-1.537,2.891,2.891,0,0,1-.363-.6c.045-.03.62.791,1.688,2a26.92,26.92,0,0,0,10.219,7.176c1.5.595,2.469.857,2.454.912Z" transform="translate(-274.031 -340.314)" fill="#fafafa"/>
              <path id="Trazado_194091" data-name="Trazado 194091" d="M306.321,408.815a6.6,6.6,0,0,1-.071-1.688,18.69,18.69,0,0,1,.6-4.036,18.91,18.91,0,0,1,1.456-3.815,6.567,6.567,0,0,1,.892-1.436,15.67,15.67,0,0,1-.7,1.532,24.432,24.432,0,0,0-1.356,3.8,23.945,23.945,0,0,0-.68,3.976,15.259,15.259,0,0,1-.146,1.678Z" transform="translate(-266.547 -339.134)" fill="#fafafa"/>
              <path id="Trazado_194092" data-name="Trazado 194092" d="M277.193,398.4a4.768,4.768,0,0,1,.015-1.421,8.039,8.039,0,0,1,1.053-3.275,10.5,10.5,0,0,1,2.293-2.56,5.661,5.661,0,0,1,1.154-.826,7.542,7.542,0,0,1-1.008.988,12.526,12.526,0,0,0-2.172,2.555,9.075,9.075,0,0,0-1.1,3.144,8.577,8.577,0,0,1-.232,1.391Z" transform="translate(-252.117 -335.401)" fill="#fafafa"/>
              <path id="Trazado_194093" data-name="Trazado 194093" d="M361.561,419.319a9.011,9.011,0,0,1-1.713.756,31.557,31.557,0,0,1-4.334,1.3,18.385,18.385,0,0,1-4.5.489,7.109,7.109,0,0,1-.786-.05,4.548,4.548,0,0,1-.585-.081,1.59,1.59,0,0,1-.489-.126c.01-.055.716.066,1.859.045a22.328,22.328,0,0,0,4.439-.574c1.713-.383,3.235-.847,4.329-1.2a13.381,13.381,0,0,1,1.789-.549Z" transform="translate(-287.834 -349.79)" fill="#fafafa"/>
              <path id="Trazado_194094" data-name="Trazado 194094" d="M354.94,396.03c.035.015-.151.373-.65.741a8.888,8.888,0,0,1-2.1,1.1,12.927,12.927,0,0,1-2.263.665,4.055,4.055,0,0,1-.721.076c-.171,0-.277-.06-.262-.071s.353-.045.932-.217,1.355-.413,2.2-.741a12.99,12.99,0,0,0,2.086-.993c.5-.3.736-.59.776-.559Z" transform="translate(-287.733 -338.236)" fill="#fafafa"/>
              <path id="Trazado_194095" data-name="Trazado 194095" d="M347.719,372.364a.3.3,0,0,1-.091.212,2.069,2.069,0,0,1-.479.388,9.452,9.452,0,0,1-1.794.836,10.166,10.166,0,0,1-1.91.514c-.5.086-.836.02-.826-.025a6.977,6.977,0,0,1,.781-.191c.479-.126,1.134-.333,1.849-.595a18.121,18.121,0,0,0,1.789-.736,3.486,3.486,0,0,0,.5-.282c.111-.071.146-.136.176-.126Z" transform="translate(-284.594 -326.493)" fill="#fafafa"/>
              <path id="Trazado_194096" data-name="Trazado 194096" d="M301.726,357.731a4.923,4.923,0,0,1-1.4.055,17.8,17.8,0,0,1-3.341-.464,18.1,18.1,0,0,1-3.195-1.083,4.948,4.948,0,0,1-1.224-.675c.04-.091,1.95.867,4.49,1.456,2.535.61,4.666.615,4.666.711Z" transform="translate(-259.765 -318.158)" fill="#fafafa"/>
              <path id="Trazado_194097" data-name="Trazado 194097" d="M340.6,349.22a5.048,5.048,0,0,1-1.95,1.119,5.123,5.123,0,0,1-2.177.564c-.01-.065.927-.373,2.061-.847,1.144-.453,2.026-.887,2.066-.831Z" transform="translate(-281.543 -315.014)" fill="#fafafa"/>
              <path id="Trazado_194098" data-name="Trazado 194098" d="M318.25,333.907a2.575,2.575,0,0,1,.826.655,7.444,7.444,0,0,1,1.431,2.106,7.6,7.6,0,0,1,.65,2.464,2.59,2.59,0,0,1-.045,1.053,10.185,10.185,0,0,0-2.857-6.274Z" transform="translate(-272.505 -307.416)" fill="#fafafa"/>
              <path id="Trazado_194099" data-name="Trazado 194099" d="M280.145,335.678a3.64,3.64,0,0,1-.272-.559,9.772,9.772,0,0,1-.474-1.628,14.8,14.8,0,0,1,.04-5.578,29.261,29.261,0,0,1,1.618-5.341c.262-.665.489-1.194.65-1.557a2.447,2.447,0,0,1,.282-.554,2.276,2.276,0,0,1-.171.6c-.156.438-.338.973-.554,1.592a36.517,36.517,0,0,0-1.517,5.321,16.061,16.061,0,0,0-.131,5.483c.227,1.4.585,2.207.529,2.227Z" transform="translate(-253.11 -300.746)" fill="#fafafa"/>
              <path id="Trazado_194100" data-name="Trazado 194100" d="M253.42,327.169a4.164,4.164,0,0,1,.106-.6,14.533,14.533,0,0,1,.469-1.587,20.295,20.295,0,0,1,6.183-8.869,14.078,14.078,0,0,1,1.325-.988,2.714,2.714,0,0,1,.524-.307c.03.045-.675.539-1.708,1.461a22.852,22.852,0,0,0-6.122,8.778c-.5,1.29-.726,2.121-.776,2.111Z" transform="translate(-240.343 -297.947)" fill="#fafafa"/>
              <path id="Trazado_194101" data-name="Trazado 194101" d="M247.891,297.916c0,.055-.675.086-1.718.383a15.9,15.9,0,0,0-3.86,1.723,18.234,18.234,0,0,0-3.351,2.585c-.771.761-1.164,1.32-1.2,1.29-.02-.01.066-.161.232-.418a5.019,5.019,0,0,1,.333-.454,6.232,6.232,0,0,1,.484-.569,15.325,15.325,0,0,1,3.346-2.7,13.82,13.82,0,0,1,3.966-1.668,5.938,5.938,0,0,1,.736-.136,4.343,4.343,0,0,1,.559-.055,1.38,1.38,0,0,1,.479.02Z" transform="translate(-232.571 -289.551)" fill="#fafafa"/>
              <path id="Trazado_194102" data-name="Trazado 194102" d="M237.25,281.611a15.047,15.047,0,0,0-9.781,2.474,4.851,4.851,0,0,1,1.2-.937,12.015,12.015,0,0,1,7.07-1.784,5.027,5.027,0,0,1,1.507.252Z" transform="translate(-227.469 -281.339)" fill="#fafafa"/>
            </g>
            <path id="Trazado_194103" data-name="Trazado 194103" d="M288,359.86s.05.131.121.388c.076.282.171.66.3,1.134.252,1.018.61,2.449,1.053,4.233.882,3.638,2.106,8.7,3.517,14.513l.06.247-.247-.071c-1.975-.554-4.067-1.144-6.223-1.749l-18.176-5.165.126-.05c-1.3,2.242-2.343,4.067-3.089,5.357-.358.61-.645,1.094-.852,1.446-.091.151-.166.272-.227.373-.055.081-.081.126-.086.121a.851.851,0,0,1,.06-.136l.2-.388c.2-.363.464-.852.8-1.476.721-1.3,1.744-3.139,3-5.4l.04-.076.086.025c4.722,1.32,11.131,3.109,18.2,5.084,2.152.61,4.248,1.2,6.218,1.759l-.186.181c-1.366-5.82-2.555-10.894-3.411-14.538-.408-1.794-.736-3.235-.968-4.258-.106-.479-.186-.862-.247-1.144a1.846,1.846,0,0,1-.065-.4Z" transform="translate(-244.048 -315.229)" fill="#1a2e35"/>
            <path id="Trazado_194104" data-name="Trazado 194104" d="M337.893,357.35a3.6,3.6,0,0,1,.121.348c.076.262.166.6.282,1.013.242.922.574,2.192.983,3.744.811,3.2,1.91,7.559,3.129,12.376.6,2.424,1.184,4.717,1.678,6.828a16.006,16.006,0,0,1,.464,5.729,8.021,8.021,0,0,1-1.366,3.623,4.349,4.349,0,0,1-.973,1.038,11.555,11.555,0,0,0,.877-1.1,8.247,8.247,0,0,0,1.245-3.583,16.186,16.186,0,0,0-.529-5.639c-.524-2.1-1.1-4.4-1.7-6.818-1.184-4.822-2.252-9.186-3.044-12.4-.368-1.562-.67-2.837-.887-3.764q-.136-.627-.227-1.028a1.645,1.645,0,0,1-.06-.363Z" transform="translate(-280.563 -313.984)" fill="#1a2e35"/>
            <g id="Grupo_141434" data-name="Grupo 141434" transform="translate(59.113 50.527)" opacity="0.3">
              <path id="Trazado_194105" data-name="Trazado 194105" d="M344.086,399.325c3.573.328,5.649-1.708,6.032-4.5a10.058,10.058,0,0,0-.8-4.535c-2.192-6.425-4.4-12.9-7.881-18.73,1.315,5.83,2.988,11.434,4.3,17.264a18.146,18.146,0,0,1,.554,4.969,8.937,8.937,0,0,1-2.207,5.533" transform="translate(-341.44 -371.56)"/>
            </g>
          </g>
          <g id="Grupo_141440" data-name="Grupo 141440" transform="translate(32.949 5.262)">
            <path id="Trazado_194106" data-name="Trazado 194106" d="M320.59,298.12a7.268,7.268,0,0,0,9.237-5.518,4.264,4.264,0,0,0,3.684.978,7.018,7.018,0,0,0,3.437-1.854,8.558,8.558,0,0,0,2.882-6.45,6.276,6.276,0,0,0-3.9-5.649,4.988,4.988,0,0,0-6.122,2.484c-.423-1.27.665-2.988.408-4.3-.524-2.64-2.1-4.182-3.442-4.238" transform="translate(-296.804 -265.07)" fill="#1a2e35"/>
            <g id="Grupo_141439" data-name="Grupo 141439">
              <g id="Grupo_141438" data-name="Grupo 141438">
                <path id="Trazado_194107" data-name="Trazado 194107" d="M318.715,291.495c2.615-4.56,3.366-10.632,4.026-15.883.312-2.474.857-5.991-.826-7.538-1.8-1.658-1.98-4.213-4.051-5.488a6.2,6.2,0,0,0-6.843.081" transform="translate(-292.056 -259.13)" fill="#1a2e35"/>
                <g id="Grupo_141437" data-name="Grupo 141437">
                  <g id="Grupo_141436" data-name="Grupo 141436">
                    <path id="Trazado_194108" data-name="Trazado 194108" d="M291.242,303.045v-7.15s-7.448-1.315-7.891-7.286-.287-19.758-.287-19.758h0a19.626,19.626,0,0,1,20.383,1.29l-.3,21.018.015,6.848-6.1,4.948-5.82,4.586Z" transform="translate(-278.174 -261.61)" fill="#ffbf9d"/>
                    <path id="Trazado_194109" data-name="Trazado 194109" d="M284.313,276.394a2.905,2.905,0,0,1,3.951-.9,3.541,3.541,0,0,1,1.134,4.339,4.443,4.443,0,0,1-2.832,2.222s2.681,4.893,4.389,6.188c2.031,1.547,2.988,2.308,5.5,2.605,2.464.292,2.167.317,3.6-1.774a8.228,8.228,0,0,0,1.4-4.853q.113-6.606.227-13.207a19.573,19.573,0,0,0-.307-4.737,6.373,6.373,0,0,0-2.434-3.91c-1.411-.952-3.195-1.028-4.8-1.557-2.006-.665-3.714-2.031-5.593-3.013s-4.177-1.567-6.057-.59c-1.35.705-2.252,2.1-3.563,2.872-1.869,1.1-4.414.862-5.316,3.7a4.967,4.967,0,0,0,.04,3.039,6.726,6.726,0,0,0,9.257,3.724c.065.655-.554,2.111.121,4.177.217.66.292,1.668,1.3,1.683" transform="translate(-273.386 -256.702)" fill="#1a2e35"/>
                  </g>
                  <path id="Trazado_194110" data-name="Trazado 194110" d="M297.114,300.32a.343.343,0,0,0,.081.257.862.862,0,0,0,.645.333,1.62,1.62,0,0,0,1.5-1.653,1.752,1.752,0,0,0-.428-1.26,1.692,1.692,0,0,0-.907-.534c-.595-.126-.937.1-.912.141.015.065.358-.03.836.151a1.5,1.5,0,0,1,1,1.487,1.376,1.376,0,0,1-1.083,1.371c-.484.03-.68-.322-.726-.287Z" transform="translate(-285.144 -276.905)" fill="#ff9a6c"/>
                </g>
              </g>
              <path id="Trazado_194111" data-name="Trazado 194111" d="M345.5,296.95a2.667,2.667,0,0,1-.171.559,6.221,6.221,0,0,1-.791,1.391,6.975,6.975,0,0,1-4.434,2.721,6.842,6.842,0,0,1-5.034-1.3,6.155,6.155,0,0,1-1.154-1.109,1.7,1.7,0,0,1-.317-.494,12.437,12.437,0,0,0,1.6,1.426,6.9,6.9,0,0,0,4.858,1.174,7.048,7.048,0,0,0,4.308-2.545,12.839,12.839,0,0,0,1.134-1.819Z" transform="translate(-303.256 -276.669)" fill="#375a64"/>
              <path id="Trazado_194112" data-name="Trazado 194112" d="M344.839,295.024a2.46,2.46,0,0,1-.207.459,6.248,6.248,0,0,1-.806,1.109,7.446,7.446,0,0,1-3.86,2.3,7.272,7.272,0,0,1-4.475-.423,6.113,6.113,0,0,1-1.194-.67c-.262-.191-.388-.317-.378-.333.03-.05.6.4,1.658.8a7.532,7.532,0,0,0,4.324.323,7.787,7.787,0,0,0,3.769-2.152c.791-.811,1.124-1.451,1.174-1.421Z" transform="translate(-303.416 -275.71)" fill="#375a64"/>
              <path id="Trazado_194113" data-name="Trazado 194113" d="M314.6,297.608a2.09,2.09,0,0,1-.247.136,2.867,2.867,0,0,1-.786.207,4.241,4.241,0,0,1-2.842-.786,8.229,8.229,0,0,1-2.676-3.482,26.853,26.853,0,0,0-2.429-4.732,5.623,5.623,0,0,0-2.036-1.738,7.272,7.272,0,0,0-2.439-.645c-1.623-.166-3.119-.055-4.369-.232a7.015,7.015,0,0,1-2.832-.882,4.42,4.42,0,0,1-.645-.489,1.419,1.419,0,0,1-.191-.207c.02-.025.3.257.9.595a7.3,7.3,0,0,0,2.8.766c1.23.141,2.711.01,4.374.161a7.427,7.427,0,0,1,2.54.655,5.921,5.921,0,0,1,2.152,1.824,25.969,25.969,0,0,1,2.439,4.8,8.208,8.208,0,0,0,2.545,3.422,4.273,4.273,0,0,0,2.711.847,5.678,5.678,0,0,0,1.043-.222Z" transform="translate(-283.171 -270.62)" fill="#375a64"/>
              <path id="Trazado_194114" data-name="Trazado 194114" d="M313.783,294.831a1.576,1.576,0,0,1-.267.025,3.114,3.114,0,0,1-.761-.1,4.784,4.784,0,0,1-2.318-1.572,8.923,8.923,0,0,1-1.114-1.6c-.343-.61-.65-1.285-1-1.985a13.861,13.861,0,0,0-1.214-2.091,6.156,6.156,0,0,0-.847-.932,3.9,3.9,0,0,0-.514-.383,2.81,2.81,0,0,0-.554-.338,6.941,6.941,0,0,0-2.454-.721,19.111,19.111,0,0,0-2.424-.126,32.531,32.531,0,0,1-4.152-.111,7.391,7.391,0,0,1-2.691-.806,4.953,4.953,0,0,1-.635-.428c-.141-.106-.212-.161-.2-.171.02-.025.317.186.892.494a7.818,7.818,0,0,0,2.656.7,36.455,36.455,0,0,0,4.127.04,17.287,17.287,0,0,1,2.464.111,7.289,7.289,0,0,1,2.56.746,3.132,3.132,0,0,1,.585.358,4.38,4.38,0,0,1,.544.408,6.49,6.49,0,0,1,.887.983,14.113,14.113,0,0,1,1.23,2.142c.338.705.64,1.381.967,1.985a9.1,9.1,0,0,0,1.058,1.582,4.891,4.891,0,0,0,2.187,1.6,7.88,7.88,0,0,0,1,.186Z" transform="translate(-282.937 -269.994)" fill="#375a64"/>
              <path id="Trazado_194115" data-name="Trazado 194115" d="M335.3,302.316a1.807,1.807,0,0,1-.328-.277,5.691,5.691,0,0,1-.721-.917,7.315,7.315,0,0,1-.292-7.407,6.182,6.182,0,0,1,.645-.973c.176-.212.292-.312.3-.3.045.03-.343.5-.756,1.376a7.717,7.717,0,0,0,.287,7.191c.479.836.9,1.275.862,1.31Z" transform="translate(-303.004 -274.431)" fill="#ff4f5b"/>
            </g>
          </g>
        </g>
        <g id="Grupo_141444" data-name="Grupo 141444" transform="translate(236.422 204.87)">
          <g id="Grupo_141442" data-name="Grupo 141442">
            <path id="Trazado_194116" data-name="Trazado 194116" d="M501.42,451.989c4.1,1.431,9.438.151,12.94-2.409s6.027-6.223,8.259-9.942a14.8,14.8,0,0,0,2.187-5.069,5.481,5.481,0,0,0-1.557-5.074c-2.2-1.854-5.573-.912-8.073.509a27.836,27.836,0,0,0-13.752,21.98" transform="translate(-464.828 -409.98)" fill="#4dd0e1"/>
            <path id="Trazado_194117" data-name="Trazado 194117" d="M510.145,488.208c2.459,3.245,6.687,4.691,10.753,4.878a29.78,29.78,0,0,0,11.887-2.394c1.381-.529,2.887-1.255,3.361-2.656a3.371,3.371,0,0,0-.721-3.129,7.059,7.059,0,0,0-2.746-1.869,18.787,18.787,0,0,0-11.968-.65c-3.935,1.023-7.377,3.306-10.572,5.82" transform="translate(-469.154 -436.398)" fill="#4dd0e1"/>
            <path id="Trazado_194118" data-name="Trazado 194118" d="M499.635,416.247c3.391.066,5.956-2.9,7.493-5.926a21.967,21.967,0,0,0,2.021-13.7c-.312-1.733-.967-3.6-2.514-4.434a4.477,4.477,0,0,0-4.948.917,10.132,10.132,0,0,0-2.57,4.636,31.011,31.011,0,0,0,.524,18.5" transform="translate(-463.104 -391.784)" fill="#4dd0e1"/>
            <path id="Trazado_194119" data-name="Trazado 194119" d="M473.785,441.434a40.816,40.816,0,0,0,3.331-32.764c-.554-1.769-1.6-3.789-3.447-3.905-2.046-.131-3.326,2.152-3.9,4.122-1.98,6.914-1.562,14.256-1.124,21.436a15.23,15.23,0,0,0,5.13,11.111" transform="translate(-448.39 -398.221)" fill="#4dd0e1"/>
            <path id="Trazado_194120" data-name="Trazado 194120" d="M448.187,470.409a23.643,23.643,0,0,0-14.029-14.875c-1.537-.579-3.487-.907-4.631.267-1.124,1.154-.776,3.079-.055,4.515a22.634,22.634,0,0,0,4.933,5.981,20.471,20.471,0,0,0,5.659,4.213c2.167.947,6.143,1.189,8.123-.1" transform="translate(-428.804 -423.15)" fill="#4dd0e1"/>
            <path id="Trazado_194121" data-name="Trazado 194121" d="M512.271,435.41a.775.775,0,0,1-.1.091c-.081.066-.186.141-.312.242-.292.222-.7.524-1.209.907q-.4.295-.877.65c-.317.242-.645.529-1.008.821-.716.6-1.562,1.24-2.414,2.051q-.65.59-1.361,1.24c-.474.433-.927.922-1.416,1.406-.993.957-1.96,2.071-2.993,3.225a63.7,63.7,0,0,0-10.567,17.1c-.569,1.441-1.134,2.8-1.547,4.122-.212.655-.448,1.28-.625,1.895s-.338,1.209-.5,1.774c-.343,1.124-.539,2.167-.756,3.074-.1.454-.207.877-.282,1.27s-.131.751-.186,1.078c-.116.63-.2,1.129-.267,1.487-.03.156-.055.282-.076.388a.615.615,0,0,1-.035.131s0-.045.01-.136c.015-.106.03-.232.05-.388.055-.363.126-.867.217-1.5l.166-1.083c.071-.393.166-.816.262-1.275.2-.912.388-1.965.721-3.094q.234-.854.484-1.784c.171-.62.4-1.25.61-1.9.4-1.325.967-2.7,1.532-4.147a67.639,67.639,0,0,1,4.606-9.015,68.32,68.32,0,0,1,6-8.148c1.048-1.154,2.021-2.268,3.023-3.22.494-.484.957-.967,1.431-1.4s.937-.836,1.381-1.23c.862-.8,1.718-1.436,2.444-2.026.368-.287.7-.564,1.023-.806s.625-.438.9-.63c.524-.368.942-.655,1.245-.867.131-.091.242-.161.328-.222s.116-.071.116-.065Z" transform="translate(-457.05 -413.427)" fill="#1a2e35"/>
            <path id="Trazado_194122" data-name="Trazado 194122" d="M520.167,488.471s-.141-.015-.4-.065-.635-.146-1.124-.227a31.884,31.884,0,0,0-4.187-.514,30.535,30.535,0,0,0-24.792,10.32,31.5,31.5,0,0,0-2.585,3.331c-.287.408-.484.741-.63.957a2.56,2.56,0,0,1-.232.328,2.257,2.257,0,0,1,.186-.358c.136-.227.312-.574.59-.988a27.663,27.663,0,0,1,2.53-3.4,30.034,30.034,0,0,1,24.953-10.386,28.576,28.576,0,0,1,4.193.6c.489.1.862.217,1.119.277a2.078,2.078,0,0,1,.383.121Z" transform="translate(-457.287 -439.216)" fill="#1a2e35"/>
            <path id="Trazado_194123" data-name="Trazado 194123" d="M498.575,400.375a.871.871,0,0,1-.02.151c-.025.116-.055.262-.091.443q-.136.612-.378,1.693c-.333,1.471-.842,3.593-1.482,6.208-1.275,5.236-3.124,12.447-5.054,20.438-.957,4-1.824,7.816-2.575,11.3-.736,3.487-1.361,6.631-1.824,9.287-.252,1.325-.438,2.53-.615,3.583s-.323,1.965-.428,2.711c-.116.731-.2,1.305-.267,1.713-.03.181-.055.328-.076.443a.748.748,0,0,1-.035.151s0-.05.005-.156.03-.262.05-.448c.05-.413.126-.988.217-1.723s.217-1.663.383-2.721.338-2.268.574-3.593c.443-2.661,1.048-5.81,1.769-9.3.736-3.487,1.6-7.312,2.555-11.313,1.93-8,3.81-15.2,5.13-20.423.655-2.6,1.189-4.707,1.562-6.188.181-.716.328-1.28.428-1.683.05-.181.086-.322.121-.433a.827.827,0,0,1,.05-.146Z" transform="translate(-457.045 -396.043)" fill="#1a2e35"/>
            <path id="Trazado_194124" data-name="Trazado 194124" d="M480.944,467.19a1.234,1.234,0,0,1-.035-.121c-.02-.1-.05-.212-.081-.353-.071-.338-.166-.791-.282-1.371-.247-1.189-.569-2.918-.942-5.059-.741-4.278-1.623-10.224-2.162-16.836-.262-3.306-.408-6.465-.474-9.337-.045-2.872-.02-5.462.065-7.634.025-1.088.1-2.066.146-2.928s.106-1.6.161-2.207c.055-.585.1-1.053.126-1.391.015-.146.03-.262.04-.363a.343.343,0,0,1,.025-.121.774.774,0,0,1,0,.126c0,.1-.01.217-.015.363-.02.343-.045.806-.076,1.4-.04.6-.086,1.345-.116,2.207s-.091,1.839-.106,2.928c-.066,2.167-.071,4.752-.01,7.624.076,2.867.232,6.022.494,9.322.539,6.6,1.386,12.542,2.081,16.825.348,2.142.64,3.875.852,5.069.1.579.176,1.043.232,1.381.02.146.04.262.055.358a.475.475,0,0,1,.01.126Z" transform="translate(-452.687 -405.519)" fill="#1a2e35"/>
            <path id="Trazado_194125" data-name="Trazado 194125" d="M462.771,490.038s-.06-.116-.151-.338c-.1-.252-.222-.579-.383-.988-.081-.217-.171-.458-.272-.716-.116-.257-.237-.534-.373-.831s-.272-.62-.423-.957-.343-.68-.524-1.048-.383-.751-.59-1.149c-.227-.388-.459-.791-.705-1.209-.464-.847-1.063-1.693-1.643-2.61a61.5,61.5,0,0,0-4.354-5.563,67.84,67.84,0,0,0-5-5c-.831-.7-1.592-1.4-2.358-1.99-.378-.3-.741-.59-1.094-.872-.363-.267-.705-.524-1.038-.766-.655-.5-1.27-.912-1.814-1.275s-1.008-.68-1.4-.917c-.373-.237-.67-.423-.9-.569a1.619,1.619,0,0,1-.3-.217,1.932,1.932,0,0,1,.333.166c.237.131.539.307.922.524.4.222.882.519,1.431.882s1.179.761,1.844,1.25c.338.242.685.494,1.053.756l1.109.862c.776.585,1.547,1.28,2.389,1.975a64.382,64.382,0,0,1,5.034,5.009,58.647,58.647,0,0,1,4.359,5.6c.58.927,1.174,1.779,1.633,2.635.237.423.469.831.69,1.224.2.4.393.791.579,1.159s.368.716.509,1.063.277.665.408.968.242.585.353.841c.091.262.176.5.252.726.136.418.247.751.333,1.008a2.192,2.192,0,0,1,.1.358Z" transform="translate(-434.085 -427.123)" fill="#1a2e35"/>
            <path id="Trazado_194126" data-name="Trazado 194126" d="M522.149,457.969a17.544,17.544,0,0,1-1.824.106,33.209,33.209,0,0,0-4.364.529,34.373,34.373,0,0,0-4.253,1.109c-1.068.353-1.718.61-1.738.569a1.851,1.851,0,0,1,.433-.237c.287-.136.711-.317,1.24-.519a25.819,25.819,0,0,1,4.268-1.194,26.23,26.23,0,0,1,4.409-.453c.569-.005,1.028,0,1.34.025a1.611,1.611,0,0,1,.489.06Z" transform="translate(-469.07 -424.572)" fill="#1a2e35"/>
            <path id="Trazado_194127" data-name="Trazado 194127" d="M537.109,494.195a16.462,16.462,0,0,0-2.378-3.588,16.787,16.787,0,0,0-3.4-2.64,3.937,3.937,0,0,1,1.174.519,10.214,10.214,0,0,1,2.429,1.935,10.5,10.5,0,0,1,1.749,2.565,4.278,4.278,0,0,1,.433,1.209Z" transform="translate(-479.665 -439.498)" fill="#1a2e35"/>
            <path id="Trazado_194128" data-name="Trazado 194128" d="M509.114,416.223c.055.06-1.008,1.114-2.172,2.545s-1.985,2.681-2.056,2.635a16.276,16.276,0,0,1,4.228-5.185Z" transform="translate(-466.546 -403.905)" fill="#1a2e35"/>
            <path id="Trazado_194129" data-name="Trazado 194129" d="M506.327,404.26a19.9,19.9,0,0,1,.786,4.611,10.233,10.233,0,0,1-.529-2.283A10.021,10.021,0,0,1,506.327,404.26Z" transform="translate(-467.251 -397.973)" fill="#1a2e35"/>
            <path id="Trazado_194130" data-name="Trazado 194130" d="M481.314,441.819a57.043,57.043,0,0,1-3.628,7,28.811,28.811,0,0,1,1.693-3.563A29.2,29.2,0,0,1,481.314,441.819Z" transform="translate(-453.052 -416.606)" fill="#1a2e35"/>
            <path id="Trazado_194131" data-name="Trazado 194131" d="M472.114,429.069a16.059,16.059,0,0,1,1.436,2.575,15.728,15.728,0,0,1,1.189,2.7,16.054,16.054,0,0,1-1.436-2.575A15.722,15.722,0,0,1,472.114,429.069Z" transform="translate(-450.287 -410.281)" fill="#1a2e35"/>
            <path id="Trazado_194132" data-name="Trazado 194132" d="M448.23,472.142c-.02.081-1.164-.146-2.6-.242s-2.6-.045-2.605-.126a10.429,10.429,0,0,1,5.2.368Z" transform="translate(-435.861 -431.378)" fill="#1a2e35"/>
          </g>
          <g id="Grupo_141443" data-name="Grupo 141443" transform="translate(18.829 60.195)">
            <path id="Trazado_194133" data-name="Trazado 194133" d="M466.17,511.24l3.22,16.926a2.372,2.372,0,0,0,2.333,1.93h9.509a2.37,2.37,0,0,0,2.338-1.985l2.8-16.871H466.175Z" transform="translate(-466.17 -511.24)" fill="#1a2e35"/>
            <path id="Trazado_194134" data-name="Trazado 194134" d="M467.213,516.743h18.181l.967-5.5H466.17Z" transform="translate(-466.17 -511.24)" fill="#375a64"/>
            <path id="Trazado_194135" data-name="Trazado 194135" d="M468.24,522.16l.383,2.006h17.521l.277-2.006Z" transform="translate(-467.197 -516.657)" fill="#fafafa"/>
          </g>
        </g>
      </g>
    </g>
  </g>
</svg>
