<svg xmlns="http://www.w3.org/2000/svg" width="450" height="302" viewBox="0 0 450 302">
  <g id="Grupo_146537" data-name="Grupo 146537" transform="translate(-915 -9294.087)">
    <rect id="Rectángulo_42501" data-name="Rectángulo 42501" width="190" height="302" transform="translate(1175 9294.087)" fill="#4dd0e1"/>
    <g id="Rectángulo_44443" data-name="Rectángulo 44443" transform="translate(915 9303)" fill="#fff" stroke="#707070" stroke-width="1">
      <rect width="439" height="284" rx="20" stroke="none"/>
      <rect x="0.5" y="0.5" width="438" height="283" rx="19.5" fill="none"/>
    </g>
    <g id="_7" data-name="7" transform="translate(935.437 9265.171)">
      <g id="Grupo_142455" data-name="Grupo 142455">
        <g id="Grupo_142453" data-name="Grupo 142453">
          <path id="Trazado_200207" data-name="Trazado 200207" d="M119.693,293.077v27.638h84.991V293.077Z" fill="#f5f5f5"/>
          <path id="Trazado_200208" data-name="Trazado 200208" d="M116.128,285.353v7.725h91.525v-7.725H116.128Z" fill="#e1e1e1"/>
          <path id="Trazado_200209" data-name="Trazado 200209" d="M161.894,320.715h42.79V293.077h2.97v-7.725H160.108v7.013Z" fill="#e1e1e1"/>
          <rect id="Rectángulo_44439" data-name="Rectángulo 44439" width="17.235" height="4.16" transform="translate(131.584 297.535)" fill="#e1e1e1"/>
          <rect id="Rectángulo_44440" data-name="Rectángulo 44440" width="22.132" height="8.786" transform="translate(129.365 306.896)" fill="#fff"/>
        </g>
        <g id="Grupo_142454" data-name="Grupo 142454">
          <path id="Trazado_200210" data-name="Trazado 200210" d="M129.456,264.126v21.227H194.74V264.126Z" fill="#f5f5f5"/>
          <path id="Trazado_200211" data-name="Trazado 200211" d="M126.713,258.187v5.939h70.311v-5.939H126.713Z" fill="#e1e1e1"/>
          <path id="Trazado_200212" data-name="Trazado 200212" d="M161.868,285.353H194.74V264.126h2.284v-5.939H160.5v5.389Z" fill="#ececec"/>
          <rect id="Rectángulo_44441" data-name="Rectángulo 44441" width="13.237" height="3.196" transform="translate(138.584 267.548)" fill="#e1e1e1"/>
          <rect id="Rectángulo_44442" data-name="Rectángulo 44442" width="17.002" height="6.748" transform="translate(136.883 274.736)" fill="#fff"/>
        </g>
      </g>
      <g id="Grupo_142456" data-name="Grupo 142456">
        <path id="Trazado_200213" data-name="Trazado 200213" d="M258.659,320.016c-14.291-9.763-17.7-28.13-17.313-44.672.065-2.763-.272-5.667,1.022-8.106s4.335-4.121,6.819-2.982c2.057.945,2.976,3.319,4.147,5.279a16.13,16.13,0,0,0,6.541,6.114c1.766.893,3.946,1.43,5.674.453,2.368-1.339,2.614-4.632,2.568-7.375l-.252-15.352a25.581,25.581,0,0,1,.744-8.165c.828-2.614,2.691-5.053,5.292-5.816s5.848.712,6.431,3.4a26.057,26.057,0,0,1,.116,3.416,2.887,2.887,0,0,0,1.721,2.7c1.1.311,2.187-.479,3-1.294,2.808-2.8,4.69-6.392,6.45-9.963s3.468-7.227,6-10.274,6.075-5.486,10-5.745,8.145,2.122,9.18,5.971-1.177,7.809-3.6,10.972a61.366,61.366,0,0,1-12.635,12.3,4.993,4.993,0,0,0-2.109,2.316c-.576,1.837,1.177,3.636,2.989,4.218,2.051.66,4.27.427,6.418.653s4.47,1.152,5.305,3.164c1.152,2.795-1.165,5.758-3.455,7.712a52.527,52.527,0,0,1-15.443,9.129c-2.012.757-4.134,1.43-5.745,2.866s-2.568,3.914-1.566,5.836,3.539,2.517,5.648,2.1,3.992-1.585,6-2.361c3.759-1.462,8.637-1.255,11.082,1.98a8.69,8.69,0,0,1,1,7.673,20.1,20.1,0,0,1-4.089,6.832,52.8,52.8,0,0,1-22.378,16.077c-8.721,3.125-16.821,4.031-25.555.938" fill="#f5f5f5"/>
        <path id="Trazado_200214" data-name="Trazado 200214" d="M262.819,309.6a246.123,246.123,0,0,1,9.491-26.59q1.446-3.464,2.847-6.845c.938-2.245,1.87-4.47,2.918-6.586a122.454,122.454,0,0,1,6.7-11.839c2.316-3.662,4.645-7.052,6.845-10.209s4.322-6.049,6.366-8.611A97.284,97.284,0,0,1,308.5,227.573c1.339-1.236,2.413-2.167,3.151-2.782.356-.291.634-.524.841-.7a2.333,2.333,0,0,1,.3-.226,2.62,2.62,0,0,1-.265.265c-.2.181-.466.427-.809.738-.712.64-1.766,1.591-3.086,2.853a103.979,103.979,0,0,0-10.371,11.425c-2.018,2.568-4.108,5.467-6.3,8.624s-4.5,6.56-6.8,10.215a123.25,123.25,0,0,0-6.651,11.807c-1.035,2.109-1.96,4.315-2.9,6.567s-1.883,4.529-2.84,6.838a252.842,252.842,0,0,0-9.51,26.525" fill="#e1e1e1"/>
        <path id="Trazado_200215" data-name="Trazado 200215" d="M278.217,269.56a5.906,5.906,0,0,1-.278-1.171c-.155-.757-.336-1.857-.543-3.228-.414-2.73-.86-6.521-1.339-10.7s-.977-7.951-1.43-10.668c-.226-1.359-.421-2.458-.563-3.215a6.055,6.055,0,0,1-.168-1.19,5.436,5.436,0,0,1,.356,1.145c.2.744.453,1.837.718,3.189.55,2.711,1.106,6.489,1.585,10.675.459,4.128.873,7.861,1.19,10.707.149,1.287.278,2.374.382,3.241a4.895,4.895,0,0,1,.084,1.2Z" fill="#e1e1e1"/>
        <path id="Trazado_200216" data-name="Trazado 200216" d="M313.45,262.6a7.985,7.985,0,0,1-1.4.181c-.906.091-2.213.214-3.83.421-3.228.382-7.673,1.067-12.538,2.038s-9.239,2.051-12.37,2.918c-1.572.421-2.834.8-3.707,1.055a6.9,6.9,0,0,1-1.372.349,7.6,7.6,0,0,1,1.313-.543c.86-.311,2.109-.744,3.675-1.21,3.118-.957,7.492-2.09,12.376-3.073a124.92,124.92,0,0,1,12.6-1.9c1.624-.162,2.944-.226,3.856-.259a7.734,7.734,0,0,1,1.417.013Z" fill="#e1e1e1"/>
        <path id="Trazado_200217" data-name="Trazado 200217" d="M263.246,308.947a4.713,4.713,0,0,1-.246-.427c-.168-.343-.369-.763-.615-1.268-.53-1.106-1.255-2.724-2.128-4.742-1.747-4.024-3.979-9.666-6.366-15.915s-4.568-11.91-6.224-15.967c-.815-1.973-1.482-3.6-1.98-4.8-.213-.524-.388-.957-.531-1.307a2.1,2.1,0,0,1-.155-.472,2.573,2.573,0,0,1,.246.427c.168.343.369.763.615,1.268.531,1.106,1.255,2.724,2.128,4.742,1.747,4.024,3.979,9.666,6.366,15.922s4.561,11.9,6.224,15.96c.815,1.973,1.482,3.6,1.98,4.8.214.524.388.957.531,1.307A2.1,2.1,0,0,1,263.246,308.947Z" fill="#e1e1e1"/>
        <path id="Trazado_200218" data-name="Trazado 200218" d="M310,293.342a3.609,3.609,0,0,1-.466.194c-.369.129-.815.285-1.359.472-1.255.421-2.95.99-5.007,1.682-4.225,1.417-10.041,3.448-16.465,5.7s-12.266,4.225-16.523,5.557c-2.129.666-3.856,1.19-5.059,1.527-.556.149-1.016.278-1.384.382a1.584,1.584,0,0,1-.492.1,1.972,1.972,0,0,1,.466-.2c.362-.123.815-.278,1.359-.472,1.255-.421,2.944-.99,5.007-1.682,4.225-1.417,10.041-3.448,16.471-5.7s12.26-4.225,16.523-5.557c2.128-.666,3.856-1.19,5.059-1.527.556-.149,1.009-.278,1.384-.382a1.557,1.557,0,0,1,.492-.1Z" fill="#e1e1e1"/>
      </g>
      <path id="Trazado_200219" data-name="Trazado 200219" d="M324.558,76.638a6.622,6.622,0,0,0,3.946-6.127,6.224,6.224,0,1,0-12.422-.058,6.615,6.615,0,0,0,3.959,6.185c-9.556,1.443-9.122,11.826-9.122,11.826l22.6.1S334.036,78.068,324.558,76.638Z" fill="#e1e1e1"/>
      <g id="Grupo_142457" data-name="Grupo 142457">
        <path id="Trazado_200220" data-name="Trazado 200220" d="M321.252,156.589a10.156,10.156,0,0,1,2.5-1.087l.511-2.471,4.173-.071.6,2.452a10.2,10.2,0,0,1,2.53,1l2.109-1.384,3,2.9-1.307,2.154a10.156,10.156,0,0,1,1.087,2.5l2.471.511.071,4.173-2.452.6a10.194,10.194,0,0,1-1,2.53l1.384,2.109-2.9,3-2.154-1.307a10.157,10.157,0,0,1-2.5,1.087l-.511,2.471-4.173.071-.6-2.452a10.193,10.193,0,0,1-2.53-1l-2.109,1.384-3-2.9,1.307-2.154a10.157,10.157,0,0,1-1.087-2.5l-2.471-.511-.071-4.173,2.452-.6a10.192,10.192,0,0,1,1-2.53l-1.384-2.109,2.9-3,2.154,1.307Zm2.226,5.557a4.479,4.479,0,1,0,6.334-.11,4.477,4.477,0,0,0-6.334.11Z" fill="#e1e1e1"/>
        <path id="Trazado_200221" data-name="Trazado 200221" d="M323.478,162.153a3.343,3.343,0,0,1,.835-.731,4.458,4.458,0,0,1,2.924-.692,4.533,4.533,0,0,1,3.591,2.517,4.266,4.266,0,0,1,.408,1.255,4.464,4.464,0,0,1,.026,1.378,4.63,4.63,0,0,1-1.242,2.581,4.582,4.582,0,0,1-2.536,1.333,4.294,4.294,0,0,1-1.378.026,4.345,4.345,0,0,1-1.268-.362,4.546,4.546,0,0,1-2.64-3.5,4.443,4.443,0,0,1,.589-2.944,3.463,3.463,0,0,1,.7-.86,10.6,10.6,0,0,0-.615.906,4.5,4.5,0,0,0-.5,2.866,4.356,4.356,0,0,0,.77,1.863,4.427,4.427,0,0,0,1.786,1.449,4.15,4.15,0,0,0,1.2.336,4.226,4.226,0,0,0,1.307-.026,4.329,4.329,0,0,0,3.571-3.7,4.022,4.022,0,0,0-.019-1.307,4.063,4.063,0,0,0-.375-1.19,4.378,4.378,0,0,0-3.4-2.439,4.475,4.475,0,0,0-2.847.6c-.6.369-.867.673-.886.647Z" fill="#e1e1e1"/>
        <path id="Trazado_200222" data-name="Trazado 200222" d="M321.252,156.589a1.52,1.52,0,0,1-.136-.071c-.1-.058-.239-.136-.414-.239-.375-.22-.919-.543-1.624-.957h.052c-.738.763-1.708,1.786-2.879,3.015v-.078c.427.641.9,1.346,1.4,2.1l.026.039-.019.039a10.043,10.043,0,0,0-.977,2.517l-.013.052-.052.013c-.763.188-1.592.395-2.452.608l.071-.091c.026,1.313.052,2.711.084,4.173l-.078-.1c.763.155,1.6.33,2.471.511l.065.013.019.065a9.871,9.871,0,0,0,1.08,2.465l.032.058-.032.058c-.4.666-.848,1.4-1.307,2.161l-.019-.142c.945.912,1.96,1.889,3.008,2.9l-.149-.013c.653-.433,1.378-.906,2.109-1.384l.065-.039.065.039a10.252,10.252,0,0,0,2.5.983l.071.019.019.071c.188.77.395,1.6.6,2.452l-.123-.1c1.32-.026,2.737-.052,4.173-.078l-.123.1c.162-.783.336-1.624.511-2.471l.013-.078.078-.019a10.127,10.127,0,0,0,2.465-1.067h0l.065-.039.065.039c.725.44,1.443.873,2.154,1.307l-.162.019c.977-1.016,1.947-2.018,2.9-3l-.013.155c-.466-.712-.925-1.417-1.384-2.109l-.039-.065.039-.065a9.98,9.98,0,0,0,.983-2.5l.019-.071.071-.019c.828-.2,1.643-.4,2.452-.6l-.091.123c-.026-1.423-.045-2.814-.071-4.173l.1.116c-.835-.175-1.663-.349-2.471-.518l-.071-.013-.019-.065a10.3,10.3,0,0,0-1.068-2.471l-.032-.058.032-.058c.446-.738.886-1.456,1.313-2.154l.019.129c-1.055-1.022-2.051-1.986-3-2.9l.123.013c-.744.485-1.443.938-2.116,1.378l-.045.032-.045-.026a10.092,10.092,0,0,0-2.51-1l-.052-.013-.013-.052c-.214-.893-.408-1.7-.6-2.452l.078.058c-1.617.019-3,.039-4.173.052l.058-.045c-.214.983-.388,1.792-.531,2.465v.026l-.032.006a10.81,10.81,0,0,0-1.909.731q-.291.155-.446.233c-.1.058-.149.078-.149.078a1.144,1.144,0,0,1,.142-.1c.1-.058.239-.149.44-.252a9.61,9.61,0,0,1,1.909-.776l-.026.032c.136-.673.3-1.488.5-2.471V153h.058c1.177-.026,2.555-.058,4.173-.091h.058l.013.058c.188.757.388,1.559.608,2.445l-.065-.065a10.381,10.381,0,0,1,2.555,1h-.1c.673-.44,1.365-.9,2.1-1.384l.065-.045.058.052c.951.912,1.947,1.876,3.008,2.892l.058.058-.045.071c-.421.7-.854,1.417-1.307,2.161v-.116a10.393,10.393,0,0,1,1.1,2.523l-.084-.084,2.471.511.091.019v.1q.039,2.038.078,4.173v.1l-.091.026c-.809.2-1.624.4-2.452.6l.091-.091a10.455,10.455,0,0,1-1.009,2.562v-.129c.453.7.912,1.4,1.378,2.109l.058.084-.071.071c-.951.99-1.921,1.986-2.9,3l-.071.071-.091-.052c-.712-.433-1.43-.867-2.154-1.307h.136a10.113,10.113,0,0,1-2.523,1.093l.091-.1c-.175.848-.349,1.689-.518,2.471l-.019.1h-.1c-1.436.026-2.853.052-4.173.071h-.1l-.026-.1c-.207-.848-.414-1.682-.6-2.452l.091.091a10.372,10.372,0,0,1-2.562-1.009h.123c-.731.472-1.456.945-2.109,1.378l-.078.052-.071-.065c-1.042-1.009-2.057-1.993-3-2.9l-.065-.065.045-.078c.459-.75.906-1.488,1.313-2.154v.116a10.4,10.4,0,0,1-1.093-2.523l.078.078-2.471-.518-.078-.019V167.7c-.026-1.462-.045-2.86-.065-4.173v-.071l.071-.019c.86-.207,1.689-.408,2.452-.6l-.065.065a10.224,10.224,0,0,1,1.009-2.549v.078c-.492-.763-.958-1.475-1.372-2.116l-.026-.045.039-.039c1.19-1.216,2.167-2.219,2.918-2.989l.026-.026.026.019q1.038.64,1.591.99c.175.11.311.194.408.259a.694.694,0,0,1,.136.1Z" fill="#e1e1e1"/>
      </g>
      <path id="Trazado_200223" data-name="Trazado 200223" d="M101.016,65.1a4.891,4.891,0,0,0,4.606-.99c.8,1.152,1.818,2.517,2.963,3.979q.951,1.2,1.824,2.245a4.98,4.98,0,0,0-2.562,5.874c-1.08.336-2.3.75-3.6,1.229-1.152.421-2.219.848-3.177,1.242a5,5,0,1,0-.019,2.944,4.857,4.857,0,0,0,.207-1.708c1.048-.33,2.213-.725,3.461-1.184,1.333-.492,2.562-.977,3.616-1.43a4.938,4.938,0,0,0,2.8,2.264,5,5,0,1,0,.569-9.653c-.608-.835-1.294-1.74-2.038-2.678-1.184-1.507-2.31-2.853-3.261-3.914a5.919,5.919,0,0,0,1.009-1.9,5.014,5.014,0,1,0-6.4,3.681Z" fill="#e1e1e1"/>
      <path id="Trazado_200224" data-name="Trazado 200224" d="M71.54,182.564l5.046,6.217a.925.925,0,0,0,.789.336l7.983-.634a.92.92,0,0,1,.848,1.417l-4.354,6.722a.93.93,0,0,0-.078.854l3.067,7.4a.92.92,0,0,1-1.087,1.242l-7.738-2.064a.926.926,0,0,0-.835.188l-6.088,5.2a.923.923,0,0,1-1.52-.653l-.427-8a.919.919,0,0,0-.44-.738l-6.832-4.179a.919.919,0,0,1,.149-1.643l7.472-2.879a.916.916,0,0,0,.563-.647l1.87-7.789a.922.922,0,0,1,1.611-.369Z" fill="#e1e1e1"/>
      <path id="Trazado_200225" data-name="Trazado 200225" d="M260.613,206.392a9.034,9.034,0,1,0-16.821,4.567h0l.026.032c.349.582.783,1,1.216,1.617l5.247,6.948a1.632,1.632,0,0,0,2.607,0l5.156-6.832a18.8,18.8,0,0,0,1.313-1.74l.019-.026h0a8.966,8.966,0,0,0,1.249-4.568Zm-9.031,3.933a3.979,3.979,0,1,1,3.979-3.979A3.98,3.98,0,0,1,251.581,210.325Z" fill="#e1e1e1"/>
      <g id="Grupo_142487" data-name="Grupo 142487">
        <g id="Grupo_142458" data-name="Grupo 142458">
          <path id="Trazado_200226" data-name="Trazado 200226" d="M192.126,162.9a4.152,4.152,0,0,1-.239.395c-.188.278-.433.64-.738,1.093-.647.945-1.6,2.3-2.795,3.966-2.381,3.332-5.713,7.9-9.5,12.874s-7.317,9.394-9.976,12.512c-1.339,1.553-2.42,2.8-3.215,3.629-.375.395-.673.712-.906.958a2.716,2.716,0,0,1-.33.317,2.492,2.492,0,0,1,.285-.362c.22-.252.5-.589.86-1,.763-.854,1.818-2.128,3.131-3.7,2.607-3.151,6.107-7.6,9.892-12.564s7.142-9.51,9.575-12.81c1.2-1.624,2.174-2.95,2.879-3.9.33-.433.589-.789.789-1.055a2.614,2.614,0,0,1,.291-.356Z" fill="#feca2e"/>
          <path id="Trazado_200227" data-name="Trazado 200227" d="M210.552,85.295c.091.013-.317,3.481-.912,7.744s-1.152,7.712-1.249,7.7.317-3.481.912-7.744S210.455,85.282,210.552,85.295Z" fill="#feca2e"/>
          <path id="Trazado_200228" data-name="Trazado 200228" d="M275.344,80.8s-.142.142-.433.382c-.317.252-.738.6-1.275,1.029-1.139.906-2.75,2.18-4.723,3.746-4.031,3.151-9.556,7.472-15.656,12.247-6.127,4.742-11.671,9.038-15.715,12.169-2,1.527-3.629,2.775-4.787,3.655-.55.414-.99.738-1.313.983a4.462,4.462,0,0,1-.472.323,4.749,4.749,0,0,1,.427-.375c.317-.252.738-.6,1.275-1.029,1.139-.906,2.75-2.174,4.723-3.739l15.663-12.247c6.127-4.742,11.671-9.038,15.715-12.169,2-1.527,3.629-2.775,4.787-3.655.55-.414.99-.738,1.313-.977a4.461,4.461,0,0,1,.472-.323Z" fill="#feca2e"/>
          <path id="Trazado_200229" data-name="Trazado 200229" d="M306.65,123.394c.007.091-15.844,1.41-35.408,2.937s-35.427,2.7-35.434,2.6,15.844-1.41,35.408-2.937S306.644,123.3,306.65,123.394Z" fill="#feca2e"/>
          <path id="Trazado_200230" data-name="Trazado 200230" d="M262.851,162.34c-.045.084-6.767-3.261-15.016-7.472s-14.906-7.692-14.861-7.776,6.767,3.261,15.016,7.472S262.9,162.256,262.851,162.34Z" fill="#feca2e"/>
          <path id="Trazado_200231" data-name="Trazado 200231" d="M182.661,108.514s-.123-.129-.33-.4c-.226-.3-.524-.686-.9-1.184-.776-1.029-1.883-2.53-3.235-4.393-2.711-3.726-6.4-8.915-10.371-14.718s-7.479-11.121-9.976-15c-1.249-1.934-2.245-3.513-2.931-4.606q-.485-.8-.776-1.262a3.471,3.471,0,0,1-.252-.453,3.273,3.273,0,0,1,.311.414c.207.3.485.718.828,1.229.731,1.1,1.76,2.646,3.015,4.548,2.549,3.843,6.081,9.135,10.054,14.938s7.628,11.011,10.287,14.77c1.313,1.863,2.387,3.377,3.151,4.458.356.511.634.912.848,1.216a3.7,3.7,0,0,1,.278.44Z" fill="#feca2e"/>
          <path id="Trazado_200232" data-name="Trazado 200232" d="M174.122,120.748c-.039.084-4.445-1.909-9.84-4.451s-9.737-4.671-9.7-4.755,4.445,1.909,9.84,4.451,9.737,4.671,9.691,4.755Z" fill="#feca2e"/>
          <path id="Trazado_200233" data-name="Trazado 200233" d="M171.611,132.755c-.006.091-14.861-1.165-33.176-2.808s-33.156-3.047-33.144-3.138,14.861,1.165,33.176,2.808S171.618,132.665,171.611,132.755Z" fill="#feca2e"/>
          <path id="Trazado_200234" data-name="Trazado 200234" d="M176.916,150.5c.039.084-8.779,3.927-19.693,8.572s-19.79,8.352-19.829,8.262,8.779-3.927,19.693-8.572,19.79-8.352,19.829-8.262Z" fill="#feca2e"/>
        </g>
        <g id="Grupo_142460" data-name="Grupo 142460">
          <circle id="Elipse_5015" data-name="Elipse 5015" cx="32.328" cy="32.328" r="32.328" transform="translate(171.611 100.427)" fill="#feca2e"/>
          <g id="Grupo_142459" data-name="Grupo 142459" opacity="0.8">
            <circle id="Elipse_5016" data-name="Elipse 5016" cx="32.328" cy="32.328" r="32.328" transform="translate(171.611 100.427)" fill="#fff"/>
          </g>
        </g>
        <g id="Grupo_142462" data-name="Grupo 142462">
          <path id="Trazado_200235" data-name="Trazado 200235" d="M160.794,53.924s-.013-.084-.032-.259-.032-.433-.052-.75c-.013-.168-.026-.349-.039-.556s-.065-.421-.1-.66a11.184,11.184,0,0,0-.336-1.637,15.3,15.3,0,0,0-1.766-4.205,15.753,15.753,0,0,0-18.923-6.715,15.954,15.954,0,0,0-2.051.906,15.737,15.737,0,0,0-1.928,1.242,18.73,18.73,0,0,0-1.786,1.514,17.386,17.386,0,0,0-1.54,1.824,15.076,15.076,0,0,0-2.245,4.335,15.628,15.628,0,0,0,0,9.924,15.239,15.239,0,0,0,2.245,4.335,17.385,17.385,0,0,0,1.54,1.824,17.2,17.2,0,0,0,1.786,1.52,16.542,16.542,0,0,0,1.928,1.242,16,16,0,0,0,10.319,1.6A15.844,15.844,0,0,0,158.459,62a15.27,15.27,0,0,0,1.766-4.2,11.19,11.19,0,0,0,.336-1.637c.039-.239.084-.459.1-.66s.026-.388.039-.556c.026-.317.039-.569.052-.75a1.21,1.21,0,0,1,.032-.259,1.286,1.286,0,0,1,0,.259c0,.188-.013.44-.019.757,0,.168-.013.356-.019.556s-.058.427-.091.666a10.418,10.418,0,0,1-.311,1.656,14.878,14.878,0,0,1-1.734,4.263,16.07,16.07,0,0,1-21.285,5.991,16.931,16.931,0,0,1-1.973-1.262,17.758,17.758,0,0,1-1.824-1.546,18.964,18.964,0,0,1-1.579-1.857,15.471,15.471,0,0,1-2.3-4.425,17.022,17.022,0,0,1-.828-5.066,17.231,17.231,0,0,1,.828-5.066,15.351,15.351,0,0,1,2.3-4.419,17.446,17.446,0,0,1,1.579-1.857,17.88,17.88,0,0,1,1.824-1.546,15.908,15.908,0,0,1,1.973-1.262,17.6,17.6,0,0,1,2.1-.919,15.939,15.939,0,0,1,15.152,2.348,15.852,15.852,0,0,1,4.037,4.561,15.142,15.142,0,0,1,1.734,4.263,11.938,11.938,0,0,1,.311,1.656c.032.239.071.466.091.666s.013.388.019.556c.006.317.019.569.019.757v.259Z" fill="#feca2e"/>
          <g id="Grupo_142461" data-name="Grupo 142461">
            <path id="Trazado_200236" data-name="Trazado 200236" d="M148.334,52.261a5.317,5.317,0,0,0-.181-1.21,4.805,4.805,0,0,0-.556-1.313,4.909,4.909,0,0,0-5.9-2.083,4.719,4.719,0,0,0-1.242.666,5.5,5.5,0,0,0-.556.472,5.859,5.859,0,0,0-.479.569,4.882,4.882,0,0,0,0,5.79,5.859,5.859,0,0,0,.479.569,5.5,5.5,0,0,0,.556.472,4.446,4.446,0,0,0,1.242.666,4.922,4.922,0,0,0,5.9-2.083,4.805,4.805,0,0,0,.556-1.313,7.23,7.23,0,0,0,.181-1.21v.317a1.712,1.712,0,0,1-.032.382,2.975,2.975,0,0,1-.1.518,4.89,4.89,0,0,1-.537,1.339,5.055,5.055,0,0,1-1.268,1.436,4.9,4.9,0,0,1-2.109.951,5,5,0,0,1-2.646-.213,4.819,4.819,0,0,1-1.281-.686,5.856,5.856,0,0,1-.576-.485,6.205,6.205,0,0,1-.5-.582,5.014,5.014,0,0,1,0-5.965,5.369,5.369,0,0,1,.5-.582,5.858,5.858,0,0,1,.576-.485,4.629,4.629,0,0,1,1.281-.686,5.066,5.066,0,0,1,2.646-.213,5.027,5.027,0,0,1,3.377,2.387,4.51,4.51,0,0,1,.537,1.339c.052.194.071.369.1.518a2.212,2.212,0,0,1,.032.382v.317Z" fill="#0f2771"/>
            <path id="Trazado_200237" data-name="Trazado 200237" d="M146.768,55.884s1.113,1,2.42,2.31,2.342,2.394,2.31,2.42-1.113-1-2.42-2.31S146.736,55.91,146.768,55.884Z" fill="#0f2771"/>
          </g>
        </g>
        <g id="Grupo_142469" data-name="Grupo 142469">
          <g id="Grupo_142463" data-name="Grupo 142463">
            <circle id="Elipse_5017" data-name="Elipse 5017" cx="21.246" cy="21.246" r="21.246" transform="translate(62.8 103.002)" fill="#fff"/>
            <path id="Trazado_200238" data-name="Trazado 200238" d="M105.292,124.248s-.019-.116-.032-.343-.039-.576-.065-1.009c-.013-.22-.026-.472-.045-.744s-.091-.569-.136-.886a15.718,15.718,0,0,0-.446-2.193,20.3,20.3,0,0,0-2.355-5.629,21.244,21.244,0,0,0-14.272-9.931,20,20,0,0,0-2.665-.311c-.453-.013-.912-.058-1.378-.052-.459.026-.925.045-1.4.071-.233.019-.472.013-.705.045l-.705.11c-.472.078-.945.136-1.417.233a21.433,21.433,0,0,0-2.814.828,21.92,21.92,0,0,0-2.75,1.21c-.446.239-.873.524-1.313.783a11.176,11.176,0,0,0-1.275.88,25.171,25.171,0,0,0-2.394,2.031,22.777,22.777,0,0,0-2.064,2.445,20.491,20.491,0,0,0-3.015,5.81,20.891,20.891,0,0,0,0,13.3,20.327,20.327,0,0,0,3.015,5.81,24.377,24.377,0,0,0,2.064,2.445,22.85,22.85,0,0,0,2.394,2.031,10.632,10.632,0,0,0,1.274.88c.44.259.867.543,1.313.783a21.921,21.921,0,0,0,2.75,1.21,23.62,23.62,0,0,0,2.814.828c.472.1.951.155,1.417.233l.705.11c.233.032.472.032.705.045.466.026.932.052,1.4.071s.919-.039,1.378-.052a19.077,19.077,0,0,0,2.672-.311,21.209,21.209,0,0,0,14.265-9.931,20.3,20.3,0,0,0,2.355-5.629,15.718,15.718,0,0,0,.446-2.193c.045-.323.11-.615.136-.886s.032-.518.045-.744c.026-.433.052-.77.065-1.009s.032-.343.032-.343v.343c-.006.239-.019.576-.032,1.009-.006.226-.019.472-.032.744s-.078.569-.123.893a15.385,15.385,0,0,1-.414,2.206,19.915,19.915,0,0,1-2.323,5.693,21.3,21.3,0,0,1-5.4,6.088,21.082,21.082,0,0,1-8.98,4.024,20.585,20.585,0,0,1-2.7.323c-.459.019-.925.065-1.4.058-.466-.026-.938-.045-1.417-.071-.239-.013-.479-.013-.718-.045l-.712-.11c-.479-.078-.964-.136-1.443-.233a22,22,0,0,1-2.853-.835,21.663,21.663,0,0,1-2.795-1.223c-.453-.246-.886-.531-1.333-.8a10.9,10.9,0,0,1-1.294-.886,22.81,22.81,0,0,1-2.433-2.064,24.154,24.154,0,0,1-2.1-2.478,20.8,20.8,0,0,1-3.067-5.9,21.191,21.191,0,0,1,0-13.515,20.807,20.807,0,0,1,3.067-5.9,23.482,23.482,0,0,1,2.1-2.478,24.427,24.427,0,0,1,2.433-2.064,10.9,10.9,0,0,1,1.294-.886c.446-.265.88-.55,1.333-.8a21.663,21.663,0,0,1,2.795-1.223,23.065,23.065,0,0,1,2.853-.835c.479-.1.964-.155,1.443-.233l.712-.11c.239-.032.479-.026.712-.045.472-.026.945-.045,1.417-.071.466,0,.932.039,1.391.058a19.545,19.545,0,0,1,2.7.323,21.345,21.345,0,0,1,14.375,10.112,20.179,20.179,0,0,1,2.323,5.693,14.685,14.685,0,0,1,.414,2.206c.045.323.1.621.123.893s.019.524.032.744c.013.433.026.77.032,1.009v.343Z" fill="#feca2e"/>
          </g>
          <g id="Grupo_142468" data-name="Grupo 142468">
            <g id="Grupo_142464" data-name="Grupo 142464">
              <circle id="Elipse_5018" data-name="Elipse 5018" cx="11.328" cy="11.328" r="11.328" transform="translate(69.243 118.802) rotate(-23.14)" fill="#f5f5f5"/>
              <path id="Trazado_200239" data-name="Trazado 200239" d="M95.439,124.772s-.019-.246-.052-.718a5.356,5.356,0,0,0-.1-.867,8.1,8.1,0,0,0-.233-1.171,10.883,10.883,0,0,0-1.255-3.008,11.269,11.269,0,0,0-13.541-4.82,10.7,10.7,0,0,0-2.853,1.533,10.309,10.309,0,0,0-2.387,2.394,11.2,11.2,0,0,0,0,13.314,10.309,10.309,0,0,0,2.387,2.394,10.7,10.7,0,0,0,2.853,1.533,11.3,11.3,0,0,0,13.541-4.82,10.8,10.8,0,0,0,1.255-3.008,8.1,8.1,0,0,0,.233-1.171,6.413,6.413,0,0,0,.1-.867c.026-.472.052-.718.052-.718s0,.246-.026.725a4.68,4.68,0,0,1-.084.873,8.082,8.082,0,0,1-.226,1.177,10.808,10.808,0,0,1-1.242,3.034,11.34,11.34,0,0,1-13.644,4.9,10.84,10.84,0,0,1-2.885-1.546,12.128,12.128,0,0,1-1.294-1.1,12.957,12.957,0,0,1-1.119-1.32,11.33,11.33,0,0,1,0-13.47,12.178,12.178,0,0,1,1.119-1.32,12.927,12.927,0,0,1,1.294-1.1,10.84,10.84,0,0,1,2.885-1.546,11.469,11.469,0,0,1,5.984-.485,11.393,11.393,0,0,1,7.66,5.383,10.657,10.657,0,0,1,1.242,3.034,8.082,8.082,0,0,1,.226,1.177,5.3,5.3,0,0,1,.084.873c.019.472.026.725.026.725Z" fill="#0f2771"/>
            </g>
            <g id="Grupo_142465" data-name="Grupo 142465">
              <path id="Trazado_200240" data-name="Trazado 200240" d="M84.111,117.371a7.4,7.4,0,1,0,7.4,7.4A7.408,7.408,0,0,0,84.111,117.371Z" fill="none"/>
              <path id="Trazado_200241" data-name="Trazado 200241" d="M84.111,117.371a5.725,5.725,0,0,1,1.824.168,7.468,7.468,0,0,1,5.583,5.842,7.573,7.573,0,0,1-.311,3.966,7.206,7.206,0,0,1-1.022,1.915,7.123,7.123,0,0,1-1.6,1.6,7.622,7.622,0,0,1-4.47,1.482,7.533,7.533,0,0,1-4.47-1.482,7.258,7.258,0,0,1-1.6-1.6,6.853,6.853,0,0,1-1.022-1.915,7.573,7.573,0,0,1-.311-3.966,7.468,7.468,0,0,1,1.43-3.157,7.379,7.379,0,0,1,4.153-2.685,5.722,5.722,0,0,1,1.824-.168,13.4,13.4,0,0,0-1.792.3,7.426,7.426,0,0,0-4,2.7A7.252,7.252,0,0,0,77.3,127.25a6.906,6.906,0,0,0,.99,1.831,6.764,6.764,0,0,0,1.54,1.527,7.188,7.188,0,0,0,8.553,0,7.254,7.254,0,0,0,2.53-3.358,7.243,7.243,0,0,0-1.016-6.871,7.4,7.4,0,0,0-4-2.7,14.9,14.9,0,0,0-1.792-.3Z" fill="#feca2e"/>
            </g>
            <g id="Grupo_142466" data-name="Grupo 142466">
              <path id="Trazado_200242" data-name="Trazado 200242" d="M84.111,122.423a2.348,2.348,0,1,0,2.348,2.348A2.352,2.352,0,0,0,84.111,122.423Z" fill="none"/>
              <path id="Trazado_200243" data-name="Trazado 200243" d="M84.111,122.423a1.433,1.433,0,0,1,.589.013,2.332,2.332,0,0,1,1.372.848,2.443,2.443,0,0,1,.388,2.348,2.494,2.494,0,0,1-4.7,0,2.466,2.466,0,0,1,.388-2.348,2.384,2.384,0,0,1,1.372-.848,1.186,1.186,0,0,1,.589-.013c0,.032-.207.032-.556.136a2.362,2.362,0,0,0-1.216.86,2.258,2.258,0,0,0-.291,2.1,2.2,2.2,0,1,0,3.83-2.1,2.3,2.3,0,0,0-1.216-.86c-.349-.1-.556-.11-.556-.136Z" fill="#feca2e"/>
            </g>
            <g id="Grupo_142467" data-name="Grupo 142467">
              <path id="Trazado_200244" data-name="Trazado 200244" d="M72.038,132.936c3.914-2.73,8.158-5.434,12.072-8.165" fill="#f5f5f5"/>
              <path id="Trazado_200245" data-name="Trazado 200245" d="M84.111,124.772s-2.665,1.883-6,4.141-6.056,4.056-6.075,4.024,2.665-1.883,6-4.141S84.091,124.739,84.111,124.772Z" fill="#0f2771"/>
            </g>
            <path id="Trazado_200246" data-name="Trazado 200246" d="M73.365,132.147a7.186,7.186,0,0,1-1.4.019,7.765,7.765,0,0,1-1.4-.116,7.186,7.186,0,0,1,1.4-.019A7.765,7.765,0,0,1,73.365,132.147Z" fill="#0f2771"/>
            <path id="Trazado_200247" data-name="Trazado 200247" d="M72.892,133.984a3.458,3.458,0,0,1,.136-.957,3.28,3.28,0,0,1,.272-.932,3.459,3.459,0,0,1-.136.958A3.28,3.28,0,0,1,72.892,133.984Z" fill="#0f2771"/>
            <path id="Trazado_200248" data-name="Trazado 200248" d="M73.578,133.771a3.733,3.733,0,0,1,.11-1,3.649,3.649,0,0,1,.246-.977,3.733,3.733,0,0,1-.11,1A3.649,3.649,0,0,1,73.578,133.771Z" fill="#0f2771"/>
            <path id="Trazado_200249" data-name="Trazado 200249" d="M71.967,131.338a3.341,3.341,0,0,1,.97.162,3.509,3.509,0,0,1,.945.291,3.341,3.341,0,0,1-.97-.162A3.509,3.509,0,0,1,71.967,131.338Z" fill="#0f2771"/>
          </g>
        </g>
        <g id="Grupo_142470" data-name="Grupo 142470">
          <circle id="Elipse_5019" data-name="Elipse 5019" cx="12.318" cy="12.318" r="12.318" transform="translate(129.294 96.706) rotate(-22.23)" fill="#fff"/>
          <path id="Trazado_200250" data-name="Trazado 200250" d="M157.676,103.455s-.013-.065-.026-.2-.026-.343-.045-.582a6.634,6.634,0,0,0-.11-.945,8.108,8.108,0,0,0-.265-1.268,11.885,11.885,0,0,0-1.372-3.248,12.269,12.269,0,0,0-3.112-3.455,12.084,12.084,0,0,0-5.13-2.264,12.224,12.224,0,0,0-6.392.537,11.428,11.428,0,0,0-3.073,1.656,13.751,13.751,0,0,0-1.378,1.171,13.183,13.183,0,0,0-1.19,1.41,12.1,12.1,0,0,0,0,14.362,11.057,11.057,0,0,0,2.568,2.581,11.441,11.441,0,0,0,3.073,1.656,12.214,12.214,0,0,0,6.392.537,12.249,12.249,0,0,0,8.242-5.719,11.686,11.686,0,0,0,1.372-3.248,9.714,9.714,0,0,0,.265-1.268,6.634,6.634,0,0,0,.11-.945c.019-.239.032-.433.045-.582a1.04,1.04,0,0,1,.026-.2.923.923,0,0,1,.006.2c0,.149-.006.343-.013.589a6.2,6.2,0,0,1-.078.951,8.618,8.618,0,0,1-.233,1.281,11.681,11.681,0,0,1-1.339,3.312,12.4,12.4,0,0,1-8.359,5.894,12.462,12.462,0,0,1-6.547-.524,11.776,11.776,0,0,1-3.164-1.689,11.471,11.471,0,0,1-2.64-2.646,12.407,12.407,0,0,1,0-14.757,13.837,13.837,0,0,1,1.223-1.443,14.526,14.526,0,0,1,1.417-1.2,11.68,11.68,0,0,1,3.164-1.689,12.379,12.379,0,0,1,11.775,1.824,12.313,12.313,0,0,1,3.131,3.545,11.757,11.757,0,0,1,1.339,3.312,8.769,8.769,0,0,1,.233,1.281,5.478,5.478,0,0,1,.078.951c0,.246.006.433.013.589a.971.971,0,0,1-.006.2Z" fill="#feca2e"/>
        </g>
        <g id="Grupo_142471" data-name="Grupo 142471">
          <path id="Trazado_200251" data-name="Trazado 200251" d="M146.374,103.642a2.885,2.885,0,0,0,1.714-2.665,2.7,2.7,0,1,0-5.4-.026,2.881,2.881,0,0,0,1.721,2.685c-4.153.628-3.966,5.143-3.966,5.143l9.821.045s.226-4.561-3.895-5.189Z" fill="#f5f5f5"/>
          <path id="Trazado_200252" data-name="Trazado 200252" d="M146.374,103.642a4.734,4.734,0,0,1,1.811.634,4.237,4.237,0,0,1,1.488,1.669,6.393,6.393,0,0,1,.64,2.885v.052h-.052c-2.75-.006-6.12-.019-9.821-.032h-.065v-.065a6.32,6.32,0,0,1,.615-2.775,4.218,4.218,0,0,1,1.423-1.676,5.183,5.183,0,0,1,1.986-.757l-.013.123a2.943,2.943,0,0,1-1.753-2.575,3,3,0,0,1,1.236-2.607,2.609,2.609,0,0,1,2.562-.259,2.85,2.85,0,0,1,1.514,1.663,3.1,3.1,0,0,1,.071,1.85,2.967,2.967,0,0,1-.673,1.216,2.866,2.866,0,0,1-.692.537,1.624,1.624,0,0,1-.278.123,2.986,2.986,0,0,0,.932-.692,2.934,2.934,0,0,0,.647-1.2,3.008,3.008,0,0,0-.084-1.805,2.8,2.8,0,0,0-1.475-1.6,2.526,2.526,0,0,0-2.458.259,2.906,2.906,0,0,0-1.177,2.51,2.8,2.8,0,0,0,1.676,2.458l.207.084-.22.039a5.085,5.085,0,0,0-1.928.731,4.106,4.106,0,0,0-1.378,1.624,6.252,6.252,0,0,0-.6,2.711l-.065-.065c3.7.026,7.078.045,9.821.058l-.052.052a6.408,6.408,0,0,0-.608-2.84,4.266,4.266,0,0,0-1.449-1.656,3.835,3.835,0,0,0-.725-.369,3.17,3.17,0,0,0-.576-.194c-.207-.052-.349-.091-.479-.123Z" fill="#0f2771"/>
        </g>
        <g id="Grupo_142475" data-name="Grupo 142475">
          <g id="Grupo_142472" data-name="Grupo 142472">
            <circle id="Elipse_5020" data-name="Elipse 5020" cx="21.46" cy="21.46" r="21.46" transform="matrix(0.153, -0.988, 0.988, 0.153, 92.896, 193.047)" fill="#fff"/>
            <path id="Trazado_200253" data-name="Trazado 200253" d="M138.862,175.15s-.019-.116-.032-.349-.039-.582-.071-1.016c-.013-.226-.026-.472-.045-.75s-.091-.569-.136-.893a15.94,15.94,0,0,0-.446-2.213,20.615,20.615,0,0,0-2.381-5.687,21.413,21.413,0,0,0-5.434-6.056,21.182,21.182,0,0,0-8.98-3.979,20.361,20.361,0,0,0-2.7-.311c-.459-.013-.925-.058-1.391-.052-.466.026-.938.052-1.41.071-.239.019-.472.013-.712.045l-.712.11c-.472.078-.957.136-1.436.233a22.88,22.88,0,0,0-2.84.835,21.039,21.039,0,0,0-2.775,1.223c-.453.246-.88.531-1.326.8a11.384,11.384,0,0,0-1.287.886,19.488,19.488,0,0,0-4.5,4.522,20.654,20.654,0,0,0-3.047,5.868,21.072,21.072,0,0,0,0,13.437,20.49,20.49,0,0,0,3.047,5.868,23.96,23.96,0,0,0,2.09,2.471,24.757,24.757,0,0,0,2.413,2.057,10.827,10.827,0,0,0,1.287.886c.446.265.88.55,1.326.8a21.818,21.818,0,0,0,2.775,1.223,22.882,22.882,0,0,0,2.84.835c.479.1.957.155,1.436.233l.712.11c.239.032.479.032.712.045.472.026.945.052,1.41.071s.932-.039,1.391-.052a19.446,19.446,0,0,0,2.7-.311,21.425,21.425,0,0,0,14.414-10.034,20.616,20.616,0,0,0,2.381-5.687,15.94,15.94,0,0,0,.446-2.213c.052-.323.11-.621.136-.893s.032-.524.045-.75c.032-.44.052-.776.071-1.016s.032-.349.032-.349v.349c-.006.246-.019.582-.032,1.022-.006.226-.019.479-.032.75s-.078.576-.123.9a14.9,14.9,0,0,1-.421,2.232,20.45,20.45,0,0,1-2.342,5.751,21.582,21.582,0,0,1-14.524,10.209,19.8,19.8,0,0,1-2.73.323c-.466.019-.938.065-1.41.058-.472-.026-.951-.045-1.43-.071-.239-.013-.485-.013-.725-.045l-.718-.11c-.479-.078-.97-.136-1.456-.233a22.49,22.49,0,0,1-2.885-.841,22.077,22.077,0,0,1-2.821-1.236c-.459-.246-.893-.537-1.346-.8a11.724,11.724,0,0,1-1.307-.9,24.785,24.785,0,0,1-2.458-2.083,23.951,23.951,0,0,1-2.122-2.5,21.048,21.048,0,0,1-3.1-5.958,21.371,21.371,0,0,1,0-13.651,20.722,20.722,0,0,1,3.1-5.958,23.949,23.949,0,0,1,2.122-2.5,24.787,24.787,0,0,1,2.458-2.083,11.153,11.153,0,0,1,1.307-.9c.453-.265.893-.556,1.346-.8A23.553,23.553,0,0,1,112.92,154c.485-.1.97-.155,1.456-.233l.718-.11c.239-.032.485-.032.725-.045.479-.026.957-.045,1.43-.071.472,0,.945.039,1.41.058a19.8,19.8,0,0,1,2.73.323,21.582,21.582,0,0,1,14.524,10.209,20.45,20.45,0,0,1,2.342,5.751,14.9,14.9,0,0,1,.421,2.232c.045.323.1.628.123.9s.019.531.032.75c.013.44.026.776.032,1.022v.349Z" fill="#feca2e"/>
          </g>
          <g id="Grupo_142474" data-name="Grupo 142474">
            <g id="Grupo_142473" data-name="Grupo 142473">
              <circle id="Elipse_5021" data-name="Elipse 5021" cx="11.406" cy="11.406" r="11.406" transform="translate(101.252 174.14) rotate(-41.81)" fill="#f5f5f5"/>
              <path id="Trazado_200254" data-name="Trazado 200254" d="M105.971,174.3s.006.065.013.188v.945c.006.149.026.3.045.479a8.151,8.151,0,0,0,.162,1.184,11.013,11.013,0,0,0,1.067,3.092,11.3,11.3,0,0,0,13.23,5.687,11.692,11.692,0,0,0,1.507-.55,12.029,12.029,0,0,0,1.436-.8,12.521,12.521,0,0,0,1.346-1,13.376,13.376,0,0,0,1.19-1.229,10.894,10.894,0,0,0,1.811-3,12.1,12.1,0,0,0,.815-3.513,11.894,11.894,0,0,0-.349-3.591,10.977,10.977,0,0,0-1.4-3.209,13.51,13.51,0,0,0-1.016-1.378,12.807,12.807,0,0,0-1.2-1.171,12.628,12.628,0,0,0-1.32-.977,11.941,11.941,0,0,0-1.423-.744,11.314,11.314,0,0,0-13.851,3.908,10.974,10.974,0,0,0-1.462,2.924,7.909,7.909,0,0,0-.317,1.158c-.039.168-.078.323-.1.472s-.039.278-.052.395c-.032.226-.058.4-.078.537s-.032.181-.032.181,0-.065.006-.188.026-.317.052-.543c.013-.123.026-.252.039-.4s.058-.3.1-.472a7.982,7.982,0,0,1,.3-1.171,10.745,10.745,0,0,1,1.436-2.976,11.483,11.483,0,0,1,8.068-4.93,11.555,11.555,0,0,1,6.01.88,12.541,12.541,0,0,1,1.462.757,11.722,11.722,0,0,1,1.352,1,12.64,12.64,0,0,1,1.236,1.2,13.141,13.141,0,0,1,1.042,1.4,11.329,11.329,0,0,1,1.443,3.28,12.432,12.432,0,0,1,.356,3.675,12.168,12.168,0,0,1-.835,3.591,11.127,11.127,0,0,1-1.857,3.06,13.145,13.145,0,0,1-1.216,1.255,13.788,13.788,0,0,1-1.378,1.022,11.3,11.3,0,0,1-1.475.809,11.637,11.637,0,0,1-1.546.556,11.457,11.457,0,0,1-6.068.084,11.5,11.5,0,0,1-7.356-5.946,10.79,10.79,0,0,1-1.035-3.138,8.156,8.156,0,0,1-.142-1.2c-.013-.175-.026-.336-.032-.485s.006-.278.013-.4q.01-.34.019-.543c0-.123.013-.188.019-.181Z" fill="#0f2771"/>
            </g>
            <path id="Trazado_200255" data-name="Trazado 200255" d="M122.533,175.4s-.142.019-.4.026c-.285,0-.66.013-1.106.019-.938.013-2.251.019-3.733.026h-.071v-.809c0-1.65.006-3.151.019-4.231.006-.524.019-.951.026-1.281a3.45,3.45,0,0,1,.026-.472,3.448,3.448,0,0,1,.026.472c0,.33.013.757.026,1.281.013,1.08.019,2.575.019,4.231v.738l-.071-.071c1.482,0,2.788.013,3.733.026.453.006.822.019,1.106.019a2.485,2.485,0,0,1,.4.026Z" fill="#0f2771"/>
            <path id="Trazado_200256" data-name="Trazado 200256" d="M117.325,165.511a6.477,6.477,0,0,1,0,1.915,6.477,6.477,0,0,1,0-1.915Z" fill="#0f2771"/>
            <path id="Trazado_200257" data-name="Trazado 200257" d="M122.52,167.05a6.129,6.129,0,0,1-.615.718,3.041,3.041,0,0,1-.718.615,3.088,3.088,0,0,1,.615-.718A3.041,3.041,0,0,1,122.52,167.05Z" fill="#0f2771"/>
            <path id="Trazado_200258" data-name="Trazado 200258" d="M125.561,170.369a4,4,0,0,1-.783.524,4.038,4.038,0,0,1-.828.459,2.518,2.518,0,0,1,.75-.582A2.722,2.722,0,0,1,125.561,170.369Z" fill="#0f2771"/>
            <path id="Trazado_200259" data-name="Trazado 200259" d="M127.34,175.293a12.035,12.035,0,0,1-2.614,0,12.037,12.037,0,0,1,2.614,0Z" fill="#0f2771"/>
            <path id="Trazado_200260" data-name="Trazado 200260" d="M109.225,175.124a10.763,10.763,0,0,1-2.471,0,10.766,10.766,0,0,1,2.471,0Z" fill="#0f2771"/>
            <path id="Trazado_200261" data-name="Trazado 200261" d="M110.506,178.786a10.867,10.867,0,0,1-.932.848,5.9,5.9,0,0,1-1.022.731,5.7,5.7,0,0,1,.932-.848A5.392,5.392,0,0,1,110.506,178.786Z" fill="#0f2771"/>
            <path id="Trazado_200262" data-name="Trazado 200262" d="M113.67,181.626a9.189,9.189,0,0,1-.634,1.1,8.549,8.549,0,0,1-.673,1.074,3.887,3.887,0,0,1,.55-1.152,3.936,3.936,0,0,1,.763-1.022Z" fill="#0f2771"/>
            <path id="Trazado_200263" data-name="Trazado 200263" d="M117.325,185.282a12.034,12.034,0,0,1,0-2.614,12.034,12.034,0,0,1,0,2.614Z" fill="#0f2771"/>
            <path id="Trazado_200264" data-name="Trazado 200264" d="M122.954,183.541a3.789,3.789,0,0,1-1.074-.738,3.949,3.949,0,0,1-.88-.964c.032-.026.433.388.977.854a12.653,12.653,0,0,1,.977.848Z" fill="#0f2771"/>
            <path id="Trazado_200265" data-name="Trazado 200265" d="M125.6,180.695a9.086,9.086,0,0,1-.867-.763,4.625,4.625,0,0,1-.763-.867,4.8,4.8,0,0,1,.867.763A4.625,4.625,0,0,1,125.6,180.695Z" fill="#0f2771"/>
            <path id="Trazado_200266" data-name="Trazado 200266" d="M110.39,171.611a6.96,6.96,0,0,1-.763-.66,3.682,3.682,0,0,1-.66-.763,6.956,6.956,0,0,1,1.423,1.423Z" fill="#0f2771"/>
            <path id="Trazado_200267" data-name="Trazado 200267" d="M113.651,168.17a7.031,7.031,0,0,1-.75-.64,3.222,3.222,0,0,1-.647-.75,3.625,3.625,0,0,1,.75.64A3.222,3.222,0,0,1,113.651,168.17Z" fill="#0f2771"/>
          </g>
        </g>
        <g id="Grupo_142477" data-name="Grupo 142477">
          <path id="Trazado_200268" data-name="Trazado 200268" d="M168.7,206.663a16.369,16.369,0,0,0-.369-2.348,9.365,9.365,0,0,0-1.08-2.549,9.549,9.549,0,0,0-11.471-4.05,8.8,8.8,0,0,0-2.407,1.3,8.922,8.922,0,0,0-2.012,2.025,9.466,9.466,0,0,0,0,11.244,9.566,9.566,0,0,0,4.419,3.325,9.583,9.583,0,0,0,11.471-4.05,9.283,9.283,0,0,0,1.08-2.549,17.48,17.48,0,0,0,.369-2.348,1.4,1.4,0,0,1,.006.155c0,.123,0,.278-.006.459a4.974,4.974,0,0,1-.058.75,6.843,6.843,0,0,1-.181,1.009,9.237,9.237,0,0,1-1.048,2.614,9.589,9.589,0,0,1-2.465,2.795,9.708,9.708,0,0,1-4.115,1.857,9.835,9.835,0,0,1-5.163-.408,9.847,9.847,0,0,1-4.574-3.416,9.763,9.763,0,0,1,0-11.632,9.224,9.224,0,0,1,2.083-2.083,9.373,9.373,0,0,1,2.491-1.333,9.825,9.825,0,0,1,5.163-.408,9.79,9.79,0,0,1,6.58,4.652,9.163,9.163,0,0,1,1.048,2.614,7.153,7.153,0,0,1,.181,1.009,4.165,4.165,0,0,1,.058.75c0,.188,0,.336.006.459a.565.565,0,0,1-.006.155Z" fill="#feca2e"/>
          <g id="Grupo_142476" data-name="Grupo 142476">
            <path id="Trazado_200269" data-name="Trazado 200269" d="M160.924,208.9a1.527,1.527,0,0,0-1.287.738c-.349-.272-.783-.582-1.268-.912-.265-.181-.518-.349-.763-.5a1.557,1.557,0,0,0,.479-1.132,1.5,1.5,0,0,0-.272-.873c.291-.2.621-.44.964-.712.3-.239.589-.466.835-.673a1.7,1.7,0,1,0-.175-.356c-.285.2-.6.427-.925.686-.356.272-.673.537-.951.77a1.57,1.57,0,1,0-1.055,2.73,1.59,1.59,0,0,0,.744-.194c.265.194.556.4.867.608.5.336.964.634,1.352.867a1.877,1.877,0,0,0-.123.666,1.578,1.578,0,1,0,1.572-1.714Z" fill="#f5f5f5"/>
            <path id="Trazado_200270" data-name="Trazado 200270" d="M160.924,208.9a1.122,1.122,0,0,1,.589.1,1.707,1.707,0,0,1,1,1.32,1.829,1.829,0,0,1-.207,1.2,1.585,1.585,0,0,1-1.158.822,1.553,1.553,0,0,1-1.475-.64,1.891,1.891,0,0,1-.233-1.786l.026.065c-.705-.446-1.462-.919-2.219-1.475h.065a1.6,1.6,0,0,1-1.6-.019,1.635,1.635,0,1,1,1.934-2.614h-.091c.291-.239.608-.5.925-.757.323-.239.641-.472.951-.705l-.026.078a1.636,1.636,0,0,1,2.342-1.986,1.632,1.632,0,1,1-2.148,2.342l.084.013c-.628.518-1.236.97-1.805,1.384l.013-.071a1.613,1.613,0,0,1-.226,2.064v-.065c.841.543,1.494,1.055,2.012,1.423h-.039a1.6,1.6,0,0,1,.912-.673,1.146,1.146,0,0,1,.395-.045,2.072,2.072,0,0,0-.388.071,1.561,1.561,0,0,0-.873.679l-.013.026-.026-.019c-.524-.362-1.177-.86-2.031-1.4l-.045-.026.039-.039a1.534,1.534,0,0,0,.2-1.947l-.026-.039.039-.026c.569-.414,1.171-.867,1.792-1.391l.045-.039.032.052a1.513,1.513,0,1,0,.848-2.3,1.5,1.5,0,0,0-.919.75,1.515,1.515,0,0,0-.078,1.21l.019.045-.045.032c-.311.233-.628.466-.951.705-.317.259-.628.511-.919.75l-.045.039-.045-.039a1.5,1.5,0,0,0-2.517,1.055,1.515,1.515,0,0,0,.738,1.359,1.48,1.48,0,0,0,1.482.026l.032-.019.032.026c.75.55,1.507,1.029,2.206,1.475l.039.026-.019.045a1.774,1.774,0,0,0,.213,1.682,1.467,1.467,0,0,0,1.384.608,1.522,1.522,0,0,0,1.106-.776,1.781,1.781,0,0,0,.214-1.152,1.674,1.674,0,0,0-.945-1.3,1.622,1.622,0,0,0-.576-.136Z" fill="#0f2771"/>
          </g>
        </g>
        <g id="Grupo_142479" data-name="Grupo 142479">
          <path id="Trazado_200271" data-name="Trazado 200271" d="M304.58,173.649s-.019-.123-.032-.362-.039-.6-.071-1.061c-.013-.233-.032-.492-.045-.776-.032-.285-.091-.6-.142-.932a15.546,15.546,0,0,0-.466-2.3,21.479,21.479,0,0,0-2.471-5.913,22.281,22.281,0,0,0-14.977-10.422,20.966,20.966,0,0,0-2.8-.323c-.479-.019-.957-.065-1.443-.058l-1.469.078c-.246.019-.492.013-.738.045l-.738.116c-.492.084-1,.142-1.488.239a23.231,23.231,0,0,0-2.95.867,22.714,22.714,0,0,0-2.885,1.268c-.466.252-.919.55-1.378.822a11.076,11.076,0,0,0-1.333.919,20.179,20.179,0,0,0-4.677,4.7,21.49,21.49,0,0,0-3.164,6.094,23.546,23.546,0,0,0-1.145,6.981,23.828,23.828,0,0,0,1.139,6.987,21.44,21.44,0,0,0,3.164,6.1,25.118,25.118,0,0,0,2.167,2.568,24.341,24.341,0,0,0,2.51,2.135,10.918,10.918,0,0,0,1.339.919c.466.272.912.569,1.378.822a23.129,23.129,0,0,0,2.885,1.268,23.545,23.545,0,0,0,2.95.867c.5.1,1,.162,1.488.239l.738.116c.246.032.492.032.738.045l1.469.078c.485.006.964-.039,1.443-.058a19.955,19.955,0,0,0,2.8-.323,22.281,22.281,0,0,0,14.977-10.422,21.319,21.319,0,0,0,2.471-5.913,16.429,16.429,0,0,0,.466-2.3c.052-.336.11-.647.142-.932s.032-.543.045-.776c.032-.453.052-.809.071-1.061s.032-.362.032-.362V174c-.006.252-.019.608-.039,1.061-.006.233-.019.5-.032.783s-.084.6-.129.938a15.4,15.4,0,0,1-.44,2.316,21.05,21.05,0,0,1-2.439,5.971,22.409,22.409,0,0,1-15.087,10.61,20.305,20.305,0,0,1-2.834.336c-.485.019-.97.065-1.462.058-.492-.026-.99-.045-1.488-.071-.246-.019-.5-.013-.75-.045l-.75-.11c-.5-.084-1.009-.142-1.514-.239a23.163,23.163,0,0,1-3-.873,23.814,23.814,0,0,1-2.931-1.281c-.472-.259-.932-.556-1.4-.835a11.231,11.231,0,0,1-1.359-.932,20.59,20.59,0,0,1-4.755-4.762,21.672,21.672,0,0,1-3.215-6.191,22.287,22.287,0,0,1,0-14.181,21.713,21.713,0,0,1,3.215-6.185,25.155,25.155,0,0,1,2.206-2.6,24.218,24.218,0,0,1,2.549-2.161,11.229,11.229,0,0,1,1.359-.932c.472-.278.925-.576,1.4-.835a22.868,22.868,0,0,1,2.931-1.281,23.16,23.16,0,0,1,3-.873c.5-.1,1.009-.162,1.514-.239l.75-.116c.252-.032.5-.032.75-.045.5-.026,1-.052,1.488-.071.492,0,.977.039,1.462.058a20.3,20.3,0,0,1,2.834.336,22.416,22.416,0,0,1,15.081,10.61,21.2,21.2,0,0,1,2.439,5.978,16.431,16.431,0,0,1,.44,2.316c.045.336.1.647.129.938s.019.55.032.783c.013.459.026.809.039,1.061v.362Z" fill="#feca2e"/>
          <g id="Grupo_142478" data-name="Grupo 142478">
            <path id="Trazado_200272" data-name="Trazado 200272" d="M295.976,185.042s-.168.019-.492.032c-.356.006-.822.019-1.41.032-1.262.013-3.028.032-5.2.052-4.412.013-10.455.026-17.131.045h-1.384v-.162c.019-6.4.039-12.137.052-16.316.019-2.051.039-3.714.052-4.9.013-.556.019-1,.032-1.326a2.508,2.508,0,0,1,.032-.459,2.6,2.6,0,0,1,.032.459c.007.336.019.776.032,1.326.013,1.19.032,2.853.052,4.9.013,4.179.032,9.918.052,16.316l-.162-.162h1.223c6.677.019,12.719.032,17.131.045,2.167.019,3.933.039,5.2.052.589.013,1.061.026,1.41.032a2.9,2.9,0,0,1,.492.032Z" fill="#0f2771"/>
            <path id="Trazado_200273" data-name="Trazado 200273" d="M293.148,167.62s-.259.272-.757.725c-.55.479-1.275,1.119-2.148,1.889-1.824,1.579-4.354,3.752-7.168,6.127l-.427.362-.11.091-.1-.1c-1.126-1.042-2.193-2.038-3.189-2.963h.2c-1.876,1.553-3.487,2.879-4.684,3.869l-1.359,1.087a3.382,3.382,0,0,1-.5.362,2.624,2.624,0,0,1,.446-.44c.343-.3.776-.686,1.3-1.152,1.171-1.009,2.762-2.368,4.606-3.953l.1-.084.1.091c1,.919,2.077,1.909,3.2,2.944h-.213l.427-.362c2.808-2.381,5.37-4.522,7.227-6.055.906-.738,1.65-1.346,2.213-1.805a6.536,6.536,0,0,1,.841-.628Z" fill="#0f2771"/>
            <path id="Trazado_200274" data-name="Trazado 200274" d="M293.148,172.951a7.591,7.591,0,0,1-.11-1.585c-.026-.983-.045-2.348-.052-3.869l.162.162h-.272c-1.585,0-3.015-.019-4.05-.045a8.774,8.774,0,0,1-1.676-.116,8.773,8.773,0,0,1,1.676-.116c1.035-.032,2.471-.045,4.05-.045h.433v.162c0,1.52-.019,2.885-.052,3.869A8.186,8.186,0,0,1,293.148,172.951Z" fill="#0f2771"/>
          </g>
        </g>
        <g id="Grupo_142481" data-name="Grupo 142481">
          <path id="Trazado_200275" data-name="Trazado 200275" d="M340.357,122.889s-.013-.091-.032-.272-.032-.459-.058-.8c-.013-.175-.026-.375-.039-.589s-.071-.446-.11-.7a12.668,12.668,0,0,0-.356-1.727,15.985,15.985,0,0,0-1.863-4.445,16.666,16.666,0,0,0-20.017-7.1,16.87,16.87,0,0,0-2.167.957,17.051,17.051,0,0,0-2.038,1.313,19.21,19.21,0,0,0-1.889,1.6,19.579,19.579,0,0,0-1.63,1.928,16.055,16.055,0,0,0-2.374,4.58,17.788,17.788,0,0,0-.86,5.247,18,18,0,0,0,.854,5.247,16.169,16.169,0,0,0,2.374,4.587,18.728,18.728,0,0,0,1.63,1.928,19.2,19.2,0,0,0,1.889,1.6,17.585,17.585,0,0,0,2.038,1.313,17.275,17.275,0,0,0,2.167.957,16.7,16.7,0,0,0,20.017-7.1,15.985,15.985,0,0,0,1.863-4.445,12.869,12.869,0,0,0,.356-1.727c.039-.252.084-.485.11-.7s.026-.408.039-.589q.039-.5.058-.8a1.263,1.263,0,0,1,.032-.272,1.424,1.424,0,0,1,0,.272c0,.194-.013.459-.026.8-.006.175-.013.375-.019.589s-.058.453-.091.705a12.57,12.57,0,0,1-.323,1.747,16.134,16.134,0,0,1-1.831,4.509,16.907,16.907,0,0,1-11.38,8.009,16.956,16.956,0,0,1-8.9-.712,16.645,16.645,0,0,1-2.213-.97,18.287,18.287,0,0,1-2.083-1.333,19.047,19.047,0,0,1-1.928-1.63,18.8,18.8,0,0,1-1.663-1.967,16.365,16.365,0,0,1-2.426-4.671,17.864,17.864,0,0,1-.873-5.357,18.067,18.067,0,0,1,.88-5.35,16.442,16.442,0,0,1,2.426-4.671,19.489,19.489,0,0,1,1.663-1.967,19.045,19.045,0,0,1,1.928-1.63,17.734,17.734,0,0,1,2.083-1.333,18.521,18.521,0,0,1,2.213-.97,16.956,16.956,0,0,1,8.9-.712,16.7,16.7,0,0,1,7.11,3.189,16.9,16.9,0,0,1,4.27,4.82,15.94,15.94,0,0,1,1.831,4.509,11.682,11.682,0,0,1,.323,1.747c.032.252.078.492.091.705s.013.414.019.589c.013.336.019.6.026.8v.272Z" fill="#feca2e"/>
          <g id="Grupo_142480" data-name="Grupo 142480">
            <path id="Trazado_200276" data-name="Trazado 200276" d="M324.079,113.909l2.245,4.555a.575.575,0,0,0,.44.317l5.02.731a.584.584,0,0,1,.323,1l-3.636,3.545a.594.594,0,0,0-.168.518l.86,5a.583.583,0,0,1-.848.615l-4.5-2.361a.577.577,0,0,0-.543,0l-4.49,2.361a.583.583,0,0,1-.848-.615l.86-5a.594.594,0,0,0-.168-.518L315,120.508a.584.584,0,0,1,.323-1l5.02-.731a.59.59,0,0,0,.44-.317l2.245-4.555a.585.585,0,0,1,1.048,0Z" fill="#fafafa"/>
            <path id="Trazado_200277" data-name="Trazado 200277" d="M324.079,113.909a.79.79,0,0,0-.1-.123.575.575,0,0,0-.388-.181.558.558,0,0,0-.55.362c-.129.265-.272.569-.44.912-.336.692-.738,1.527-1.21,2.491-.116.246-.239.492-.369.75-.065.129-.129.265-.194.4a.661.661,0,0,1-.388.311c-.621.11-1.249.194-1.928.3s-1.378.207-2.109.317c-.362.058-.738.11-1.113.168a.486.486,0,0,0-.265.77c1.145,1.113,2.368,2.3,3.649,3.552a.728.728,0,0,1,.22.718l-.116.679q-.116.679-.233,1.378c-.155.925-.317,1.876-.485,2.84a.463.463,0,0,0,.207.518.472.472,0,0,0,.278.071.725.725,0,0,0,.3-.116c.44-.233.886-.466,1.333-.7.893-.472,1.8-.945,2.717-1.43l.349-.181a.664.664,0,0,1,.459-.052,1.923,1.923,0,0,1,.382.168l.343.181c.453.239.906.472,1.352.712.893.466,1.773.932,2.633,1.384a.457.457,0,0,0,.53-.116.433.433,0,0,0,.116-.259,1.28,1.28,0,0,0-.039-.323c-.078-.472-.162-.945-.239-1.4-.155-.925-.311-1.837-.466-2.724-.039-.22-.078-.44-.11-.66a.727.727,0,0,1,.252-.686c.317-.3.621-.608.932-.9.608-.6,1.2-1.171,1.779-1.727.285-.278.569-.55.848-.822a.494.494,0,0,0-.065-.809,1.768,1.768,0,0,0-.5-.11l-.531-.078c-.349-.052-.7-.1-1.035-.155-.673-.1-1.313-.194-1.915-.285-.3-.045-.6-.091-.88-.136a3.842,3.842,0,0,1-.433-.078.667.667,0,0,1-.356-.278c-.472-.97-.88-1.805-1.21-2.5-.323-.673-.576-1.2-.757-1.579-.078-.175-.142-.311-.188-.414s-.058-.142-.058-.142a1.114,1.114,0,0,1,.078.136c.052.1.123.233.214.4.188.369.453.893.8,1.559s.763,1.507,1.242,2.465a.522.522,0,0,0,.278.22,3.367,3.367,0,0,0,.408.065c.285.039.582.084.886.123q.912.126,1.921.272c.336.045.679.1,1.035.149l.537.078a1.831,1.831,0,0,1,.569.129.662.662,0,0,1,.343.524.7.7,0,0,1-.233.589l-.841.822-1.773,1.734-.925.906a.513.513,0,0,0-.188.492l.116.66c.155.886.311,1.792.472,2.717.078.466.162.932.239,1.4a1.71,1.71,0,0,1,.039.388.706.706,0,0,1-.977.576c-.867-.453-1.753-.919-2.652-1.384-.446-.233-.9-.472-1.352-.712l-.343-.181a1.686,1.686,0,0,0-.317-.149.521.521,0,0,0-.3.032l-.343.181c-.919.485-1.824.957-2.717,1.43-.446.233-.893.466-1.333.7a.948.948,0,0,1-.395.142.664.664,0,0,1-.427-.11.709.709,0,0,1-.311-.763c.168-.964.33-1.909.492-2.84.078-.466.162-.925.239-1.378l.116-.679a.486.486,0,0,0-.155-.518q-1.931-1.892-3.649-3.584a.692.692,0,0,1-.11-.66.658.658,0,0,1,.485-.433c.382-.058.763-.11,1.132-.162.731-.1,1.436-.2,2.116-.3s1.307-.188,1.909-.272a.528.528,0,0,0,.3-.233l.194-.388.375-.75c.485-.964.9-1.792,1.242-2.478.168-.336.323-.64.459-.9a.617.617,0,0,1,.621-.375.568.568,0,0,1,.408.213.426.426,0,0,1,.078.136Z" fill="#0f2771"/>
          </g>
        </g>
        <g id="Grupo_142484" data-name="Grupo 142484">
          <path id="Trazado_200278" data-name="Trazado 200278" d="M295.49,71.288s-.013-.065-.026-.2-.026-.343-.045-.582a6.634,6.634,0,0,0-.11-.945,8.11,8.11,0,0,0-.265-1.268,11.886,11.886,0,0,0-1.372-3.248,12.269,12.269,0,0,0-3.112-3.455,12.084,12.084,0,0,0-5.13-2.264,12.224,12.224,0,0,0-6.392.537,11.428,11.428,0,0,0-3.073,1.656,13.749,13.749,0,0,0-1.378,1.171,13.183,13.183,0,0,0-1.19,1.41,12.1,12.1,0,0,0,0,14.362,11.057,11.057,0,0,0,2.568,2.581,11.441,11.441,0,0,0,3.073,1.656,12.214,12.214,0,0,0,6.392.537,12.249,12.249,0,0,0,8.242-5.719,11.686,11.686,0,0,0,1.372-3.248A9.713,9.713,0,0,0,295.309,73a6.638,6.638,0,0,0,.11-.945c.019-.239.032-.433.045-.582a1.039,1.039,0,0,1,.026-.2.919.919,0,0,1,.007.2c0,.149-.007.343-.013.589a6.2,6.2,0,0,1-.078.951,8.619,8.619,0,0,1-.233,1.281,11.681,11.681,0,0,1-1.339,3.312,12.4,12.4,0,0,1-8.359,5.894,12.462,12.462,0,0,1-6.547-.524,11.776,11.776,0,0,1-3.164-1.689,11.471,11.471,0,0,1-2.64-2.646,12.407,12.407,0,0,1,0-14.757,13.835,13.835,0,0,1,1.223-1.443,14.523,14.523,0,0,1,1.417-1.2,11.68,11.68,0,0,1,3.164-1.689A12.379,12.379,0,0,1,290.7,61.377a12.313,12.313,0,0,1,3.131,3.545,11.756,11.756,0,0,1,1.339,3.312,8.769,8.769,0,0,1,.233,1.281,5.478,5.478,0,0,1,.078.951c0,.246.006.433.013.589a.967.967,0,0,1-.007.2Z" fill="#feca2e"/>
          <g id="Grupo_142483" data-name="Grupo 142483">
            <path id="Trazado_200279" data-name="Trazado 200279" d="M288.646,69.806a5.618,5.618,0,1,0-10.461,2.847h0l.013.019c.213.362.485.621.757,1L282.215,78a1.013,1.013,0,0,0,1.617,0l3.209-4.25a11.177,11.177,0,0,0,.815-1.08l.013-.013h0a5.562,5.562,0,0,0,.776-2.84Zm-5.616,2.445a2.471,2.471,0,1,1,2.471-2.471A2.471,2.471,0,0,1,283.03,72.252Z" fill="#f5f5f5"/>
            <g id="Grupo_142482" data-name="Grupo 142482">
              <path id="Trazado_200280" data-name="Trazado 200280" d="M288.646,69.806a5.618,5.618,0,1,0-10.461,2.847h0l.013.019c.213.362.485.621.757,1L282.215,78a1.013,1.013,0,0,0,1.617,0l3.209-4.25a11.177,11.177,0,0,0,.815-1.08l.013-.013h0a5.562,5.562,0,0,0,.776-2.84Zm-5.616,2.445a2.471,2.471,0,1,1,2.471-2.471A2.471,2.471,0,0,1,283.03,72.252Z" fill="none"/>
              <path id="Trazado_200281" data-name="Trazado 200281" d="M283.024,72.252a2.641,2.641,0,0,0,1.928-1.009,2.394,2.394,0,1,0-2.523.9c.375.1.6.084.6.1a1.884,1.884,0,0,1-.608-.052,2.441,2.441,0,0,1-1.391-.893,2.511,2.511,0,0,1-.375-2.387,2.529,2.529,0,0,1,4.762,0,2.508,2.508,0,0,1-.375,2.387,2.461,2.461,0,0,1-1.391.893,1.884,1.884,0,0,1-.608.052Z" fill="#0f2771"/>
              <path id="Trazado_200282" data-name="Trazado 200282" d="M288.646,69.806a4.131,4.131,0,0,1-.032.776,5.53,5.53,0,0,1-.712,2.077l-.032-.052h.071l-.045.058-.013.013h0c-.99,1.313-2.3,3.067-3.849,5.13a1.266,1.266,0,0,1-.8.615,1.066,1.066,0,0,1-1-.3c-.44-.556-.86-1.132-1.313-1.721-.893-1.184-1.831-2.42-2.8-3.707h0l-.013-.013-.084-.11h.136l-.058.1a6.185,6.185,0,0,1-.5-1.087,5.665,5.665,0,0,1,5.648-7.446,5.794,5.794,0,0,1,2.737.86,5.622,5.622,0,0,1,2.439,3.287,3.4,3.4,0,0,1,.129.64,2.309,2.309,0,0,1,.045.479c.013.259.006.395.006.395a7.961,7.961,0,0,0-.239-1.5,5.573,5.573,0,0,0-2.439-3.222,5.668,5.668,0,0,0-2.691-.835,5.592,5.592,0,0,0-3.118.8,5.571,5.571,0,0,0-2.394,6.5,5.693,5.693,0,0,0,.485,1.061l.058.1h-.123l.052-.11.013.019h0q1.446,1.931,2.788,3.7c.446.589.88,1.158,1.294,1.714a.967.967,0,0,0,.886.272,1.138,1.138,0,0,0,.725-.569c1.559-2.051,2.879-3.791,3.875-5.1h0l.013-.019.026.058h-.065l.032-.052a5.722,5.722,0,0,0,.731-2.044,5.488,5.488,0,0,0,.058-.576,1.243,1.243,0,0,1,.013-.2Z" fill="#0f2771"/>
            </g>
          </g>
        </g>
        <g id="Grupo_142486" data-name="Grupo 142486">
          <path id="Trazado_200283" data-name="Trazado 200283" d="M235.653,63.8s-.019-.116-.032-.349-.039-.589-.071-1.035c-.013-.226-.032-.479-.045-.757-.032-.278-.091-.582-.136-.906a15.658,15.658,0,0,0-.453-2.245,20.663,20.663,0,0,0-2.413-5.764,21.71,21.71,0,0,0-14.6-10.164,19.916,19.916,0,0,0-2.73-.317c-.466-.013-.938-.058-1.41-.052-.472.026-.951.052-1.43.071-.239.019-.479.013-.725.045l-.718.11c-.479.078-.97.136-1.456.239a22.433,22.433,0,0,0-2.879.848,22.942,22.942,0,0,0-2.814,1.236c-.453.246-.893.537-1.346.8a11.082,11.082,0,0,0-1.3.9,23.929,23.929,0,0,0-2.445,2.083,24.706,24.706,0,0,0-2.116,2.5A20.863,20.863,0,0,0,193.446,57a21.39,21.39,0,0,0,0,13.618,20.778,20.778,0,0,0,3.086,5.946,24.706,24.706,0,0,0,2.116,2.5,24,24,0,0,0,2.452,2.083,11.079,11.079,0,0,0,1.3.9c.453.265.886.556,1.346.8a23.385,23.385,0,0,0,2.814,1.236,22.431,22.431,0,0,0,2.879.848c.485.1.97.155,1.456.239l.718.11c.239.032.485.032.725.045.479.026.957.052,1.43.071s.945-.039,1.41-.052a18.85,18.85,0,0,0,2.73-.317,21.424,21.424,0,0,0,9.1-4.037,21.67,21.67,0,0,0,5.506-6.133,20.78,20.78,0,0,0,2.413-5.764,15.485,15.485,0,0,0,.453-2.245c.052-.33.11-.628.136-.906s.032-.531.045-.757c.032-.44.052-.789.071-1.029s.032-.349.032-.349v.349c-.006.246-.019.589-.032,1.035-.006.226-.019.485-.032.763s-.078.582-.123.912a15.427,15.427,0,0,1-.427,2.258,20.62,20.62,0,0,1-2.374,5.829,21.595,21.595,0,0,1-17.487,10.681c-.472.019-.945.065-1.43.058-.479-.026-.964-.045-1.449-.071-.246-.019-.492-.013-.731-.045l-.731-.11c-.485-.078-.983-.136-1.475-.239a22.081,22.081,0,0,1-2.924-.854,22.661,22.661,0,0,1-2.86-1.249c-.466-.252-.906-.543-1.365-.815a11.234,11.234,0,0,1-1.326-.912,19.926,19.926,0,0,1-4.639-4.645,21.258,21.258,0,0,1-3.138-6.036,21.689,21.689,0,0,1,0-13.832,21.258,21.258,0,0,1,3.138-6.036,24.561,24.561,0,0,1,2.148-2.536,23.872,23.872,0,0,1,2.491-2.109,11.744,11.744,0,0,1,1.326-.912c.459-.272.906-.563,1.365-.815a22.659,22.659,0,0,1,2.86-1.249,23.884,23.884,0,0,1,2.924-.854c.492-.1.983-.155,1.475-.239l.731-.11c.246-.032.492-.032.731-.045.485-.026.97-.045,1.449-.071.479,0,.958.039,1.43.058a19.5,19.5,0,0,1,2.769.33,21.873,21.873,0,0,1,14.718,10.351,20.43,20.43,0,0,1,2.374,5.829,15.427,15.427,0,0,1,.427,2.258c.045.33.1.634.123.912s.019.537.032.763c.013.446.026.789.032,1.035V63.8Z" fill="#feca2e"/>
          <g id="Grupo_142485" data-name="Grupo 142485">
            <path id="Trazado_200284" data-name="Trazado 200284" d="M214.673,53.762a9.946,9.946,0,0,1,2.575.679l1.889-1.585,3.248,2.471-1.022,2.245a9.793,9.793,0,0,1,1.339,2.3l2.458.213.55,4.043-2.31.86a9.946,9.946,0,0,1-.679,2.575l1.585,1.889L221.835,72.7l-2.245-1.022a9.793,9.793,0,0,1-2.3,1.339l-.213,2.458-4.043.55-.86-2.31a9.945,9.945,0,0,1-2.575-.679l-1.889,1.585-3.248-2.471,1.022-2.245a9.793,9.793,0,0,1-1.339-2.3l-2.458-.214-.55-4.043,2.31-.86a9.946,9.946,0,0,1,.679-2.575l-1.585-1.889,2.471-3.248,2.245,1.022a9.794,9.794,0,0,1,2.3-1.339L209.769,52l4.043-.55.86,2.31Zm-1.663,5.616a4.374,4.374,0,1,0,4.923,3.746A4.37,4.37,0,0,0,213.01,59.378Z" fill="none"/>
            <path id="Trazado_200285" data-name="Trazado 200285" d="M213.016,59.378a1.548,1.548,0,0,1,.278-.058,3.433,3.433,0,0,1,.809-.019,4.387,4.387,0,0,1,2.685,1.236,4.5,4.5,0,0,1,1.255,4.141,4.43,4.43,0,0,1-1.275,2.31,4.53,4.53,0,0,1-2.543,1.242,4.612,4.612,0,0,1-2.788-.518A4.508,4.508,0,0,1,209.7,61.5a4.359,4.359,0,0,1,2.258-1.9,3.364,3.364,0,0,1,.783-.2,1.05,1.05,0,0,1,.285-.019c.006.039-.382.078-1.016.343a4.333,4.333,0,0,0-2.09,1.9,4.254,4.254,0,0,0-.032,4.05,4.229,4.229,0,0,0,4.3,2.206,4.256,4.256,0,0,0,2.355-1.139,4.153,4.153,0,0,0,1.2-2.128,4.254,4.254,0,0,0-1.113-3.895,4.374,4.374,0,0,0-2.523-1.275c-.679-.091-1.067-.019-1.067-.058Z" fill="#0f2771"/>
            <path id="Trazado_200286" data-name="Trazado 200286" d="M214.673,53.762a1.473,1.473,0,0,1-.065-.136c-.045-.11-.1-.252-.175-.433-.162-.408-.388-.983-.673-1.721l.058.039c-1.042.149-2.4.343-4.037.582l.078-.078c-.058.744-.129,1.572-.2,2.458v.065l-.065.026A10.115,10.115,0,0,0,207.33,55.9l-.052.045-.065-.032c-.7-.317-1.462-.66-2.251-1.016l.155-.039c-.776,1.022-1.6,2.116-2.458,3.254v-.175c.485.582,1.029,1.229,1.585,1.889l.058.065-.032.084a9.851,9.851,0,0,0-.66,2.536l-.013.091-.084.032c-.718.272-1.5.563-2.31.867l.1-.168c.175,1.268.362,2.64.556,4.043l-.149-.142c.763.065,1.6.142,2.458.214h.1l.039.1a10.113,10.113,0,0,0,1.32,2.258l.065.084-.045.1c-.317.705-.666,1.469-1.022,2.245l-.052-.207c1.029.783,2.128,1.617,3.248,2.471h-.22c.6-.5,1.242-1.035,1.889-1.579l.084-.071.1.039a9.915,9.915,0,0,0,2.523.666h0c.065.052-.142-.116.142.116h0v.006h0l.006.026.013.039.026.071.052.142.11.291.213.582c.142.388.285.77.427,1.152l-.188-.11c1.365-.188,2.717-.369,4.043-.55l-.149.155c.071-.828.149-1.643.22-2.458v-.1l.1-.039a9.677,9.677,0,0,0,2.258-1.313l.084-.065.1.045c.757.349,1.507.686,2.245,1.022l-.2.052c.848-1.106,1.669-2.187,2.478-3.241v.2c-.531-.64-1.061-1.275-1.579-1.9l-.065-.071.039-.091a9.97,9.97,0,0,0,.673-2.53l.013-.091.084-.032c.789-.291,1.559-.582,2.31-.86l-.1.155q-.281-2.135-.537-4.043l.123.116c-.86-.078-1.676-.155-2.452-.226h-.078l-.032-.078a9.95,9.95,0,0,0-1.313-2.277l-.045-.058.032-.065c.375-.815.712-1.546,1.035-2.238l.032.129c-1.249-.964-2.316-1.786-3.235-2.491h.1c-.757.621-1.384,1.132-1.9,1.566l-.026.019-.032-.013a10.624,10.624,0,0,0-1.9-.6q-.3-.058-.485-.1a.536.536,0,0,1-.162-.039s.058,0,.162.006.272.032.492.065a9.542,9.542,0,0,1,1.934.55h-.058c.511-.427,1.126-.957,1.876-1.592l.045-.039.052.039c.925.692,2,1.5,3.261,2.452l.065.052-.032.078c-.311.7-.647,1.43-1.009,2.251l-.013-.116a10.125,10.125,0,0,1,1.365,2.323l-.1-.078c.783.065,1.592.136,2.458.207h.11l.013.116c.175,1.281.362,2.62.563,4.043l.013.116-.11.039c-.75.285-1.514.569-2.31.867l.1-.123a10.336,10.336,0,0,1-.686,2.614l-.026-.162c.518.621,1.048,1.249,1.585,1.889l.084.1-.078.1c-.8,1.055-1.624,2.141-2.465,3.248l-.084.11-.123-.058c-.738-.336-1.488-.673-2.245-1.022l.175-.019a10.375,10.375,0,0,1-2.335,1.365l.1-.142c-.071.809-.142,1.63-.213,2.458l-.013.142-.136.019c-1.326.181-2.678.362-4.043.55l-.142.019-.052-.129c-.142-.382-.285-.763-.433-1.152l-.213-.582-.11-.291-.052-.142-.026-.071-.013-.039V73.8l-.013-.006h0v-.006c.285.226.078.065.142.116h0a10.216,10.216,0,0,1-2.614-.692l.181-.026c-.647.543-1.294,1.08-1.889,1.585l-.11.091-.11-.084c-1.119-.854-2.219-1.689-3.248-2.471l-.11-.084.058-.123c.356-.776.705-1.54,1.022-2.245l.019.175a10.279,10.279,0,0,1-1.359-2.336l.142.1c-.848-.078-1.689-.149-2.452-.22l-.129-.013-.019-.129c-.188-1.4-.369-2.775-.543-4.043l-.019-.123.116-.045c.8-.3,1.592-.6,2.31-.86l-.1.123a10.01,10.01,0,0,1,.7-2.607l.026.149c-.55-.66-1.087-1.307-1.579-1.9l-.071-.084.065-.091,2.484-3.241.065-.078.091.039,2.238,1.035-.116.013a10.211,10.211,0,0,1,2.329-1.346l-.065.084c.084-.886.162-1.708.233-2.452v-.071l.078-.006c1.643-.207,3.008-.382,4.05-.518h.045l.013.039c.265.738.466,1.313.615,1.721.065.188.116.33.155.446a.663.663,0,0,1,.045.162Z" fill="#0f2771"/>
          </g>
        </g>
      </g>
      <g id="Grupo_142512" data-name="Grupo 142512">
        <g id="Grupo_142491" data-name="Grupo 142491">
          <path id="Trazado_200287" data-name="Trazado 200287" d="M176.774,203.564l-1.106.375c-4.943,1.669-19.635,6.528-24.08,8.346,0,0,7.867,69.574,8.792,76.037s1.152,32.328,1.152,32.328h83.677s-.226-69.722.019-80.533c.311-13.994,2.044-27.832,2.044-27.832l-14.615-5.713-17.086-9.006-38.8,6Z" fill="#feca2e"/>
          <g id="Grupo_142488" data-name="Grupo 142488" opacity="0.3">
            <path id="Trazado_200288" data-name="Trazado 200288" d="M195.387,218.619q-10.248,38.051-21.589,75.8c-.893,2.963-1.779,6.224-.569,9.077a8.151,8.151,0,0,0,6.457,4.593,13.072,13.072,0,0,0,7.951-1.792c5.654-3.157,9.329-9.1,11.134-15.326s1.967-12.784,2.116-19.26q.592-25.9,1.184-51.808l-6.677-1.281Z"/>
          </g>
          <path id="Trazado_200289" data-name="Trazado 200289" d="M151.588,212.279s-12.273,5.441-11.315,27.25a269.711,269.711,0,0,0,2.9,28.414l34.509-9.937-8.773-37.873-17.319-7.854Z" fill="#feca2e"/>
          <path id="Trazado_200290" data-name="Trazado 200290" d="M233.434,247.383l-1.85,25.173,34.7-11.238s-7.44-44.433-19.221-49.039l-12.7,21.705-.925,13.392Z" fill="#feca2e"/>
          <path id="Trazado_200291" data-name="Trazado 200291" d="M237.381,240.111a4.058,4.058,0,0,1,.065.511c.026.382.065.867.1,1.475.071,1.333.175,3.17.3,5.421.226,4.58.472,10.9.692,17.895.226,6.968.427,13.269.576,17.895.071,2.251.123,4.1.168,5.421.013.608.019,1.093.026,1.475a2.144,2.144,0,0,1-.019.518,2.3,2.3,0,0,1-.065-.511c-.026-.382-.065-.867-.1-1.475-.071-1.333-.175-3.17-.3-5.421-.226-4.58-.472-10.908-.692-17.895-.226-6.968-.427-13.269-.576-17.895-.071-2.251-.123-4.1-.168-5.421-.013-.608-.019-1.093-.026-1.475A2.144,2.144,0,0,1,237.381,240.111Z" fill="#0f2771"/>
          <path id="Trazado_200292" data-name="Trazado 200292" d="M168.758,229.514a7.294,7.294,0,0,1-.453-.8c-.3-.608-.679-1.352-1.119-2.232a37.308,37.308,0,0,0-4.322-6.948,16.894,16.894,0,0,0-6.424-4.9,20.329,20.329,0,0,0-3.261-.919,3.019,3.019,0,0,1,.919.039,10.667,10.667,0,0,1,2.445.608,16.151,16.151,0,0,1,6.631,4.9,32.626,32.626,0,0,1,4.27,7.084c.44.958.776,1.747,1,2.3a3.867,3.867,0,0,1,.311.867Z" fill="#0f2771"/>
          <path id="Trazado_200293" data-name="Trazado 200293" d="M241.437,211.224a50.246,50.246,0,0,0-2.187,5.823,51.266,51.266,0,0,0-1.029,6.133,6.386,6.386,0,0,1-.071-1.844,21.18,21.18,0,0,1,.7-4.4,20.834,20.834,0,0,1,1.6-4.153A6.328,6.328,0,0,1,241.437,211.224Z" fill="#0f2771"/>
          <g id="Grupo_142489" data-name="Grupo 142489">
            <path id="Trazado_200294" data-name="Trazado 200294" d="M164.268,222.067a1.5,1.5,0,0,0-.343.039,1.342,1.342,0,0,0-.757.556,3.273,3.273,0,0,0-.531,1.436,6.412,6.412,0,0,1-.252.977,1.908,1.908,0,0,1-.705.945,2.32,2.32,0,0,1-2.568-.278,9.231,9.231,0,0,1-1.837-2.336,4.187,4.187,0,0,0-1.029-1.106,2.289,2.289,0,0,0-1.4-.479,1.523,1.523,0,0,0-1.21.783,3.933,3.933,0,0,0-.362,1.617c-.039.582-.045,1.177-.116,1.766a3.7,3.7,0,0,1-.556,1.7,1.4,1.4,0,0,1-.3.343,1.541,1.541,0,0,1-.362.278,2.166,2.166,0,0,1-.854.272,3.086,3.086,0,0,1-1.637-.311,6.631,6.631,0,0,1-2.187-2.025,7.847,7.847,0,0,0-1.747-1.773,2.627,2.627,0,0,0-1.889-.5,1.993,1.993,0,0,0-1.223.822,1.4,1.4,0,0,0-.259.906c.013.22.071.336.052.343a.7.7,0,0,1-.136-.33,1.433,1.433,0,0,1,.207-1,2.13,2.13,0,0,1,1.307-.958,2.817,2.817,0,0,1,2.1.479,7.857,7.857,0,0,1,1.85,1.805,6.519,6.519,0,0,0,2.083,1.9,2.81,2.81,0,0,0,1.436.265,1.66,1.66,0,0,0,1.229-.738,6.808,6.808,0,0,0,.6-3.267,4.366,4.366,0,0,1,.414-1.786,1.91,1.91,0,0,1,1.546-.99,3.413,3.413,0,0,1,2.769,1.773,8.917,8.917,0,0,0,1.727,2.271,2.04,2.04,0,0,0,2.206.311,2.605,2.605,0,0,0,.886-1.727,3.281,3.281,0,0,1,.628-1.488,1.352,1.352,0,0,1,.873-.537.673.673,0,0,1,.356.045Z" fill="#fafafa"/>
            <path id="Trazado_200295" data-name="Trazado 200295" d="M171.281,233.738a1.869,1.869,0,0,1,.013.453,2.863,2.863,0,0,1-.427,1.229,3.57,3.57,0,0,1-1.559,1.359,3.064,3.064,0,0,1-2.717-.039c-.925-.453-1.7-1.333-2.775-1.63a2.853,2.853,0,0,0-2.963,1.482c-.718,1.061-1.009,2.452-1.74,3.746a4.412,4.412,0,0,1-1.579,1.643,2.543,2.543,0,0,1-2.355.188,4.091,4.091,0,0,1-1.643-1.676c-.395-.647-.718-1.3-1.113-1.876a2.727,2.727,0,0,0-1.507-1.216,2.1,2.1,0,0,0-1.773.349,6.724,6.724,0,0,0-2.135,2.911,23.886,23.886,0,0,1-1.488,2.937,5.044,5.044,0,0,1-3.895,2.562,2.618,2.618,0,0,1-1.281-.226,1.453,1.453,0,0,1-.3-.162c-.065-.039-.1-.065-.091-.071a3.438,3.438,0,0,0,1.663.3,4.933,4.933,0,0,0,3.662-2.555,24.1,24.1,0,0,0,1.423-2.918,6.959,6.959,0,0,1,2.232-3.086,2.507,2.507,0,0,1,2.083-.414,3.143,3.143,0,0,1,1.734,1.365c.421.608.75,1.275,1.132,1.9a3.723,3.723,0,0,0,1.469,1.514,2.115,2.115,0,0,0,1.98-.168,3.994,3.994,0,0,0,1.43-1.488c.7-1.216,1-2.614,1.773-3.759A4.291,4.291,0,0,1,162,235.019a2.536,2.536,0,0,1,1.9-.233,4.755,4.755,0,0,1,1.54.835,10.655,10.655,0,0,0,1.281.867,2.8,2.8,0,0,0,2.491.084,3.327,3.327,0,0,0,2.064-2.834Z" fill="#fafafa"/>
            <path id="Trazado_200296" data-name="Trazado 200296" d="M167.251,250.637a1.854,1.854,0,0,0-.291-.039,1.125,1.125,0,0,0-.763.239,2.309,2.309,0,0,0-.731,1.08,3.866,3.866,0,0,0-.078,1.773,4.5,4.5,0,0,1-.168,2.29,2.433,2.433,0,0,1-2.3,1.32,3.639,3.639,0,0,1-2.717-1.262,11.1,11.1,0,0,1-1.727-2.769l.142.11a2.331,2.331,0,0,0-2.154,1.067,5.536,5.536,0,0,0-.906,2.607,18.83,18.83,0,0,1-.388,2.141,4.683,4.683,0,0,1-1.029,1.909,2.6,2.6,0,0,1-1.928.886,3,3,0,0,1-1.863-.8,17.683,17.683,0,0,1-2.2-2.847,3.339,3.339,0,0,0-2.5-1.43,3.14,3.14,0,0,0-2.277.763,3.307,3.307,0,0,0-.964,1.585,4.215,4.215,0,0,0-.071,1.617c-.006,0-.019-.032-.045-.1a2.133,2.133,0,0,1-.078-.311,3.046,3.046,0,0,1,.039-1.242,3.442,3.442,0,0,1,.964-1.714,3.454,3.454,0,0,1,3.946-.479,4.243,4.243,0,0,1,1.262,1.1,18.681,18.681,0,0,0,2.18,2.775,2.665,2.665,0,0,0,1.624.692,2.2,2.2,0,0,0,1.624-.763,4.2,4.2,0,0,0,.932-1.74,18.835,18.835,0,0,0,.375-2.1,5.87,5.87,0,0,1,.99-2.795,2.7,2.7,0,0,1,2.543-1.21l.1.019.045.091a10.72,10.72,0,0,0,1.643,2.685,3.313,3.313,0,0,0,2.445,1.177,2.115,2.115,0,0,0,2.025-1.1,4.384,4.384,0,0,0,.194-2.148,4.075,4.075,0,0,1,.142-1.863,2.439,2.439,0,0,1,.835-1.126,1.129,1.129,0,0,1,.848-.2.6.6,0,0,1,.278.11Z" fill="#fafafa"/>
          </g>
          <path id="Trazado_200297" data-name="Trazado 200297" d="M263.324,247.292a1.957,1.957,0,0,0-.4.116,1.841,1.841,0,0,0-.893.718,4.922,4.922,0,0,0-.705,1.714,9.9,9.9,0,0,1-.673,2.452,2.558,2.558,0,0,1-1,1.158,1.84,1.84,0,0,1-1.676.052,3.368,3.368,0,0,1-1.275-1.229,11.3,11.3,0,0,1-.835-1.624,5.078,5.078,0,0,0-1.022-1.494,1.773,1.773,0,0,0-1.579-.615,1.527,1.527,0,0,0-1.074,1.326,11.285,11.285,0,0,0-.1,2.064,5.757,5.757,0,0,1-1.443,3.953,3.464,3.464,0,0,1-3.759.9,11.39,11.39,0,0,1-2.743-2.245,2.842,2.842,0,0,0-2.62-.912,3.345,3.345,0,0,0-1.889,1.423,6.213,6.213,0,0,0-.738,1.708c-.272,1-.362,1.572-.4,1.566a1.866,1.866,0,0,1,.032-.421,12.081,12.081,0,0,1,.213-1.19,6.11,6.11,0,0,1,.7-1.792,3.532,3.532,0,0,1,2.006-1.579,2.527,2.527,0,0,1,1.527.065,4.361,4.361,0,0,1,1.391.867,11.431,11.431,0,0,0,2.659,2.148,3.082,3.082,0,0,0,3.325-.835,5.349,5.349,0,0,0,1.32-3.675,11.316,11.316,0,0,1,.116-2.135,2.523,2.523,0,0,1,.433-1.029,1.736,1.736,0,0,1,.951-.615,2.153,2.153,0,0,1,1.954.725,5.413,5.413,0,0,1,1.093,1.617,10.663,10.663,0,0,0,.8,1.585,3.041,3.041,0,0,0,1.119,1.119,1.52,1.52,0,0,0,1.378-.019,2.27,2.27,0,0,0,.9-1.009,10.276,10.276,0,0,0,.705-2.374,4.8,4.8,0,0,1,.8-1.753,1.88,1.88,0,0,1,1-.7.913.913,0,0,1,.421-.032Z" fill="#fafafa"/>
          <path id="Trazado_200298" data-name="Trazado 200298" d="M259.209,228.692a2,2,0,0,1-.142.291c-.11.181-.272.446-.5.783a8.072,8.072,0,0,1-.945,1.139,4.12,4.12,0,0,1-1.682,1.035,2.938,2.938,0,0,1-2.4-.213c-.8-.485-1.171-1.417-1.883-1.909a1.222,1.222,0,0,0-1.2-.123,2.067,2.067,0,0,0-.919,1,3.717,3.717,0,0,0-.375,1.43c-.026.518,0,1.061-.026,1.617a4.726,4.726,0,0,1-.311,1.656,2.362,2.362,0,0,1-1.152,1.223,3.733,3.733,0,0,1-3.047-.175,13.752,13.752,0,0,1-2.277-1.5,6.69,6.69,0,0,0-2.006-1.093,2.658,2.658,0,0,0-1.805.091,2.414,2.414,0,0,0-1.1.841,1.841,1.841,0,0,0-.272,1.152.775.775,0,0,1-.084-.317,1.5,1.5,0,0,1,.22-.919,2.514,2.514,0,0,1,1.145-.964,2.89,2.89,0,0,1,1.98-.162,6.867,6.867,0,0,1,2.122,1.1,13.7,13.7,0,0,0,2.232,1.43,3.375,3.375,0,0,0,2.717.162,1.962,1.962,0,0,0,.951-1.022,4.4,4.4,0,0,0,.278-1.514c.019-.537,0-1.074.026-1.624a4.071,4.071,0,0,1,.427-1.591,2.5,2.5,0,0,1,1.119-1.177,1.616,1.616,0,0,1,1.572.168c.841.628,1.177,1.52,1.857,1.934a2.655,2.655,0,0,0,2.135.22,4.033,4.033,0,0,0,1.611-.925,9.176,9.176,0,0,0,.977-1.061,10.586,10.586,0,0,1,.776-.977Z" fill="#fafafa"/>
          <g id="Grupo_142490" data-name="Grupo 142490">
            <path id="Trazado_200299" data-name="Trazado 200299" d="M238.979,274.231a1.2,1.2,0,0,1-.408.466,2.262,2.262,0,0,1-1.734.285,4.365,4.365,0,0,1-1.223-.421,12.9,12.9,0,0,1-1.281-.828,7.308,7.308,0,0,0-1.482-.848,2.477,2.477,0,0,0-1.805-.045,3.163,3.163,0,0,0-1.475,1.372,16.944,16.944,0,0,0-1.029,2.057,11.475,11.475,0,0,1-1.2,2.219,3.448,3.448,0,0,1-1.022.906,2.084,2.084,0,0,1-.666.252,3.14,3.14,0,0,1-.356.071h-.362a2.517,2.517,0,0,1-1.372-.485,5.007,5.007,0,0,1-1.048-1.009c-.608-.75-1.106-1.585-1.7-2.348a4.474,4.474,0,0,0-2.226-1.721,3.605,3.605,0,0,0-2.782.576,6.594,6.594,0,0,0-2.051,2.154c-.537.841-.983,1.74-1.482,2.6a8.839,8.839,0,0,1-1.818,2.316,4.773,4.773,0,0,1-2.568,1.229,3.608,3.608,0,0,1-2.6-.776,8.684,8.684,0,0,1-1.682-1.9,11.626,11.626,0,0,0-2.853-3.325,3.277,3.277,0,0,0-1.766-.537,4.025,4.025,0,0,0-1.63.375,4.476,4.476,0,0,0-2.012,1.773,3.618,3.618,0,0,0-.524,1.63c-.006.395.013.608,0,.608a.438.438,0,0,1-.032-.155,4.34,4.34,0,0,1-.045-.459,3.534,3.534,0,0,1,.472-1.708,4.64,4.64,0,0,1,2.057-1.9A4.329,4.329,0,0,1,199,276.23a3.469,3.469,0,0,1,1.921.55,11.65,11.65,0,0,1,2.976,3.371,8.417,8.417,0,0,0,1.624,1.805,3.2,3.2,0,0,0,2.335.686,4.431,4.431,0,0,0,2.355-1.145,8.445,8.445,0,0,0,1.727-2.226c.492-.841.932-1.747,1.488-2.614a6.969,6.969,0,0,1,2.174-2.284,3.981,3.981,0,0,1,3.105-.628,4.815,4.815,0,0,1,2.445,1.87c.608.789,1.106,1.624,1.689,2.348a3.023,3.023,0,0,0,2.135,1.359,2.5,2.5,0,0,0,2.1-1.067,10.991,10.991,0,0,0,1.177-2.141,17.135,17.135,0,0,1,1.074-2.09,3.439,3.439,0,0,1,1.643-1.469,2.768,2.768,0,0,1,2.006.078,7.27,7.27,0,0,1,1.514.906,13.738,13.738,0,0,0,1.236.848,4.23,4.23,0,0,0,1.165.433,2.218,2.218,0,0,0,1.663-.194,3.252,3.252,0,0,0,.453-.395Z" fill="#fafafa"/>
            <path id="Trazado_200300" data-name="Trazado 200300" d="M237.478,247.9a.6.6,0,0,1-.065.129.793.793,0,0,1-.323.272,1.815,1.815,0,0,1-1.572-.142c-.653-.3-1.171-1.048-2.038-1.4a1.275,1.275,0,0,0-1.333.233,3.285,3.285,0,0,0-.731,1.488,9.537,9.537,0,0,1-.647,1.844,2.571,2.571,0,0,1-.686.841,2.232,2.232,0,0,1-1.061.414,4.994,4.994,0,0,1-4.069-2.128,11.833,11.833,0,0,0-1.747-1.714,3.56,3.56,0,0,0-2.3-.738,6.291,6.291,0,0,0-4.419,2.6c-1.126,1.462-1.889,3.138-2.885,4.626a7.725,7.725,0,0,1-3.94,3.274,4.43,4.43,0,0,1-2.439.149,4.048,4.048,0,0,1-1.967-1.19c-1.022-1.055-1.689-2.271-2.711-2.892a2.652,2.652,0,0,0-1.585-.408,2.789,2.789,0,0,0-1.384.518,6.225,6.225,0,0,0-1.637,1.811c-.718,1.158-.977,1.883-1.022,1.863a2.525,2.525,0,0,1,.181-.524,10.758,10.758,0,0,1,.705-1.423,6.343,6.343,0,0,1,1.643-1.915,3.025,3.025,0,0,1,1.494-.589,2.885,2.885,0,0,1,1.753.421c1.113.673,1.805,1.909,2.8,2.9a3.768,3.768,0,0,0,1.811,1.08,4.072,4.072,0,0,0,2.232-.155,7.3,7.3,0,0,0,3.72-3.138c.97-1.449,1.727-3.138,2.892-4.652a6.667,6.667,0,0,1,4.736-2.75,3.975,3.975,0,0,1,2.549.822,12.6,12.6,0,0,1,1.792,1.779,6.676,6.676,0,0,0,1.721,1.527,3.542,3.542,0,0,0,2.025.518,1.88,1.88,0,0,0,1.507-1.067,10.121,10.121,0,0,0,.647-1.779,3.458,3.458,0,0,1,.835-1.6,1.532,1.532,0,0,1,1.592-.252c.951.414,1.436,1.177,2.031,1.469a1.791,1.791,0,0,0,1.469.207c.323-.136.395-.349.421-.323Z" fill="#fafafa"/>
            <path id="Trazado_200301" data-name="Trazado 200301" d="M237.879,220.586a1.8,1.8,0,0,0-.408-.272,1.866,1.866,0,0,0-1.339-.1,2.612,2.612,0,0,0-1.63,1.333,14.613,14.613,0,0,0-.983,2.775,5.979,5.979,0,0,1-.757,1.6,2.97,2.97,0,0,1-1.559,1.171,3.724,3.724,0,0,1-2.077-.058,7.507,7.507,0,0,1-1.967-.938c-1.223-.8-2.407-1.857-3.914-2.122a3.576,3.576,0,0,0-2.226.362,6.466,6.466,0,0,0-1.876,1.494c-1.126,1.21-1.883,2.691-2.944,3.914a7.988,7.988,0,0,1-1.766,1.6,4.406,4.406,0,0,1-2.2.712,6.149,6.149,0,0,1-3.856-1.6c-1.022-.822-1.876-1.676-2.775-2.277a4.856,4.856,0,0,0-2.678-.977,3.494,3.494,0,0,0-2.044.653,2.338,2.338,0,0,0-.828,1.08c-.11.3-.1.479-.129.472a1.273,1.273,0,0,1,.052-.5,2.286,2.286,0,0,1,.809-1.184,3.589,3.589,0,0,1,2.141-.757,5.047,5.047,0,0,1,2.847.964c.945.608,1.818,1.462,2.827,2.251a5.815,5.815,0,0,0,3.636,1.488,5.252,5.252,0,0,0,3.675-2.193c1.022-1.177,1.773-2.665,2.95-3.933a6.986,6.986,0,0,1,2-1.585,4.009,4.009,0,0,1,2.471-.395c1.669.311,2.866,1.43,4.056,2.2a4.8,4.8,0,0,0,3.739.983,2.7,2.7,0,0,0,1.4-1.022,6.027,6.027,0,0,0,.738-1.507,13.477,13.477,0,0,1,1.061-2.795,3.175,3.175,0,0,1,.828-.938,2.7,2.7,0,0,1,.964-.433,1.886,1.886,0,0,1,1.417.181.993.993,0,0,1,.362.343Z" fill="#fafafa"/>
            <path id="Trazado_200302" data-name="Trazado 200302" d="M233.816,207.744a1.469,1.469,0,0,1-.045.3,4.414,4.414,0,0,1-.285.809,2.759,2.759,0,0,1-.835,1.1,1.453,1.453,0,0,1-1.805-.116,8.229,8.229,0,0,1-1.216-1.824,2.65,2.65,0,0,0-.757-.828,2.237,2.237,0,0,0-1.113-.349,3.23,3.23,0,0,0-2.355.88,7.687,7.687,0,0,0-1.637,2.329,6.142,6.142,0,0,1-.828,1.3,1.741,1.741,0,0,1-1.436.64,1.975,1.975,0,0,1-1.313-.757,3.833,3.833,0,0,1-.653-1.242,4.97,4.97,0,0,0-1.016-2.141,1.627,1.627,0,0,0-.886-.466,1.058,1.058,0,0,0-.841.259,3.631,3.631,0,0,0-.828,1.475,3.294,3.294,0,0,1-.679,1.19,1.323,1.323,0,0,1-.757.433.537.537,0,0,1-.3-.019,1.38,1.38,0,0,0,.938-.524,3.369,3.369,0,0,0,.582-1.165,3.672,3.672,0,0,1,.854-1.624,1.388,1.388,0,0,1,1.074-.356,1.962,1.962,0,0,1,1.087.531,5.216,5.216,0,0,1,1.139,2.264,3.358,3.358,0,0,0,.6,1.113,1.59,1.59,0,0,0,1.042.608,1.346,1.346,0,0,0,1.1-.518,5.946,5.946,0,0,0,.77-1.21,7.872,7.872,0,0,1,1.74-2.445,3.564,3.564,0,0,1,2.646-.958,2.629,2.629,0,0,1,1.287.427,2.893,2.893,0,0,1,.841.945,8.418,8.418,0,0,0,1.126,1.786,1.2,1.2,0,0,0,1.482.142,2.662,2.662,0,0,0,.822-.983c.336-.647.433-1.048.472-1.035Z" fill="#fafafa"/>
            <path id="Trazado_200303" data-name="Trazado 200303" d="M182.215,207.808a3.171,3.171,0,0,1,.078.375,9.818,9.818,0,0,1,.1,1.093,5.176,5.176,0,0,1-.207,1.734,2.918,2.918,0,0,1-1.5,1.773,2.028,2.028,0,0,1-1.391.175,2.2,2.2,0,0,1-1.229-.886c-.317-.414-.543-.88-.828-1.313a2.291,2.291,0,0,0-1.1-1,2.333,2.333,0,0,0-2.724,1.2,4.337,4.337,0,0,0-.492,1.689,13.087,13.087,0,0,0,.032,1.876,5.949,5.949,0,0,1-.142,1.967A2.757,2.757,0,0,1,171.7,218.1a2.164,2.164,0,0,1-1.9.155,4.18,4.18,0,0,1-1.494-.983c-.809-.841-1.307-1.792-2-2.465a3.008,3.008,0,0,0-2.368-.958,2.972,2.972,0,0,0-1.967.841,3.182,3.182,0,0,0-.815,1.436,4.283,4.283,0,0,0-.078,1.436,1.081,1.081,0,0,1-.11-.369,3.077,3.077,0,0,1,.026-1.106,3.222,3.222,0,0,1,.8-1.559,3.187,3.187,0,0,1,2.109-.97,3.322,3.322,0,0,1,2.62,1.009c.75.712,1.275,1.676,2.025,2.439a3.749,3.749,0,0,0,1.359.886,1.772,1.772,0,0,0,1.553-.123,2.352,2.352,0,0,0,.932-1.385,5.7,5.7,0,0,0,.123-1.831,6.43,6.43,0,0,1,.518-3.785,2.462,2.462,0,0,1,4.477-.194c.291.459.511.925.8,1.307a1.873,1.873,0,0,0,1.035.783,1.752,1.752,0,0,0,1.19-.136,2.674,2.674,0,0,0,1.41-1.579,5.222,5.222,0,0,0,.265-1.663c0-.938-.052-1.462-.013-1.469Z" fill="#fafafa"/>
          </g>
        </g>
        <g id="Grupo_142501" data-name="Grupo 142501">
          <g id="Grupo_142500" data-name="Grupo 142500">
            <g id="Grupo_142499" data-name="Grupo 142499">
              <path id="Trazado_200304" data-name="Trazado 200304" d="M224.6,116.685c-5.357-1.152-10.4,3.979-15.857,3.384-3.306-.362-5.984-2.756-9.019-4.128-4.535-2.051-10.688-1.921-14.925.692s-6.877,5.26-7.065,10.235c-4.218-1.967-10.507,3.668-12.383,8.747s-.873,10.086.873,15.216a71.5,71.5,0,0,0,13.9,24.073c.543.621,1.384,1.287,2.1.873a1.8,1.8,0,0,0,.653-1.507c.362-4.859-.66-9.691-1.482-14.492s-1.449-9.769-.311-14.5,4.386-9.239,9.064-10.584c3.455-.99,7.207-.155,10.481,1.333s6.217,3.6,9.368,5.35,6.631,3.144,10.222,3,7.291-2.161,8.546-5.531-.848-7.835-4.419-8.281a7.07,7.07,0,0,0,.252-13.871Z" fill="#0f2771"/>
              <g id="Grupo_142497" data-name="Grupo 142497">
                <g id="Grupo_142492" data-name="Grupo 142492">
                  <path id="Trazado_200305" data-name="Trazado 200305" d="M215.6,202.044l-1.384-10.325s13.444-3.772,11.969-17.494c-.712-6.625-3.287-20.14-5.764-32.348a25.7,25.7,0,0,0-28.259-20.418l-1.32.162c-14.149,2.543-19.894,15.98-16.963,30.058l7.977,55.075a17.036,17.036,0,0,0,19.2,14.434h0a17.035,17.035,0,0,0,14.55-19.137Z" fill="#ffbf9d"/>
                  <path id="Trazado_200306" data-name="Trazado 200306" d="M214.239,191.712a32.106,32.106,0,0,1-18.464-2.931s5.4,9.349,18.923,6.476Z" fill="#ff9a6c"/>
                </g>
                <g id="Grupo_142496" data-name="Grupo 142496">
                  <g id="Grupo_142495" data-name="Grupo 142495">
                    <g id="Grupo_142493" data-name="Grupo 142493">
                      <path id="Trazado_200307" data-name="Trazado 200307" d="M216.212,150.2a2.008,2.008,0,0,1-1.637,2.277,1.918,1.918,0,0,1-2.238-1.6,2.008,2.008,0,0,1,1.637-2.277,1.926,1.926,0,0,1,2.245,1.6Z" fill="#0f2771"/>
                      <path id="Trazado_200308" data-name="Trazado 200308" d="M218.289,149.841c-.213.285-1.824-.634-3.927-.375-2.1.226-3.519,1.494-3.778,1.268-.123-.1.065-.589.679-1.158a5.361,5.361,0,0,1,2.989-1.326,5.17,5.17,0,0,1,3.164.621c.705.421.983.854.873.983Z" fill="#0f2771"/>
                    </g>
                    <g id="Grupo_142494" data-name="Grupo 142494">
                      <path id="Trazado_200309" data-name="Trazado 200309" d="M196.176,151.879a2.028,2.028,0,0,1-1.63,2.316,1.938,1.938,0,0,1-2.245-1.637,2.028,2.028,0,0,1,1.63-2.316,1.944,1.944,0,0,1,2.251,1.637Z" fill="#0f2771"/>
                      <path id="Trazado_200310" data-name="Trazado 200310" d="M198.085,151.478c-.213.285-1.824-.634-3.927-.375-2.1.226-3.519,1.494-3.778,1.268-.123-.1.065-.589.679-1.158a5.361,5.361,0,0,1,2.989-1.326,5.219,5.219,0,0,1,3.164.615c.705.421.983.854.873.983Z" fill="#0f2771"/>
                    </g>
                    <path id="Trazado_200311" data-name="Trazado 200311" d="M207.155,166.494a13.935,13.935,0,0,1,3.345-1.029c.531-.123,1.029-.291,1.074-.666a2.783,2.783,0,0,0-.55-1.553q-.99-1.863-2.083-3.9c-2.9-5.564-5.079-10.164-4.852-10.274s2.762,4.3,5.674,9.86q1.058,2.057,2.018,3.933a3.107,3.107,0,0,1,.531,2.077,1.354,1.354,0,0,1-.789.893,3.738,3.738,0,0,1-.9.239,14.048,14.048,0,0,1-3.461.421Z" fill="#0f2771"/>
                    <path id="Trazado_200312" data-name="Trazado 200312" d="M201.138,168.694c.343-.058.621,2.226,2.769,3.61s4.555.841,4.606,1.158c.052.142-.492.511-1.514.66a5.734,5.734,0,0,1-3.83-.841A4.974,4.974,0,0,1,201,170.233c-.2-.945-.013-1.54.142-1.546Z" fill="#0f2771"/>
                  </g>
                  <path id="Trazado_200313" data-name="Trazado 200313" d="M197.024,141.851c-.136.6-2.271.576-4.7,1.171-2.445.543-4.348,1.507-4.742,1.035-.175-.226.11-.809.848-1.462a8.416,8.416,0,0,1,7.194-1.676c.951.259,1.462.653,1.4.932Z" fill="#0f2771"/>
                  <path id="Trazado_200314" data-name="Trazado 200314" d="M216.782,142.925c-.311.524-1.824.2-3.571.388-1.753.123-3.183.705-3.584.246-.181-.226,0-.731.589-1.262a5,5,0,0,1,2.8-1.132,4.948,4.948,0,0,1,2.957.621c.673.421.938.886.8,1.139Z" fill="#0f2771"/>
                </g>
              </g>
              <g id="Grupo_142498" data-name="Grupo 142498">
                <path id="Trazado_200315" data-name="Trazado 200315" d="M176.224,161.681c-.246-.071-9.743-1.656-8.32,7.673s10.494,5.971,10.468,5.706S176.224,161.681,176.224,161.681Z" fill="#ffbf9d"/>
                <path id="Trazado_200316" data-name="Trazado 200316" d="M174.982,171.961c-.045-.026-.142.136-.4.3a1.668,1.668,0,0,1-1.21.213c-1.042-.213-2.109-1.65-2.413-3.325a5.455,5.455,0,0,1,.1-2.394,1.912,1.912,0,0,1,1.035-1.436.84.84,0,0,1,1.029.3c.162.239.136.44.188.446.032.019.175-.188.045-.563a1.042,1.042,0,0,0-.453-.531,1.259,1.259,0,0,0-.932-.1,2.312,2.312,0,0,0-1.475,1.708,5.61,5.61,0,0,0-.168,2.685c.349,1.87,1.579,3.481,2.982,3.668a1.785,1.785,0,0,0,1.449-.472c.252-.272.272-.492.233-.5Z" fill="#ff9a6c"/>
              </g>
              <path id="Trazado_200317" data-name="Trazado 200317" d="M222.98,138.662a19.925,19.925,0,0,1-18.05-1.85c-3.668-2.426-6.728-6.178-11.056-6.961a11.175,11.175,0,0,0-8.365,2.187,21.617,21.617,0,0,0-5.738,6.7c3.481,6.644,2.64,14.628,1.7,22.068a3.761,3.761,0,0,1-.828,2.29c-1,.983-2.743.518-3.83-.375-1.74-1.43-2.614-3.642-3.274-5.8a38.843,38.843,0,0,1-1.734-15.2,26.423,26.423,0,0,1,5.616-14.1,25.01,25.01,0,0,1,16.633-8.676,30.709,30.709,0,0,1,18.451,4.205,18.007,18.007,0,0,1,6.547,5.933" fill="#0f2771"/>
            </g>
            <path id="Trazado_200318" data-name="Trazado 200318" d="M228.932,119.512a2,2,0,0,1,.013.822,3.848,3.848,0,0,1-1.074,2.09,5.972,5.972,0,0,1-3.358,1.585,9.8,9.8,0,0,1-2.342.136,5,5,0,0,1-2.517-.822,3.344,3.344,0,0,1-1.488-2.5,2.92,2.92,0,0,1,1.7-2.627,3.609,3.609,0,0,1,1.656-.414,3.086,3.086,0,0,1,1.7.531A4.271,4.271,0,0,1,225,121.414a4.95,4.95,0,0,1-1.061,3.61,7.578,7.578,0,0,1-3.164,2.336,12.42,12.42,0,0,1-8.106.091,35.371,35.371,0,0,1-7.427-3.338,45.32,45.32,0,0,0-6.761-3.254,14.012,14.012,0,0,0-6.625-.8,13.364,13.364,0,0,0-5.428,2.109,16.625,16.625,0,0,0-5.531,6.392,22.5,22.5,0,0,0-.951,2.135c-.194.5-.291.763-.3.757a.74.74,0,0,1,.045-.207c.039-.129.091-.33.175-.582a17.86,17.86,0,0,1,.873-2.18,16.513,16.513,0,0,1,5.512-6.586,13.646,13.646,0,0,1,5.557-2.219,14.341,14.341,0,0,1,6.819.77,45.328,45.328,0,0,1,6.845,3.261A35.52,35.52,0,0,0,212.809,127a11.97,11.97,0,0,0,7.8-.065,7.085,7.085,0,0,0,2.976-2.18,4.534,4.534,0,0,0,.99-3.293,3.9,3.9,0,0,0-1.585-2.814,2.834,2.834,0,0,0-2.95-.11,2.567,2.567,0,0,0-1.52,2.271,3,3,0,0,0,1.32,2.245,4.651,4.651,0,0,0,2.348.789,10.082,10.082,0,0,0,2.277-.1,5.882,5.882,0,0,0,3.274-1.456,3.88,3.88,0,0,0,1.113-1.973,6.076,6.076,0,0,0,.078-.809Z" fill="#0f2771"/>
            <path id="Trazado_200319" data-name="Trazado 200319" d="M164.663,143.883a15.875,15.875,0,0,0,2.95.4,8.106,8.106,0,0,0,3.1-.705,13.583,13.583,0,0,0,3.306-2.109,10.986,10.986,0,0,0,3.5-6.081,22.066,22.066,0,0,0,.272-2.976,2.463,2.463,0,0,1,.149.8,9.3,9.3,0,0,1-.1,2.232,10.748,10.748,0,0,1-3.519,6.373,13.065,13.065,0,0,1-3.448,2.154,8.056,8.056,0,0,1-3.267.634,7.414,7.414,0,0,1-2.2-.395,2.291,2.291,0,0,1-.744-.336Z" fill="#0f2771"/>
            <path id="Trazado_200320" data-name="Trazado 200320" d="M165.886,150.611c0-.084,1.126.026,2.879-.285a12.954,12.954,0,0,0,10.06-8.54c.6-1.682.666-2.808.75-2.795a2.4,2.4,0,0,1-.006.789,10.752,10.752,0,0,1-.433,2.109,12.481,12.481,0,0,1-10.319,8.76,10.85,10.85,0,0,1-2.148.084,2.282,2.282,0,0,1-.783-.123Z" fill="#0f2771"/>
            <path id="Trazado_200321" data-name="Trazado 200321" d="M191.725,161.59a.252.252,0,0,1-.3-.168.244.244,0,0,1,.142-.317.252.252,0,0,1,.3.168A.244.244,0,0,1,191.725,161.59Z" fill="#ff9a6c"/>
            <path id="Trazado_200322" data-name="Trazado 200322" d="M195.639,160.2a.3.3,0,1,1,.129-.349A.264.264,0,0,1,195.639,160.2Z" fill="#ff9a6c"/>
            <path id="Trazado_200323" data-name="Trazado 200323" d="M198.337,159.8c-.123.032-.265-.11-.317-.317s.006-.395.136-.427.265.11.317.317S198.466,159.772,198.337,159.8Z" fill="#ff9a6c"/>
            <path id="Trazado_200324" data-name="Trazado 200324" d="M194.009,163.88c-.129.013-.239-.039-.252-.123s.084-.162.213-.175.239.039.252.123S194.138,163.867,194.009,163.88Z" fill="#ff9a6c"/>
            <path id="Trazado_200325" data-name="Trazado 200325" d="M197.593,162.58a.27.27,0,1,1,.175-.311A.255.255,0,0,1,197.593,162.58Z" fill="#ff9a6c"/>
            <path id="Trazado_200326" data-name="Trazado 200326" d="M216.51,157.986a.267.267,0,1,1,.142-.323A.25.25,0,0,1,216.51,157.986Z" fill="#ff9a6c"/>
            <path id="Trazado_200327" data-name="Trazado 200327" d="M219.221,157.4a.3.3,0,1,1,.162-.336A.27.27,0,0,1,219.221,157.4Z" fill="#ff9a6c"/>
            <path id="Trazado_200328" data-name="Trazado 200328" d="M214.1,158.342a.218.218,0,0,1-.285-.123.222.222,0,0,1,.155-.265.206.206,0,1,1,.129.388Z" fill="#ff9a6c"/>
            <path id="Trazado_200329" data-name="Trazado 200329" d="M216.458,160.84a.255.255,0,0,1-.336-.11.235.235,0,1,1,.336.116Z" fill="#ff9a6c"/>
            <path id="Trazado_200330" data-name="Trazado 200330" d="M218.742,160.089a.2.2,0,1,1,.259-.162A.213.213,0,0,1,218.742,160.089Z" fill="#ff9a6c"/>
          </g>
          <path id="Trazado_200331" data-name="Trazado 200331" d="M167.4,166.617c.013.045-.511.045-.932-.569a1.624,1.624,0,0,1-.246-1.223,2.041,2.041,0,0,1,.848-1.262,2.15,2.15,0,0,1,1.469-.362,2.363,2.363,0,0,1,1.139.433c.569.421.666.886.628.893-.065.039-.246-.343-.789-.647a2.1,2.1,0,0,0-2.213.019,1.786,1.786,0,0,0-.712,1,1.437,1.437,0,0,0,.123.99c.278.543.712.653.686.718Z" fill="#0f2771"/>
        </g>
        <g id="Grupo_142506" data-name="Grupo 142506">
          <path id="Trazado_200332" data-name="Trazado 200332" d="M238.235,268.842l.705,20.431s-59.242,11.736-66.863,15.663-10.733,4.535-10.267,15.85l94.669-.162s11.671-4.373,11.438-17.073-3.4-43.223-3.4-43.223l-26.273,8.507Z" fill="#ffbf9d"/>
          <g id="Grupo_142505" data-name="Grupo 142505">
            <path id="Trazado_200333" data-name="Trazado 200333" d="M171.6,321.11l7.867-.718,7.511-17.94c-1.216-.207-26.551-3.953-28.046-3.545L152.863,320.5s18.205.615,18.749.615Z" fill="#ffbf9d"/>
            <g id="Grupo_142504" data-name="Grupo 142504">
              <g id="Grupo_142503" data-name="Grupo 142503">
                <path id="Trazado_200334" data-name="Trazado 200334" d="M154.279,320.832c.019.039.168.071.421.1,2.09.226,11.755-.362,11.755-.362.44-1.249-.395-4.994-1.6-5.214s-11.49.472-11.49.472-1.617.213-2.025,2.937c-.252,1.682,2.931,2.07,2.931,2.07Z" fill="#ffbf9d"/>
                <path id="Trazado_200335" data-name="Trazado 200335" d="M151.012,315.339c.019.039.168.071.421.1,2.09.226,11.225.129,11.619-.983.44-1.249-.259-4.373-1.462-4.593s-11.49.472-11.49.472-1.617.213-2.025,2.937c-.252,1.682,2.931,2.07,2.931,2.07Z" fill="#ffbf9d"/>
                <path id="Trazado_200336" data-name="Trazado 200336" d="M149.395,309.976c.019.039.168.071.421.1,2.09.226,11.225.129,11.619-.983.44-1.249-.259-4.373-1.462-4.593s-11.49.472-11.49.472-1.617.214-2.025,2.937c-.252,1.682,2.931,2.07,2.931,2.07Z" fill="#ffbf9d"/>
                <path id="Trazado_200337" data-name="Trazado 200337" d="M147.875,304.638c.019.039.168.071.421.1,2.09.226,11.225.129,11.619-.983.44-1.249-.259-4.373-1.462-4.593s-11.49.472-11.49.472-1.617.214-2.025,2.937c-.252,1.682,2.931,2.07,2.931,2.07Z" fill="#ffbf9d"/>
                <path id="Trazado_200338" data-name="Trazado 200338" d="M162.192,315.3a18.073,18.073,0,0,1-4.445.414,17.128,17.128,0,0,1-4.4-.155,18.1,18.1,0,0,1,4.451-.414,17.127,17.127,0,0,1,4.4.155Z" fill="#ff9a6c"/>
                <path id="Trazado_200339" data-name="Trazado 200339" d="M162.237,309.911a35.682,35.682,0,0,1-6.321.485,35.763,35.763,0,0,1-6.34-.084,34.962,34.962,0,0,1,6.321-.485A35.8,35.8,0,0,1,162.237,309.911Z" fill="#ff9a6c"/>
                <g id="Grupo_142502" data-name="Grupo 142502" opacity="0.78">
                  <path id="Trazado_200340" data-name="Trazado 200340" d="M161.8,304.438a34.962,34.962,0,0,1-6.321.485,35.763,35.763,0,0,1-6.34-.084,34.962,34.962,0,0,1,6.321-.485A35.8,35.8,0,0,1,161.8,304.438Z" fill="#ff9a6c"/>
                </g>
              </g>
              <path id="Trazado_200341" data-name="Trazado 200341" d="M176.47,301.054s-17.248-7.666-18.322-6.56a25.521,25.521,0,0,0-2.737,4.671l21.058,1.9Z" fill="#ffbf9d"/>
            </g>
          </g>
          <path id="Trazado_200342" data-name="Trazado 200342" d="M252.183,307.11c-.071.019-.427-1.236-1.242-3.157a32.787,32.787,0,0,0-1.637-3.287,35.026,35.026,0,0,0-2.5-3.726,33.593,33.593,0,0,0-3.008-3.332,32.805,32.805,0,0,0-2.788-2.387c-1.669-1.268-2.8-1.915-2.762-1.98a3.718,3.718,0,0,1,.822.4,20.8,20.8,0,0,1,2.109,1.339,27.212,27.212,0,0,1,2.879,2.348,31.5,31.5,0,0,1,3.073,3.358,31.1,31.1,0,0,1,2.5,3.8,27.215,27.215,0,0,1,1.572,3.364,19.318,19.318,0,0,1,.783,2.374,3.49,3.49,0,0,1,.188.9Z" fill="#ff9a6c"/>
        </g>
        <g id="Grupo_142511" data-name="Grupo 142511">
          <g id="Grupo_142510" data-name="Grupo 142510">
            <g id="Grupo_142509" data-name="Grupo 142509">
              <path id="Trazado_200343" data-name="Trazado 200343" d="M182.823,210.9,164.98,261.674l-20.056,5.777s7.272,30.776,14.7,36.3c2.523,1.876,6.651,3.914,10.875,3.616,8.016-.556,17.008-6.211,20.437-14.1,3.047-7.013,11.179-79.53,11.179-79.53L182.823,210.9Z" fill="#ffbf9d"/>
              <g id="Grupo_142508" data-name="Grupo 142508">
                <g id="Grupo_142507" data-name="Grupo 142507">
                  <path id="Trazado_200344" data-name="Trazado 200344" d="M201.876,215.9l1.042-12.37-2.866-9.931-1.113-3.8,2.167,2.219,3.959-4.218s-1.287-7.492-2.355-7.492a19.859,19.859,0,0,0-4,1.177c-.815.3-1.417.537-1.417.537l-3.351,1.714,3.351-5.137s3.448,2.872,5.214.375c1.352-1.909-3.681-6.185-5.57-7.692a1.88,1.88,0,0,0-1.54-.369l-1.954.395a2.85,2.85,0,0,0-2.86-2.607,4.392,4.392,0,0,0-3.746,2.245l-2.064.369a3.441,3.441,0,0,0-3.222,2.245L177.02,185.87l5.81,25.031" fill="#ffbf9d"/>
                  <path id="Trazado_200345" data-name="Trazado 200345" d="M182.823,210.9s-.052-.149-.129-.446c-.078-.317-.188-.75-.33-1.313-.285-1.171-.692-2.866-1.21-5.02-1.029-4.367-2.5-10.61-4.3-18.218l-.013-.045.019-.045c.893-2.439,1.837-5.027,2.827-7.744.5-1.359,1-2.743,1.52-4.166a4.013,4.013,0,0,1,1.268-1.98,3.664,3.664,0,0,1,2.277-.809h-.032c.64-.11,1.346-.239,2.064-.369l-.136.1a5.044,5.044,0,0,1,1.507-1.63,4.093,4.093,0,0,1,2.154-.712,3.2,3.2,0,0,1,2.219.7,2.71,2.71,0,0,1,1.1,2.109l-.239-.207c.492-.1.983-.2,1.475-.3a6.433,6.433,0,0,1,.776-.136,2.131,2.131,0,0,1,.828.123,2.258,2.258,0,0,1,.705.427l.6.492c.395.33.789.666,1.177,1.016a26.84,26.84,0,0,1,2.226,2.232,7.317,7.317,0,0,1,1.682,2.769,1.828,1.828,0,0,1-.026,1,2.325,2.325,0,0,1-.576.809,2.4,2.4,0,0,1-1.792.647,6.2,6.2,0,0,1-3.332-1.443l.3-.045q-1.708,2.61-3.351,5.137l-.259-.291q1.7-.864,3.351-1.708h.013l.006-.006c1.132-.427,2.245-.854,3.371-1.21a13.955,13.955,0,0,1,1.714-.466,1.705,1.705,0,0,1,.5-.032.772.772,0,0,1,.44.343,4.3,4.3,0,0,1,.414.8,39.989,39.989,0,0,1,1.592,6.489l.019.091-.065.065c-1.378,1.462-2.7,2.86-3.966,4.212l-.123.129-.123-.129L198.8,189.9l.278-.162c1.52,5.318,2.847,9.937,3.933,13.741v.039c-.349,3.895-.628,6.981-.822,9.116-.1,1.042-.181,1.844-.233,2.413-.026.259-.052.466-.071.621a1.369,1.369,0,0,1-.032.207v-.213q.01-.233.039-.621c.039-.569.1-1.378.175-2.42.168-2.135.408-5.227.712-9.129v.045c-1.106-3.8-2.458-8.4-4.018-13.715l-.188-.634.459.472,2.174,2.213h-.246q1.9-2.028,3.953-4.225l-.045.155a39.556,39.556,0,0,0-1.585-6.4,3.461,3.461,0,0,0-.369-.725.483.483,0,0,0-.207-.194,1.588,1.588,0,0,0-.356.032,14.793,14.793,0,0,0-1.663.453c-1.113.356-2.226.783-3.345,1.21h.019q-1.65.835-3.351,1.708l-.673.343.414-.634q1.65-2.523,3.351-5.137l.123-.188.181.142a5.807,5.807,0,0,0,3.08,1.346,1.98,1.98,0,0,0,1.494-.543,2.023,2.023,0,0,0,.466-.64,1.373,1.373,0,0,0,.013-.776,7.032,7.032,0,0,0-1.592-2.594,25.058,25.058,0,0,0-2.193-2.193q-.573-.514-1.165-1.009a5.043,5.043,0,0,0-1.184-.848,2.257,2.257,0,0,0-1.384.026c-.5.1-.99.2-1.475.3l-.252.052v-.259a2.294,2.294,0,0,0-.938-1.773,2.771,2.771,0,0,0-1.947-.615A4.121,4.121,0,0,0,187,171.01l-.052.084-.091.013c-.712.129-1.423.252-2.064.369h-.039a3.3,3.3,0,0,0-2.038.718,3.662,3.662,0,0,0-1.158,1.811q-.786,2.125-1.533,4.16-1.5,4.066-2.86,7.731v-.091c1.747,7.621,3.17,13.877,4.166,18.251.485,2.161.86,3.862,1.126,5.04.123.563.213,1,.285,1.32.058.3.078.453.078.453Z" fill="#ff9a6c"/>
                </g>
                <path id="Trazado_200346" data-name="Trazado 200346" d="M197.114,188.193a22.175,22.175,0,0,1,3.468-1.87l1.287-.628-1.067.957a3.354,3.354,0,0,0-.712.912,3.389,3.389,0,0,0-.395,1.831,3.451,3.451,0,0,0,.472,1.475,7.894,7.894,0,0,0,.945,1.139c-.013.039-.615-.175-1.184-.983a3.446,3.446,0,0,1-.6-1.6,3.6,3.6,0,0,1,.408-2.057,3.554,3.554,0,0,1,.815-1.022l.22.33a22.377,22.377,0,0,1-3.642,1.507Z" fill="#ff9a6c"/>
                <path id="Trazado_200347" data-name="Trazado 200347" d="M187.63,181.5a10.045,10.045,0,0,1,.97-1.87c.647-1.126,1.559-2.665,2.588-4.354.518-.848,1-1.643,1.475-2.374a4.943,4.943,0,0,1,1.637-1.656,2.575,2.575,0,0,1,1.54-.343c.375.045.556.175.543.194s-.2-.039-.556-.032a2.612,2.612,0,0,0-1.384.433c-1.087.64-1.857,2.335-2.911,3.992-1.029,1.689-1.986,3.2-2.691,4.289a10.619,10.619,0,0,1-1.216,1.714Z" fill="#ff9a6c"/>
                <path id="Trazado_200348" data-name="Trazado 200348" d="M181.5,181.458a7.314,7.314,0,0,1,.582-1.682c.414-1.016,1.035-2.4,1.779-3.9s1.475-2.834,2.031-3.778a7.275,7.275,0,0,1,.983-1.482,8.147,8.147,0,0,1-.731,1.624c-.563,1.126-1.2,2.407-1.915,3.824s-1.333,2.711-1.883,3.843a8,8,0,0,1-.854,1.566Z" fill="#ff9a6c"/>
              </g>
            </g>
            <path id="Trazado_200349" data-name="Trazado 200349" d="M167.167,256.712a8.61,8.61,0,0,1-.291.919c-.246.66-.55,1.482-.919,2.458-.783,2.07-1.85,4.93-2.982,8.113s-2.1,6.075-2.8,8.178c-.33.983-.615,1.818-.841,2.484a4.476,4.476,0,0,1-.356.9,4.473,4.473,0,0,1,.2-.945c.155-.6.4-1.462.712-2.523.628-2.122,1.566-5.04,2.691-8.223s2.245-6.036,3.1-8.08c.427-1.022.783-1.844,1.042-2.407a4.394,4.394,0,0,1,.44-.86Z" fill="#ff9a6c"/>
          </g>
          <path id="Trazado_200350" data-name="Trazado 200350" d="M193.621,280.119a2.115,2.115,0,0,1-.019.233c-.026.175-.052.4-.091.679-.091.628-.22,1.5-.375,2.614-.175,1.132-.382,2.523-.7,4.128a33.92,33.92,0,0,1-1.488,5.35,17.816,17.816,0,0,1-3.487,5.751,26.36,26.36,0,0,1-6.017,4.852,32.115,32.115,0,0,1-7.886,3.28,17.265,17.265,0,0,1-4.5.628,13.535,13.535,0,0,1-4.613-.809A17.018,17.018,0,0,1,157.1,301.4a29.062,29.062,0,0,1-4.257-7.4c-1.035-2.53-1.65-5.046-2.361-7.343s-1.378-4.451-1.98-6.411c-1.223-3.914-2.161-7.1-2.743-9.329-.291-1.113-.511-1.973-.64-2.562-.058-.278-.11-.5-.149-.673a1.028,1.028,0,0,1-.039-.233,1.068,1.068,0,0,1,.078.22c.052.168.11.388.188.66.175.608.414,1.462.718,2.543.628,2.206,1.6,5.376,2.866,9.284.621,1.96,1.3,4.1,2.031,6.4s1.352,4.807,2.387,7.3a28.939,28.939,0,0,0,4.218,7.291,16.565,16.565,0,0,0,7.175,5.292,13.377,13.377,0,0,0,4.477.789,17.426,17.426,0,0,0,4.393-.608,32.043,32.043,0,0,0,7.8-3.215,26.144,26.144,0,0,0,5.958-4.755,17.512,17.512,0,0,0,3.468-5.629,34.606,34.606,0,0,0,1.54-5.292c.336-1.592.569-2.976.77-4.1.194-1.106.343-1.98.453-2.6.052-.278.1-.5.129-.673a1.168,1.168,0,0,1,.058-.226Z" fill="#ff9a6c"/>
        </g>
      </g>
      <g id="Grupo_142517" data-name="Grupo 142517">
        <path id="Trazado_200351" data-name="Trazado 200351" d="M79.66,278.087a7.246,7.246,0,0,0-3.765-4.807c-2.012-.867-4.341-.375-6.392.375s-4.076,1.747-6.263,1.883-4.652-.9-5.305-2.989c-.615-1.96.569-4.056,2.051-5.486A12.949,12.949,0,0,1,81.2,272.155" fill="#feca2e"/>
        <g id="Grupo_142516" data-name="Grupo 142516">
          <g id="Grupo_142513" data-name="Grupo 142513" opacity="0.5">
            <path id="Trazado_200352" data-name="Trazado 200352" d="M79.66,278.087a7.246,7.246,0,0,0-3.765-4.807c-2.012-.867-4.341-.375-6.392.375s-4.076,1.747-6.263,1.883-4.652-.9-5.305-2.989c-.615-1.96.569-4.056,2.051-5.486A12.949,12.949,0,0,1,81.2,272.155"/>
          </g>
          <path id="Trazado_200353" data-name="Trazado 200353" d="M96.966,286.86c3.2-3.047,3.047-8.346,1.449-12.467s-5.085-7.285-8.986-9.374a28.449,28.449,0,0,0-24.8-.8,11.773,11.773,0,0,1,9.517,5.59c1.753,2.918,2.148,6.457,3.6,9.536a15.009,15.009,0,0,0,19.221,7.511" fill="#feca2e"/>
          <path id="Trazado_200354" data-name="Trazado 200354" d="M98.505,268.571c3.545-4.186,4.018-10.914,3.5-16.374s-1.792-10.966-.925-16.387c.511-3.209,1.76-6.275,2.18-9.5s-.175-6.871-2.672-8.954c-2.872-2.394-7.395-1.831-10.384.421s-4.716,5.777-5.984,9.29c-2.782,7.725-3.8,16.3-1.514,24.183s7.641,14.938,15.5,17.319" fill="#feca2e"/>
          <path id="Trazado_200355" data-name="Trazado 200355" d="M100.213,302.93s.013-.168.013-.485,0-.783-.026-1.384c-.045-1.2-.162-2.937-.427-5.072a67.367,67.367,0,0,0-1.365-7.427,34.224,34.224,0,0,0-3.39-8.6,35.909,35.909,0,0,0-5.538-7.408,35.02,35.02,0,0,0-5.81-4.826c-.886-.615-1.747-1.08-2.484-1.507-.757-.395-1.417-.725-1.96-.983-.537-.226-.957-.4-1.274-.537a3.728,3.728,0,0,0-.453-.168,3.82,3.82,0,0,0,.427.22c.311.142.725.343,1.249.589.531.278,1.184.615,1.928,1.022.725.44,1.572.919,2.445,1.54a35.942,35.942,0,0,1,5.726,4.846,36.4,36.4,0,0,1,5.48,7.362c3.261,5.706,4.153,11.71,4.8,15.915.3,2.122.44,3.856.524,5.053.032.576.058,1.035.084,1.378a2.5,2.5,0,0,0,.045.479Z" fill="#0f2771"/>
          <g id="Grupo_142515" data-name="Grupo 142515">
            <path id="Trazado_200356" data-name="Trazado 200356" d="M130.814,252.047c6.567,3.959,6.547,7.569,5.447,10.972s-5.124,5.764-8.469,4.49a10.359,10.359,0,0,1-4.425-4.011,18.591,18.591,0,0,0-3.9-4.6c-1.637-1.184-4.011-1.637-5.654-.466" fill="#feca2e"/>
            <g id="Grupo_142514" data-name="Grupo 142514" opacity="0.5">
              <path id="Trazado_200357" data-name="Trazado 200357" d="M130.814,252.047c6.567,3.959,6.547,7.569,5.447,10.972s-5.124,5.764-8.469,4.49a10.359,10.359,0,0,1-4.425-4.011,18.591,18.591,0,0,0-3.9-4.6c-1.637-1.184-4.011-1.637-5.654-.466"/>
            </g>
            <path id="Trazado_200358" data-name="Trazado 200358" d="M135.731,256.388c-1.714-2.374-5.958-3.06-8.637-1.876s-4.639,3.532-6.392,5.874-3.468,4.82-5.894,6.45-5.829,2.219-8.255.576a7.086,7.086,0,0,1-2.8-4.852,15.994,15.994,0,0,1,.388-5.726c.582-2.756,1.527-5.629,3.726-7.375,2.458-1.947,5.861-2.044,9-1.941a33.63,33.63,0,0,1,10.623,1.637c3.377,1.249,6.819,3.94,8.249,7.239" fill="#feca2e"/>
            <path id="Trazado_200359" data-name="Trazado 200359" d="M105.667,297.677a.916.916,0,0,0,.019-.142c0-.11.013-.252.019-.421q.019-.592.058-1.63c.039-1.443.1-3.481.175-5.991.078-2.53.181-5.538.362-8.883s.433-7.013.945-10.83a34.765,34.765,0,0,1,1.087-5.5,28.562,28.562,0,0,1,2.012-4.813,27.333,27.333,0,0,1,2.536-3.985,25.83,25.83,0,0,1,2.769-3.041,20.35,20.35,0,0,1,4.917-3.351c.323-.149.6-.291.854-.395s.459-.181.64-.246c.162-.065.291-.116.395-.162a.459.459,0,0,0,.129-.065,1.057,1.057,0,0,0-.142.032c-.11.032-.239.078-.4.129-.181.065-.4.136-.653.226s-.543.233-.867.369a19.526,19.526,0,0,0-5.007,3.3,26.135,26.135,0,0,0-2.827,3.047,27.715,27.715,0,0,0-2.588,4,28.828,28.828,0,0,0-2.044,4.852,34.475,34.475,0,0,0-1.106,5.544c-.511,3.836-.75,7.511-.919,10.856s-.252,6.36-.3,8.889-.071,4.58-.078,6v1.63c0,.175,0,.311.006.427,0,.1.006.142.013.142Z" fill="#0f2771"/>
          </g>
          <path id="Trazado_200360" data-name="Trazado 200360" d="M103.306,300.64a18.654,18.654,0,0,0,.718-2.821,29.337,29.337,0,0,0,.3-7.919,52.454,52.454,0,0,0-2.5-11.49c-1.346-4.225-3.177-8.74-4.736-13.593a61.245,61.245,0,0,1-1.883-7.194,64.643,64.643,0,0,1-.932-6.864,99.484,99.484,0,0,1-.207-11.736c.116-3.345.291-6.049.4-7.912.052-.919.1-1.643.129-2.154.013-.233.019-.421.026-.563V228.2s-.013.065-.026.188c-.013.142-.032.323-.058.556-.045.511-.1,1.229-.181,2.148-.149,1.863-.356,4.568-.5,7.912A96.219,96.219,0,0,0,94,250.773a61.889,61.889,0,0,0,.919,6.9A62.743,62.743,0,0,0,96.81,264.9c1.566,4.872,3.4,9.381,4.762,13.593a53.983,53.983,0,0,1,2.555,11.425,30.6,30.6,0,0,1-.207,7.88c-.162.919-.311,1.63-.44,2.1-.058.226-.1.408-.129.543a.83.83,0,0,0-.032.188Z" fill="#0f2771"/>
          <path id="Trazado_200361" data-name="Trazado 200361" d="M87.028,303.61h30.827l.7-5.933H87.028Z" fill="#0f2771"/>
          <path id="Trazado_200362" data-name="Trazado 200362" d="M114.543,302.93l-3.849,17.8H93.944l-3.61-17.8Z" fill="#0f2771"/>
          <path id="Trazado_200363" data-name="Trazado 200363" d="M87.028,303.61c0,.084,6.78.129,15.132.1s15.139-.11,15.139-.188-6.774-.129-15.139-.1S87.028,303.532,87.028,303.61Z" fill="#0f2771"/>
          <path id="Trazado_200364" data-name="Trazado 200364" d="M92.321,312.4a12.948,12.948,0,0,1,2.717-1.559,9.534,9.534,0,0,1,3.3-.66,11.717,11.717,0,0,1,4.056.744c1.4.472,2.717,1.029,4,1.333a9.425,9.425,0,0,0,3.455.1,7.032,7.032,0,0,0,2.219-.705,3.967,3.967,0,0,0,.537-.343c.116-.084.175-.136.168-.142-.019-.026-.265.155-.75.382a7.676,7.676,0,0,1-2.2.6,9.641,9.641,0,0,1-3.364-.162c-1.236-.311-2.543-.867-3.959-1.346a11.567,11.567,0,0,0-4.16-.738,9.293,9.293,0,0,0-3.371.744,8.818,8.818,0,0,0-2.012,1.171,4.791,4.791,0,0,0-.479.414c-.1.1-.155.155-.149.162Z" fill="#0f2771"/>
          <path id="Trazado_200365" data-name="Trazado 200365" d="M92.553,313.586a13.332,13.332,0,0,1,2.607-1.533,8.754,8.754,0,0,1,3.183-.653,11.549,11.549,0,0,1,3.927.705c1.359.453,2.633.983,3.849,1.307a10.087,10.087,0,0,0,3.319.375,5.565,5.565,0,0,0,2.174-.582,3.685,3.685,0,0,0,.518-.33c.11-.084.168-.129.162-.142s-.252.149-.731.369a6.037,6.037,0,0,1-2.141.479,10.127,10.127,0,0,1-3.235-.427c-1.19-.336-2.458-.867-3.83-1.326a11.351,11.351,0,0,0-4.024-.7,8.622,8.622,0,0,0-3.261.738,8.4,8.4,0,0,0-1.921,1.165c-.207.168-.362.3-.459.4s-.149.149-.142.162Z" fill="#fff"/>
          <path id="Trazado_200366" data-name="Trazado 200366" d="M92.016,311.211a14.83,14.83,0,0,1,2.788-1.643,10.267,10.267,0,0,1,3.384-.815,11.015,11.015,0,0,1,4.186.738,38.272,38.272,0,0,0,4.134,1.352,10.419,10.419,0,0,0,3.565,0,8.016,8.016,0,0,0,2.29-.725,4.746,4.746,0,0,0,.556-.343c.123-.091.181-.142.175-.149-.019-.026-.272.162-.776.388a8.849,8.849,0,0,1-2.271.621,10.767,10.767,0,0,1-3.481-.065,40.984,40.984,0,0,1-4.1-1.365,10.949,10.949,0,0,0-4.3-.731A10.407,10.407,0,0,0,92.67,310.6a5.129,5.129,0,0,0-.492.427c-.11.1-.162.162-.155.168Z" fill="#fff"/>
        </g>
        <path id="Trazado_200367" data-name="Trazado 200367" d="M86.757,303.635c0,.084,6.935.149,15.488.149s15.488-.065,15.488-.149-6.935-.149-15.488-.149S86.757,303.551,86.757,303.635Z" fill="#0f2771"/>
      </g>
      <path id="Trazado_200368" data-name="Trazado 200368" d="M339.884,320.735c0,.091-63.059.168-140.823.168s-140.836-.078-140.836-.168,63.046-.168,140.836-.168S339.884,320.644,339.884,320.735Z" fill="#0f2771"/>
    </g>
  </g>
</svg>
