<svg xmlns="http://www.w3.org/2000/svg" width="190" height="115" viewBox="0 0 190 115">
  <g id="Grupo_146527" data-name="Grupo 146527" transform="translate(-180 -7106)">
    <g id="Grupo_146432" data-name="Grupo 146432" transform="translate(0 669)">
      <g id="Grupo_142519" data-name="Grupo 142519" transform="translate(0 4104)">
        <rect id="Rectángulo_43992" data-name="Rectángulo 43992" width="190" height="115" transform="translate(180 2333)" fill="none"/>
        <rect id="Rectángulo_41430" data-name="Rectángulo 41430" width="85" height="28" rx="14" transform="translate(285 2341)" fill="#feca2e" opacity="0.2"/>
        <rect id="Rectángulo_41431" data-name="Rectángulo 41431" width="85" height="28" rx="14" transform="translate(180 2402)" fill="#4dd0e1" opacity="0.2"/>
      </g>
      <g id="_10_copy" data-name="10 copy" transform="translate(168.79 6412.916)">
        <path id="Trazado_200423" data-name="Trazado 200423" d="M110.858,128.856A40.888,40.888,0,1,1,151.52,83.622a1.738,1.738,0,0,1-3.458.364,37.412,37.412,0,1,0-37.2,41.394,1.74,1.74,0,1,1,0,3.481Z" transform="translate(-8.909 -8.909)" fill="#0f2771"/>
        <path id="Trazado_200424" data-name="Trazado 200424" d="M101.949,127.548a48.489,48.489,0,0,1,0-96.978c26.735,0,46.684,19.857,48.379,45.206a1.74,1.74,0,1,1-3.471.23,45.009,45.009,0,1,0-44.907,48.056c.7,0,1.39-.014,2.076-.046a1.74,1.74,0,0,1,.161,3.476c-.741.032-1.487.051-2.238.051Z" transform="translate(0 0)" fill="#0f2771"/>
        <path id="Trazado_200425" data-name="Trazado 200425" d="M148.959,134.448a1.729,1.729,0,0,1-1.229-.511l-6.639-6.639a1.734,1.734,0,0,1,0-2.459l6.639-6.639a1.734,1.734,0,0,1,2.459,0l6.639,6.639a1.734,1.734,0,0,1,0,2.459l-6.639,6.639A1.729,1.729,0,0,1,148.959,134.448Zm-4.18-8.379,4.18,4.18,4.18-4.18-4.18-4.18Z" transform="translate(-47.01 -47.01)" fill="#0f2771"/>
        <path id="Trazado_200426" data-name="Trazado 200426" d="M156.74,102.49a1.739,1.739,0,0,1-1.74-1.74V84.82a1.74,1.74,0,1,1,3.481,0v15.93A1.739,1.739,0,0,1,156.74,102.49Z" transform="translate(-54.791 -28.335)" fill="#0f2771"/>
        <path id="Trazado_200427" data-name="Trazado 200427" d="M164.291,112.448a1.74,1.74,0,0,1-.962-3.191l20.9-13.876a1.74,1.74,0,1,1,1.924,2.9l-20.9,13.876A1.719,1.719,0,0,1,164.291,112.448Z" transform="translate(-58.866 -34.816)" fill="#0f2771"/>
        <path id="Trazado_200428" data-name="Trazado 200428" d="M193.3,187.4H187.08a4.609,4.609,0,0,1-4.6-4.6v-3.066c-.318-.124-.631-.253-.944-.4l-2.173,2.173a4.607,4.607,0,0,1-6.51,0l-4.4-4.4a4.607,4.607,0,0,1,0-6.51l2.168-2.173c-.143-.313-.272-.631-.4-.944h-3.066a4.609,4.609,0,0,1-4.6-4.6v-6.225a4.609,4.609,0,0,1,4.6-4.6h3.066c.124-.318.253-.631.4-.944l-2.173-2.173a4.607,4.607,0,0,1,0-6.51l4.4-4.4a4.607,4.607,0,0,1,6.51,0l2.173,2.173c.313-.143.631-.272.944-.4v-3.066a4.609,4.609,0,0,1,4.6-4.6H193.3a4.609,4.609,0,0,1,4.6,4.6v3.066c.313.124.631.253.944.4l2.173-2.173a4.607,4.607,0,0,1,6.51,0l4.4,4.4a4.607,4.607,0,0,1,0,6.51l-2.173,2.173c.143.313.272.631.4.944h3.066a4.609,4.609,0,0,1,4.6,4.6v6.225a4.609,4.609,0,0,1-4.6,4.6h-3.066c-.124.313-.253.631-.4.944l2.173,2.173a4.607,4.607,0,0,1,0,6.51l-4.4,4.4a4.607,4.607,0,0,1-6.51,0l-2.173-2.173c-.313.143-.631.272-.944.4v3.066a4.609,4.609,0,0,1-4.6,4.6Zm-12.131-11.906a1.77,1.77,0,0,1,.8.193,18.194,18.194,0,0,0,2.772,1.16,1.74,1.74,0,0,1,1.211,1.657v4.291a1.125,1.125,0,0,0,1.123,1.123H193.3a1.122,1.122,0,0,0,1.123-1.123V178.5a1.74,1.74,0,0,1,1.211-1.657,17.741,17.741,0,0,0,2.772-1.16,1.747,1.747,0,0,1,2.03.313l3.043,3.043a1.125,1.125,0,0,0,1.588,0l4.4-4.4a1.125,1.125,0,0,0,0-1.588l-3.043-3.043a1.74,1.74,0,0,1-.313-2.03,17.455,17.455,0,0,0,1.156-2.772,1.74,1.74,0,0,1,1.657-1.211h4.3a1.122,1.122,0,0,0,1.123-1.123v-6.225a1.122,1.122,0,0,0-1.123-1.123h-4.3a1.741,1.741,0,0,1-1.657-1.211,18.084,18.084,0,0,0-1.156-2.772,1.741,1.741,0,0,1,.313-2.03l3.043-3.043a1.125,1.125,0,0,0,0-1.588l-4.4-4.4a1.125,1.125,0,0,0-1.588,0l-3.043,3.043a1.739,1.739,0,0,1-2.03.313,17.634,17.634,0,0,0-2.772-1.156,1.74,1.74,0,0,1-1.211-1.657v-4.3A1.125,1.125,0,0,0,193.3,135.6H187.08a1.122,1.122,0,0,0-1.123,1.123v4.3a1.741,1.741,0,0,1-1.211,1.657,18.085,18.085,0,0,0-2.772,1.156,1.741,1.741,0,0,1-2.03-.313l-3.043-3.043a1.125,1.125,0,0,0-1.588,0l-4.4,4.4a1.125,1.125,0,0,0,0,1.588l3.043,3.043a1.74,1.74,0,0,1,.313,2.03,18.2,18.2,0,0,0-1.16,2.772,1.74,1.74,0,0,1-1.657,1.211h-4.291a1.122,1.122,0,0,0-1.123,1.123v6.225a1.125,1.125,0,0,0,1.123,1.123h4.291a1.74,1.74,0,0,1,1.657,1.211,17.74,17.74,0,0,0,1.16,2.772,1.741,1.741,0,0,1-.313,2.03l-3.043,3.043a1.125,1.125,0,0,0,0,1.588l4.4,4.4a1.125,1.125,0,0,0,1.588,0L179.944,176a1.732,1.732,0,0,1,1.229-.511Z" transform="translate(-58.865 -54.797)" fill="#0f2771"/>
        <path id="Trazado_200429" data-name="Trazado 200429" d="M197.493,188.466a21.413,21.413,0,1,1,21.413-21.413,21.435,21.435,0,0,1-21.413,21.413Zm0-39.35a17.935,17.935,0,1,0,17.937,17.932A17.955,17.955,0,0,0,197.493,149.116Z" transform="translate(-66.166 -62.092)" fill="#0f2771"/>
        <path id="Trazado_200430" data-name="Trazado 200430" d="M209.348,190.2a11.312,11.312,0,0,1-11.3-11.3,1.74,1.74,0,1,1,3.481,0,7.818,7.818,0,1,0,7.818-7.818,1.74,1.74,0,0,1,0-3.481,11.3,11.3,0,0,1,0,22.6Z" transform="translate(-78.021 -73.942)" fill="#0f2771"/>
      </g>
    </g>
  </g>
</svg>
