<svg xmlns="http://www.w3.org/2000/svg" xmlns:xlink="http://www.w3.org/1999/xlink" width="295" height="187.121" viewBox="0 0 295 187.121">
  <defs>
    <clipPath id="clip-path">
      <path id="Trazado_194420" data-name="Trazado 194420" d="M145.508,239.661l9.447,5.452,5.805,3.349c.186.095.368.2.547.315A7.7,7.7,0,0,1,165,255.4v27.144a7.692,7.692,0,0,0,3.117,6.227,7.867,7.867,0,0,0,4.7,1.58,7.722,7.722,0,0,0,3.88-1.056,23.39,23.39,0,0,0,11.694-20.252V240.888a23.381,23.381,0,0,1,11.69-20.252L157.2,195.88h0a23.4,23.4,0,0,0-11.7,20.264v12.264c0,3.508,0,11.258,0,11.258Z" transform="translate(-145.5 -195.88)" fill="none"/>
    </clipPath>
  </defs>
  <g id="Grupo_146519" data-name="Grupo 146519" transform="translate(-1125 -4076)">
    <g id="Grupo_146456" data-name="Grupo 146456">
      <rect id="Rectángulo_45984" data-name="Rectángulo 45984" width="295" height="187" transform="translate(1125 4076)" fill="none"/>
      <g id="_1_2_a" data-name="1_2_a" transform="translate(1181.22 4076)">
        <ellipse id="Shadow" cx="19.869" cy="11.47" rx="19.869" ry="11.47" transform="translate(0 121.445)" fill="#e1e1e1"/>
        <path id="Shadow-2" d="M292.021,385.635l-88.869,51.31L162.42,413.432l88.888-51.322Z" transform="translate(-145.331 -249.824)" fill="#e1e1e1"/>
        <path id="Shadow-3" d="M138.353,370.124l18.392-10.62a.6.6,0,0,0,0-1.139L92.066,321.024a2.179,2.179,0,0,0-1.974,0L71.7,331.643a.6.6,0,0,0,0,1.139l64.679,37.342A2.179,2.179,0,0,0,138.353,370.124Z" transform="translate(24.136 -218.968)" fill="#e1e1e1"/>
        <g id="Device" transform="translate(102.362 0)">
          <g id="Device-2">
            <path id="Trazado_194328" data-name="Trazado 194328" d="M126.932,23.711l54.591,31.514a4.4,4.4,0,0,1,1.982,3.44V181.772c0,1.264-.888,1.781-1.982,1.147l-54.591-31.514a4.4,4.4,0,0,1-1.982-3.44V24.854c0-1.264.889-1.781,1.982-1.147Zm.873,112.91a2.743,2.743,0,0,0,1.7,2.312l49.636,28.655c.938.543,1.7.1,1.7-.983V70.172a3.776,3.776,0,0,0-1.7-2.95L129.51,38.568c-.942-.547-1.7-.1-1.7.98v97.073Z" transform="translate(-124.95 -19.632)" fill="#636363"/>
            <path id="Trazado_194329" data-name="Trazado 194329" d="M108.49,231.506a4.445,4.445,0,0,0,3.725-.121l2.271-1.314a4.375,4.375,0,0,0,1.99-3.44v-123.1a3.755,3.755,0,0,0-.346-1.485,5.064,5.064,0,0,0-.235-.478,0,0,0,0,1,0,0l-6.246,3.607h0a5.539,5.539,0,0,1,.346.729,3.623,3.623,0,0,1,.239,1.23V230.238C110.225,231.4,109.47,231.935,108.49,231.506Z" transform="translate(-51.67 -68.094)" fill="#12263f"/>
            <path id="Trazado_194330" data-name="Trazado 194330" d="M198.182,372.781c-1.731-1-3.132-.19-3.132,1.811a6.932,6.932,0,0,0,3.132,5.43c1.731,1,3.132.19,3.132-1.811A6.932,6.932,0,0,0,198.182,372.781Z" transform="translate(-169.376 -236.072)" fill="#4dd0e1"/>
            <g id="Grupo_141526" data-name="Grupo 141526" transform="translate(23.032 22.307)">
              <path id="Trazado_194331" data-name="Trazado 194331" d="M199.883,72.353c-.737-.425-1.333-.08-1.333.767a2.943,2.943,0,0,0,1.333,2.3c.737.425,1.333.08,1.333-.767A2.937,2.937,0,0,0,199.883,72.353Z" transform="translate(-193.637 -72.17)"/>
              <path id="Trazado_194332" data-name="Trazado 194332" d="M196.993,84.019l-10.274-5.931c-.611-.353-1.109-.1-1.109.562a2.378,2.378,0,0,0,1.109,1.841l10.274,5.931c.611.353,1.109.1,1.109-.562A2.378,2.378,0,0,0,196.993,84.019Z" transform="translate(-185.61 -75.742)"/>
            </g>
            <path id="Trazado_194333" data-name="Trazado 194333" d="M131.95,160.7a2.743,2.743,0,0,0,1.7,2.312l49.636,28.655c.938.543,1.7.1,1.7-.983V94.248a3.776,3.776,0,0,0-1.7-2.95L133.651,62.647c-.942-.547-1.7-.1-1.7.98V160.7Z" transform="translate(-129.091 -43.81)" fill="#4dd0e1" stroke="#fff" stroke-miterlimit="10" stroke-width="1.2"/>
            <path id="Trazado_194334" data-name="Trazado 194334" d="M110.03,18.324c.144-1.033.968-1.4,1.959-.832L166.584,49.01a4.07,4.07,0,0,1,1.4,1.485l6.246-3.607a4.042,4.042,0,0,0-1.4-1.473L118.243,13.893a4.384,4.384,0,0,0-3.972,0L111.989,15.2A4.438,4.438,0,0,0,110.03,18.324Z" transform="translate(-110.011 -13.418)" fill="#afafaf"/>
          </g>
          <g id="Grupo_141527" data-name="Grupo 141527" transform="translate(13.179 49.187)">
            <path id="Trazado_194335" data-name="Trazado 194335" d="M165.328,179.768a3.364,3.364,0,0,0-1.557-.509,1.843,1.843,0,0,0-1.219.391,2.671,2.671,0,0,0-.8,1.219,6.4,6.4,0,0,0-.327,1.952c-.008.262-.011.5-.011.725v1.264c0,.216,0,.452.011.71a10.815,10.815,0,0,0,.323,2.335,10.209,10.209,0,0,0,.786,2.126,8.657,8.657,0,0,0,1.192,1.785,6.093,6.093,0,0,0,1.545,1.283l3.337,1.929a.182.182,0,0,0,.235-.015.411.411,0,0,0,.1-.3V182.365a.989.989,0,0,0-.1-.418.618.618,0,0,0-.235-.289Zm-1.617,4.3q.074-2.147,1.682-1.219l1.261.729v7.233l-1.321-.763a3.418,3.418,0,0,1-1.617-3.121c-.008-.273-.011-.524-.011-.759v-1.359c0-.228,0-.475.011-.737Z" transform="translate(-137.406 -165.479)" fill="#fff"/>
            <path id="Trazado_194336" data-name="Trazado 194336" d="M185.749,165.76c-.163-.095-.289-.1-.376-.008a.725.725,0,0,0-.178.315L182.5,176.5a.885.885,0,0,0-.049.258.8.8,0,0,0,.08.342.512.512,0,0,0,.19.235l1.557.9c.163.095.281.11.353.042a.439.439,0,0,0,.129-.239l.346-1.378,3.288,1.9.346,1.781a1.4,1.4,0,0,0,.129.387.835.835,0,0,0,.353.365l1.557.9a.153.153,0,0,0,.194-.011.331.331,0,0,0,.08-.251,1.563,1.563,0,0,0-.049-.315l-2.7-13.543a2.518,2.518,0,0,0-.178-.524.947.947,0,0,0-.376-.429l-2-1.154Zm0,8.315,1-3.99,1,5.145" transform="translate(-167.506 -157.06)" fill="#fff"/>
            <path id="Trazado_194337" data-name="Trazado 194337" d="M204.164,150.942a.182.182,0,0,0-.235.015.411.411,0,0,0-.1.3v2.016a.975.975,0,0,0,.1.418.618.618,0,0,0,.235.289l2.176,1.257V165a.976.976,0,0,0,.1.418.619.619,0,0,0,.235.289l1.617.934a.182.182,0,0,0,.235-.015.411.411,0,0,0,.1-.3v-9.762l2.176,1.257a.182.182,0,0,0,.235-.015.411.411,0,0,0,.1-.3v-2.016a.976.976,0,0,0-.1-.418.618.618,0,0,0-.235-.289l-6.637-3.831Z" transform="translate(-195.709 -147.892)" fill="#fff"/>
            <path id="Trazado_194338" data-name="Trazado 194338" d="M225.109,143.04c-.163-.095-.289-.1-.376-.008a.726.726,0,0,0-.178.315l-2.7,10.434a.883.883,0,0,0-.049.258.8.8,0,0,0,.08.342.513.513,0,0,0,.19.235l1.557.9c.163.095.281.11.353.042a.438.438,0,0,0,.129-.239l.346-1.378,3.288,1.9.346,1.781a1.4,1.4,0,0,0,.129.387.835.835,0,0,0,.353.364l1.557.9a.153.153,0,0,0,.194-.011.331.331,0,0,0,.08-.251,1.563,1.563,0,0,0-.049-.315l-2.7-13.543a2.517,2.517,0,0,0-.178-.524.947.947,0,0,0-.376-.429l-2-1.154Zm2,9.473-2-1.154,1-3.99,1,5.145Z" transform="translate(-221.81 -142.966)" fill="#fff"/>
          </g>
        </g>
        <g id="Character" transform="translate(6.362 29.231)">
          <path id="Trazado_194339" data-name="Trazado 194339" d="M452.48,147.55c2.893.137,3.888.687,5.4,2.472C459.364,151.764,466.5,165,466.5,165s-1.34,3.755-4.271,3.436l-5.483-8.839Z" transform="translate(-436.304 -125.853)" fill="#ffa8a7"/>
          <path id="Trazado_194340" data-name="Trazado 194340" d="M463.12,147.449a9.114,9.114,0,0,1,3.561.266c1.485.535,2.225,1.61,3.246,3.17.79,1.207,3.558,6.215,3.558,6.215s-1.348,3.751-5.183,3.751Z" transform="translate(-447.327 -125.748)" fill="#e1e1e1"/>
          <g id="Character-2" transform="translate(0.347)">
            <g id="Grupo_141528" data-name="Grupo 141528" transform="translate(0 46.528)">
              <path id="Trazado_194341" data-name="Trazado 194341" d="M503.65,394.353v-.626c.247.737,1.394,3.9,3.136,5.49,1.382,1.261,3.273,2.719,3.751,4.127.5,1.462-2.627,1.955-3.918,1.728a7.985,7.985,0,0,1-4.5-2.419c-.744-.915-1.219-2-1.747-2.715s-1.754-1.522-2.043-2.354a5.307,5.307,0,0,1,.251-2.3c.205-.775.425-1.629.687-1.557v.478a3.47,3.47,0,0,0,2.195.74c.642.027,2.2-.1,2.195-.592Z" transform="translate(-498.126 -325.084)" fill="#1a2e35"/>
              <path id="Trazado_194342" data-name="Trazado 194342" d="M512.5,394.452c-.429-.383-.862-.755-1.253-1.116a12.8,12.8,0,0,1-2.677-4.275,6.022,6.022,0,0,1-.459-2.308v-2.5h-4.385v4.07h0v.11l.023.011c.213.911,2.225,3.337,3.368,4.917A6.389,6.389,0,0,0,511.083,396C512.731,396.221,513.578,395.7,512.5,394.452Z" transform="translate(-502.59 -319.21)" fill="#ffa8a7"/>
              <path id="Trazado_194343" data-name="Trazado 194343" d="M462.86,382.963v-.626c.247.737,1.393,3.9,3.136,5.49,1.382,1.261,3.273,2.719,3.751,4.127.5,1.462-2.628,1.955-3.918,1.728a7.984,7.984,0,0,1-4.5-2.419c-.744-.915-1.219-2-1.746-2.715s-1.754-1.522-2.043-2.354a5.305,5.305,0,0,1,.251-2.3c.205-.775.425-1.629.687-1.557v.478a3.471,3.471,0,0,0,2.195.74c.642.023,2.2-.1,2.195-.592Z" transform="translate(-441.849 -318.019)" fill="#1a2e35"/>
              <path id="Trazado_194344" data-name="Trazado 194344" d="M471.723,383.062c-.429-.383-.862-.756-1.253-1.116a12.8,12.8,0,0,1-2.677-4.275,6.019,6.019,0,0,1-.459-2.308v-2.5h-4.385v4.07h0v.11l.023.011c.213.911,2.225,3.337,3.368,4.917a6.389,6.389,0,0,0,3.964,2.643c1.648.22,2.495-.3,1.42-1.549Z" transform="translate(-446.326 -312.145)" fill="#ffa8a7"/>
              <path id="Trazado_194345" data-name="Trazado 194345" d="M472.924,214.04c-3.4,7.427.121,33.594.121,33.594-.1,1.2-1.481,3.577-1.993,8.881-.607,6.269.953,22.01.953,22.01a4.744,4.744,0,0,0,4.435.175s4.18-23.7,4.966-29.938c.687-5.441,2-17.4,2-17.4l2.115,17.37a32.336,32.336,0,0,0-1.185,5.369c-.357,3.668,3.2,20.734,3.2,20.734a9.771,9.771,0,0,0,4.385.133s1.257-22.652,1.587-27.068c.554-7.415.213-30.557-1.147-34.95l-19.44,1.086Z" transform="translate(-470.912 -212.95)" fill="#12263f"/>
              <path id="Trazado_194346" data-name="Trazado 194346" d="M477.4,245.347l1.1-6.9s4.67-.968,6.789-2.958a12.086,12.086,0,0,1-5.524,3.672l-1.242,5.312.847,17.089L477.4,245.35Z" transform="translate(-464.905 -226.932)" fill="#37474f"/>
            </g>
            <path id="Trazado_194347" data-name="Trazado 194347" d="M479.6,147.674h0c-1.295.087-1.724.057-2.662.156-1.876.194-2.328,2.935-3.094,4.556a7.456,7.456,0,0,0-.2,5.619l3.037,8.79s-1.424,3.44-3.075,6.686c7.624,4.256,17.146,2.02,19.44-1.086.1-.657-.494-5.809-.854-9.173,1.344-3.368,1.7-5.505,1.132-7.73-1.052-4.135-4.818-7.935-5.9-7.932l-7.818.118Z" transform="translate(-471.587 -125.859)" fill="#f0f0f0"/>
            <g id="Grupo_141529" data-name="Grupo 141529" transform="translate(1.485)">
              <path id="Trazado_194348" data-name="Trazado 194348" d="M472.933,95.533l1.579-.137a1.245,1.245,0,0,1-.471-.471,1.35,1.35,0,0,1,.5-1.792l1.018,1.849A9.194,9.194,0,0,1,484,90.418l.813.042a9.2,9.2,0,0,1,8.7,9.678c-.281,5.243-.589,11.109-.589,11.109l-9.469-.5A9.738,9.738,0,0,1,474.25,100.5l.068-1.386a9.119,9.119,0,0,1,.5-2.529,1.171,1.171,0,0,1-.459.133,1.351,1.351,0,0,1-1.435-1.188Z" transform="translate(-472.925 -90.405)" fill="#0f2771"/>
              <path id="Trazado_194349" data-name="Trazado 194349" d="M493.378,110.691a18.211,18.211,0,0,1-.08,3.015c-.361,4.719-1.955,5.805-2.741,6.1s-2.259.011-3.687-.3v2.791s1.72,2.464,1.522,3.759-2.962,1.454-4.757.084a8.367,8.367,0,0,1-2.525-3.7v-6.523a1.81,1.81,0,0,1-2.578.106,3.4,3.4,0,0,1-.482-4.651c.976-.888,2.992-.513,3.3.8,0,0,3.326-.277,3.747-5.752C488.184,110.448,493.181,107.544,493.378,110.691Z" transform="translate(-474.485 -100.339)" fill="#ffa8a7"/>
              <path id="Trazado_194350" data-name="Trazado 194350" d="M504.735,117.707l-.125,2.339h0a1.593,1.593,0,0,0,1.674-1.507l.141-2.608Z" transform="translate(-497.852 -106.239)" fill="#375a64"/>
              <path id="Trazado_194351" data-name="Trazado 194351" d="M494.188,120.343a.595.595,0,1,1-.592-.623A.606.606,0,0,1,494.188,120.343Z" transform="translate(-481.207 -108.59)" fill="#1a2e35"/>
              <path id="Trazado_194352" data-name="Trazado 194352" d="M488.751,132.38l1.591.6a.835.835,0,0,1-1.082.524A.891.891,0,0,1,488.751,132.38Z" transform="translate(-475.728 -116.443)" fill="#f28f8f"/>
              <path id="Trazado_194353" data-name="Trazado 194353" d="M496.148,113.5l-1.394.448a.7.7,0,0,1,.444-.919A.77.77,0,0,1,496.148,113.5Z" transform="translate(-483.816 -104.418)" fill="#375a64"/>
              <path id="Trazado_194354" data-name="Trazado 194354" d="M480.738,121.023a.595.595,0,1,1-.592-.623A.606.606,0,0,1,480.738,121.023Z" transform="translate(-462.65 -109.011)" fill="#1a2e35"/>
              <path id="Trazado_194355" data-name="Trazado 194355" d="M483.995,120.71l-.095,3.58,1.914-.482Z" transform="translate(-469.377 -109.204)" fill="#f28f8f"/>
              <path id="Trazado_194356" data-name="Trazado 194356" d="M499.568,136.615c-1.507-.281-4.587-1.344-5.008-2.6a3.207,3.207,0,0,0,1.014,1.636,16.592,16.592,0,0,0,3.994,1.917v-.945Z" transform="translate(-487.179 -117.454)" fill="#f28f8f"/>
            </g>
            <path id="Trazado_194357" data-name="Trazado 194357" d="M491.261,182.964c-2.506-.592-2.98-1.538-2.32-4.025a2.268,2.268,0,0,1,.076-.239c.49-1.177,2.445-.478,2.445-.478s-.8-1-1.7-2.27a10.692,10.692,0,0,1-1.42-4.852c-.122-1.477-.361-4.431-.361-4.431a2.8,2.8,0,0,1-1.188-3.3l-3.007-1.849s-.22.152-.566.395a7.644,7.644,0,0,0,.125,4.75l3.037,8.79a49.618,49.618,0,0,0-3.075,6.686,19.7,19.7,0,0,0,16.292,1.078,22.225,22.225,0,0,1-8.342-.254Z" transform="translate(-481.298 -134.519)" fill="#e6e6e6"/>
            <path id="Trazado_194358" data-name="Trazado 194358" d="M475.253,117.387l3.444.182a1.921,1.921,0,0,1,1.959-1.424l.3.015a1.916,1.916,0,0,1,1.709,1.283,1.66,1.66,0,0,1,1.147-.429,1.417,1.417,0,0,1,.976.349,1.919,1.919,0,0,1,1.728-.907l.3.015a1.924,1.924,0,1,1-.205,3.842l-.3-.015a1.926,1.926,0,0,1-1.819-2.024,1.889,1.889,0,0,1,.14-.6,1.058,1.058,0,0,0-.82-.33,1.266,1.266,0,0,0-1.04.463l-.015-.011a1.9,1.9,0,0,1,.019.391A1.926,1.926,0,0,1,480.747,120l-.3-.015a1.926,1.926,0,0,1-1.819-2.024.426.426,0,0,1,.011-.068l-3.079-.163a1.614,1.614,0,0,0-.311-.342Zm11.072,2.586.3.015a1.6,1.6,0,1,0,.171-3.193l-.3-.015a1.6,1.6,0,0,0-.171,3.193Zm-5.855-.311.3.015a1.6,1.6,0,1,0,.171-3.193l-.3-.015a1.6,1.6,0,1,0-.171,3.193Z" transform="translate(-467.424 -106.371)" fill="#1a2e35"/>
          </g>
          <g id="Grupo_141533" data-name="Grupo 141533" transform="translate(16.875 36.114)">
            <g id="Grupo_141530" data-name="Grupo 141530" transform="translate(0 0.235)">
              <path id="Trazado_194359" data-name="Trazado 194359" d="M455.487,186.14l-15.4,4.055-4.237,17.424,14.637-4.252Z" transform="translate(-435.85 -186.14)" fill="#4dd0e1"/>
              <path id="Trazado_194360" data-name="Trazado 194360" d="M455.487,186.14l-15.4,4.055-4.237,17.424,14.637-4.252Z" transform="translate(-435.85 -186.14)" fill="#feca2e"/>
              <path id="Trazado_194361" data-name="Trazado 194361" d="M471.537,224.04c-.1.942-.759,2.035-2.684,2.954s-5.672.406-5.672.406l.52-2.145,7.833-1.215Z" transform="translate(-462.276 -209.65)" opacity="0.2"/>
            </g>
            <g id="Grupo_141531" data-name="Grupo 141531" transform="translate(12.678 12.571)" opacity="0.2">
              <path id="Trazado_194362" data-name="Trazado 194362" d="M446.3,218.63a3.122,3.122,0,0,0,2.836,1.872l.156-.535Z" transform="translate(-446.3 -218.63)"/>
            </g>
            <g id="Grupo_141532" data-name="Grupo 141532" transform="translate(8.433 2.158)" opacity="0.1">
              <path id="Trazado_194363" data-name="Trazado 194363" d="M454.3,192.047s.057-.262.125-.589-.835-.338-2.02-.03l-2.271.589c-1.185.308-2.2.82-2.274,1.143l-.125.588,6.561-1.7Z" transform="translate(-447.73 -191.207)"/>
            </g>
            <path id="Trazado_194364" data-name="Trazado 194364" d="M452.969,186.315c.046-.2-.323-.254-.816-.118l-.9.247s.27-1.272-1.728-.828a3.127,3.127,0,0,0-2.43,1.887l-.961.273c-.532.152-1.01.437-1.071.638l-.114.365,7.932-2.088s.038-.175.084-.376Z" transform="translate(-436.79 -185.522)" fill="#37474f"/>
            <path id="Trazado_194365" data-name="Trazado 194365" d="M452.49,188.857c-.725.175-1.029.273-1.139.771-.125.57-.175.991-.175.991l-3.512.926s.171-.721.224-1.006-.065-.452-.623-.3l-.046-.224,5.5-1.4-.232.243Z" transform="translate(-437.401 -187.438)" fill="#37474f"/>
            <path id="Trazado_194366" data-name="Trazado 194366" d="M453.745,192.2s.057-.262.125-.589-.835-.338-2.02-.03l-2.271.589c-1.185.308-2.2.82-2.274,1.143l-.125.589,6.561-1.7Z" transform="translate(-438.539 -189.141)" fill="#37474f"/>
            <path id="Trazado_194367" data-name="Trazado 194367" d="M442.783,200.308s-.577,1.971-.706,2.438-1.857,1.314-2.988,1.625-2.369.68-1.834,2.263c.494,1.458,2.358,1.792,3.3,1.75a3.5,3.5,0,0,0,2.757-2.407c.653-1.864.3-3.854.558-4.943s-.524-1.374-1.093-.725Z" transform="translate(-424.771 -194.48)" fill="#ffa8a7"/>
          </g>
          <g id="Grupo_141534" data-name="Grupo 141534" transform="translate(0 21.868)">
            <path id="Trazado_194368" data-name="Trazado 194368" d="M468.337,148.18c-2,.125-4.063,1.207-4.374,3.607s-2.255,15.024-1.492,16.444c1.762,3.288,13.388,9.538,14.542,10.069a13.02,13.02,0,0,0,5.361,1.439c1.811.019,4.226-.038,5.445-1.678,1.082-1.454,1.693-4.139-.752-3.675a26.414,26.414,0,0,1-5.6.247l.285-1.169a5.618,5.618,0,0,0-1.864.3c-1.219.361-2.328-.683-4.48-2.016A74.347,74.347,0,0,1,468.4,166.4l1.724-10.54s.057-4.556-1.781-7.685Z" transform="translate(-462.295 -148.112)" fill="#ffa8a7"/>
            <path id="Trazado_194369" data-name="Trazado 194369" d="M516.158,148.069a4.24,4.24,0,0,0-2.244.2c-1.173.448-2.217,1.04-2.7,3.406s-1.45,11-1.45,11a8.86,8.86,0,0,0,6.72.972l1.5-7.84s1.166-5.486-1.823-7.742Z" transform="translate(-509.751 -148.001)" fill="#e1e1e1"/>
          </g>
        </g>
        <g id="Analysis" transform="translate(14.736 43.544)">
          <g id="Grupo_141537" data-name="Grupo 141537" transform="translate(0)">
            <g id="Grupo_141535" data-name="Grupo 141535" transform="translate(91.606)">
              <path id="Trazado_194370" data-name="Trazado 194370" d="M189.079,212.151,140.35,184.02v6.751l48.729,28.134Z" transform="translate(-140.35 -182.896)" fill="#375a64"/>
              <path id="Trazado_194371" data-name="Trazado 194371" d="M190.315,218.793v2.248L145.49,195.161V192.91Z" transform="translate(-143.538 -188.411)" fill="#1a2e35"/>
              <path id="Trazado_194372" data-name="Trazado 194372" d="M183.949,210.314l1.948-1.124L137.172,181.06l-1.952,1.124Z" transform="translate(-135.22 -181.06)" fill="#37474f"/>
              <path id="Trazado_194373" data-name="Trazado 194373" d="M137.168,255.15l-1.948,1.124v6.755l1.948-1.128Z" transform="translate(-86.491 -227.019)" fill="#1a2e35"/>
            </g>
            <g id="Grupo_141536" data-name="Grupo 141536" transform="translate(0 5.627)">
              <path id="Trazado_194374" data-name="Trazado 194374" d="M397.01,487.527l42.885,24.74v-1.1l-42.878-24.74Z" transform="translate(-397.01 -376.113)" fill="#37474f"/>
              <path id="Trazado_194375" data-name="Trazado 194375" d="M145.508,239.661l9.447,5.452,5.805,3.349c.186.095.368.2.547.315A7.7,7.7,0,0,1,165,255.4v27.144a7.692,7.692,0,0,0,3.117,6.227,7.867,7.867,0,0,0,4.7,1.58,7.722,7.722,0,0,0,3.88-1.056,23.39,23.39,0,0,0,11.694-20.252V240.888a23.381,23.381,0,0,1,11.69-20.252L157.2,195.88h0a23.4,23.4,0,0,0-11.7,20.264v12.264c0,3.508,0,11.258,0,11.258Z" transform="translate(-61.696 -195.88)" fill="#f5f5f5"/>
              <path id="Trazado_194376" data-name="Trazado 194376" d="M170.854,356.771a23.374,23.374,0,0,0,11.694-20.248V309.364a23.286,23.286,0,0,1,1.841-9.082,24.507,24.507,0,0,1,1.295-2.608,23.379,23.379,0,0,1,8.558-8.554h0a7.792,7.792,0,0,1,11.687,6.755v2.768l0-2.772v27.136a7.8,7.8,0,0,0,11.694,6.762,23.39,23.39,0,0,0,11.694-20.252V281.362a23.381,23.381,0,0,1,11.69-20.252v1.124a22.48,22.48,0,0,0-10.734,19.128v28.153A24.413,24.413,0,0,1,218.105,330.6a8.663,8.663,0,0,1-8.755,0c-.167-.095-.33-.2-.494-.308l-.015-.011a8.657,8.657,0,0,1-3.869-7.263V295.874a6.84,6.84,0,0,0-10.259-5.919A22.479,22.479,0,0,0,183.5,309.375v27.159a24.422,24.422,0,0,1-12.173,21.084L145.51,372.513v-1.1l25.332-14.633Z" transform="translate(-102.636 -236.343)" fill="#375a64"/>
              <path id="Trazado_194377" data-name="Trazado 194377" d="M249.05,350.271l42.878,24.74,25.332-14.629a23.374,23.374,0,0,0,11.694-20.248V312.975a23.287,23.287,0,0,1,1.841-9.082,24.508,24.508,0,0,1,1.295-2.608,23.379,23.379,0,0,1,8.558-8.554,7.7,7.7,0,0,1,7.457-.186L342.3,289.2l-11.679-6.743-25-14.432-.061-.038a7.718,7.718,0,0,0-7.784,0,23.374,23.374,0,0,0-11.694,20.252v27.155a23.4,23.4,0,0,1-11.694,20.252l-25.332,14.629Z" transform="translate(-249.042 -239.954)" fill="#fafafa"/>
              <path id="Trazado_194378" data-name="Trazado 194378" d="M228.87,354.954a22.479,22.479,0,0,1,11.216-19.421,6.836,6.836,0,0,1,10.255,5.919V368.6a8.664,8.664,0,0,0,3.873,7.263l.015.011c.163.11.327.213.494.308l-25.849-14.925v-6.3Z" transform="translate(-147.998 -281.934)" fill="#e1e1e1"/>
              <path id="Trazado_194379" data-name="Trazado 194379" d="M228.87,354.954a22.479,22.479,0,0,1,11.216-19.421,6.836,6.836,0,0,1,10.255,5.919V368.6a8.664,8.664,0,0,0,3.873,7.263l.015.011c.163.11.327.213.494.308l-25.849-14.925v-6.3Z" transform="translate(-147.998 -281.934)" opacity="0.15"/>
            </g>
          </g>
          <g id="Grupo_141548" data-name="Grupo 141548" transform="translate(83.804 5.627)" clip-path="url(#clip-path)">
            <g id="Grupo_141547" data-name="Grupo 141547" transform="translate(-5.589 4.216)">
              <path id="Trazado_194380" data-name="Trazado 194380" d="M199.289,227.656a3.336,3.336,0,0,1-3.641.273l-30.6-17.667c-1.147-.661-1.42-1.9-.52-2.677a3.548,3.548,0,0,1,3.766-.125l30.614,17.674c1.147.661,1.283,1.747.38,2.517Z" transform="translate(-146.737 -206.984)" fill="#feca2e"/>
              <path id="Trazado_194381" data-name="Trazado 194381" d="M244.264,229.237a.342.342,0,0,0,.3-.171.337.337,0,0,0-.125-.463l-14.306-8.258a.339.339,0,0,0-.338.589l14.306,8.258a.339.339,0,0,0,.171.046Z" transform="translate(-216.38 -215.244)" opacity="0.4"/>
              <path id="Trazado_194382" data-name="Trazado 194382" d="M247.174,234.087a.342.342,0,0,0,.3-.171.337.337,0,0,0-.125-.463l-14.306-8.258a.339.339,0,0,0-.338.589l14.306,8.258a.338.338,0,0,0,.171.046Z" transform="translate(-220.395 -218.252)" opacity="0.4"/>
              <path id="Trazado_194383" data-name="Trazado 194383" d="M249.614,239.137a.342.342,0,0,0,.3-.171.337.337,0,0,0-.125-.463l-14.306-8.258a.339.339,0,0,0-.338.589l14.306,8.258a.339.339,0,0,0,.171.046Z" transform="translate(-223.761 -221.385)" opacity="0.4"/>
              <path id="Trazado_194384" data-name="Trazado 194384" d="M251.574,244.387a.342.342,0,0,0,.3-.171.337.337,0,0,0-.125-.463l-14.306-8.258a.339.339,0,0,0-.338.588l14.306,8.258a.339.339,0,0,0,.171.046Z" transform="translate(-226.466 -224.641)" opacity="0.4"/>
              <path id="Trazado_194385" data-name="Trazado 194385" d="M253.014,249.537a.342.342,0,0,0,.3-.171.337.337,0,0,0-.125-.463l-14.306-8.258a.339.339,0,0,0-.338.589l14.307,8.258a.339.339,0,0,0,.171.046Z" transform="translate(-228.452 -227.836)" opacity="0.4"/>
              <path id="Trazado_194386" data-name="Trazado 194386" d="M253.974,255.077a.342.342,0,0,0,.3-.171.337.337,0,0,0-.125-.463l-14.306-8.258a.339.339,0,0,0-.338.588l14.306,8.258a.339.339,0,0,0,.171.046Z" transform="translate(-229.777 -231.273)" opacity="0.4"/>
              <path id="Trazado_194387" data-name="Trazado 194387" d="M254.5,260.987a.342.342,0,0,0,.3-.171.337.337,0,0,0-.125-.463l-14.306-8.258a.339.339,0,1,0-.338.588l14.306,8.258a.339.339,0,0,0,.171.046Z" transform="translate(-230.508 -234.939)" opacity="0.4"/>
              <g id="Grupo_141538" data-name="Grupo 141538" transform="translate(9.444 21.516)">
                <path id="Trazado_194388" data-name="Trazado 194388" d="M221.352,284.174a.241.241,0,0,0,.121-.448l-34.711-20.04a.239.239,0,0,0-.239.414l34.711,20.04a.236.236,0,0,0,.122.034Z" transform="translate(-186.403 -263.653)" opacity="0.4"/>
                <path id="Trazado_194389" data-name="Trazado 194389" d="M221.352,289.817a.241.241,0,0,0,.121-.448l-34.711-20.043a.239.239,0,1,0-.239.414l34.711,20.043a.236.236,0,0,0,.122.034Z" transform="translate(-186.403 -267.152)" opacity="0.4"/>
                <path id="Trazado_194390" data-name="Trazado 194390" d="M221.352,295.464a.24.24,0,0,0,.121-.448l-34.711-20.04a.239.239,0,1,0-.239.414l34.711,20.04a.236.236,0,0,0,.122.034Z" transform="translate(-186.403 -270.656)" opacity="0.4"/>
                <path id="Trazado_194391" data-name="Trazado 194391" d="M221.352,301.1a.241.241,0,0,0,.121-.448l-34.711-20.04a.239.239,0,1,0-.239.414l34.711,20.04a.236.236,0,0,0,.122.034Z" transform="translate(-186.403 -274.155)" opacity="0.4"/>
              </g>
              <g id="Grupo_141539" data-name="Grupo 141539" transform="translate(25.778 19.975)">
                <path id="Trazado_194392" data-name="Trazado 194392" d="M205.018,291.376a.241.241,0,0,0,.122-.448l-18.377-10.612a.239.239,0,0,0-.239.414L204.9,291.342a.236.236,0,0,0,.121.034Z" transform="translate(-186.403 -272.428)" opacity="0.4"/>
                <path id="Trazado_194393" data-name="Trazado 194393" d="M190.06,274.666a22.944,22.944,0,0,0-2.5,9.1.347.347,0,0,1-.562.3l-1.021-.588a1.054,1.054,0,0,1-.482-.9,24.426,24.426,0,0,1,.862-4.89,26.391,26.391,0,0,1,1.644-4.2.58.58,0,0,1,.809-.224l1.006.581a.641.641,0,0,1,.247.835Z" transform="translate(-170.929 -268.019)" fill="#feca2e"/>
                <path id="Trazado_194394" data-name="Trazado 194394" d="M199.051,263.58a24.26,24.26,0,0,0-2.46,5.243,22.75,22.75,0,0,0-1.1,5.737.344.344,0,0,1-.558.3l-1.021-.589a1.057,1.057,0,0,1-.486-.9,24.612,24.612,0,0,1,1.116-5.726,23.512,23.512,0,0,1,2.441-5.209.644.644,0,0,1,.85-.209l1.018.566a.544.544,0,0,1,.19.79Z" transform="translate(-182.95 -261.178)" fill="#feca2e"/>
                <path id="Trazado_194395" data-name="Trazado 194395" d="M212.94,271.084l1,.581a.775.775,0,0,1,.334.87,23.4,23.4,0,0,0-.911,5.167.344.344,0,0,1-.558.3l-1.021-.589a1.058,1.058,0,0,1-.486-.9,24.293,24.293,0,0,1,.942-5.152.454.454,0,0,1,.695-.273Z" transform="translate(-204.903 -266.677)" fill="#feca2e"/>
                <path id="Trazado_194396" data-name="Trazado 194396" d="M221.776,259.927a.515.515,0,0,1,.752-.258l1.01.577a.7.7,0,0,1,.292.85c-.182.459-.361.934-.528,1.428a22.746,22.746,0,0,0-1.1,5.737.344.344,0,0,1-.558.3l-1.021-.589a1.058,1.058,0,0,1-.486-.9,24.614,24.614,0,0,1,1.116-5.726c.159-.486.334-.957.516-1.42Z" transform="translate(-217.829 -259.594)" fill="#feca2e"/>
                <path id="Trazado_194397" data-name="Trazado 194397" d="M173.073,280.339a.165.165,0,0,1,.232-.061l.429.247c.095-.589.205-1.173.338-1.747l-.577-.334a.168.168,0,0,1-.061-.232.165.165,0,0,1,.232-.061l.494.285c.144-.577.3-1.15.49-1.712l-.551-.319a.168.168,0,0,1-.061-.232.165.165,0,0,1,.232-.061l.494.285c.19-.547.395-1.086.623-1.614a.449.449,0,0,1,.019-.042l-.547-.315a.168.168,0,0,1-.061-.232.165.165,0,0,1,.232-.061l.516.3q.359-.8.79-1.595l-.543-.315a.168.168,0,0,1-.061-.232.165.165,0,0,1,.232-.061l.539.311q.433-.763.934-1.515l-.611-.353a.168.168,0,0,1-.061-.232.165.165,0,0,1,.232-.061l.634.365q.541-.786,1.154-1.557a.17.17,0,0,1,.266.213c-.4.5-.771,1-1.124,1.511l.585.338a.169.169,0,0,1-.087.315.163.163,0,0,1-.084-.023l-.6-.349c-.334.5-.649,1.006-.938,1.515l.68.391a.169.169,0,0,1-.087.315.163.163,0,0,1-.084-.023l-.672-.387q-.433.792-.786,1.595l.7.406a.169.169,0,0,1-.087.315.162.162,0,0,1-.084-.023l-.672-.387v.008c-.235.543-.444,1.093-.634,1.655l.718.414a.169.169,0,0,1-.087.315.163.163,0,0,1-.084-.023l-.664-.383c-.182.562-.342,1.135-.482,1.716l.71.41a.169.169,0,0,1-.087.315.162.162,0,0,1-.084-.023l-.626-.361c-.133.577-.239,1.162-.33,1.754l.771.444a.169.169,0,0,1-.087.315.163.163,0,0,1-.083-.023l-.657-.38q-.148,1.076-.205,2.183a.168.168,0,0,1-.171.16h-.008a.165.165,0,0,1-.159-.178c.042-.794.122-1.576.232-2.346l-.539-.311a.168.168,0,0,1-.061-.232Z" transform="translate(-155.165 -265.506)" opacity="0.4"/>
              </g>
              <g id="Grupo_141545" data-name="Grupo 141545" transform="translate(8.908 38.411)">
                <g id="Grupo_141540" data-name="Grupo 141540" transform="translate(0.554 3.428)" opacity="0.15">
                  <path id="Trazado_194398" data-name="Trazado 194398" d="M225.259,343.836a27.959,27.959,0,0,0,.156-3.865c-.14-.494-2.21-7.6-6.018-9.815a2.6,2.6,0,0,0-.752-.315,1.316,1.316,0,0,0-.311-.038c-1.01,0-1.462,1.4-1.9,2.764a14.1,14.1,0,0,1-.6,1.633,1.829,1.829,0,0,1-1.542,1.272,2.142,2.142,0,0,1-1.044-.323c-1.83-1.044-2.358-3.869-2.916-6.861a33.792,33.792,0,0,0-.9-3.96,5.591,5.591,0,0,0-2.267-3.4,1.777,1.777,0,0,0-.847-.277c-1.063,0-1.462,1.891-1.853,3.717a15.362,15.362,0,0,1-.771,2.8c-.387.881-.9,1.31-1.553,1.31a2.223,2.223,0,0,1-1.1-.345c-2.248-1.3-2.927-3.5-3.584-5.623-.558-1.807-1.086-3.512-2.567-4.374a2.2,2.2,0,0,0-1.1-.346,1.411,1.411,0,0,0-.486.087,9.17,9.17,0,0,0-.072,1.018l-.023,4.306c-.042.824-.095,1.469-.171,2.027l32.224,18.6Z" transform="translate(-192.773 -317.558)" fill="#4dd0e1"/>
                  <path id="Trazado_194399" data-name="Trazado 194399" d="M192.4,324.982c.095-.642.152-1.371.194-2.153l.023-4.306a9.842,9.842,0,0,1,.091-1.185,1.607,1.607,0,0,1,.706-.159h0a2.419,2.419,0,0,1,1.223.38c3.307,1.925,2.043,7.624,6.151,9.993a1.969,1.969,0,0,0,.976.311c.611,0,1.025-.463,1.337-1.166.968-2.179.942-6.663,2.844-6.663a1.986,1.986,0,0,1,.968.308,5.93,5.93,0,0,1,2.377,3.535c1.223,3.839,1.15,9.23,3.706,10.684a1.908,1.908,0,0,0,.926.292c.607,0,1.006-.467,1.325-1.135.79-1.655,1.067-4.533,2.719-4.533a1.753,1.753,0,0,1,.361.042,2.849,2.849,0,0,1,.82.342c4.059,2.362,6.136,9.986,6.136,9.986a27.593,27.593,0,0,1-.2,4.29l-.471-.27c.023-.133.046-.25.072-.513a28.063,28.063,0,0,0,.118-3.436c-.194-.672-2.229-7.506-5.9-9.644a2.325,2.325,0,0,0-.683-.285,1.29,1.29,0,0,0-.258-.03c-.835,0-1.261,1.321-1.671,2.6a14.435,14.435,0,0,1-.611,1.663c-.167.349-.668,1.409-1.758,1.409a2.33,2.33,0,0,1-1.162-.353c-1.929-1.1-2.464-3.975-3.03-7.024a33.764,33.764,0,0,0-.892-3.933,5.386,5.386,0,0,0-2.157-3.265,1.531,1.531,0,0,0-.729-.247c-.866,0-1.264,1.876-1.617,3.527a15.417,15.417,0,0,1-.786,2.848c-.425.964-1.021,1.454-1.773,1.454a2.437,2.437,0,0,1-1.219-.376c-2.327-1.344-3.053-3.691-3.694-5.76-.543-1.758-1.059-3.421-2.46-4.237a1.989,1.989,0,0,0-.98-.315h0a1.244,1.244,0,0,0-.266.03c-.053.486-.053.832-.053.835l-.023,4.325c-.038.74-.084,1.348-.152,1.876a3.618,3.618,0,0,1-.091.5l-.425-.247" transform="translate(-192.404 -317.18)"/>
                </g>
                <g id="Grupo_141541" data-name="Grupo 141541" transform="translate(0.557 0.182)" opacity="0.4">
                  <path id="Trazado_194400" data-name="Trazado 194400" d="M225.29,332.084v2.172a27.485,27.485,0,0,1-.2,4.29l-32.675-18.866c.095-.642.152-1.371.194-2.157l.023-4.3s0-6.428,4.085-4.07c4.294,2.479,3.079,10.346,6.124,12.108,3.075,1.773,2.043-5.247,6.124-2.889s2.043,7.605,6.124,9.963,2.043-9.534,6.124-7.176,4.085,8.213,4.07,10.927Z" transform="translate(-192.417 -308.631)" fill="#bddcf6"/>
                </g>
                <path id="Trazado_194401" data-name="Trazado 194401" d="M222.988,363.076a.165.165,0,0,0,.148-.087.169.169,0,0,0-.065-.232l-34.756-19.9a.17.17,0,0,0-.167.3l34.756,19.9a.173.173,0,0,0,.084.023Z" transform="translate(-188.062 -329.664)" opacity="0.4"/>
                <g id="Grupo_141542" data-name="Grupo 141542" transform="translate(28.979 13.167)">
                  <path id="Trazado_194402" data-name="Trazado 194402" d="M202.891,343.513a.17.17,0,0,0,.171-.171V343a.171.171,0,0,0-.342,0v.342A.17.17,0,0,0,202.891,343.513Z" transform="translate(-202.51 -342.83)" fill="#fff"/>
                  <path id="Trazado_194403" data-name="Trazado 194403" d="M202.891,358.236a.176.176,0,0,0,.171-.156c.019-.216.038-.437.049-.657a.17.17,0,0,0-.159-.182.16.16,0,0,0-.182.16c-.015.216-.03.433-.049.645a.173.173,0,0,0,.152.186h.015Zm.08-1.3a.174.174,0,0,0,.171-.167c0-.19,0-.406.008-.657a.169.169,0,0,0-.167-.171.155.155,0,0,0-.171.167c0,.247,0,.463-.008.653a.167.167,0,0,0,.167.171h0Zm.011-1.306a.17.17,0,0,0,.171-.171V354.8a.167.167,0,0,0-.167-.171h0a.17.17,0,0,0-.171.171v.653a.167.167,0,0,0,.167.171Zm.008-1.306a.17.17,0,0,0,.171-.171V353.5a.169.169,0,0,0-.167-.171h0a.17.17,0,0,0-.171.171v.653a.169.169,0,0,0,.167.171Zm0-1.306a.17.17,0,0,0,.171-.171v-.653a.171.171,0,1,0-.342,0v.653A.17.17,0,0,0,202.99,353.015Zm0-1.306a.17.17,0,0,0,.171-.171v-.653a.171.171,0,1,0-.342,0v.653A.17.17,0,0,0,202.99,351.709Zm0-1.306a.17.17,0,0,0,.171-.171v-.653a.171.171,0,1,0-.342,0v.653A.17.17,0,0,0,202.99,350.4Zm0-1.306h0a.17.17,0,0,0,.171-.171v-.653a.171.171,0,0,0-.342,0v.653A.17.17,0,0,0,202.99,349.1Zm0-1.306h0a.17.17,0,0,0,.171-.171v-.653a.171.171,0,1,0-.342,0v.653A.17.17,0,0,0,202.99,347.791Zm0-1.306a.17.17,0,0,0,.171-.171v-.653a.17.17,0,0,0-.171-.171h0a.17.17,0,0,0-.171.171v.653A.17.17,0,0,0,202.99,346.485Z" transform="translate(-202.609 -344.48)" fill="#fff"/>
                  <path id="Trazado_194404" data-name="Trazado 194404" d="M203.339,380.554a.168.168,0,0,0,.167-.148c.015-.114.03-.228.042-.338a.17.17,0,0,0-.338-.042c-.011.11-.027.224-.042.334a.17.17,0,0,0,.144.19h.023Z" transform="translate(-203.167 -365.811)" fill="#fff"/>
                </g>
                <g id="Grupo_141543" data-name="Grupo 141543" transform="translate(4.471 0.527)">
                  <path id="Trazado_194405" data-name="Trazado 194405" d="M267.441,310.223a.17.17,0,0,0,.171-.171v-.342a.17.17,0,0,0-.171-.171h0a.17.17,0,0,0-.171.171v.338a.17.17,0,0,0,.171.171Z" transform="translate(-267.06 -309.54)" fill="#fff"/>
                  <path id="Trazado_194406" data-name="Trazado 194406" d="M267.451,324.933a.176.176,0,0,0,.171-.156c.019-.216.038-.437.049-.657a.17.17,0,0,0-.159-.182.166.166,0,0,0-.182.159c-.015.216-.03.433-.049.645a.173.173,0,0,0,.152.186h.015Zm.08-1.3a.175.175,0,0,0,.171-.167c0-.19,0-.406.007-.657a.169.169,0,0,0-.167-.171h0a.169.169,0,0,0-.171.167c0,.247,0,.463-.008.653a.167.167,0,0,0,.167.171h0Zm.011-1.31a.17.17,0,0,0,.171-.171V321.5a.167.167,0,0,0-.167-.171h0a.17.17,0,0,0-.171.171v.653a.167.167,0,0,0,.167.171Zm0-1.306a.17.17,0,0,0,.171-.171v-.653a.169.169,0,0,0-.167-.171h0a.17.17,0,0,0-.171.171v.653a.169.169,0,0,0,.167.171Zm0-1.306a.17.17,0,0,0,.171-.171v-.653a.171.171,0,1,0-.342,0v.653A.17.17,0,0,0,267.546,319.709Zm0-1.306a.17.17,0,0,0,.171-.171v-.653a.171.171,0,1,0-.342,0v.653A.17.17,0,0,0,267.546,318.4Zm0-1.306a.17.17,0,0,0,.171-.171v-.653a.171.171,0,1,0-.342,0v.653A.17.17,0,0,0,267.546,317.1Zm0-1.31h0a.17.17,0,0,0,.171-.171v-.653a.171.171,0,1,0-.342,0v.653A.17.17,0,0,0,267.546,315.787Zm0-1.306h0a.17.17,0,0,0,.171-.171v-.653a.171.171,0,1,0-.342,0v.653A.17.17,0,0,0,267.546,314.481Zm0-1.306h0a.17.17,0,0,0,.171-.171v-.653a.171.171,0,1,0-.342,0V313A.17.17,0,0,0,267.546,313.175Z" transform="translate(-267.169 -311.178)" fill="#fff"/>
                  <path id="Trazado_194407" data-name="Trazado 194407" d="M267.889,347.262a.168.168,0,0,0,.167-.148c.015-.114.03-.224.042-.338a.171.171,0,0,0-.148-.19.166.166,0,0,0-.19.148c-.015.11-.027.224-.042.334a.17.17,0,0,0,.148.19h.023Z" transform="translate(-267.717 -332.519)" fill="#fff"/>
                </g>
                <g id="Grupo_141544" data-name="Grupo 141544" transform="translate(16.727 10.335)">
                  <path id="Trazado_194408" data-name="Trazado 194408" d="M235.161,336.053a.17.17,0,0,0,.171-.171v-.342a.171.171,0,0,0-.342,0v.342A.17.17,0,0,0,235.161,336.053Z" transform="translate(-234.78 -335.37)" fill="#fff"/>
                  <path id="Trazado_194409" data-name="Trazado 194409" d="M235.171,346.57a.172.172,0,0,0,.171-.156c.019-.213.038-.425.049-.642a.17.17,0,0,0-.159-.182.162.162,0,0,0-.182.159c-.015.213-.03.421-.049.63a.171.171,0,0,0,.152.186h.015Zm.08-1.272a.175.175,0,0,0,.171-.167l.008-.638a.169.169,0,0,0-.167-.171h0a.169.169,0,0,0-.171.167l-.008.638a.169.169,0,0,0,.167.171Zm.011-1.276a.17.17,0,0,0,.171-.171v-.638a.167.167,0,0,0-.167-.171h0a.17.17,0,0,0-.171.171v.638a.167.167,0,0,0,.167.171Zm0-1.276a.17.17,0,0,0,.171-.171v-.638a.169.169,0,0,0-.167-.171h0a.17.17,0,0,0-.171.171v.638a.169.169,0,0,0,.167.171Zm0-1.276a.17.17,0,0,0,.171-.171v-.638a.171.171,0,1,0-.342,0v.638A.17.17,0,0,0,235.266,341.471Zm0-1.276h0a.17.17,0,0,0,.171-.171v-.638a.171.171,0,1,0-.342,0v.638A.17.17,0,0,0,235.266,340.2Zm0-1.276h0a.17.17,0,0,0,.171-.171v-.638a.171.171,0,1,0-.342,0v.638A.17.17,0,0,0,235.266,338.92Z" transform="translate(-234.889 -336.964)" fill="#fff"/>
                  <path id="Trazado_194410" data-name="Trazado 194410" d="M235.609,362.122a.168.168,0,0,0,.167-.148c.015-.114.03-.224.042-.338a.17.17,0,0,0-.338-.042c-.015.11-.027.224-.042.334a.17.17,0,0,0,.148.19h.023Z" transform="translate(-235.437 -351.544)" fill="#fff"/>
                </g>
                <path id="Trazado_194411" data-name="Trazado 194411" d="M202.2,339.7c-.323-.186-.588-.065-.588.277a1.242,1.242,0,0,0,.588.957c.323.186.589.065.589-.277A1.242,1.242,0,0,0,202.2,339.7Z" transform="translate(-172.834 -327.666)" opacity="0.4"/>
                <path id="Trazado_194412" data-name="Trazado 194412" d="M234.478,332.238c-.323-.186-.589-.065-.589.277a1.242,1.242,0,0,0,.589.957c.323.186.589.065.589-.277A1.242,1.242,0,0,0,234.478,332.238Z" transform="translate(-217.371 -323.038)" opacity="0.4"/>
                <path id="Trazado_194413" data-name="Trazado 194413" d="M266.749,308.238c-.323-.186-.588-.065-.588.277a1.242,1.242,0,0,0,.588.957c.323.186.589.065.589-.277A1.242,1.242,0,0,0,266.749,308.238Z" transform="translate(-261.893 -308.151)" opacity="0.4"/>
                <path id="Trazado_194414" data-name="Trazado 194414" d="M184.826,343.415a.168.168,0,0,1-.061-.232.165.165,0,0,1,.232-.061l.444.258v-1.754l-.615-.353a.168.168,0,0,1-.061-.232.165.165,0,0,1,.232-.061l.444.258v-1.849a.171.171,0,1,1,.342,0v2.043l.615.357a.169.169,0,0,1-.087.315.162.162,0,0,1-.084-.023l-.444-.258v1.754l.615.357a.169.169,0,0,1-.087.315.162.162,0,0,1-.084-.023l-.448-.258v1.754l.615.357a.169.169,0,0,1-.087.315.163.163,0,0,1-.084-.023l-.448-.258v1.754l.619.357a.169.169,0,0,1-.087.315.163.163,0,0,1-.084-.023l-.448-.258v1.754l.619.357a.169.169,0,0,1-.087.315.163.163,0,0,1-.084-.023l-.448-.258v1.754l.619.357a.169.169,0,0,1-.087.315.163.163,0,0,1-.084-.023l-.448-.258V354.3l.619.357a.169.169,0,0,1-.087.315.162.162,0,0,1-.084-.023l-.444-.258c.011.585,0,1.166-.019,1.743l.634.368a.169.169,0,0,1-.087.315.162.162,0,0,1-.084-.023l-.486-.281c-.038.638-.091,1.272-.171,1.9a.168.168,0,0,1-.167.148h-.023a.17.17,0,0,1-.148-.19c.087-.672.144-1.355.178-2.043l-.585-.338a.168.168,0,0,1-.061-.232.165.165,0,0,1,.232-.061l.429.247c.023-.581.027-1.162.011-1.747l-.611-.353a.168.168,0,0,1-.061-.232.165.165,0,0,1,.232-.061l.44.254v-1.754l-.611-.353a.168.168,0,0,1-.061-.232.165.165,0,0,1,.232-.061l.444.254v-1.754l-.611-.353a.168.168,0,0,1-.061-.232.165.165,0,0,1,.232-.061l.444.254v-1.754l-.611-.353a.168.168,0,0,1-.061-.232.165.165,0,0,1,.232-.061l.444.254v-1.754l-.615-.353a.168.168,0,0,1-.061-.232.165.165,0,0,1,.232-.061l.444.254v-1.754l-.615-.353Z" transform="translate(-150.123 -327.424)" opacity="0.4"/>
              </g>
              <path id="Trazado_194415" data-name="Trazado 194415" d="M205.542,372.361l32.645,18.847a3.18,3.18,0,0,0,3.634-.262,1.769,1.769,0,0,0-.661-2.8L208.522,369.3a2.982,2.982,0,0,0-3.5.395,1.608,1.608,0,0,0,.516,2.658Z" transform="translate(-204.521 -307.433)" fill="#feca2e"/>
              <g id="Grupo_141546" data-name="Grupo 141546" transform="translate(3.429 52.384)">
                <path id="Trazado_194416" data-name="Trazado 194416" d="M226.473,366.666a.241.241,0,0,0,.122-.448l-36.772-21.232a.239.239,0,1,0-.239.414l36.772,21.232a.236.236,0,0,0,.121.034Z" transform="translate(-186.672 -344.953)" opacity="0.4"/>
                <path id="Trazado_194417" data-name="Trazado 194417" d="M228.457,371.9a.241.241,0,0,0,.122-.448L191.8,350.216a.239.239,0,0,0-.239.414l36.776,21.236a.236.236,0,0,0,.122.034Z" transform="translate(-189.408 -348.197)" opacity="0.4"/>
                <path id="Trazado_194418" data-name="Trazado 194418" d="M230.9,376.92a.241.241,0,0,0,.121-.448l-36.78-21.236a.239.239,0,0,0-.239.414l36.78,21.236a.235.235,0,0,0,.121.034Z" transform="translate(-192.778 -351.311)" opacity="0.4"/>
                <path id="Trazado_194419" data-name="Trazado 194419" d="M233.8,381.683a.241.241,0,0,0,.122-.448L197.132,360a.239.239,0,1,0-.239.414l36.788,21.239a.235.235,0,0,0,.121.034Z" transform="translate(-196.773 -354.264)" opacity="0.4"/>
              </g>
            </g>
          </g>
          <g id="Grupo_141571" data-name="Grupo 141571" transform="translate(7.487 36.204)">
            <path id="Trazado_194421" data-name="Trazado 194421" d="M314.3,294.69l-30.257-17.465a5.444,5.444,0,0,0-4.006-.642c-1.029.414-.832,1.492,1.112,1.355l30.61,17.67a1.937,1.937,0,0,0,2.9,1.037C315.574,296.152,315.449,295.355,314.3,294.69Z" transform="translate(-235.221 -276.414)" fill="#0f2771"/>
            <path id="Trazado_194422" data-name="Trazado 194422" d="M325.679,303.525a.241.241,0,0,0,.121-.448l-34.878-20.131a.239.239,0,0,0-.239.414l34.878,20.131a.235.235,0,0,0,.121.034Z" transform="translate(-250.106 -280.445)" opacity="0.4"/>
            <path id="Trazado_194423" data-name="Trazado 194423" d="M329.542,307.585a.241.241,0,0,0,.121-.448l-34.931-20.161a.239.239,0,0,0-.239.414l34.931,20.161a.235.235,0,0,0,.121.034Z" transform="translate(-255.416 -282.945)" opacity="0.4"/>
            <path id="Trazado_194424" data-name="Trazado 194424" d="M298.227,361.169h0A.17.17,0,0,0,298.4,361l-.008-1.849q0-1.393.034-2.335l.008-.156a22.594,22.594,0,0,1,1.242-6.307,17.609,17.609,0,0,1,3.144-5.494.166.166,0,0,0-.027-.239.169.169,0,0,0-.239.027,17.958,17.958,0,0,0-3.2,5.6,22.813,22.813,0,0,0-1.261,6.4l-.008.159q-.042.949-.034,2.35l.008,1.849a.17.17,0,0,0,.171.171Z" transform="translate(-229.884 -318.699)" opacity="0.4"/>
            <path id="Trazado_194425" data-name="Trazado 194425" d="M322.107,334.617c.156-.273.323-.539.5-.8a.539.539,0,0,0-.175-.79l-13.327-7.692a.634.634,0,0,0-.85.2c-.16.262-.311.539-.459.828a.644.644,0,0,0,.254.839l13.255,7.651a.581.581,0,0,0,.8-.228Z" transform="translate(-253.414 -306.705)" fill="#0f2771"/>
            <path id="Trazado_194426" data-name="Trazado 194426" d="M345.619,326.655c-.1.308-.19.608-.273.908a.435.435,0,0,1-.672.281l-31.62-18.251a.826.826,0,0,1-.368-.881c.087-.315.178-.619.27-.911a.471.471,0,0,1,.71-.27l31.624,18.255a.766.766,0,0,1,.326.869Z" transform="translate(-278.225 -295.67)" fill="#4dd0e1"/>
            <path id="Trazado_194427" data-name="Trazado 194427" d="M345.619,326.655c-.1.308-.19.608-.273.908a.435.435,0,0,1-.672.281l-31.62-18.251a.826.826,0,0,1-.368-.881c.087-.315.178-.619.27-.911a.471.471,0,0,1,.71-.27l31.624,18.255a.766.766,0,0,1,.326.869Z" transform="translate(-278.225 -295.67)" fill="#afafaf"/>
            <path id="Trazado_194428" data-name="Trazado 194428" d="M337.718,347.329c-.042.338-.076.664-.1.983a.344.344,0,0,1-.558.3L315.636,336.25a1.042,1.042,0,0,1-.478-.9q.04-.49.1-.98a.374.374,0,0,1,.6-.3l21.414,12.362a.968.968,0,0,1,.44.892Z" transform="translate(-271.243 -312.138)" fill="#afafaf"/>
            <path id="Trazado_194429" data-name="Trazado 194429" d="M325.83,370.366v.964c0,.33-.232.467-.52.3l-9.169-5.293a1.149,1.149,0,0,1-.52-.9v-.964c0-.33.232-.467.52-.3l9.169,5.293A1.148,1.148,0,0,1,325.83,370.366Z" transform="translate(-259.529 -330.808)" fill="#4dd0e1"/>
            <path id="Trazado_194430" data-name="Trazado 194430" d="M325.83,370.366v.964c0,.33-.232.467-.52.3l-9.169-5.293a1.149,1.149,0,0,1-.52-.9v-.964c0-.33.232-.467.52-.3l9.169,5.293A1.148,1.148,0,0,1,325.83,370.366Z" transform="translate(-259.529 -330.808)" fill="#727997"/>
            <path id="Trazado_194431" data-name="Trazado 194431" d="M314.828,340.475a.17.17,0,0,1,.171.171v.824l2.445,1.412v-.619a.171.171,0,1,1,.342,0v.813l2.445,1.412v-.608a.171.171,0,1,1,.342,0v.8l2.445,1.412v-.6a.171.171,0,1,1,.342,0v.79L325.8,347.7v-.585a.171.171,0,1,1,.342,0v.782l2.445,1.413v-.573a.171.171,0,0,1,.342,0v.771l2.445,1.412v-.562a.171.171,0,1,1,.342,0v.759l2.445,1.412v-.551a.171.171,0,0,1,.342,0v.748l2.445,1.412V353.6a.171.171,0,0,1,.342,0v.737l2.445,1.412v-.528a.171.171,0,0,1,.342,0v.725l2.445,1.412v-.516a.171.171,0,1,1,.342,0v.714l2.445,1.412v-.509a.171.171,0,1,1,.342,0v.7l2.122,1.223a.169.169,0,0,1-.087.315.162.162,0,0,1-.083-.023l-1.952-1.128v.691a.171.171,0,1,1-.342,0v-.888l-2.445-1.412v.68a.171.171,0,0,1-.342,0v-.877l-2.445-1.412V357a.171.171,0,0,1-.342,0v-.866l-2.445-1.412v.657a.171.171,0,1,1-.342,0v-.854l-2.445-1.412v.645a.171.171,0,1,1-.342,0v-.843L331.72,351.5v.634a.171.171,0,0,1-.342,0V351.3l-2.445-1.412v.623a.171.171,0,0,1-.342,0v-.82l-2.445-1.412v.611a.171.171,0,1,1-.342,0v-.809l-2.445-1.412v.6a.171.171,0,1,1-.342,0v-.8l-2.445-1.412v.592a.171.171,0,1,1-.342,0v-.79l-2.445-1.412v.581a.171.171,0,1,1-.342,0v-.778L315,341.846v.57a.171.171,0,0,1-.342,0v-1.785a.17.17,0,0,1,.171-.171Z" transform="translate(-281.195 -316.143)" opacity="0.4"/>
            <g id="Grupo_141552" data-name="Grupo 141552" transform="translate(56.087 46.666)">
              <g id="Grupo_141549" data-name="Grupo 141549" transform="translate(0)">
                <path id="Trazado_194432" data-name="Trazado 194432" d="M310.26,399.55a6.059,6.059,0,0,1,1.781.721c3.383,1.986,6.124,6.956,6.124,11.1,0,.11,0,.216,0,.323l-6.113-2.8-1.785-9.348Z" transform="translate(-305.917 -399.463)" fill="#0f2771"/>
                <path id="Trazado_194433" data-name="Trazado 194433" d="M330.723,399.408l1.785,9.348-6.06-3.516a10.4,10.4,0,0,1-.068-1.131c0-3.413,1.826-5.225,4.343-4.7Z" transform="translate(-326.38 -399.322)" fill="#4dd0e1"/>
                <path id="Trazado_194434" data-name="Trazado 194434" d="M327.137,418.061a13.069,13.069,0,0,1-.767-3.151l6.06,3.516Z" transform="translate(-326.298 -408.991)" fill="#4dd0e1"/>
                <path id="Trazado_194435" data-name="Trazado 194435" d="M321.686,426.363c-.14,3.918-2.825,5.555-6.117,3.656a13.349,13.349,0,0,1-5.289-6.819l5.293.365Z" transform="translate(-309.445 -414.134)" fill="#4dd0e1"/>
              </g>
              <g id="Grupo_141550" data-name="Grupo 141550" transform="translate(0)">
                <path id="Trazado_194436" data-name="Trazado 194436" d="M330.723,399.408l1.785,9.348-6.06-3.516a10.4,10.4,0,0,1-.068-1.131c0-3.413,1.826-5.225,4.343-4.7Z" transform="translate(-326.38 -399.322)" fill="#feca2e"/>
                <path id="Trazado_194437" data-name="Trazado 194437" d="M327.137,418.061a13.069,13.069,0,0,1-.767-3.151l6.06,3.516Z" transform="translate(-326.298 -408.991)" fill="#0f2771"/>
                <path id="Trazado_194438" data-name="Trazado 194438" d="M320.8,426.363c-.14,3.918-2.825,5.555-6.117,3.656a13.349,13.349,0,0,1-5.289-6.819l5.293.365,6.113,2.8Z" transform="translate(-308.217 -414.134)" fill="#bddcf6" opacity="0.5"/>
              </g>
              <g id="Grupo_141551" data-name="Grupo 141551" transform="translate(0)">
                <path id="Trazado_194439" data-name="Trazado 194439" d="M310.26,399.55a6.059,6.059,0,0,1,1.781.721c3.383,1.986,6.124,6.956,6.124,11.1,0,.11,0,.216,0,.323l-6.113-2.8-1.785-9.348Z" transform="translate(-305.917 -399.463)" fill="none" stroke="#fff" stroke-linecap="round" stroke-linejoin="round" stroke-width="1.26"/>
                <path id="Trazado_194440" data-name="Trazado 194440" d="M330.723,399.408l1.785,9.348-6.06-3.516a10.4,10.4,0,0,1-.068-1.131c0-3.413,1.826-5.225,4.343-4.7Z" transform="translate(-326.38 -399.322)" fill="none" stroke="#fff" stroke-linecap="round" stroke-linejoin="round" stroke-width="1.26"/>
                <path id="Trazado_194441" data-name="Trazado 194441" d="M327.137,418.061a13.069,13.069,0,0,1-.767-3.151l6.06,3.516Z" transform="translate(-326.298 -408.991)" fill="none" stroke="#fff" stroke-linecap="round" stroke-linejoin="round" stroke-width="1.26"/>
                <path id="Trazado_194442" data-name="Trazado 194442" d="M321.686,426.363c-.14,3.918-2.825,5.555-6.117,3.656a13.349,13.349,0,0,1-5.289-6.819l5.293.365Z" transform="translate(-309.445 -414.134)" fill="none" stroke="#fff" stroke-linecap="round" stroke-linejoin="round" stroke-width="1.26"/>
              </g>
            </g>
            <g id="Grupo_141553" data-name="Grupo 141553" transform="translate(33.629 33.65)">
              <path id="Trazado_194443" data-name="Trazado 194443" d="M372.178,373.5a14.481,14.481,0,0,1,3.353,8.695,6.267,6.267,0,0,1-.771,3.242l-5.35-6.785Z" transform="translate(-363.282 -370.288)" fill="#0f2771"/>
              <path id="Trazado_194444" data-name="Trazado 194444" d="M378.24,365.044a5.133,5.133,0,0,1,2.764.786,10.428,10.428,0,0,1,2.768,2.422L381,373.4l-2.764-8.364Z" transform="translate(-374.876 -365.04)" fill="#4dd0e1"/>
              <path id="Trazado_194445" data-name="Trazado 194445" d="M385.53,367a3.208,3.208,0,0,1,2.791-1.959l2.764,8.364Z" transform="translate(-384.957 -365.04)" fill="#4dd0e1"/>
              <path id="Trazado_194446" data-name="Trazado 194446" d="M372.013,370.2l5.555,6.405,5.35,6.785c-1.052,1.708-3.053,2.122-5.35.793-3.383-1.952-6.128-6.929-6.128-11.117a6.6,6.6,0,0,1,.57-2.863Z" transform="translate(-371.44 -368.241)" fill="#4dd0e1"/>
            </g>
            <g id="Grupo_141554" data-name="Grupo 141554" transform="translate(33.963 33.65)">
              <path id="Trazado_194447" data-name="Trazado 194447" d="M378.24,365.044a5.133,5.133,0,0,1,2.764.786,10.428,10.428,0,0,1,2.768,2.422L381,373.4l-2.764-8.364Z" transform="translate(-375.21 -365.04)" fill="#feca2e"/>
              <path id="Trazado_194448" data-name="Trazado 194448" d="M385.53,367a3.208,3.208,0,0,1,2.791-1.959l2.764,8.364Z" transform="translate(-385.291 -365.04)" fill="#0f2771"/>
              <path id="Trazado_194449" data-name="Trazado 194449" d="M371.133,370.2l5.555,6.405,5.35,6.785c-1.052,1.708-3.053,2.122-5.35.793-3.383-1.952-6.128-6.929-6.128-11.117a6.6,6.6,0,0,1,.569-2.863Z" transform="translate(-370.56 -368.241)" fill="#bddcf6" opacity="0.5"/>
            </g>
            <g id="Grupo_141555" data-name="Grupo 141555" transform="translate(33.629 33.65)">
              <path id="Trazado_194450" data-name="Trazado 194450" d="M372.178,373.5a14.481,14.481,0,0,1,3.353,8.695,6.267,6.267,0,0,1-.771,3.242l-5.35-6.785Z" transform="translate(-363.282 -370.288)" fill="none" stroke="#fff" stroke-linecap="round" stroke-linejoin="round" stroke-width="1.26"/>
              <path id="Trazado_194451" data-name="Trazado 194451" d="M378.24,365.044a5.133,5.133,0,0,1,2.764.786,10.428,10.428,0,0,1,2.768,2.422L381,373.4l-2.764-8.364Z" transform="translate(-374.876 -365.04)" fill="none" stroke="#fff" stroke-linecap="round" stroke-linejoin="round" stroke-width="1.26"/>
              <path id="Trazado_194452" data-name="Trazado 194452" d="M385.53,367a3.208,3.208,0,0,1,2.791-1.959l2.764,8.364Z" transform="translate(-384.957 -365.04)" fill="none" stroke="#fff" stroke-linecap="round" stroke-linejoin="round" stroke-width="1.26"/>
              <path id="Trazado_194453" data-name="Trazado 194453" d="M372.013,370.2l5.555,6.405,5.35,6.785c-1.052,1.708-3.053,2.122-5.35.793-3.383-1.952-6.128-6.929-6.128-11.117a6.6,6.6,0,0,1,.57-2.863Z" transform="translate(-371.44 -368.241)" fill="none" stroke="#fff" stroke-linecap="round" stroke-linejoin="round" stroke-width="1.26"/>
            </g>
            <g id="Grupo_141559" data-name="Grupo 141559" transform="translate(52.006 41.761)">
              <path id="Trazado_194454" data-name="Trazado 194454" d="M349.412,387.05l-1-.577c-.289-.167-.52-.03-.52.3v.964a1.148,1.148,0,0,0,.52.9l1,.577c.289.167.52.03.52-.3v-.964A1.149,1.149,0,0,0,349.412,387.05Z" transform="translate(-347.89 -386.402)" fill="#bddcf6"/>
              <g id="Grupo_141556" data-name="Grupo 141556" transform="translate(0 4.321)">
                <path id="Trazado_194455" data-name="Trazado 194455" d="M349.412,398.43l-1-.577c-.289-.167-.52-.03-.52.3v.964a1.149,1.149,0,0,0,.52.9l1,.577c.289.167.52.03.52-.3v-.964A1.148,1.148,0,0,0,349.412,398.43Z" transform="translate(-347.89 -397.782)" fill="#4dd0e1"/>
                <path id="Trazado_194456" data-name="Trazado 194456" d="M349.412,398.43l-1-.577c-.289-.167-.52-.03-.52.3v.964a1.149,1.149,0,0,0,.52.9l1,.577c.289.167.52.03.52-.3v-.964A1.148,1.148,0,0,0,349.412,398.43Z" transform="translate(-347.89 -397.782)" fill="#fff" opacity="0.7"/>
              </g>
              <g id="Grupo_141557" data-name="Grupo 141557" transform="translate(0 8.645)">
                <path id="Trazado_194457" data-name="Trazado 194457" d="M349.412,409.821l-1-.577c-.289-.167-.52-.03-.52.3v.964a1.148,1.148,0,0,0,.52.9l1,.577c.289.167.52.03.52-.3v-.964A1.148,1.148,0,0,0,349.412,409.821Z" transform="translate(-347.89 -409.172)" fill="#4dd0e1"/>
                <path id="Trazado_194458" data-name="Trazado 194458" d="M349.412,409.821l-1-.577c-.289-.167-.52-.03-.52.3v.964a1.148,1.148,0,0,0,.52.9l1,.577c.289.167.52.03.52-.3v-.964A1.148,1.148,0,0,0,349.412,409.821Z" transform="translate(-347.89 -409.172)" fill="#bddcf6" opacity="0.15"/>
              </g>
              <g id="Grupo_141558" data-name="Grupo 141558" transform="translate(0 12.966)">
                <path id="Trazado_194459" data-name="Trazado 194459" d="M349.412,421.2l-1-.577c-.289-.167-.52-.03-.52.3v.964a1.148,1.148,0,0,0,.52.9l1,.577c.289.167.52.03.52-.3V422.1A1.148,1.148,0,0,0,349.412,421.2Z" transform="translate(-347.89 -420.552)" fill="#4dd0e1"/>
                <path id="Trazado_194460" data-name="Trazado 194460" d="M349.412,421.2l-1-.577c-.289-.167-.52-.03-.52.3v.964a1.148,1.148,0,0,0,.52.9l1,.577c.289.167.52.03.52-.3V422.1A1.148,1.148,0,0,0,349.412,421.2Z" transform="translate(-347.89 -420.552)" fill="#fff" opacity="0.5"/>
              </g>
            </g>
            <path id="Trazado_194461" data-name="Trazado 194461" d="M358.47,383.861a.342.342,0,0,0,.3-.171.336.336,0,0,0-.125-.463l-3.053-1.762a.339.339,0,0,0-.338.588l3.053,1.762a.35.35,0,0,0,.171.046Z" transform="translate(-307.493 -341.55)" opacity="0.4"/>
            <path id="Trazado_194462" data-name="Trazado 194462" d="M358.35,395.351a.342.342,0,0,0,.3-.171.337.337,0,0,0-.125-.463l-3.053-1.762a.339.339,0,0,0-.338.589l3.053,1.762a.339.339,0,0,0,.171.046Z" transform="translate(-307.328 -348.678)" opacity="0.4"/>
            <path id="Trazado_194463" data-name="Trazado 194463" d="M358.23,406.851a.342.342,0,0,0,.3-.171.337.337,0,0,0-.125-.463l-3.053-1.762a.339.339,0,1,0-.338.589l3.053,1.762a.34.34,0,0,0,.171.045Z" transform="translate(-307.162 -355.811)" opacity="0.4"/>
            <path id="Trazado_194464" data-name="Trazado 194464" d="M358.1,418.353a.342.342,0,0,0,.3-.171.337.337,0,0,0-.125-.463l-3.053-1.762a.339.339,0,0,0-.338.589l3.053,1.762a.339.339,0,0,0,.171.046Z" transform="translate(-306.983 -362.948)" opacity="0.4"/>
            <g id="Grupo_141560" data-name="Grupo 141560" transform="translate(52.206 61.833)">
              <path id="Trazado_194465" data-name="Trazado 194465" d="M325,448.2a.342.342,0,0,0,.3-.171.337.337,0,0,0-.125-.463l-14.291-8.25a.339.339,0,1,0-.338.589l14.291,8.25a.339.339,0,0,0,.171.046Z" transform="translate(-309.253 -439.269)" opacity="0.4"/>
              <path id="Trazado_194466" data-name="Trazado 194466" d="M326.208,453.769a.342.342,0,0,0,.3-.171.337.337,0,0,0-.125-.463l-14.291-8.251a.339.339,0,0,0-.338.589l14.291,8.251a.339.339,0,0,0,.171.046Z" transform="translate(-310.922 -442.724)" opacity="0.4"/>
              <path id="Trazado_194467" data-name="Trazado 194467" d="M327.938,459.159a.342.342,0,0,0,.3-.171.337.337,0,0,0-.125-.463l-14.291-8.25a.339.339,0,1,0-.338.588l14.291,8.251a.339.339,0,0,0,.171.046Z" transform="translate(-313.309 -446.068)" opacity="0.4"/>
            </g>
            <g id="Grupo_141561" data-name="Grupo 141561" transform="translate(29.771 48.888)">
              <path id="Trazado_194468" data-name="Trazado 194468" d="M384.078,414.1a.342.342,0,0,0,.3-.171.337.337,0,0,0-.125-.463l-14.291-8.25a.339.339,0,0,0-.338.589l14.291,8.25a.338.338,0,0,0,.171.046Z" transform="translate(-368.329 -405.173)" opacity="0.4"/>
              <path id="Trazado_194469" data-name="Trazado 194469" d="M385.3,419.669a.342.342,0,0,0,.3-.171.337.337,0,0,0-.125-.463l-14.291-8.251a.339.339,0,0,0-.338.589l14.291,8.25a.339.339,0,0,0,.171.046Z" transform="translate(-370.012 -408.626)" opacity="0.4"/>
              <path id="Trazado_194470" data-name="Trazado 194470" d="M387.028,425.059a.342.342,0,0,0,.3-.171.336.336,0,0,0-.125-.463l-14.291-8.251a.339.339,0,0,0-.338.589l14.291,8.251a.339.339,0,0,0,.171.046Z" transform="translate(-372.399 -411.969)" opacity="0.4"/>
            </g>
            <path id="Trazado_194471" data-name="Trazado 194471" d="M357.525,448.553l-32.584-18.806a2.511,2.511,0,0,0-3.265.585,1.916,1.916,0,0,0,.733,2.867L355,452.008a2.7,2.7,0,0,0,3.425-.467,2.1,2.1,0,0,0-.9-2.992Z" transform="translate(-294.615 -371.308)" fill="#feca2e"/>
            <g id="Grupo_141562" data-name="Grupo 141562" transform="translate(41.025 76.274)">
              <path id="Trazado_194472" data-name="Trazado 194472" d="M352.438,489.548a.342.342,0,0,0,.3-.171.336.336,0,0,0-.125-.463l-14.291-8.247a.339.339,0,1,0-.338.589l14.291,8.247a.339.339,0,0,0,.171.046Z" transform="translate(-335.929 -479.363)" opacity="0.4"/>
              <path id="Trazado_194473" data-name="Trazado 194473" d="M347.728,486.228a.342.342,0,0,0,.3-.171.337.337,0,0,0-.125-.463l-14.291-8.247a.339.339,0,1,0-.338.589l14.291,8.247a.339.339,0,0,0,.171.046Z" transform="translate(-329.431 -477.303)" opacity="0.4"/>
              <path id="Trazado_194474" data-name="Trazado 194474" d="M357.388,492.478a.342.342,0,0,0,.3-.171.337.337,0,0,0-.125-.463L343.268,483.6a.339.339,0,0,0-.338.589l14.291,8.247a.338.338,0,0,0,.171.046Z" transform="translate(-342.759 -481.18)" opacity="0.4"/>
            </g>
            <g id="Grupo_141563" data-name="Grupo 141563" transform="translate(20.621 64.5)">
              <path id="Trazado_194475" data-name="Trazado 194475" d="M406.178,458.538a.342.342,0,0,0,.3-.171.337.337,0,0,0-.125-.463l-14.291-8.247a.339.339,0,1,0-.338.588l14.291,8.247a.338.338,0,0,0,.171.046Z" transform="translate(-389.669 -448.353)" opacity="0.4"/>
              <path id="Trazado_194476" data-name="Trazado 194476" d="M401.468,455.218a.342.342,0,0,0,.3-.171.337.337,0,0,0-.125-.463l-14.291-8.247a.339.339,0,1,0-.338.589l14.291,8.247a.339.339,0,0,0,.171.046Z" transform="translate(-383.171 -446.293)" opacity="0.4"/>
              <path id="Trazado_194477" data-name="Trazado 194477" d="M411.128,461.468a.342.342,0,0,0,.3-.171.337.337,0,0,0-.125-.463l-14.291-8.247a.339.339,0,1,0-.338.588l14.291,8.247a.339.339,0,0,0,.171.046Z" transform="translate(-396.499 -450.17)" opacity="0.4"/>
            </g>
            <g id="Grupo_141566" data-name="Grupo 141566" transform="translate(32.849 78.962)">
              <g id="Grupo_141564" data-name="Grupo 141564" transform="translate(0 5.854)">
                <path id="Trazado_194478" data-name="Trazado 194478" d="M362.124,501.065c3.1-1.792,8.361-1.663,11.744.289s3.611,4.989.5,6.781-8.361,1.663-11.744-.289S359.019,502.857,362.124,501.065Zm2.111,5.851a9.293,9.293,0,0,0,8.387.209c2.217-1.28,2.054-3.447-.361-4.841a9.292,9.292,0,0,0-8.387-.209C361.657,503.354,361.821,505.522,364.235,506.916Z" transform="translate(-359.936 -499.801)" fill="#4dd0e1"/>
                <path id="Trazado_194479" data-name="Trazado 194479" d="M378.423,507.693a5.585,5.585,0,0,0-5.035-.125c-1.329.767-1.234,2.069.216,2.9a5.585,5.585,0,0,0,5.035.125c1.329-.767,1.234-2.069-.216-2.9Z" transform="translate(-367.703 -504.284)" fill="#4dd0e1"/>
              </g>
              <path id="Trazado_194480" data-name="Trazado 194480" d="M378.423,507.693a5.585,5.585,0,0,0-5.035-.125c-1.329.767-1.234,2.069.216,2.9a5.585,5.585,0,0,0,5.035.125c1.329-.767,1.234-2.069-.216-2.9Z" transform="translate(-367.703 -498.43)" fill="#727997"/>
              <path id="Trazado_194481" data-name="Trazado 194481" d="M362.124,501.065c3.1-1.792,8.361-1.663,11.744.289s3.611,4.989.5,6.781-8.361,1.663-11.744-.289S359.019,502.857,362.124,501.065Zm2.111,5.851a9.293,9.293,0,0,0,8.387.209c2.217-1.28,2.054-3.447-.361-4.841a9.292,9.292,0,0,0-8.387-.209C361.657,503.354,361.821,505.522,364.235,506.916Z" transform="translate(-359.936 -493.947)" fill="#0f2771"/>
              <g id="Grupo_141565" data-name="Grupo 141565" transform="translate(4.975 5.855)">
                <path id="Trazado_194482" data-name="Trazado 194482" d="M381.1,500.167l-.71,1.268a10.115,10.115,0,0,0-4.158-.08l-.957-1.3a14.162,14.162,0,0,1,5.824.106Z" transform="translate(-375.28 -499.805)" fill="#4dd0e1"/>
                <path id="Trazado_194483" data-name="Trazado 194483" d="M381.1,500.167l-.71,1.268a10.115,10.115,0,0,0-4.158-.08l-.957-1.3a14.162,14.162,0,0,1,5.824.106Z" transform="translate(-375.28 -499.805)" fill="#bddcf6" opacity="0.7"/>
              </g>
              <path id="Trazado_194484" data-name="Trazado 194484" d="M388.6,489.975h.019a.34.34,0,0,0,.319-.361l-.091-1.56-6.284-3.626a.339.339,0,1,0-.338.588l5.969,3.444.072,1.2a.337.337,0,0,0,.338.319Z" transform="translate(-380.717 -484.383)" opacity="0.4"/>
            </g>
            <g id="Grupo_141569" data-name="Grupo 141569" transform="translate(14.476 68.331)">
              <g id="Grupo_141567" data-name="Grupo 141567" transform="translate(0 5.888)">
                <path id="Trazado_194485" data-name="Trazado 194485" d="M410.514,473.155c3.1-1.792,8.361-1.663,11.744.289s3.611,4.989.5,6.781-8.361,1.663-11.744-.289S407.409,474.947,410.514,473.155Zm2.111,5.851a9.292,9.292,0,0,0,8.387.209c2.217-1.279,2.054-3.447-.361-4.841a9.293,9.293,0,0,0-8.387-.209C410.047,475.444,410.211,477.612,412.625,479.006Z" transform="translate(-408.326 -471.891)" fill="#4dd0e1"/>
                <path id="Trazado_194486" data-name="Trazado 194486" d="M426.8,479.783a5.585,5.585,0,0,0-5.035-.125c-1.329.767-1.234,2.069.216,2.9a5.585,5.585,0,0,0,5.035.125C428.349,481.92,428.254,480.618,426.8,479.783Z" transform="translate(-416.079 -476.374)" fill="#4dd0e1"/>
              </g>
              <path id="Trazado_194487" data-name="Trazado 194487" d="M426.8,479.783a5.585,5.585,0,0,0-5.035-.125c-1.329.767-1.234,2.069.216,2.9a5.585,5.585,0,0,0,5.035.125C428.349,481.92,428.254,480.618,426.8,479.783Z" transform="translate(-416.079 -470.486)" fill="#727997"/>
              <path id="Trazado_194488" data-name="Trazado 194488" d="M410.514,473.155c3.1-1.792,8.361-1.663,11.744.289s3.611,4.989.5,6.781-8.361,1.663-11.744-.289S407.409,474.947,410.514,473.155Zm2.111,5.851a9.292,9.292,0,0,0,8.387.209c2.217-1.279,2.054-3.447-.361-4.841a9.293,9.293,0,0,0-8.387-.209C410.047,475.444,410.211,477.612,412.625,479.006Z" transform="translate(-408.326 -466.003)" fill="#0f2771"/>
              <g id="Grupo_141568" data-name="Grupo 141568" transform="translate(0.996 5.891)">
                <path id="Trazado_194489" data-name="Trazado 194489" d="M421.082,473.16c2.624-1.515,6.777-1.652,10.046-.482l-1.12,1.147a9.231,9.231,0,0,0-7.176.346,3.859,3.859,0,0,0-.85.653l-2.092-.748A5.633,5.633,0,0,1,421.082,473.16Z" transform="translate(-419.89 -471.898)" fill="#4dd0e1"/>
                <path id="Trazado_194490" data-name="Trazado 194490" d="M421.082,473.16c2.624-1.515,6.777-1.652,10.046-.482l-1.12,1.147a9.231,9.231,0,0,0-7.176.346,3.859,3.859,0,0,0-.85.653l-2.092-.748A5.633,5.633,0,0,1,421.082,473.16Z" transform="translate(-419.89 -471.898)" fill="#bddcf6" opacity="0.7"/>
              </g>
              <path id="Trazado_194491" data-name="Trazado 194491" d="M437.124,461.975h.019a.34.34,0,0,0,.319-.361l-.091-1.56-6.284-3.626a.339.339,0,0,0-.338.588l5.969,3.444.072,1.2a.337.337,0,0,0,.338.319Z" transform="translate(-429.286 -456.383)" opacity="0.4"/>
            </g>
            <g id="Grupo_141570" data-name="Grupo 141570" transform="translate(0 76.601)">
              <path id="Trazado_194492" data-name="Trazado 194492" d="M422.2,498.87a.342.342,0,0,0,.3-.171.337.337,0,0,0-.125-.463l-34.711-20.028a.339.339,0,0,0-.338.589l34.711,20.028a.339.339,0,0,0,.171.046Z" transform="translate(-383.398 -478.163)" opacity="0.4"/>
              <path id="Trazado_194493" data-name="Trazado 194493" d="M427.138,501.71a.342.342,0,0,0,.3-.171.336.336,0,0,0-.125-.463L392.6,481.048a.339.339,0,0,0-.338.589l34.711,20.028a.339.339,0,0,0,.171.046Z" transform="translate(-390.213 -479.925)" opacity="0.4"/>
              <path id="Trazado_194494" data-name="Trazado 194494" d="M432.078,504.56a.342.342,0,0,0,.3-.171.337.337,0,0,0-.125-.463L397.538,483.9a.339.339,0,0,0-.338.589l34.711,20.028a.338.338,0,0,0,.171.046Z" transform="translate(-397.029 -481.693)" opacity="0.4"/>
            </g>
          </g>
        </g>
      </g>
    </g>
  </g>
</svg>
