<svg xmlns="http://www.w3.org/2000/svg" width="524.8" height="322.586" viewBox="0 0 524.8 322.586">
  <g id="Grupo_146521" data-name="Grupo 146521" transform="translate(-7732.292 -1388)">
    <g id="_1c" data-name="1c" transform="translate(7724.441 1291.14)">
      <path id="Trazado_191851" data-name="Trazado 191851" d="M190.572,397.018s38.522-15.216,42.982-44.149c5.492-35.594-2.124-52.079-2.124-52.079l-27.36,35.128-7.506,36.068-9.893,7.151-5.5,11.661,9.4,6.22Z" transform="translate(-26.646 -31.352)" fill="#ef7559"/>
      <g id="Grupo_141079" data-name="Grupo 141079" transform="translate(211.003 260.823)">
        <path id="Trazado_191852" data-name="Trazado 191852" d="M273.569,330.351c11.154,5.238,18.008,14.133,15.317,19.87s-13.921,6.144-25.075.9-18.008-14.133-15.317-19.87S262.415,325.1,273.569,330.351Z" transform="translate(-247.909 -296.153)" fill="#7b9b75"/>
        <path id="Trazado_191853" data-name="Trazado 191853" d="M334.775,316.15c-4.908,11.306-13.6,18.415-19.413,15.893s-6.55-13.735-1.642-25.032,13.6-18.415,19.413-15.893S339.683,304.853,334.775,316.15Z" transform="translate(-257.527 -290.609)" fill="#7b9b75"/>
        <path id="Trazado_191854" data-name="Trazado 191854" d="M280.59,379.547c-9.03-1.362-15.791-6.237-15.089-10.883s8.59-7.312,17.628-5.949,15.791,6.237,15.089,10.883S289.628,380.91,280.59,379.547Z" transform="translate(-250.606 -301.64)" fill="#7b9b75"/>
        <path id="Trazado_191855" data-name="Trazado 191855" d="M347.469,376.6c-8.767,2.564-16.942.982-18.262-3.529s4.722-10.24,13.489-12.8,16.942-.982,18.262,3.529S356.237,374.036,347.469,376.6Z" transform="translate(-260.38 -301.13)" fill="#7b9b75"/>
        <path id="Trazado_191856" data-name="Trazado 191856" d="M326.863,342.248c8.361-9.047,18.914-12.906,23.568-8.6s1.65,15.123-6.711,24.178-18.914,12.905-23.568,8.6S318.5,351.3,326.863,342.248Z" transform="translate(-258.679 -296.955)" fill="#7b9b75"/>
        <path id="Trazado_191857" data-name="Trazado 191857" d="M314.943,379.546a.506.506,0,0,1-.491-.389c-7.506-33.046,9.487-68.835,9.664-69.2a.507.507,0,1,1,.914.44c-.169.355-17.01,35.831-9.588,68.539a.5.5,0,0,1-.381.6.494.494,0,0,1-.11.017Z" transform="translate(-257.845 -293.54)" fill="#5f7c59"/>
        <path id="Trazado_191858" data-name="Trazado 191858" d="M308.6,383.8a.506.506,0,0,1-.491-.381c-10.223-40.172-42.491-45.013-42.821-45.055a.5.5,0,0,1-.432-.567.485.485,0,0,1,.567-.432c.33.042,33.267,4.951,43.659,45.808a.5.5,0,0,1-.364.609.654.654,0,0,1-.127.017Z" transform="translate(-250.514 -297.797)" fill="#5f7c59"/>
        <path id="Trazado_191859" data-name="Trazado 191859" d="M309.566,385.844a.506.506,0,0,1-.491-.381c-3.791-15.03-26.979-15.258-27.207-15.258a.508.508,0,1,1,0-1.016c.245,0,24.2.237,28.189,16.02a.5.5,0,0,1-.364.609.653.653,0,0,1-.127.017Z" transform="translate(-253.052 -302.69)" fill="#5f7c59"/>
        <path id="Trazado_191860" data-name="Trazado 191860" d="M312.088,383.226a.578.578,0,0,1-.1-.008.509.509,0,0,1-.4-.592c.051-.254,5.272-25.3,30.533-42.051a.507.507,0,1,1,.558.846c-24.9,16.5-30.051,41.154-30.1,41.4a.513.513,0,0,1-.491.406Z" transform="translate(-257.698 -298.278)" fill="#5f7c59"/>
        <path id="Trazado_191861" data-name="Trazado 191861" d="M316.458,385.44a.491.491,0,0,1-.279-.085.5.5,0,0,1-.144-.694c.093-.144,9.478-14.039,32.81-18.093a.5.5,0,0,1,.584.406.506.506,0,0,1-.406.584c-22.874,3.969-32.048,17.518-32.133,17.653a.527.527,0,0,1-.423.228Z" transform="translate(-258.37 -302.286)" fill="#5f7c59"/>
        <path id="Trazado_191862" data-name="Trazado 191862" d="M328.842,428.514h-25.4a2.62,2.62,0,0,1-2.666-2.268l-3.884-37.007a2.581,2.581,0,0,1,2.666-2.759h33.173a2.585,2.585,0,0,1,2.666,2.759l-3.884,37.007a2.62,2.62,0,0,1-2.666,2.268Z" transform="translate(-255.437 -305.349)" fill="#a79cad"/>
        <path id="Trazado_191863" data-name="Trazado 191863" d="M322.193,428.514h-25.4a2.62,2.62,0,0,1-2.666-2.268l-3.884-37.007a2.581,2.581,0,0,1,2.666-2.759h33.173a2.585,2.585,0,0,1,2.666,2.759l-3.884,37.007A2.62,2.62,0,0,1,322.193,428.514Z" transform="translate(-254.415 -305.349)" fill="#bbafc0"/>
      </g>
      <path id="Trazado_191864" data-name="Trazado 191864" d="M144.665,430.131a.954.954,0,0,0,.736,1.151c2.53.592,9.715,1.946,14.082-.609,5.365-3.14,10.781-12.169,14.539-14.7s10.934-4.113,10.764-6.635-3.334-8.48-.254-13.862,5.551-7.43,4.815-9.537-19.616-11.078-21.038-10.9-3.724,8.615-4.206,9.233,3.275,4.511,2.04,5.535-4.062,1.718-5.856,3.233c-1.676,1.413-13.98,31.058-15.622,37.1Z" transform="translate(-21.029 -42.767)" fill="#536299"/>
      <path id="Trazado_191865" data-name="Trazado 191865" d="M218.347,342.3s-2.192,69.334-5.128,76.671-19.007,0-19.007,0L190.42,343.84l27.935-1.54Z" transform="translate(-28.068 -37.734)" fill="#f48462"/>
      <path id="Trazado_191866" data-name="Trazado 191866" d="M232.578,277s2.8,14.623,4.07,29.162c1.075,12.245,1.346,25.811,0,27s-14.657,5.23-30.753,4.333-20.928-4.942-20.657-6.372,2.149-2.64,2.149-2.64-1.075-35.568,3.216-45.089,22.6-11.6,22.6-11.6l18.322-.364,1.058,5.551Z" transform="translate(-27.27 -26.838)" fill="#feca2e"/>
      <g id="Grupo_141080" data-name="Grupo 141080" transform="translate(131.506 114.344)">
        <rect id="Rectángulo_44068" data-name="Rectángulo 44068" width="156.245" height="91.836" rx="5.54" transform="translate(9.08)" fill="#c8bcce"/>
        <rect id="Rectángulo_44069" data-name="Rectángulo 44069" width="156.245" height="91.836" rx="5.54" transform="translate(3.233)" fill="#e2dfe5"/>
        <path id="Trazado_191867" data-name="Trazado 191867" d="M319.194,225.94H156.8a2.835,2.835,0,0,1,0-5.67H319.194a2.835,2.835,0,1,1,0,5.67Z" transform="translate(-153.97 -133.317)" fill="#a79cad"/>
        <path id="Trazado_191868" data-name="Trazado 191868" d="M200.382,218.369H173.53a10.412,10.412,0,0,1,10.409-10.409h6.034a10.412,10.412,0,0,1,10.409,10.409h0Z" transform="translate(-156.977 -131.424)" fill="#f7b369"/>
        <path id="Trazado_191869" data-name="Trazado 191869" d="M303.123,219.853H275.882a1.422,1.422,0,1,1,0-2.843h27.241a1.422,1.422,0,0,1,0,2.843Z" transform="translate(-172.494 -132.815)" fill="#6876aa"/>
        <rect id="Rectángulo_44070" data-name="Rectángulo 44070" width="7.032" height="19.286" transform="translate(18.44 45.969)" fill="#92b4ea"/>
        <rect id="Rectángulo_44071" data-name="Rectángulo 44071" width="7.032" height="19.286" transform="translate(82.722 45.969)" fill="#92b4ea"/>
        <rect id="Rectángulo_44072" data-name="Rectángulo 44072" width="7.032" height="29.154" transform="translate(34.511 36.042)" fill="#92b4ea"/>
        <rect id="Rectángulo_44073" data-name="Rectángulo 44073" width="7.032" height="37.54" transform="translate(50.581 27.647)" fill="#92b4ea"/>
        <rect id="Rectángulo_44074" data-name="Rectángulo 44074" width="7.032" height="45.825" transform="translate(66.652 19.515)" fill="#92b4ea"/>
        <path id="Trazado_191870" data-name="Trazado 191870" d="M317.988,168.222a19.574,19.574,0,1,1-33.9-13.329,19.278,19.278,0,0,1,6.863-4.764,19.46,19.46,0,0,1,7.456-1.489,19.553,19.553,0,0,1,19.574,19.566Z" transform="translate(-173.167 -122.304)" fill="#f7b369"/>
        <path id="Trazado_191871" data-name="Trazado 191871" d="M318.88,161.544l-18.406,6.669-8.234-13.193.779-4.9a19.46,19.46,0,0,1,7.456-1.489,19.584,19.584,0,0,1,18.406,12.9Z" transform="translate(-175.227 -122.303)" fill="#0f2771"/>
        <path id="Trazado_191872" data-name="Trazado 191872" d="M299.367,168.278,285.04,154.949A19.5,19.5,0,0,1,295.94,149l3.419,19.269Z" transform="translate(-174.121 -122.36)" fill="#92b4ea"/>
      </g>
      <ellipse id="Elipse_4920" data-name="Elipse 4920" cx="262.4" cy="8.581" rx="262.4" ry="8.581" transform="translate(7.85 396.191)" fill="#c8bcce"/>
      <path id="Trazado_191873" data-name="Trazado 191873" d="M203.684,168.932s-12.567-2.539-16.942,9.994,2.353,45.622,2.353,45.622l26.936-7.337-5.408-26.657-6.948-21.622Z" transform="translate(-27.275 -11.048)"/>
      <circle id="Elipse_4921" data-name="Elipse 4921" cx="22.434" cy="22.434" r="22.434" transform="translate(7.858 96.86)" fill="#ddd7e0"/>
      <circle id="Elipse_4922" data-name="Elipse 4922" cx="17.594" cy="17.594" r="17.594" transform="translate(12.699 101.701)" fill="#c8bcce"/>
      <path id="Trazado_191874" data-name="Trazado 191874" d="M33.044,123.693a.722.722,0,0,1-.262-.051.737.737,0,0,1-.432-.491l-2.124-8.75a.709.709,0,1,1,1.379-.33l1.887,7.777,11.78-7.7a.709.709,0,1,1,.779,1.185l-12.618,8.251a.724.724,0,0,1-.389.118Z" transform="translate(-3.437 -2.562)" fill="#5c69a5"/>
      <g id="Grupo_141081" data-name="Grupo 141081" transform="translate(200.916 257.438)">
        <path id="Trazado_191875" data-name="Trazado 191875" d="M244.729,305.36H284.6a1.34,1.34,0,0,1,1.337,1.337v5.365A1.34,1.34,0,0,1,284.6,313.4H244.729a3.751,3.751,0,0,1-3.749-3.749v-.542a3.751,3.751,0,0,1,3.749-3.749Z" transform="translate(-236.757 -289.493)" fill="#7b9b75"/>
        <path id="Trazado_191876" data-name="Trazado 191876" d="M251.909,305.46h39.867a1.34,1.34,0,0,1,1.337,1.337v5.365a1.34,1.34,0,0,1-1.337,1.337H251.909a3.751,3.751,0,0,1-3.749-3.749v-.542a3.751,3.751,0,0,1,3.749-3.749Z" transform="translate(-237.861 -289.508)" fill="#a0bf99"/>
        <path id="Trazado_191877" data-name="Trazado 191877" d="M293.437,312.195h-40.57a2.547,2.547,0,0,1,0-5.095h40.57v5.1Z" transform="translate(-238.193 -289.76)" fill="#fff"/>
        <path id="Trazado_191878" data-name="Trazado 191878" d="M238.722,304.069h44.843a4.02,4.02,0,1,0,0-8.039H238.722a.1.1,0,0,0-.1.1v7.828a.1.1,0,0,0,.1.1Z" transform="translate(-236.394 -288.058)" fill="#0f2771"/>
        <path id="Trazado_191879" data-name="Trazado 191879" d="M237.251,304.069h34.671a4.02,4.02,0,0,0,0-8.039H237.251a1.264,1.264,0,0,0-1.261,1.261v5.518a1.264,1.264,0,0,0,1.261,1.261Z" transform="translate(-235.99 -288.058)" fill="#c199b0"/>
        <path id="Trazado_191880" data-name="Trazado 191880" d="M236,302.775h35.771a2.547,2.547,0,0,0,0-5.095H236v5.1Z" transform="translate(-235.992 -288.312)" fill="#fff"/>
        <path id="Trazado_191881" data-name="Trazado 191881" d="M242.987,294.649h36.042a4.02,4.02,0,1,0,0-8.039H242.987a.455.455,0,0,0-.457.457v7.117a.455.455,0,0,0,.457.457Z" transform="translate(-236.995 -286.61)" fill="#68b6d8"/>
        <path id="Trazado_191882" data-name="Trazado 191882" d="M241.512,294.649h27.893a4.02,4.02,0,1,0,0-8.039H241.512a1.143,1.143,0,0,0-1.142,1.142V293.5a1.143,1.143,0,0,0,1.142,1.142Z" transform="translate(-236.663 -286.61)" fill="#8cd2ea"/>
        <path id="Trazado_191883" data-name="Trazado 191883" d="M240.37,293.354h29.154a2.547,2.547,0,0,0,0-5.095H240.37v5.1Z" transform="translate(-236.663 -286.864)" fill="#fff"/>
      </g>
      <path id="Trazado_191884" data-name="Trazado 191884" d="M64.348,309.25H50.63V286.985a6.855,6.855,0,1,1,13.709,0V309.25Z" transform="translate(-6.577 -28.176)" fill="#92b4ea"/>
      <rect id="Rectángulo_44075" data-name="Rectángulo 44075" width="5.221" height="7.701" transform="translate(48.301 247.401)" fill="#92b4ea"/>
      <path id="Trazado_191885" data-name="Trazado 191885" d="M61,275.217H54.653a1.853,1.853,0,0,1,0-3.707H61a1.853,1.853,0,0,1,0,3.707Z" transform="translate(-6.911 -26.85)" fill="#f7b369"/>
      <path id="Trazado_191886" data-name="Trazado 191886" d="M52.73,299.567a.33.33,0,0,1-.33-.33V286.78a.33.33,0,0,1,.33-.33.325.325,0,0,1,.33.33v12.457A.33.33,0,0,1,52.73,299.567Z" transform="translate(-6.849 -29.147)" fill="#fff"/>
      <path id="Trazado_191887" data-name="Trazado 191887" d="M364.528,309.25H350.81V286.985a6.855,6.855,0,1,1,13.709,0V309.25Z" transform="translate(-52.726 -28.176)" fill="#92b4ea"/>
      <rect id="Rectángulo_44076" data-name="Rectángulo 44076" width="5.221" height="7.701" transform="translate(302.332 247.401)" fill="#92b4ea"/>
      <path id="Trazado_191888" data-name="Trazado 191888" d="M361.18,275.217h-6.347a1.853,1.853,0,1,1,0-3.707h6.347a1.853,1.853,0,0,1,0,3.707Z" transform="translate(-53.06 -26.85)" fill="#40507f"/>
      <path id="Trazado_191889" data-name="Trazado 191889" d="M352.92,299.567a.33.33,0,0,1-.33-.33V286.78a.33.33,0,0,1,.33-.33.325.325,0,0,1,.33.33v12.457A.33.33,0,0,1,352.92,299.567Z" transform="translate(-53 -29.147)" fill="#fff"/>
      <path id="Trazado_191890" data-name="Trazado 191890" d="M291.66,194.832s6.973-27.461,8.581-26.556-5.441,26.708-5.441,26.708l-3.14-.152Z" transform="translate(-43.633 -10.976)" fill="#5c69a5"/>
      <path id="Trazado_191891" data-name="Trazado 191891" d="M282.684,217.619s5.89-2.522,7.447-5.966-6.22-6.313-6.22-6.313l-3.9,6.313,2.674,5.975Z" transform="translate(-41.842 -16.678)" fill="#f48462"/>
      <path id="Trazado_191892" data-name="Trazado 191892" d="M285.682,199.858a5.837,5.837,0,0,1,2-1.938c2.708-1.667,11.12-4.984,13.43-2.547,2.209,2.344-2.4,4.333-2.4,4.333s4.037-.863,3.681,2.09a4,4,0,0,1-2.877,3.14s4.291-.491,2.547,2.97-10.7,6.135-13.921,5.856-.7-4.392-.7-4.392-3.444-.753-3.334-2.683c.11-2.039,2.886-2.666,2.886-2.666a2.771,2.771,0,0,1-1.295-4.189Z" transform="translate(-42.47 -15.012)" fill="#f48462"/>
      <path id="Trazado_191893" data-name="Trazado 191893" d="M273.43,203s8.209-9.842,10.3-10.426,12.178,2.336,11.154,4.841-8.683.66-8.683.66-1.447,12.423-5.78,13.032-6.982-8.116-6.982-8.116Z" transform="translate(-40.83 -14.704)" fill="#f48462"/>
      <path id="Trazado_191894" data-name="Trazado 191894" d="M288.66,205.069a.317.317,0,0,1-.3-.212.322.322,0,0,1,.186-.423L299.23,200.3a.327.327,0,0,1,.237.609l-10.688,4.138A.518.518,0,0,1,288.66,205.069Z" transform="translate(-43.121 -15.898)"/>
      <path id="Trazado_191895" data-name="Trazado 191895" d="M289.511,211.139a.321.321,0,0,1-.3-.212.329.329,0,0,1,.195-.423l10.781-4.028a.329.329,0,1,1,.229.618l-10.781,4.028A.744.744,0,0,1,289.511,211.139Z" transform="translate(-43.252 -16.849)"/>
      <path id="Trazado_191896" data-name="Trazado 191896" d="M218.524,204.123s12.99,3.74,24.931,3.563c10.341-.152,23.924-6.025,23.924-6.025l9.614,17.281s-25.219,23.611-42.542,15.8c-22.333-10.071-15.935-30.626-15.935-30.626Z" transform="translate(-32.257 -16.112)" fill="#0f2771"/>
      <path id="Trazado_191897" data-name="Trazado 191897" d="M283.921,211.631a.313.313,0,0,1-.245-.118.333.333,0,0,1,.034-.465,12.9,12.9,0,0,0,3.724-11.949.329.329,0,1,1,.643-.135,13.561,13.561,0,0,1-3.944,12.584.325.325,0,0,1-.212.076Z" transform="translate(-42.393 -15.657)"/>
      <path id="Trazado_191898" data-name="Trazado 191898" d="M199.419,203.227s-15.927,5.822-17.924,14.708,11.949,44.437,15.6,45.664,32.852-5.213,35.509-7.354-1.616-21.03-2.276-24.093-3.317-15.326-6.973-20.53-12.66-8.742-16.307-8.742-7.633.347-7.633.347Z" transform="translate(-26.666 -16.299)" fill="#0f2771"/>
      <path id="Trazado_191899" data-name="Trazado 191899" d="M199.088,195.69l.846,8.674s1.811,2.336,6.922,2.26c3.808-.059,5.052-1.049,5.052-1.049l-.956-4.341L210.014,197l-9.36-1.117-1.574-.186Z" transform="translate(-29.399 -15.194)" fill="#f48462"/>
      <path id="Trazado_191900" data-name="Trazado 191900" d="M200.948,195.91a2.776,2.776,0,0,0,.33.812c2.361,4.138,7.76,4.553,9.961,4.536l-.939-4.231-9.36-1.117Z" transform="translate(-29.685 -15.228)"/>
      <path id="Trazado_191901" data-name="Trazado 191901" d="M208.805,173.153s5.611,10.426,4.409,16.646-6.821,5.712-10.223,4.815a11,11,0,0,1-5.111-2.81,4.686,4.686,0,0,1-5.315-1.4c-2.3-2.708-1.3-6.118.4-7.016s3.91.2,3.91.2l-1.9-3s5.611-16.544,13.836-7.422Z" transform="translate(-28.191 -11.309)" fill="#f48462"/>
      <path id="Trazado_191902" data-name="Trazado 191902" d="M250.792,450.275a.967.967,0,0,0,.779-1.142c-.432-2.606-1.98-9.884-6.034-12.973-4.993-3.8-15.444-5.315-19.244-7.845s-8.056-8.64-10.324-7.481-6.542,6.474-12.719,5.712-9.03-2.276-10.688-.762-2.615,22.773-1.9,24.042,9.41.093,10.172.3,2.894-4.858,4.324-4.1,3.165,3.131,5.264,4.223c1.963,1.016,34.155.863,40.384.017Z" transform="translate(-28.068 -49.785)" fill="#5c69a5"/>
      <path id="Trazado_191903" data-name="Trazado 191903" d="M197.373,183.261s4.722.6,7.583-4.815,2.4-7.523,2.4-7.523l3.605,5.111s.449-3.757-1.2-6.017-3.157-1.65-3.157-1.65l-10.079,3.309-2.107,8.42,2.945,3.157Z" transform="translate(-28.683 -10.982)"/>
      <path id="Trazado_191904" data-name="Trazado 191904" d="M235.381,249.263s4.206-5.315,7.286-6.592c1.523-.635,7.269-1.693,7.8-.3s-4.942,4.434-4.942,4.434,13.286-5.018,15.512-3.944c2.683,1.295-1.185,3.013-1.185,3.013s4.282.212,3.6,1.676-3.284,2.979-3.284,2.979,4.756-.8,2.251,2.53-22.68,13.752-29.094,8.107c-3.165-2.793,2.056-11.89,2.056-11.89Z" transform="translate(-34.508 -22.265)" fill="#f48462"/>
      <path id="Trazado_191905" data-name="Trazado 191905" d="M252.98,250.827a.325.325,0,0,1-.3-.212.322.322,0,0,1,.186-.423l10.011-3.927a.327.327,0,0,1,.237.609L253.1,250.8a.518.518,0,0,1-.118.025Z" transform="translate(-37.636 -22.966)"/>
      <path id="Trazado_191906" data-name="Trazado 191906" d="M255.43,255.711a.33.33,0,0,1-.3-.2.322.322,0,0,1,.186-.423l8.251-3.309a.332.332,0,0,1,.245.618l-8.251,3.309a.662.662,0,0,1-.118.025Z" transform="translate(-38.012 -23.813)"/>
      <path id="Trazado_191907" data-name="Trazado 191907" d="M244.211,248.433a.321.321,0,0,1-.322-.279.332.332,0,0,1,.279-.372l3.106-.432a.329.329,0,0,1,.093.652l-3.106.432h-.042Z" transform="translate(-36.288 -23.136)"/>
      <path id="Trazado_191908" data-name="Trazado 191908" d="M181.714,216.538s-15.707,19.481-5.89,43.159c7.963,19.219,28.57,16.773,39.19,13.456S234.926,261.2,234.926,261.2L225.135,244s-16.646,2.92-27.267,1.921-16.155-29.391-16.155-29.391Z" transform="translate(-25.328 -18.398)" fill="#0f2771"/>
      <path id="Trazado_191909" data-name="Trazado 191909" d="M201.788,250.931c-2.37-.093-10.1-.533-10.5-2.166-.161-.643.584-1.075.829-1.219,3.986-2.336,9.647,2.606,9.893,2.818a.337.337,0,0,1,.085.372.322.322,0,0,1-.3.2Zm-7.269-3.351a3.982,3.982,0,0,0-2.065.533c-.465.271-.533.449-.525.491.178.711,4.553,1.379,8.869,1.625-1.269-.948-3.876-2.649-6.271-2.649Z" transform="translate(-28.198 -23.07)" fill="#f7b369"/>
      <path id="Trazado_191910" data-name="Trazado 191910" d="M213.645,177.664h-.059l-1.456-.254a.339.339,0,0,1-.271-.381.332.332,0,0,1,.381-.271l1.456.254a.339.339,0,0,1,.271.381.326.326,0,0,1-.322.271Z" transform="translate(-31.364 -12.283)"/>
      <path id="Trazado_191911" data-name="Trazado 191911" d="M206.45,178.161a.33.33,0,0,1-.076-.652l2.454-.6a.326.326,0,0,1,.4.245.33.33,0,0,1-.245.4l-2.454.6a.657.657,0,0,1-.076.008Z" transform="translate(-30.482 -12.305)"/>
      <path id="Trazado_191912" data-name="Trazado 191912" d="M212.919,188.081a.342.342,0,0,1-.212-.076.326.326,0,0,1-.042-.465c1.388-1.684-.711-4.392-.728-4.417a.335.335,0,0,1,.059-.465.328.328,0,0,1,.465.059c.1.127,2.437,3.157.719,5.238a.343.343,0,0,1-.254.118Z" transform="translate(-31.366 -13.179)"/>
      <path id="Trazado_191913" data-name="Trazado 191913" d="M210.5,193.851c-1.532,0-2.158-1.743-2.183-1.819a.333.333,0,0,1,.042-.3.329.329,0,0,1,.271-.135h3.74a.341.341,0,0,1,.271.135.333.333,0,0,1,.042.3c-.025.076-.652,1.819-2.183,1.819Zm-1.346-1.6a1.433,1.433,0,0,0,2.691,0Z" transform="translate(-30.817 -14.565)"/>
      <path id="Trazado_191914" data-name="Trazado 191914" d="M197.6,191.2a.339.339,0,0,1-.195-.068l-3.91-2.894a.327.327,0,1,1,.389-.525l3.91,2.894a.326.326,0,0,1,.068.457A.337.337,0,0,1,197.6,191.2Z" transform="translate(-28.521 -13.958)"/>
      <path id="Trazado_191915" data-name="Trazado 191915" d="M193.69,191.99a.321.321,0,0,1-.288-.169.332.332,0,0,1,.127-.449l2.573-1.43a.325.325,0,0,1,.449.127.332.332,0,0,1-.127.449l-2.573,1.43A.35.35,0,0,1,193.69,191.99Z" transform="translate(-28.52 -14.303)"/>
      <path id="Trazado_191916" data-name="Trazado 191916" d="M252.437,216.312a1.241,1.241,0,0,1-.846-.33c-1.489-1.312-1.261-6.474-1.227-7.058a.315.315,0,0,1,.245-.3.325.325,0,0,1,.364.144c.338.525,3.292,5.188,2.556,6.88a1.072,1.072,0,0,1-.846.643,1.209,1.209,0,0,1-.245.025Zm-1.447-6.254c0,1.845.178,4.671,1.032,5.433a.573.573,0,0,0,.533.152.423.423,0,0,0,.355-.262c.381-.88-.821-3.427-1.929-5.323Z" transform="translate(-37.279 -17.182)" fill="#feca2e"/>
      <path id="Trazado_191917" data-name="Trazado 191917" d="M163.961,281.514,151.207,259.52,141.12,280.643l13.921,12.575Z" transform="translate(-20.489 -25.007)" fill="#6876aa"/>
      <rect id="Rectángulo_44077" data-name="Rectángulo 44077" width="9.3" height="63.419" transform="translate(108.64 384.657) rotate(180)" fill="#40507f"/>
      <path id="Trazado_191918" data-name="Trazado 191918" d="M97.77,440.379h39.013a2.92,2.92,0,0,0,0-5.839H97.77a2.92,2.92,0,0,0,0,5.839Z" transform="translate(-13.375 -51.915)" fill="#40507f"/>
      <path id="Trazado_191919" data-name="Trazado 191919" d="M138.24,445.588a6.288,6.288,0,1,0,6.288-6.288A6.291,6.291,0,0,0,138.24,445.588Z" transform="translate(-20.046 -52.646)" fill="#40507f"/>
      <path id="Trazado_191920" data-name="Trazado 191920" d="M114.03,445.588a6.288,6.288,0,1,0,6.288-6.288A6.291,6.291,0,0,0,114.03,445.588Z" transform="translate(-16.324 -52.646)" fill="#40507f"/>
      <path id="Trazado_191921" data-name="Trazado 191921" d="M89.92,445.588a6.288,6.288,0,1,0,6.288-6.288A6.291,6.291,0,0,0,89.92,445.588Z" transform="translate(-12.617 -52.646)" fill="#40507f"/>
      <path id="Trazado_191922" data-name="Trazado 191922" d="M86.243,271.83s-19.523,11.636-15.952,49.1c3.224,33.757,35.314,46.223,61.024,37.523s21.427-33.774,21.427-33.774l-66.5-52.849Z" transform="translate(-9.532 -26.9)" fill="#feca2e"/>
      <path id="Trazado_191923" data-name="Trazado 191923" d="M87.1,352.443a.325.325,0,0,1-.212-.076c-6.8-5.755-9.588-17.492-9.622-17.611a.33.33,0,0,1,.643-.152c.025.118,2.767,11.645,9.4,17.255a.33.33,0,0,1-.212.584Z" transform="translate(-10.671 -36.511)" fill="#fff"/>
      <path id="Trazado_191924" data-name="Trazado 191924" d="M126.462,250.406s13.041,1.185,17.941,7.667-1.574,47.078-1.921,47.645-9.436,4.705-25.278,4.341S97.52,306.589,97,305.718s.372-46.891,4.214-50.776,15.707-5.721,25.252-4.527Z" transform="translate(-13.684 -23.552)" fill="#6876aa"/>
      <path id="Trazado_191925" data-name="Trazado 191925" d="M148.325,410.39v17.272l-13.159,4.976-8.285-9.292L125.51,407.36Z" transform="translate(-18.089 -47.736)" fill="#f48462"/>
      <ellipse id="Elipse_4923" data-name="Elipse 4923" cx="6.11" cy="19.566" rx="6.11" ry="19.566" transform="translate(77.34 312.33) rotate(-82.87)" fill="#f9ae64"/>
      <path id="Trazado_191926" data-name="Trazado 191926" d="M177.155,406.151v17.281l-14.023,4.976-8.835-9.292L152.85,403.13Z" transform="translate(-22.292 -47.086)" fill="#f48462"/>
      <path id="Trazado_191927" data-name="Trazado 191927" d="M144.182,312.1s33.512,16.858,37.625,23.712-.415,62.666-.415,62.666l-29.712.4-4.113-31.193L124.98,315.138l19.21-3.038Z" transform="translate(-18.007 -33.091)" fill="#68b6d8"/>
      <path id="Trazado_191928" data-name="Trazado 191928" d="M99.373,316.3s-1.354,14.979-.872,19.9S114.5,352.688,114.5,352.688l.77,47.941,34.358,1.532s.745-54.787.178-59.949-23.433-23.924-23.433-23.924l-26.987-2Z" transform="translate(-13.921 -33.735)" fill="#68b6d8"/>
      <path id="Trazado_191929" data-name="Trazado 191929" d="M122.96,241.25l-1.1,8.657s1.244,2.691,6.254,3.74c3.732.787,5.171.1,5.171.1l.034-4.451.025-4.341-8.894-3.173-1.489-.533Z" transform="translate(-17.528 -22.198)" fill="#f48462"/>
      <path id="Trazado_191930" data-name="Trazado 191930" d="M124.918,241.878a3,3,0,0,0,.144.863c1.388,4.57,6.567,6.178,8.716,6.643l.025-4.341-8.894-3.173Z" transform="translate(-17.997 -22.294)"/>
      <path id="Trazado_191931" data-name="Trazado 191931" d="M136.972,221.9s3.165,11.433.609,17.238-7.929,4.062-11.061,2.429a11,11,0,0,1-4.367-3.876,4.7,4.7,0,0,1-4.874-2.556c-1.65-3.157.085-6.262,1.955-6.762s3.774,1.066,3.774,1.066l-1.193-3.36s9.157-14.911,15.165-4.172Z" transform="translate(-16.722 -18.626)" fill="#f48462"/>
      <path id="Trazado_191932" data-name="Trazado 191932" d="M137.722,237.708a.3.3,0,0,1-.144-.034.332.332,0,0,1-.152-.44c.914-1.9-.254-4.265-.262-4.291a.327.327,0,1,1,.584-.3c.051.11,1.32,2.683.271,4.866a.334.334,0,0,1-.3.186Z" transform="translate(-19.875 -20.848)"/>
      <path id="Trazado_191933" data-name="Trazado 191933" d="M122.284,236.6a.338.338,0,0,1-.271-.144l-2.454-3.529a.329.329,0,0,1,.542-.372l2.454,3.529a.327.327,0,0,1-.085.457A.322.322,0,0,1,122.284,236.6Z" transform="translate(-17.165 -20.84)"/>
      <path id="Trazado_191934" data-name="Trazado 191934" d="M119.22,235.71a.33.33,0,1,1,0-.66h2.065a.326.326,0,1,1,0,.652H119.22Z" transform="translate(-17.071 -21.245)"/>
      <path id="Trazado_191935" data-name="Trazado 191935" d="M132.73,232.57a.332.332,0,0,1-.33-.339l.042-2.039a.329.329,0,0,1,.33-.322.332.332,0,0,1,.33.339l-.042,2.04A.329.329,0,0,1,132.73,232.57Z" transform="translate(-19.148 -20.449)"/>
      <path id="Trazado_191936" data-name="Trazado 191936" d="M139.84,233.05a.325.325,0,0,1-.33-.33V230.68a.336.336,0,0,1,.33-.33.325.325,0,0,1,.33.33v2.039A.336.336,0,0,1,139.84,233.05Z" transform="translate(-20.241 -20.523)"/>
      <path id="Trazado_191937" data-name="Trazado 191937" d="M131.75,228.245a.365.365,0,0,1-.2-.068.324.324,0,0,1-.059-.457,2.412,2.412,0,0,1,2.75-.559.33.33,0,1,1-.254.609c-.051-.025-1.32-.516-1.98.347a.328.328,0,0,1-.262.127Z" transform="translate(-18.997 -20)"/>
      <path id="Trazado_191938" data-name="Trazado 191938" d="M140.7,228.608a.321.321,0,0,1-.288-.169,1.584,1.584,0,0,0-.821-.694.927.927,0,0,0-.719.152.331.331,0,0,1-.355-.559,1.5,1.5,0,0,1,1.236-.237,2.21,2.21,0,0,1,1.227,1.016.34.34,0,0,1-.127.449.35.35,0,0,1-.161.042Z" transform="translate(-20.064 -20.016)"/>
      <path id="Trazado_191939" data-name="Trazado 191939" d="M123.871,229.824s3.207-1.532,3.478-4.553-.271-3.876-.271-3.876a28.763,28.763,0,0,0,6.381-.161,8.572,8.572,0,0,0,2.81-.863l.652,1.041c.863.093,3.605-4.824,2.454-5.941s-8.437.262-8.437.262-7.032-2.81-12.068,1.743-1.176,11.365-1.176,11.365,1.659-2.488,6.186.982Z" transform="translate(-16.67 -18.144)"/>
      <path id="Trazado_191940" data-name="Trazado 191940" d="M133.991,241.972a2.291,2.291,0,0,1-.965-.212,1.368,1.368,0,0,1-.77-.812,1.885,1.885,0,0,1,.118-1.312.383.383,0,0,1,.195-.169.331.331,0,0,1,.254.025l2.632,1.464a.341.341,0,0,1,.169.271.357.357,0,0,1-.144.288,2.855,2.855,0,0,1-1.489.449Zm-1.134-1.7a1.006,1.006,0,0,0,.017.474.757.757,0,0,0,.432.423,1.8,1.8,0,0,0,1.269.059Z" transform="translate(-19.114 -21.922)"/>
      <path id="Trazado_191941" data-name="Trazado 191941" d="M150.07,445.277s.618-27.774,4.934-27.2,8.632,4.629,8.632,4.629,9.867-5.2,14.183-2.319,6.8,9.258,6.8,9.258l24.034,15.622s2.9,4.629,2.073,6.948c-.652,1.8-37.21.8-53.238.262a7.43,7.43,0,0,1-7.4-7.2h0Z" transform="translate(-21.865 -49.382)" fill="#8e657d"/>
      <path id="Trazado_191942" data-name="Trazado 191942" d="M158.2,439s-6.025-14.75-9.918-17.3-13.625,5.535-13.625,5.535-8.149-8.581-10.155-4.079-2.979,20.623-1.456,24.186,12.7,9.487,27.393,9.444c6.922-.017,16.908-2.158,16.908-4.536.008-3.74-6.787-10.79-9.148-13.252Z" transform="translate(-17.595 -49.864)" fill="#0f2771"/>
      <path id="Trazado_191943" data-name="Trazado 191943" d="M158.118,398.784a.332.332,0,0,1-.33-.339c.017-.508,1.261-51.156,0-57.1-.855-4.045-13.709-16.671-13.836-16.8a.336.336,0,0,1-.093-.3.317.317,0,0,1,.212-.237l9.267-3.4a.329.329,0,0,1,.229.618l-8.776,3.224c2.175,2.158,12.829,12.88,13.65,16.764,1.269,6.017.059,55.159,0,57.25a.329.329,0,0,1-.33.322Z" transform="translate(-20.909 -34.396)" fill="#40507f"/>
      <path id="Trazado_191944" data-name="Trazado 191944" d="M128.773,306.526s7.625,4.181,9.233,4.147,7.388,0,7.76-1.168l-1.709-3.927s3.03,1.709,5.323.846,5.154-2.81,5.882-4.468-1.8-1.608-1.8-1.608,4.333-3.419.931-5.348-19.913-3.969-26.826-.694,1.2,12.212,1.2,12.212Z" transform="translate(-17.976 -30.09)" fill="#f48462"/>
      <path id="Trazado_191945" data-name="Trazado 191945" d="M157.194,301.738a.3.3,0,0,1-.144-.034,19.164,19.164,0,0,0-7.642-1.625.33.33,0,0,1-.339-.322.336.336,0,0,1,.322-.339,19.462,19.462,0,0,1,7.938,1.693.325.325,0,0,1,.152.44.334.334,0,0,1-.3.186Z" transform="translate(-21.711 -31.141)"/>
      <path id="Trazado_191946" data-name="Trazado 191946" d="M117.651,361.387a.333.333,0,0,1-.178-.051.318.318,0,0,1-.144-.3c.017-.2.5-4.925,2.827-6.482a2.971,2.971,0,0,1,2.64-.338c.829.254,1.286.677,1.354,1.261.237,2.133-5.661,5.509-6.33,5.882a.38.38,0,0,1-.161.042Zm4.121-6.685a2.189,2.189,0,0,0-1.252.389c-1.6,1.066-2.243,4.028-2.454,5.348,2.37-1.4,5.551-3.724,5.425-4.908-.034-.3-.33-.533-.889-.7a2.95,2.95,0,0,0-.829-.127Z" transform="translate(-16.831 -39.54)" fill="#40507f"/>
      <path id="Trazado_191947" data-name="Trazado 191947" d="M143.4,306.155h41.535L196.8,279.32H156.9a2.512,2.512,0,0,0-2.3,1.5l-11.2,25.337Z" transform="translate(-20.838 -28.051)" fill="#fff"/>
      <path id="Trazado_191948" data-name="Trazado 191948" d="M147.66,306.155h41.535l10.587-23.949a2.055,2.055,0,0,0-1.879-2.886H159.525L147.66,306.155Z" transform="translate(-21.494 -28.051)" fill="#92b4ea"/>
      <path id="Trazado_191949" data-name="Trazado 191949" d="M126.643,314.415h58.646a1.693,1.693,0,1,0,0-3.385H126.643a1.693,1.693,0,1,0,0,3.385Z" transform="translate(-18.003 -32.926)"/>
      <path id="Trazado_191950" data-name="Trazado 191950" d="M99.142,317.555h-.652a.387.387,0,0,1-.381-.389.379.379,0,0,1,.381-.381,91.506,91.506,0,0,0,21.157-2.327.374.374,0,0,1,.465.279.387.387,0,0,1-.279.465,94.051,94.051,0,0,1-20.7,2.353Z" transform="translate(-13.876 -33.451)" fill="#ffba57"/>
      <path id="Trazado_191951" data-name="Trazado 191951" d="M174.4,294.529A3.529,3.529,0,1,0,177.929,291,3.532,3.532,0,0,0,174.4,294.529Z" transform="translate(-25.605 -29.847)" fill="#fff"/>
      <path id="Trazado_191952" data-name="Trazado 191952" d="M106.746,251.48S96.9,252.572,89.3,264.191a58.637,58.637,0,0,0-8.945,23.661l24.922-2.048,1.472-34.324Z" transform="translate(-11.148 -23.771)" fill="#6876aa"/>
      <path id="Trazado_191953" data-name="Trazado 191953" d="M83.208,293.863s-2.446,10.654,4.824,15.69c7.032,4.866,34.291-3.08,34.291-3.08l.076-12.711L102.6,292.23Z" transform="translate(-11.525 -30.036)" fill="#f48462"/>
      <path id="Trazado_191954" data-name="Trazado 191954" d="M120.65,261.246a1.775,1.775,0,0,1-.432-.051,1.224,1.224,0,0,1-.8-.643c-1.058-2.04,1.422-8.513,1.709-9.25a.316.316,0,0,1,.245-.2.341.341,0,0,1,.3.1c5.763,6.262,10.824,3.876,11.035,3.766a.336.336,0,0,1,.372.051c.364.33,3.52,3.309,3.351,4.959a1.083,1.083,0,0,1-.533.846c-1.9,1.159-6.237-3.207-7.371-4.4C127.369,257.48,123.028,261.246,120.65,261.246Zm.914-9.216c-.821,2.2-2.276,6.829-1.557,8.217a.572.572,0,0,0,.364.313c1.693.406,5.958-3.03,7.735-4.629a12.756,12.756,0,0,1-6.542-3.9Zm7.557,4.054c2.023,2.116,5.3,4.883,6.449,4.181a.438.438,0,0,0,.22-.347c.093-.965-1.726-3.063-3-4.265a8.238,8.238,0,0,1-3.681.432Z" transform="translate(-17.113 -23.712)" fill="#feca2e"/>
      <path id="Trazado_191955" data-name="Trazado 191955" d="M109.74,291.074a.346.346,0,0,1-.33-.364l.719-6.8a.332.332,0,0,1,.66.068l-.719,6.8A.331.331,0,0,1,109.74,291.074Z" transform="translate(-15.613 -28.71)" fill="#f7b369"/>
      <path id="Trazado_191956" data-name="Trazado 191956" d="M150.01,290.82a.33.33,0,0,1-.33-.33V279.26a.33.33,0,0,1,.33-.33.325.325,0,0,1,.33.33v11.23A.33.33,0,0,1,150.01,290.82Z" transform="translate(-21.805 -27.991)" fill="#f7b369"/>
      <g id="Grupo_141082" data-name="Grupo 141082" transform="translate(269.95 155.159)">
        <path id="Trazado_191957" data-name="Trazado 191957" d="M379.493,415.92v11.653l-21.173-.829V415.92Z" transform="translate(-323.831 -204.211)" fill="#f48462"/>
        <path id="Trazado_191958" data-name="Trazado 191958" d="M437.549,414.37v11.653l-19.6-.829V414.37Z" transform="translate(-332.999 -203.973)" fill="#f48462"/>
        <path id="Trazado_191959" data-name="Trazado 191959" d="M380.385,264.826s-11.1,22.257-20.158,62.386a462.118,462.118,0,0,0-10.037,66.88h35.729s3.977-29.848,5.035-41.653,4.578-27.614,4.578-27.614,4.9,68.124,6.076,69.275,35.374.254,35-1.312S425.8,278.248,424.873,270.8c-2.843-22.9-44.479-5.975-44.479-5.975Z" transform="translate(-322.581 -180.056)" fill="#0f2771"/>
        <path id="Trazado_191960" data-name="Trazado 191960" d="M412.2,446.64c0,2.056.669,4.409,2.031,5s12.415,1.828,22.087.956c9.258-.838,11.179-1.549,11.865-2.42.33-.44-.322-2.5-1.066-4.494-.051-.1-.076-.212-.127-.313-.381-1.007-.779-1.972-1.066-2.666a11.56,11.56,0,0,0-1.049-1.9,33.327,33.327,0,0,1-3.5-5.924c-.669-2.039-1.684-6.448-2.37-8.522a3.724,3.724,0,0,0-2.353-2.471s-19.041-1.346-20.4-.161c-1.354,1.168-2.031,10.874-2.031,12.338v1.464c0,1.362-.905,4.062-1.489,6.3-.161.558-.288,1.083-.381,1.566a6.783,6.783,0,0,0-.161,1.236Z" transform="translate(-332.113 -205.337)" fill="#92b4ea"/>
        <path id="Trazado_191961" data-name="Trazado 191961" d="M317.977,450.994c1.269.542,55.312,2.073,56.564,0,.381-.626.652-2.75.829-5.416.448-6.288.448-15.63.448-15.63a38.876,38.876,0,0,0,.322-4.671c-.059-1.464-26.056-.906-26.056-.906l-16.9,13.8a31.325,31.325,0,0,0-9.707,0c-2.683.44-4.417,3.85-5.272,7.058-.762,2.843-.829,5.492-.22,5.755Z" transform="translate(-317.567 -205.494)" fill="#92b4ea"/>
        <path id="Trazado_191962" data-name="Trazado 191962" d="M317.976,454.8c1.269.542,55.312,2.073,56.564,0,.381-.626.652-2.75.829-5.416-10.274.753-35.56,2.192-57.173-.347-.762,2.843-.829,5.492-.22,5.755Z" transform="translate(-317.566 -209.303)" fill="#f7b369"/>
        <path id="Trazado_191963" data-name="Trazado 191963" d="M412.2,450.381c0,2.056.669,4.409,2.031,5s12.415,1.828,22.087.956c9.258-.838,11.179-1.549,11.865-2.42.33-.44-.322-2.5-1.066-4.494-8.59.677-24.11,1.286-34.384-1.845-.161.559-.288,1.083-.381,1.566a6.783,6.783,0,0,0-.161,1.236Z" transform="translate(-332.113 -209.078)" fill="#f7b369"/>
        <path id="Trazado_191964" data-name="Trazado 191964" d="M400.988,330.195c-.008-.144-1.125-14.818-1.447-21.334-.279-5.568-.33-8.657-.339-9.453l-11.382-5.247.279-.6,11.763,5.425v.212s.017,3.14.339,9.63,1.439,21.165,1.447,21.317Z" transform="translate(-328.367 -185.4)" fill="#fff"/>
        <path id="Trazado_191965" data-name="Trazado 191965" d="M437.71,434.887a.2.2,0,0,1-.085-.017c-.076-.017-7.506-2.065-11.247-1.4l-3.859.685a.329.329,0,0,1-.355-.178.324.324,0,0,1,.076-.389c.279-.254,6.965-6.093,10.968-4.324a.325.325,0,0,1,.169.432.332.332,0,0,1-.432.169c-2.784-1.236-7.32,1.887-9.292,3.419l2.606-.465c3.884-.694,11.23,1.329,11.543,1.413a.326.326,0,0,1,.228.406.333.333,0,0,1-.313.245Z" transform="translate(-333.641 -206.211)" fill="#fff"/>
        <path id="Trazado_191966" data-name="Trazado 191966" d="M340.74,436.139a.331.331,0,0,1-.034-.66l9.021-.965-2.97-3.622a.33.33,0,1,1,.508-.423l3.36,4.1a.333.333,0,0,1,.051.33.34.34,0,0,1-.271.2l-9.63,1.024h-.034Z" transform="translate(-321.078 -206.43)" fill="#fff"/>
        <path id="Trazado_191967" data-name="Trazado 191967" d="M436.193,290.368a20.811,20.811,0,0,1-7.8-11.035l.635-.152a20.552,20.552,0,0,0,7.549,10.654Z" transform="translate(-334.604 -183.189)" fill="#fff"/>
        <path id="Trazado_191968" data-name="Trazado 191968" d="M392.8,202.783s-1.329.3-1.65.8a7.506,7.506,0,0,0-.271,2.454s-14.234.127-27.453,16.231-15.961,24.609-11.6,31.54,25.87,5.01,25.87,5.01,6.271,6.736,22.705,7.515,25.151-6.77,25.151-6.77,27.41-6.288,25.6-25.083-29.128-27.715-35.179-29.094a44.188,44.188,0,0,0-10.553-1.176s-.245-.965-.525-1.134c-1.506-.914-12.093-.279-12.093-.279Z" transform="translate(-322.537 -171.412)" fill="#6876aa"/>
        <path id="Trazado_191969" data-name="Trazado 191969" d="M395.173,235.505s-4.35-2.547-3.436,5.052c.643,5.391,4.468-1.684,4.468-1.684l-1.041-3.36Z" transform="translate(-328.949 -176.411)" fill="#f48462"/>
        <path id="Trazado_191970" data-name="Trazado 191970" d="M399.512,183.569s-6.042-2.708-6.6,2c-.652,5.45,5.873,5.619,5.873,5.619l.719-7.616Z" transform="translate(-329.142 -168.371)" fill="#f48462"/>
        <path id="Trazado_191971" data-name="Trazado 191971" d="M396.632,188.65a.321.321,0,0,1-.288-.169l-1.972-3.52a.332.332,0,0,1,.127-.449.325.325,0,0,1,.449.127l1.972,3.52a.332.332,0,0,1-.127.449A.38.38,0,0,1,396.632,188.65Z" transform="translate(-329.368 -168.628)"/>
        <path id="Trazado_191972" data-name="Trazado 191972" d="M395.955,188.01H394.22a.33.33,0,1,1,0-.66h1.735a.33.33,0,1,1,0,.66Z" transform="translate(-329.3 -169.071)"/>
        <path id="Trazado_191973" data-name="Trazado 191973" d="M411.381,198.859l-.068,6.389a13.376,13.376,0,0,1-5.577,1.278c-4.164,0-5.526-2.5-5.526-2.5l.169-7.489,11,2.319Z" transform="translate(-330.271 -170.484)" fill="#f48462"/>
        <path id="Trazado_191974" data-name="Trazado 191974" d="M411.3,198.958s-2.09,5.137-6.8,4.341c-3.8-.635-4.79-6.059-4.79-6.059Z" transform="translate(-330.195 -170.591)"/>
        <path id="Trazado_191975" data-name="Trazado 191975" d="M398.336,176.591s-2.886,11.645.372,16.891a7.9,7.9,0,0,0,11.5,2.446,9.753,9.753,0,0,0,3.614-5.3s4,.872,5.4-2.378c1.473-3.41-.982-6.237-2.987-6.432s-2.243.161-2.243.161l.66-3.664s-11.958-13.794-16.316-1.718Z" transform="translate(-329.802 -166.656)" fill="#f48462"/>
        <path id="Trazado_191976" data-name="Trazado 191976" d="M417.67,189.5a.343.343,0,0,1-.254-.118.333.333,0,0,1,.042-.465l3.148-2.6a.33.33,0,0,1,.423.508l-3.148,2.6A.325.325,0,0,1,417.67,189.5Z" transform="translate(-332.905 -168.9)"/>
        <path id="Trazado_191977" data-name="Trazado 191977" d="M420.712,190.355a.365.365,0,0,1-.2-.068l-1.8-1.4a.332.332,0,0,1,.406-.525l1.8,1.4a.335.335,0,0,1,.059.465A.328.328,0,0,1,420.712,190.355Z" transform="translate(-333.095 -169.215)"/>
        <path id="Trazado_191978" data-name="Trazado 191978" d="M410.6,185.663a.341.341,0,0,1-.33-.355l.152-1.963a.332.332,0,0,1,.355-.3.338.338,0,0,1,.3.355l-.152,1.963a.338.338,0,0,1-.33.3Z" transform="translate(-331.818 -168.408)"/>
        <path id="Trazado_191979" data-name="Trazado 191979" d="M401.71,185.013a.341.341,0,0,1-.33-.355l.152-1.963a.333.333,0,0,1,.355-.3.338.338,0,0,1,.3.355l-.152,1.963a.338.338,0,0,1-.33.3Z" transform="translate(-330.451 -168.308)"/>
        <path id="Trazado_191980" data-name="Trazado 191980" d="M405.672,190.608a.32.32,0,0,1-.322-.271,10.789,10.789,0,0,1,.525-5.7.33.33,0,1,1,.609.254,10.514,10.514,0,0,0-.482,5.331.327.327,0,0,1-.262.381h-.059Z" transform="translate(-331.036 -168.622)"/>
        <path id="Trazado_191981" data-name="Trazado 191981" d="M400.66,180.361a.343.343,0,0,1-.254-.118.326.326,0,0,1,.042-.465,3.87,3.87,0,0,1,2.31-.677.336.336,0,0,1,.322.339.331.331,0,0,1-.339.322,3.331,3.331,0,0,0-1.87.525.325.325,0,0,1-.212.076Z" transform="translate(-330.289 -167.803)"/>
        <path id="Trazado_191982" data-name="Trazado 191982" d="M411.675,181.462a.339.339,0,0,1-.195-.068,3.269,3.269,0,0,0-1.9-.415.327.327,0,1,1-.059-.652,3.917,3.917,0,0,1,2.353.542.326.326,0,0,1,.068.457.337.337,0,0,1-.262.135Z" transform="translate(-331.658 -167.99)"/>
        <path id="Trazado_191983" data-name="Trazado 191983" d="M417.8,183.415s-1.329,3.58-1.794,3.427.423-5.831,1.786-6.034,0,2.606,0,2.606Z" transform="translate(-332.681 -168.064)"/>
        <path id="Trazado_191984" data-name="Trazado 191984" d="M398.574,252.126s-.855,7.574-6.66,5.7-3.757-10.341-3.757-10.341l10.417,4.637Z" transform="translate(-328.364 -178.315)" fill="#f48462"/>
        <path id="Trazado_191985" data-name="Trazado 191985" d="M413.981,180.56a14.677,14.677,0,0,1-6.584-2.886,10.4,10.4,0,0,1-2.877-4.511,7.131,7.131,0,0,0-4.3,1.016c-2.581,1.354-3.089,6.042-3.089,6.042s-4.037-8.276-1.667-10.951,5.78-.093,5.78-.093-.279-5.255,6.8-2.75a12.714,12.714,0,0,1,8.3,8.843s2.48-.051,2.623,2.251a10.366,10.366,0,0,1-.939,4.553,2.67,2.67,0,0,0-2.691-.592l-1.684.5.33-1.43Z" transform="translate(-329.427 -165.75)"/>
        <path id="Trazado_191986" data-name="Trazado 191986" d="M400.3,202.818s1.252,1.481,4.468,1.921,6.347-1.853,6.347-1.853l1.659,4.054-5.5,2.564-8.547-1.693.432-3.867,1.142-1.134Z" transform="translate(-330.044 -171.448)" fill="#6876aa"/>
        <path id="Trazado_191987" data-name="Trazado 191987" d="M385.3,241.509a.229.229,0,0,1-.127-.025c-.11-.042-10.841-4.536-21.326-.542a.329.329,0,0,1-.423-.186.325.325,0,0,1,.186-.423c10.739-4.087,21.707.508,21.817.559a.33.33,0,0,1-.127.635Z" transform="translate(-324.613 -176.956)" fill="#fff"/>
        <path id="Trazado_191988" data-name="Trazado 191988" d="M424.441,248.5s-4.451-9.986-5.179-10.705-9.3-3.808-10.477-3.774.618,2.683,1.532,3.436,2.09,1.574,2.09,1.574-6.457-.118-7.075.965,1.092,2.116,1.092,2.116-2.319.152-1.515,1.65,7.109,3.275,7.109,3.275,1.092,6.322,5.331,7.9,6.237,1.185,6.237,1.185l.855-7.616Z" transform="translate(-330.968 -176.246)" fill="#f48462"/>
        <path id="Trazado_191989" data-name="Trazado 191989" d="M423.81,243.91s2.124-7.337,3.207-4.984.364,10.265.364,10.265l-3.14-1.083-.423-4.189Z" transform="translate(-333.9 -176.929)" fill="#f48462"/>
        <rect id="Rectángulo_44078" data-name="Rectángulo 44078" width="11.865" height="20.987" rx="1.95" transform="matrix(-0.998, -0.071, 0.071, -0.998, 77.427, 76.988)" fill="#fff"/>
        <rect id="Rectángulo_44079" data-name="Rectángulo 44079" width="11.865" height="20.987" rx="1.95" transform="matrix(-0.998, -0.071, 0.071, -0.998, 76.14, 76.893)"/>
        <path id="Trazado_191990" data-name="Trazado 191990" d="M390.207,244.246s-5.128-1.633-3.038-3.724,11.8-1.379,12.254,1.65-9.216,2.082-9.216,2.082Z" transform="translate(-328.189 -177.062)" fill="#f48462"/>
        <path id="Trazado_191991" data-name="Trazado 191991" d="M389.877,249.486s-5.128-1.633-3.038-3.724,11.8-1.379,12.254,1.65-9.216,2.082-9.216,2.082Z" transform="translate(-328.139 -177.867)" fill="#f48462"/>
        <path id="Trazado_191992" data-name="Trazado 191992" d="M392.763,254.241a6.752,6.752,0,0,1-3.36-1.2c-.872-.635-1.506-1.489-.542-2.37,1.929-1.769,10.485-.753,10.764,1.946C399.838,254.63,395.158,254.453,392.763,254.241Z" transform="translate(-328.452 -178.67)" fill="#f48462"/>
        <path id="Trazado_191993" data-name="Trazado 191993" d="M396.9,244.9c-.042,0-7.413-.889-7.413-.889a.389.389,0,0,1-.339-.432.379.379,0,0,1,.432-.339l7.371.889a.389.389,0,0,1,.339.432.384.384,0,0,1-.381.339Z" transform="translate(-328.571 -177.663)"/>
        <path id="Trazado_191994" data-name="Trazado 191994" d="M397.241,250.5c-.042,0-7.413-.889-7.413-.889a.389.389,0,0,1-.339-.432.375.375,0,0,1,.432-.339l7.371.889a.389.389,0,0,1,.339.432.384.384,0,0,1-.381.339Z" transform="translate(-328.623 -178.524)"/>
        <path id="Trazado_191995" data-name="Trazado 191995" d="M418.669,240.8l-4.968-.55a.363.363,0,0,1-.322-.406.359.359,0,0,1,.406-.322l4.925.55a.363.363,0,0,1,.322.406.36.36,0,0,1-.364.322Z" transform="translate(-332.296 -177.091)"/>
        <path id="Trazado_191996" data-name="Trazado 191996" d="M415.343,244.666l-4.764-.339a.362.362,0,0,1-.339-.389.343.343,0,0,1,.389-.339l4.739.339a.362.362,0,0,1,.339.389A.368.368,0,0,1,415.343,244.666Z" transform="translate(-331.813 -177.718)"/>
        <path id="Trazado_191997" data-name="Trazado 191997" d="M426.07,248.492a.371.371,0,0,1-.347-.245l-1.777-5.035a.364.364,0,0,1,.686-.245L426.409,248a.368.368,0,0,1-.22.465.308.308,0,0,1-.118.017Z" transform="translate(-333.917 -177.584)"/>
        <path id="Trazado_191998" data-name="Trazado 191998" d="M429.611,243.279a.327.327,0,0,1-.229-.093.332.332,0,0,1,0-.465,51.417,51.417,0,0,1,18.838-11.213.337.337,0,0,1,.415.22.334.334,0,0,1-.22.415,50.716,50.716,0,0,0-18.567,11.052.319.319,0,0,1-.228.093Z" transform="translate(-334.742 -175.858)" fill="#fff"/>
        <path id="Trazado_191999" data-name="Trazado 191999" d="M438.77,236.552a.35.35,0,0,1-.161-.042.335.335,0,0,1-.161-.364c.186-.787,1.938-7.676,4.858-7.506a.874.874,0,0,1,.88.542c.567,1.5-3.825,5.949-5.188,7.278a.327.327,0,0,1-.228.093Zm4.443-7.252c-1.684,0-3.106,3.512-3.8,5.814,2.319-2.386,4.409-5.035,4.155-5.7-.034-.085-.178-.11-.3-.118Z" transform="translate(-336.149 -175.418)" fill="#fff"/>
        <path id="Trazado_192000" data-name="Trazado 192000" d="M375.72,238.467a.389.389,0,0,1-.085-.008c-.533-.144-5.213-1.473-5.7-3.334a1.435,1.435,0,0,1,.491-1.447,1.715,1.715,0,0,1,1.583-.533c2.065.4,3.944,4.688,4.028,4.874a.341.341,0,0,1-.051.347.3.3,0,0,1-.245.11Zm-4.045-4.705a1.142,1.142,0,0,0-.8.372c-.423.415-.338.711-.313.812.262,1,2.7,2.073,4.553,2.666-.685-1.379-2.031-3.6-3.241-3.834a.758.758,0,0,0-.195-.017Z" transform="translate(-325.61 -176.107)" fill="#fff"/>
        <path id="Trazado_192001" data-name="Trazado 192001" d="M382.68,268.814a.327.327,0,0,1-.33-.313.331.331,0,0,1,.313-.347,13.083,13.083,0,0,0,6.821-2.547.334.334,0,0,1,.465.051.327.327,0,0,1-.051.465,13.537,13.537,0,0,1-7.2,2.691h-.017Z" transform="translate(-327.526 -181.091)" fill="#fff"/>
        <path id="Trazado_192002" data-name="Trazado 192002" d="M436.782,269.607c-5.975-.7-8.09-2.327-8.175-2.4a.317.317,0,0,1-.051-.457.335.335,0,0,1,.465-.059c.017.017,2.09,1.583,7.811,2.26a.33.33,0,0,1,.288.364.323.323,0,0,1-.33.288Z" transform="translate(-334.618 -181.258)" fill="#fff"/>
        <path id="Trazado_192003" data-name="Trazado 192003" d="M403.879,209.958a7.048,7.048,0,0,1-5.907-3.207.325.325,0,0,1,.127-.449.33.33,0,0,1,.449.118,6.324,6.324,0,0,0,6.762,2.733.327.327,0,0,1,.118.643,8.42,8.42,0,0,1-1.54.144Z" transform="translate(-329.921 -171.978)" fill="#fff"/>
        <path id="Trazado_192004" data-name="Trazado 192004" d="M406.514,196.417a3.148,3.148,0,0,1-2.048-1.083.33.33,0,0,1-.068-.3.32.32,0,0,1,.22-.22l3.808-1.2a.355.355,0,0,1,.33.076.337.337,0,0,1,.085.33c-.025.085-.652,2.039-1.913,2.353a1.669,1.669,0,0,1-.406.051Zm-1.159-1.151a1.754,1.754,0,0,0,1.413.465c.516-.127.931-.753,1.193-1.286l-2.606.829Z" transform="translate(-330.914 -170.031)"/>
      </g>
      <rect id="Rectángulo_44080" data-name="Rectángulo 44080" width="9.3" height="63.419" transform="translate(465.635 327.094)" fill="#92b4ea"/>
      <path id="Trazado_192005" data-name="Trazado 192005" d="M569.822,447.289H530.81a2.92,2.92,0,1,1,0-5.839h39.013a2.92,2.92,0,0,1,0,5.839Z" transform="translate(-79.95 -52.977)" fill="#92b4ea"/>
      <path id="Trazado_192006" data-name="Trazado 192006" d="M535.225,452.5a6.288,6.288,0,1,1-6.288-6.288A6.291,6.291,0,0,1,535.225,452.5Z" transform="translate(-79.145 -53.709)" fill="#92b4ea"/>
      <path id="Trazado_192007" data-name="Trazado 192007" d="M559.435,452.5a6.288,6.288,0,1,1-6.288-6.288A6.291,6.291,0,0,1,559.435,452.5Z" transform="translate(-82.867 -53.709)" fill="#92b4ea"/>
      <path id="Trazado_192008" data-name="Trazado 192008" d="M583.535,452.5a6.288,6.288,0,1,1-6.288-6.288A6.291,6.291,0,0,1,583.535,452.5Z" transform="translate(-86.572 -53.709)" fill="#92b4ea"/>
      <path id="Trazado_192009" data-name="Trazado 192009" d="M574.4,299.05s19.693,11.78,15.317,37.616c-5.035,29.729-34.68,39.368-60.389,32.344S507.9,341.735,507.9,341.735l66.5-42.677Z" transform="translate(-76.836 -31.084)" fill="#5c69a5"/>
      <path id="Trazado_192010" data-name="Trazado 192010" d="M591.089,359.508a.329.329,0,0,1-.245-.11.325.325,0,0,1,.017-.465c6.372-5.89,7.6-17.467,7.608-17.577a.332.332,0,0,1,.66.068c-.051.482-1.269,11.932-7.819,18A.313.313,0,0,1,591.089,359.508Z" transform="translate(-89.615 -37.543)" fill="#d2f2fa"/>
      <path id="Trazado_192011" data-name="Trazado 192011" d="M540.878,257.32s-13.413,1.185-18.448,7.667,1.616,47.078,1.98,47.644,9.7,4.705,25.989,4.341,20.243-3.47,20.784-4.341,3.961-46.714,0-50.589-20.48-5.9-30.3-4.714Z" transform="translate(-78.822 -24.618)" fill="#92b4ea"/>
      <path id="Trazado_192012" data-name="Trazado 192012" d="M523.28,417.3v17.281l13.151,4.976,8.293-9.3,1.362-15.977Z" transform="translate(-79.242 -48.8)" fill="#f48462"/>
      <path id="Trazado_192013" data-name="Trazado 192013" d="M576.6,349.38c1,3.224-6.55,8.429-16.866,11.636s-19.49,3.2-20.5-.025,6.55-8.429,16.866-11.636S575.589,346.155,576.6,349.38Z" transform="translate(-81.681 -38.449)" fill="#465884"/>
      <path id="Trazado_192014" data-name="Trazado 192014" d="M494.18,413.071v17.281l14.014,4.976,8.835-9.3,1.456-15.977Z" transform="translate(-74.768 -48.149)" fill="#f48462"/>
      <path id="Trazado_192015" data-name="Trazado 192015" d="M520.931,319.02s-33.512,16.858-37.625,23.712.415,62.666.415,62.666l29.712.4,4.113-31.193,22.587-52.544-19.21-3.038Z" transform="translate(-72.831 -34.155)" fill="#feca2e"/>
      <path id="Trazado_192016" data-name="Trazado 192016" d="M567,323.007s1.354,14.979.872,19.9S551.877,359.4,551.877,359.4l-.77,47.941-34.358,1.532s-.745-54.787-.178-59.949,25.142-27.03,25.142-27.03L566.992,323Z" transform="translate(-78.177 -34.596)" fill="#feca2e"/>
      <path id="Trazado_192017" data-name="Trazado 192017" d="M551.818,249.11l-.195,8.725s-1.633,2.471-6.745,2.776c-3.808.229-5.128-.669-5.128-.669l.626-4.409.618-4.3,9.258-1.819,1.557-.3Z" transform="translate(-81.774 -23.407)" fill="#f48462"/>
      <path id="Trazado_192018" data-name="Trazado 192018" d="M550.376,249.47a2.97,2.97,0,0,1-.271.838c-2.048,4.316-7.4,5.137-9.605,5.281l.618-4.3,9.258-1.819Z" transform="translate(-81.889 -23.462)"/>
      <path id="Trazado_192019" data-name="Trazado 192019" d="M538.814,227.5s-4.824,10.841-3.148,16.959,7.244,5.2,10.578,4.037a11.013,11.013,0,0,0,4.891-3.19,4.7,4.7,0,0,0,5.2-1.8c2.1-2.877.838-6.2-.931-6.982s-3.893.491-3.893.491l1.676-3.148s-6.855-16.1-14.378-6.364Z" transform="translate(-81.091 -19.604)" fill="#f48462"/>
      <path id="Trazado_192020" data-name="Trazado 192020" d="M539.84,243.446a.328.328,0,0,1-.313-.228c-.719-2.319.914-4.671.982-4.773a.328.328,0,0,1,.533.381c-.017.025-1.515,2.192-.9,4.2a.334.334,0,0,1-.22.415.425.425,0,0,1-.1.017Z" transform="translate(-81.711 -21.746)"/>
      <path id="Trazado_192021" data-name="Trazado 192021" d="M554.95,244.631a.307.307,0,0,1-.229-.093.332.332,0,0,1-.017-.465l2.953-3.131a.341.341,0,0,1,.465-.017.332.332,0,0,1,.017.465l-2.953,3.131a.334.334,0,0,1-.237.1Z" transform="translate(-84.059 -22.135)"/>
      <path id="Trazado_192022" data-name="Trazado 192022" d="M558.269,244.154c-.051,0-2.09-.313-2.09-.313a.332.332,0,0,1-.279-.372.327.327,0,0,1,.372-.279l2.039.313a.332.332,0,0,1,.279.372A.327.327,0,0,1,558.269,244.154Z" transform="translate(-84.256 -22.496)"/>
      <path id="Trazado_192023" data-name="Trazado 192023" d="M545.69,239.092a.343.343,0,0,1-.33-.372l.262-2.023a.328.328,0,1,1,.652.076l-.262,2.023a.329.329,0,0,1-.33.288Z" transform="translate(-82.636 -21.454)"/>
      <path id="Trazado_192024" data-name="Trazado 192024" d="M538.591,238.522a.332.332,0,0,1-.322-.381l.3-2.023a.329.329,0,0,1,.652.093l-.3,2.023a.327.327,0,0,1-.322.279Z" transform="translate(-81.545 -21.366)"/>
      <path id="Trazado_192025" data-name="Trazado 192025" d="M546.918,234.925a.321.321,0,0,1-.288-.169c-.533-.965-1.9-.643-1.9-.635a.328.328,0,0,1-.4-.237.332.332,0,0,1,.237-.4,2.428,2.428,0,0,1,2.64.956.34.34,0,0,1-.127.449.35.35,0,0,1-.161.042Z" transform="translate(-82.476 -20.994)"/>
      <path id="Trazado_192026" data-name="Trazado 192026" d="M538.07,233.984a.365.365,0,0,1-.2-.068.324.324,0,0,1-.059-.457,2.206,2.206,0,0,1,1.362-.821,1.523,1.523,0,0,1,1.185.415.33.33,0,0,1-.432.5.941.941,0,0,0-.685-.262,1.55,1.55,0,0,0-.906.567A.328.328,0,0,1,538.07,233.984Z" transform="translate(-81.465 -20.873)"/>
      <path id="Trazado_192027" data-name="Trazado 192027" d="M550.745,237.068a5.417,5.417,0,0,1-3.089-2.86c-1.016-2.116.347-4.849.347-4.849s-1.362-2.767-5.822-3.52a3.461,3.461,0,0,0-3.106,1.151l-.516,1.117c-.872-.042-2.217-6.457-1.016-7.523,2.344-2.065,8.31,1.506,8.31,1.506s7.371-1.735,11.678,3.512-.516,11.416-.516,11.416-1.278-2.7-6.262.059Z" transform="translate(-81.361 -18.922)"/>
      <path id="Trazado_192028" data-name="Trazado 192028" d="M542.863,248.228a2.773,2.773,0,0,1-1.752-.694.341.341,0,0,1-.1-.3.351.351,0,0,1,.2-.245l2.818-1.058a.329.329,0,0,1,.254.008.348.348,0,0,1,.169.195,1.842,1.842,0,0,1-.076,1.312,1.406,1.406,0,0,1-.88.685,2.19,2.19,0,0,1-.643.093Zm-.8-.855a1.722,1.722,0,0,0,1.261.127.724.724,0,0,0,.482-.355,1,1,0,0,0,.093-.465l-1.836.685Z" transform="translate(-81.967 -22.914)"/>
      <path id="Trazado_192029" data-name="Trazado 192029" d="M471.98,282.631l-.3-1.946S464.2,275,459.608,273.119c-1.938-.787-4.646-.135-2.361,2.429a10.826,10.826,0,0,1,1.853,3.021,29.757,29.757,0,0,1-6.228-2.843c-1.625-1.075-3.994-5.4-5.382-4.46-2.209,1.489.33,5.7.33,5.7s-1.151-5.34-3.334-3.258,3.766,12.575,6.592,15.08,17.755,5.425,17.755,5.425l3.148-11.585Z" transform="translate(-67.056 -26.793)" fill="#f48462"/>
      <path id="Trazado_192030" data-name="Trazado 192030" d="M457.217,281.908c-3.5-.347-6.669-3.284-6.8-3.41a.332.332,0,0,1-.017-.465.341.341,0,0,1,.465-.017c.034.025,3.131,2.911,6.381,3.233a.331.331,0,0,1-.034.66Z" transform="translate(-68.024 -27.838)"/>
      <path id="Trazado_192031" data-name="Trazado 192031" d="M453.273,284.65a.339.339,0,0,1-.195-.068l-3.123-2.336a.327.327,0,0,1,.389-.525l2.945,2.209,6.355-3.859a.327.327,0,0,1,.339.559l-6.55,3.969a.305.305,0,0,1-.169.051Z" transform="translate(-67.948 -28.16)"/>
      <path id="Trazado_192032" data-name="Trazado 192032" d="M467.612,284.531a.3.3,0,0,1-.1-.017,14.945,14.945,0,0,1-6.195-3.944.333.333,0,0,1,.034-.465.325.325,0,0,1,.465.034,14.476,14.476,0,0,0,5.9,3.749.319.319,0,0,1,.212.415A.325.325,0,0,1,467.612,284.531Z" transform="translate(-69.703 -28.159)"/>
      <path id="Trazado_192033" data-name="Trazado 192033" d="M515.948,264.4s-15.207,13.439-27.478,14.226c-5.915.381-13.862-2.446-13.862-2.446l-7.058,18.457s24.8,23.5,50.073,4.984c7.261-5.323-1.676-35.213-1.676-35.213Z" transform="translate(-70.674 -25.757)" fill="#92b4ea"/>
      <path id="Trazado_192034" data-name="Trazado 192034" d="M522.56,289.01a.33.33,0,0,1-.33-.33c0-2.319,3.918-14.192,4.079-14.691a.332.332,0,0,1,.415-.212.34.34,0,0,1,.212.415c-.042.118-4.045,12.279-4.045,14.488a.33.33,0,0,1-.33.33Z" transform="translate(-79.08 -27.197)" fill="#e6f4ff"/>
      <path id="Trazado_192035" data-name="Trazado 192035" d="M514.634,452.187s-.618-27.774-4.934-27.2-8.632,4.629-8.632,4.629-9.867-5.2-14.183-2.319-6.8,9.258-6.8,9.258l-24.034,15.622s-2.9,4.629-2.073,6.948c.652,1.8,37.21.8,53.238.262a7.43,7.43,0,0,0,7.4-7.2h0Z" transform="translate(-68.565 -50.445)" fill="#8e657d"/>
      <path id="Trazado_192036" data-name="Trazado 192036" d="M509.368,445.917s6.025-14.75,9.918-17.3,13.625,5.535,13.625,5.535,8.149-8.581,10.155-4.079,2.979,20.623,1.456,24.186-12.7,9.487-27.393,9.444c-6.922-.017-16.908-2.158-16.908-4.536-.008-3.741,6.787-10.79,9.148-13.252Z" transform="translate(-75.696 -50.928)" fill="#0f2771"/>
      <path id="Trazado_192037" data-name="Trazado 192037" d="M529.382,443.39H518.11a.33.33,0,0,1-.33-.33.325.325,0,0,1,.33-.33h11.272a.33.33,0,0,1,.33.33A.325.325,0,0,1,529.382,443.39Z" transform="translate(-78.396 -53.174)" fill="#fff"/>
      <path id="Trazado_192038" data-name="Trazado 192038" d="M543.2,263.327l-4.934,32.7h4.087l3.63-33.377Z" transform="translate(-81.546 -25.488)" fill="#a2c5f9"/>
      <path id="Trazado_192039" data-name="Trazado 192039" d="M.889,0H4.671A.888.888,0,0,1,5.56.889V21.512a.888.888,0,0,1-.889.889H.889A.888.888,0,0,1,0,21.512V.889A.888.888,0,0,1,.889,0Z" transform="translate(403.482 249.363) rotate(18.45)" fill="#e6f4ff"/>
      <path id="Trazado_192040" data-name="Trazado 192040" d="M527.851,449.41H515.91a.33.33,0,0,1-.33-.33.325.325,0,0,1,.33-.33h11.941a.33.33,0,0,1,.33.33A.325.325,0,0,1,527.851,449.41Z" transform="translate(-78.058 -54.099)" fill="#fff"/>
      <path id="Trazado_192041" data-name="Trazado 192041" d="M490.526,441.162c-.042,0-7.227-.982-7.227-.982a.327.327,0,0,1-.279-.372.316.316,0,0,1,.372-.279l7.185.982a.327.327,0,0,1,.279.372.335.335,0,0,1-.322.288Z" transform="translate(-73.051 -52.68)" fill="#fff"/>
      <path id="Trazado_192042" data-name="Trazado 192042" d="M487.5,446.876c-.051,0-12.135-1.845-12.135-1.845a.329.329,0,0,1,.093-.652l12.093,1.836a.327.327,0,0,1-.042.652Z" transform="translate(-71.832 -53.427)" fill="#fff"/>
      <path id="Trazado_192043" data-name="Trazado 192043" d="M514.875,405.694a.334.334,0,0,1-.33-.322c-.051-2.09-1.269-51.233,0-57.25.821-3.893,11.467-14.606,13.65-16.764l-8.776-3.224a.326.326,0,0,1-.195-.423.333.333,0,0,1,.423-.195l9.267,3.4a.349.349,0,0,1,.212.237.316.316,0,0,1-.093.3c-.127.127-12.982,12.753-13.836,16.8-1.252,5.941,0,56.581,0,57.1a.336.336,0,0,1-.322.339h0Z" transform="translate(-77.81 -35.458)" fill="#40507f"/>
      <path id="Trazado_192044" data-name="Trazado 192044" d="M546.305,313.172s-8.065,3.258-9.656,3.038-7.337-.863-7.566-2.073l2.158-3.7s-3.216,1.346-5.391.22-4.79-3.394-5.315-5.128,1.972-1.388,1.972-1.388-2.835-1.769.77-3.275,19.168-3.757,25.659.313-2.623,11.992-2.623,11.992Z" transform="translate(-78.808 -31.057)" fill="#f48462"/>
      <path id="Trazado_192045" data-name="Trazado 192045" d="M522.83,305.225a.336.336,0,0,1-.313-.22.328.328,0,0,1,.2-.415,19.722,19.722,0,0,1,8.082-.753.332.332,0,0,1,.279.372.327.327,0,0,1-.372.279,19.315,19.315,0,0,0-7.777.719.423.423,0,0,1-.1.017Z" transform="translate(-79.122 -31.801)"/>
      <path id="Trazado_192046" data-name="Trazado 192046" d="M556.85,368.3a.35.35,0,0,1-.161-.042c-.677-.381-6.567-3.757-6.33-5.882.068-.584.516-1.007,1.354-1.261a2.976,2.976,0,0,1,2.632.339c2.327,1.557,2.81,6.288,2.827,6.482a.319.319,0,0,1-.322.355Zm-4.121-6.685a2.95,2.95,0,0,0-.829.127c-.559.169-.855.406-.889.7-.127,1.185,3.047,3.5,5.416,4.9-.211-1.32-.855-4.282-2.454-5.348a2.17,2.17,0,0,0-1.252-.389Z" transform="translate(-83.404 -40.601)" fill="#40507f"/>
      <path id="Trazado_192047" data-name="Trazado 192047" d="M574.888,262.95s23.23,25.286,19.447,41.746-49.625,5.7-49.625,5.7l.5-19.236,23.831-3.732,5.848-24.482Z" transform="translate(-82.536 -25.534)" fill="#92b4ea"/>
      <path id="Trazado_192048" data-name="Trazado 192048" d="M581.438,292.622a48.658,48.658,0,0,1-7.219-.77.344.344,0,0,1-.271-.271.312.312,0,0,1,.169-.339c.288-.152,7.134-3.741,9.977-.685.457.491.592.931.389,1.312-.3.567-1.532.762-3.055.762Zm-6.068-1.244c4,.626,8.166.863,8.547.169.034-.068-.017-.254-.288-.55-1.93-2.073-6.33-.474-8.26.381Z" transform="translate(-87.03 -29.59)" fill="#e6f4ff"/>
      <path id="Trazado_192049" data-name="Trazado 192049" d="M574.072,290.957a.3.3,0,0,1-.186-.059c-2.53-1.752-.575-6.956-.491-7.176a.327.327,0,1,1,.609.237c-.017.051-1.853,4.951.254,6.406a.327.327,0,0,1,.085.457.338.338,0,0,1-.271.144Z" transform="translate(-86.823 -28.696)" fill="#e6f4ff"/>
      <path id="Trazado_192050" data-name="Trazado 192050" d="M524.77,414.293a.327.327,0,0,1-.33-.313.331.331,0,0,1,.313-.347l27.013-1.413a.348.348,0,0,1,.347.313.331.331,0,0,1-.313.347l-27.013,1.413h-.017Z" transform="translate(-79.42 -48.483)" fill="#40507f"/>
      <path id="Trazado_192051" data-name="Trazado 192051" d="M510.442,412.88h-24.1a.33.33,0,0,1-.33-.33.325.325,0,0,1,.33-.33h24.1a.33.33,0,0,1,.33.33A.325.325,0,0,1,510.442,412.88Z" transform="translate(-73.512 -48.483)" fill="#40507f"/>
      <rect id="Rectángulo_44081" data-name="Rectángulo 44081" width="5.568" height="22.409" rx="1.05" transform="translate(461.658 263.726)" fill="#e6f4ff"/>
      <path id="Trazado_192052" data-name="Trazado 192052" d="M539.94,257.866s-2.776,9.317-1.845,9.14,6.5-5.179,6.5-5.179,4.054,5.145,5.382,5.179,1.794-9.986,1.794-9.986-1.371,3.14-6.288,3.842-5.543-2.987-5.543-2.987Z" transform="translate(-81.49 -24.623)" fill="#e6f4ff"/>
      <path id="Trazado_192053" data-name="Trazado 192053" d="M39.48,320.94H50.507V449.665a4.135,4.135,0,0,1-4.13,4.13H43.618a4.135,4.135,0,0,1-4.13-4.13V320.94h0Z" transform="translate(-4.863 -34.45)" fill="#40507f"/>
      <path id="Trazado_192054" data-name="Trazado 192054" d="M414.55,321.06h11.027V449.785a4.135,4.135,0,0,1-4.13,4.13h-2.759a4.135,4.135,0,0,1-4.13-4.13V321.06h0Z" transform="translate(-62.526 -34.468)" fill="#40507f"/>
      <path id="Trazado_192055" data-name="Trazado 192055" d="M496.653,320.877H27.113a3.063,3.063,0,1,1,0-6.127h469.54a3.063,3.063,0,0,1,0,6.127Z" transform="translate(-2.491 -33.498)" fill="#40507f"/>
      <path id="Trazado_192056" data-name="Trazado 192056" d="M542.721,221.5s-2.116-3.783,1.591-4.46,7.32,2.86,7.32,2.86a1.876,1.876,0,0,1,2.479-1.269c1.98.592,6.432,5.315,5.044,7.743s-10.172-2.276-10.172-2.276l-6.262-2.606Z" transform="translate(-82.138 -18.464)"/>
      <path id="Trazado_192057" data-name="Trazado 192057" d="M520.829,306.285H479.295L467.43,279.45h39.9a2.512,2.512,0,0,1,2.3,1.5l11.2,25.337Z" transform="translate(-70.655 -28.071)" fill="#fff"/>
      <path id="Trazado_192058" data-name="Trazado 192058" d="M516.759,306.285H475.224l-10.587-23.949a2.055,2.055,0,0,1,1.879-2.886h38.378Z" transform="translate(-70.199 -28.071)" fill="#6876aa"/>
      <path id="Trazado_192059" data-name="Trazado 192059" d="M536.018,314.555H477.373a1.693,1.693,0,1,1,0-3.385h58.646a1.693,1.693,0,0,1,0,3.385Z" transform="translate(-71.924 -32.948)"/>
      <path id="Trazado_192060" data-name="Trazado 192060" d="M498.248,294.669a3.529,3.529,0,1,1-3.529-3.529A3.532,3.532,0,0,1,498.248,294.669Z" transform="translate(-74.308 -29.868)" fill="#fff"/>
      <path id="Trazado_192061" data-name="Trazado 192061" d="M199.462,204.347s-1.024.186-1.092.838,4.748,11.348,7.929,12.1,4.883-9.148,5.044-9,6.051,3.876,6.635,3.7-2.353-4.756-4.121-6.5a16.584,16.584,0,0,0-2.843-2.37s.364,2.26.389,2.742-1.828,1.709-5.289,1.413c-4.951-.423-6.652-2.92-6.652-2.92Z" transform="translate(-29.29 -16.336)" fill="#feca2e"/>
      <rect id="Rectángulo_44082" data-name="Rectángulo 44082" width="22.087" height="6.643" rx="1.12" transform="matrix(0.552, 0.834, -0.834, 0.552, 199.665, 225.124)" fill="#feca2e"/>
      <rect id="Rectángulo_44083" data-name="Rectángulo 44083" width="22.087" height="6.643" rx="1.12" transform="matrix(0.552, 0.834, -0.834, 0.552, 235.308, 183.479)" fill="#feca2e"/>
      <path id="Trazado_192062" data-name="Trazado 192062" d="M225.861,433.53a.316.316,0,0,1-.313-.245.326.326,0,0,1,.228-.406l7.337-2.031a.32.32,0,0,1,.406.228.326.326,0,0,1-.228.406l-7.337,2.031a.478.478,0,0,1-.085.017Z" transform="translate(-33.467 -51.344)" fill="#fff"/>
      <path id="Trazado_192063" data-name="Trazado 192063" d="M147.116,441.316a.341.341,0,0,1-.322-.254.33.33,0,0,1,.245-.4l6.008-1.464L143.3,437.82a.333.333,0,0,1-.279-.3.329.329,0,0,1,.245-.339l11.45-3.03a.328.328,0,1,1,.169.635l-9.876,2.615,9.834,1.388a.333.333,0,0,1,.279.3.336.336,0,0,1-.254.339l-7.676,1.87a.659.659,0,0,1-.076.008Z" transform="translate(-20.781 -51.852)" fill="#f7b369"/>
      <path id="Trazado_192064" data-name="Trazado 192064" d="M190.98,440.213a.338.338,0,0,1-.279-.152.351.351,0,0,1,0-.364l2.285-3.343L182.695,437.4a.335.335,0,0,1-.338-.2.343.343,0,0,1,.1-.381l6.9-5.374a.332.332,0,1,1,.406.525l-6,4.68,9.859-1a.333.333,0,0,1,.3.516l-2.251,3.3,7.667-1.2a.316.316,0,0,1,.372.271.326.326,0,0,1-.271.372l-8.42,1.32h-.051Z" transform="translate(-26.825 -51.427)" fill="#f7b369"/>
      <path id="Trazado_192065" data-name="Trazado 192065" d="M207.612,184.333a.32.32,0,0,1-.322-.271l-.381-2.192a.325.325,0,0,1,.1-.3l1.185-1.1a.329.329,0,0,1,.449.482l-1.058.973.347,2.014a.332.332,0,0,1-.271.381H207.6Z" transform="translate(-30.602 -12.841)"/>
      <path id="Trazado_192066" data-name="Trazado 192066" d="M214.392,183.083a.32.32,0,0,1-.322-.271l-.381-2.192a.327.327,0,0,1,.093-.288l.9-.88a.329.329,0,0,1,.465.465l-.779.762.347,2.023a.333.333,0,0,1-.271.381h-.059Z" transform="translate(-31.645 -12.683)"/>
      <path id="Trazado_192067" data-name="Trazado 192067" d="M238.6,237.069a.327.327,0,0,1-.33-.339c.491-14.623-6.288-18.66-6.355-18.7a.33.33,0,0,1,.322-.575c.3.169,7.2,4.231,6.685,19.295a.329.329,0,0,1-.33.322Z" transform="translate(-34.421 -18.534)" fill="#feca2e"/>
      <path id="Trazado_192068" data-name="Trazado 192068" d="M218.812,251.589l-15.182-.059a.336.336,0,0,1-.33-.33.33.33,0,0,1,.33-.33l15.182.059a.336.336,0,0,1,.33.33A.33.33,0,0,1,218.812,251.589Z" transform="translate(-30.048 -23.677)" fill="#feca2e"/>
      <path id="Trazado_192069" data-name="Trazado 192069" d="M228.12,305.268a.33.33,0,0,1-.33-.33V292.862a.31.31,0,0,1,.178-.288l7.337-3.791a.317.317,0,0,1,.44.144.324.324,0,0,1-.144.44l-7.159,3.7v11.881a.33.33,0,0,1-.33.33Z" transform="translate(-33.813 -29.5)" fill="#fff"/>
    </g>
  </g>
</svg>
