<?xml version="1.0" encoding="UTF-8"?>
<svg xmlns="http://www.w3.org/2000/svg" viewBox="0 0 522 288">
  <defs>
    <style>
      .cls-1 {
        fill: #fff;
      }

      .cls-2 {
        fill: #f6f6f6;
      }

      .cls-3 {
        fill: #5c69a5;
      }

      .cls-4 {
        fill: #f7b369;
      }

      .cls-5 {
        mix-blend-mode: screen;
        opacity: .56;
      }

      .cls-6 {
        fill: #b9b2c1;
      }

      .cls-7 {
        isolation: isolate;
      }

      .cls-8 {
        fill: #e6f4ff;
      }

      .cls-9 {
        fill: #4dd0e1;
      }

      .cls-10 {
        fill: #0f2771;
      }

      .cls-11 {
        fill: #e0dfe5;
      }

      .cls-12 {
        fill: #feca2e;
      }

      .cls-13 {
        fill: #35456d;
      }

      .cls-14 {
        fill: #68b6d8;
      }

      .cls-15 {
        fill: #c7bfce;
      }

      .cls-16 {
        fill: #92b4ea;
      }

      .cls-17 {
        fill: #f48462;
      }

      .cls-18 {
        fill: #40507f;
      }
    </style>
  </defs>
  <g class="cls-7">
    <g id="Capa_2" data-name="Capa 2">
      <g id="Layer_1" data-name="Layer 1">
        <g>
          <ellipse class="cls-11" cx="265.97" cy="281.52" rx="256.03" ry="6.48"/>
          <g>
            <path class="cls-2" d="M332.19,9.5V206.07c0,5.25-4.25,9.5-9.49,9.5H9.5c-5.24,0-9.5-4.25-9.5-9.5V9.5C0,4.25,4.26,0,9.5,0H322.7c5.24,0,9.49,4.25,9.49,9.5Z"/>
            <path class="cls-15" d="M332.19,9.5v3.87H0v-3.87C0,4.25,4.26,0,9.5,0H322.7c5.24,0,9.49,4.25,9.49,9.5Z"/>
            <path class="cls-18" d="M312.08,9.76c-.09,0-.18-.04-.24-.12-.1-.13-.07-.31,.06-.41l8.35-6.13c.13-.1,.31-.07,.41,.06,.1,.13,.07,.31-.06,.41l-8.35,6.13c-.05,.04-.11,.06-.17,.06Z"/>
            <path class="cls-18" d="M320.43,9.76c-.06,0-.12-.02-.17-.06l-8.35-6.13c-.13-.1-.16-.28-.06-.41,.1-.13,.28-.16,.41-.06l8.35,6.13c.13,.1,.16,.28,.06,.41-.06,.08-.15,.12-.24,.12Z"/>
            <path class="cls-18" d="M305.4,9.76h-10.86c-.16,0-.29-.13-.29-.29V3.34c0-.16,.13-.29,.29-.29h10.86c.16,0,.29,.13,.29,.29v6.13c0,.16-.13,.29-.29,.29Zm-10.56-.59h10.27V3.64h-10.27v5.54Z"/>
            <path class="cls-18" d="M288.42,6.7h-8.77c-.16,0-.29-.13-.29-.29s.13-.29,.29-.29h8.77c.16,0,.29,.13,.29,.29s-.13,.29-.29,.29Z"/>
            <g>
              <path class="cls-6" d="M190.39,51.65V127.34c0,6.8-5.51,12.31-12.3,12.31H35.7c-6.8,0-12.3-5.51-12.3-12.31V51.65c0-6.79,5.5-12.31,12.3-12.31H178.09c6.79,0,12.3,5.51,12.3,12.31Z"/>
              <g>
                <g>
                  <rect class="cls-11" x="23.4" y="55.63" width="166.99" height=".84"/>
                  <path class="cls-11" d="M190.39,72.9v.84H23.67c-.11,0-.2-.04-.28-.11v-.62c.08-.07,.17-.11,.28-.11H190.39Z"/>
                  <path class="cls-11" d="M190.39,89.17v.79s-.09,.03-.14,.03H23.4v-.84H190.25c.05,0,.1,0,.14,.03Z"/>
                  <path class="cls-11" d="M190.39,106.42v.84H23.53c-.05,0-.09,0-.13-.03v-.79s.08-.02,.13-.02H190.39Z"/>
                  <path class="cls-11" d="M190.39,123.7v.79s-.09,.03-.14,.03H23.4v-.84H190.25c.05,0,.1,0,.14,.03Z"/>
                </g>
                <g>
                  <rect class="cls-11" x="40.01" y="39.34" width=".84" height="100.3"/>
                  <rect class="cls-11" x="57.27" y="39.34" width=".84" height="100.3"/>
                  <rect class="cls-11" x="73.51" y="39.34" width=".84" height="100.3"/>
                  <rect class="cls-11" x="90.76" y="39.34" width=".84" height="100.3"/>
                  <rect class="cls-11" x="108.02" y="39.34" width=".84" height="100.3"/>
                </g>
                <rect class="cls-11" x="124.82" y="39.34" width=".84" height="100.3"/>
                <rect class="cls-11" x="142.08" y="39.34" width=".84" height="100.3"/>
                <rect class="cls-11" x="158.31" y="39.34" width=".84" height="100.3"/>
                <rect class="cls-11" x="175.57" y="39.34" width=".84" height="100.3"/>
              </g>
              <g>
                <rect class="cls-15" x="96.77" y="95.42" width="129.25" height="76.01" rx="4.64" ry="4.64"/>
                <g>
                  <rect class="cls-11" x="122.27" y="137.26" width="7.6" height="20.88"/>
                  <rect class="cls-11" x="191.81" y="137.26" width="7.6" height="20.88"/>
                  <rect class="cls-11" x="139.65" y="126.51" width="7.6" height="31.55"/>
                  <rect class="cls-11" x="157.04" y="117.43" width="7.6" height="40.63"/>
                  <rect class="cls-11" x="174.42" y="108.63" width="7.6" height="49.6"/>
                </g>
              </g>
              <path class="cls-4" d="M61.3,73.32c0,2.23-1.81,4.04-4.04,4.04s-4.04-1.81-4.04-4.04,1.81-4.04,4.04-4.04,4.04,1.81,4.04,4.04Z"/>
              <path class="cls-3" d="M77.96,107.25c0,2.23-1.81,4.04-4.04,4.04s-4.04-1.81-4.04-4.04,1.81-4.04,4.04-4.04,4.04,1.81,4.04,4.04Z"/>
              <path class="cls-16" d="M146.53,73.74c0,2.23-1.81,4.04-4.04,4.04s-4.04-1.81-4.04-4.04,1.81-4.04,4.04-4.04,4.04,1.81,4.04,4.04Z"/>
            </g>
            <path class="cls-9" d="M308.18,52.36h-72.76c-2.15,0-3.9-1.75-3.9-3.9s1.74-3.9,3.9-3.9h72.76c2.15,0,3.9,1.75,3.9,3.9s-1.74,3.9-3.9,3.9Z"/>
            <path class="cls-9" d="M308.18,66.84h-72.76c-2.15,0-3.9-1.75-3.9-3.9s1.74-3.9,3.9-3.9h72.76c2.15,0,3.9,1.75,3.9,3.9s-1.74,3.9-3.9,3.9Z"/>
            <path class="cls-9" d="M308.18,81.26h-72.76c-2.15,0-3.9-1.75-3.9-3.9s1.74-3.9,3.9-3.9h72.76c2.15,0,3.9,1.75,3.9,3.9s-1.74,3.9-3.9,3.9Z"/>
            <path class="cls-10" d="M308.18,107.79h-51.5c-2.15,0-3.9-1.75-3.9-3.9s1.74-3.9,3.9-3.9h51.5c2.15,0,3.9,1.75,3.9,3.9s-1.74,3.9-3.9,3.9Z"/>
            <path class="cls-10" d="M308.18,122.62h-51.5c-2.15,0-3.9-1.75-3.9-3.9s1.74-3.9,3.9-3.9h51.5c2.15,0,3.9,1.75,3.9,3.9s-1.74,3.9-3.9,3.9Z"/>
            <path class="cls-4" d="M308.18,149.15h-51.5c-2.15,0-3.9-1.75-3.9-3.9s1.74-3.9,3.9-3.9h51.5c2.15,0,3.9,1.75,3.9,3.9s-1.74,3.9-3.9,3.9Z"/>
            <path class="cls-4" d="M308.18,163.98h-51.5c-2.15,0-3.9-1.75-3.9-3.9s1.74-3.9,3.9-3.9h51.5c2.15,0,3.9,1.75,3.9,3.9s-1.74,3.9-3.9,3.9Z"/>
          </g>
          <g>
            <path class="cls-11" d="M463.73,19.82v60.02c0,1.78-1.44,3.22-3.22,3.22h-100.9c-.4,0-.78-.08-1.14-.22-.17-.06-.33-.13-.48-.22-.96-.56-1.6-1.6-1.6-2.78V19.82c0-1.78,1.44-3.23,3.22-3.23h100.9c1.78,0,3.22,1.44,3.22,3.23Z"/>
            <path class="cls-10" d="M463.73,78.03v1.81c0,1.78-1.44,3.22-3.22,3.22h-100.67c-.48,0-.95-.08-1.37-.22-.17-.05-.33-.11-.49-.18v-.04s.8-4.24,.8-4.24l21.47-30.52,5.05,8.29,15.17-21.78,15.19,20.48,2.86-4.83,12.94,13.98,2.53-2.57,13.12,11.1,2.76-5.51,9.52,10.25,1.06-3.43,3.26,4.19Z"/>
            <path class="cls-15" d="M456.63,83.06h-97.03c-.59,0-1.15-.16-1.62-.44-.96-.56-1.6-1.59-1.6-2.78v-3.87l17.74-32.29,4.41,9.27,13.25-24.37,13.27,22.92,2.5-5.41,11.3,15.64,2.21-2.87,11.46,12.41,2.41-6.17,8.32,11.47,.92-3.84,12.44,10.32Z"/>
            <path class="cls-1" d="M376.83,44.29c0,1.49-1.21,2.7-2.7,2.7s-2.7-1.21-2.7-2.7,1.21-2.7,2.7-2.7,2.7,1.21,2.7,2.7Z"/>
            <path class="cls-1" d="M424.27,58.87c0,1.49-1.21,2.7-2.7,2.7s-2.7-1.21-2.7-2.7,1.21-2.7,2.7-2.7,2.7,1.21,2.7,2.7Z"/>
            <path class="cls-1" d="M410.26,44.85c0,1.49-1.21,2.7-2.7,2.7s-2.7-1.21-2.7-2.7,1.21-2.7,2.7-2.7,2.7,1.21,2.7,2.7Z"/>
            <path class="cls-1" d="M394.49,28.58c0,1.49-1.21,2.7-2.7,2.7s-2.7-1.21-2.7-2.7,1.21-2.7,2.7-2.7,2.7,1.21,2.7,2.7Z"/>
            <path class="cls-1" d="M437.94,65.11c0,1.49-1.21,2.7-2.7,2.7s-2.7-1.21-2.7-2.7,1.21-2.7,2.7-2.7,2.7,1.21,2.7,2.7Z"/>
          </g>
          <g>
            <path class="cls-4" d="M194.53,233.99c-7.6-7.71-8-19.86-1.2-28.02,.43-.53,.89-1.04,1.39-1.54,3.92-3.86,8.96-5.86,14.06-6,.64-.02,1.28-.01,1.92,.04,.09,0,.18,0,.27,0,.25,.02,.5,.04,.76,.07,.43,.05,.86,.11,1.27,.18,.42,.07,.82,.16,1.22,.24,.05,.02,.1,.02,.15,.04,.33,.08,.65,.17,.98,.27,.02,0,.04,0,.05,.02,.19,.05,.38,.12,.57,.18,.09,0,.16,.04,.23,.08,.45,.15,.9,.33,1.34,.52,.28,.12,.55,.23,.83,.36,.18,.07,.35,.16,.51,.25,.16,.08,.34,.17,.5,.26,.33,.18,.65,.36,.97,.56,.37,.24,.75,.48,1.12,.74,.99,.69,1.92,1.48,2.79,2.37,6.34,6.44,7.66,15.95,3.99,23.65-1.01,2.14-2.41,4.15-4.18,5.9-8.21,8.1-21.43,8.02-29.54-.19Z"/>
            <path class="cls-10" d="M228.25,228.29l-18.86-8.98,3.84-16.15,4.3-3.08c1.37,.57,2.69,1.3,3.92,2.18,.99,.69,1.92,1.48,2.79,2.37,6.35,6.43,7.66,15.95,4,23.66Z"/>
            <path class="cls-18" d="M209.39,219.3l-16.06-13.33c.43-.53,.89-1.04,1.39-1.54,3.92-3.86,8.96-5.86,14.06-6,.64-.02,1.28-.01,1.92,.04l-1.31,20.83Z"/>
            <path class="cls-16" d="M209.39,219.3l-.61-20.87c.64-.02,1.28-.01,1.92,.04,.09,0,.17,0,.27,0,.25,.02,.5,.04,.76,.07,.43,.05,.86,.11,1.27,.18,.42,.07,.82,.16,1.22,.24,.05,.02,.1,.02,.15,.04,.33,.08,.65,.17,.98,.27,.02,0,.04,0,.05,.02,.19,.05,.38,.12,.57,.18,.09,0,.16,.04,.23,.08,.74,.24,1.46,.54,2.17,.88,.18,.07,.35,.16,.51,.25,.16,.08,.34,.17,.5,.26,.33,.18,.65,.36,.97,.56,.37,.24,.75,.48,1.12,.74l-12.08,17.04Z"/>
          </g>
          <g>
            <polygon class="cls-17" points="335.18 257.34 339.51 251.05 324.45 240.89 317.86 246.58 327.96 258.36 335.18 257.34"/>
            <polygon class="cls-17" points="364.46 252.06 364.26 263.03 383.64 262.83 382.81 251.05 364.46 252.06"/>
            <path class="cls-10" d="M337.78,278.83c-.42-.06-.71-.47-.63-.92,.35-2.09,1.61-7.93,4.91-10.41,4.06-3.05,12.57-4.27,15.67-6.3s6.56-6.94,8.4-6.01c1.85,.93,5.33,5.19,10.36,4.59,5.03-.61,7.35-1.83,8.7-.61,1.35,1.22,2.13,18.28,1.55,19.3-.58,1.02-7.66,.08-8.28,.24-.62,.16-2.36-3.9-3.52-3.29-1.16,.61-2.58,2.52-4.29,3.39-1.6,.82-27.81,.69-32.88,.01Z"/>
            <path class="cls-12" d="M351.94,190.71l2.37-46.52,28.98-.2s3.55,11.99,4.53,23.57c.99,11.58,3.55,85.12,3.15,86.14-.39,1.02-32.53,2.23-34.5,1.02-1.97-1.22-4.53-63.99-4.53-63.99Z"/>
            <path class="cls-10" d="M286.42,246.82c-.32-.28-.32-.79,0-1.11,1.48-1.53,5.86-5.67,10.03-5.88,5.13-.26,12.94,3.48,16.69,3.52,3.74,.04,9.43-2.09,10.45-.29,1.02,1.8,1.5,7.27,6.05,9.57s7.19,2.58,7.63,4.35c.44,1.76-8.62,16.33-9.69,16.85-1.06,.52-6.45-4.21-7.06-4.42-.61-.21,.25-4.54-1.07-4.69-1.32-.14-3.59,.65-5.51,.42-1.8-.21-23.65-14.93-27.5-18.32Z"/>
            <path class="cls-12" d="M349.18,143.78s-34.11,92.43-33.71,94.47c.39,2.03,26.42,16.46,28,16.46s13.01-20.92,13.01-20.92l1.38-89.79-8.67-.2Z"/>
            <path class="cls-1" d="M364.26,263.33c-.06,0-.12-.02-.17-.05l-4.71-3.26c-.13-.09-.17-.27-.07-.41,.09-.13,.28-.17,.41-.07l4.71,3.26c.13,.09,.17,.27,.07,.41-.06,.08-.15,.13-.24,.13Z"/>
            <path class="cls-1" d="M359.55,265.23c-.06,0-.12-.02-.18-.06l-3.7-2.8c-.13-.1-.15-.28-.06-.41,.1-.13,.28-.15,.41-.06l3.7,2.8c.13,.1,.15,.28,.06,.41-.06,.08-.15,.12-.23,.12Z"/>
            <path class="cls-1" d="M317.36,248.58c-.1,0-.19-.05-.25-.13l-3.12-4.8c-.09-.14-.05-.32,.09-.41,.13-.09,.32-.05,.41,.09l3.12,4.8c.09,.14,.05,.32-.09,.41-.05,.03-.1,.05-.16,.05Z"/>
            <path class="cls-1" d="M311.1,247.19c-.1,0-.2-.05-.25-.14l-2.36-4c-.08-.14-.04-.32,.1-.4,.14-.08,.32-.04,.4,.1l2.36,4c.08,.14,.04,.32-.1,.4-.05,.03-.1,.04-.15,.04Z"/>
            <path class="cls-18" d="M382.19,157.59c-5.26,0-8.47-6.53-8.5-6.61-.07-.15,0-.32,.14-.39,.14-.07,.32,0,.39,.14,.04,.08,3.67,7.44,9.36,6.11,.16-.04,.32,.06,.35,.22,.04,.16-.06,.32-.22,.35-.52,.12-1.03,.18-1.52,.18Z"/>
            <path class="cls-18" d="M354.47,237.78c-.18,0-.3-.15-.29-.31l3.59-75.49-7.86-5.19c-.14-.09-.17-.27-.08-.41,.09-.13,.27-.17,.41-.08l7.99,5.28c.09,.06,.14,.15,.13,.26l-3.6,75.66c0,.16-.14,.28-.29,.28Z"/>
            <path class="cls-14" d="M363.94,94.63s-7.94,.36-11.09,6.73c-3.15,6.36-5.53,44.3-5.53,44.3,0,0,8.8,3.89,21.65,3.73s17.19-3.5,17.19-3.5l2.47-23.4s-1.03-24.66-4.24-26.39-15.15-2.84-20.47-1.47Z"/>
            <path d="M364.01,74.27s-4.04-7.82-.22-9.22c3.81-1.4,8,3,8,3,0,0,8.27,1.23,11.16,5.87,2.89,4.64-5.33,11.98-5.33,11.98l-13.61-11.62Z"/>
            <path class="cls-17" d="M376.05,87.5l.02,7.69s-1.38,2.21-5.87,2.59c-3.35,.28-4.53-.47-4.53-.47l.46-3.89,.45-3.8,8.11-1.81,1.36-.31Z"/>
            <path d="M374.68,87.81c-.02,.21-.1,.46-.22,.74-1.71,3.84-6.41,4.69-8.34,4.87l.45-3.8,8.11-1.81Z"/>
            <path class="cls-17" d="M364.81,72.1s-4,9.65-2.4,15c1.61,5.35,6.49,4.41,9.4,3.32,2.91-1.09,4.24-2.92,4.24-2.92,0,0,2.75,.88,4.54-1.7,1.78-2.58,.6-5.48-.97-6.13-1.58-.64-3.41,.52-3.41,.52l1.41-2.81s-6.39-14.02-12.79-5.29Z"/>
            <path d="M376.49,84.33c-.09,0-.18-.04-.24-.12-.09-.13-.07-.31,.07-.41l3.45-2.5c.13-.09,.31-.07,.41,.07,.09,.13,.07,.31-.07,.41l-3.45,2.5c-.05,.04-.11,.06-.17,.06Z"/>
            <path d="M379.65,84.28s-.05,0-.07,0l-2.28-.58c-.16-.04-.25-.2-.21-.36,.04-.16,.2-.25,.36-.21l2.28,.58c.16,.04,.25,.2,.21,.36-.03,.13-.15,.22-.28,.22Z"/>
            <path d="M365.12,83.09c-.14,0-.27-.1-.29-.25-.41-2.64,1.3-4.07,1.37-4.13,.13-.1,.31-.08,.41,.04,.1,.12,.08,.31-.04,.41-.06,.05-1.53,1.29-1.17,3.59,.02,.16-.08,.31-.25,.34-.01,0-.03,0-.04,0Z"/>
            <path d="M363.85,79.23s-.05,0-.08-.01c-.16-.04-.25-.2-.21-.36l.48-1.76c.04-.16,.2-.25,.36-.21,.16,.04,.25,.2,.21,.36l-.48,1.76c-.04,.13-.15,.22-.28,.22Z"/>
            <path d="M368.71,79.56s-.05,0-.08-.01c-.16-.04-.25-.2-.21-.36l.48-1.76c.04-.16,.2-.25,.36-.21,.16,.04,.25,.2,.21,.36l-.48,1.76c-.04,.13-.15,.22-.28,.22Z"/>
            <path d="M364.01,74.27s.83-1.55,2.75-1.57,3.04,1.33,3.04,1.33c0,0-.83,3.23,1.78,4.94,2.61,1.71,4.63,1.22,4.63,1.22l1.89-.68,1.38-2.77-5.49-5.88-7.09-3.72-3.6,3.29,.71,3.84Z"/>
            <path d="M371.79,68.05s.24-4.25,4.71-2.39c4.47,1.87,4.12,7.67,4.12,7.67l-8.83-5.29Z"/>
            <path d="M363.65,74.64c-.15,0-.28-.11-.29-.27-.02-.16,.1-.3,.26-.32l1.46-.14c.18-.01,.31,.1,.32,.26,.02,.16-.1,.3-.26,.32l-1.46,.14s-.02,0-.03,0Z"/>
            <path d="M370.22,76.62s-.08,0-.12-.02l-1.97-.86c-.15-.06-.22-.24-.15-.39,.06-.15,.24-.22,.39-.15l1.97,.86c.15,.06,.22,.24,.15,.39-.05,.11-.16,.18-.27,.18Z"/>
            <path d="M364.38,85.7c-.1,0-.19-.05-.25-.14l-1.09-1.71c-.09-.14-.05-.32,.09-.41,.13-.09,.32-.05,.41,.09l1.09,1.71c.09,.14,.05,.32-.09,.41-.05,.03-.1,.05-.16,.05Z"/>
            <path class="cls-17" d="M350.04,96.25s4.94-16.2,6.99-15.96,6.15,4.36,6.98,5.87c.83,1.51,0,3.43,0,3.43,0,0,.81,1.02,0,1.68-.81,.66-3.14-.74-3.14-.74,0,0,2.06,10.31-3.98,11.54-6.03,1.23-6.86-5.82-6.86-5.82Z"/>
            <path class="cls-14" d="M353.11,125.75s2.45-4.85,3.61-10.28c1.16-5.42,2.78-13.52,2.78-13.52l-10.67-7.94s-8.91,13.63-12.01,26.64c-3.11,13.01-.8,16.99,5.83,16.18,7.85-.95,10.46-11.09,10.46-11.09Z"/>
            <path class="cls-17" d="M354.07,127.17l-3.33,12.89c-2.65,0-9.78-.09-12.04-1.13-2.79-1.28-3.16-3.03-3.16-3.03,0,0-1.91-1.82-1.8-2.8,.1-.99,1.2-5.43,1.2-5.43,0,0-1.55-3.66-.13-3.86,1.4-.19,3.85-.53,3.85-.53,0,0,4.56-2,6.53-1.44,1.97,.56,7.21,5.38,7.21,5.38l1.67-.06Z"/>
            <path class="cls-3" d="M369.4,98.05c-2.98,0-4.13-.7-4.19-.73-.14-.09-.18-.27-.09-.4,.09-.14,.27-.18,.4-.09,.01,0,1.46,.85,5.32,.59,3.85-.26,5.62-2.81,5.64-2.84,.09-.14,.27-.17,.41-.08,.13,.09,.17,.27,.08,.41-.08,.11-1.95,2.81-6.08,3.09-.54,.04-1.04,.05-1.49,.05Z"/>
            <path d="M345.23,124.43s-.06,0-.08-.01l-4.98-1.47c-.16-.05-.24-.21-.2-.36,.05-.16,.21-.24,.36-.2l4.98,1.47c.16,.05,.24,.21,.2,.36-.04,.13-.15,.21-.28,.21Z"/>
            <path d="M336.32,127.86s-.1-.01-.14-.04l-1.75-.95c-.14-.08-.19-.26-.12-.4,.08-.14,.26-.2,.4-.12l1.75,.95c.14,.08,.19,.26,.12,.4-.05,.1-.15,.15-.26,.15Z"/>
            <path d="M364.01,89.04c-.06,0-.13-.02-.18-.06l-4.51-3.54c-.13-.1-.15-.28-.05-.41,.1-.13,.28-.15,.41-.05l4.51,3.54c.13,.1,.15,.28,.05,.41-.06,.07-.14,.11-.23,.11Z"/>
            <path d="M363.34,85.51c-.05,0-.11-.02-.16-.05l-3.84-2.48c-.14-.09-.18-.27-.09-.41,.09-.14,.27-.18,.41-.09l3.84,2.48c.14,.09,.18,.27,.09,.41-.06,.09-.15,.13-.25,.13Z"/>
            <path class="cls-14" d="M352.36,126.02l-2.32,15.69s34.24,9.93,41.48-7.52c7.27-17.52-1.03-35.15-7.1-38.09-6.07-2.94-12.09,24.73-12.09,24.73l-19.96,5.2Z"/>
            <rect class="cls-8" x="350.04" y="124.13" width="6.9" height="19.28" rx="1.61" ry="1.61" transform="translate(17.25 -38.84) rotate(6.45)"/>
            <rect class="cls-8" x="350" y="92.05" width="6.91" height="17.08" rx="1.52" ry="1.52" transform="translate(72.59 337.57) rotate(-56.04)"/>
            <path class="cls-3" d="M363.34,124.43c-.11,0-.21-.06-.26-.17-.07-.15,0-.32,.14-.39,.08-.04,7.88-3.81,15.56-4.45,.16-.02,.3,.11,.32,.27,.01,.16-.11,.3-.27,.32-7.56,.64-15.27,4.36-15.35,4.4-.04,.02-.09,.03-.13,.03Z"/>
            <path class="cls-3" d="M372.32,121.12c-.09,0-.18-.04-.24-.12-.07-.1-.07-.24,0-.34,.27-.38,2.68-3.75,4.47-3.92,.4-.04,.75,.08,1.02,.35,.34,.33,.35,.67,.29,.9-.35,1.46-4.61,2.85-5.46,3.12-.03,0-.06,.01-.09,.01Zm4.37-3.8s-.06,0-.09,0c-1.03,.1-2.56,1.76-3.48,2.93,1.79-.64,3.99-1.65,4.17-2.4,.02-.08,.02-.19-.13-.34-.13-.13-.29-.19-.47-.19Z"/>
            <path class="cls-18" d="M355.32,248.58c-.16,0-.29-.12-.29-.28,0-.16,.12-.3,.28-.31l35.7-1.39c.18,0,.3,.12,.31,.28,0,.16-.12,.3-.28,.31l-35.7,1.39h-.01Z"/>
            <path class="cls-18" d="M347.48,248.58s-.09-.01-.14-.04l-30.12-16.21c-.14-.08-.2-.25-.12-.4,.08-.14,.26-.2,.4-.12l30.12,16.21c.14,.08,.2,.25,.12,.4-.05,.1-.15,.16-.26,.16Z"/>
          </g>
          <g>
            <path class="cls-3" d="M418.15,112.64s-15.7-19.84-16.68-18.52c-.98,1.32,14.18,19.79,14.18,19.79l2.5-1.27Z"/>
            <path class="cls-17" d="M430.23,123.94s-5.72,.09-8.24-2.15,2.76-7.42,2.76-7.42l5.48,3.72v5.84Z"/>
            <path class="cls-17" d="M422.43,111.69c-.69-.48-1.5-.74-2.33-.85-2.81-.37-10.88,0-11.87,2.83-.95,2.72,3.54,2.65,3.54,2.65,0,0-3.61,.77-2.24,3.05,1.14,1.9,3.49,1.51,3.49,1.51,0,0-3.67,1.16-.99,3.35,2.68,2.19,10.95,1.1,13.48-.31,2.53-1.4-1.03-3.84-1.03-3.84,0,0,2.53-1.87,1.74-3.4-.83-1.62-3.32-1.12-3.32-1.12,0,0,2-2.16-.47-3.89Z"/>
            <path class="cls-17" d="M432.34,110.63s-10.28-5.02-12.19-4.74c-1.92,.29-9.07,6.35-7.32,8.02,1.75,1.67,7.32-2.63,7.32-2.63,0,0,5.71,9.6,9.47,8.51,3.75-1.08,2.73-9.16,2.73-9.16Z"/>
            <path d="M411.77,116.62c-.16,0-.29-.12-.29-.28,0-.16,.12-.3,.28-.31l10.22-.53c.2-.02,.3,.12,.31,.28,0,.16-.12,.3-.28,.31l-10.22,.53s-.01,0-.02,0Z"/>
            <path d="M413.02,121.18c-.15,0-.28-.12-.29-.27-.01-.16,.11-.3,.27-.31l10.25-.65c.18,0,.3,.11,.31,.27,.01,.16-.11,.3-.27,.31l-10.25,.65s-.01,0-.02,0Z"/>
            <path d="M427.75,120.17s-.05,0-.08-.01c-.06-.02-6.32-1.93-7.8-8.82-.03-.16,.07-.31,.23-.35,.16-.03,.31,.07,.35,.23,1.4,6.54,7.33,8.36,7.4,8.38,.15,.05,.24,.21,.2,.36-.04,.13-.15,.21-.28,.21Z"/>
            <polygon class="cls-4" points="460.76 249.53 460.76 259.71 442.27 258.99 442.27 249.53 460.76 249.53"/>
            <polygon class="cls-4" points="503.47 248.38 503.47 258.56 486.35 257.85 486.35 248.38 503.47 248.38"/>
            <path class="cls-10" d="M464.19,137.53s-11.26,20.51-19.17,55.59c-7.21,31.99-8.77,58.45-8.77,58.45h31.21s3.47-26.08,4.4-36.4c.92-10.32,4-24.14,4-24.14,0,0,4.28,59.53,5.3,60.54,1.02,1.01,30.89,.22,30.57-1.14-.32-1.37-11.34-100.83-12.15-107.34-2.49-20.01-35.4-5.55-35.4-5.55Z"/>
            <path class="cls-9" d="M482.1,273.63c0,1.8,.58,3.85,1.78,4.37,1.19,.52,10.85,1.6,19.29,.83,8.09-.73,9.77-1.35,10.36-2.11,.29-.39-.28-2.19-.93-3.92-.04-.09-.07-.19-.11-.27-.33-.88-.68-1.73-.93-2.33-.25-.58-.55-1.12-.92-1.65-.87-1.25-2.61-3.84-3.05-5.18-.58-1.78-1.47-5.64-2.07-7.45-.6-1.78-2.05-2.16-2.05-2.16,0,0-16.63-1.18-17.82-.14-1.18,1.02-1.78,9.5-1.78,10.78v1.28c0,1.19-.79,3.55-1.3,5.51-.14,.49-.25,.95-.33,1.37-.08,.42-.14,.78-.14,1.08Z"/>
            <path class="cls-9" d="M413.75,277.3c1.05,.47,45.92,1.81,46.97,0,.32-.55,.54-2.4,.69-4.73,.37-5.49,.37-13.66,.37-13.66,0,0,.33-2.79,.26-4.08-.05-1.28-21.64-.79-21.64-.79l-14.03,12.06s-3.85-.75-8.06,0c-2.23,.39-3.67,3.36-4.38,6.17-.63,2.49-.69,4.8-.18,5.03Z"/>
            <path class="cls-1" d="M475.86,191.32c-.15,0-.28-.12-.29-.27,0-.13-.98-12.95-1.27-18.64-.24-4.85-.29-7.55-.29-8.26l-9.94-4.59c-.15-.07-.21-.24-.14-.39,.07-.15,.24-.21,.39-.14l10.11,4.66c.1,.05,.17,.15,.17,.27,0,.03,.01,2.74,.29,8.42,.28,5.68,1.26,18.5,1.27,18.63,.01,.16-.11,.3-.27,.31,0,0-.01,0-.02,0Z"/>
            <path class="cls-10" d="M503.04,262.6s-.05,0-.08-.01c-.07-.02-6.56-1.81-9.82-1.23l-3.37,.6c-.13,.02-.26-.04-.32-.16-.06-.12-.03-.26,.07-.35,.25-.22,6.08-5.33,9.59-3.78,.15,.07,.22,.24,.15,.39-.07,.15-.24,.22-.39,.15-2.42-1.07-6.35,1.63-8.09,2.97l2.25-.4c3.4-.61,9.81,1.16,10.08,1.24,.16,.04,.25,.21,.2,.36-.04,.13-.15,.22-.28,.22Z"/>
            <path class="cls-10" d="M429.32,263.5c-.15,0-.28-.11-.29-.26-.02-.16,.1-.31,.26-.32l7.87-.84-2.59-3.16c-.1-.12-.08-.31,.04-.41,.13-.1,.31-.08,.41,.04l2.93,3.58c.07,.08,.09,.2,.04,.3-.04,.1-.13,.17-.24,.18l-8.41,.9s-.02,0-.03,0Z"/>
            <path class="cls-1" d="M499.59,159.99c-.06,0-.12-.02-.17-.06-5.38-3.89-7.58-10.68-7.6-10.75-.05-.16,.04-.32,.19-.37,.15-.05,.32,.04,.37,.19,.02,.07,2.16,6.67,7.39,10.45,.13,.1,.16,.28,.07,.41-.06,.08-.15,.12-.24,.12Z"/>
            <path class="cls-12" d="M483.09,89.36s9.24,.5,16.65,6.88,14.98,27.54,10.81,34.19c-4.17,6.64-9.47,7.11-9.47,7.11l.31,7.72-40.5,.38s3.34-49.16,4.97-52.8c1.63-3.65,17.24-3.47,17.24-3.47Z"/>
            <path d="M472.11,66.94s-3.31,3.65-1.58,7.74c1.74,4.1,3.82-7.34,3.82-7.34l-2.24-.4Z"/>
            <path class="cls-17" d="M482.85,83.68l.02,7.33s-1.31,2.11-5.6,2.47c-3.19,.27-4.31-.45-4.31-.45l.43-3.71,.43-3.62,7.73-1.73,1.3-.29Z"/>
            <path d="M481.55,83.97c-.02,.2,1.17,.85,1.05,1.12-1.63,3.66-7.53,5.44-9.37,5.61l.59-5,7.73-1.73Z"/>
            <path class="cls-17" d="M473.49,67.32c-1.02,.8-1.74,1.92-2.17,3.14-1,2.81-3.02,9.39-1.81,13.45,1.57,5.28,6.32,4.36,9.16,3.29,2.83-1.08,4.12-2.87,4.12-2.87,0,0,2.68,.87,4.42-1.67,1.73-2.54,.58-5.41-.96-6.05-1.53-.63-3.32,.51-3.32,.51l1.36-2.77s-5.18-11.49-10.8-7.03Z"/>
            <path d="M483.27,80.68c-.09,0-.18-.04-.24-.12-.09-.13-.07-.31,.07-.41l3.29-2.38c.13-.09,.31-.07,.41,.07,.09,.13,.07,.31-.07,.41l-3.29,2.38c-.05,.04-.11,.06-.17,.06Z"/>
            <path d="M486.28,80.63s-.05,0-.07,0l-2.17-.55c-.16-.04-.25-.2-.21-.36,.04-.16,.2-.25,.36-.21l2.17,.55c.16,.04,.25,.2,.21,.36-.03,.13-.15,.22-.28,.22Z"/>
            <path d="M472.43,79.49c-.11,0-.21-.06-.26-.17-1.05-2.17,.54-4.41,.6-4.51,.09-.13,.28-.16,.41-.07,.13,.09,.16,.28,.07,.41-.01,.02-1.45,2.06-.55,3.91,.07,.15,0,.32-.14,.39-.04,.02-.08,.03-.13,.03Z"/>
            <path d="M471.22,75.81s-.05,0-.08-.01c-.16-.04-.25-.2-.21-.36l.45-1.68c.04-.16,.2-.25,.36-.21,.16,.04,.25,.2,.21,.36l-.45,1.68c-.04,.13-.15,.22-.28,.22Z"/>
            <path class="cls-12" d="M471.21,97.54l-1.12,49.27h-10.95l1.3-21.54s-7.79,1.53-17.63,1.6c-9.84,.07-13.86-.93-13.86-.93l1.7-17.27s12.01-.6,22-6.66c9.99-6.06,13.71-12.31,20.03-12.16,6.32,.15-1.46,7.7-1.46,7.7Z"/>
            <path d="M475.86,76.12s-.05,0-.08-.01c-.16-.04-.25-.2-.21-.36l.45-1.68c.04-.16,.2-.25,.36-.21,.16,.04,.25,.2,.21,.36l-.45,1.68c-.04,.13-.15,.22-.28,.22Z"/>
            <path d="M471.22,72.51c-.15,0-.28-.11-.29-.27-.02-.16,.1-.3,.26-.32l1.39-.13c.17-.02,.31,.1,.32,.27,.02,.16-.1,.3-.26,.32l-1.39,.13s-.02,0-.03,0Z"/>
            <path d="M477.29,73.33s-.08,0-.12-.02l-1.88-.82c-.15-.06-.22-.24-.15-.39,.06-.15,.24-.22,.39-.15l1.88,.82c.15,.06,.22,.24,.15,.39-.05,.11-.16,.18-.27,.18Z"/>
            <path d="M482.93,77.12s-.8,3.04-1.38,2.66c-.58-.38-1.06-4.78-.6-6.74,.46-1.96,.79-2.95,.79-2.95,0,0-7.99-.82-10.07-2.75-2.08-1.93,2.39-3.1,6.93-2.17,4.54,.93,6.31,2.66,6.31,2.66,0,0,2.86-.39,3.9,1.37,1.04,1.76-1.48,8.34-1.48,8.34,0,0-.7-1.67-4.41-.42Z"/>
            <path d="M474.35,82.57c-.09,0-.19-.05-.24-.13-.09-.13-.06-.32,.08-.41l1.96-1.33c.13-.09,.32-.06,.41,.08,.09,.13,.06,.32-.08,.41l-1.96,1.33c-.05,.03-.11,.05-.16,.05Z"/>
            <path class="cls-3" d="M469.58,130.19c-.12,0-.23-.07-.27-.19-2.01-5.26-5.37-14.17-5.23-14.73,.14-.54,2.55-3.44,3.56-4.62-1.21-1-4.12-3.46-4.26-4.16-.15-.72,4.11-8.56,5.95-11.9,.08-.14,.26-.19,.4-.12,.14,.08,.19,.26,.11,.4-2.25,4.09-5.84,10.84-5.88,11.53,.11,.37,2.27,2.33,4.28,3.98,.06,.05,.1,.12,.11,.2,0,.08-.02,.16-.07,.22-1.7,2-3.52,4.27-3.63,4.62,.03,.62,3.13,8.95,5.21,14.37,.06,.15-.02,.32-.17,.38-.04,.01-.07,.02-.11,.02Z"/>
            <polygon class="cls-3" points="470.04 145.63 484.14 145.63 480.59 98.8 470.85 98.8 470.04 145.63"/>
            <path class="cls-12" d="M480.59,104.97s3.31,42.03,3.52,41.84c.21-.19,17.65-.48,17.65-.48l-.58-12.25-20.59-29.1Z"/>
            <path class="cls-3" d="M484.11,130.19s-.07,0-.11-.02c-.15-.06-.23-.23-.17-.38,2.08-5.43,5.18-13.75,5.2-14.42-.1-.3-1.92-2.57-3.62-4.57-.05-.06-.08-.14-.07-.22,0-.08,.04-.15,.11-.2,2.01-1.65,4.16-3.6,4.28-4.01-.04-.65-3.63-7.4-5.89-11.49-.08-.14-.03-.32,.11-.4,.14-.08,.32-.03,.4,.12,1.84,3.34,6.09,11.17,5.95,11.9-.14,.69-3.05,3.16-4.26,4.16,1.01,1.19,3.42,4.08,3.56,4.62,.14,.56-3.22,9.47-5.23,14.73-.04,.12-.16,.19-.27,.19Z"/>
            <path class="cls-17" d="M478.4,90.64s-11.13-6.97-12.38-6.16c-1.25,.81,4.83,5.9,4.83,5.9,0,0-2.77,2.34-2.91,2.78s-.81,1.54-1.32,2.73c-.51,1.19-.28,1.99,.87,3.23,1.15,1.24,8.66,4.87,10.32,4.98l1.66,.12,4.95-8.49s.27-7.43-1.32-8.33-2.36,4.89-2.36,4.89l-2.34-1.65Z"/>
            <path d="M480.74,92.58c-.05,0-.11-.02-.16-.05l-4.65-2.93c-.14-.09-.18-.27-.09-.4,.09-.14,.27-.18,.41-.09l4.29,2.7c.09-.44,.25-1.24,.55-2.51,.55-2.36,1.99-2.19,2.06-2.19,.16,.02,.27,.17,.25,.33-.02,.16-.17,.27-.33,.25-.06,0-.99-.07-1.41,1.74-.49,2.09-.62,2.9-.62,2.91-.02,.1-.08,.18-.17,.22-.04,.02-.08,.03-.12,.03Z"/>
            <path d="M472.11,91.76c-.07,0-.14-.02-.19-.07l-1.26-1.09c-.12-.11-.14-.29-.03-.41,.11-.12,.29-.14,.41-.03l1.26,1.09c.12,.11,.14,.29,.03,.41-.06,.07-.14,.1-.22,.1Z"/>
            <path class="cls-3" d="M450.94,109.86c-.26,0-.5-.1-.72-.29-1.17-1.06-1.25-4.91-1.25-5.35,0-.13,.08-.25,.21-.28,.13-.04,.26,.01,.33,.12,.46,.7,2.71,4.25,2.15,5.39-.12,.24-.34,.39-.63,.41-.03,0-.06,0-.09,0Zm-1.33-4.53c.11,1.37,.38,3.23,1.01,3.8,.12,.11,.24,.15,.36,.14,.12-.01,.14-.05,.15-.08,.25-.51-.62-2.33-1.52-3.86Z"/>
            <path class="cls-3" d="M460.43,125.57s-.03,0-.04,0c-.16-.02-.27-.17-.25-.33l.45-3.05c.02-.16,.17-.27,.33-.25,.16,.02,.27,.17,.25,.33l-.45,3.05c-.02,.15-.15,.25-.29,.25Z"/>
            <path class="cls-12" d="M485.19,94.74l-7.28,11.42s6.36,27.83,21.67,31.03c15.31,3.2,12.04-14.41,12.04-14.41l-26.43-28.05Z"/>
            <path class="cls-3" d="M503.82,113.27c-.09,0-.19-.05-.24-.13-3.6-5.32-13.78-15.1-13.88-15.2-.12-.11-.12-.3,0-.42,.11-.12,.3-.12,.42,0,.1,.1,10.32,9.93,13.96,15.3,.09,.13,.06,.32-.08,.41-.05,.03-.11,.05-.16,.05Z"/>
            <path class="cls-3" d="M503.74,110.06c-1.68,0-5.09-3.06-5.8-3.71-.1-.09-.12-.24-.06-.36,.07-.12,.2-.18,.33-.14,.57,.15,5.55,1.49,6.35,2.86,.12,.21,.16,.42,.1,.63-.12,.44-.4,.61-.62,.68-.09,.03-.2,.04-.3,.04Zm-4.42-3.28c1.65,1.39,3.79,2.9,4.56,2.68,.08-.02,.17-.07,.22-.26,.02-.06,.08-.65-2.8-1.74-.69-.26-1.4-.5-1.98-.67Z"/>
          </g>
          <g>
            <g class="cls-5">
              <ellipse class="cls-11" cx="187.35" cy="90.1" rx="36.66" ry="36.68"/>
            </g>
            <path class="cls-13" d="M188.55,129.34c-1.69,0-3.4-.11-5.1-.33-10.31-1.34-19.48-6.62-25.82-14.86-13.09-17.02-9.91-41.52,7.1-54.62,17.01-13.1,41.5-9.91,54.59,7.11,6.34,8.24,9.1,18.46,7.75,28.78-1.34,10.32-6.62,19.49-14.86,25.84-6.88,5.3-15.13,8.09-23.66,8.09Zm-.12-73.7c-7.4,0-14.85,2.35-21.16,7.2-15.18,11.69-18.03,33.57-6.34,48.76,5.66,7.36,13.85,12.07,23.05,13.27,9.2,1.2,18.32-1.26,25.68-6.93,7.36-5.66,12.07-13.86,13.26-23.06s-1.26-18.33-6.92-25.69c-6.84-8.88-17.15-13.55-27.58-13.55Z"/>
            <path class="cls-17" d="M143.65,121.11l-7.94,14.18s11.27,2.91,21.57-6.77c8.35-7.85-13.63-7.42-13.63-7.42Z"/>
            <path d="M73.91,80.28c-.29-.29-9.41,3.68-11.24,15.81-1.84,12.13,7.94,14.34,7.94,14.34l13.44-7.57-5.18-23.11-4.96,.53Z"/>
            <path class="cls-10" d="M103.08,99.23s5.27,7.86,17.34,14.9c8.67,5.05,22.08,3.21,22.08,3.21l1.14,18.21s-29.16,10.04-40.43-2.65c-14.53-16.36-.14-33.67-.14-33.67Z"/>
            <path class="cls-13" d="M101.67,243.16s5.77,8.1,6,9.68c.22,1.58-4.19,4.44-4.19,4.44l10.64,13.24h-23.57l-1.16-25.56,12.29-1.81Z"/>
            <path d="M86.21,69.29s-9-4.16-13.02,3.22c-3.91,7.17,1.88,13.84,1.88,13.84l9.93-10.34,1.21-6.72Z"/>
            <rect class="cls-17" x="76.25" y="246.91" width="17.78" height="20.45" transform="translate(5.92 -1.89) rotate(1.31)"/>
            <path class="cls-9" d="M74.63,151.16s-3.26,11.62-3.45,34.45c-.16,19.71-3.8,63.44-2.32,65.51,1.48,2.07,31.7,.89,32.89,.3,1.19-.59,1.48-14.23,1.48-14.23,0,0,20.15-33.79,22.81-39.42,2.67-5.63-14.81-54.73-14.81-54.73l-36.6,8.13Z"/>
            <path class="cls-10" d="M81.6,95.68s-14.22,5.2-16,13.14c-1.78,7.94,10.67,39.69,13.92,40.79,3.26,1.09,29.33-4.65,31.7-6.57,2.37-1.92-.3-21.62-.89-24.36-.59-2.74-2.96-13.69-6.22-18.34s-5.93-4.96-9.18-4.96-13.33,.31-13.33,.31Z"/>
            <path class="cls-12" d="M78.71,94.89s-2.69,.88-3.5,2.13c-.91,1.4,.79,5.09,5.65,7.96,3.55,2.1,6.55,2.84,6.55,2.84,0,0,3.09-4.28,3.68-6.88,.59-2.6-1.58-6.01-1.58-6.01l-10.8-.05Z"/>
            <path class="cls-17" d="M78.87,89.93l.76,7.75s1.61,2.09,6.18,2.01c3.4-.06,4.51-.93,4.51-.93l-.85-3.88-.84-3.78-8.35-1-1.4-.17Z"/>
            <path d="M80.27,90.1c.04,.21,.14,.45,.3,.73,2.11,3.7,6.93,4.07,8.89,4.05l-.84-3.78-8.35-1Z"/>
            <path class="cls-17" d="M88.62,73.28s5.01,9.31,3.94,14.87c-1.07,5.55-6.09,5.1-9.13,4.3-3.04-.81-4.56-2.51-4.56-2.51,0,0-2.69,1.16-4.74-1.25-2.06-2.42-1.16-5.46,.36-6.27,1.52-.81,3.49,.18,3.49,.18l-1.7-2.69s5.01-14.78,12.35-6.63Z"/>
            <path class="cls-18" d="M77.18,279.55c-1.33-.06-2.38-1.21-2.39-2.62-.02-5.56,.06-18.44,1.08-18.44,1.31,0,13.68,3.92,13.68,3.92,0,0,.35-7.71,5.79-6.34,4.17,1.05,9.01,5.94,11.04,8.16,.64,.7,1.46,1.19,2.36,1.41,3.88,.95,14.57,4.06,14.74,9.72,.21,6.92-2.61,6.13-3.92,6.14-1.13,0-33.3-1.51-42.39-1.94Z"/>
            <path d="M77.97,82.59s4.22,.54,6.77-4.3c2.55-4.84,2.15-6.72,2.15-6.72l3.22,4.57s.4-3.36-1.07-5.37c-1.48-2.01-2.82-1.48-2.82-1.48l-9,2.96-1.88,7.52,2.63,2.82Z"/>
            <path class="cls-1" d="M103.83,234.25c-.16,0-.29-.13-.29-.29l.22-68.87c0-.08,.03-.15,.09-.21l6.76-6.79c.11-.12,.3-.12,.42,0,.11,.11,.11,.3,0,.42l-6.68,6.7-.22,68.75c0,.16-.13,.29-.29,.29Z"/>
            <path class="cls-1" d="M76.06,170.64c-.14,0-.27-.11-.29-.25-.02-.16,.09-.31,.25-.33,2.86-.4,5.01-1.54,6.4-3.4,2.27-3.05,1.69-7.03,1.68-7.07-.02-.16,.09-.31,.25-.34,.16-.02,.31,.09,.33,.25,.03,.17,.62,4.26-1.79,7.51-1.48,1.99-3.76,3.21-6.79,3.64-.01,0-.03,0-.04,0Z"/>
            <path d="M90.11,76.44s-.03,0-.05,0l-1.3-.22c-.16-.03-.27-.18-.24-.34,.03-.16,.18-.27,.34-.24l1.3,.22c.16,.03,.27,.18,.24,.34-.02,.14-.15,.24-.29,.24Z"/>
            <path d="M84.47,76.86c-.13,0-.25-.09-.28-.22-.04-.16,.06-.32,.22-.35l2.19-.53c.15-.04,.32,.06,.35,.22,.04,.16-.06,.32-.22,.35l-2.19,.53s-.05,0-.07,0Z"/>
            <path d="M85.29,81.79c-.14,0-.26-.1-.29-.24l-.27-1.57c-.02-.11,.03-.23,.12-.29l1.1-.77c.13-.09,.32-.06,.41,.07,.09,.13,.06,.32-.07,.41l-.95,.66,.24,1.39c.03,.16-.08,.31-.24,.34-.02,0-.03,0-.05,0Z"/>
            <path d="M90.58,80.62c-.14,0-.26-.1-.29-.24l-.27-1.57c-.02-.11,.03-.23,.12-.29l1.1-.77c.13-.09,.32-.06,.41,.07,.09,.13,.06,.32-.07,.41l-.94,.66,.24,1.39c.03,.16-.08,.31-.24,.34-.02,0-.03,0-.05,0Z"/>
            <path d="M89.46,84.94s-.06,0-.09-.01c-.15-.05-.24-.22-.19-.37,.59-1.81-.61-4.06-.63-4.08-.08-.14-.03-.32,.12-.4,.14-.08,.32-.03,.4,.12,.06,.1,1.34,2.49,.67,4.55-.04,.12-.16,.2-.28,.2Z"/>
            <path d="M87.79,88.85c-1.37,0-1.92-1.56-1.95-1.62-.03-.09-.02-.19,.04-.27,.06-.08,.14-.12,.24-.12h3.34c.1,0,.18,.05,.24,.12,.06,.08,.07,.18,.04,.27-.02,.07-.58,1.62-1.95,1.62Zm-1.2-1.43c.21,.36,.61,.84,1.2,.84s.99-.48,1.2-.84h-2.41Z"/>
            <path d="M78.32,87.03c-.06,0-.12-.02-.17-.06l-3.49-2.59c-.13-.1-.16-.28-.06-.41,.1-.13,.28-.16,.41-.06l3.49,2.59c.13,.1,.16,.28,.06,.41-.06,.08-.15,.12-.24,.12Z"/>
            <path d="M74.83,87.43c-.1,0-.2-.05-.26-.15-.08-.14-.03-.32,.11-.4l2.3-1.28c.14-.08,.32-.03,.4,.11,.08,.14,.03,.32-.11,.4l-2.3,1.28s-.09,.04-.14,.04Z"/>
            <path class="cls-4" d="M79.36,94.63s4.24,3.85,7.31,3.88c3.06,.03,2.97-2.82,2.97-2.82l1.22,4.3-3.79,3.84-6.76-2.73-3.8-4.25,2.84-2.23Z"/>
            <path class="cls-12" d="M84.89,104.51s-2.29,3.14-2.76,8.06c-.47,4.92,2.39,10.46,2.39,10.46,0,0,4.58-5.2,5.19-9.12,.61-3.92-1.49-9.49-1.49-9.49,0,0,2.08,4.73,2.59,7.62,.51,2.89,1.22,6.61,1.22,6.61,0,0,2.36-3.27,2.2-7.65-.17-4.38-4.45-7.67-4.45-7.67l-4.89,1.18Z"/>
            <path class="cls-18" d="M85.47,105.84c-.31,0-.59-.03-.82-.09-1.4-.41-1.63-3.69-1.36-5.02,.03-.16,.19-.26,.35-.23,.16,.03,.26,.19,.23,.35-.28,1.37,.09,4.09,.95,4.34,.76,.22,2.42-.11,3.29-.33-.35-.92-1.2-3.43-.51-4.56,.21-.34,.55-.54,.97-.58,.53-.05,.82,.19,.97,.4,.84,1.17-.6,4.66-.76,5.06-.03,.06-.08,.11-.13,.15-.02,0-.04,.02-.06,.02-.09,.03-1.81,.5-3.1,.5Zm3.21-5.55s-.05,0-.08,0c-.24,.02-.41,.12-.52,.3-.44,.73,.02,2.5,.41,3.64,.5-1.38,.97-3.21,.55-3.78-.05-.07-.15-.16-.37-.16Z"/>
            <path class="cls-18" d="M85.63,112.51c-.32,0-.59-.14-.77-.39-.92-1.31,.74-5.98,.93-6.51,.04-.12,.16-.19,.29-.19,.13,0,.24,.1,.27,.23,.12,.52,1.12,5.16,.06,6.48-.2,.25-.48,.39-.8,.39Zm.37-5.66c-.59,1.87-1.12,4.27-.65,4.93,.07,.1,.15,.14,.28,.14,.14,0,.25-.05,.34-.17,.59-.74,.32-3.24,.03-4.91Z"/>
            <path class="cls-12" d="M105.36,128.82c-.13,0-.26-.09-.29-.23l-1.4-6.44c-.01-.06,0-.13,.02-.19,.02-.03,1.61-3.4,1.34-7.41-.07-1.08-4.97-10.6-3.7-8.83-.09-.13-.06-.32,.07-.41,.13-.09,.32-.06,.41,.07,.14,.2,3.53,4.96,3.81,9.14,.26,3.84-1.09,7.02-1.36,7.61l1.38,6.35c.03,.16-.07,.31-.22,.35-.02,0-.04,0-.06,0Z"/>
            <path class="cls-17" d="M118.39,131.19l-18.32,5.66s14.89,18.75,21.16,8.82c6.26-9.93-2.84-14.47-2.84-14.47Z"/>
            <path class="cls-17" d="M119.53,133.06s10.14-.01,9.63,2.72c-.51,2.73-6.43,1.43-6.43,1.43l-3.21-4.15Z"/>
            <path class="cls-17" d="M151.4,118.74s-2.8-9.75-.03-10.01c2.77-.26,3.14,5.79,3.14,5.79l-3.11,4.23Z"/>
            <rect class="cls-13" x="132.74" y="100.55" width="4.64" height="62.79" rx="2.18" ry="2.18" transform="translate(157.28 -55.56) rotate(52.43)"/>
            <rect class="cls-3" x="132.11" y="99.74" width="4.64" height="62.79" rx="2.18" ry="2.18" transform="translate(156.4 -55.38) rotate(52.43)"/>
            <path class="cls-3" d="M187.42,129.34c-1.69,0-3.4-.11-5.1-.33-10.31-1.34-19.48-6.62-25.82-14.86-13.09-17.02-9.91-41.52,7.1-54.62,17.01-13.1,41.5-9.91,54.59,7.11,6.34,8.24,9.1,18.46,7.75,28.78-1.34,10.32-6.62,19.49-14.86,25.84-6.88,5.3-15.13,8.09-23.66,8.09Zm-.12-73.7c-7.4,0-14.85,2.35-21.16,7.2-15.18,11.69-18.03,33.57-6.34,48.76,5.66,7.36,13.85,12.07,23.05,13.27,9.2,1.2,18.32-1.26,25.68-6.93,7.36-5.66,12.07-13.86,13.26-23.06,1.2-9.21-1.26-18.33-6.92-25.69-6.84-8.88-17.15-13.55-27.58-13.55Z"/>
            <path class="cls-1" d="M156.92,86.65c-.08,0-.16-.03-.21-.09-.11-.12-.1-.3,.01-.42l27.42-25.75c.12-.11,.3-.11,.41,.01,.11,.12,.11,.3-.01,.42l-27.42,25.75c-.06,.05-.13,.08-.2,.08Z"/>
            <path class="cls-17" d="M142.66,120.72c-.06,.84,.13,1.67,.47,2.44,1.13,2.61,5.57,9.35,8.51,8.75,2.82-.58,.46-4.4,.46-4.4,0,0,2.51,2.7,3.77,.36,1.05-1.96-.49-3.78-.49-3.78,0,0,3.29,4.62,3.8,1.19,.5-3.42-5.08-12.03-7.58-13.48-2.5-1.45-2.77,2.85-2.77,2.85,0,0-2.9-1.21-3.81,.25-.96,1.55,.74,3.43,.74,3.43,0,0-2.88-.62-3.09,2.4Z"/>
            <path d="M152.1,127.8c-.1,0-.19-.05-.24-.13l-5.69-8.51c-.09-.13-.05-.32,.08-.41,.14-.09,.32-.05,.41,.08l5.69,8.51c.09,.13,.05,.32-.08,.41-.05,.03-.11,.05-.16,.05Z"/>
            <path d="M155.37,124.38c-.09,0-.19-.04-.24-.13l-5.81-8.47c-.09-.13-.06-.32,.08-.41,.13-.09,.32-.06,.41,.08l5.81,8.47c.09,.13,.06,.32-.08,.41-.05,.04-.11,.05-.17,.05Z"/>
            <path class="cls-17" d="M126.4,142.89c.07-.83-.12-1.65-.44-2.42-1.1-2.6-5.46-9.37-8.39-8.85-2.81,.5-.5,4.34-.5,4.34,0,0-2.47-2.73-3.74-.44-1.06,1.91,.45,3.74,.45,3.74,0,0-2.84-2.6-3.38,.77-.53,3.37,4.56,9.97,7.03,11.46,2.48,1.5,2.78-2.75,2.78-2.75,0,0,2.88,1.27,3.8-.16,.97-1.51-.71-3.4-.71-3.4,0,0,2.86,.68,3.1-2.29Z"/>
            <path d="M122.73,144.68c-.1,0-.19-.05-.25-.13l-5.55-8.61c-.09-.14-.05-.32,.09-.41s.32-.05,.41,.09l5.55,8.61c.09,.14,.05,.32-.09,.41-.05,.03-.1,.05-.16,.05Z"/>
            <path d="M119.53,148.01c-.1,0-.19-.05-.25-.13l-5.67-8.57c-.09-.14-.05-.32,.08-.41,.14-.09,.32-.05,.41,.08l5.67,8.57c.09,.14,.05,.32-.08,.41-.05,.03-.11,.05-.16,.05Z"/>
            <path class="cls-10" d="M66.57,106.11s-14.96,17.33-6.13,36.24c7.86,16.84,26.38,17.29,35.86,14.33,9.48-2.96,14.1-7.65,14.1-7.65l-2.66-15.7s-17.26-.07-26.74-.96c-9.48-.89-14.42-26.25-14.42-26.25Z"/>
            <path class="cls-12" d="M75.47,133.19c-1.23,0-2.17-.16-2.41-.62-.27-.52,.29-1.06,.48-1.23,2.99-2.84,8.92,.3,9.17,.43,.11,.06,.17,.18,.15,.3-.02,.12-.11,.22-.23,.24-1.36,.26-4.78,.87-7.15,.87Zm1.42-2.44c-1.1,0-2.16,.27-2.95,1.02-.35,.33-.38,.5-.36,.54,.3,.58,4.24,.27,8.04-.39-1.05-.46-2.94-1.16-4.73-1.16Z"/>
            <path class="cls-12" d="M90.31,132.79s-7.99-.56-7.99-.56c-.16-.01-.28-.15-.27-.31,.01-.16,.16-.28,.31-.27l7.97,.56c.16,.01,.28,.15,.27,.31-.01,.16-.14,.27-.29,.27Z"/>
          </g>
          <path class="cls-1" d="M463.73,22.54h-107.34c-.16,0-.29-.13-.29-.29s.13-.29,.29-.29h107.34c.16,0,.29,.13,.29,.29s-.13,.29-.29,.29Z"/>
          <path class="cls-1" d="M457.54,20.73c-.08,0-.17-.04-.22-.1-.11-.12-.09-.31,.03-.41l2.78-2.37c.12-.11,.31-.09,.41,.03,.11,.12,.09,.31-.03,.41l-2.78,2.37c-.06,.05-.12,.07-.19,.07Z"/>
          <path class="cls-1" d="M460.33,20.73c-.07,0-.13-.02-.19-.07l-2.78-2.37c-.12-.1-.14-.29-.03-.41,.1-.12,.29-.14,.41-.03l2.78,2.37c.12,.1,.14,.29,.03,.41-.06,.07-.14,.1-.22,.1Z"/>
          <g>
            <path class="cls-18" d="M491.15,36.35h-48.26c-3.17,0-5.76-2.58-5.76-5.76V9.28c0-3.18,2.58-5.76,5.76-5.76h48.26c3.17,0,5.76,2.58,5.76,5.76V30.59c0,3.18-2.58,5.76-5.76,5.76ZM442.89,4.11c-2.85,0-5.17,2.32-5.17,5.17V30.59c0,2.85,2.32,5.17,5.17,5.17h48.26c2.85,0,5.17-2.32,5.17-5.17V9.28c0-2.85-2.32-5.17-5.17-5.17h-48.26Z"/>
            <path class="cls-18" d="M496.61,11.16h-59.19c-.16,0-.29-.13-.29-.29s.13-.29,.29-.29h59.19c.16,0,.29,.13,.29,.29s-.13,.29-.29,.29Z"/>
            <path class="cls-18" d="M482.68,7.12c0,.67-.54,1.21-1.21,1.21s-1.21-.54-1.21-1.21,.54-1.21,1.21-1.21,1.21,.54,1.21,1.21Z"/>
            <path class="cls-18" d="M487.27,7.12c0,.67-.54,1.21-1.21,1.21s-1.21-.54-1.21-1.21,.54-1.21,1.21-1.21,1.21,.54,1.21,1.21Z"/>
            <path class="cls-18" d="M492.06,7.12c0,.67-.54,1.21-1.21,1.21s-1.21-.54-1.21-1.21,.54-1.21,1.21-1.21,1.21,.54,1.21,1.21Z"/>
          </g>
        </g>
      </g>
    </g>
  </g>
</svg>