<svg xmlns="http://www.w3.org/2000/svg" width="610" height="342" viewBox="0 0 610 342">
  <g id="Grupo_146539" data-name="Grupo 146539" transform="translate(-810 -2963)">
    <g id="Grupo_141481" data-name="Grupo 141481" transform="translate(0 237)">
      <g id="Rectángulo_44266" data-name="Rectángulo 44266" transform="translate(810 2726)" fill="#fff" stroke="#707070" stroke-width="1">
        <path d="M20,0H590a20,20,0,0,1,20,20V342a0,0,0,0,1,0,0H0a0,0,0,0,1,0,0V20A20,20,0,0,1,20,0Z" stroke="none"/>
        <path d="M20,.5H590A19.5,19.5,0,0,1,609.5,20V341.5a0,0,0,0,1,0,0H.5a0,0,0,0,1,0,0V20A19.5,19.5,0,0,1,20,.5Z" fill="none"/>
      </g>
      <g id="_1_1_tarjetaB" data-name="1_1_tarjetaB" transform="translate(949.691 2726.923)">
        <g id="Layer_1" transform="translate(27.69 37.55)">
          <g id="Grupo_141445" data-name="Grupo 141445" transform="translate(144.127 6.243)" opacity="0.8">
            <circle id="Elipse_4978" data-name="Elipse 4978" cx="46.275" cy="46.275" r="46.275" fill="#feca2e"/>
            <circle id="Elipse_4979" data-name="Elipse 4979" cx="41.82" cy="41.82" r="41.82" transform="translate(4.455 4.455)" fill="#fff"/>
            <path id="Trazado_194136" data-name="Trazado 194136" d="M448.051,108.41c-28.057,9.867-28.431,18.3-28.431,18.3C430.177,128.995,448.051,108.41,448.051,108.41Z" transform="translate(-373.335 -80.227)" fill="#feca2e"/>
            <path id="Trazado_194137" data-name="Trazado 194137" d="M387.1,112.49s16.183,10.8,15.513,18.481C402.613,130.971,396.613,131.467,387.1,112.49Z" transform="translate(-356.614 -82.325)" fill="#feca2e"/>
            <path id="Trazado_194138" data-name="Trazado 194138" d="M418.621,145.407a2.341,2.341,0,1,0-3.294-.326A2.338,2.338,0,0,0,418.621,145.407Z" transform="translate(-370.854 -97.115)" fill="#efa04b"/>
            <rect id="Rectángulo_44206" data-name="Rectángulo 44206" width="0.763" height="9.211" transform="translate(45.906 4.455)" fill="#efa04b"/>
            <rect id="Rectángulo_44207" data-name="Rectángulo 44207" width="0.763" height="9.211" transform="translate(45.906 78.884)" fill="#efa04b"/>
            <rect id="Rectángulo_44208" data-name="Rectángulo 44208" width="9.211" height="0.763" transform="translate(78.894 45.896)" fill="#efa04b"/>
            <rect id="Rectángulo_44209" data-name="Rectángulo 44209" width="9.211" height="0.763" transform="translate(4.465 45.896)" fill="#efa04b"/>
            <rect id="Rectángulo_44210" data-name="Rectángulo 44210" width="4.606" height="0.763" transform="translate(72.333 19.689) rotate(-45)" fill="#efa04b"/>
            <rect id="Rectángulo_44211" data-name="Rectángulo 44211" width="4.606" height="0.763" transform="translate(16.448 75.58) rotate(-45)" fill="#efa04b"/>
            <rect id="Rectángulo_44212" data-name="Rectángulo 44212" width="0.763" height="4.606" transform="translate(59.178 81.181) rotate(-20.85)" fill="#efa04b"/>
            <rect id="Rectángulo_44213" data-name="Rectángulo 44213" width="0.763" height="4.606" transform="translate(31.044 7.327) rotate(-20.85)" fill="#efa04b"/>
            <rect id="Rectángulo_44214" data-name="Rectángulo 44214" width="4.606" height="0.763" transform="translate(28.824 84.274) rotate(-65.85)" fill="#efa04b"/>
            <rect id="Rectángulo_44215" data-name="Rectángulo 44215" width="4.606" height="0.763" transform="translate(61.158 12.159) rotate(-65.85)" fill="#efa04b"/>
            <rect id="Rectángulo_44216" data-name="Rectángulo 44216" width="4.606" height="0.763" transform="translate(7.072 60.796) rotate(-20.85)" fill="#efa04b"/>
            <rect id="Rectángulo_44217" data-name="Rectángulo 44217" width="4.606" height="0.763" transform="translate(80.922 32.668) rotate(-20.85)" fill="#efa04b"/>
            <rect id="Rectángulo_44218" data-name="Rectángulo 44218" width="0.763" height="4.606" transform="translate(7.965 29.507) rotate(-65.85)" fill="#efa04b"/>
            <rect id="Rectángulo_44219" data-name="Rectángulo 44219" width="0.763" height="4.606" transform="translate(80.075 61.841) rotate(-65.85)" fill="#efa04b"/>
            <rect id="Rectángulo_44220" data-name="Rectángulo 44220" width="0.763" height="4.606" transform="matrix(0.719, -0.695, 0.695, 0.719, 16.934, 16.471)" fill="#efa04b"/>
            <rect id="Rectángulo_44221" data-name="Rectángulo 44221" width="0.763" height="4.606" transform="translate(71.891 73.308) rotate(-44.04)" fill="#efa04b"/>
          </g>
          <g id="Grupo_141446" data-name="Grupo 141446">
            <path id="Trazado_194139" data-name="Trazado 194139" d="M106.924,37.55V143.937H27.69V55.054l17.062-17.5Z" transform="translate(-27.69 -37.55)" fill="#d4f1f9"/>
            <path id="Trazado_194140" data-name="Trazado 194140" d="M27.69,55.088,44.65,37.55V55.088Z" transform="translate(-27.69 -37.55)" fill="#3aa1c9"/>
            <path id="Trazado_194141" data-name="Trazado 194141" d="M77.559,62.9h34.567a.9.9,0,0,0,.9-.9h0a.9.9,0,0,0-.9-.9H77.559a.9.9,0,0,0-.9.9h0A.9.9,0,0,0,77.559,62.9Z" transform="translate(-52.869 -49.659)" fill="#3aa1c9"/>
            <path id="Trazado_194142" data-name="Trazado 194142" d="M67.859,77.228h43.992a.9.9,0,0,0,.9-.9h0a.9.9,0,0,0-.9-.9H67.859a.9.9,0,0,0-.9.9h0A.9.9,0,0,0,67.859,77.228Z" transform="translate(-47.881 -57.027)" fill="#3aa1c9"/>
            <path id="Trazado_194143" data-name="Trazado 194143" d="M43.839,111.408H107.58a.9.9,0,0,0,.9-.9h0a.9.9,0,0,0-.9-.9H43.839a.9.9,0,0,0-.9.9h0A.9.9,0,0,0,43.839,111.408Z" transform="translate(-35.531 -74.601)" fill="#3aa1c9"/>
            <path id="Trazado_194144" data-name="Trazado 194144" d="M43.839,127.578H107.58a.9.9,0,0,0,.9-.9h0a.9.9,0,0,0-.9-.9H43.839a.9.9,0,0,0-.9.9h0A.9.9,0,0,0,43.839,127.578Z" transform="translate(-35.531 -82.915)" fill="#3aa1c9"/>
            <path id="Trazado_194145" data-name="Trazado 194145" d="M43.839,143.748H107.58a.9.9,0,0,0,.9-.9h0a.9.9,0,0,0-.9-.9H43.839a.9.9,0,0,0-.9.9h0A.9.9,0,0,0,43.839,143.748Z" transform="translate(-35.531 -91.229)" fill="#3aa1c9"/>
            <path id="Trazado_194146" data-name="Trazado 194146" d="M43.839,162.2H107.58a.9.9,0,0,0,.9-.9h0a.9.9,0,0,0-.9-.9H43.839a.9.9,0,0,0-.9.9h0A.9.9,0,0,0,43.839,162.2Z" transform="translate(-35.531 -100.716)" fill="#3aa1c9"/>
            <path id="Trazado_194147" data-name="Trazado 194147" d="M43.839,178.368H107.58a.9.9,0,0,0,.9-.9h0a.9.9,0,0,0-.9-.9H43.839a.9.9,0,0,0-.9.9h0A.9.9,0,0,0,43.839,178.368Z" transform="translate(-35.531 -109.03)" fill="#3aa1c9"/>
            <path id="Trazado_194148" data-name="Trazado 194148" d="M43.839,233.838H107.58a.9.9,0,0,0,.9-.9h0a.9.9,0,0,0-.9-.9H43.839a.9.9,0,0,0-.9.9h0A.9.9,0,0,0,43.839,233.838Z" transform="translate(-35.531 -137.551)" fill="#3aa1c9"/>
            <path id="Trazado_194149" data-name="Trazado 194149" d="M43.839,220.638H107.58a.9.9,0,0,0,.9-.9h0a.9.9,0,0,0-.9-.9H43.839a.9.9,0,0,0-.9.9h0A.9.9,0,0,0,43.839,220.638Z" transform="translate(-35.531 -130.764)" fill="#3aa1c9"/>
          </g>
          <g id="Grupo_141447" data-name="Grupo 141447" transform="translate(27.906 66.073)">
            <rect id="Rectángulo_44222" data-name="Rectángulo 44222" width="222.151" height="164.23" transform="translate(9.022 3.095)" fill="#dcf4ff"/>
            <path id="Trazado_194150" data-name="Trazado 194150" d="M320.214,335.181V183.233a9.681,9.681,0,0,0-9.683-9.683H94.813a9.681,9.681,0,0,0-9.683,9.683V335.181a9.681,9.681,0,0,0,9.683,9.683H310.531a9.681,9.681,0,0,0,9.683-9.683Zm-213.673,5.694a5.262,5.262,0,0,1-5.262-5.262V182.8a5.262,5.262,0,0,1,5.262-5.262H310.429A5.87,5.87,0,0,1,316.3,183.4v151.6a5.87,5.87,0,0,1-5.869,5.869H106.545Z" transform="translate(-85.13 -173.55)" fill="#223749"/>
          </g>
          <rect id="Rectángulo_44223" data-name="Rectángulo 44223" width="203.029" height="118.727" rx="9.35" transform="translate(50.055 75.177)" fill="#fff"/>
          <g id="Grupo_141448" data-name="Grupo 141448" transform="translate(56.463 85.565)">
            <path id="Trazado_194151" data-name="Trazado 194151" d="M168.148,228.381H143.91V213.67h24.238Zm-23.388-.85H167.3V214.52H144.76Z" transform="translate(-143.91 -213.67)" fill="#b1e8fc"/>
            <path id="Trazado_194152" data-name="Trazado 194152" d="M225.088,228.381H200.85V213.67h24.238Zm-23.388-.85h22.538V214.52H201.7Z" transform="translate(-173.187 -213.67)" fill="#b1e8fc"/>
            <rect id="Rectángulo_44224" data-name="Rectángulo 44224" width="23.388" height="13.861" transform="translate(55.749 0.423)" fill="#b1e8fc"/>
            <rect id="Rectángulo_44225" data-name="Rectángulo 44225" width="23.388" height="13.861" transform="translate(83.412 0.423)" fill="#b1e8fc"/>
            <rect id="Rectángulo_44226" data-name="Rectángulo 44226" width="23.388" height="13.861" transform="translate(111.075 0.423)" fill="#b1e8fc"/>
            <rect id="Rectángulo_44227" data-name="Rectángulo 44227" width="23.388" height="13.861" transform="translate(138.739 0.423)" fill="#b1e8fc"/>
            <rect id="Rectángulo_44228" data-name="Rectángulo 44228" width="23.388" height="13.861" transform="translate(166.402 0.423)" fill="#b1e8fc"/>
          </g>
          <g id="Grupo_141449" data-name="Grupo 141449" transform="translate(56.886 104.138)">
            <rect id="Rectángulo_44229" data-name="Rectángulo 44229" width="23.388" height="13.861" fill="#b1e8fc"/>
            <rect id="Rectángulo_44230" data-name="Rectángulo 44230" width="23.388" height="13.861" transform="translate(27.663)" fill="#b1e8fc"/>
            <rect id="Rectángulo_44231" data-name="Rectángulo 44231" width="23.388" height="13.861" transform="translate(55.326)" fill="#b1e8fc"/>
            <rect id="Rectángulo_44232" data-name="Rectángulo 44232" width="23.388" height="13.861" transform="translate(82.99)" fill="#b1e8fc"/>
            <rect id="Rectángulo_44233" data-name="Rectángulo 44233" width="23.388" height="13.861" transform="translate(110.653)" fill="#b1e8fc"/>
            <rect id="Rectángulo_44234" data-name="Rectángulo 44234" width="23.388" height="13.861" transform="translate(138.316)" fill="#b1e8fc"/>
            <rect id="Rectángulo_44235" data-name="Rectángulo 44235" width="23.388" height="13.861" transform="translate(165.979)" fill="#b1e8fc"/>
          </g>
          <g id="Grupo_141450" data-name="Grupo 141450" transform="translate(56.886 122.288)">
            <rect id="Rectángulo_44236" data-name="Rectángulo 44236" width="23.388" height="13.861" fill="#b1e8fc"/>
            <rect id="Rectángulo_44237" data-name="Rectángulo 44237" width="23.388" height="13.861" transform="translate(27.663)" fill="#b1e8fc"/>
            <rect id="Rectángulo_44238" data-name="Rectángulo 44238" width="23.388" height="13.861" transform="translate(55.326)" fill="#b1e8fc"/>
            <rect id="Rectángulo_44239" data-name="Rectángulo 44239" width="23.388" height="13.861" transform="translate(82.99)" fill="#b1e8fc"/>
            <rect id="Rectángulo_44240" data-name="Rectángulo 44240" width="23.388" height="13.861" transform="translate(110.653)" fill="#b1e8fc"/>
            <rect id="Rectángulo_44241" data-name="Rectángulo 44241" width="23.388" height="13.861" transform="translate(138.316)" fill="#b1e8fc"/>
            <rect id="Rectángulo_44242" data-name="Rectángulo 44242" width="23.388" height="13.861" transform="translate(165.979)" fill="#b1e8fc"/>
          </g>
          <g id="Grupo_141451" data-name="Grupo 141451" transform="translate(56.886 140.439)">
            <rect id="Rectángulo_44243" data-name="Rectángulo 44243" width="23.388" height="13.861" fill="#b1e8fc"/>
            <rect id="Rectángulo_44244" data-name="Rectángulo 44244" width="23.388" height="13.861" transform="translate(27.663)" fill="#b1e8fc"/>
            <rect id="Rectángulo_44245" data-name="Rectángulo 44245" width="23.388" height="13.861" transform="translate(55.326)" fill="#b1e8fc"/>
            <rect id="Rectángulo_44246" data-name="Rectángulo 44246" width="23.388" height="13.861" transform="translate(82.99)" fill="#b1e8fc"/>
            <rect id="Rectángulo_44247" data-name="Rectángulo 44247" width="23.388" height="13.861" transform="translate(110.653)" fill="#b1e8fc"/>
            <rect id="Rectángulo_44248" data-name="Rectángulo 44248" width="23.388" height="13.861" transform="translate(138.316)" fill="#b1e8fc"/>
            <rect id="Rectángulo_44249" data-name="Rectángulo 44249" width="23.388" height="13.861" transform="translate(165.979)" fill="#b1e8fc"/>
          </g>
          <g id="Grupo_141452" data-name="Grupo 141452" transform="translate(56.886 158.162)">
            <rect id="Rectángulo_44250" data-name="Rectángulo 44250" width="23.388" height="13.861" transform="translate(0 0.428)" fill="#b1e8fc"/>
            <rect id="Rectángulo_44251" data-name="Rectángulo 44251" width="23.388" height="13.861" transform="translate(27.663 0.428)" fill="#b1e8fc"/>
            <rect id="Rectángulo_44252" data-name="Rectángulo 44252" width="23.388" height="13.861" transform="translate(55.326 0.428)" fill="#b1e8fc"/>
            <rect id="Rectángulo_44253" data-name="Rectángulo 44253" width="23.388" height="13.861" transform="translate(82.99 0.428)" fill="#b1e8fc"/>
            <path id="Trazado_194153" data-name="Trazado 194153" d="M395.908,377.811H371.67V363.1h24.238Zm-23.388-.85h22.538V363.95H372.52Z" transform="translate(-261.44 -363.1)" fill="#b1e8fc"/>
            <path id="Trazado_194154" data-name="Trazado 194154" d="M452.838,377.811H428.6V363.1h24.238Zm-23.388-.85h22.538V363.95H429.45Z" transform="translate(-290.712 -363.1)" fill="#b1e8fc"/>
            <path id="Trazado_194155" data-name="Trazado 194155" d="M509.778,377.811H485.54V363.1h24.238Zm-23.388-.85h22.538V363.95H486.39Z" transform="translate(-319.988 -363.1)" fill="#b1e8fc"/>
          </g>
          <path id="Trazado_194156" data-name="Trazado 194156" d="M274.223,327.268l-6.875-10.232a.511.511,0,1,1,.85-.568l5.781,8.6,7.346-18.787a.514.514,0,0,1,.957.374l-8.06,20.614Z" transform="translate(-150.871 -175.558)" fill="#3aa1c9"/>
          <path id="Trazado_194157" data-name="Trazado 194157" d="M331.131,252.848l-6.875-10.232a.511.511,0,0,1,.85-.568l5.781,8.6,7.346-18.787a.514.514,0,0,1,.957.374l-8.06,20.614Z" transform="translate(-180.13 -137.293)" fill="#3aa1c9"/>
          <path id="Trazado_194158" data-name="Trazado 194158" d="M169.561,359.258l-6.874-10.232a.511.511,0,1,1,.85-.568l5.781,8.6,7.346-18.787a.514.514,0,0,1,.957.374l-8.06,20.614Z" transform="translate(-97.055 -192.006)" fill="#3aa1c9"/>
          <path id="Trazado_194159" data-name="Trazado 194159" d="M276.2,279.818l-6.875-10.232a.511.511,0,1,1,.85-.568l5.781,8.6,7.346-18.787a.514.514,0,1,1,.957.374l-8.06,20.614Z" transform="translate(-151.889 -151.16)" fill="#3aa1c9"/>
          <path id="Trazado_194160" data-name="Trazado 194160" d="M164.793,251.288l-6.874-10.232a.511.511,0,1,1,.85-.568l5.781,8.6L171.9,230.3a.514.514,0,1,1,.957.374l-8.06,20.614Z" transform="translate(-94.605 -136.491)" fill="#3aa1c9"/>
          <rect id="Rectángulo_44254" data-name="Rectángulo 44254" width="82.679" height="22.815" rx="11.407" transform="translate(50.055 201.241)" fill="#fff"/>
          <g id="Grupo_141453" data-name="Grupo 141453" transform="translate(111.863 207.299)">
            <path id="Trazado_194161" data-name="Trazado 194161" d="M263.585,464.24a5.65,5.65,0,1,0,5.645,5.65A5.645,5.645,0,0,0,263.585,464.24Zm0,10.47a4.824,4.824,0,1,1,4.824-4.824A4.824,4.824,0,0,1,263.585,474.71Z" transform="translate(-257.94 -464.24)" fill="#b1e8fc"/>
            <path id="Trazado_194162" data-name="Trazado 194162" d="M272.179,472.261H268.56V468.4a.228.228,0,1,1,.457,0V471.8h3.158a.228.228,0,1,1,0,.457Z" transform="translate(-263.4 -466.261)" fill="#b1e8fc"/>
          </g>
          <rect id="Rectángulo_44255" data-name="Rectángulo 44255" width="45.041" height="1.744" rx="0.872" transform="translate(59.427 209.082)" fill="#b1e8fc"/>
          <rect id="Rectángulo_44256" data-name="Rectángulo 44256" width="45.041" height="1.744" rx="0.872" transform="translate(59.427 214.465)" fill="#b1e8fc"/>
          <g id="Grupo_141454" data-name="Grupo 141454" transform="translate(59.427 219.294)">
            <path id="Trazado_194163" data-name="Trazado 194163" d="M151.866,489.858a.928.928,0,1,1-.928-.928A.928.928,0,0,1,151.866,489.858Z" transform="translate(-150.01 -488.93)" fill="#b1e8fc"/>
            <path id="Trazado_194164" data-name="Trazado 194164" d="M157.776,489.858a.928.928,0,1,1-.928-.928A.928.928,0,0,1,157.776,489.858Z" transform="translate(-153.049 -488.93)" fill="#b1e8fc"/>
            <path id="Trazado_194165" data-name="Trazado 194165" d="M163.686,489.858a.928.928,0,1,1-.928-.928A.928.928,0,0,1,163.686,489.858Z" transform="translate(-156.087 -488.93)" fill="#b1e8fc"/>
          </g>
          <g id="Grupo_141457" data-name="Grupo 141457" transform="translate(140.614 217.905)">
            <g id="Grupo_141455" data-name="Grupo 141455">
              <rect id="Rectángulo_44257" data-name="Rectángulo 44257" width="53.096" height="1.185" rx="0.593" fill="#b1e8fc"/>
            </g>
            <g id="Grupo_141456" data-name="Grupo 141456" transform="translate(0 4.96)">
              <rect id="Rectángulo_44258" data-name="Rectángulo 44258" width="53.096" height="1.185" rx="0.593" fill="#b1e8fc"/>
            </g>
          </g>
          <path id="Trazado_194166" data-name="Trazado 194166" d="M489.09,464.71l.024,1.3.024,1.3,1.87.311a7.152,7.152,0,0,0,.923,2.123l-1.049,1.579.933.9.933.9,1.545-1.1a7.217,7.217,0,0,0,2.152.85l.374,1.861,1.3-.024,1.3-.024.311-1.87a7.152,7.152,0,0,0,2.123-.923l1.579,1.049.9-.933.9-.933-1.1-1.545a7.218,7.218,0,0,0,.85-2.152l1.861-.374-.024-1.3-.024-1.3-1.87-.311a7.152,7.152,0,0,0-.923-2.123l1.049-1.579-.933-.9-.933-.9-1.545,1.1a7.217,7.217,0,0,0-2.152-.85l-.374-1.861-1.3.024-1.3.024-.311,1.87a7.152,7.152,0,0,0-2.123.923l-1.579-1.049-.9.933-.9.933,1.1,1.545a7.218,7.218,0,0,0-.85,2.152Zm4,1.229a4.864,4.864,0,1,1,4.946,4.781A4.867,4.867,0,0,1,493.093,465.939Z" transform="translate(-264.928 -253.208)" fill="#b1e8fc"/>
          <g id="Grupo_141463" data-name="Grupo 141463" transform="translate(67.294 11.783)">
            <path id="Trazado_194167" data-name="Trazado 194167" d="M180.286,128.89l2.05.889,2.283,1.083s3.542.617,3.6.6c.01,0-.3.53-.3.53,4.4.544,18.258,1.113,20.531,1.365,1.37.155,2.691,1.856,3.522,3.187l-1.127.763s-12.1-.534-12.078-.282c.01.083.35,1.283.879,2.852-7.477.5-17.942.452-19.885-2.628C178.167,134.725,179.722,131.1,180.286,128.89Z" transform="translate(-172.815 -96.298)" fill="#fe9f73"/>
            <path id="Trazado_194168" data-name="Trazado 194168" d="M268.478,230.53l-9.2.121-.131-8.594,9.163-1.137Z" transform="translate(-213.994 -143.617)" fill="#fe9f73"/>
            <g id="Grupo_141458" data-name="Grupo 141458" transform="translate(44.54 83.244)">
              <path id="Trazado_194169" data-name="Trazado 194169" d="M276.861,240.008l-18.641-2.269.452-3.717a2.92,2.92,0,0,1,3.527-.457,4.638,4.638,0,0,0,5.859.282l6.544,3.775s2.41,1.122,2.254,2.385Z" transform="translate(-258.055 -233.147)" fill="#0f2771"/>
              <path id="Trazado_194170" data-name="Trazado 194170" d="M.194,0h19.4V1.317H.194A.2.2,0,0,1,0,1.122V.194A.2.2,0,0,1,.194,0Z" transform="matrix(-0.993, -0.121, 0.121, -0.993, 19.45, 8.272)" fill="#472a31"/>
              <path id="Trazado_194171" data-name="Trazado 194171" d="M277.74,236.3c-.743.894-2.235,2.682-3.187,3.823l-1.273-.155c.85-1.02,2.628-3.153,3.513-4.212Z" transform="translate(-265.799 -234.49)" fill="#d7e4f7"/>
              <path id="Trazado_194172" data-name="Trazado 194172" d="M278.753,241.3l-1.273-.155c.69-.831,2.036-2.444,2.988-3.585l.947.544Z" transform="translate(-267.958 -235.416)" fill="#d7e4f7"/>
            </g>
            <path id="Trazado_194173" data-name="Trazado 194173" d="M197.149,154.337s-7.919.131-13.467-.058a34.751,34.751,0,0,1-4.3-.146c-3.862-.86-4.815-12.913-.428-20.3s19.73,15.289,19.73,15.289Z" transform="translate(-171.265 -98.08)" fill="#0f2771"/>
            <path id="Trazado_194174" data-name="Trazado 194174" d="M239.1,230.53l-9.2.121-.131-8.594,9.163-1.137Z" transform="translate(-198.887 -143.617)" fill="#fe9f73"/>
            <g id="Grupo_141459" data-name="Grupo 141459" transform="translate(29.74 82.934)">
              <path id="Trazado_194175" data-name="Trazado 194175" d="M246.363,240.618l-18.4-3.717.743-3.673a2.917,2.917,0,0,1,3.551-.18,4.64,4.64,0,0,0,5.82.738l6.228,4.275s2.313,1.307,2.065,2.555Z" transform="translate(-227.697 -232.509)" fill="#0f2771"/>
              <path id="Trazado_194176" data-name="Trazado 194176" d="M.194,0h19.4V1.317H.194A.2.2,0,0,1,0,1.122V.194A.2.2,0,0,1,.194,0Z" transform="matrix(-0.98, -0.198, 0.198, -0.98, 19.206, 9.56)" fill="#683d46"/>
              <path id="Trazado_194177" data-name="Trazado 194177" d="M247.567,237.087c-.811.831-2.439,2.5-3.474,3.561l-1.253-.253,3.828-3.926Z" transform="translate(-235.347 -234.546)" fill="#d7e4f7"/>
              <path id="Trazado_194178" data-name="Trazado 194178" d="M248.233,242.105l-1.253-.253c.753-.772,2.22-2.279,3.26-3.343l.9.617c-.874.894-2.084,2.138-2.905,2.978Z" transform="translate(-237.476 -235.595)" fill="#d7e4f7"/>
            </g>
            <path id="Trazado_194179" data-name="Trazado 194179" d="M227.84,142.169s19.448,1.244,20.007,3.488,2.172,26.118.967,36.306c0,0-7.38.51-10.907-.35l-.86-24.836-5.825-.67L217.88,140.07l9.96,2.1Z" transform="translate(-192.774 -102.046)" fill="#12263f"/>
            <path id="Trazado_194180" data-name="Trazado 194180" d="M209.738,143.63s15,4.232,15.556,6.476,2.157,23.553.957,33.736c0,0-7.934.457-11.461-.4l-.952-23.427-3.42.121-8.3-14.6,7.618-1.9Z" transform="translate(-184.671 -103.876)" fill="#0f2771"/>
            <path id="Trazado_194181" data-name="Trazado 194181" d="M231.851,201.421a13.6,13.6,0,0,1-4.815-.554l-.078-.034-.918-23.563,1.448.685-.117.243-1.045-.491.894,22.946c.379.131,2.2.656,6.491.457l.015.272c-.685.034-1.312.044-1.875.044Z" transform="translate(-196.97 -121.173)" fill="#21111d"/>
            <path id="Trazado_194182" data-name="Trazado 194182" d="M230.716,199.46c-.374-1.443-.481-15.517-.486-16.12h.272c0,.146.112,14.638.476,16.052Z" transform="translate(-199.124 -124.294)" fill="#21111d"/>
            <path id="Trazado_194183" data-name="Trazado 194183" d="M255.421,174.563a18.74,18.74,0,0,0-4.251-.661l.01-.272a18.885,18.885,0,0,1,4.324.675Z" transform="translate(-209.891 -119.301)" fill="#21111d"/>
            <path id="Trazado_194184" data-name="Trazado 194184" d="M261.738,199.742a24.179,24.179,0,0,1-5.087-.5l-.1-.024-.87-25.113,1.108.894-.17.209-.646-.52.84,24.311a24.632,24.632,0,0,0,5.184.466v.272h-.262Z" transform="translate(-212.209 -119.548)" fill="#21111d"/>
            <path id="Trazado_194185" data-name="Trazado 194185" d="M260.209,199c-.374-2.181-.019-16.936,0-17.563h.272c0,.16-.369,15.362,0,17.519l-.267.044Z" transform="translate(-214.451 -123.317)" fill="#21111d"/>
            <path id="Trazado_194186" data-name="Trazado 194186" d="M194.253,177.344c-3.454,0-7.594-.117-12.253-.466l.019-.267a137.689,137.689,0,0,0,23.266,0l.029.267c-.063,0-4.207.466-11.067.466Z" transform="translate(-174.325 -120.834)" fill="#21111d"/>
            <path id="Trazado_194187" data-name="Trazado 194187" d="M217,128.07c.267,0,11.043,4.63,11.043,4.63l-2.172,4.154-6.044-1.326L217,128.07Z" transform="translate(-192.321 -95.876)" fill="#feca2e"/>
            <path id="Trazado_194188" data-name="Trazado 194188" d="M175.272,88.323s-4.581-.16-6.768,1.079c-3.265,1.851-2.1,12.437-2.1,12.437s2.774-1.511,2.939-2.016S175.272,88.323,175.272,88.323Z" transform="translate(-166.203 -75.436)" fill="#feca2e"/>
            <path id="Trazado_194189" data-name="Trazado 194189" d="M182.489,135.37a.024.024,0,0,1,.015,0l3.372.772a.127.127,0,0,0,.151-.1.124.124,0,0,0-.1-.151l-3.372-.772a.127.127,0,0,0-.151.1.123.123,0,0,0,.078.146Z" transform="translate(-174.533 -99.503)" fill="#21111d"/>
            <path id="Trazado_194190" data-name="Trazado 194190" d="M177.666,131.51l2.05.889L182,133.482s3.542.617,3.6.6c.01,0-.3.53-.3.53,4.4.544,18.258,1.113,20.531,1.365,1.37.155,2.691,1.856,3.522,3.187l-1.127.763s-12.1-.534-12.078-.282c.01.083.35,1.283.879,2.852-7.477.5-17.942.452-19.885-2.628-1.594-2.526-.039-6.155.525-8.361Z" transform="translate(-171.468 -97.645)" fill="#f9b59d"/>
            <path id="Trazado_194191" data-name="Trazado 194191" d="M171.02,89.387c2.6-.36,9.474-.607,9.474-.607s.909.238.622.1c7.584,1.341,8.424,6.967,8.424,6.967l3.7,16.256,4.12.223c1.336,2.526.355,9.343.355,9.343l-19.958,2.249s-4.314.709-7.963-3.969c-2.415-3.095-3.236-12.6-3.236-19.545,0,0,.413-10.455,4.46-11.019Z" transform="translate(-166.387 -75.674)" fill="#feca2e"/>
            <g id="Grupo_141461" data-name="Grupo 141461" transform="translate(27.948 26.301)">
              <g id="Grupo_141460" data-name="Grupo 141460" transform="translate(6.962)">
                <path id="Trazado_194192" data-name="Trazado 194192" d="M263.692,115.94H244.687l-6.627,16.878h19Z" transform="translate(-238.06 -115.94)" fill="#727997"/>
                <path id="Trazado_194193" data-name="Trazado 194193" d="M238.06,132.818h.991l6.627-16.878h-.991Z" transform="translate(-238.06 -115.94)" fill="#0f2771"/>
                <path id="Trazado_194194" data-name="Trazado 194194" d="M265.116,131.007c-.262.777-.068,1.54.432,1.71s1.122-.321,1.385-1.093.068-1.54-.432-1.71S265.379,130.235,265.116,131.007Z" transform="translate(-251.911 -123.108)" fill="#e2f2f1"/>
              </g>
              <path id="Trazado_194195" data-name="Trazado 194195" d="M224.41,147.87h7.1v1.365h-7.1a.682.682,0,0,1-.68-.68h0a.682.682,0,0,1,.68-.68Z" transform="translate(-223.73 -132.357)" fill="#cc2323"/>
              <rect id="Rectángulo_44259" data-name="Rectángulo 44259" width="4.484" height="0.214" transform="translate(6.957 16.193) rotate(180)" fill="#0f2771"/>
            </g>
            <path id="Trazado_194196" data-name="Trazado 194196" d="M186.289,121.7a.173.173,0,0,0,.073,0,.121.121,0,0,0,.092-.151c-.019-.087-2.109-8.954-2.993-14.536a.128.128,0,0,0-.253.039c.889,5.587,2.978,14.463,3,14.555a.119.119,0,0,0,.078.087Z" transform="translate(-174.946 -84.995)" fill="#21111d"/>
            <path id="Trazado_194197" data-name="Trazado 194197" d="M212.051,122.693a.12.12,0,0,0,.083,0,.127.127,0,0,0,.083-.16c-.029-.1-3.124-9.921-3.77-13.312a.126.126,0,1,0-.248.044c.651,3.411,3.751,13.244,3.78,13.341a.105.105,0,0,0,.078.078Z" transform="translate(-187.795 -86.131)" fill="#21111d"/>
            <path id="Trazado_194198" data-name="Trazado 194198" d="M184.881,94.578c.1.01.194.019.3.024a.1.1,0,0,0,.015-.209c-4.343-.306-5.145-3.483-5.155-3.513a.105.105,0,0,0-.121-.083.1.1,0,0,0-.087.117c0,.034.806,3.226,5.048,3.668Z" transform="translate(-173.208 -76.711)" fill="#21111d"/>
            <path id="Trazado_194199" data-name="Trazado 194199" d="M206.035,109.749a.132.132,0,0,0,.155-.053l.845-1.448-.01-.049-2.852-12.52a7.688,7.688,0,0,0-1.5-3.182c-1.161-1.506-3.445-3.425-7.754-4a.125.125,0,0,0-.034.248c4.212.559,6.447,2.424,7.579,3.892a7.539,7.539,0,0,1,1.462,3.08v.01l2.842,12.471-.8,1.365a.126.126,0,0,0,.044.17.037.037,0,0,1,.019.01Z" transform="translate(-180.895 -75.529)" fill="#21111d"/>
            <path id="Trazado_194200" data-name="Trazado 194200" d="M223.188,130.532a.122.122,0,0,0,.16-.073.131.131,0,0,0-.068-.165l-3.644-1.453a.129.129,0,0,0-.165.068.131.131,0,0,0,.068.165l3.644,1.453h0Z" transform="translate(-193.588 -96.268)" fill="#21111d"/>
            <path id="Trazado_194201" data-name="Trazado 194201" d="M225.24,137.24s1.317,3.109.355,9.343L220.78,144l1.428-4.659,3.032-2.1Z" transform="translate(-194.265 -100.591)" fill="#feca2e"/>
            <path id="Trazado_194202" data-name="Trazado 194202" d="M180.507,137.057a.2.2,0,0,0,.049.01c.18,0,18.015-.539,23.849-.058a15.529,15.529,0,0,1,.617,5.981.126.126,0,0,0,.253.01,14.864,14.864,0,0,0-.666-6.165l-.029-.068h-.073c-5.767-.5-23.777.039-23.956.044a.123.123,0,0,0-.121.131.115.115,0,0,0,.083.112Z" transform="translate(-173.518 -100.237)" fill="#21111d"/>
            <g id="Grupo_141462" data-name="Grupo 141462" transform="translate(7.99)">
              <path id="Trazado_194203" data-name="Trazado 194203" d="M190.444,68.071l.141,5.485s.121,1.764-1.419,2.021l.35,2.347a1.835,1.835,0,0,1-1.2,2.011,4.817,4.817,0,0,1-1.453.262,2.944,2.944,0,0,1-2.915-1.909,24.352,24.352,0,0,1,.194-3.828l-.092-1.55.044-6.019,6.355,1.185Z" transform="translate(-183.293 -64.419)" fill="#fe9f73"/>
              <path id="Trazado_194204" data-name="Trazado 194204" d="M187.31,81.88s.18,2.949,3.872,3.134l-.257-1.73A3.517,3.517,0,0,1,187.31,81.88Z" transform="translate(-185.046 -72.126)" fill="#f07162"/>
              <path id="Trazado_194205" data-name="Trazado 194205" d="M188.688,74.707a.118.118,0,0,1-.053-.019.067.067,0,0,1,0-.1c.01-.01,1-1.069,1.938-.35a.073.073,0,1,1-.087.117c-.836-.636-1.7.292-1.739.335a.078.078,0,0,1-.053.024Z" transform="translate(-185.715 -68.067)" fill="#49263e"/>
              <path id="Trazado_194206" data-name="Trazado 194206" d="M183.51,71.208l1.594.287.3.292a14.836,14.836,0,0,0-.52-3.168C184.569,68.1,183.51,71.208,183.51,71.208Z" transform="translate(-183.092 -65.278)" fill="#4c222e"/>
              <path id="Trazado_194207" data-name="Trazado 194207" d="M194.9,73.85a.206.206,0,0,1-.058-.024.075.075,0,0,1,0-.1c.029-.024.714-.646,1.166-.277a.075.075,0,0,1,.01.1.071.071,0,0,1-.1.01c-.355-.287-.967.262-.977.272a.062.062,0,0,1-.049.019Z" transform="translate(-188.906 -67.73)" fill="#49263e"/>
              <path id="Trazado_194208" data-name="Trazado 194208" d="M191.372,75.774a.225.225,0,0,1-.214.228.222.222,0,0,1-.228-.214.221.221,0,0,1,.442-.015Z" transform="translate(-186.907 -68.877)"/>
              <path id="Trazado_194209" data-name="Trazado 194209" d="M196.182,75.194a.221.221,0,1,1-.228-.214A.222.222,0,0,1,196.182,75.194Z" transform="translate(-189.38 -68.578)"/>
              <path id="Trazado_194210" data-name="Trazado 194210" d="M185.292,74.577a1.322,1.322,0,1,1-1.355-1.287A1.323,1.323,0,0,1,185.292,74.577Z" transform="translate(-182.649 -67.709)" fill="#fe9f73"/>
              <path id="Trazado_194211" data-name="Trazado 194211" d="M184.338,75.975a.554.554,0,0,1-.53-.4.515.515,0,0,1,.194-.607.628.628,0,0,1,.695,0,.609.609,0,0,0-.277-.321.847.847,0,0,0-.588-.024.038.038,0,0,1-.024-.073.892.892,0,0,1,.646.024.717.717,0,0,1,.35.471l.034.126-.1-.092a.583.583,0,0,0-.7-.068.449.449,0,0,0-.165.525.477.477,0,0,0,.457.35h.01a.037.037,0,0,1,0,.073h-.01Z" transform="translate(-183.23 -68.335)" fill="#f07162"/>
              <path id="Trazado_194212" data-name="Trazado 194212" d="M193.482,76.794s-.029-.01-.034-.024a.038.038,0,0,1,.024-.049l.729-.262-.277-1.725s.01-.039.029-.044a.042.042,0,0,1,.044.029l.287,1.788-.787.282h-.01Z" transform="translate(-188.201 -68.43)" fill="#f07162"/>
              <path id="Trazado_194213" data-name="Trazado 194213" d="M192.38,80.438l1.453-.078s-.165.6-.695.627S192.38,80.438,192.38,80.438Z" transform="translate(-187.652 -71.345)" fill="#fbfdfc"/>
              <path id="Trazado_194214" data-name="Trazado 194214" d="M183.331,67.734s-.515-2.565.253-3.542,5.247-2.779,5.806-2.313a.737.737,0,0,1,.029,1.064s1.8-.632,2.254.972-3.435,2.385-5.786,1.7a5.209,5.209,0,0,0-2.551,2.128Z" transform="translate(-182.913 -61.804)" fill="#4c222e"/>
            </g>
            <path id="Trazado_194215" data-name="Trazado 194215" d="M174.141,136a8.527,8.527,0,0,0,.831.267,7.023,7.023,0,0,0,2.667.233.126.126,0,1,0-.044-.248,6.84,6.84,0,0,1-2.575-.228,9.985,9.985,0,0,1-5.271-3.692c-2.332-2.993-3.187-12.209-3.206-19.19a.126.126,0,1,0-.253,0c.019,7.02.889,16.3,3.26,19.346a10.558,10.558,0,0,0,4.586,3.517Z" transform="translate(-166.248 -88.138)" fill="#21111d"/>
          </g>
          <g id="Grupo_141472" data-name="Grupo 141472" transform="translate(76.192 179.689)">
            <path id="Trazado_194216" data-name="Trazado 194216" d="M239.024,487.763c-.107-.083-2.526-2.031-2.716-2.123-1.778,1.2-1.54,4.445-3.5,5.767,1.273.267,2.172.437,2.531.491l1.088,2.415.151.632a.731.731,0,0,0,.787.486c.364-.029.6-.3.53-.6l.063.267a.731.731,0,0,0,.787.486h0c.364-.029.6-.3.53-.6a.731.731,0,0,0,.787.486c.364-.029.6-.3.53-.6l-.063-.267a.731.731,0,0,0,.787.486h0a.194.194,0,0,0,.063-.01h0a.28.28,0,0,0,.068-.015c.345-.083.491-.238.525-.4a18.813,18.813,0,0,0-.675-3.134,6.42,6.42,0,0,0-2.274-3.78Z" transform="translate(-209.348 -447.633)" fill="#f9956e"/>
            <path id="Trazado_194217" data-name="Trazado 194217" d="M247.223,500.415a.109.109,0,0,0,.034,0,.1.1,0,0,0,.058-.131l-1.433-3.848a.1.1,0,0,0-.189.073l1.433,3.848a.106.106,0,0,0,.1.068Z" transform="translate(-215.969 -453.148)" fill="#f07162"/>
            <path id="Trazado_194218" data-name="Trazado 194218" d="M244.682,501.43a.11.11,0,0,0,.034,0,.1.1,0,0,0,.058-.131l-1.3-3.493a.1.1,0,0,0-.189.073l1.3,3.493a.106.106,0,0,0,.1.068Z" transform="translate(-214.73 -453.853)" fill="#f07162"/>
            <path id="Trazado_194219" data-name="Trazado 194219" d="M228.208,481.055c1.919,1.56,5.364,4.372,6.073,5.009,1,.894-3.649,4.756-3.649,4.756s-5.378-2.847-8.332-4.878l5.908-4.892Z" transform="translate(-203.944 -445.273)" fill="#f9956e"/>
            <path id="Trazado_194220" data-name="Trazado 194220" d="M242.155,502.011a.109.109,0,0,0,.034,0,.1.1,0,0,0,.058-.131l-1.045-2.8a.1.1,0,0,0-.189.073l1.045,2.8a.106.106,0,0,0,.1.068Z" transform="translate(-213.562 -454.506)" fill="#f07162"/>
            <path id="Trazado_194221" data-name="Trazado 194221" d="M274.318,496.346a.148.148,0,0,0,.1-.034l2.138-1.851a.141.141,0,0,0,.015-.2.146.146,0,0,0-.2-.015l-2.138,1.851a.144.144,0,0,0,.1.253Z" transform="translate(-230.616 -452.038)" fill="#21111d"/>
            <g id="Grupo_141465" data-name="Grupo 141465" transform="translate(0 43.471)">
              <path id="Trazado_194222" data-name="Trazado 194222" d="M185.46,501.2s1.7-5.15,19.812-4.193c20.706,1.093,34.81-2.483,38.473,4.193l-28.693,10.649L185.46,501.2Z" transform="translate(-185.002 -496.886)" fill="#0f2771"/>
              <path id="Trazado_194223" data-name="Trazado 194223" d="M217.546,512.037s-16.431-9.9-22.193-11.383-9.751.476-10.377,2.211-1.215,6.418,2.619,9.177c1.657,1.2,20.609,6.831,25.623,8.147,0,0,4.649-1.958,4.334-8.147Z" transform="translate(-184.518 -498.553)" fill="#0f2771"/>
              <path id="Trazado_194224" data-name="Trazado 194224" d="M222.927,509.984a.146.146,0,0,0,.126-.073.143.143,0,0,0-.049-.2c-15.731-9.406-20.886-9.867-21.1-9.882a.146.146,0,1,0-.019.292h0c.053,0,5.325.491,20.968,9.843a.137.137,0,0,0,.073.019Z" transform="translate(-193.378 -498.399)" fill="#21111d"/>
              <path id="Trazado_194225" data-name="Trazado 194225" d="M223.243,533.28l7.428-3.785L227.1,522.48l-6.063,3.085h0s-10.023-.087-10.5.384,10.377,8.517,12.7,7.331Z" transform="translate(-197.886 -510.046)" fill="#fe9f73"/>
              <path id="Trazado_194226" data-name="Trazado 194226" d="M225.794,534.652a19.553,19.553,0,0,1-3.658-6.972l-1.1.559s-10.023-.087-10.5.384,10.377,8.517,12.7,7.331l2.551-1.3Z" transform="translate(-197.886 -512.719)" fill="#472a31"/>
              <path id="Trazado_194227" data-name="Trazado 194227" d="M238.362,512.037s16.431-9.9,22.193-11.383,9.751.476,10.377,2.211,1.215,6.418-2.619,9.177c-1.657,1.2-21.94,7.19-26.949,8.507,0,0-3.323-2.318-3.007-8.507Z" transform="translate(-212.19 -498.553)" fill="#0f2771"/>
              <path id="Trazado_194228" data-name="Trazado 194228" d="M241.238,521.361a.152.152,0,0,0,.121-.063.149.149,0,0,0-.044-.2c-2.774-1.832-2.93-7.545-2.939-8.3,1.151-.67,15.425-8.939,21.114-11.072a.154.154,0,0,0,.087-.189.15.15,0,0,0-.189-.087c-5.927,2.22-21.08,11.048-21.236,11.135l-.073.044v.083c0,.267-.019,6.593,3.07,8.628a.161.161,0,0,0,.078.024Z" transform="translate(-212.058 -499.224)" fill="#21111d"/>
              <g id="Grupo_141464" data-name="Grupo 141464" transform="translate(2.009 3.072)">
                <path id="Trazado_194229" data-name="Trazado 194229" d="M188.8,504.3a.145.145,0,0,0,.117-.058c.01-.015.588-.758,2.468-.738a.146.146,0,1,0,0-.292c-2.055-.024-2.682.821-2.706.86a.147.147,0,0,0,.034.2.132.132,0,0,0,.083.029Z" transform="translate(-188.654 -503.209)" fill="#21111d"/>
                <path id="Trazado_194230" data-name="Trazado 194230" d="M190.734,506.123a.132.132,0,0,0,.1-.044c.01-.01.69-.666,2.551-.369a.145.145,0,1,0,.044-.287c-2.031-.326-2.774.423-2.8.452a.15.15,0,0,0,0,.2.135.135,0,0,0,.1.039Z" transform="translate(-189.648 -504.305)" fill="#21111d"/>
              </g>
            </g>
            <g id="Grupo_141467" data-name="Grupo 141467" transform="translate(21.909)">
              <path id="Trazado_194231" data-name="Trazado 194231" d="M250.788,415.582s-.865,7.764-2.026,7.841.8,9.172,3.872,4.717c1.079-1.56,1.03-11.776-1.54-13.958s-.311,1.4-.311,1.4Z" transform="translate(-239.286 -410.529)" fill="#49263e"/>
              <path id="Trazado_194232" data-name="Trazado 194232" d="M246.992,411.59s1.069,7.336.107,8.638a2.037,2.037,0,0,1-1.613.734l.092,4.309-5.184-.593-.175-12.258s1.477-3.032,1.477-2.905,5.3,2.074,5.3,2.074Z" transform="translate(-235.068 -408.49)" fill="#fe9f73"/>
              <path id="Trazado_194233" data-name="Trazado 194233" d="M250.676,423.538a.068.068,0,0,1-.034-.039.061.061,0,0,1,.024-.058c.214-.068.345-.442.379-.564a1.379,1.379,0,0,1-.564-.879,2.045,2.045,0,0,1,.155-1.137.03.03,0,0,1,.049-.01.06.06,0,0,1,.01.063,1.957,1.957,0,0,0-.146,1.064,1.288,1.288,0,0,0,.559.836l.029.019-.01.039s-.151.568-.437.661h0Z" transform="translate(-240.331 -414.316)" fill="#f07162"/>
              <path id="Trazado_194234" data-name="Trazado 194234" d="M246.832,433.437l-.019-1.467a10.084,10.084,0,0,1-4.013-1.049,12.488,12.488,0,0,0,4.037,2.512Z" transform="translate(-236.394 -419.498)" fill="#f07162"/>
              <path id="Trazado_194235" data-name="Trazado 194235" d="M243.762,420.488a.176.176,0,0,1-.063-.024.088.088,0,0,1,0-.131c.01-.015,1.2-1.258,2.308-.389a.093.093,0,1,1-.117.146c-.977-.763-2.011.321-2.055.369a.1.1,0,0,1-.068.029Z" transform="translate(-236.842 -413.695)" fill="#49263e"/>
              <path id="Trazado_194236" data-name="Trazado 194236" d="M251.689,420.218a.107.107,0,0,1-.073-.029.093.093,0,0,1,.01-.131c.034-.029.86-.758,1.394-.311a.093.093,0,0,1-.121.141c-.413-.345-1.142.3-1.151.306a.1.1,0,0,1-.063.024Z" transform="translate(-240.915 -413.678)" fill="#49263e"/>
              <path id="Trazado_194237" data-name="Trazado 194237" d="M247.18,422.143a.264.264,0,0,1-.257.267.26.26,0,1,1,0-.52.264.264,0,0,1,.267.257Z" transform="translate(-238.379 -414.855)"/>
              <path id="Trazado_194238" data-name="Trazado 194238" d="M253.465,422.057a.257.257,0,0,1-.257.262.264.264,0,0,1-.267-.257.26.26,0,1,1,.52,0Z" transform="translate(-241.608 -414.808)"/>
              <path id="Trazado_194239" data-name="Trazado 194239" d="M248.26,427.29c.029,0,1.846.2,1.846.2a1.092,1.092,0,0,1-1.006.646C248.425,428.063,248.26,427.29,248.26,427.29Z" transform="translate(-239.202 -417.631)" fill="#fbfdfc"/>
              <path id="Trazado_194240" data-name="Trazado 194240" d="M248.208,412.244,246.95,410.5a12.413,12.413,0,0,1,1.856,1.317,3.157,3.157,0,0,0-.6.428Z" transform="translate(-238.528 -408.998)" fill="#fe9f73"/>
              <path id="Trazado_194241" data-name="Trazado 194241" d="M240.252,409.824s.36,2.735,6.913,3.289c0,0,1.521-4.047-3.236-5.4s-5.189,2.3-5.092,2.264,1.419-.151,1.419-.151Z" transform="translate(-234.351 -407.409)" fill="#49263e"/>
              <path id="Trazado_194242" data-name="Trazado 194242" d="M236.506,411.79a24.853,24.853,0,0,0-1.773,3.095s2.186,11.456-2.225,10.815l-.787-.01c-3.9-.053-1.2-8.5-1.137-12.981.044-2.808,3.449-5.655,5.665-3.945s.253,3.022.253,3.022Z" transform="translate(-229.615 -407.839)" fill="#49263e"/>
              <g id="Grupo_141466" data-name="Grupo 141466" transform="translate(3.311 7.006)">
                <path id="Trazado_194243" data-name="Trazado 194243" d="M239.359,423.273a1.465,1.465,0,1,1-1.487-1.443A1.471,1.471,0,0,1,239.359,423.273Z" transform="translate(-236.43 -421.83)" fill="#fe9f73"/>
                <path id="Trazado_194244" data-name="Trazado 194244" d="M238.595,424.969a.627.627,0,0,1-.588-.452.577.577,0,0,1,.223-.68.687.687,0,0,1,.758,0,.625.625,0,0,0-.292-.335.915.915,0,0,0-.646-.034.046.046,0,1,1-.029-.087.982.982,0,0,1,.719.039.8.8,0,0,1,.384.53l.044.16-.121-.117a.646.646,0,0,0-.768-.087.491.491,0,0,0-.185.573.525.525,0,0,0,.505.389.046.046,0,1,1,0,.092h-.01Z" transform="translate(-237.225 -422.603)" fill="#f07162"/>
              </g>
              <path id="Trazado_194245" data-name="Trazado 194245" d="M254.76,411.24s2.274,2.4,1.749,9.294l-1.564-6.8-.185-2.487Z" transform="translate(-242.544 -409.379)" fill="#49263e"/>
            </g>
            <g id="Grupo_141471" data-name="Grupo 141471" transform="translate(6.125 15.639)">
              <path id="Trazado_194246" data-name="Trazado 194246" d="M223.6,452.858,220.447,439.6h-8.6a6.507,6.507,0,0,0-2.225.627c-3.454,1.836-12.952,12.306-12.476,18.9.432,5.99,9.051,4.8,17.641,6.185l1.909-7.938-3.1-.831Z" transform="translate(-197.124 -439.6)" fill="#bddcf6"/>
              <path id="Trazado_194247" data-name="Trazado 194247" d="M245.77,454.816V439.6h8.6a6.507,6.507,0,0,1,2.225.627c3.454,1.836,14.143,12.636,13.666,19.234-.432,5.99-10.509,5.747-15.236,7.2l-2.623-9.493.233-.486-6.87-1.87Z" transform="translate(-222.137 -439.6)" fill="#bddcf6"/>
              <path id="Trazado_194248" data-name="Trazado 194248" d="M244.235,467.5l-.112,16.6s-15.022,2.745-28.4-.811c-.33-.087.627-13.715.627-13.715s0-2.643,1.394-3.459,12.772-5.864,13.045-5.864,13.443,7.258,13.443,7.258Z" transform="translate(-206.653 -450.218)" fill="#bddcf6"/>
              <path id="Trazado_194249" data-name="Trazado 194249" d="M237.568,444.708a.16.16,0,0,0,.16-.151.162.162,0,0,0-.151-.17c-4.936-.311-6.549-3.692-6.564-3.726a.161.161,0,0,0-.292.136c.015.034,1.7,3.59,6.836,3.916h.01Z" transform="translate(-214.392 -440.097)" fill="#21111d"/>
              <path id="Trazado_194250" data-name="Trazado 194250" d="M244.513,439.6H233.63s1.968,3.406,5.728,3.391C241.083,442.986,242.929,442.35,244.513,439.6Z" transform="translate(-215.894 -439.6)" fill="#fe9f73"/>
              <g id="Grupo_141468" data-name="Grupo 141468" transform="translate(21.594 16.926)">
                <path id="Trazado_194251" data-name="Trazado 194251" d="M241.892,480.144a1.269,1.269,0,0,1-.049-1.589,2.138,2.138,0,0,1,.024-1.521s2.9.86,4.552,1.472a1.9,1.9,0,0,0,1.258-.593l.024.039c.019-.806.039-1.817.039-1.929,0-.194.306-.5.787.107a26.4,26.4,0,0,1,1.409,2.245l2.4-1.409,1.953,6.763s-5.83.826-6.729.889a11.3,11.3,0,0,1-4.951-1.443c-.928-.768-.729-1.457-.729-1.457a1.181,1.181,0,0,1,0-1.574Z" transform="translate(-241.572 -475.125)" fill="#f78c63"/>
                <path id="Trazado_194252" data-name="Trazado 194252" d="M252.4,474.984v2.094a1.907,1.907,0,0,1-1.8.743l-.9-.335.709-3.046,2,.544Z" transform="translate(-245.751 -474.44)" fill="#fd7583"/>
                <path id="Trazado_194253" data-name="Trazado 194253" d="M243.99,482.427a.107.107,0,0,0,.034-.209,12.761,12.761,0,0,1-1.953-.923.107.107,0,1,0-.107.185,12.838,12.838,0,0,0,2,.938c.01,0,.024,0,.034,0Z" transform="translate(-241.747 -477.958)" fill="#f07162"/>
                <path id="Trazado_194254" data-name="Trazado 194254" d="M244.041,485.478a.1.1,0,0,0,.107-.087.11.11,0,0,0-.087-.126,6.707,6.707,0,0,1-1.89-.7.107.107,0,1,0-.107.185,6.792,6.792,0,0,0,1.958.724h.019Z" transform="translate(-241.797 -479.638)" fill="#f07162"/>
                <path id="Trazado_194255" data-name="Trazado 194255" d="M243.794,488.7a.113.113,0,0,0,.107-.087.1.1,0,0,0-.083-.126,5.659,5.659,0,0,1-1.647-.69.109.109,0,0,0-.117.185,5.952,5.952,0,0,0,1.72.719h.024Z" transform="translate(-241.793 -481.3)" fill="#f07162"/>
              </g>
              <path id="Trazado_194256" data-name="Trazado 194256" d="M260.18,477.606l3.309-.826s1.866,4.63,1.866,4.785a40.522,40.522,0,0,1-1.049,4.217,13.229,13.229,0,0,1-1.176-1.117l-2.949-7.059Z" transform="translate(-229.546 -458.717)" fill="#4cb7d8"/>
              <path id="Trazado_194257" data-name="Trazado 194257" d="M269.273,466.709l1.632-.262a.2.2,0,0,0-.058-.389l-1.38.219-3.07-4.732a.2.2,0,1,0-.33.214l3.211,4.946Z" transform="translate(-232.556 -450.837)" fill="#21111d"/>
              <g id="Grupo_141469" data-name="Grupo 141469" transform="translate(33.489 2.172)">
                <path id="Trazado_194258" data-name="Trazado 194258" d="M268.745,446.222a.155.155,0,0,1-.131-.068c-1.224-1.759-2.269-1.759-2.264-1.759h0a.162.162,0,0,1-.16-.16.169.169,0,0,1,.16-.165h0c.058,0,1.229.024,2.531,1.9a.164.164,0,0,1-.039.228.16.16,0,0,1-.092.029Z" transform="translate(-266.125 -444.07)" fill="#21111d"/>
                <path id="Trazado_194259" data-name="Trazado 194259" d="M268.327,449.265a.165.165,0,0,1-.146-.092c-.938-1.885-1.977-2.07-1.987-2.074a.163.163,0,0,1-.136-.185.161.161,0,0,1,.185-.136c.049,0,1.2.194,2.23,2.249a.166.166,0,0,1-.073.219.2.2,0,0,1-.073.015Z" transform="translate(-266.056 -445.461)" fill="#21111d"/>
              </g>
              <g id="Grupo_141470" data-name="Grupo 141470" transform="translate(26.481 17.643)">
                <path id="Trazado_194260" data-name="Trazado 194260" d="M251.762,477.448a.108.108,0,0,1-.078-.2,13,13,0,0,0,1.72-1.307.107.107,0,0,1,.141.16,12.736,12.736,0,0,1-1.759,1.331.07.07,0,0,1-.029.01Z" transform="translate(-251.632 -475.916)" fill="#f07162"/>
                <path id="Trazado_194261" data-name="Trazado 194261" d="M252.342,480.448a.108.108,0,0,1-.121-.063.1.1,0,0,1,.058-.141,6.827,6.827,0,0,0,1.705-1.074.107.107,0,1,1,.141.16,6.883,6.883,0,0,1-1.768,1.117.029.029,0,0,0-.019,0Z" transform="translate(-251.929 -477.575)" fill="#f07162"/>
                <path id="Trazado_194262" data-name="Trazado 194262" d="M253.491,483.545a.108.108,0,0,1-.121-.063.107.107,0,0,1,.053-.141,5.794,5.794,0,0,0,1.472-1.015.106.106,0,0,1,.151.151,5.936,5.936,0,0,1-1.535,1.059.21.21,0,0,1-.024,0Z" transform="translate(-252.521 -479.194)" fill="#f07162"/>
              </g>
              <path id="Trazado_194263" data-name="Trazado 194263" d="M221.246,465.953l-1.652.083a.195.195,0,0,1-.019-.389l1.394-.068,2.026-5.262a.2.2,0,0,1,.364.141l-2.118,5.5Z" transform="translate(-208.573 -450.188)" fill="#21111d"/>
              <path id="Trazado_194264" data-name="Trazado 194264" d="M231.908,476.19l-1.7,8.152s-3.5-2.847-3.5-3.158a35.24,35.24,0,0,1,1.224-4.173c.117-.073,3.974-.816,3.974-.816Z" transform="translate(-212.336 -458.413)" fill="#4cb7d8"/>
              <path id="Trazado_194265" data-name="Trazado 194265" d="M224.474,482.016l-.175-.01a30.071,30.071,0,0,1-8.837-2.245.2.2,0,0,1,.151-.364,30.376,30.376,0,0,0,8.536,2.2l1.457-7.676-6.646-2.274a.2.2,0,1,1,.126-.369l6.967,2.385-1.589,8.356Z" transform="translate(-206.491 -455.883)" fill="#21111d"/>
              <path id="Trazado_194266" data-name="Trazado 194266" d="M260.3,482.016l.175-.01a30.071,30.071,0,0,0,8.837-2.245.2.2,0,0,0-.151-.364,30.376,30.376,0,0,1-8.536,2.2l-1.458-7.676,6.646-2.274a.2.2,0,1,0-.126-.369l-6.967,2.385,1.589,8.356Z" transform="translate(-228.795 -455.883)" fill="#21111d"/>
            </g>
            <rect id="Rectángulo_44260" data-name="Rectángulo 44260" width="33.537" height="19.705" rx="2.1" transform="translate(47.18 50.561) rotate(180)" fill="#e8e8e8"/>
            <circle id="Elipse_4980" data-name="Elipse 4980" cx="1.341" cy="1.341" r="1.341" transform="translate(28.728 37.706)" fill="#fff"/>
          </g>
          <g id="Grupo_141473" data-name="Grupo 141473" transform="translate(195.668 204.588)">
            <path id="Trazado_194267" data-name="Trazado 194267" d="M508.986,494.82s-3.343,8.4-.539,14.764l-64.237.539-5.927-.539-5.223-3.236v-4.956l1.453-4.1,4.742-2.478Z" transform="translate(-431.787 -477.252)" fill="#fff"/>
            <path id="Trazado_194268" data-name="Trazado 194268" d="M440.046,509.634h69.4a.816.816,0,0,0,0-1.632h-69.4a7.069,7.069,0,1,1,0-14.1h69.4a.816.816,0,0,0,0-1.632h-69.4a8.7,8.7,0,1,0,0,17.373Z" transform="translate(-430.63 -475.941)" fill="#12263f"/>
            <path id="Trazado_194269" data-name="Trazado 194269" d="M551.167,510.12H517.11a.179.179,0,0,1-.18-.18.183.183,0,0,1,.18-.18h34.057a.179.179,0,0,1,.18.18A.183.183,0,0,1,551.167,510.12Z" transform="translate(-474.911 -484.934)" fill="#aac9f8"/>
            <path id="Trazado_194270" data-name="Trazado 194270" d="M472.215,510.12H439.13a.179.179,0,0,1-.18-.18.183.183,0,0,1,.18-.18h33.085a.179.179,0,0,1,.18.18A.183.183,0,0,1,472.215,510.12Z" transform="translate(-434.816 -484.934)" fill="#aac9f8"/>
            <path id="Trazado_194271" data-name="Trazado 194271" d="M457.935,516.83H440.96a.179.179,0,0,1-.18-.18.183.183,0,0,1,.18-.18h16.975a.179.179,0,0,1,.18.18A.183.183,0,0,1,457.935,516.83Z" transform="translate(-435.757 -488.384)" fill="#aac9f8"/>
            <path id="Trazado_194272" data-name="Trazado 194272" d="M532.615,516.83H481.03a.179.179,0,0,1-.18-.18.183.183,0,0,1,.18-.18h51.586a.179.179,0,0,1,.18.18A.183.183,0,0,1,532.615,516.83Z" transform="translate(-456.359 -488.384)" fill="#aac9f8"/>
            <path id="Trazado_194273" data-name="Trazado 194273" d="M456.77,461.45s3.1,7.8.5,13.705l59.616.5,5.5-.5,4.849-3v-4.6l-1.346-3.8-4.4-2.3H456.77Z" transform="translate(-443.978 -460.095)" fill="#fff"/>
            <path id="Trazado_194274" data-name="Trazado 194274" d="M517.284,475.19H452.878a.758.758,0,1,1,0-1.516h64.407a6.562,6.562,0,1,0,0-13.088H452.878a.758.758,0,1,1,0-1.516h64.407a8.075,8.075,0,1,1,0,16.12Z" transform="translate(-441.587 -458.871)" fill="#bddcf6"/>
            <path id="Trazado_194275" data-name="Trazado 194275" d="M489.988,475.65H458.38a.179.179,0,0,1-.18-.18.183.183,0,0,1,.18-.18h31.608a.179.179,0,0,1,.18.18A.183.183,0,0,1,489.988,475.65Z" transform="translate(-444.713 -467.211)" fill="#aac9f8"/>
            <path id="Trazado_194276" data-name="Trazado 194276" d="M563.309,475.65H532.6a.179.179,0,0,1-.18-.18.183.183,0,0,1,.18-.18h30.709a.179.179,0,0,1,.18.18A.183.183,0,0,1,563.309,475.65Z" transform="translate(-482.875 -467.211)" fill="#aac9f8"/>
            <path id="Trazado_194277" data-name="Trazado 194277" d="M577.435,481.87H561.68a.179.179,0,0,1-.18-.18.183.183,0,0,1,.18-.18h15.755a.179.179,0,0,1,.18.18A.183.183,0,0,1,577.435,481.87Z" transform="translate(-497.827 -470.409)" fill="#aac9f8"/>
            <path id="Trazado_194278" data-name="Trazado 194278" d="M524.322,469.419H458.38a.179.179,0,0,1-.18-.18.183.183,0,0,1,.18-.18h65.942a.179.179,0,0,1,.18.18A.183.183,0,0,1,524.322,469.419Z" transform="translate(-444.713 -464.007)" fill="#aac9f8"/>
            <path id="Trazado_194279" data-name="Trazado 194279" d="M509.256,509.613h-69.4a8.882,8.882,0,1,1,0-17.733h69.4a1,1,0,1,1,0,2,.179.179,0,0,1-.18-.18.183.183,0,0,1,.18-.18.636.636,0,1,0,0-1.273h-69.4a8.519,8.519,0,1,0,0,17h69.4a.636.636,0,1,0,0-1.273.179.179,0,0,1-.18-.18.183.183,0,0,1,.18-.18,1,1,0,1,1,0,2Z" transform="translate(-430.44 -475.741)" fill="#21111d"/>
            <path id="Trazado_194280" data-name="Trazado 194280" d="M517.089,475.159H452.682a.943.943,0,0,1,0-1.885.179.179,0,0,1,.18.18.183.183,0,0,1-.18.18.578.578,0,0,0,0,1.156h64.407a7.9,7.9,0,1,0,0-15.76H452.682a.578.578,0,0,0,0,1.156.179.179,0,0,1,.18.18.183.183,0,0,1-.18.18.943.943,0,0,1,0-1.885h64.407a8.259,8.259,0,1,1,0,16.489Z" transform="translate(-441.392 -458.66)" fill="#21111d"/>
            <path id="Trazado_194281" data-name="Trazado 194281" d="M522.452,503.42s2.186,5.446.928,9.454l-1.778-2.745a23.273,23.273,0,0,0-1.958,2.745s-1.355-8.954-3.984-9.454Z" transform="translate(-474.257 -481.674)" fill="#feca2e"/>
            <path id="Trazado_194282" data-name="Trazado 194282" d="M534.735,481.88s-2.186,5.446-.928,9.454l1.778-2.745a23.284,23.284,0,0,1,1.958,2.745s1.355-8.954,3.984-9.454h-6.792Z" transform="translate(-483.387 -470.599)" fill="#4cb7d8"/>
            <path id="Trazado_194283" data-name="Trazado 194283" d="M512.013,503.41H440.96a.179.179,0,0,1-.18-.18.183.183,0,0,1,.18-.18h71.053a.179.179,0,0,1,.18.18A.183.183,0,0,1,512.013,503.41Z" transform="translate(-435.757 -481.484)" fill="#aac9f8"/>
            <path id="Trazado_194284" data-name="Trazado 194284" d="M506.253,481.87H458.38a.179.179,0,0,1-.18-.18.183.183,0,0,1,.18-.18h47.874a.179.179,0,0,1,.18.18A.183.183,0,0,1,506.253,481.87Z" transform="translate(-444.713 -470.409)" fill="#aac9f8"/>
          </g>
          <g id="Grupo_141479" data-name="Grupo 141479" transform="translate(197.443 149.347)">
            <g id="Grupo_141474" data-name="Grupo 141474" transform="translate(13.011 72.513)">
              <path id="Trazado_194285" data-name="Trazado 194285" d="M471.319,503.451l3.138,1.764,3.751-3.692.1-.6-.918-6.714-7.3,1.36Z" transform="translate(-465.612 -494.21)" fill="#fe9f73"/>
              <path id="Trazado_194286" data-name="Trazado 194286" d="M471.944,512.509l-10.066,1.37a1.349,1.349,0,0,1-.224-.015c-.986-.16-.758-.806-.758-.806l4.411-3.649.034-.452a1.033,1.033,0,0,1,1.6-.7l1.856,1s4.358.063,4.785-1.234l.393,3.168s.462.962-2.026,1.317Z" transform="translate(-460.873 -501.311)" fill="#3a1f33"/>
            </g>
            <g id="Grupo_141475" data-name="Grupo 141475" transform="translate(0 72.94)">
              <path id="Trazado_194287" data-name="Trazado 194287" d="M444.539,504.335l3.138,1.764,3.755-3.692.1-.6-.918-6.719-7.307,1.36Z" transform="translate(-438.832 -495.09)" fill="#fe9f73"/>
              <path id="Trazado_194288" data-name="Trazado 194288" d="M445.164,513.4l-10.066,1.37a1.34,1.34,0,0,1-.223-.015c-.986-.16-.758-.806-.758-.806l4.411-3.649.034-.452a1.033,1.033,0,0,1,1.6-.7l1.856,1s4.358.063,4.785-1.234l.394,3.168s.462.962-2.026,1.317Z" transform="translate(-434.093 -502.196)" fill="#3a1f33"/>
            </g>
            <g id="Grupo_141476" data-name="Grupo 141476" transform="translate(3.362)">
              <path id="Trazado_194289" data-name="Trazado 194289" d="M495.19,437.9s12.559.593,16.042-.185,4.348-11.66.389-18.326-17.811,13.807-17.811,13.807l1.38,4.7Z" transform="translate(-468.16 -382.538)" fill="#49263e"/>
              <path id="Trazado_194290" data-name="Trazado 194290" d="M460.275,425.316s-17.485,2.721-18,4.747-1.958,23.582-.875,32.779c0,0,6.661.457,9.848-.316l.9-21.066,5.364.1,11.815-16.538Z" transform="translate(-441.013 -386.122)" fill="#3a1f33"/>
              <path id="Trazado_194291" data-name="Trazado 194291" d="M481.974,428.24s-13.54,3.819-14.045,5.849-1.948,21.265-.865,30.462c0,0,7.161.408,10.348-.364l.86-21.153,3.09.107,7.491-13.181Z" transform="translate(-454.205 -387.778)" fill="#49263e"/>
              <path id="Trazado_194292" data-name="Trazado 194292" d="M496.246,374.931s5.985.1,7.375.923,7.764,11.32,9.138,15.775a14.525,14.525,0,0,1-8.23,3.27l-1.113-2.1.636,4.3-12.136,3.6a19.931,19.931,0,0,1-12.554-.408l-1.263-.466s.019-20.429,3.668-22.591c3.25-1.924,10.295-2.934,14.473-2.3Z" transform="translate(-460.082 -360.271)" fill="#febac7"/>
              <path id="Trazado_194293" data-name="Trazado 194293" d="M499.965,352.568v5.781s-.083,1.953,1.628,2.2l-.321,2.609a2.032,2.032,0,0,0,1.394,2.191,5.307,5.307,0,0,0,1.613.248,3.272,3.272,0,0,0,3.177-2.2,26.846,26.846,0,0,0-.326-4.236l.058-1.72-.223-6.67-7.006,1.793Z" transform="translate(-471.322 -347.945)" fill="#fe9f73"/>
              <path id="Trazado_194294" data-name="Trazado 194294" d="M507.437,359.613a.206.206,0,0,0,.058-.024.079.079,0,0,0,0-.117c-.01-.01-1.132-1.156-2.157-.335a.083.083,0,1,0,.1.131c.908-.729,1.895.277,1.934.321a.09.09,0,0,0,.058.024Z" transform="translate(-474.072 -352.095)" fill="#21111d"/>
              <path id="Trazado_194295" data-name="Trazado 194295" d="M501.418,358.83a.159.159,0,0,0,.063-.029.084.084,0,0,0-.01-.117c-.034-.029-.811-.695-1.3-.272a.083.083,0,0,0,.107.126c.384-.33,1.083.267,1.088.272A.073.073,0,0,0,501.418,358.83Z" transform="translate(-471.415 -351.802)" fill="#21111d"/>
              <path id="Trazado_194296" data-name="Trazado 194296" d="M506.29,360.843a.244.244,0,0,0,.243.243.243.243,0,1,0-.243-.243Z" transform="translate(-474.576 -352.999)"/>
              <path id="Trazado_194297" data-name="Trazado 194297" d="M500.95,360.343a.244.244,0,0,0,.243.243.243.243,0,1,0-.243-.243Z" transform="translate(-471.831 -352.742)"/>
              <path id="Trazado_194298" data-name="Trazado 194298" d="M504.327,348.111l-1.365,1.929s-4.13,1.6-6.248-.3-1.467-2.813-.845-3.765a3.019,3.019,0,0,1,3.561-.627c.977.432,1.7-.86,2.842-.209s2.487,1.778,2.337,2.225-.277.743-.277.743Z" transform="translate(-468.906 -344.955)" fill="#21111d"/>
              <path id="Trazado_194299" data-name="Trazado 194299" d="M513.02,349.769a2.425,2.425,0,0,1,2.4,1.72,5.546,5.546,0,0,1-.2,3.3c-.019.539.35,4.178-2.206,3.906l-.69-6.01.889-2.4-.2-.52Z" transform="translate(-477.682 -347.43)" fill="#21111d"/>
              <circle id="Elipse_4981" data-name="Elipse 4981" cx="1.467" cy="1.467" r="1.467" transform="translate(33.13 7.76) rotate(-45)" fill="#fe9f73"/>
              <path id="Trazado_194300" data-name="Trazado 194300" d="M513.083,361.061a.6.6,0,0,0,.573-.457.572.572,0,0,0-.233-.67.684.684,0,0,0-.768.029.65.65,0,0,1,.3-.359.926.926,0,0,1,.651-.044.042.042,0,0,0,.029-.078,1,1,0,0,0-.714.049.8.8,0,0,0-.374.534l-.034.141.1-.1a.653.653,0,0,1,.777-.1.5.5,0,0,1,.194.578.526.526,0,0,1-.5.4h-.01a.039.039,0,1,0,0,.078h.01Z" transform="translate(-477.775 -352.401)" fill="#f07162"/>
              <path id="Trazado_194301" data-name="Trazado 194301" d="M507.042,367.49s-.117,3.274-4.2,3.585l.233-1.924a3.9,3.9,0,0,0,3.964-1.662Z" transform="translate(-472.803 -356.542)" fill="#f07162"/>
              <path id="Trazado_194302" data-name="Trazado 194302" d="M530.509,408.2a15.485,15.485,0,0,0,8.079-3.843l-.175-.17a15.222,15.222,0,0,1-7.943,3.77Z" transform="translate(-487.009 -375.412)" fill="#21111d"/>
              <path id="Trazado_194303" data-name="Trazado 194303" d="M478.146,480.414a12.213,12.213,0,0,0,4.348-.5l.068-.029.831-21.275-1.307.617.1.219.943-.447-.811,20.716a17.045,17.045,0,0,1-5.859.413l-.01.243c.622.029,1.185.039,1.7.039Z" transform="translate(-459.234 -403.393)" fill="#21111d"/>
              <path id="Trazado_194304" data-name="Trazado 194304" d="M485.788,478.641c.34-1.3.432-14.011.437-14.551h-.243c0,.131-.1,13.219-.432,14.492l.238.063Z" transform="translate(-463.913 -406.211)" fill="#21111d"/>
              <path id="Trazado_194305" data-name="Trazado 194305" d="M452.463,480.62a22.317,22.317,0,0,0,4.683-.471l.782-21.289-1,.695.155.189.583-.471-.758,20.677a22.158,22.158,0,0,1-4.679.418v.243h.238Z" transform="translate(-446.781 -403.521)" fill="#21111d"/>
              <path id="Trazado_194306" data-name="Trazado 194306" d="M459.463,478.238c.335-1.968.015-15.289,0-15.858h-.243c0,.146.335,13.87,0,15.814l.243.039Z" transform="translate(-450.375 -405.331)" fill="#21111d"/>
              <path id="Trazado_194307" data-name="Trazado 194307" d="M484.514,420.605l1.385-2.152h0c.763-1.234,1.992-2.847,3.274-2.993,2.094-.233,14.847-.758,18.894-1.258,0,0-.277-.486-.272-.486.049.01,3.309-.554,3.309-.554l2.1-1,1.89-.816c.52,2.031,1.953,5.368.486,7.7-2.711,4.295-23.451,2.181-25.292,1.618l-1.7,1.836-.345.53a.544.544,0,1,1-.913-.593l-.146.224a.547.547,0,0,1-.753.16h0a.544.544,0,0,0-.913-.593.547.547,0,0,1-.16-.753l.146-.223a.547.547,0,0,1-.753.16h0a.293.293,0,0,0-.029-.019l0,0a.07.07,0,0,1-.015-.01h0a.519.519,0,0,1-.087-.092.59.59,0,0,1-.1-.675Z" transform="translate(-463.348 -379.093)" fill="#fe9f73"/>
              <path id="Trazado_194308" data-name="Trazado 194308" d="M531.11,406.888h.078c4.12-.1,8.259-3.265,8.3-3.3l.078-.058-2.614-5.791-.224.1,2.531,5.611c-.578.428-4.295,3.061-8,3.187l-1.122-2.283-.219.107Z" transform="translate(-486.726 -372.095)" fill="#21111d"/>
              <path id="Trazado_194309" data-name="Trazado 194309" d="M534.417,419.147a.152.152,0,0,0,.068-.015.084.084,0,0,0,.015-.117l-1.487-1.909a.083.083,0,0,0-.131.1l1.487,1.909A.173.173,0,0,0,534.417,419.147Z" transform="translate(-488.24 -382.037)" fill="#f07162"/>
              <path id="Trazado_194310" data-name="Trazado 194310" d="M486.073,429.392a.079.079,0,0,0,.083-.029L488.1,426.7a.08.08,0,1,0-.131-.092l-1.943,2.667a.079.079,0,0,0,.019.112l.029.015Z" transform="translate(-464.149 -386.919)" fill="#f07162"/>
              <path id="Trazado_194311" data-name="Trazado 194311" d="M487.835,430.911a.086.086,0,0,0,.087-.034l1.856-2.75a.081.081,0,0,0-.136-.087l-1.856,2.75a.079.079,0,0,0,.024.112.069.069,0,0,0,.029.01Z" transform="translate(-465.056 -387.656)" fill="#f07162"/>
              <path id="Trazado_194312" data-name="Trazado 194312" d="M489.955,432.374a.086.086,0,0,0,.087-.034l1.54-2.332a.081.081,0,1,0-.136-.087l-1.54,2.332a.079.079,0,0,0,.024.112.069.069,0,0,0,.029.01Z" transform="translate(-466.146 -388.622)" fill="#f07162"/>
              <path id="Trazado_194313" data-name="Trazado 194313" d="M497.144,458.666a99.647,99.647,0,0,1-9.994-.423l.029-.243a124.269,124.269,0,0,0,21.007,0l.019.243C504,458.559,500.263,458.666,497.144,458.666Z" transform="translate(-464.735 -403.079)" fill="#21111d"/>
              <rect id="Rectángulo_44261" data-name="Rectángulo 44261" width="10.382" height="0.243" transform="translate(23.398 33.194) rotate(-88.19)" fill="#21111d"/>
              <rect id="Rectángulo_44262" data-name="Rectángulo 44262" width="0.243" height="12.175" transform="translate(39.494 23.678) rotate(-23.48)" fill="#21111d"/>
              <rect id="Rectángulo_44263" data-name="Rectángulo 44263" width="0.243" height="3.391" transform="translate(43.077 31.873) rotate(-9.18)" fill="#21111d"/>
              <path id="Trazado_194314" data-name="Trazado 194314" d="M503.579,362.042s.034-.01.039-.029a.043.043,0,0,0-.024-.053l-.816-.272.257-1.924s-.015-.044-.034-.044a.039.039,0,0,0-.044.034l-.267,1.987.879.292h.015Z" transform="translate(-472.725 -352.547)" fill="#f07162"/>
              <path id="Trazado_194315" data-name="Trazado 194315" d="M504.113,366.084c-.024,0-1.613-.044-1.613-.044s.2.656.787.67.821-.632.821-.632Z" transform="translate(-472.628 -355.796)" fill="#fbfdfc"/>
            </g>
            <g id="Grupo_141478" data-name="Grupo 141478" transform="translate(0.878 25.649)">
              <g id="Grupo_141477" data-name="Grupo 141477">
                <path id="Trazado_194316" data-name="Trazado 194316" d="M435.9,397.75h19.414l6.768,17.237H442.672Z" transform="translate(-435.9 -397.75)" fill="#feca2e"/>
                <path id="Trazado_194317" data-name="Trazado 194317" d="M481.553,414.987h-1.015L473.77,397.75h1.015Z" transform="translate(-455.372 -397.75)" fill="#ffb357"/>
                <path id="Trazado_194318" data-name="Trazado 194318" d="M459.929,413.141c.267.792.073,1.574-.442,1.749s-1.147-.326-1.414-1.117-.073-1.574.442-1.749S459.662,412.349,459.929,413.141Z" transform="translate(-447.239 -405.071)" fill="#e2f2f1"/>
              </g>
              <path id="Trazado_194319" data-name="Trazado 194319" d="M495.323,430.36H488.07v1.394h7.253a.7.7,0,0,0,.695-.695h0a.7.7,0,0,0-.695-.695Z" transform="translate(-462.724 -414.517)" fill="#ffb357"/>
              <rect id="Rectángulo_44264" data-name="Rectángulo 44264" width="4.581" height="0.219" transform="translate(26.181 16.324)" fill="#fecc86"/>
            </g>
            <rect id="Rectángulo_44265" data-name="Rectángulo 44265" width="8.541" height="3.051" transform="translate(24.324 42.887)" fill="#49263e"/>
          </g>
          <path id="Trazado_194320" data-name="Trazado 194320" d="M154.955,249.557a11.61,11.61,0,0,1-10.037-5.373,9.267,9.267,0,0,1-1.011-6.559,17.332,17.332,0,0,1,4.455-8.021.729.729,0,0,1,1.083.977c-4.212,4.674-5.373,9.24-3.265,12.87,2.007,3.454,6.777,5.344,11.1,4.4,4.533-.991,7.443-4.747,7.977-10.3a10.545,10.545,0,0,0-2.517-8.449c-2.4-2.57-6.3-3.921-11.009-3.8a.729.729,0,0,1-.039-1.457c5.13-.126,9.435,1.389,12.117,4.27a11.928,11.928,0,0,1,2.9,9.581c-.6,6.228-3.921,10.45-9.119,11.587a12.454,12.454,0,0,1-2.638.282Z" transform="translate(-87.342 -133.332)" fill="#12263f"/>
          <path id="Trazado_194321" data-name="Trazado 194321" d="M268.675,328.187a11.61,11.61,0,0,1-10.037-5.373,9.267,9.267,0,0,1-1.011-6.559,17.333,17.333,0,0,1,4.455-8.021.729.729,0,0,1,1.083.977c-4.212,4.674-5.373,9.24-3.265,12.87,2.007,3.454,6.777,5.344,11.1,4.4,4.533-.991,7.443-4.747,7.977-10.3a10.545,10.545,0,0,0-2.517-8.449c-2.4-2.57-6.3-3.921-11.009-3.8a.729.729,0,1,1-.039-1.457c5.13-.126,9.435,1.389,12.117,4.27a11.928,11.928,0,0,1,2.9,9.581c-.6,6.228-3.921,10.45-9.119,11.587a12.454,12.454,0,0,1-2.638.282Z" transform="translate(-145.814 -173.761)" fill="#12263f"/>
          <path id="Trazado_194322" data-name="Trazado 194322" d="M441.135,333.562a11.61,11.61,0,0,1-10.037-5.373,9.267,9.267,0,0,1-1.011-6.559,17.333,17.333,0,0,1,4.455-8.021.729.729,0,0,1,1.083.977c-4.212,4.674-5.373,9.241-3.265,12.87,2.006,3.454,6.777,5.344,11.1,4.4,4.533-.991,7.443-4.747,7.977-10.3a10.545,10.545,0,0,0-2.517-8.449c-2.4-2.57-6.3-3.926-11.014-3.8h-.019a.729.729,0,0,1-.019-1.457c5.13-.126,9.435,1.389,12.117,4.27a11.928,11.928,0,0,1,2.9,9.581c-.6,6.228-3.921,10.45-9.119,11.587a12.456,12.456,0,0,1-2.638.282Z" transform="translate(-234.487 -176.522)" fill="#12263f"/>
          <path id="Trazado_194323" data-name="Trazado 194323" d="M445.013,328.308l-6.874-10.232a.511.511,0,1,1,.85-.568l5.781,8.6,7.346-18.787a.514.514,0,1,1,.957.374l-8.06,20.614Z" transform="translate(-238.686 -176.092)" fill="#3aa1c9"/>
          <g id="Grupo_141480" data-name="Grupo 141480" transform="translate(99.527 8.084)">
            <path id="Trazado_194324" data-name="Trazado 194324" d="M233.7,82.124l-.165.058-.029-.083c-.107-.306-.209-.617-.3-.933l-.024-.083.17-.049.024.083c.092.311.189.622.3.923l.029.083Zm-.554-1.861-.17.039-.019-.087c-.073-.321-.141-.641-.194-.957l-.015-.087.175-.029.015.087c.053.311.121.632.194.947l.019.087Zm10.173-6.248h0a2.347,2.347,0,0,1-.413.16l-.083.024-.049-.17.083-.024a2.254,2.254,0,0,0,.384-.151h0a1.848,1.848,0,0,0,.428-.291l.068-.058.117.131-.068.058a2.188,2.188,0,0,1-.466.316Zm-1.326.282-.087-.01a1.512,1.512,0,0,1-.894-.471l-.063-.063.126-.121.063.063a1.359,1.359,0,0,0,.792.423l.087.01-.024.175Zm2.337-1.341-.165-.068.034-.083a2.886,2.886,0,0,0,.2-.918V71.8l.18.01V71.9a3.122,3.122,0,0,1-.219.977l-.034.083Zm-11.524,5.4-.175.019-.01-.087c-.034-.33-.063-.661-.073-.977v-.087l.175,0V77.3c.015.316.039.641.078.967l.01.087Zm7.866-5.373-.16.068-.034-.083a4.461,4.461,0,0,1-.282-.952l-.015-.087.175-.034.015.087a4.38,4.38,0,0,0,.267.913l.034.083Zm3.853-1.987-.175.034-.015-.087a4.46,4.46,0,0,0-.282-.909l-.034-.083.16-.068.034.083a4.755,4.755,0,0,1,.3.947l.019.087Zm-11.8,5.427h-.175v-.1c.015-.33.039-.661.078-.977l.01-.087.175.024-.01.087c-.039.311-.063.636-.078.962Zm7.55-5.3H240.1v-.083a7.457,7.457,0,0,1,.049-.981l.01-.087.175.019-.01.087a7.165,7.165,0,0,0-.049.962v.087Zm3.362-1.851-.053-.073c-.073-.1-.151-.2-.228-.3a3.237,3.237,0,0,0-.408-.408l-.068-.058.112-.136.068.058a3.554,3.554,0,0,1,.428.428c.083.1.16.2.238.306l.049.073-.146.1ZM232.948,74.5l-.17-.039.019-.087a8.812,8.812,0,0,1,.267-.947l.029-.083.165.058-.029.083c-.1.3-.189.612-.262.928Zm7.521-5.3-.17-.039.019-.087a9.5,9.5,0,0,1,.282-.943l.029-.083.165.058-.029.083a8.026,8.026,0,0,0-.277.923l-.019.087Zm-6.918,3.469-.16-.078.039-.078a7.731,7.731,0,0,1,.471-.86l.049-.073.151.092-.049.073a7.9,7.9,0,0,0-.462.845Zm8.677-4.649-.083-.034a3.5,3.5,0,0,0-.908-.262l-.087-.015.029-.175.087.015a3.849,3.849,0,0,1,.952.277l.083.034Zm-7.676,3.012-.136-.112.053-.068c.2-.253.423-.5.651-.734l.063-.063.126.121-.063.063a9.036,9.036,0,0,0-.636.724l-.053.068Zm6.549-3.644-.16-.078.039-.078c.141-.291.3-.578.471-.86l.049-.073.151.092-.049.073q-.255.415-.466.845l-.039.078Zm-.734.287h-.087a6.667,6.667,0,0,0-.947.141l-.087.019-.039-.17.087-.019a5.379,5.379,0,0,1,.977-.141h.087Zm-4.489,1.968-.112-.136.068-.058a8.948,8.948,0,0,1,.782-.593l.073-.049.1.146-.073.049c-.262.18-.52.374-.768.583Zm2.619-1.574-.083.034a7.413,7.413,0,0,0-.874.4l-.078.044-.083-.155.078-.044a8.1,8.1,0,0,1,.894-.408l.083-.034.063.165Zm3.6-2.327-.141-.107.053-.068a7.706,7.706,0,0,1,.656-.734l.063-.063.126.126-.063.063a7.383,7.383,0,0,0-.641.719l-.053.068Zm7.681-4.066-.087.019c-.316.063-.632.136-.947.214l-.087.019-.044-.17.087-.019c.316-.078.636-.151.952-.214l.087-.019.034.175Zm-1.88.462-.083.024c-.311.1-.622.2-.918.311l-.083.029-.063-.165.083-.029c.3-.112.612-.219.928-.316l.083-.024.053.17Zm-4.455,2.235-.112-.136.068-.053c.248-.2.52-.389.8-.573l.073-.049.1.146-.073.049c-.277.18-.539.369-.782.564l-.068.053Zm2.633-1.569-.083.034c-.3.131-.588.272-.87.423l-.078.044-.083-.155.078-.044c.287-.155.578-.3.879-.432l.083-.034.073.16Z" transform="translate(-232.55 -57.954)" fill="#61a3c5"/>
            <path id="Trazado_194325" data-name="Trazado 194325" d="M275.714,59.243l.5-1.249s3.989-1.895,4.032-1.943,1.807-1.861,1.807-1.861l-2.73.777L275.17,57.12l.544,2.118Z" transform="translate(-254.464 -54.19)" fill="#3f9896"/>
            <path id="Trazado_194326" data-name="Trazado 194326" d="M271.59,55.332l8.624-1.132-6.884,2.93Z" transform="translate(-252.623 -54.195)" fill="#7fc6a6"/>
            <path id="Trazado_194327" data-name="Trazado 194327" d="M277.32,58l1.836,1.919,4-5.718Z" transform="translate(-255.569 -54.195)" fill="#7fc6a6"/>
          </g>
        </g>
      </g>
    </g>
  </g>
</svg>
