<svg xmlns="http://www.w3.org/2000/svg" width="190" height="115" viewBox="0 0 190 115">
  <g id="Grupo_146535" data-name="Grupo 146535" transform="translate(-180 -8884)">
    <g id="Grupo_146433" data-name="Grupo 146433" transform="translate(0 1617)">
      <g id="Grupo_141003" data-name="Grupo 141003" transform="translate(0 4934)">
        <rect id="Rectángulo_43992" data-name="Rectángulo 43992" width="190" height="115" transform="translate(180 2333)" fill="none"/>
        <rect id="Rectángulo_41430" data-name="Rectángulo 41430" width="85" height="28" rx="14" transform="translate(285 2341)" fill="#feca2e" opacity="0.2"/>
        <rect id="Rectángulo_41431" data-name="Rectángulo 41431" width="85" height="28" rx="14" transform="translate(180 2402)" fill="#4dd0e1" opacity="0.2"/>
      </g>
      <g id="_11_copy" data-name="11 copy" transform="translate(161.91 7250.129)">
        <path id="Trazado_200431" data-name="Trazado 200431" d="M154.306,144.409a1.727,1.727,0,0,1-1.147-.434,12.636,12.636,0,0,1-3.3-5.359,16.744,16.744,0,0,1-11.316,0,12.632,12.632,0,0,1-3.3,5.359,1.726,1.726,0,1,1-2.29-2.582c1.2-1.063,2.148-2.932,2.826-5.554a1.728,1.728,0,0,1,2.445-1.112,13.311,13.311,0,0,0,11.958,0,1.694,1.694,0,0,1,1.484-.027,1.723,1.723,0,0,1,.957,1.138c.682,2.626,1.63,4.5,2.826,5.558a1.725,1.725,0,0,1-1.143,3.016Z" transform="translate(-38.423 -63.2)" fill="#0f2771"/>
        <path id="Trazado_200432" data-name="Trazado 200432" d="M192.918,89.22a5.567,5.567,0,0,1-2.724-.717,1.726,1.726,0,0,1-.895-1.51V76.638a1.738,1.738,0,0,1,.895-1.515,5.619,5.619,0,0,1,2.719-.713c3.508,0,6.364,3.322,6.364,7.405s-2.852,7.405-6.364,7.405Zm-.164-3.455c1.63.111,3.078-1.727,3.078-3.946s-1.453-4.079-3.078-3.951v7.9Z" transform="translate(-70.134 -29.699)" fill="#0f2771"/>
        <path id="Trazado_200433" data-name="Trazado 200433" d="M112.684,89.22c-3.508,0-6.364-3.322-6.364-7.405s2.852-7.405,6.364-7.405a5.619,5.619,0,0,1,2.719.713,1.719,1.719,0,0,1,.895,1.515V86.993a1.717,1.717,0,0,1-.895,1.51A5.611,5.611,0,0,1,112.684,89.22Zm0-11.36c-1.581,0-2.914,1.811-2.914,3.955s1.444,4.057,3.078,3.946v-7.9c-.053,0-.111-.009-.164-.009Z" transform="translate(-23.906 -29.699)" fill="#0f2771"/>
        <path id="Trazado_200434" data-name="Trazado 200434" d="M137.9,102.293A16.86,16.86,0,0,1,121.06,85.455V69.3a1.725,1.725,0,0,1,2.183-1.665c.062.018,6.453,1.776,10.528,3.043,6.754,2.1,16.763-1.475,18.088-2.662a1.726,1.726,0,0,1,2.879,1.284V85.455A16.86,16.86,0,0,1,137.9,102.293ZM124.51,71.57V85.455a13.389,13.389,0,1,0,26.777,0V72.172c-4.327,1.829-12.233,3.756-18.539,1.8-2.547-.788-6.019-1.78-8.238-2.4Z" transform="translate(-32.117 -25.89)" fill="#0f2771"/>
        <path id="Trazado_200435" data-name="Trazado 200435" d="M151.348,53.843a1.722,1.722,0,0,1-1.723-1.723c0-2.622-2.051-4.721-3.977-3.667a1.726,1.726,0,0,1-2.551-1.515v-.655c-4.327,1.829-12.233,3.756-18.539,1.8-2.547-.788-6.019-1.78-8.238-2.4v1.258a1.726,1.726,0,0,1-2.551,1.515C111.837,47.4,109.8,49.5,109.8,52.125a1.723,1.723,0,0,1-3.446,0V34.94a1.759,1.759,0,0,1,.111-.611c.691-3.384,4.766-5.89,9.69-5.89.39,0,.779.018,1.165.049a9.046,9.046,0,0,1,8.76-7.387,8.884,8.884,0,0,1,8.207,5.607A8.1,8.1,0,0,1,145.2,28.868a6.764,6.764,0,0,1,1.692-.217,5.967,5.967,0,0,1,6.187,5.709V52.116a1.722,1.722,0,0,1-1.723,1.723Zm-4.637-9.132a5.609,5.609,0,0,1,2.914.824V34.36a2.537,2.537,0,0,0-2.742-2.259,3.075,3.075,0,0,0-1.581.425,1.708,1.708,0,0,1-1.431.151,1.732,1.732,0,0,1-1.05-.983,4.592,4.592,0,0,0-8.1-.66,1.725,1.725,0,0,1-3.184-.859,5.627,5.627,0,0,0-5.474-5.625,5.7,5.7,0,0,0-5.5,5.753c0,.062.009.124.009.173a1.727,1.727,0,0,1-2.113,1.683,10.484,10.484,0,0,0-2.325-.261c-3.543,0-6.134,1.687-6.329,3.264a.558.558,0,0,1-.018.12V45.539a5.651,5.651,0,0,1,3.078-.819v-1.3a1.725,1.725,0,0,1,2.183-1.665c.062.018,6.453,1.776,10.528,3.043,6.754,2.1,16.763-1.475,18.088-2.662a1.726,1.726,0,0,1,2.879,1.284v1.3h.164Z" transform="translate(-23.922)" fill="#0f2771"/>
        <path id="Trazado_200436" data-name="Trazado 200436" d="M148.536,249.806H97.369a4.292,4.292,0,0,1-4.092-3.056l-.261-.886a4.266,4.266,0,0,1,4.092-5.474H148.8a4.266,4.266,0,0,1,4.092,5.474l-.261.886a4.291,4.291,0,0,1-4.092,3.06ZM97.1,243.836a.815.815,0,0,0-.784,1.045l.261.89a.821.821,0,0,0,.784.585h51.172a.821.821,0,0,0,.784-.585l.261-.886a.8.8,0,0,0-.128-.722.817.817,0,0,0-.655-.328H97.1Z" transform="translate(-16.394 -122.168)" fill="#0f2771"/>
        <path id="Trazado_200437" data-name="Trazado 200437" d="M146.43,198.914h-81.3a1.722,1.722,0,0,1-1.723-1.723V174.418A25.4,25.4,0,0,1,88.788,149.04h6.9a1.725,1.725,0,0,1,1.262,2.9,3.067,3.067,0,0,0-.952,2.077c0,2.25,3.384,4.416,7.7,4.925a1.726,1.726,0,0,1-.407,3.428c-6.324-.748-10.745-4.185-10.745-8.353a5.752,5.752,0,0,1,.208-1.528H88.792a21.952,21.952,0,0,0-21.928,21.928v21.046h77.842V174.418A21.952,21.952,0,0,0,122.78,152.49H118.82a5.752,5.752,0,0,1,.208,1.528c0,4.168-4.42,7.6-10.749,8.353a1.726,1.726,0,0,1-.407-3.428c4.323-.514,7.706-2.675,7.706-4.925a3.067,3.067,0,0,0-.952-2.077,1.725,1.725,0,0,1,1.262-2.9h6.9a25.4,25.4,0,0,1,25.378,25.378v22.773a1.722,1.722,0,0,1-1.723,1.723Z" transform="translate(0 -71.277)" fill="#0f2771"/>
        <path id="Trazado_200438" data-name="Trazado 200438" d="M148.938,205.384H101.425a1.727,1.727,0,0,1-1.718-1.563l-2.866-30.564a1.725,1.725,0,0,1,1.718-1.887H151.8a1.724,1.724,0,0,1,1.718,1.882l-2.866,30.564a1.727,1.727,0,0,1-1.718,1.563ZM103,201.934H147.37l2.542-27.114H100.45l2.542,27.114Z" transform="translate(-18.621 -83.717)" fill="#0f2771"/>
      </g>
    </g>
  </g>
</svg>
