<svg xmlns="http://www.w3.org/2000/svg" width="190" height="115" viewBox="0 0 190 115">
  <g id="Grupo_146523" data-name="Grupo 146523" transform="translate(-180 -6445)">
    <g id="Grupo_146431" data-name="Grupo 146431" transform="translate(0 626)">
      <g id="_1_3_b" data-name="1_3_b" transform="translate(106.473 5738.314)">
        <g id="Grupo_141794" data-name="Grupo 141794" transform="translate(98.85 85.913)">
          <path id="Trazado_195146" data-name="Trazado 195146" d="M351.3,100.591a1.562,1.562,0,1,0,3.125,0V87.341a4.905,4.905,0,1,0-3.125,0Zm1.562-19.676a1.78,1.78,0,1,1-1.78,1.78A1.783,1.783,0,0,1,352.865,80.915Z" transform="translate(-272.12 -77.79)" fill="#0f2771"/>
          <path id="Trazado_195147" data-name="Trazado 195147" d="M276.349,142.12a2.112,2.112,0,0,0,4.225,0V123.972a6.632,6.632,0,1,0-4.225,0Zm2.112-26.836a2.4,2.4,0,0,1,.348,4.784,2.233,2.233,0,0,0-.351-.033,1.949,1.949,0,0,0-.351.033,2.4,2.4,0,0,1,.348-4.784Z" transform="translate(-220.366 -109.736)" fill="#0f2771"/>
          <path id="Trazado_195148" data-name="Trazado 195148" d="M207.294,182.732v-20.74a6.632,6.632,0,1,0-4.225,0v20.74a2.112,2.112,0,1,0,4.225,0Zm-2.112-29.43a2.407,2.407,0,1,1-2.407,2.407A2.41,2.41,0,0,1,205.182,153.3Z" transform="translate(-168.888 -136.444)" fill="#0f2771"/>
          <path id="Trazado_195149" data-name="Trazado 195149" d="M289.484,361.8V347.152a2.112,2.112,0,1,0-4.225,0V361.8a6.632,6.632,0,1,0,4.225,0Zm-2.112,8.687a2.406,2.406,0,0,1-.351-4.787,2.264,2.264,0,0,0,.351.033,1.975,1.975,0,0,0,.351-.033,2.406,2.406,0,0,1-.351,4.787Z" transform="translate(-221.394 -274.278)" fill="#0f2771"/>
          <path id="Trazado_195150" data-name="Trazado 195150" d="M223.718,363.444v-16.88a1.524,1.524,0,1,0-3.048,0v16.88a4.784,4.784,0,1,0,3.048,0Zm-1.524,6.27a1.736,1.736,0,0,1-.251-3.454,1.606,1.606,0,0,0,.253.024,1.408,1.408,0,0,0,.253-.024,1.736,1.736,0,0,1-.251,3.454Z" transform="translate(-178.486 -272.32)" fill="#0f2771"/>
          <path id="Trazado_195151" data-name="Trazado 195151" d="M363.828,362.182V346.564a1.524,1.524,0,1,0-3.048,0v15.618a4.784,4.784,0,1,0,3.048,0Zm-1.524,6.268a1.736,1.736,0,0,1-.251-3.454,1.621,1.621,0,0,0,.253.024,1.411,1.411,0,0,0,.253-.024,1.736,1.736,0,0,1-.251,3.454Z" transform="translate(-277.063 -272.668)" fill="#0f2771"/>
          <path id="Trazado_195152" data-name="Trazado 195152" d="M111.762,293.034h13.323a2.112,2.112,0,0,0,0-4.225H111.762a6.632,6.632,0,1,0,0,4.225Zm-6.281.294a2.407,2.407,0,1,1,2.407-2.407A2.41,2.41,0,0,1,105.482,293.328Z" transform="translate(-98.85 -231.533)" fill="#0f2771"/>
          <path id="Trazado_195153" data-name="Trazado 195153" d="M128.575,202.513a6.612,6.612,0,0,0,2.139-.36l11.823,14.968a2.113,2.113,0,1,0,3.314-2.621L134.07,199.586a6.63,6.63,0,1,0-5.5,2.928Zm0-9.038a2.407,2.407,0,1,1-2.407,2.407A2.41,2.41,0,0,1,128.575,193.475Z" transform="translate(-115.07 -164.723)" fill="#0f2771"/>
          <path id="Trazado_195154" data-name="Trazado 195154" d="M146,330.018a2.114,2.114,0,0,0-2.966.348l-12.314,15.587a6.627,6.627,0,1,0,3.359,2.568l12.269-15.533a2.115,2.115,0,0,0-.348-2.969Zm-17.419,24.613a2.405,2.405,0,1,1,2.407-2.407A2.41,2.41,0,0,1,128.582,354.632Z" transform="translate(-115.077 -263.407)" fill="#0f2771"/>
          <path id="Trazado_195155" data-name="Trazado 195155" d="M423.33,129.393a6.638,6.638,0,1,0-6.093-4.019l-14.846,13.233a2.111,2.111,0,1,0,2.809,3.154l14.852-13.239a6.582,6.582,0,0,0,3.279.875Zm0-9.038a2.407,2.407,0,1,1-2.407,2.407A2.41,2.41,0,0,1,423.33,120.355Z" transform="translate(-311.587 -113.297)" fill="#0f2771"/>
          <path id="Trazado_195156" data-name="Trazado 195156" d="M449.22,346.338a6.59,6.59,0,0,0-3.279.875l-14.852-13.239a2.113,2.113,0,0,0-2.815,3.154l14.846,13.233a6.63,6.63,0,1,0,6.093-4.019Zm0,9.038a2.407,2.407,0,1,1,2.407-2.407A2.41,2.41,0,0,1,449.22,355.377Z" transform="translate(-329.771 -266.127)" fill="#0f2771"/>
          <path id="Trazado_195157" data-name="Trazado 195157" d="M447.7,227.993a6.632,6.632,0,1,0-6.281-8.744H420.882a2.112,2.112,0,0,0,0,4.225H441.42A6.639,6.639,0,0,0,447.7,227.993Zm0-9.038a2.407,2.407,0,1,1-2.407,2.407A2.41,2.41,0,0,1,447.7,218.955Z" transform="translate(-323.589 -182.627)" fill="#0f2771"/>
          <path id="Trazado_195158" data-name="Trazado 195158" d="M464.745,284.29a6.635,6.635,0,0,0-6.281,4.519H444.422a2.112,2.112,0,0,0,0,4.225h14.043a6.629,6.629,0,1,0,6.281-8.744Zm0,9.038a2.407,2.407,0,1,1,2.407-2.407A2.41,2.41,0,0,1,464.745,293.328Z" transform="translate(-340.126 -231.533)" fill="#0f2771"/>
        </g>
        <path id="Trazado_195159" data-name="Trazado 195159" d="M239.993,318.895h-5.281a2.112,2.112,0,0,1,0-4.225h5.281a2.112,2.112,0,1,1,0,4.225Z" transform="translate(-93.958 -166.968)" fill="#0f2771"/>
        <path id="Trazado_195160" data-name="Trazado 195160" d="M287,318.895h-7.92a2.112,2.112,0,1,1,0-4.225H287a2.112,2.112,0,1,1,0,4.225Z" transform="translate(-125.127 -166.968)" fill="#0f2771"/>
        <path id="Trazado_195161" data-name="Trazado 195161" d="M337.6,318.895h-5.281a2.112,2.112,0,1,1,0-4.225H337.6a2.112,2.112,0,0,1,0,4.225Z" transform="translate(-162.527 -166.968)" fill="#0f2771"/>
        <path id="Trazado_195162" data-name="Trazado 195162" d="M246.553,229.322H195.607a15.667,15.667,0,1,1,0-31.334,15.512,15.512,0,0,1,2.749.247,15.649,15.649,0,0,1,21.129-12.769,18.653,18.653,0,0,1,34.422,14.367,15.659,15.659,0,0,1-7.352,29.49Zm-50.946-27.109a11.442,11.442,0,1,0,0,22.885h50.946a11.435,11.435,0,0,0,3.82-22.215,2.11,2.11,0,0,1-1.145-3,14.428,14.428,0,1,0-26.52-10.928,2.111,2.111,0,0,1-3.085,1.244,11.424,11.424,0,0,0-17.149,9.9c0,.2.015.393.03.586a2.254,2.254,0,0,1-.842,1.922,2.134,2.134,0,0,1-2,.357,11.343,11.343,0,0,0-4.046-.75Z" transform="translate(-56.965 -68.325)" fill="#0f2771"/>
      </g>
      <g id="Grupo_146430" data-name="Grupo 146430" transform="translate(0 3486)">
        <rect id="Rectángulo_43992" data-name="Rectángulo 43992" width="190" height="115" transform="translate(180 2333)" fill="none"/>
        <rect id="Rectángulo_41430" data-name="Rectángulo 41430" width="85" height="28" rx="14" transform="translate(285 2341)" fill="#feca2e" opacity="0.2"/>
        <rect id="Rectángulo_41431" data-name="Rectángulo 41431" width="85" height="28" rx="14" transform="translate(180 2402)" fill="#4dd0e1" opacity="0.2"/>
      </g>
    </g>
  </g>
</svg>
