<svg xmlns="http://www.w3.org/2000/svg" width="49.577" height="52.152" viewBox="0 0 49.577 52.152">
  <g id="Grupo_146536" data-name="Grupo 146536" transform="translate(-359.211 -9084.585)">
    <g id="_10" data-name="10" transform="translate(359.211 9084.585)">
      <path id="Trazado_200369" data-name="Trazado 200369" d="M160.007,210.932a.908.908,0,0,1-.907-.907v-7.619a4.59,4.59,0,0,1,4.587-4.587h13.27a.906.906,0,0,1,.5,1.659l-16.952,11.3a.9.9,0,0,1-.5.152Zm3.68-11.3a2.78,2.78,0,0,0-2.776,2.776v5.926l13.055-8.7Z" transform="translate(-136.652 -158.78)" fill="#4dd0e1"/>
      <path id="Trazado_200370" data-name="Trazado 200370" d="M130.343,82.748h-24.2a.908.908,0,0,1-.907-.907V77.927a.908.908,0,0,1,.907-.907h24.2a.908.908,0,0,1,.907.907v3.914a.908.908,0,0,1-.907.907Zm-23.292-1.811h22.388v-2.1H107.051Z" transform="translate(-97.638 -71.278)" fill="#4dd0e1"/>
      <path id="Trazado_200371" data-name="Trazado 200371" d="M144.048,110.834H136.7a.907.907,0,0,1,0-1.814h7.351a.907.907,0,0,1,0,1.814Z" transform="translate(-119.767 -94.458)" fill="#4dd0e1"/>
      <path id="Trazado_200372" data-name="Trazado 200372" d="M130.558,128.644H106.147a.907.907,0,0,1,0-1.814h24.414a.907.907,0,1,1,0,1.814Z" transform="translate(-97.638 -107.358)" fill="#4dd0e1"/>
      <path id="Trazado_200373" data-name="Trazado 200373" d="M125.784,146.444H106.147a.907.907,0,0,1,0-1.814h19.64a.907.907,0,1,1,0,1.814Z" transform="translate(-97.638 -120.252)" fill="#4dd0e1"/>
      <path id="Trazado_200374" data-name="Trazado 200374" d="M120.652,164.254H106.137a.907.907,0,1,1,0-1.814h14.515a.907.907,0,1,1,0,1.814Z" transform="translate(-97.631 -133.153)" fill="#4dd0e1"/>
      <path id="Trazado_200375" data-name="Trazado 200375" d="M115.761,182.064h-9.614a.907.907,0,0,1,0-1.814h9.614a.907.907,0,1,1,0,1.814Z" transform="translate(-97.638 -146.054)" fill="#4dd0e1"/>
      <path id="Trazado_200376" data-name="Trazado 200376" d="M135.924,129.817a.9.9,0,0,1-.639-.265l-3.76-3.76a.908.908,0,0,1,0-1.282L156.5,99.535a.908.908,0,0,1,1.282,0l3.76,3.76a.908.908,0,0,1,0,1.282L153,113.121a.906.906,0,0,1-1.282-1.282l7.905-7.905-2.478-2.478L133.449,125.15l2.478,2.478,12.159-12.159a.906.906,0,0,1,1.282,1.282l-12.8,12.8a.9.9,0,0,1-.639.265Z" transform="translate(-116.486 -87.395)" fill="#4dd0e1"/>
      <path id="Trazado_200377" data-name="Trazado 200377" d="M226.534,98.59a.908.908,0,0,1-.639-.265l-3.76-3.76a.908.908,0,0,1,0-1.282l2.379-2.379a.908.908,0,0,1,1.282,0l3.76,3.76a.908.908,0,0,1,0,1.282l-2.379,2.379a.9.9,0,0,1-.639.265Zm-2.478-4.667,2.478,2.478,1.1-1.1-2.478-2.478Z" transform="translate(-182.119 -81.144)" fill="#4dd0e1"/>
      <path id="Trazado_200378" data-name="Trazado 200378" d="M235.918,92.168a.9.9,0,0,1-.639-.265l-2.834-2.834a.908.908,0,0,1,0-1.282l1.326-1.326a2.618,2.618,0,0,1,2.009-.761,3.054,3.054,0,0,1,2.864,2.867,2.63,2.63,0,0,1-.761,2.009L236.557,91.9A.9.9,0,0,1,235.918,92.168Zm-1.552-3.738,1.552,1.552.686-.686a.836.836,0,0,0,.232-.642,1.183,1.183,0,0,0-.361-.78,1.2,1.2,0,0,0-.783-.361.83.83,0,0,0-.642.232l-.686.686Z" transform="translate(-189.588 -77.565)" fill="#4dd0e1"/>
      <path id="Trazado_200379" data-name="Trazado 200379" d="M125.9,197.174a.9.9,0,0,1-.863-1.177l1.726-5.485a.9.9,0,0,1,1.5-.369l3.76,3.76a.9.9,0,0,1-.367,1.5l-5.485,1.726a.923.923,0,0,1-.273.041Zm2.142-4.694-.755,2.4,2.4-.755Z" transform="translate(-111.949 -153.027)" fill="#4dd0e1"/>
      <path id="Trazado_200380" data-name="Trazado 200380" d="M101.023,160.22H82.257a4.59,4.59,0,0,1-4.587-4.587v-1.8a.907.907,0,0,1,1.814,0v1.8a2.78,2.78,0,0,0,2.776,2.776h18.49l16.321-10.88V128.717a.907.907,0,0,1,1.814,0v19.3a.905.905,0,0,1-.4.753l-16.952,11.3a.9.9,0,0,1-.5.152Z" transform="translate(-77.667 -108.068)" fill="#4dd0e1"/>
      <path id="Trazado_200381" data-name="Trazado 200381" d="M78.567,97.165a.908.908,0,0,1-.907-.907V60.777a4.59,4.59,0,0,1,4.587-4.587h32.035a4.59,4.59,0,0,1,4.587,4.587V64.8a.907.907,0,1,1-1.814,0V60.777A2.78,2.78,0,0,0,114.279,58H82.249a2.78,2.78,0,0,0-2.776,2.776V96.26a.908.908,0,0,1-.907.907Z" transform="translate(-77.66 -56.19)" fill="#4dd0e1"/>
      <path id="Trazado_200382" data-name="Trazado 200382" d="M245.037,126.075a.908.908,0,0,1-.907-.907v-.631a.907.907,0,1,1,1.814,0v.631A.908.908,0,0,1,245.037,126.075Z" transform="translate(-198.244 -105.041)" fill="#4dd0e1"/>
      <path id="Trazado_200383" data-name="Trazado 200383" d="M250.188,132.244h-.631a.907.907,0,1,1,0-1.814h.631a.907.907,0,1,1,0,1.814Z" transform="translate(-201.518 -109.966)" fill="#4dd0e1"/>
      <path id="Trazado_200384" data-name="Trazado 200384" d="M245.037,137.395a.908.908,0,0,1-.907-.907v-.631a.907.907,0,1,1,1.814,0v.631A.908.908,0,0,1,245.037,137.395Z" transform="translate(-198.244 -113.24)" fill="#4dd0e1"/>
      <path id="Trazado_200385" data-name="Trazado 200385" d="M238.858,132.244h-.631a.907.907,0,1,1,0-1.814h.631a.907.907,0,0,1,0,1.814Z" transform="translate(-193.311 -109.966)" fill="#4dd0e1"/>
      <path id="Trazado_200386" data-name="Trazado 200386" d="M225.017,213.945a.908.908,0,0,1-.907-.907v-.631a.907.907,0,0,1,1.814,0v.631A.908.908,0,0,1,225.017,213.945Z" transform="translate(-183.742 -168.69)" fill="#4dd0e1"/>
      <path id="Trazado_200387" data-name="Trazado 200387" d="M230.168,220.124h-.631a.907.907,0,1,1,0-1.814h.631a.907.907,0,1,1,0,1.814Z" transform="translate(-187.016 -173.623)" fill="#4dd0e1"/>
      <path id="Trazado_200388" data-name="Trazado 200388" d="M225.017,225.275a.908.908,0,0,1-.907-.907v-.631a.907.907,0,0,1,1.814,0v.631A.908.908,0,0,1,225.017,225.275Z" transform="translate(-183.742 -176.897)" fill="#4dd0e1"/>
      <path id="Trazado_200389" data-name="Trazado 200389" d="M218.848,220.124h-.631a.907.907,0,1,1,0-1.814h.631a.907.907,0,1,1,0,1.814Z" transform="translate(-178.816 -173.623)" fill="#4dd0e1"/>
    </g>
  </g>
</svg>
