<svg xmlns="http://www.w3.org/2000/svg" width="522.765" height="432.031" viewBox="0 0 522.765 432.031">
  <g id="Grupo_146524" data-name="Grupo 146524" transform="translate(-7727.658 -3329)">
    <g id="_Online_Conversation" transform="translate(7684.628 3271.74)">
      <g id="Grupo_141155" data-name="Grupo 141155" transform="translate(43.03 57.26)">
        <rect id="Rectángulo_44094" data-name="Rectángulo 44094" width="208.998" height="417.35" rx="22.56" transform="translate(86.865)" fill="#0f2771"/>
        <rect id="Rectángulo_44095" data-name="Rectángulo 44095" width="208.998" height="417.35" rx="22.56" transform="translate(105.116)" fill="#727997"/>
        <rect id="Rectángulo_44096" data-name="Rectángulo 44096" width="53.875" height="6.704" rx="3.352" transform="translate(182.741 16.1)" fill="#38297a"/>
        <rect id="Rectángulo_44097" data-name="Rectángulo 44097" width="12.888" height="6.704" rx="3.352" transform="translate(160.342 16.1)" fill="#38297a"/>
        <rect id="Rectángulo_44098" data-name="Rectángulo 44098" width="43.418" height="22.698" rx="11.349" transform="translate(188.143 380.809)" fill="#0f2771"/>
        <rect id="Rectángulo_44099" data-name="Rectángulo 44099" width="37.274" height="16.544" rx="8.272" transform="translate(191.22 383.886)" fill="#f6f6f6"/>
        <rect id="Rectángulo_44100" data-name="Rectángulo 44100" width="189.917" height="332.693" rx="14.1" transform="translate(114.657 34.274)" fill="#fff"/>
        <path id="Trazado_192325" data-name="Trazado 192325" d="M142.411,116.85h.029a2.962,2.962,0,0,1,2.961,2.961V153.13a2.962,2.962,0,0,1-2.961,2.961h-.029a2.962,2.962,0,0,1-2.961-2.961V119.811a2.962,2.962,0,0,1,2.961-2.961Z" transform="translate(-46.44 -59.367)" fill="#20154f"/>
        <path id="Trazado_192326" data-name="Trazado 192326" d="M142.411,181.69h.029a2.962,2.962,0,0,1,2.961,2.961V217.97a2.962,2.962,0,0,1-2.961,2.961h-.029a2.962,2.962,0,0,1-2.961-2.961V184.651A2.962,2.962,0,0,1,142.411,181.69Z" transform="translate(-46.44 -61.66)" fill="#20154f"/>
        <circle id="Elipse_4929" data-name="Elipse 4929" cx="59.614" cy="59.614" r="59.614" transform="translate(150.001 122.605)" fill="#ebf2ff"/>
        <g id="Grupo_141150" data-name="Grupo 141150" transform="translate(161.335 132.766)">
          <g id="Grupo_141149" data-name="Grupo 141149">
            <g id="Grupo_141148" data-name="Grupo 141148">
              <path id="Trazado_192327" data-name="Trazado 192327" d="M265.119,272.768c-14.836,1.457-18.029-20.074-18.029-20.074a58.032,58.032,0,0,0,.984-7.8A53.02,53.02,0,0,0,248,237.8l22.457,7.621c0,3.511.839,4.939,2.479,7.283,1,1.428,1.553,2.17,1.553,2.17s5.46,16.447-9.376,17.9Z" transform="translate(-211.582 -196.411)" fill="#f4a998"/>
              <g id="Grupo_141144" data-name="Grupo 141144" transform="translate(0 56.283)">
                <path id="Trazado_192328" data-name="Trazado 192328" d="M308.084,279.768a59.625,59.625,0,0,1-97.718,1.91,1.208,1.208,0,0,1-.087-.116l.222-.54a30.235,30.235,0,0,1,7.958-11.489c.116-.106.222-.2.309-.289a3.114,3.114,0,0,0,.251-.241l.338-.309a27.326,27.326,0,0,1,7.8-4.592c.656-.241,1.322-.473,2-.675l7.688-2.363,10.023-3.077.338-.106c2.277,6.405,5.981,11.17,11.489,13.823h.019l.019.019a32.482,32.482,0,0,0,11.527-13.842l3.7,1.129,6.569,2.026,17.74,5.46,9.82,13.264Z" transform="translate(-210.28 -253.404)" fill="#bddcf6"/>
                <g id="Grupo_141143" data-name="Grupo 141143" transform="translate(26.566)">
                  <path id="Trazado_192329" data-name="Trazado 192329" d="M260.49,271.549l13.572,5.875L282.3,260.88l-8.894-7.64a63.924,63.924,0,0,1-12.926,18.309Z" transform="translate(-238.621 -253.24)" fill="#46a6fc"/>
                  <path id="Trazado_192330" data-name="Trazado 192330" d="M259.688,271.549l-13.572,5.875-8.3-16.515,8.952-7.659c2.836,7.322,6.955,13.582,12.926,18.309Z" transform="translate(-237.82 -253.24)" fill="#46a6fc"/>
                </g>
              </g>
              <g id="Grupo_141145" data-name="Grupo 141145" transform="translate(24.462)">
                <path id="Trazado_192331" data-name="Trazado 192331" d="M279.546,212.5s-12.81-6.945-17.508-7.746c-7.929-1.3-16.871,19.235-20.682,22.38-.019.029-.058.039-.068.068-4.109,3.521.685,9.453.685,9.453s12.984,25.9,28.167,12.656c8.325-7.225,9.068-29.151,9.116-33.55,0-.5.289-3.251.289-3.251Z" transform="translate(-235.78 -195.24)" fill="#f2c3b3"/>
                <path id="Trazado_192332" data-name="Trazado 192332" d="M280.959,205.077c-2.749.6-6.916.318-10.958-4.91-7.727-10-14.344-2.7-14.344-2.7S240,190.308,236.3,210.228a31.089,31.089,0,0,0,3.4,21.839h0a4.918,4.918,0,0,1,2.3-4.437c6.656-4.92,8.45,8.18,8.45,8.18s5-4.842,4.476-17.556c0,0,21.589,5.855,28.466-9.183.945-2.064-.424-4.418-2.412-3.974Z" transform="translate(-235.639 -194.894)" fill="#20154f"/>
              </g>
              <g id="Grupo_141147" data-name="Grupo 141147" transform="translate(46.069 24.131)">
                <g id="Grupo_141146" data-name="Grupo 141146" transform="translate(2.204 5.693)">
                  <ellipse id="Elipse_4930" data-name="Elipse 4930" cx="1.408" cy="2.334" rx="1.408" ry="2.334" transform="translate(13.764 0.014) rotate(-0.28)" fill="#20154f"/>
                  <ellipse id="Elipse_4931" data-name="Elipse 4931" cx="1.408" cy="2.334" rx="1.408" ry="2.334" transform="translate(0 0.284) rotate(-0.28)" fill="#20154f"/>
                </g>
                <path id="Trazado_192333" data-name="Trazado 192333" d="M273.156,221.685a.608.608,0,0,1,.135-.859,4.753,4.753,0,0,1,5.219-.26.625.625,0,0,1,.222.839.616.616,0,0,1-.839.222,3.505,3.505,0,0,0-3.878.193.617.617,0,0,1-.859-.135Z" transform="translate(-258.568 -219.909)" fill="#20154f"/>
                <path id="Trazado_192334" data-name="Trazado 192334" d="M261.85,244.1c.019,4.794,7.341,5.672,9.048.338C268.332,245.74,264.165,245.219,261.85,244.1Z" transform="translate(-258.173 -220.764)" fill="#20154f"/>
                <path id="Trazado_192335" data-name="Trazado 192335" d="M266.654,239.986a.613.613,0,0,1,.376-1.167c1.862.6,3.232.637,3.666.106.357-.434.174-1.457-.492-2.643a16.947,16.947,0,0,1-1.514-5.566.615.615,0,1,1,1.225-.106,15.638,15.638,0,0,0,1.36,5.074c.955,1.717,1.09,3.135.376,4.013-1.061,1.293-3.4.791-4.987.28Z" transform="translate(-258.328 -220.267)" fill="#20154f"/>
                <path id="Trazado_192336" data-name="Trazado 192336" d="M258.175,223.649a.611.611,0,0,1,.087-.859,4.737,4.737,0,0,1,5.2-.521.615.615,0,0,1-.569,1.09,3.519,3.519,0,0,0-3.859.376.6.6,0,0,1-.859-.087Z" transform="translate(-258.038 -219.973)" fill="#20154f"/>
              </g>
            </g>
            <path id="Trazado_192337" data-name="Trazado 192337" d="M313.029,277.045c-.608,1.032-1.254,2.045-1.91,3.039a59.887,59.887,0,0,1-14.093,14.749c-1.707-8.749-1.553-19.023,4.273-28.013C301.3,266.82,306.807,269.492,313.029,277.045Z" transform="translate(-213.314 -197.437)" fill="#5cb8fc"/>
          </g>
          <path id="Trazado_192338" data-name="Trazado 192338" d="M232.016,300.354a59.636,59.636,0,0,1-21.646-18.28,42.054,42.054,0,0,1,8.093-12.145c.116-.106.222-.2.309-.289a3.119,3.119,0,0,0,.251-.241l.338-.309C229.952,277.232,232.2,290.158,232.016,300.354Z" transform="translate(-210.283 -197.518)" fill="#5cb8fc"/>
        </g>
        <path id="Trazado_192339" data-name="Trazado 192339" d="M381.231,149.83h92.9a6.8,6.8,0,0,1,6.791,6.791v42.328a6.8,6.8,0,0,1-6.791,6.791h-6.974v7.1a1.851,1.851,0,0,1-3.154,1.312l-8.4-8.4H381.241a6.8,6.8,0,0,1-6.791-6.791V156.631a6.8,6.8,0,0,1,6.791-6.791Z" transform="translate(-54.75 -60.534)" fill="#0f2771"/>
        <path id="Trazado_192340" data-name="Trazado 192340" d="M376.655,106.89h-92.9a6.8,6.8,0,0,0-6.791,6.791v42.328a6.8,6.8,0,0,0,6.791,6.791h6.974v7.1a1.851,1.851,0,0,0,3.154,1.312l8.4-8.4h74.364a6.8,6.8,0,0,0,6.791-6.791V113.691a6.8,6.8,0,0,0-6.791-6.791Z" transform="translate(-51.303 -59.015)" fill="#4dd0e1"/>
        <g id="Grupo_141153" data-name="Grupo 141153" transform="translate(283.62 162.98)">
          <path id="Trazado_192341" data-name="Trazado 192341" d="M562.463,298.027a24.069,24.069,0,0,0-1.621-5.769c-3.125-7.283-9.463-9.357-14.508-13.659-6.01-5.084-10.5-14.035-12.135-24.029-3.106-19.08-31.833-37.939-55.274-22.91-1.235.791-5.421,5.219-6.772,6.164a19.213,19.213,0,0,0-6.714,8.2,37.6,37.6,0,0,0-2.923,19.389c.453,4.167,1.553,8.132,2.141,12.3.588,4.129.868,19.167-1.071,22.437-11.691,19.669-1.4,27.019,0,29.354.01.019-2.392,2.971-2.383,3,5.315,10.447,10.167-1.659,20.643-2.971l5.749-.723a36.252,36.252,0,0,0,1.312-16.293s14.4,2.749,31.167,12.984a22.3,22.3,0,0,1,2.045,1,36.071,36.071,0,0,0,5.1,2.315h21.743c9.376-4.351,15.714-17.209,13.5-30.8Z" transform="translate(-341.327 -226.215)" fill="#12263f"/>
          <path id="Trazado_192342" data-name="Trazado 192342" d="M345.307,371.157c4.727,7.92,23.556,6.376,23.556,6.376s42.463,53.335,60.1,48.492c12.125-3.328,32.933-49.081,32.933-49.081l-23.923-3.81c-1.572,1.5-13.524,25.032-13.524,25.032l-50.856-37.11s-8.826-21.232-11.817-16.968c-2.913,4.071,1.486,10.717,1.842,11.277-1.119-.695-25.939-15.945-26.547-10.611-.656,5.431,13.63,11.778,13.63,11.778s-10.109,6.743-5.392,14.634Z" transform="translate(-337.047 -230.364)" fill="#f2c3b3"/>
          <path id="Trazado_192343" data-name="Trazado 192343" d="M463.448,382.853l-2.537,28.457-3.048,27.4-3.019,46.958c2.566.878,5.132,1.659,7.7,2.392h82.129c2.72-.733,5.441-1.514,8.161-2.392l-8.238-99.657c4.312,6.675,33.2,3.116,30.2-6.714-5.392-17.7-10.91-34.785-26.556-49.949-9.26-8.981-23.653-9.675-37.245-10.91-21.463-1.929-30.724,2.971-43.457,8.691-24.984,11.228-30.048,48.84-30.048,48.84,10.08,11.344,25.968,6.907,25.968,6.907Z" transform="translate(-340.599 -229.462)" fill="#feca2e"/>
          <g id="Grupo_141152" data-name="Grupo 141152" transform="translate(82.691 143.632)">
            <g id="Grupo_141151" data-name="Grupo 141151">
              <path id="Trazado_192344" data-name="Trazado 192344" d="M486.634,412.1c-2.161,1.833,1.264,7.949,1.264,7.949l9.695-.048c-6.7-2.392-7-11.248-10.949-7.9Z" transform="translate(-425.003 -376.395)" fill="#f2c3b3"/>
              <path id="Trazado_192345" data-name="Trazado 192345" d="M426.744,375.12,472.97,377.8a3.761,3.761,0,0,1,3.434,2.865l16.486,68.422a3.757,3.757,0,0,1-3.868,4.63L442.8,451.037a3.761,3.761,0,0,1-3.434-2.865L422.876,379.75a3.757,3.757,0,0,1,3.868-4.63Z" transform="translate(-422.77 -375.113)" fill="#12263f"/>
            </g>
            <path id="Trazado_192346" data-name="Trazado 192346" d="M574.787,386.44c-8.942,6.154-17.884,5.47-24.4,4.659,1.92,8.875,2.7,15.83,3.3,18.048,0,0-12.039,0-29.856,6.569,0,0-20.035,5.788-26.74,3.4l-9.695.048s-12.193-.463-14.219,3c-2.151,3.685-.984,10.833,3.627,13.592,3.116,1.862,8.421.357,12.27-.444,9.56-2,8.585-5.479,18.116-4.187s58.881-4.167,60.058-4.842,9.077-1.022,10.408-9.888C578.395,411.5,577.15,400.022,574.787,386.44Z" transform="translate(-424.516 -375.514)" fill="#f2c3b3"/>
          </g>
          <path id="Trazado_192347" data-name="Trazado 192347" d="M486.331,302.127c.473,2.527,26.769,6.733,26.769,6.733-3.367-5.633-3.473-12.27-2.826-17.267a38.238,38.238,0,0,1,1.746-7.582s9.637-11.286,3.019-15.781c-4.534-3.077-7.611.193-9.936,6.424,0,0-7.09-32.46-28.389-27.8a7.155,7.155,0,0,0-5.325,5.633c-1.688,8.267-4.736,26.749-.974,37.582,4.958,14.267,15.907,12.058,15.907,12.058Z" transform="translate(-341.7 -226.929)" fill="#f2c3b3"/>
        </g>
        <path id="Trazado_192348" data-name="Trazado 192348" d="M510.809,293.25s-.434.627-.453.627c-9.212,11.759-23.489,9.907-23.489,9.907,2,10.7-3.367,16.476-3.367,16.476l16.669,20.19,22.843-21.781c-11.826-5.412-13-18.367-12.212-25.418Z" transform="translate(-58.607 -65.606)" fill="#f4a998"/>
        <g id="Grupo_141154" data-name="Grupo 141154" transform="translate(415.974 203.619)">
          <path id="Trazado_192349" data-name="Trazado 192349" d="M476.527,268.359c.955.164,1.514,1.572,1.254,3.164s-1.254,2.749-2.209,2.585-1.515-1.572-1.254-3.164S475.572,268.2,476.527,268.359Z" transform="translate(-474.254 -268.344)" fill="#20154f"/>
          <ellipse id="Elipse_4932" data-name="Elipse 4932" cx="2.913" cy="1.756" rx="2.913" ry="1.756" transform="translate(16.499 8.539) rotate(-80.53)" fill="#20154f"/>
        </g>
        <path id="Trazado_192350" data-name="Trazado 192350" d="M479.466,263.97a4.179,4.179,0,0,0-4.457-.955,1.02,1.02,0,1,1-.743-1.9,6.2,6.2,0,0,1,6.666,1.428,1.023,1.023,0,1,1-1.457,1.437Z" transform="translate(-58.257 -64.454)" fill="#20154f"/>
        <path id="Trazado_192351" data-name="Trazado 192351" d="M497.436,266.84a4.179,4.179,0,0,0-4.457-.955,1.02,1.02,0,1,1-.743-1.9,6.2,6.2,0,0,1,6.666,1.428,1.02,1.02,0,0,1-1.457,1.428Z" transform="translate(-58.893 -64.556)" fill="#20154f"/>
        <path id="Trazado_192352" data-name="Trazado 192352" d="M490.058,293.669c-.974,5.913-10.177,5.527-11.228-1.389C481.734,294.4,486.972,294.6,490.058,293.669Z" transform="translate(-58.442 -65.571)" fill="#20154f"/>
        <path id="Trazado_192353" data-name="Trazado 192353" d="M478.717,286.447c-.762-1.322-.309-3.154,1.283-5.161a19.248,19.248,0,0,0,2.643-5.894,1.021,1.021,0,1,1,1.978.511,20.95,20.95,0,0,1-3.019,6.646c-1.187,1.5-1.341,2.479-1.119,2.875.289.492,1.563.878,4.283.473a1.025,1.025,0,0,1,.309,2.026c-2.19.338-5.238.453-6.357-1.466Z" transform="translate(-58.425 -64.947)" fill="#20154f"/>
        <rect id="Rectángulo_44101" data-name="Rectángulo 44101" width="522.765" height="14.682" rx="7.341" transform="translate(0 417.35)" fill="#fff"/>
        <rect id="Rectángulo_44102" data-name="Rectángulo 44102" width="58.978" height="5.711" transform="translate(210.985 268.603)" fill="#d1dcf8"/>
        <rect id="Rectángulo_44103" data-name="Rectángulo 44103" width="54.232" height="5.711" transform="translate(148.824 268.603)" fill="#d1dcf8"/>
        <rect id="Rectángulo_44104" data-name="Rectángulo 44104" width="30.772" height="5.711" transform="translate(148.824 281.963)" fill="#d1dcf8"/>
        <rect id="Rectángulo_44105" data-name="Rectángulo 44105" width="37.573" height="5.711" transform="translate(189.57 281.963)" fill="#d1dcf8"/>
        <rect id="Rectángulo_44106" data-name="Rectángulo 44106" width="32.855" height="5.711" transform="translate(237.107 281.963)" fill="#d1dcf8"/>
        <rect id="Rectángulo_44107" data-name="Rectángulo 44107" width="49.688" height="5.711" transform="translate(148.824 295.323)" fill="#d1dcf8"/>
        <rect id="Rectángulo_44108" data-name="Rectángulo 44108" width="60.714" height="5.711" transform="translate(209.249 295.323)" fill="#d1dcf8"/>
        <rect id="Rectángulo_44109" data-name="Rectángulo 44109" width="21.955" height="21.955" rx="4.23" transform="translate(248.924 323.896)" fill="#7cd194"/>
        <rect id="Rectángulo_44110" data-name="Rectángulo 44110" width="21.955" height="21.955" rx="4.23" transform="translate(198.879 323.896)" fill="#fe4c40"/>
        <rect id="Rectángulo_44111" data-name="Rectángulo 44111" width="21.955" height="21.955" rx="4.23" transform="translate(148.824 323.896)" fill="#ee984f"/>
      </g>
    </g>
  </g>
</svg>
