<svg xmlns="http://www.w3.org/2000/svg" width="69.862" height="50.267" viewBox="0 0 69.862 50.267">
  <g id="Grupo_146538" data-name="Grupo 146538" transform="translate(-767.818 -9088)">
    <g id="_11" data-name="11" transform="translate(767.818 9088)" opacity="0.5">
      <path id="Trazado_200390" data-name="Trazado 200390" d="M98.589,151.019h-62.6a3.634,3.634,0,0,1,0-7.269h62.6a3.634,3.634,0,0,1,0,7.269Zm-62.6-5.044a1.409,1.409,0,1,0,0,2.817h62.6a1.409,1.409,0,0,0,0-2.817h-62.6Z" transform="translate(-32.36 -120.701)" fill="#4dd0e1"/>
      <path id="Trazado_200391" data-name="Trazado 200391" d="M106.991,168.968H46.584a1.114,1.114,0,0,1-1.114-1.114v-4.711a1.114,1.114,0,0,1,1.114-1.114h60.408a1.114,1.114,0,0,1,1.114,1.114v4.711A1.114,1.114,0,0,1,106.991,168.968ZM47.7,166.744H105.88V164.26H47.7Z" transform="translate(-41.856 -133.942)" fill="#4dd0e1"/>
      <path id="Trazado_200392" data-name="Trazado 200392" d="M114.94,196.588H64.3a1.114,1.114,0,0,1-1.114-1.114v-15.24A1.114,1.114,0,0,1,64.3,179.12H114.94a1.114,1.114,0,0,1,1.114,1.114v15.24A1.114,1.114,0,0,1,114.94,196.588Zm-49.522-2.224h48.411V181.347H65.417Z" transform="translate(-54.692 -146.321)" fill="#4dd0e1"/>
      <path id="Trazado_200393" data-name="Trazado 200393" d="M139.614,135.442a1.114,1.114,0,0,1-1.114-1.114v-4.005a1.114,1.114,0,1,1,2.227,0v4.005A1.114,1.114,0,0,1,139.614,135.442Z" transform="translate(-109.243 -110.168)" fill="#4dd0e1"/>
      <path id="Trazado_200394" data-name="Trazado 200394" d="M172.7,135.442a1.114,1.114,0,0,1-1.114-1.114v-4.005a1.114,1.114,0,1,1,2.227,0v4.005A1.114,1.114,0,0,1,172.7,135.442Z" transform="translate(-133.212 -110.168)" fill="#4dd0e1"/>
      <path id="Trazado_200395" data-name="Trazado 200395" d="M145.143,71.216a5.549,5.549,0,1,1,5.3-5.543A5.433,5.433,0,0,1,145.143,71.216Zm0-8.862a3.328,3.328,0,1,0,3.076,3.319A3.209,3.209,0,0,0,145.143,62.354Z" transform="translate(-110.214 -60.13)" fill="#4dd0e1"/>
      <path id="Trazado_200396" data-name="Trazado 200396" d="M141.851,116.544H124.274a1.114,1.114,0,0,1-1.114-1.114v-7.211a5.106,5.106,0,0,1,5.1-5.1h9.6a5.106,5.106,0,0,1,5.1,5.1v7.211a1.114,1.114,0,0,1-1.114,1.114Zm-16.464-2.224h15.353v-6.1a2.879,2.879,0,0,0-2.875-2.875h-9.6a2.879,2.879,0,0,0-2.875,2.875v6.1Z" transform="translate(-98.131 -91.27)" fill="#4dd0e1"/>
      <path id="Trazado_200397" data-name="Trazado 200397" d="M139.614,135.442a1.114,1.114,0,0,1-1.114-1.114v-4.005a1.114,1.114,0,1,1,2.227,0v4.005A1.114,1.114,0,0,1,139.614,135.442Z" transform="translate(-109.243 -110.168)" fill="#4dd0e1"/>
      <path id="Trazado_200398" data-name="Trazado 200398" d="M172.7,135.442a1.114,1.114,0,0,1-1.114-1.114v-4.005a1.114,1.114,0,1,1,2.227,0v4.005A1.114,1.114,0,0,1,172.7,135.442Z" transform="translate(-133.212 -110.168)" fill="#4dd0e1"/>
      <path id="Trazado_200399" data-name="Trazado 200399" d="M145.143,71.216a5.549,5.549,0,1,1,5.3-5.543A5.433,5.433,0,0,1,145.143,71.216Zm0-8.862a3.328,3.328,0,1,0,3.076,3.319A3.209,3.209,0,0,0,145.143,62.354Z" transform="translate(-110.214 -60.13)" fill="#4dd0e1"/>
      <path id="Trazado_200400" data-name="Trazado 200400" d="M141.851,116.544H124.274a1.114,1.114,0,0,1-1.114-1.114v-7.211a5.106,5.106,0,0,1,5.1-5.1h9.6a5.106,5.106,0,0,1,5.1,5.1v7.211a1.114,1.114,0,0,1-1.114,1.114Zm-16.464-2.224h15.353v-6.1a2.879,2.879,0,0,0-2.875-2.875h-9.6a2.879,2.879,0,0,0-2.875,2.875v6.1Z" transform="translate(-98.131 -91.27)" fill="#4dd0e1"/>
      <path id="Trazado_200401" data-name="Trazado 200401" d="M220.194,137.282a1.114,1.114,0,0,1-1.114-1.114v-3.3a1.114,1.114,0,0,1,2.227,0v3.3A1.114,1.114,0,0,1,220.194,137.282Z" transform="translate(-167.611 -112.008)" fill="#4dd0e1"/>
      <path id="Trazado_200402" data-name="Trazado 200402" d="M247.5,137.282a1.114,1.114,0,0,1-1.114-1.114v-3.3a1.114,1.114,0,0,1,2.227,0v3.3A1.114,1.114,0,0,1,247.5,137.282Z" transform="translate(-187.394 -112.008)" fill="#4dd0e1"/>
      <path id="Trazado_200403" data-name="Trazado 200403" d="M224.76,84.277a4.773,4.773,0,1,1,4.57-4.769A4.678,4.678,0,0,1,224.76,84.277Zm0-7.316a2.553,2.553,0,1,0,2.346,2.544A2.454,2.454,0,0,0,224.76,76.962Z" transform="translate(-168.415 -70.713)" fill="#4dd0e1"/>
      <path id="Trazado_200404" data-name="Trazado 200404" d="M222.041,121.687H207.534a1.114,1.114,0,0,1-1.114-1.114v-5.951a4.407,4.407,0,0,1,4.4-4.4h7.928a4.407,4.407,0,0,1,4.4,4.4v5.951a1.114,1.114,0,0,1-1.114,1.114Zm-13.394-2.224h12.28v-4.84a2.179,2.179,0,0,0-2.178-2.178h-7.928a2.179,2.179,0,0,0-2.178,2.178v4.84Z" transform="translate(-158.441 -96.413)" fill="#4dd0e1"/>
      <path id="Trazado_200405" data-name="Trazado 200405" d="M92.124,137.282a1.114,1.114,0,0,1-1.114-1.114v-3.3a1.114,1.114,0,0,1,2.227,0v3.3A1.114,1.114,0,0,1,92.124,137.282Z" transform="translate(-74.843 -112.008)" fill="#4dd0e1"/>
      <path id="Trazado_200406" data-name="Trazado 200406" d="M64.814,137.282a1.114,1.114,0,0,1-1.114-1.114v-3.3a1.114,1.114,0,0,1,2.227,0v3.3A1.114,1.114,0,0,1,64.814,137.282Z" transform="translate(-55.061 -112.008)" fill="#4dd0e1"/>
      <path id="Trazado_200407" data-name="Trazado 200407" d="M69.38,84.277a4.773,4.773,0,1,1,4.57-4.769A4.678,4.678,0,0,1,69.38,84.277Zm0-7.316a2.553,2.553,0,1,0,2.346,2.544A2.454,2.454,0,0,0,69.38,76.962Z" transform="translate(-55.865 -70.713)" fill="#4dd0e1"/>
      <path id="Trazado_200408" data-name="Trazado 200408" d="M66.658,121.687h-14.5a1.114,1.114,0,0,1-1.114-1.114v-5.951a4.407,4.407,0,0,1,4.4-4.4H63.37a4.407,4.407,0,0,1,4.4,4.4v5.951A1.114,1.114,0,0,1,66.658,121.687Zm-13.394-2.224h12.28v-4.84a2.179,2.179,0,0,0-2.178-2.178H55.439a2.179,2.179,0,0,0-2.178,2.178v4.84Z" transform="translate(-45.891 -96.413)" fill="#4dd0e1"/>
      <path id="Trazado_200409" data-name="Trazado 200409" d="M148.019,203.073a2.03,2.03,0,0,1-1.188-.386l-.582-.424-.582.422a2.021,2.021,0,0,1-3.109-2.26l.223-.684-.582-.424a2.021,2.021,0,0,1,1.188-3.655h.719l.223-.684a2.019,2.019,0,0,1,3.842,0l.223.684h.719a2.023,2.023,0,0,1,1.188,3.658l-.582.422.223.684a2.025,2.025,0,0,1-1.921,2.649Zm-4.005-5.185.2.141a2.009,2.009,0,0,1,.733,2.258l-.074.229.193-.141a2.019,2.019,0,0,1,2.376,0l.193.141-.074-.226a2.016,2.016,0,0,1,.736-2.26l.193-.141h-.24a2.014,2.014,0,0,1-1.921-1.4l-.074-.226-.074.229a2.014,2.014,0,0,1-1.921,1.395Z" transform="translate(-111.319 -156.795)" fill="#4dd0e1"/>
      <path id="Trazado_200410" data-name="Trazado 200410" d="M202.658,203.073a2.03,2.03,0,0,1-1.188-.386l-.582-.424-.582.422a2.021,2.021,0,0,1-3.109-2.26l.223-.684-.582-.424a2.021,2.021,0,0,1,1.188-3.655h.719l.221-.684a2.019,2.019,0,0,1,3.842,0l.221.684h.719a2.021,2.021,0,0,1,1.185,3.658l-.582.422.223.684a2.024,2.024,0,0,1-1.921,2.646Zm-1.77-3.084a2.014,2.014,0,0,1,1.188.389l.193.141-.074-.229a2.015,2.015,0,0,1,.733-2.258l.193-.141h-.24a2.014,2.014,0,0,1-1.921-1.4l-.074-.226-.074.229a2.016,2.016,0,0,1-1.921,1.395h-.24l.2.141a2.01,2.01,0,0,1,.733,2.258l-.074.229.193-.141a2.014,2.014,0,0,1,1.188-.389Z" transform="translate(-150.897 -156.795)" fill="#4dd0e1"/>
      <path id="Trazado_200411" data-name="Trazado 200411" d="M93.391,203.073a2.03,2.03,0,0,1-1.188-.386l-.582-.424-.582.422a2.021,2.021,0,0,1-3.109-2.26l.223-.684-.582-.424a2.021,2.021,0,0,1,1.188-3.655h.719l.223-.684a2.019,2.019,0,0,1,3.842,0l.223.684h.719a2.023,2.023,0,0,1,1.188,3.658l-.582.422.223.684A2.024,2.024,0,0,1,93.4,203.07Zm-1.77-3.084a2.03,2.03,0,0,1,1.188.386l.193.141-.074-.229a2.013,2.013,0,0,1,.733-2.258l.193-.141h-.24a2.014,2.014,0,0,1-1.921-1.4l-.074-.226-.074.229a2.014,2.014,0,0,1-1.921,1.395h-.24l.2.141a2.009,2.009,0,0,1,.733,2.258l-.074.226.193-.141a2.014,2.014,0,0,1,1.188-.389Z" transform="translate(-71.75 -156.795)" fill="#4dd0e1"/>
    </g>
  </g>
</svg>
