<svg xmlns="http://www.w3.org/2000/svg" xmlns:xlink="http://www.w3.org/1999/xlink" width="190" height="115" viewBox="0 0 190 115">
  <defs>
    <clipPath id="clip-path">
      <rect id="Rectángulo_44616" data-name="Rectángulo 44616" width="99.442" height="103.674" fill="#0f2771"/>
    </clipPath>
  </defs>
  <g id="Grupo_146544" data-name="Grupo 146544" transform="translate(-180 -1546)">
    <g id="Grupo_146437" data-name="Grupo 146437" transform="translate(0 -93)">
      <g id="Grupo_142978" data-name="Grupo 142978" transform="translate(0 -694)">
        <rect id="Rectángulo_43992" data-name="Rectángulo 43992" width="190" height="115" transform="translate(180 2333)" fill="none"/>
        <rect id="Rectángulo_41430" data-name="Rectángulo 41430" width="85" height="28" rx="14" transform="translate(285 2341)" fill="#feca2e" opacity="0.2"/>
        <rect id="Rectángulo_41431" data-name="Rectángulo 41431" width="85" height="28" rx="14" transform="translate(180 2402)" fill="#4dd0e1" opacity="0.2"/>
      </g>
      <g id="Grupo_142980" data-name="Grupo 142980" transform="translate(223 1648.326)">
        <g id="Grupo_142979" data-name="Grupo 142979" clip-path="url(#clip-path)">
          <path id="Trazado_201094" data-name="Trazado 201094" d="M14.229,143.538a1.845,1.845,0,0,1-1.845-1.845v-5.745a1.845,1.845,0,0,1,3.691,0v5.745a1.845,1.845,0,0,1-1.845,1.845" transform="translate(-4.025 -43.586)" fill="#0f2771"/>
          <path id="Trazado_201095" data-name="Trazado 201095" d="M27.489,143.917a1.845,1.845,0,0,1-1.845-1.845V131.72a1.845,1.845,0,1,1,3.691,0v10.351a1.845,1.845,0,0,1-1.845,1.845" transform="translate(-8.335 -42.212)" fill="#0f2771"/>
          <path id="Trazado_201096" data-name="Trazado 201096" d="M49.721,20.793C47.69,20.793,0,20.675,0,10.4S47.69,0,49.721,0,99.441.118,99.441,10.4s-47.691,10.4-49.721,10.4m0-17.1c-29.013,0-45.155,4.343-46.039,6.773.884,2.3,17.024,6.638,46.039,6.638,28.745,0,44.855-4.262,46.011-6.705C94.574,7.953,78.464,3.691,49.721,3.691" transform="translate(0)" fill="#0f2771"/>
          <path id="Trazado_201097" data-name="Trazado 201097" d="M49.722,42C47.691,42,0,41.878,0,31.6V14.5a1.845,1.845,0,1,1,3.691,0C4.566,16.86,20.706,21.2,49.722,21.2c28.925,0,45.057-4.316,46.03-6.751a2.1,2.1,0,0,1,.022-.236,1.814,1.814,0,0,1,1.828-1.6A1.871,1.871,0,0,1,99.442,14.5V31.6c0,10.279-47.691,10.4-49.721,10.4M3.691,18.916V31.6C4.566,33.962,20.706,38.3,49.722,38.3s45.155-4.343,46.039-6.773l-.006-12.617c-11.231,5.9-44.349,5.98-46.033,5.98s-34.8-.081-46.031-5.978" transform="translate(0 -4.101)" fill="#0f2771"/>
          <path id="Trazado_201098" data-name="Trazado 201098" d="M49.722,139.45c-2.03,0-49.722-.118-49.722-10.4v-17.1a1.845,1.845,0,1,1,3.691,0c.875,2.363,17.017,6.706,46.031,6.706,28.923,0,45.055-4.316,46.03-6.751a2.09,2.09,0,0,1,.022-.236,1.815,1.815,0,0,1,1.828-1.6,1.871,1.871,0,0,1,1.841,1.879v17.1c0,10.279-47.691,10.4-49.721,10.4M3.691,116.37v12.683c.875,2.363,17.017,6.706,46.031,6.706s45.155-4.343,46.039-6.773l-.006-12.617c-11.231,5.9-44.349,5.98-46.033,5.98s-34.8-.081-46.031-5.978" transform="translate(0 -35.776)" fill="#0f2771"/>
          <path id="Trazado_201099" data-name="Trazado 201099" d="M22.789,38.691a1.866,1.866,0,0,1-.281-.021c-3.14-.479-5.938-1.03-8.315-1.636a1.846,1.846,0,0,1,.911-3.577c2.261.577,4.939,1.1,7.96,1.565a1.846,1.846,0,0,1-.275,3.67" transform="translate(-4.161 -10.855)" fill="#0f2771"/>
          <path id="Trazado_201100" data-name="Trazado 201100" d="M50.241,41.787q-4.769-.223-9.064-.6a1.846,1.846,0,0,1-1.675-2,1.817,1.817,0,0,1,2-1.675c2.814.249,5.783.448,8.825.593a1.845,1.845,0,0,1-.086,3.689" transform="translate(-12.837 -12.188)" fill="#0f2771"/>
          <path id="Trazado_201101" data-name="Trazado 201101" d="M100.816,44.451a1.845,1.845,0,0,1-1.845-1.845V25.5a1.845,1.845,0,0,1,1.7-1.84c4.331-.333,8.359-.782,11.972-1.332a1.847,1.847,0,0,1,2.123,1.825v17.1a1.844,1.844,0,0,1-1.567,1.824c-3.7.564-7.824,1.022-12.246,1.362-.047,0-.094.006-.141.006m1.845-17.246V40.6c2.977-.259,5.8-.574,8.418-.94V26.286c-2.634.358-5.452.666-8.418.919" transform="translate(-32.168 -7.252)" fill="#0f2771"/>
          <path id="Trazado_201102" data-name="Trazado 201102" d="M52.492,62.357c-1.8,0-43.969-.107-43.969-9.369V45.876a1.846,1.846,0,0,1,2.424-1.753c8.216,2.709,24.134,4.391,41.545,4.391s33.328-1.682,41.545-4.391a1.846,1.846,0,0,1,2.424,1.753v7.112c0,9.263-42.174,9.369-43.969,9.369M12.214,52.889c1.221,2.1,15.536,5.777,40.278,5.777s39.057-3.677,40.278-5.777V48.344c-9.015,2.4-24.059,3.861-40.278,3.861s-31.263-1.461-40.278-3.861Z" transform="translate(-2.77 -14.311)" fill="#0f2771"/>
          <path id="Trazado_201103" data-name="Trazado 201103" d="M49.722,90.745C47.691,90.745,0,90.627,0,80.348v-17.1a1.845,1.845,0,0,1,3.691,0c.875,2.363,17.016,6.706,46.031,6.706,28.925,0,45.057-4.316,46.03-6.751a2.1,2.1,0,0,1,.022-.236,1.814,1.814,0,0,1,1.828-1.6,1.87,1.87,0,0,1,1.841,1.878v17.1c0,10.279-47.691,10.4-49.721,10.4M3.691,67.665V80.348c.875,2.363,17.016,6.706,46.031,6.706s45.155-4.343,46.039-6.773l-.006-12.617c-11.231,5.9-44.349,5.98-46.033,5.98s-34.8-.08-46.031-5.978" transform="translate(0 -19.946)" fill="#0f2771"/>
          <path id="Trazado_201104" data-name="Trazado 201104" d="M22.789,87.441a1.866,1.866,0,0,1-.281-.021c-3.14-.479-5.938-1.03-8.315-1.636a1.846,1.846,0,0,1,.911-3.577c2.261.577,4.939,1.1,7.96,1.565a1.846,1.846,0,0,1-.275,3.67" transform="translate(-4.161 -26.7)" fill="#0f2771"/>
          <path id="Trazado_201105" data-name="Trazado 201105" d="M50.241,90.536q-4.769-.223-9.064-.6a1.845,1.845,0,0,1-1.675-2,1.817,1.817,0,0,1,2-1.675c2.814.249,5.783.448,8.825.593a1.845,1.845,0,0,1-.086,3.689" transform="translate(-12.837 -28.032)" fill="#0f2771"/>
          <path id="Trazado_201106" data-name="Trazado 201106" d="M100.816,93.2a1.845,1.845,0,0,1-1.845-1.845v-17.1a1.845,1.845,0,0,1,1.7-1.84c4.331-.333,8.359-.782,11.971-1.331a1.846,1.846,0,0,1,2.123,1.824v17.1a1.846,1.846,0,0,1-1.567,1.824c-3.7.564-7.822,1.021-12.245,1.361-.047,0-.094.006-.141.006m1.845-17.246v13.4c2.977-.26,5.8-.574,8.417-.94V75.037c-2.633.358-5.451.665-8.417.919" transform="translate(-32.168 -23.097)" fill="#0f2771"/>
          <path id="Trazado_201107" data-name="Trazado 201107" d="M100.816,141.905a1.845,1.845,0,0,1-1.845-1.846v-17.1a1.845,1.845,0,0,1,1.7-1.84c4.333-.333,8.362-.782,11.972-1.332a1.846,1.846,0,0,1,2.123,1.824v17.1a1.847,1.847,0,0,1-1.567,1.825c-3.7.564-7.822,1.022-12.246,1.362-.047,0-.094.006-.141.006m1.845-17.246v13.4c2.979-.259,5.8-.574,8.418-.94V123.741c-2.632.358-5.451.666-8.418.919" transform="translate(-32.168 -38.927)" fill="#0f2771"/>
          <path id="Trazado_201108" data-name="Trazado 201108" d="M52.492,111.107c-1.8,0-43.969-.107-43.969-9.369V94.626a1.846,1.846,0,0,1,2.424-1.753c8.216,2.709,24.134,4.391,41.545,4.391s33.328-1.682,41.545-4.391a1.846,1.846,0,0,1,2.424,1.753v7.112c0,9.263-42.174,9.369-43.969,9.369m-40.278-9.468c1.221,2.1,15.536,5.777,40.278,5.777s39.057-3.677,40.278-5.777V97.1c-9.015,2.4-24.059,3.86-40.278,3.86S21.229,99.495,12.214,97.1Z" transform="translate(-2.77 -30.156)" fill="#0f2771"/>
          <path id="Trazado_201109" data-name="Trazado 201109" d="M49.722,71.683C47.691,71.683,0,71.564,0,61.287c0-3.164,4.075-4.858,7.139-5.857a1.839,1.839,0,0,1,2.295,1.094c1.021,2.083,15.36,5.818,40.288,5.818s39.267-3.735,40.291-5.826A1.835,1.835,0,0,1,92.3,55.429c3.064,1,7.138,2.693,7.138,5.857,0,10.278-47.691,10.4-49.721,10.4M7.078,59.361c-3,1.134-3.392,1.985-3.4,1.995.884,2.294,17.024,6.636,46.039,6.636,28.976,0,45.112-4.331,46.036-6.764a8.636,8.636,0,0,0-3.392-1.868c-5.666,5.222-28.821,6.671-42.644,6.671S12.744,64.582,7.078,59.361" transform="translate(0 -17.985)" fill="#0f2771"/>
          <path id="Trazado_201110" data-name="Trazado 201110" d="M49.722,120.389c-2.03,0-49.722-.119-49.722-10.4,0-3.162,4.067-4.855,7.126-5.853a1.843,1.843,0,0,1,2.307,1.125c1.019,2.079,15.36,5.814,40.288,5.814s39.268-3.735,40.292-5.826a1.833,1.833,0,0,1,2.3-1.112c3.06,1,7.126,2.691,7.126,5.853,0,10.278-47.691,10.4-49.721,10.4M7.056,108.074c-2.981,1.131-3.371,1.978-3.374,1.988.884,2.294,17.025,6.636,46.039,6.636,28.974,0,45.112-4.331,46.036-6.763a8.568,8.568,0,0,0-3.371-1.86c-5.635,5.238-28.806,6.694-42.665,6.694s-37.031-1.456-42.665-6.694" transform="translate(0 -33.817)" fill="#0f2771"/>
        </g>
      </g>
    </g>
  </g>
</svg>
