<svg xmlns="http://www.w3.org/2000/svg" xmlns:xlink="http://www.w3.org/1999/xlink" width="505" height="275" viewBox="0 0 505 275">
  <defs>
    <clipPath id="clip-path">
      <rect id="Rectángulo_46023" data-name="Rectángulo 46023" width="505" height="275" transform="translate(285 2886)" fill="#fff" stroke="#707070" stroke-width="1"/>
    </clipPath>
  </defs>
  <g id="Grupo_146530" data-name="Grupo 146530" transform="translate(-180 -2654)">
    <g id="Enmascarar_grupo_145568" data-name="Enmascarar grupo 145568" transform="translate(-105 -232)" clip-path="url(#clip-path)">
      <g id="Performance_overview-pana" data-name="Performance overview-pana" transform="translate(281.289 2839.902)">
        <g id="freepik--background-complete--inject-73" transform="translate(35.833 252.971)">
          <rect id="Rectángulo_45997" data-name="Rectángulo 45997" width="18.442" height="113.064" transform="translate(154.05 117.568)" fill="#ebebeb"/>
          <rect id="Rectángulo_45998" data-name="Rectángulo 45998" width="18.442" height="113.074" transform="translate(387.6 117.836)" fill="#ebebeb"/>
          <rect id="Rectángulo_45999" data-name="Rectángulo 45999" width="18.442" height="44.388" transform="translate(426.999 186.512)" fill="#ebebeb"/>
          <rect id="Rectángulo_46000" data-name="Rectángulo 46000" width="18.442" height="105.92" transform="translate(0 124.712)" fill="#ebebeb"/>
          <rect id="Rectángulo_46001" data-name="Rectángulo 46001" width="18.442" height="186.955" transform="translate(38.513 43.677)" fill="#ebebeb"/>
          <rect id="Rectángulo_46002" data-name="Rectángulo 46002" width="18.442" height="66.119" transform="translate(77.025 164.524)" fill="#ebebeb"/>
          <rect id="Rectángulo_46003" data-name="Rectángulo 46003" width="18.442" height="195.573" transform="translate(115.538 35.07)" fill="#ebebeb"/>
          <rect id="Rectángulo_46004" data-name="Rectángulo 46004" width="18.442" height="178.657" transform="translate(192.552 51.975)" fill="#ebebeb"/>
          <rect id="Rectángulo_46005" data-name="Rectángulo 46005" width="18.442" height="132.237" transform="translate(231.065 98.405)" fill="#ebebeb"/>
          <rect id="Rectángulo_46006" data-name="Rectángulo 46006" width="18.442" height="196.903" transform="translate(269.578 33.729)" fill="#ebebeb"/>
          <rect id="Rectángulo_46007" data-name="Rectángulo 46007" width="18.442" height="230.632" transform="translate(308.09)" fill="#ebebeb"/>
          <rect id="Rectángulo_46008" data-name="Rectángulo 46008" width="18.442" height="163.39" transform="translate(346.592 67.253)" fill="#ebebeb"/>
        </g>
        <g id="freepik--Floor--inject-73" transform="translate(23.71 483.562)">
          <path id="Trazado_208203" data-name="Trazado 208203" d="M479.944,470.738c0,.144-102.137.268-228.106.268s-228.127-.124-228.127-.268,102.116-.268,228.127-.268S479.944,470.583,479.944,470.738Z" transform="translate(-23.71 -470.47)" fill="#263238"/>
        </g>
        <g id="freepik--Plant--inject-73" transform="translate(352.572 278.763)">
          <path id="Trazado_208204" data-name="Trazado 208204" d="M392.594,413.243c-15.463-6.546-33.266-19.421-41.234-35.2a87.735,87.735,0,0,1,41.234,35.2" transform="translate(-342.464 -268.522)" fill="#263238"/>
          <path id="Trazado_208205" data-name="Trazado 208205" d="M389.414,389.474c-15.463-6.536-33.266-19.411-41.234-35.2a87.849,87.849,0,0,1,41.234,35.2" transform="translate(-342.562 -269.256)" fill="#263238"/>
          <path id="Trazado_208206" data-name="Trazado 208206" d="M385.084,366.363c-15.463-6.546-33.266-19.421-41.234-35.2,16.628,6.68,31.286,19.2,41.234,35.2" transform="translate(-342.695 -269.969)" fill="#263238"/>
          <path id="Trazado_208207" data-name="Trazado 208207" d="M379.531,342.325c-14.545-8.628-30.761-23.864-36.8-40.595a90.642,90.642,0,0,1,36.8,40.595" transform="translate(-342.73 -270.877)" fill="#263238"/>
          <path id="Trazado_208208" data-name="Trazado 208208" d="M373.239,324.167c-10.6-13.865-20.473-34.492-20.349-52.367a97.364,97.364,0,0,1,20.349,52.367" transform="translate(-342.417 -271.8)" fill="#263238"/>
          <path id="Trazado_208209" data-name="Trazado 208209" d="M375.5,333.087c2.144-18.741,9.432-42.265,21.813-56.367A114.486,114.486,0,0,1,375.5,333.087" transform="translate(-341.719 -271.648)" fill="#263238"/>
          <path id="Trazado_208210" data-name="Trazado 208210" d="M380.34,352.989c3.773-19.328,13.308-43.224,27.359-56.779a118.96,118.96,0,0,1-27.359,56.779" transform="translate(-341.57 -271.047)" fill="#263238"/>
          <path id="Trazado_208211" data-name="Trazado 208211" d="M385.89,377.239c3.773-19.318,13.308-43.224,27.369-56.779a118.837,118.837,0,0,1-27.369,56.779" transform="translate(-341.398 -270.299)" fill="#263238"/>
          <path id="Trazado_208212" data-name="Trazado 208212" d="M390.35,407.019c3.773-19.328,13.308-43.224,27.359-56.779a118.918,118.918,0,0,1-27.359,56.779" transform="translate(-341.261 -269.38)" fill="#263238"/>
          <path id="Trazado_208213" data-name="Trazado 208213" d="M371.93,319a2.287,2.287,0,0,1,.124.289c.072.2.175.505.289.856l1.031,3.35c.928,2.907,2.175,7.133,3.649,12.37s3.093,11.535,4.773,18.555,3.319,14.762,4.866,22.936,2.783,16.009,3.794,23.143,1.752,13.6,2.289,19.019.907,9.814,1.1,12.865q.134,2.227.216,3.495v.917a.888.888,0,0,1,0,.309,1.821,1.821,0,0,1-.052-.309c0-.237-.062-.536-.1-.907-.082-.845-.186-2.01-.33-3.495-.268-3.031-.7-7.422-1.289-12.834s-1.4-11.844-2.412-18.978-2.309-14.947-3.835-23.112-3.206-15.906-4.814-22.926-3.227-13.3-4.649-18.555-2.608-9.5-3.464-12.432c-.4-1.423-.722-2.557-.959-3.371-.093-.361-.175-.649-.237-.887A1.121,1.121,0,0,1,371.93,319Z" transform="translate(-341.83 -270.344)" fill="#263238"/>
          <path id="Trazado_208214" data-name="Trazado 208214" d="M398.913,423.525c-6.536-13.69-11.288-32.987-8.082-47.965a84.9,84.9,0,0,1,8.082,47.965" transform="translate(-341.278 -268.599)" fill="#455a64"/>
          <path id="Trazado_208215" data-name="Trazado 208215" d="M409.463,406.325c-6.536-13.69-11.288-32.936-8.082-47.965a84.9,84.9,0,0,1,8.082,47.965" transform="translate(-340.952 -269.13)" fill="#455a64"/>
          <path id="Trazado_208216" data-name="Trazado 208216" d="M418.923,388.835c-6.536-13.69-11.288-32.936-8.082-47.965a84.9,84.9,0,0,1,8.082,47.965" transform="translate(-340.66 -269.669)" fill="#455a64"/>
          <path id="Trazado_208217" data-name="Trazado 208217" d="M428.152,370c-4.866-14.483-7.309-34.245-2.34-48.7a85.643,85.643,0,0,1,2.34,48.7" transform="translate(-340.251 -270.273)" fill="#455a64"/>
          <path id="Trazado_208218" data-name="Trazado 208218" d="M434,354.48c.485-15.463,5.02-34.729,14.587-46.11A83.5,83.5,0,0,1,434,354.48" transform="translate(-339.914 -270.672)" fill="#455a64"/>
          <path id="Trazado_208219" data-name="Trazado 208219" d="M431.24,361.2c11.339-10.711,28.585-21.328,44.079-22.679A85.426,85.426,0,0,1,431.24,361.2" transform="translate(-339.999 -269.742)" fill="#455a64"/>
          <path id="Trazado_208220" data-name="Trazado 208220" d="M423.82,376.836c12.71-10.071,31.585-19.524,47.914-19.586a88.942,88.942,0,0,1-47.914,19.586" transform="translate(-340.228 -269.164)" fill="#455a64"/>
          <path id="Trazado_208221" data-name="Trazado 208221" d="M414.55,395.806c12.71-10.071,31.585-19.524,47.914-19.586a88.859,88.859,0,0,1-47.914,19.586" transform="translate(-340.514 -268.579)" fill="#455a64"/>
          <path id="Trazado_208222" data-name="Trazado 208222" d="M401.63,417.646c12.71-10.071,31.6-19.524,47.914-19.586a88.818,88.818,0,0,1-47.914,19.586" transform="translate(-340.913 -267.905)" fill="#455a64"/>
          <path id="Trazado_208223" data-name="Trazado 208223" d="M436.923,350.39a.708.708,0,0,1-.072.247l-.258.732c-.268.68-.619,1.6-1.031,2.773-.928,2.4-2.34,5.855-4.123,10.092-3.629,8.474-9,20.04-15.679,32.431-3.34,6.185-6.69,12-9.834,17.226s-6.1,9.855-8.659,13.69-4.67,6.917-6.185,9c-.732,1.031-1.309,1.825-1.742,2.412l-.464.619c-.1.134-.165.206-.175.2l.134-.237.412-.649,1.649-2.464c1.453-2.134,3.515-5.237,6.02-9.1s5.4-8.515,8.546-13.731,6.381-11.061,9.721-17.246c6.67-12.37,12.092-23.9,15.813-32.327,1.866-4.206,3.34-7.639,4.319-10.02.495-1.144.887-2.062,1.165-2.721.134-.289.237-.515.32-.711S436.913,350.38,436.923,350.39Z" transform="translate(-341.312 -269.376)" fill="#263238"/>
          <path id="Trazado_208224" data-name="Trazado 208224" d="M430.794,423.69H365.84v12.525h6.67l5.628,35.7H418.29l5.773-35.7h6.731Z" transform="translate(-342.017 -267.114)" fill="#138af8"/>
          <path id="Trazado_208225" data-name="Trazado 208225" d="M430.78,435.589c0-.165-14.432-.3-32.245-.3s-32.245.134-32.245.3,14.432.3,32.245.3S430.78,435.754,430.78,435.589Z" transform="translate(-342.003 -266.756)" fill="#263238"/>
        </g>
        <g id="freepik--Device--inject-73" transform="translate(115.899 46.098)">
          <rect id="Rectángulo_46009" data-name="Rectángulo 46009" width="326.707" height="227.653" rx="11.55" transform="translate(0.289 0.239)" fill="#e0e0e0"/>
          <path id="Trazado_208226" data-name="Trazado 208226" d="M440.136,58.243s0-.237-.052-.7a11.082,11.082,0,0,0-.32-2.062,12.051,12.051,0,0,0-6.927-8.133,12.247,12.247,0,0,0-3.093-.814,27.492,27.492,0,0,0-3.495-.113H404.159l-116.61.093H126.727a20.339,20.339,0,0,0-2.979.124,11.587,11.587,0,0,0-2.855.763,11.752,11.752,0,0,0-4.7,3.556,11.463,11.463,0,0,0-2.361,5.433,18.247,18.247,0,0,0-.155,3.02V262.063a13.03,13.03,0,0,0,.495,3.391,11.679,11.679,0,0,0,9.989,8.247c1.134.082,2.309.052,3.474.052h190.81l92.467.062h16.071a24.452,24.452,0,0,0,2.618-.072,12.433,12.433,0,0,0,2.5-.577,11.721,11.721,0,0,0,7.082-6.865,12.8,12.8,0,0,0,.773-4.948c0-1.691,0-3.381,0-5.061V217.654c0-49.233.072-89.076.093-116.61v-31.7c0,7.216,0,17.937.052,31.7,0,27.534.052,67.376.082,116.61v43.7a13.257,13.257,0,0,1-.8,5.092,12.071,12.071,0,0,1-7.34,7.123,11.743,11.743,0,0,1-2.6.6,25.58,25.58,0,0,1-2.66.093H127.675c-1.175,0-2.319,0-3.526-.052a13.4,13.4,0,0,1-3.453-.876A12.846,12.846,0,0,1,117.6,271.5a13.061,13.061,0,0,1-2.4-2.649,12.917,12.917,0,0,1-1.526-3.237,13.3,13.3,0,0,1-.526-3.546V59.532a18.556,18.556,0,0,1,.155-3.093,11.927,11.927,0,0,1,2.474-5.659,12.185,12.185,0,0,1,4.927-3.752,11.886,11.886,0,0,1,2.979-.794,20.121,20.121,0,0,1,3.041-.124H287.549l116.61.082h22.122a27.978,27.978,0,0,1,3.515.124,12.071,12.071,0,0,1,3.093.835,12.691,12.691,0,0,1,2.495,1.454,11.928,11.928,0,0,1,3.165,3.567,11.516,11.516,0,0,1,1.227,3.288,10.875,10.875,0,0,1,.3,2.062C440.126,58.006,440.136,58.243,440.136,58.243Z" transform="translate(-113.14 -46.098)" fill="#263238"/>
          <rect id="Rectángulo_46010" data-name="Rectángulo 46010" width="213.293" height="272.835" transform="translate(23.596 221.563) rotate(-90)" fill="#fff"/>
          <circle id="Elipse_5086" data-name="Elipse 5086" cx="8.731" cy="8.731" r="8.731" transform="translate(301.843 104.417)" fill="#263238"/>
          <rect id="Rectángulo_46011" data-name="Rectángulo 46011" width="68.562" height="3.608" rx="1.22" transform="translate(9.69 148.352) rotate(-90)" fill="#263238"/>
          <rect id="Rectángulo_46012" data-name="Rectángulo 46012" width="25.555" height="214.035" transform="translate(23.596 7.527)" fill="#138af8"/>
          <path id="Trazado_208227" data-name="Trazado 208227" d="M138.474,143.74H162.7v21.277H138.474A2.443,2.443,0,0,1,136,162.563v-16.38a2.443,2.443,0,0,1,2.474-2.443Z" transform="translate(-112.435 -43.086)" fill="#fff"/>
          <path id="Trazado_208228" data-name="Trazado 208228" d="M148.569,83.55h0a4.659,4.659,0,0,1-4.659-4.67h0a4.67,4.67,0,0,1,4.659-4.68h0a4.67,4.67,0,0,1,4.711,4.68h0a4.67,4.67,0,0,1-4.711,4.67Z" transform="translate(-112.191 -45.231)" fill="#fff"/>
          <path id="Trazado_208229" data-name="Trazado 208229" d="M152.442,99.559a16.968,16.968,0,0,1-4.206.268,16.967,16.967,0,0,1-4.206-.268,16.968,16.968,0,0,1,4.206-.268A16.968,16.968,0,0,1,152.442,99.559Z" transform="translate(-112.187 -44.458)" fill="#fff"/>
          <path id="Trazado_208230" data-name="Trazado 208230" d="M153.161,122.539a16.843,16.843,0,0,1-4.2.268,16.9,16.9,0,0,1-4.206-.268,16.328,16.328,0,0,1,4.206-.268,16.278,16.278,0,0,1,4.2.268Z" transform="translate(-112.164 -43.749)" fill="#fff"/>
          <path id="Trazado_208231" data-name="Trazado 208231" d="M153.161,181.009a16.845,16.845,0,0,1-4.2.268,16.9,16.9,0,0,1-4.206-.268,16.9,16.9,0,0,1,4.206-.268,16.843,16.843,0,0,1,4.2.268Z" transform="translate(-112.164 -41.945)" fill="#fff"/>
          <path id="Trazado_208232" data-name="Trazado 208232" d="M153.161,211.119a16.842,16.842,0,0,1-4.2.268,16.9,16.9,0,0,1-4.206-.268,16.9,16.9,0,0,1,4.206-.268A16.845,16.845,0,0,1,153.161,211.119Z" transform="translate(-112.164 -41.016)" fill="#fff"/>
          <path id="Trazado_208233" data-name="Trazado 208233" d="M153.161,154.379a16.843,16.843,0,0,1-4.2.268,16.9,16.9,0,0,1-4.206-.268,16.329,16.329,0,0,1,4.206-.268A16.278,16.278,0,0,1,153.161,154.379Z" transform="translate(-112.164 -42.767)" fill="#263238"/>
          <path id="Trazado_208234" data-name="Trazado 208234" d="M408.873,267.413c0-1.845-.082-84.921-.216-214.035l.216.227H136.059l.268-.268V267.372l-.237-.237,272.783.278-272.866.268h-.237V53.11H409.1v.216C408.966,182.523,408.873,265.6,408.873,267.413Z" transform="translate(-112.442 -45.882)" fill="#263238"/>
          <rect id="Rectángulo_46013" data-name="Rectángulo 46013" width="3.68" height="12.308" transform="translate(209.716 183.71)" fill="#138af8"/>
          <rect id="Rectángulo_46014" data-name="Rectángulo 46014" width="3.68" height="14.092" transform="translate(179.018 181.926)" fill="#138af8"/>
          <rect id="Rectángulo_46015" data-name="Rectángulo 46015" width="3.68" height="17.03" transform="translate(186.687 178.989)" fill="#138af8"/>
          <rect id="Rectángulo_46016" data-name="Rectángulo 46016" width="3.68" height="16.102" transform="translate(194.367 179.927)" fill="#138af8"/>
          <rect id="Rectángulo_46017" data-name="Rectángulo 46017" width="3.68" height="21.545" transform="translate(202.036 174.473)" fill="#138af8"/>
          <rect id="Rectángulo_46018" data-name="Rectángulo 46018" width="3.68" height="21.442" transform="translate(217.386 174.576)" fill="#138af8"/>
          <rect id="Rectángulo_46019" data-name="Rectángulo 46019" width="3.68" height="14.401" transform="translate(225.066 181.617)" fill="#138af8"/>
          <rect id="Rectángulo_46020" data-name="Rectángulo 46020" width="3.68" height="20.493" transform="translate(232.735 175.525)" fill="#138af8"/>
          <rect id="Rectángulo_46021" data-name="Rectángulo 46021" width="3.68" height="25.112" transform="translate(240.415 170.907)" fill="#138af8"/>
          <rect id="Rectángulo_46022" data-name="Rectángulo 46022" width="3.68" height="20.596" transform="translate(248.084 175.422)" fill="#138af8"/>
          <path id="Trazado_208235" data-name="Trazado 208235" d="M367.749,253.124H277.343a7.474,7.474,0,0,1-7.463-7.463V191.613a7.474,7.474,0,0,1,7.463-7.463h90.406a7.474,7.474,0,0,1,7.463,7.463v54.047a7.474,7.474,0,0,1-7.463,7.463Zm-90.406-68.242a6.731,6.731,0,0,0-6.721,6.731v54.047a6.731,6.731,0,0,0,6.721,6.731h90.406a6.742,6.742,0,0,0,6.731-6.731V191.613a6.742,6.742,0,0,0-6.731-6.731Z" transform="translate(-108.304 -41.839)" fill="#e0e0e0"/>
          <path id="Trazado_208236" data-name="Trazado 208236" d="M328.448,201.586c0,.1-10.463.2-23.359.2s-23.359-.093-23.359-.2,10.453-.186,23.359-.186S328.448,201.482,328.448,201.586Z" transform="translate(-107.939 -41.307)" fill="#e0e0e0"/>
          <path id="Trazado_208237" data-name="Trazado 208237" d="M180.9,184.74V251.5h71.036V184.74Z" transform="translate(-111.049 -41.821)" fill="#f5f5f5"/>
          <path id="Trazado_208238" data-name="Trazado 208238" d="M215.706,192.08A21.916,21.916,0,1,0,237.622,214,21.916,21.916,0,0,0,215.706,192.08Zm.33,35.049a13.463,13.463,0,1,1,9.527-3.95,13.463,13.463,0,0,1-9.527,3.95Z" transform="translate(-110.652 -41.594)" fill="#263238"/>
          <path id="Trazado_208239" data-name="Trazado 208239" d="M215.38,192.09v8.154A13.473,13.473,0,0,1,228.2,217.768l7.948,2.154A21.926,21.926,0,0,0,215.38,192.09Z" transform="translate(-109.986 -41.594)" fill="#138af8"/>
          <path id="Trazado_208240" data-name="Trazado 208240" d="M202.573,213.594a13.464,13.464,0,0,1,7.981-12.3l-3.373-7.565a21.916,21.916,0,0,0-13.4,20.194c0,.309,0,.619,0,.917H202.6A12.471,12.471,0,0,1,202.573,213.594Z" transform="translate(-110.652 -41.544)" fill="#455a64"/>
          <path id="Trazado_208241" data-name="Trazado 208241" d="M215.5,226.36a12.937,12.937,0,0,1-2.845-.309c-.34,1.959-1.031,5.742-1.484,8.721a22.286,22.286,0,0,0,4,.371,21.926,21.926,0,0,0,21.112-16.008L228.334,217A13.463,13.463,0,0,1,215.5,226.36Z" transform="translate(-110.116 -40.826)" fill="#138af8"/>
          <g id="Grupo_146476" data-name="Grupo 146476" transform="translate(101.054 176.174)" opacity="0.3">
            <path id="Trazado_208242" data-name="Trazado 208242" d="M215.5,226.36a12.937,12.937,0,0,1-2.845-.309c-.34,1.959-1.031,5.742-1.484,8.721a22.286,22.286,0,0,0,4,.371,21.926,21.926,0,0,0,21.112-16.008L228.334,217A13.463,13.463,0,0,1,215.5,226.36Z" transform="translate(-211.17 -217)"/>
          </g>
          <path id="Trazado_208243" data-name="Trazado 208243" d="M212.688,214.2h-.814v1.031H210.75V214.2h-2.68v-.783l2.35-3.154h1.206l-2.175,2.989h1.34v-.928h1.031v.928h.814Z" transform="translate(-110.211 -41.034)" fill="#263238"/>
          <path id="Trazado_208244" data-name="Trazado 208244" d="M212.88,212.747c0-1.639.907-2.567,2.134-2.567s2.134.928,2.134,2.567-.9,2.577-2.134,2.577S212.88,214.4,212.88,212.747Zm3.093,0c0-1.124-.4-1.6-1.031-1.6s-.969.474-.969,1.6.4,1.608.969,1.608,1.051-.474,1.051-1.608Z" transform="translate(-110.063 -41.036)" fill="#263238"/>
          <path id="Trazado_208245" data-name="Trazado 208245" d="M217.48,211.582a1.247,1.247,0,0,1,1.247-1.381,1.381,1.381,0,1,1-1.247,1.381Zm1.763,0c0-.536-.206-.794-.515-.794s-.526.268-.526.794.216.783.526.783S219.243,212.107,219.243,211.582Zm2.443-1.319h.856l-3.4,4.979h-.856Zm-.814,3.66a1.237,1.237,0,1,1,.3.966A1.247,1.247,0,0,1,220.872,213.922Zm1.752,0c0-.526-.206-.783-.526-.783s-.515.258-.515.783.216.794.515.794S222.624,214.447,222.624,213.922Z" transform="translate(-109.921 -41.036)" fill="#263238"/>
          <path id="Trazado_208246" data-name="Trazado 208246" d="M233.736,240.006c0,.113-8.123.206-18.143.206s-18.133-.093-18.133-.206,8.113-.216,18.133-.216S233.736,239.852,233.736,240.006Z" transform="translate(-110.539 -40.123)" fill="#263238"/>
          <path id="Trazado_208247" data-name="Trazado 208247" d="M225.412,243.206c0,.113-4.5.206-10.061.206s-10.061-.093-10.061-.206,4.5-.216,10.061-.216S225.412,243.093,225.412,243.206Z" transform="translate(-110.297 -40.024)" fill="#263238"/>
          <path id="Trazado_208248" data-name="Trazado 208248" d="M392.465,89.832H376.291l-44.883.186-152.277.093.371-.268v75.314l-.371-.268,151.215.093,44.481.082,11.948.052H374.828l-44.481.082-151.215.093h-.371V89.44h.371l152.277.093,44.821.082h15.143Z" transform="translate(-111.115 -44.761)" fill="#e0e0e0"/>
          <path id="Trazado_208249" data-name="Trazado 208249" d="M392.454,102.128c0,.144-47.759.268-106.662.268s-106.672-.124-106.672-.268,47.749-.278,106.672-.278S392.454,102,392.454,102.128Z" transform="translate(-111.104 -44.378)" fill="#e0e0e0"/>
          <path id="Trazado_208250" data-name="Trazado 208250" d="M392.454,112.188c0,.144-47.759.268-106.662.268s-106.672-.124-106.672-.268,47.749-.278,106.672-.278S392.454,112,392.454,112.188Z" transform="translate(-111.104 -44.068)" fill="#e0e0e0"/>
          <path id="Trazado_208251" data-name="Trazado 208251" d="M392.454,122.247c0,.144-47.759.268-106.662.268s-106.672-.124-106.672-.268S226.869,122,285.792,122,392.454,122.093,392.454,122.247Z" transform="translate(-111.104 -43.756)" fill="#e0e0e0"/>
          <path id="Trazado_208252" data-name="Trazado 208252" d="M392.454,132.309c0,.144-47.759.268-106.662.268s-106.672-.124-106.672-.268S226.869,132,285.792,132,392.454,132.155,392.454,132.309Z" transform="translate(-111.104 -43.448)" fill="#e0e0e0"/>
          <path id="Trazado_208253" data-name="Trazado 208253" d="M392.454,142.368c0,.144-47.759.268-106.662.268s-106.672-.124-106.672-.268,47.749-.278,106.672-.278S392.454,142.214,392.454,142.368Z" transform="translate(-111.104 -43.137)" fill="#e0e0e0"/>
          <path id="Trazado_208254" data-name="Trazado 208254" d="M179.12,152.418c0-.144,47.759-.268,106.662-.268s106.672.124,106.672.268-47.749.278-106.672.278S179.12,152.573,179.12,152.418Z" transform="translate(-111.104 -42.826)" fill="#e0e0e0"/>
          <path id="Trazado_208255" data-name="Trazado 208255" d="M208.458,166.287c-.155,0-.268-17.1-.268-38.2s.113-38.224.268-38.224.278,17.112.278,38.224S208.613,166.287,208.458,166.287Z" transform="translate(-110.208 -44.748)" fill="#e0e0e0"/>
          <path id="Trazado_208256" data-name="Trazado 208256" d="M238.268,166.287c-.155,0-.278-17.1-.278-38.2s.124-38.224.278-38.224.268,17.112.268,38.224S238.413,166.287,238.268,166.287Z" transform="translate(-109.288 -44.748)" fill="#e0e0e0"/>
          <path id="Trazado_208257" data-name="Trazado 208257" d="M268.068,166.287c-.144,0-.268-17.1-.268-38.2s.124-38.224.268-38.224.278,17.112.278,38.224S268.223,166.287,268.068,166.287Z" transform="translate(-108.369 -44.748)" fill="#e0e0e0"/>
          <path id="Trazado_208258" data-name="Trazado 208258" d="M297.878,166.287c-.155,0-.278-17.1-.278-38.2s.124-38.224.278-38.224.268,17.112.268,38.224S298.012,166.287,297.878,166.287Z" transform="translate(-107.449 -44.748)" fill="#e0e0e0"/>
          <path id="Trazado_208259" data-name="Trazado 208259" d="M327.678,166.287c-.144,0-.268-17.1-.268-38.2s.124-38.224.268-38.224.278,17.112.278,38.224S327.833,166.287,327.678,166.287Z" transform="translate(-106.53 -44.748)" fill="#e0e0e0"/>
          <path id="Trazado_208260" data-name="Trazado 208260" d="M356.538,166.287c-.155,0-.278-17.1-.278-38.2s.124-38.224.278-38.224.268,17.112.268,38.224S356.683,166.287,356.538,166.287Z" transform="translate(-105.64 -44.748)" fill="#e0e0e0"/>
          <path id="Trazado_208261" data-name="Trazado 208261" d="M386.338,166.287c-.144,0-.268-17.1-.268-38.2s.124-38.224.268-38.224.278,17.112.278,38.224S386.493,166.287,386.338,166.287Z" transform="translate(-104.72 -44.748)" fill="#e0e0e0"/>
          <path id="Trazado_208262" data-name="Trazado 208262" d="M210.382,152.466a1.876,1.876,0,1,1-1.876-1.866,1.876,1.876,0,0,1,1.876,1.866Z" transform="translate(-110.256 -42.874)" fill="#138af8"/>
          <path id="Trazado_208263" data-name="Trazado 208263" d="M240.182,132.356a1.866,1.866,0,1,1-.543-1.326,1.876,1.876,0,0,1,.543,1.326Z" transform="translate(-109.336 -43.495)" fill="#138af8"/>
          <path id="Trazado_208264" data-name="Trazado 208264" d="M269.992,142.236a1.876,1.876,0,1,1-1.876-1.866A1.876,1.876,0,0,1,269.992,142.236Z" transform="translate(-108.417 -43.19)" fill="#138af8"/>
          <path id="Trazado_208265" data-name="Trazado 208265" d="M299.6,121.017a1.939,1.939,0,0,1-2.742,2.742h0a1.939,1.939,0,1,1,2.742-2.742Z" transform="translate(-107.49 -43.804)" fill="#138af8"/>
          <path id="Trazado_208266" data-name="Trazado 208266" d="M329.749,121.017a1.939,1.939,0,0,1-2.742,2.742h0a1.939,1.939,0,0,1,2.742-2.742Z" transform="translate(-106.56 -43.804)" fill="#138af8"/>
          <path id="Trazado_208267" data-name="Trazado 208267" d="M357.949,140.757a1.939,1.939,0,0,1-2.742,2.742h0a1.939,1.939,0,0,1,2.742-2.742Z" transform="translate(-105.69 -43.195)" fill="#138af8"/>
          <path id="Trazado_208268" data-name="Trazado 208268" d="M240.182,112.236a1.866,1.866,0,1,1-.543-1.326,1.876,1.876,0,0,1,.543,1.326Z" transform="translate(-109.336 -44.116)" fill="#455a64"/>
          <path id="Trazado_208269" data-name="Trazado 208269" d="M210.382,142.416a1.876,1.876,0,1,1-1.876-1.876,1.876,1.876,0,0,1,1.876,1.876Z" transform="translate(-110.256 -43.184)" fill="#455a64"/>
          <path id="Trazado_208270" data-name="Trazado 208270" d="M357.957,151.1a1.938,1.938,0,1,1-2.667.065A1.938,1.938,0,0,1,357.957,151.1Z" transform="translate(-105.687 -42.874)" fill="#455a64"/>
          <path id="Trazado_208271" data-name="Trazado 208271" d="M329.6,132.356a1.866,1.866,0,1,1-.546-1.33,1.876,1.876,0,0,1,.546,1.33Z" transform="translate(-106.578 -43.495)" fill="#455a64"/>
          <path id="Trazado_208272" data-name="Trazado 208272" d="M300.112,132.056a1.876,1.876,0,1,1-1.876-1.866,1.876,1.876,0,0,1,1.876,1.866Z" transform="translate(-107.488 -43.504)" fill="#455a64"/>
          <path id="Trazado_208273" data-name="Trazado 208273" d="M196.177,171.188a16.493,16.493,0,0,1-5.917,0,15.865,15.865,0,0,1,5.917,0Z" transform="translate(-110.761 -42.248)" fill="#e0e0e0"/>
          <path id="Trazado_208274" data-name="Trazado 208274" d="M226.647,171.188a16.493,16.493,0,0,1-5.917,0,15.865,15.865,0,0,1,5.917,0Z" transform="translate(-109.821 -42.248)" fill="#e0e0e0"/>
          <path id="Trazado_208275" data-name="Trazado 208275" d="M257.107,171.188a16.411,16.411,0,0,1-5.907,0A15.813,15.813,0,0,1,257.107,171.188Z" transform="translate(-108.881 -42.248)" fill="#e0e0e0"/>
          <path id="Trazado_208276" data-name="Trazado 208276" d="M287.577,171.188a16.493,16.493,0,0,1-5.917,0,15.866,15.866,0,0,1,5.917,0Z" transform="translate(-107.941 -42.248)" fill="#e0e0e0"/>
          <path id="Trazado_208277" data-name="Trazado 208277" d="M318.037,171.188a16.493,16.493,0,0,1-5.917,0,15.865,15.865,0,0,1,5.917,0Z" transform="translate(-107.001 -42.248)" fill="#e0e0e0"/>
          <path id="Trazado_208278" data-name="Trazado 208278" d="M345.287,171.188a16.493,16.493,0,0,1-5.917,0,15.865,15.865,0,0,1,5.917,0Z" transform="translate(-106.161 -42.248)" fill="#e0e0e0"/>
          <path id="Trazado_208279" data-name="Trazado 208279" d="M372.527,171.188a16.493,16.493,0,0,1-5.917,0,15.865,15.865,0,0,1,5.917,0Z" transform="translate(-105.32 -42.248)" fill="#e0e0e0"/>
          <path id="Trazado_208280" data-name="Trazado 208280" d="M174.953,162.459a5.577,5.577,0,0,1-2.381.268,5.639,5.639,0,0,1-2.392-.268,5.371,5.371,0,0,1,2.392-.278,5.309,5.309,0,0,1,2.381.278Z" transform="translate(-111.38 -42.518)" fill="#e0e0e0"/>
          <path id="Trazado_208281" data-name="Trazado 208281" d="M174.953,150.759a5.576,5.576,0,0,1-2.381.268,5.639,5.639,0,0,1-2.392-.268,5.371,5.371,0,0,1,2.392-.278,5.309,5.309,0,0,1,2.381.278Z" transform="translate(-111.38 -42.879)" fill="#e0e0e0"/>
          <path id="Trazado_208282" data-name="Trazado 208282" d="M174.953,139.059a5.576,5.576,0,0,1-2.381.268,5.64,5.64,0,0,1-2.392-.268,5.371,5.371,0,0,1,2.392-.278A5.309,5.309,0,0,1,174.953,139.059Z" transform="translate(-111.38 -43.24)" fill="#e0e0e0"/>
          <path id="Trazado_208283" data-name="Trazado 208283" d="M174.953,127.359a5.577,5.577,0,0,1-2.381.268,5.639,5.639,0,0,1-2.392-.268,5.371,5.371,0,0,1,2.392-.278,5.309,5.309,0,0,1,2.381.278Z" transform="translate(-111.38 -43.601)" fill="#e0e0e0"/>
          <path id="Trazado_208284" data-name="Trazado 208284" d="M174.953,115.659a5.577,5.577,0,0,1-2.381.268,5.639,5.639,0,0,1-2.392-.268,5.371,5.371,0,0,1,2.392-.278,5.308,5.308,0,0,1,2.381.278Z" transform="translate(-111.38 -43.962)" fill="#e0e0e0"/>
          <path id="Trazado_208285" data-name="Trazado 208285" d="M174.953,104.009a5.577,5.577,0,0,1-2.381.268,5.639,5.639,0,0,1-2.392-.268,5.371,5.371,0,0,1,2.392-.278A5.309,5.309,0,0,1,174.953,104.009Z" transform="translate(-111.38 -44.321)" fill="#e0e0e0"/>
          <path id="Trazado_208286" data-name="Trazado 208286" d="M174.953,92.259a5.577,5.577,0,0,1-2.381.268,5.639,5.639,0,0,1-2.392-.268A5.371,5.371,0,0,1,172.572,92,5.309,5.309,0,0,1,174.953,92.259Z" transform="translate(-111.38 -44.683)" fill="#e0e0e0"/>
          <path id="Trazado_208287" data-name="Trazado 208287" d="M178.93,164.6l-.34-.969L209.134,152.9l30.884-20.854,30.73,10.2L301.7,121.822l31.008-.082.134.093,29.451,20.8,28.544-18.854.567.866-29.132,19.246-.289-.206-29.606-20.916-30.369.082L270.9,143.378l-30.73-10.185-30.627,20.658Z" transform="translate(-111.121 -43.764)" fill="#138af8"/>
          <path id="Trazado_208288" data-name="Trazado 208288" d="M362.446,154.219l-30.07-20.442h-31L270.361,113.3l-30.07-.268-30.719,31.1H179.12v-1.031h30.018L239.868,112l30.812.278,31.008,20.473h31l29.42,19.988,29.369-51.615.9.505Z" transform="translate(-111.104 -44.401)" fill="#455a64"/>
          <path id="Trazado_208289" data-name="Trazado 208289" d="M387.309,75.2c0,.155-11.587.268-25.874.268s-25.874-.113-25.874-.268,11.587-.268,25.874-.268S387.309,75.054,387.309,75.2Z" transform="translate(-106.278 -45.209)" fill="#263238"/>
          <path id="Trazado_208290" data-name="Trazado 208290" d="M180.656,74.153H178.78v-1.1h5.154v1.1h-1.876v4.763h-1.4Z" transform="translate(-111.115 -45.267)" fill="#263238"/>
          <path id="Trazado_208291" data-name="Trazado 208291" d="M188.181,78.916l-1.1-1.639H185.82v1.639h-1.35V73.05h2.536c1.567,0,2.546.814,2.546,2.124a1.907,1.907,0,0,1-1.206,1.856l1.319,1.886Zm-1.268-4.763H185.8v2.062h1.113c.825,0,1.247-.381,1.247-1.031s-.423-1.031-1.247-1.031Z" transform="translate(-110.939 -45.267)" fill="#263238"/>
          <path id="Trazado_208292" data-name="Trazado 208292" d="M194.966,77.823v1.093H190.42V73.05h4.433v1.031H191.76v1.278h2.721V76.39H191.76v1.361Z" transform="translate(-110.756 -45.267)" fill="#263238"/>
          <path id="Trazado_208293" data-name="Trazado 208293" d="M201.262,73.05v5.866h-1.134L197.2,75.349v3.567h-1.34V73.05h1.175l2.928,3.556V73.05Z" transform="translate(-110.588 -45.267)" fill="#263238"/>
          <path id="Trazado_208294" data-name="Trazado 208294" d="M202.441,73.05h2.639a2.948,2.948,0,1,1,0,5.866h-2.67ZM205.08,77.8a1.825,1.825,0,1,0,0-3.639h-1.237V77.8Z" transform="translate(-110.386 -45.267)" fill="#263238"/>
        </g>
        <g id="freepik--Character--inject-73" transform="translate(40.04 79.749)">
          <path id="Trazado_208295" data-name="Trazado 208295" d="M131.712,208.581l-3.618,4.525v-7.793H116.672s-1.268,17.854-1.031,21.648,4.536,14.679,4.536,14.679a42.059,42.059,0,0,0,11.5-10.061c5.072-6.515,13.5-22.411,13.5-22.411l-8.793-5.309Z" transform="translate(-37.205 -74.882)" fill="#ffbe9d"/>
          <path id="Trazado_208296" data-name="Trazado 208296" d="M132.271,207.63a12.135,12.135,0,0,1-1.484,1.99c-.969,1.2-2.3,2.835-3.824,4.618a54.032,54.032,0,0,1-4.123,4.4,8.123,8.123,0,0,1-1.948,1.577,18.933,18.933,0,0,1,1.67-1.835c1.031-1.124,2.423-2.721,3.948-4.494C129.57,210.321,132.147,207.506,132.271,207.63Z" transform="translate(-37.042 -74.766)" fill="#eb996e"/>
          <path id="Trazado_208297" data-name="Trazado 208297" d="M132.281,181.009s-3.247-26.647-16.112-29.369l-6.659,25.606,5.536,18.473,18.359-2.474Z" transform="translate(-37.393 -76.493)" fill="#138af8"/>
          <path id="Trazado_208298" data-name="Trazado 208298" d="M49.19,198.853l.608,1.907,12.6,39.595s31.183,11.793,42.378,7.154,16.37-11.339,16.37-11.339l-2.495-84.282L100.887,149.2,70.261,146.95l-20.514,6.587Z" transform="translate(-39.254 -76.638)" fill="#138af8"/>
          <g id="Grupo_146477" data-name="Grupo 146477" transform="translate(9.936 117.783)" opacity="0.3">
            <path id="Trazado_208299" data-name="Trazado 208299" d="M87.847,212.864A132.218,132.218,0,0,1,55.458,193l-6.268,3.34c4.711,9.515,8.639,18.194,15.133,26.6a22.112,22.112,0,0,0,8.649,6.938,14.432,14.432,0,0,0,14.535-2.948c3.732-3.474,6.536-13.679,5.309-22C90.723,205.051,89.785,213.669,87.847,212.864Z" transform="translate(-49.19 -193)"/>
          </g>
          <path id="Trazado_208300" data-name="Trazado 208300" d="M118.462,189.125a40.111,40.111,0,0,0-2.062-8.4,39.307,39.307,0,0,0-4.35-7.484,8.794,8.794,0,0,1,1.763,1.876,23.71,23.71,0,0,1,3.093,5.4,22.937,22.937,0,0,1,1.546,6.03A8.825,8.825,0,0,1,118.462,189.125Z" transform="translate(-37.315 -75.827)" fill="#263238"/>
          <path id="Trazado_208301" data-name="Trazado 208301" d="M119.256,128.836a4.567,4.567,0,0,1-4.3-1.907,5.5,5.5,0,0,0,3.3-.186c1.031-.505,1.567-1.979.783-2.783-.608-.629-1.618-.515-2.484-.577a5.391,5.391,0,0,1-4.577-3.515c-.742-2.124-.072-4.433.2-6.659a18.349,18.349,0,0,0-7.68-16.968L90.526,88.2c-5.061,6.474-6.639,15.215-5.587,23.369s4.5,15.834,8.669,22.926a26.967,26.967,0,0,0,4.216,5.8,10.762,10.762,0,0,0,6.268,3.216,6.463,6.463,0,0,0-1.031-5.845,14.1,14.1,0,0,0,10.391-3.721l-3-2.288a10.917,10.917,0,0,0,8.8-2.825Z" transform="translate(-38.161 -78.45)" fill="#263238"/>
          <path id="Trazado_208302" data-name="Trazado 208302" d="M66.052,106.052a13.081,13.081,0,0,1,9.494-12.37l17.524-5c7.6-1.031,12.958,8.185,13.669,15.824.8,8.484,1.4,17.442.588,23.813C105.7,141.132,95.987,143.06,95.987,143.06s.175,6.061.278,9.793L93.41,169.542l-23.122-19.71L66,106.207C66,105.99,66,106.341,66.052,106.052Z" transform="translate(-38.735 -78.438)" fill="#ffbe9d"/>
          <path id="Trazado_208303" data-name="Trazado 208303" d="M103.458,113.563a1.639,1.639,0,0,1-1.526,1.7,1.557,1.557,0,0,1-1.732-1.423,1.629,1.629,0,0,1,1.515-1.7,1.577,1.577,0,0,1,1.742,1.423Z" transform="translate(-37.68 -77.712)" fill="#263238"/>
          <path id="Trazado_208304" data-name="Trazado 208304" d="M103.985,109.049c-.206.216-1.464-.66-3.227-.6s-3.02,1.031-3.216.763.093-.484.639-.907a4.536,4.536,0,0,1,2.577-.876,4.227,4.227,0,0,1,2.567.742C103.882,108.543,104.077,108.915,103.985,109.049Z" transform="translate(-37.764 -77.857)" fill="#263238"/>
          <path id="Trazado_208305" data-name="Trazado 208305" d="M88.508,113.583a1.639,1.639,0,0,1-1.526,1.7,1.557,1.557,0,0,1-1.732-1.423,1.629,1.629,0,0,1,1.526-1.7,1.577,1.577,0,0,1,1.732,1.423Z" transform="translate(-38.142 -77.711)" fill="#263238"/>
          <path id="Trazado_208306" data-name="Trazado 208306" d="M87.765,109.479c-.2.227-1.464-.66-3.227-.6s-3.02,1.031-3.216.773.093-.484.649-.917a4.5,4.5,0,0,1,2.567-.876,4.33,4.33,0,0,1,2.577.742C87.662,109.035,87.868,109.386,87.765,109.479Z" transform="translate(-38.265 -77.844)" fill="#263238"/>
          <path id="Trazado_208307" data-name="Trazado 208307" d="M93.328,123.128a11.855,11.855,0,0,1,2.845-.608c.443,0,.866-.155.938-.464a2.381,2.381,0,0,0-.34-1.33c-.464-1.031-.938-2.2-1.433-3.381-2-4.814-3.464-8.773-3.268-8.855s1.969,3.763,3.969,8.577l1.381,3.4a2.608,2.608,0,0,1,.289,1.752,1.124,1.124,0,0,1-.722.68,2.835,2.835,0,0,1-.763.134,11.04,11.04,0,0,1-2.9.093Z" transform="translate(-37.932 -77.824)" fill="#263238"/>
          <path id="Trazado_208308" data-name="Trazado 208308" d="M78.52,137.53s4.4,8.649,17.122,7.061l-.082-3a32.08,32.08,0,0,1-17.04-4.062Z" transform="translate(-38.349 -76.929)" fill="#eb996e"/>
          <path id="Trazado_208309" data-name="Trazado 208309" d="M87.1,103.316c-.155.485-1.928.309-3.979.619s-3.711.928-4,.505c-.124-.2.155-.66.8-1.144a6.865,6.865,0,0,1,2.948-1.124,6.731,6.731,0,0,1,3.093.268C86.77,102.718,87.172,103.09,87.1,103.316Z" transform="translate(-38.332 -78.022)" fill="#263238"/>
          <path id="Trazado_208310" data-name="Trazado 208310" d="M103.26,103.813c-.3.412-1.526,0-2.979.062s-2.691.35-2.979-.062c-.134-.2,0-.6.577-1.031a4.309,4.309,0,0,1,4.8,0C103.177,103.215,103.394,103.617,103.26,103.813Z" transform="translate(-37.771 -78.023)" fill="#263238"/>
          <path id="Trazado_208311" data-name="Trazado 208311" d="M86.891,126.054a2.289,2.289,0,0,1,2.319-1.8,2.392,2.392,0,0,1,1.917,1.278,2.948,2.948,0,0,1,.165,2.288v.165a2.6,2.6,0,0,1-2.928.711,2.433,2.433,0,0,1-1.474-2.639Z" transform="translate(-38.092 -77.338)" fill="#eb996e"/>
          <path id="Trazado_208312" data-name="Trazado 208312" d="M92.491,128.016c0-.258-1.783-.124-3.165-1.546s-1.33-3.33-1.577-3.33-.32.454-.278,1.258a4.5,4.5,0,0,0,1.227,2.783,3.886,3.886,0,0,0,2.639,1.185C92.14,128.377,92.511,128.15,92.491,128.016Z" transform="translate(-38.073 -77.372)" fill="#263238"/>
          <path id="Trazado_208313" data-name="Trazado 208313" d="M71.76,86.038a17.782,17.782,0,0,1,10.257-7.03c4.123-.722,6.659,0,9.391,2.484a10.4,10.4,0,0,0,4.123,2.433c1.99.392,3.66.062,6.03,1.278,3.247,1.66,4.67,5.989,6.185,9.278,1.866,4.123,4.525,7.927,5.742,12.288s.577,9.721-3.093,12.37c.7-3.721,1.278-7.865-.763-11.051-1.557-2.433-4.34-3.783-6.34-5.866-2.412-2.515-2.721-5.886-5.257-8.247C92.264,88.5,82.11,98.1,71.791,86.049" transform="translate(-38.558 -78.742)" fill="#263238"/>
          <path id="Trazado_208314" data-name="Trazado 208314" d="M108.317,103.257a37.224,37.224,0,0,0-5.68-10.309,20.04,20.04,0,0,0-26.606-3.412L75,89.619a16.875,16.875,0,0,0,13.143,6.329c3,0,6.247-.783,8.824.763s3.4,4.6,5.443,6.639c1.381,1.381,3.237,2.237,4.587,3.67a15.05,15.05,0,0,1,2.835,5.5C110.719,109.453,109.544,106.206,108.317,103.257Z" transform="translate(-38.458 -78.519)" fill="#263238"/>
          <path id="Trazado_208315" data-name="Trazado 208315" d="M82.18,92.066,74.006,84.85c-6.371-.33-10.463,5.69-12.649,10.308C59.728,98.612,59.223,102.478,58,106.1s-3.268,7.154-4.412,10.9-1.3,8.113.959,11.339l1.423-2.618a15.813,15.813,0,0,0,4.257,9.8c.186-.907.371-1.814.546-2.732a15.463,15.463,0,0,0,6.185,6.628l3.835,10.236C76.438,132.424,61.883,131.125,82.18,92.066Z" transform="translate(-39.144 -78.554)" fill="#263238"/>
          <path id="Trazado_208316" data-name="Trazado 208316" d="M80.884,93.551a37.264,37.264,0,0,1-1.917,6.845,13.133,13.133,0,0,1-4.206,5.628c-2.794,2.062-6.4,2.443-9.762,3.257s-6.938,2.35-8.319,5.515a78.86,78.86,0,0,1,2.866-13.71c1.495-4.938,3.649-9.906,7.773-13.071a14.226,14.226,0,0,1,13.4-1.99" transform="translate(-39.023 -78.544)" fill="#263238"/>
          <path id="Trazado_208317" data-name="Trazado 208317" d="M71.969,115.171c-.175-.423-8.1-3.031-7.968,5.319.124,8.113,8.247,6.278,8.247,6.041S71.969,115.171,71.969,115.171Z" transform="translate(-38.797 -77.64)" fill="#ffbe9d"/>
          <path id="Trazado_208318" data-name="Trazado 208318" d="M69.649,123.433a2.267,2.267,0,0,1-.371.216,1.4,1.4,0,0,1-1.031,0c-.866-.3-1.608-1.639-1.68-3.093a4.762,4.762,0,0,1,.361-2.062,1.618,1.618,0,0,1,1.031-1.1.711.711,0,0,1,.845.371c.113.216.062.381.1.4s.175-.144.1-.474a.917.917,0,0,0-.33-.505,1.093,1.093,0,0,0-.783-.2,2.062,2.062,0,0,0-1.454,1.289A4.783,4.783,0,0,0,66,120.547c.082,1.639.948,3.154,2.124,3.464a1.484,1.484,0,0,0,1.289-.237C69.639,123.629,69.68,123.443,69.649,123.433Z" transform="translate(-38.736 -77.563)" fill="#eb996e"/>
          <path id="Trazado_208319" data-name="Trazado 208319" d="M68.744,124.66a1.577,1.577,0,1,0,.381.1" transform="translate(-38.706 -77.326)" fill="#fff"/>
          <path id="Trazado_208320" data-name="Trazado 208320" d="M69.132,124.767a2.227,2.227,0,0,1,.753,1.031,1.34,1.34,0,0,1-.278,1.278,1.423,1.423,0,0,1-2.515-.722,1.381,1.381,0,0,1,.443-1.237,2.154,2.154,0,0,1,1.216-.495.776.776,0,0,0-.381-.082,1.7,1.7,0,0,0-1.031.381,1.629,1.629,0,0,0-.608,1.484,1.752,1.752,0,0,0,3.093.9,1.7,1.7,0,0,0-.381-2.443C69.277,124.767,69.132,124.746,69.132,124.767Z" transform="translate(-38.713 -77.329)" fill="#263238"/>
          <path id="Trazado_208321" data-name="Trazado 208321" d="M63.748,124.926s-.1,0-.258-.186a5.689,5.689,0,0,1-.619-.619,9.752,9.752,0,0,1-1.691-2.763,9.525,9.525,0,0,1-.639-4.773,8.154,8.154,0,0,1,2.866-5.154,19.988,19.988,0,0,1,5.072-2.979c1.649-.711,3.093-1.33,4.309-1.979A17.709,17.709,0,0,0,76.3,104a3.742,3.742,0,0,1-.742.928,12.793,12.793,0,0,1-2.587,1.948,46.71,46.71,0,0,1-4.288,2.062,20.04,20.04,0,0,0-4.917,2.928,7.793,7.793,0,0,0-2.752,4.793,9.494,9.494,0,0,0,.515,4.567,14.04,14.04,0,0,0,2.216,3.7Z" transform="translate(-38.906 -77.963)" fill="#455a64"/>
          <path id="Trazado_208322" data-name="Trazado 208322" d="M63.02,120.086a2.3,2.3,0,0,1-.361-.794,6.525,6.525,0,0,1-.289-2.361A7.443,7.443,0,0,1,63.4,113.54a7.36,7.36,0,0,1,3.175-2.948,42.161,42.161,0,0,1,3.958-1.608,10.938,10.938,0,0,0,2.969-1.639,6.6,6.6,0,0,0,1.856-2.484,1.732,1.732,0,0,1-.2.845,5.288,5.288,0,0,1-1.412,1.928,10.576,10.576,0,0,1-3.031,1.8c-1.206.515-2.587.948-3.9,1.629a7.216,7.216,0,0,0-3,2.721,7.649,7.649,0,0,0-1.031,3.175,11.339,11.339,0,0,0,.227,3.123Z" transform="translate(-38.848 -77.936)" fill="#455a64"/>
          <path id="Trazado_208323" data-name="Trazado 208323" d="M80.907,94.092a23.215,23.215,0,0,0-3.165-5.237A23.226,23.226,0,0,0,73,85a4.494,4.494,0,0,1,1.711.68A13.143,13.143,0,0,1,78.154,88.5,12.938,12.938,0,0,1,80.474,92.3a4.587,4.587,0,0,1,.433,1.794Z" transform="translate(-38.52 -78.549)" fill="#455a64"/>
          <path id="Trazado_208324" data-name="Trazado 208324" d="M117.231,123.3a3.6,3.6,0,0,1-1.031-.134,22.193,22.193,0,0,1-2.763-.742,12.484,12.484,0,0,1-1.825-.814,4.948,4.948,0,0,1-1.783-1.526,3.144,3.144,0,0,1-.484-1.216l-.093-.629a4.743,4.743,0,0,1-.072-.68,8.68,8.68,0,0,1,.495-2.7,10.308,10.308,0,0,0,.567-2.536,3.958,3.958,0,0,0-.639-2.227A17.339,17.339,0,0,0,106.8,107a22.755,22.755,0,0,0-2.144-1.835,8.347,8.347,0,0,1-.835-.619,9.278,9.278,0,0,1,3.278,2.216,15.73,15.73,0,0,1,2.969,3.093,4.422,4.422,0,0,1,.742,2.495,10.371,10.371,0,0,1-.577,2.68,8.247,8.247,0,0,0-.485,2.536,5.586,5.586,0,0,0,.062.6l.082.629a2.763,2.763,0,0,0,.392,1.031,4.711,4.711,0,0,0,1.588,1.412,13.926,13.926,0,0,0,1.742.835C115.788,122.909,117.262,123.208,117.231,123.3Z" transform="translate(-37.569 -77.946)" fill="#455a64"/>
          <path id="Trazado_208325" data-name="Trazado 208325" d="M88.8,457.453l.443-11.37,19.834-.753-.309,13.927-7.206,4.35Z" transform="translate(-38.032 -67.433)" fill="#ffbe9d"/>
          <path id="Trazado_208326" data-name="Trazado 208326" d="M109.238,456.35v1.3s22.019,9.092,22.215,13.288l-43.883-.649.814-14.6a25.07,25.07,0,0,0,20.854.66Z" transform="translate(-38.07 -67.113)" fill="#138af8"/>
          <g id="Grupo_146478" data-name="Grupo 146478" transform="translate(49.5 388.577)" opacity="0.3">
            <path id="Trazado_208327" data-name="Trazado 208327" d="M109.238,456.35v1.3s22.019,9.092,22.215,13.288l-43.883-.649.814-14.6a25.07,25.07,0,0,0,20.854.66Z" transform="translate(-87.57 -455.69)"/>
          </g>
          <g id="Grupo_146479" data-name="Grupo 146479" transform="translate(53.375 393.319)" opacity="0.6">
            <path id="Trazado_208328" data-name="Trazado 208328" d="M92.629,460.29a1.794,1.794,0,0,0-1.268,2.062,1.722,1.722,0,0,0,2,1.278,1.9,1.9,0,0,0,1.33-2.154,1.783,1.783,0,0,0-2.227-1.093" transform="translate(-91.329 -460.29)" fill="#fff"/>
          </g>
          <g id="Grupo_146480" data-name="Grupo 146480" transform="translate(49.49 399.669)" opacity="0.6">
            <path id="Trazado_208329" data-name="Trazado 208329" d="M87.56,469.955l.2-3.5,41.987,1.9s1.938.876,1.7,2.258Z" transform="translate(-87.56 -466.45)" fill="#fff"/>
          </g>
          <path id="Trazado_208330" data-name="Trazado 208330" d="M108.851,457.715c0,.216-1.031.3-2.144.969s-1.639,1.567-1.835,1.484.144-1.33,1.443-2.062S108.9,457.519,108.851,457.715Z" transform="translate(-37.538 -67.056)" fill="#263238"/>
          <path id="Trazado_208331" data-name="Trazado 208331" d="M113.258,459.622c0,.216-.887.567-1.629,1.464s-.969,1.845-1.175,1.835-.34-1.227.608-2.319S113.258,459.427,113.258,459.622Z" transform="translate(-37.369 -66.995)" fill="#263238"/>
          <path id="Trazado_208332" data-name="Trazado 208332" d="M115.637,465.11c-.2,0-.484-1.031.082-2.206s1.577-1.618,1.67-1.433-.546.794-1.031,1.763S115.844,465.11,115.637,465.11Z" transform="translate(-37.212 -66.936)" fill="#263238"/>
          <path id="Trazado_208333" data-name="Trazado 208333" d="M71.5,457.7l.454-11.37,19.823-.753-.3,13.927-7.206,4.35Z" transform="translate(-38.566 -67.425)" fill="#ffbe9d"/>
          <path id="Trazado_208334" data-name="Trazado 208334" d="M91.948,456.6v1.3s22.019,9.092,22.215,13.288l-43.883-.649.814-14.6a25.071,25.071,0,0,0,20.854.66Z" transform="translate(-38.603 -67.106)" fill="#138af8"/>
          <g id="Grupo_146481" data-name="Grupo 146481" transform="translate(35.55 393.541)" opacity="0.6">
            <path id="Trazado_208335" data-name="Trazado 208335" d="M75.339,460.541a1.783,1.783,0,0,0-1.268,2.062,1.722,1.722,0,0,0,1.99,1.237,1.9,1.9,0,0,0,1.33-2.154,1.783,1.783,0,0,0-2.227-1.093" transform="translate(-74.037 -460.506)" fill="#fff"/>
          </g>
          <g id="Grupo_146482" data-name="Grupo 146482" transform="translate(31.666 399.926)" opacity="0.6">
            <path id="Trazado_208336" data-name="Trazado 208336" d="M70.27,470.2l.2-3.5,41.987,1.9s1.938.887,1.7,2.258Z" transform="translate(-70.27 -466.7)" fill="#fff"/>
          </g>
          <path id="Trazado_208337" data-name="Trazado 208337" d="M91.561,458.005c0,.216-1.031.3-2.144.969s-1.639,1.567-1.835,1.484.134-1.32,1.443-2.062S91.612,457.768,91.561,458.005Z" transform="translate(-38.071 -67.047)" fill="#263238"/>
          <path id="Trazado_208338" data-name="Trazado 208338" d="M95.969,459.872c0,.216-.887.567-1.629,1.464s-.969,1.845-1.185,1.835-.33-1.227.619-2.319S95.969,459.677,95.969,459.872Z" transform="translate(-37.902 -66.987)" fill="#263238"/>
          <path id="Trazado_208339" data-name="Trazado 208339" d="M98.337,465.37c-.2,0-.474-1.031.093-2.206s1.577-1.618,1.67-1.433-.546.794-1.031,1.763S98.554,465.349,98.337,465.37Z" transform="translate(-37.745 -66.928)" fill="#263238"/>
          <path id="Trazado_208340" data-name="Trazado 208340" d="M42.61,186.041S59.1,211.606,67.763,221.915s22.9,1.237,24.545-12.783,1.216-40.007,1.216-40.007L82,162.27l-7.453,35.472-9.278-17.267Z" transform="translate(-39.457 -76.165)" fill="#ffbe9d"/>
          <path id="Trazado_208341" data-name="Trazado 208341" d="M92.345,169.964l4.948-12.37a19.266,19.266,0,0,0,2.917-1.691c.732-.68.588-5.154.381-5.938s.8-3.093.093-3.5-2.7,0-2.773-.825c0-.175,1.031-2.278-.423-3.319a6.36,6.36,0,0,0-2.278-.412l-.8-4.123s-3.3-4.319-5.154-2.062c0,0-7.02,8.453-7.639,9.69s-.794,15.566-.794,18.246" transform="translate(-38.278 -77.005)" fill="#ffbe9d"/>
          <path id="Trazado_208342" data-name="Trazado 208342" d="M80.841,163.683a3.227,3.227,0,0,1,0-.742V160.8c0-1.866,0-4.556.1-7.9,0-1.67.1-3.495.247-5.464a8.328,8.328,0,0,1,.175-1.515,3.227,3.227,0,0,1,.722-1.453c.619-.866,1.278-1.711,1.969-2.587,1.371-1.742,2.835-3.546,4.36-5.422a6.649,6.649,0,0,1,1.33-1.381,2.2,2.2,0,0,1,2.01,0,8.906,8.906,0,0,1,2.959,2.546h0v.072c.082.392.165.825.247,1.258.186.959.381,1.917.567,2.845l-.258-.216a10.771,10.771,0,0,1,1.608.165,2.309,2.309,0,0,1,.835.309,2.061,2.061,0,0,1,.577.66,2.618,2.618,0,0,1,.237,1.66,3.833,3.833,0,0,1-.175.773l-.113.361v.082h0a.082.082,0,0,0,0,.072.794.794,0,0,0,.484.2,5.36,5.36,0,0,0,.711.072,2.7,2.7,0,0,1,.753.072,1.485,1.485,0,0,1,.825.34,1.2,1.2,0,0,1,.216.866,2.89,2.89,0,0,1-.093.742c-.093.474-.206.928-.258,1.371a1.659,1.659,0,0,0,0,.6,5.151,5.151,0,0,0,.093.711q0,.7.062,1.361a18.4,18.4,0,0,1-.134,2.629,3.268,3.268,0,0,1-.392,1.278,3.784,3.784,0,0,1-1.031.763,15.385,15.385,0,0,1-2.062,1.031l.1-.1-3.7,9c-.433,1.031-.783,1.845-1.031,2.453a6.042,6.042,0,0,1-.392.835,5.638,5.638,0,0,1,.289-.876c.227-.618.546-1.453.938-2.495.856-2.2,2.062-5.288,3.526-9.071v-.072h.072c.66-.32,1.34-.68,2.062-1.082a3.659,3.659,0,0,0,.9-.649,2.969,2.969,0,0,0,.3-1.093,17.185,17.185,0,0,0,.1-2.546q0-.67-.062-1.33a3.969,3.969,0,0,0-.093-.639,2.175,2.175,0,0,1,0-.773c.062-.484.175-.948.258-1.4a5.153,5.153,0,0,0,.082-.67.794.794,0,0,0-.093-.505,1.216,1.216,0,0,0-.515-.175,2.849,2.849,0,0,1-.711-.062c-.247-.062-.495,0-.763-.072a1.216,1.216,0,0,1-.825-.412.505.505,0,0,1-.113-.278.34.34,0,0,1,0-.206v-.1l.113-.35a5.689,5.689,0,0,0,.155-.7,2.062,2.062,0,0,0-.186-1.33,1.484,1.484,0,0,0-.433-.484,1.732,1.732,0,0,0-.619-.217,10.482,10.482,0,0,0-1.546-.062h-.216V142c-.186-.928-.381-1.886-.567-2.845-.082-.433-.165-.856-.247-1.258v.113a8.484,8.484,0,0,0-2.752-2.381,1.629,1.629,0,0,0-1.536,0,5.793,5.793,0,0,0-1.175,1.258c-1.546,1.856-3.01,3.66-4.391,5.391-.691.856-1.361,1.711-1.969,2.546a2.742,2.742,0,0,0-.66,1.268c-.082.484-.134,1.031-.186,1.464-.165,1.948-.237,3.783-.309,5.443-.113,3.288-.206,5.969-.268,7.886a18.121,18.121,0,0,1-.072,2.144A4.2,4.2,0,0,1,80.841,163.683Z" transform="translate(-38.278 -77.012)" fill="#eb996e"/>
          <path id="Trazado_208343" data-name="Trazado 208343" d="M95.176,141.7a21.763,21.763,0,0,1-2.165.66,15.259,15.259,0,0,0-2.206,1.031,10.649,10.649,0,0,1-3,.711,5.8,5.8,0,0,0-4.381,2.608,6.237,6.237,0,0,0-.722,2.062,2.876,2.876,0,0,1,.392-2.268,5.7,5.7,0,0,1,1.711-1.9,6.319,6.319,0,0,1,2.917-1.031,12.37,12.37,0,0,0,2.886-.629,13.032,13.032,0,0,1,2.288-1.031,6.185,6.185,0,0,1,2.278-.217Z" transform="translate(-38.223 -76.801)" fill="#eb996e"/>
          <path id="Trazado_208344" data-name="Trazado 208344" d="M91.862,142.217c-.113.093-.567-.33-.691-1.031s.186-1.258.32-1.206.113.546.216,1.124S92.026,142.124,91.862,142.217Z" transform="translate(-37.96 -76.853)" fill="#eb996e"/>
          <path id="Trazado_208345" data-name="Trazado 208345" d="M98.034,145.411a19.2,19.2,0,0,1-6.515.959,6.185,6.185,0,0,0-2.422.237,2.556,2.556,0,0,0-1.289,1.35,14.433,14.433,0,0,0-.474,1.814,2.907,2.907,0,0,1,.124-1.959,2.876,2.876,0,0,1,1.443-1.66,6.35,6.35,0,0,1,2.608-.33C95.106,145.792,98,145.256,98.034,145.411Z" transform="translate(-38.081 -76.686)" fill="#eb996e"/>
          <path id="Trazado_208346" data-name="Trazado 208346" d="M99.931,148.912a3.681,3.681,0,0,1-1.567.361c-1.031.113-2.361.072-3.845.124a8.463,8.463,0,0,0-2.062.247,2.433,2.433,0,0,0-1.309.835,2.35,2.35,0,0,0-.412,1.412.763.763,0,0,1-.186-.412,1.814,1.814,0,0,1,.278-1.206,2.752,2.752,0,0,1,1.474-1.1,7.659,7.659,0,0,1,2.154-.309c1.526-.052,2.866,0,3.845,0a7.072,7.072,0,0,1,1.629.052Z" transform="translate(-37.979 -76.58)" fill="#eb996e"/>
          <path id="Trazado_208347" data-name="Trazado 208347" d="M97.932,152.44c.1,0-.443.959-1.763,1.258l.206-.289.072.7a7.68,7.68,0,0,1,0,2.835,7.6,7.6,0,0,1-.536-2.773l-.062-.7v-.247h.227C97.19,153.018,97.84,152.337,97.932,152.44Z" transform="translate(-37.815 -76.469)" fill="#eb996e"/>
          <path id="Trazado_208348" data-name="Trazado 208348" d="M121.13,232S135.8,264.379,135.8,284.635s-14.432,86.5-14.432,86.5-1.928,18.318-3.866,42.76a292.117,292.117,0,0,1-7.391,45.357H95.679l-23.472.639s-9.968-40.832-9.329-56.264S66.093,370.5,66.093,370.5,53.558,319.385,51.3,310.056c-.876-3.649-1.278-10.607-1.35-18.019A118.125,118.125,0,0,1,58.2,247.483l4.123-10.4Z" transform="translate(-39.231 -74.014)" fill="#263238"/>
          <path id="Trazado_208349" data-name="Trazado 208349" d="M98.216,294.85c-.155,0-1.9,36.245-3.886,80.973S90.8,456.848,91,456.848s1.9-36.245,3.886-80.984S98.34,294.85,98.216,294.85Z" transform="translate(-37.965 -72.075)" fill="#455a64"/>
          <path id="Trazado_208350" data-name="Trazado 208350" d="M101.093,282.171a10.616,10.616,0,0,0,.32-1.794c.175-1.155.371-2.845.546-4.927a111.1,111.1,0,0,0,.093-16.36,111.013,111.013,0,0,0-2.3-16.195c-.454-2.062-.876-3.69-1.206-4.8a10.39,10.39,0,0,0-.567-1.732,11.341,11.341,0,0,0,.35,1.783c.258,1.134.619,2.794,1.031,4.835a129.146,129.146,0,0,1,2.165,16.153,128.4,128.4,0,0,1,.062,16.287c-.124,2.062-.247,3.773-.35,4.938a10.792,10.792,0,0,0-.144,1.814Z" transform="translate(-37.749 -73.88)" fill="#455a64"/>
          <path id="Trazado_208351" data-name="Trazado 208351" d="M53.2,262.748a2.825,2.825,0,0,0,1.031.608,7.287,7.287,0,0,0,3.165.536c2.752-.072,6.381-1.484,9.69-3.948a22.761,22.761,0,0,0,6.69-8.061,20.752,20.752,0,0,0,1.185-2.969,4.36,4.36,0,0,0,.247-1.144c-.113,0-.526,1.587-1.794,3.917a23.9,23.9,0,0,1-6.68,7.793,19.04,19.04,0,0,1-9.381,3.989,8.721,8.721,0,0,1-4.154-.722Z" transform="translate(-39.13 -73.528)" fill="#455a64"/>
          <path id="Trazado_208352" data-name="Trazado 208352" d="M112,243.59a3.721,3.721,0,0,0,.237,1.031,20.814,20.814,0,0,0,1.031,2.7A28.872,28.872,0,0,0,126.092,261a19.814,19.814,0,0,0,2.629,1.186,3.979,3.979,0,0,0,1.031.309c0-.1-1.361-.649-3.443-1.845a31.863,31.863,0,0,1-12.649-13.494C112.546,245.043,112.093,243.559,112,243.59Z" transform="translate(-37.316 -73.657)" fill="#455a64"/>
          <path id="Trazado_208353" data-name="Trazado 208353" d="M91.912,242.963s.062-.227.186-.588a2.515,2.515,0,0,1,.938-1.247,2.268,2.268,0,1,1,0,3.67,2.515,2.515,0,0,1-.938-1.247c-.124-.361-.134-.588-.186-.588s-.093.227,0,.639a2.484,2.484,0,0,0,.907,1.526,2.7,2.7,0,0,0,2.587.454,2.773,2.773,0,0,0,0-5.237,2.7,2.7,0,0,0-2.587.454,2.484,2.484,0,0,0-.907,1.526C91.819,242.736,91.881,242.963,91.912,242.963Z" transform="translate(-37.938 -73.761)" fill="#455a64"/>
          <path id="Trazado_208354" data-name="Trazado 208354" d="M72.5,365.46a70.456,70.456,0,0,0,7.731,4.68,72.695,72.695,0,0,0,8.061,4.123,69.387,69.387,0,0,0-7.783-4.649,74.217,74.217,0,0,0-8.01-4.154Z" transform="translate(-38.535 -69.897)" fill="#455a64"/>
          <path id="Trazado_208355" data-name="Trazado 208355" d="M133.293,168.2c-4.474,6.8-22.607,34.379-27.977,42.533a1.268,1.268,0,0,0,1.216,1.948l32.224-4.062a1.227,1.227,0,0,0,.856-.505l30.771-42.059a1.258,1.258,0,0,0-1.1-2l-33.152,2.453a3.7,3.7,0,0,0-2.835,1.691Z" transform="translate(-37.529 -76.11)" fill="#e0e0e0"/>
          <path id="Trazado_208356" data-name="Trazado 208356" d="M133.3,168.21a2.915,2.915,0,0,1,.258-.392,3.669,3.669,0,0,1,1.031-.876,4.546,4.546,0,0,1,2.154-.515l2.989-.247,19.112-1.505,6.34-.484,3.361-.258c.3,0,.557-.052.9-.052a1.474,1.474,0,0,1,1.165,2.278L161.7,178.436l-20.617,28.1c-.464.639-.887,1.227-1.392,1.886a1.4,1.4,0,0,1-.577.392,3.269,3.269,0,0,1-.619.124l-1.134.134-4.515.567-8.814,1.1L107.375,212.8c-.34,0-.629.093-1.031.113a1.464,1.464,0,0,1-1.031-.443,1.546,1.546,0,0,1-.443-1.031,1.845,1.845,0,0,1,.392-1.031c.722-1.031,1.423-2.154,2.124-3.216q2.062-3.165,4.062-6.185l7.309-11.04L129.353,174l2.907-4.33c.33-.474.577-.845.773-1.113s.268-.381.268-.371a2.488,2.488,0,0,1-.227.4l-.722,1.144-2.825,4.381-10.463,16.061-7.216,11.082-4.041,6.185-2.062,3.227a1.216,1.216,0,0,0-.3.763,1.031,1.031,0,0,0,1.031,1.031c.268,0,.639-.082.959-.113l16.659-2.062,8.814-1.113,4.5-.567,1.134-.144a2.619,2.619,0,0,0,.505-.093,1.113,1.113,0,0,0,.371-.247c.443-.619.9-1.227,1.35-1.835l20.617-28.08,8.979-12.236a1.03,1.03,0,0,0-.814-1.6h-.845l-3.361.237-6.34.454-19.122,1.33-3,.2a4.659,4.659,0,0,0-2.113.454A4.526,4.526,0,0,0,133.3,168.21Z" transform="translate(-37.536 -76.116)" fill="#263238"/>
          <path id="Trazado_208357" data-name="Trazado 208357" d="M170.312,166a3.175,3.175,0,0,1-.67.1l-1.959.2-7.278.649-24.74,2.062.2-.113c-1.546,2.3-3.144,4.69-4.752,7.164-6.536,10.04-12.236,19.267-16.555,25.843-2.144,3.288-3.917,5.917-5.154,7.731l-1.453,2.062a4.123,4.123,0,0,1-.536.7,7.383,7.383,0,0,1,.454-.763c.33-.526.794-1.237,1.361-2.124l5.02-7.824c4.226-6.618,9.886-15.885,16.421-25.936,1.608-2.474,3.216-4.866,4.773-7.216l.072-.1h.124l24.74-1.835,7.3-.495,1.959-.1A4.858,4.858,0,0,1,170.312,166Z" transform="translate(-37.458 -76.051)" fill="#263238"/>
          <path id="Trazado_208358" data-name="Trazado 208358" d="M149.05,171.86Z" transform="translate(-36.173 -75.869)" fill="#fff"/>
          <path id="Trazado_208359" data-name="Trazado 208359" d="M149.888,172.345a.649.649,0,0,0-.794-.484,1.773,1.773,0,0,0-.866.484.866.866,0,0,0-.155,1.1.988.988,0,0,0,1.371-.082A1.134,1.134,0,0,0,149.888,172.345Z" transform="translate(-36.208 -75.87)" fill="#fff"/>
          <path id="Trazado_208360" data-name="Trazado 208360" d="M135.395,195.567s-1.268-3.093,1.959-3.422a111.575,111.575,0,0,1,11.7,0s4.629.485,3.649,3.8c0,0,2.742,2.453,1.268,5.092s-2.062,1.856-2.062,1.856.392,3.227-2.062,3.711c0,0-2.649,3.093-5.092,2.938s-12.8-5.154-13.484-6.185-1.67-1.526-1.082-2.618c0,0-1.268-2.866,1.474-3.3C131.683,197.464,131.879,195.093,135.395,195.567Z" transform="translate(-36.764 -75.248)" fill="#ffbe9d"/>
          <path id="Trazado_208361" data-name="Trazado 208361" d="M149.927,196.559a9.276,9.276,0,0,1-2.175.155h-5.257a30.924,30.924,0,0,1-5.278-.32c-1.392-.32-1.938-1.134-1.876-1.155a5.474,5.474,0,0,0,1.948.783c1.278.216,3.165.082,5.216.155s3.907.082,5.247.155A9.009,9.009,0,0,1,149.927,196.559Z" transform="translate(-36.597 -75.148)" fill="#eb996e"/>
          <path id="Trazado_208362" data-name="Trazado 208362" d="M147.738,201.409a2.344,2.344,0,0,1-.7.237,7.465,7.465,0,0,1-2.062.134,14.772,14.772,0,0,1-2.938-.536c-1.031-.3-2.227-.722-3.443-1.093a15.78,15.78,0,0,0-3.474-.711,5.4,5.4,0,0,1-2.959-.6,1.68,1.68,0,0,1-.7-1.031,1.371,1.371,0,0,1,.124-.917c.247-.464.6-.484.588-.464a1.16,1.16,0,0,0-.4.557,1.258,1.258,0,0,0,.608,1.515,5.288,5.288,0,0,0,2.773.423,14.731,14.731,0,0,1,3.6.691l3.433,1.134a16.263,16.263,0,0,0,2.835.629,17.792,17.792,0,0,0,2.721.031Z" transform="translate(-36.717 -75.112)" fill="#eb996e"/>
          <path id="Trazado_208363" data-name="Trazado 208363" d="M144.32,205.411a8.246,8.246,0,0,1-2.175-.423c-1.33-.33-3.144-.856-5.154-1.495s-3.752-1.309-5.02-1.825a8.794,8.794,0,0,1-2.01-.948c.062-.144,3.247.969,7.216,2.258A75.128,75.128,0,0,1,144.32,205.411Z" transform="translate(-36.762 -74.98)" fill="#eb996e"/>
          <path id="Trazado_208364" data-name="Trazado 208364" d="M145.041,209.136a4.568,4.568,0,0,1-1.814-.206,21.338,21.338,0,0,1-4.123-1.454c-1.557-.711-2.907-1.433-3.9-1.948a6.381,6.381,0,0,1-1.546-.938,34.208,34.208,0,0,1,5.659,2.4,60.707,60.707,0,0,0,5.721,2.144Z" transform="translate(-36.648 -74.86)" fill="#eb996e"/>
          <path id="Trazado_208365" data-name="Trazado 208365" d="M50.044,153.33s-13.257,5.515-9.968,23.06,5,23.4,5,23.4l26.132-13.752Z" transform="translate(-39.551 -76.441)" fill="#138af8"/>
          <path id="Trazado_208366" data-name="Trazado 208366" d="M70.495,185.34a5.567,5.567,0,0,1-.959.618c-.629.371-1.557.887-2.7,1.515-2.288,1.268-5.474,2.969-9.01,4.835s-6.742,3.515-9.082,4.69c-1.165.588-2.113,1.031-2.773,1.361a5.37,5.37,0,0,1-1.031.443,4.608,4.608,0,0,1,.959-.629c.629-.371,1.557-.887,2.7-1.515,2.288-1.258,5.474-2.969,9.01-4.824s6.742-3.515,9.071-4.69l2.783-1.371a4.865,4.865,0,0,1,1.031-.433Z" transform="translate(-39.385 -75.454)" fill="#263238"/>
          <path id="Trazado_208367" data-name="Trazado 208367" d="M70.01,185.841a16.947,16.947,0,0,1-1.433-2.412l-3.319-5.917c-1.258-2.227-2.4-4.237-3.34-5.907a14.2,14.2,0,0,1-1.268-2.515,13.855,13.855,0,0,1,1.587,2.319c.928,1.474,2.175,3.536,3.484,5.845s2.443,4.433,3.2,6A13.7,13.7,0,0,1,70.01,185.841Z" transform="translate(-38.901 -75.955)" fill="#263238"/>
        </g>
      </g>
    </g>
  </g>
</svg>
