<svg xmlns="http://www.w3.org/2000/svg" xmlns:xlink="http://www.w3.org/1999/xlink" width="470" height="402" viewBox="0 0 470 402">
  <defs>
    <clipPath id="clip-path">
      <rect id="Rectángulo_44967" data-name="Rectángulo 44967" width="399.394" height="296.493" fill="none"/>
    </clipPath>
    <clipPath id="clip-path-3">
      <rect id="Rectángulo_44951" data-name="Rectángulo 44951" width="16.446" height="10.31" fill="none"/>
    </clipPath>
    <clipPath id="clip-path-4">
      <rect id="Rectángulo_44952" data-name="Rectángulo 44952" width="1.949" height="1.949" fill="none"/>
    </clipPath>
    <clipPath id="clip-path-5">
      <rect id="Rectángulo_44953" data-name="Rectángulo 44953" width="11.814" height="4.066" fill="none"/>
    </clipPath>
    <clipPath id="clip-path-6">
      <rect id="Rectángulo_44954" data-name="Rectángulo 44954" width="1.788" height="1.78" fill="none"/>
    </clipPath>
    <clipPath id="clip-path-7">
      <rect id="Rectángulo_44955" data-name="Rectángulo 44955" width="22.904" height="2.523" fill="none"/>
    </clipPath>
    <clipPath id="clip-path-8">
      <rect id="Rectángulo_44956" data-name="Rectángulo 44956" width="11.45" height="2.413" fill="none"/>
    </clipPath>
    <clipPath id="clip-path-9">
      <rect id="Rectángulo_44957" data-name="Rectángulo 44957" width="24.898" height="5.277" fill="none"/>
    </clipPath>
    <clipPath id="clip-path-10">
      <rect id="Rectángulo_44958" data-name="Rectángulo 44958" width="24.77" height="10.879" fill="none"/>
    </clipPath>
    <clipPath id="clip-path-11">
      <rect id="Rectángulo_44959" data-name="Rectángulo 44959" width="18.171" height="11.303" fill="none"/>
    </clipPath>
    <clipPath id="clip-path-12">
      <rect id="Rectángulo_44960" data-name="Rectángulo 44960" width="26.216" height="5.556" fill="none"/>
    </clipPath>
    <clipPath id="clip-path-14">
      <rect id="Rectángulo_44962" data-name="Rectángulo 44962" width="1.948" height="1.948" fill="none"/>
    </clipPath>
    <clipPath id="clip-path-15">
      <rect id="Rectángulo_44963" data-name="Rectángulo 44963" width="24.882" height="2.84" fill="none"/>
    </clipPath>
    <clipPath id="clip-path-16">
      <rect id="Rectángulo_44964" data-name="Rectángulo 44964" width="28.927" height="16.682" fill="none"/>
    </clipPath>
  </defs>
  <g id="Grupo_146522" data-name="Grupo 146522" transform="translate(-17361 -599)">
    <rect id="Rectángulo_44914" data-name="Rectángulo 44914" width="190" height="402" transform="translate(17641 599)" fill="#4dd0e1"/>
    <rect id="Rectángulo_44915" data-name="Rectángulo 44915" width="459" height="384" rx="20" transform="translate(17361 608)" fill="#fff"/>
    <g id="Grupo_144125" data-name="Grupo 144125" transform="translate(17395 644.253)">
      <g id="Grupo_144124" data-name="Grupo 144124" clip-path="url(#clip-path)">
        <g id="Grupo_144123" data-name="Grupo 144123">
          <g id="Grupo_144122" data-name="Grupo 144122" clip-path="url(#clip-path)">
            <path id="Trazado_206211" data-name="Trazado 206211" d="M533,96.737a23.775,23.775,0,0,0-.532-3.409,13.456,13.456,0,0,0-1.573-3.7,13.881,13.881,0,0,0-16.666-5.883,13.87,13.87,0,0,0-6.416,4.824,13.764,13.764,0,0,0,0,16.335,13.859,13.859,0,0,0,6.418,4.826,13.926,13.926,0,0,0,16.667-5.883,13.473,13.473,0,0,0,1.572-3.7A23.791,23.791,0,0,0,533,96.737a.791.791,0,0,1,.013.228c0,.181-.005.4-.009.671a6.427,6.427,0,0,1-.087,1.088,9.793,9.793,0,0,1-.265,1.468,13.277,13.277,0,0,1-1.521,3.794,14.2,14.2,0,0,1-9.558,6.761,14.272,14.272,0,0,1-7.5-.593,14.279,14.279,0,0,1-6.651-4.965,14.2,14.2,0,0,1,0-16.9,14.28,14.28,0,0,1,6.65-4.965,14.276,14.276,0,0,1,7.5-.592,14.188,14.188,0,0,1,9.558,6.76,13.271,13.271,0,0,1,1.522,3.794,9.871,9.871,0,0,1,.265,1.469A6.417,6.417,0,0,1,533,95.838c0,.27.007.49.009.671a.792.792,0,0,1-.013.228" transform="translate(-168.334 -27.514)" fill="#e1e1e1"/>
            <path id="Trazado_206212" data-name="Trazado 206212" d="M564.554,131.715c-.076.113-5.05-3.094-11.109-7.161s-10.913-7.457-10.837-7.569,5.049,3.093,11.111,7.161,10.911,7.456,10.836,7.569" transform="translate(-181.001 -39.023)" fill="#e1e1e1"/>
            <rect id="Rectángulo_44943" data-name="Rectángulo 44943" width="56.874" height="73.325" transform="translate(19.23 215.334)" fill="#ececec"/>
            <rect id="Rectángulo_44944" data-name="Rectángulo 44944" width="56.874" height="73.325" transform="translate(0.518 215.334)" fill="#f5f5f5"/>
            <path id="Trazado_206213" data-name="Trazado 206213" d="M15.515,332.167v-3.183h-5.37v3.183a2.693,2.693,0,0,0,2.344,2.66V337.6H11.3c-.418,0-.76.241-.76.534h4.588c0-.294-.342-.534-.76-.534H13.171v-2.772a2.692,2.692,0,0,0,2.344-2.66" transform="translate(-3.384 -109.742)" fill="#e1e1e1" fill-rule="evenodd"/>
            <path id="Trazado_206214" data-name="Trazado 206214" d="M29.838,331.955a3.913,3.913,0,0,0-3.783-2.97h0a3.913,3.913,0,0,0-3.783,2.97h3.422v4.99a.759.759,0,0,1-1.512,0h-.728a1.486,1.486,0,0,0,2.97,0v-4.99Z" transform="translate(-7.429 -109.742)" fill="#e1e1e1" fill-rule="evenodd"/>
            <path id="Trazado_206215" data-name="Trazado 206215" d="M76.245,375.682c0,.1-17.07.173-38.121.173S0,375.778,0,375.682s17.066-.173,38.125-.173,38.121.077,38.121.173" transform="translate(0 -125.261)" fill="#e1e1e1"/>
            <path id="Trazado_206216" data-name="Trazado 206216" d="M43.361,396.7c-.1,0-.173-16.507-.173-36.864s.077-36.868.173-36.868.173,16.5.173,36.868-.077,36.864-.173,36.864" transform="translate(-14.407 -107.734)" fill="#e1e1e1"/>
            <rect id="Rectángulo_44945" data-name="Rectángulo 44945" width="56.874" height="73.325" transform="translate(301.444 179.146)" fill="#ececec"/>
            <rect id="Rectángulo_44946" data-name="Rectángulo 44946" width="56.874" height="73.325" transform="translate(282.733 179.146)" fill="#f5f5f5"/>
            <path id="Trazado_206217" data-name="Trazado 206217" d="M438.992,277.866v-3.184h-5.37v3.184a2.693,2.693,0,0,0,2.344,2.66V283.3h-1.194c-.418,0-.76.241-.76.535H438.6c0-.294-.342-.535-.76-.535h-1.194v-2.771a2.692,2.692,0,0,0,2.344-2.66" transform="translate(-144.647 -91.628)" fill="#e1e1e1" fill-rule="evenodd"/>
            <path id="Trazado_206218" data-name="Trazado 206218" d="M453.315,277.652a3.913,3.913,0,0,0-3.783-2.97h0a3.913,3.913,0,0,0-3.783,2.97h3.422v4.99a.759.759,0,0,1-1.512,0h-.728a1.486,1.486,0,0,0,2.97,0v-4.99Z" transform="translate(-148.691 -91.628)" fill="#e1e1e1" fill-rule="evenodd"/>
            <path id="Trazado_206219" data-name="Trazado 206219" d="M499.722,321.38c0,.1-17.07.173-38.121.173s-38.125-.077-38.125-.173,17.066-.173,38.125-.173,38.121.077,38.121.173" transform="translate(-141.262 -107.147)" fill="#e1e1e1"/>
            <path id="Trazado_206220" data-name="Trazado 206220" d="M466.839,342.394c-.1,0-.173-16.507-.173-36.864s.077-36.868.173-36.868.173,16.5.173,36.868-.077,36.864-.173,36.864" transform="translate(-155.669 -89.62)" fill="#e1e1e1"/>
            <rect id="Rectángulo_44947" data-name="Rectángulo 44947" width="47.773" height="47.773" transform="translate(245.022 204.442)" fill="#ececec"/>
            <rect id="Rectángulo_44948" data-name="Rectángulo 44948" width="47.773" height="47.773" transform="translate(226.1 204.442)" fill="#f5f5f5"/>
            <path id="Trazado_206221" data-name="Trazado 206221" d="M354.291,316.728h1.361l-1.172-2.148-1.171-2.149-1.172,2.149-1.172,2.148h1.361v5.4H348.98v-5.4h1.36l-1.171-2.148L348,312.431l-1.172,2.149-1.171,2.148h1.359v5.4h-.79v.752h8.854v-.752h-.79Z" transform="translate(-115.303 -104.22)" fill="#e1e1e1" fill-rule="evenodd"/>
            <path id="Trazado_206222" data-name="Trazado 206222" d="M375.828,354.664c-.1,0-.173-10.6-.173-23.672s.077-23.674.173-23.674.173,10.6.173,23.674-.077,23.672-.173,23.672" transform="translate(-125.31 -102.514)" fill="#e1e1e1"/>
            <path id="Trazado_206223" data-name="Trazado 206223" d="M406.207,342.439c0,.1-15.133.173-33.8.173s-33.8-.077-33.8-.173,15.13-.173,33.8-.173,33.8.077,33.8.173" transform="translate(-112.953 -114.172)" fill="#e1e1e1"/>
            <path id="Trazado_206224" data-name="Trazado 206224" d="M420.321,415.532H137.191a18.624,18.624,0,1,1,0-37.248h283.13a18.624,18.624,0,0,1,0,37.248" transform="translate(-39.551 -126.187)" fill="#e1e1e1" fill-rule="evenodd"/>
            <path id="Trazado_206225" data-name="Trazado 206225" d="M426.135,411.5H141.422a10.554,10.554,0,1,1,0-21.109H426.135a10.554,10.554,0,1,1,0,21.109" transform="translate(-43.654 -130.226)" fill="#ececec" fill-rule="evenodd"/>
            <path id="Trazado_206226" data-name="Trazado 206226" d="M153,401.822a15.92,15.92,0,0,0-.337-2.1,8.638,8.638,0,0,0-3.161-4.691,8.512,8.512,0,0,0-8.066-1.2,8.521,8.521,0,0,0-3.945,2.967,8.465,8.465,0,0,0,0,10.044,8.534,8.534,0,0,0,3.945,2.968,8.586,8.586,0,0,0,11.227-5.89,15.921,15.921,0,0,0,.337-2.1,3.281,3.281,0,0,1,.007.554,3.91,3.91,0,0,1-.051.671,6.009,6.009,0,0,1-.161.906,8.728,8.728,0,0,1-6.835,6.522,8.816,8.816,0,0,1-4.633-.365,8.82,8.82,0,0,1-4.11-3.067,8.775,8.775,0,0,1,0-10.446,8.819,8.819,0,0,1,4.109-3.066,8.814,8.814,0,0,1,4.632-.365,8.729,8.729,0,0,1,6.835,6.522,5.936,5.936,0,0,1,.161.906,3.922,3.922,0,0,1,.051.672,3.28,3.28,0,0,1-.007.554" transform="translate(-45.196 -131.101)" fill="#e1e1e1"/>
            <path id="Trazado_206227" data-name="Trazado 206227" d="M150.319,404.662a3.132,3.132,0,1,1-3.132-3.132,3.132,3.132,0,0,1,3.132,3.132" transform="translate(-48.054 -133.941)" fill="#e1e1e1" fill-rule="evenodd"/>
            <path id="Trazado_206228" data-name="Trazado 206228" d="M577,401.822a15.925,15.925,0,0,0-.337-2.1,8.638,8.638,0,0,0-3.161-4.691,8.513,8.513,0,0,0-8.066-1.2,8.521,8.521,0,0,0-3.945,2.967,8.466,8.466,0,0,0,0,10.044,8.534,8.534,0,0,0,3.945,2.968,8.586,8.586,0,0,0,11.227-5.89,15.927,15.927,0,0,0,.337-2.1,3.279,3.279,0,0,1,.007.554,3.906,3.906,0,0,1-.051.671,6.009,6.009,0,0,1-.161.906,8.728,8.728,0,0,1-6.835,6.522,8.817,8.817,0,0,1-4.633-.365,8.82,8.82,0,0,1-4.11-3.067,8.775,8.775,0,0,1,0-10.446,8.818,8.818,0,0,1,4.109-3.066,8.814,8.814,0,0,1,4.632-.365,8.729,8.729,0,0,1,6.835,6.522,5.927,5.927,0,0,1,.161.906,3.917,3.917,0,0,1,.051.672,3.279,3.279,0,0,1-.007.554" transform="translate(-186.635 -131.101)" fill="#e1e1e1"/>
            <path id="Trazado_206229" data-name="Trazado 206229" d="M574.325,404.662a3.132,3.132,0,1,1-3.132-3.132,3.132,3.132,0,0,1,3.132,3.132" transform="translate(-189.492 -133.941)" fill="#e1e1e1" fill-rule="evenodd"/>
            <path id="Trazado_206230" data-name="Trazado 206230" d="M432.118,393.006c0,.1-63.438.173-141.675.173-78.264,0-141.689-.077-141.689-.173s63.425-.173,141.689-.173c78.237,0,141.675.077,141.675.173" transform="translate(-49.621 -131.04)" fill="#e1e1e1"/>
            <path id="Trazado_206231" data-name="Trazado 206231" d="M432.706,419.147c0,.1-63.176.173-141.088.173-77.939,0-141.1-.077-141.1-.173s63.161-.173,141.1-.173c77.913,0,141.088.077,141.088.173" transform="translate(-50.209 -139.76)" fill="#e1e1e1"/>
            <path id="Trazado_206232" data-name="Trazado 206232" d="M175.853,213.275H48.243a4.241,4.241,0,0,1-4.24-4.24V29.083a4.241,4.241,0,0,1,4.24-4.24H175.853a4.241,4.241,0,0,1,4.24,4.24V209.035a4.241,4.241,0,0,1-4.24,4.24" transform="translate(-14.678 -8.287)" fill="#ff4f5b"/>
            <path id="Trazado_206233" data-name="Trazado 206233" d="M175.853,213.275H48.243a4.241,4.241,0,0,1-4.24-4.24V29.083a4.241,4.241,0,0,1,4.24-4.24H175.853a4.241,4.241,0,0,1,4.24,4.24V209.035a4.241,4.241,0,0,1-4.24,4.24" transform="translate(-14.678 -8.287)" fill="#4dd0e1"/>
            <rect id="Rectángulo_44949" data-name="Rectángulo 44949" width="116.992" height="171.755" transform="translate(38.873 26.637)" fill="#e1e1e1"/>
            <rect id="Rectángulo_44950" data-name="Rectángulo 44950" width="116.992" height="168.475" transform="translate(37.262 25.26)" fill="#ececec"/>
            <path id="Trazado_206234" data-name="Trazado 206234" d="M172.82,206.292c0-1.408-.065-69.066-.159-168.475l.159.158L55.841,37.99h-.013L56,37.817c-.012,63.263-.024,121.713-.033,168.475l-.139-.14,116.992.14-116.992.14h-.14v-.14c-.009-46.762-.021-105.211-.034-168.475v-.174h.187l116.978.015h.158v.159c-.094,99.409-.157,167.067-.158,168.475" transform="translate(-18.565 -12.557)" fill="#1a2e35"/>
            <path id="Trazado_206235" data-name="Trazado 206235" d="M169.194,275.481s30.062-11.446,41.222-30.423a31.232,31.232,0,0,1-24.023,5s-7.959,21.24-17.2,25.425" transform="translate(-56.439 -81.746)" fill="#e1e1e1"/>
            <path id="Trazado_206236" data-name="Trazado 206236" d="M169.194,275.138l.5-.279a12.9,12.9,0,0,0,1.435-.918,23.71,23.71,0,0,0,4.5-4.5c3.4-4.308,7.249-11.185,10.619-19.779l.049-.125.129.027a30.738,30.738,0,0,0,10.88.217c.953-.114,1.891-.368,2.847-.568.94-.269,1.9-.521,2.83-.87a31.972,31.972,0,0,0,5.5-2.551,21.308,21.308,0,0,0,1.831-1.209l.719-.548-.462.773a47.238,47.238,0,0,1-6.462,8.364,70.679,70.679,0,0,1-7.323,6.532,104.322,104.322,0,0,1-13.859,9.018c-4.121,2.259-7.563,3.859-9.96,4.908-1.2.523-2.14.9-2.78,1.156l-.732.277a1.951,1.951,0,0,1-.254.081c.011,0,.075-.045.241-.113l.719-.307c.631-.271,1.562-.672,2.752-1.214,2.377-1.085,5.8-2.716,9.9-5a106.434,106.434,0,0,0,13.781-9.056,71,71,0,0,0,7.275-6.518,47.192,47.192,0,0,0,6.407-8.306l.257.224a21.542,21.542,0,0,1-1.868,1.235,32.171,32.171,0,0,1-5.559,2.577c-.944.353-1.91.607-2.861.878-.967.2-1.915.456-2.878.57a30.926,30.926,0,0,1-11-.244l.178-.1c-3.409,8.617-7.305,15.487-10.766,19.786a22.973,22.973,0,0,1-4.588,4.468,11.332,11.332,0,0,1-1.991,1.116" transform="translate(-56.439 -81.403)" fill="#1a2e35"/>
            <path id="Trazado_206237" data-name="Trazado 206237" d="M88.467,121.1H78.722a2.279,2.279,0,0,1-2.278-2.278v-9.744a2.279,2.279,0,0,1,2.278-2.278h9.744a2.279,2.279,0,0,1,2.278,2.278v9.744a2.279,2.279,0,0,1-2.278,2.278" transform="translate(-25.5 -35.626)" fill="#0f2771"/>
            <path id="Trazado_206238" data-name="Trazado 206238" d="M84.659,117.785h-.011a.333.333,0,0,1-.242-.117l-2-2.337a.333.333,0,1,1,.506-.433l1.766,2.061,4.642-4.748a.333.333,0,0,1,.476.466l-4.9,5.008a.333.333,0,0,1-.238.1" transform="translate(-27.461 -37.398)" fill="#fff"/>
            <path id="Trazado_206239" data-name="Trazado 206239" d="M176.953,109.325c0,.1-15.221.173-33.992.173s-34-.077-34-.173,15.218-.173,34-.173,33.992.077,33.992.173" transform="translate(-36.348 -36.411)" fill="#1a2e35"/>
            <path id="Trazado_206240" data-name="Trazado 206240" d="M137.611,125.02a7,7,0,0,1-1.126.067l-3.07.055c-2.592.031-6.172.051-10.127.051s-7.537-.019-10.128-.051l-3.07-.055a7.012,7.012,0,0,1-1.126-.067,7.008,7.008,0,0,1,1.126-.067l3.07-.055c2.592-.031,6.172-.051,10.128-.051s7.535.019,10.127.051l3.07.055a7,7,0,0,1,1.126.067" transform="translate(-36.348 -41.646)" fill="#1a2e35"/>
            <path id="Trazado_206241" data-name="Trazado 206241" d="M176.953,116.28c0,.1-15.221.174-33.992.174s-34-.078-34-.174,15.218-.173,34-.173,33.992.077,33.992.173" transform="translate(-36.348 -38.731)" fill="#1a2e35"/>
            <path id="Trazado_206242" data-name="Trazado 206242" d="M88.467,158.769H78.722a2.279,2.279,0,0,1-2.278-2.279v-9.744a2.278,2.278,0,0,1,2.278-2.278h9.744a2.278,2.278,0,0,1,2.278,2.278v9.744a2.279,2.279,0,0,1-2.278,2.279" transform="translate(-25.5 -48.191)" fill="#0f2771"/>
            <path id="Trazado_206243" data-name="Trazado 206243" d="M84.659,155.452h-.011a.333.333,0,0,1-.242-.117L82.4,153a.333.333,0,1,1,.506-.433l1.766,2.061,4.642-4.748a.333.333,0,0,1,.476.466l-4.9,5.008a.333.333,0,0,1-.238.1" transform="translate(-27.461 -49.963)" fill="#fff"/>
            <path id="Trazado_206244" data-name="Trazado 206244" d="M176.953,146.992c0,.1-15.221.173-33.992.173s-34-.077-34-.173,15.218-.173,34-.173,33.992.077,33.992.173" transform="translate(-36.348 -48.976)" fill="#1a2e35"/>
            <path id="Trazado_206245" data-name="Trazado 206245" d="M137.611,162.687a7,7,0,0,1-1.126.067l-3.07.055c-2.592.031-6.172.051-10.127.051s-7.537-.019-10.128-.051l-3.07-.055a7.012,7.012,0,0,1-1.126-.067,7.012,7.012,0,0,1,1.126-.067l3.07-.055c2.592-.031,6.172-.051,10.128-.051s7.535.019,10.127.051l3.07.055a7,7,0,0,1,1.126.067" transform="translate(-36.348 -54.211)" fill="#1a2e35"/>
            <path id="Trazado_206246" data-name="Trazado 206246" d="M176.953,153.948c0,.1-15.221.173-33.992.173s-34-.077-34-.173,15.218-.173,34-.173,33.992.077,33.992.173" transform="translate(-36.348 -51.296)" fill="#1a2e35"/>
            <path id="Trazado_206247" data-name="Trazado 206247" d="M88.467,196.436H78.722a2.279,2.279,0,0,1-2.278-2.278v-9.744a2.278,2.278,0,0,1,2.278-2.278h9.744a2.278,2.278,0,0,1,2.278,2.278v9.744a2.279,2.279,0,0,1-2.278,2.278" transform="translate(-25.5 -60.756)" fill="#0f2771"/>
            <path id="Trazado_206248" data-name="Trazado 206248" d="M84.659,193.119h-.011a.33.33,0,0,1-.242-.116l-2-2.337a.333.333,0,1,1,.506-.433l1.766,2.061,4.642-4.748a.333.333,0,0,1,.476.466l-4.9,5.008a.333.333,0,0,1-.238.1" transform="translate(-27.461 -62.527)" fill="#fff"/>
            <path id="Trazado_206249" data-name="Trazado 206249" d="M176.953,184.659c0,.1-15.221.173-33.992.173s-34-.077-34-.173,15.218-.173,34-.173,33.992.077,33.992.173" transform="translate(-36.348 -61.54)" fill="#1a2e35"/>
            <path id="Trazado_206250" data-name="Trazado 206250" d="M137.611,200.354a7,7,0,0,1-1.126.067l-3.07.055c-2.592.031-6.172.051-10.127.051s-7.537-.019-10.128-.051l-3.07-.055a7.014,7.014,0,0,1-1.126-.067,7.011,7.011,0,0,1,1.126-.067l3.07-.055c2.592-.031,6.172-.051,10.128-.051s7.535.019,10.127.051l3.07.055a7,7,0,0,1,1.126.067" transform="translate(-36.348 -66.776)" fill="#1a2e35"/>
            <path id="Trazado_206251" data-name="Trazado 206251" d="M176.953,191.615c0,.1-15.221.173-33.992.173s-34-.077-34-.173,15.218-.173,34-.173,33.992.077,33.992.173" transform="translate(-36.348 -63.861)" fill="#1a2e35"/>
            <path id="Trazado_206252" data-name="Trazado 206252" d="M87.413,234.1H77.668a2.279,2.279,0,0,1-2.278-2.279V222.08a2.278,2.278,0,0,1,2.278-2.278h9.744a2.278,2.278,0,0,1,2.278,2.278v9.744a2.279,2.279,0,0,1-2.278,2.279" transform="translate(-25.148 -73.321)" fill="#0f2771"/>
            <path id="Trazado_206253" data-name="Trazado 206253" d="M84.659,230.786h-.011a.333.333,0,0,1-.242-.117l-2-2.337a.333.333,0,1,1,.506-.433l1.766,2.061,4.642-4.748a.333.333,0,0,1,.476.466l-4.9,5.008a.333.333,0,0,1-.238.1" transform="translate(-27.461 -75.092)" fill="#fff"/>
            <path id="Trazado_206254" data-name="Trazado 206254" d="M176.953,222.326c0,.1-15.221.173-33.992.173s-34-.077-34-.173,15.218-.173,34-.173,33.992.077,33.992.173" transform="translate(-36.348 -74.105)" fill="#1a2e35"/>
            <path id="Trazado_206255" data-name="Trazado 206255" d="M137.611,238.021a7,7,0,0,1-1.126.067l-3.07.055c-2.592.031-6.172.051-10.127.051s-7.537-.019-10.128-.051l-3.07-.055a7.012,7.012,0,0,1-1.126-.067,7.012,7.012,0,0,1,1.126-.067l3.07-.055c2.592-.031,6.172-.051,10.128-.051s7.535.019,10.127.051l3.07.055a7,7,0,0,1,1.126.067" transform="translate(-36.348 -79.341)" fill="#1a2e35"/>
            <path id="Trazado_206256" data-name="Trazado 206256" d="M176.953,229.282c0,.1-15.221.173-33.992.173s-34-.077-34-.173,15.218-.173,34-.173,33.992.077,33.992.173" transform="translate(-36.348 -76.426)" fill="#1a2e35"/>
            <path id="Trazado_206257" data-name="Trazado 206257" d="M81.307,22.168v8.819a9.266,9.266,0,0,0,9.266,9.266h64.71a9.266,9.266,0,0,0,9.266-9.266v-8.8Z" transform="translate(-27.122 -7.395)" fill="#1a2e35"/>
            <path id="Trazado_206258" data-name="Trazado 206258" d="M139.341,17.376a8.688,8.688,0,1,1,8.688-8.688,8.7,8.7,0,0,1-8.688,8.688m0-14.044A5.356,5.356,0,1,0,144.7,8.688a5.362,5.362,0,0,0-5.356-5.356" transform="translate(-43.583)" fill="#1a2e35"/>
            <path id="Trazado_206259" data-name="Trazado 206259" d="M497.87,401.28l3.464,14.743,6.853,11.762a1.694,1.694,0,0,1-2.263,2.347c-3.078-1.661-14.368-7.824-14.6-9.015-.267-1.378-4.73-16.892-4.73-16.892Z" transform="translate(-162.318 -133.858)" fill="#bddcf6"/>
            <g id="Grupo_144082" data-name="Grupo 144082" transform="translate(328.711 286.183)" opacity="0.6">
              <g id="Grupo_144081" data-name="Grupo 144081">
                <g id="Grupo_144080" data-name="Grupo 144080" clip-path="url(#clip-path-3)">
                  <path id="Trazado_206260" data-name="Trazado 206260" d="M509.694,439.547l-16.446-10.115.187.675a2.544,2.544,0,0,0,1.024,1.433c1.341.91,5.1,3.341,13.636,8a1.694,1.694,0,0,0,1.6.011" transform="translate(-493.248 -429.432)" fill="#fff"/>
                </g>
              </g>
            </g>
            <g id="Grupo_144085" data-name="Grupo 144085" transform="translate(329.277 280.078)" opacity="0.6">
              <g id="Grupo_144084" data-name="Grupo 144084">
                <g id="Grupo_144083" data-name="Grupo 144083" clip-path="url(#clip-path-4)">
                  <path id="Trazado_206261" data-name="Trazado 206261" d="M495.38,420.329a1.025,1.025,0,0,1,.627,1.216.985.985,0,0,1-1.2.632,1.081,1.081,0,0,1-.657-1.291,1.022,1.022,0,0,1,1.32-.519" transform="translate(-494.097 -420.271)" fill="#fff"/>
                </g>
              </g>
            </g>
            <path id="Trazado_206262" data-name="Trazado 206262" d="M509.547,434.388a3.656,3.656,0,0,1,2.793-2.484c0-.043-.233-.111-.62-.061a2.7,2.7,0,0,0-2.161,1.921c-.1.379-.055.622-.012.624" transform="translate(-169.958 -144.047)" fill="#1a2e35"/>
            <path id="Trazado_206263" data-name="Trazado 206263" d="M512.15,437.507c.1.048.463-.612,1.222-1.076a13.836,13.836,0,0,1,1.5-.631,1.88,1.88,0,0,0-1.694.323c-.862.534-1.124,1.363-1.03,1.383" transform="translate(-170.836 -145.345)" fill="#1a2e35"/>
            <path id="Trazado_206264" data-name="Trazado 206264" d="M505.259,430.931a8.7,8.7,0,0,1,3.987-2.992,4.631,4.631,0,0,0-3.987,2.992" transform="translate(-168.539 -142.742)" fill="#1a2e35"/>
            <path id="Trazado_206265" data-name="Trazado 206265" d="M502.808,424.548c.069.084.847-.528,1.982-.886,1.129-.374,2.119-.334,2.125-.443a4.2,4.2,0,0,0-4.107,1.328" transform="translate(-167.724 -141.131)" fill="#1a2e35"/>
            <path id="Trazado_206266" data-name="Trazado 206266" d="M500.849,417.546a5.381,5.381,0,0,1,4.3-1.03c.017-.041-.213-.193-.638-.3a3.691,3.691,0,0,0-3.229.774c-.33.292-.465.531-.432.56" transform="translate(-167.07 -138.806)" fill="#1a2e35"/>
            <path id="Trazado_206267" data-name="Trazado 206267" d="M502.046,413.906a1.439,1.439,0,0,0-.146-.609,4.35,4.35,0,0,0-.916-1.446,1.928,1.928,0,0,0-1.042-.667.681.681,0,0,0-.7.351,1.107,1.107,0,0,0-.053.789A2.4,2.4,0,0,0,501.8,413.9a2.78,2.78,0,0,0,2.244-2.128.97.97,0,0,0-.171-.785.669.669,0,0,0-.768-.155,2.371,2.371,0,0,0-.9.836,4.821,4.821,0,0,0-.744,1.539,1.47,1.47,0,0,0-.094.618,7.758,7.758,0,0,1,1.043-2,2.208,2.208,0,0,1,.8-.709.356.356,0,0,1,.419.081.665.665,0,0,1,.082.522,2.481,2.481,0,0,1-1.967,1.822,2.079,2.079,0,0,1-2.238-1.306.805.805,0,0,1,.014-.552.368.368,0,0,1,.383-.2,1.739,1.739,0,0,1,.892.548,6.461,6.461,0,0,1,1.244,1.875" transform="translate(-166.503 -137.025)" fill="#1a2e35"/>
            <g id="Grupo_144088" data-name="Grupo 144088" transform="translate(324.784 270.265)" opacity="0.3">
              <g id="Grupo_144087" data-name="Grupo 144087">
                <g id="Grupo_144086" data-name="Grupo 144086" clip-path="url(#clip-path-5)">
                  <path id="Trazado_206268" data-name="Trazado 206268" d="M487.355,407.406l.631,2.206,11.183-2.46-.377-1.605Z" transform="translate(-487.355 -405.546)"/>
                </g>
              </g>
            </g>
            <path id="Trazado_206269" data-name="Trazado 206269" d="M431.279,406.867l.778,11.778s-11.711,4.746-11.779,6.937l22.892-.688-.458-18.4Z" transform="translate(-140.195 -135.597)" fill="#bddcf6"/>
            <g id="Grupo_144091" data-name="Grupo 144091" transform="translate(297.816 281.811)" opacity="0.6">
              <g id="Grupo_144090" data-name="Grupo 144090">
                <g id="Grupo_144089" data-name="Grupo 144089" clip-path="url(#clip-path-6)">
                  <path id="Trazado_206270" data-name="Trazado 206270" d="M447.982,422.9a.935.935,0,0,1,.678,1.048.9.9,0,0,1-1.032.681.986.986,0,0,1-.712-1.113.932.932,0,0,1,1.152-.59" transform="translate(-446.888 -422.871)" fill="#fff"/>
                </g>
              </g>
            </g>
            <g id="Grupo_144094" data-name="Grupo 144094" transform="translate(280.07 287.463)" opacity="0.6">
              <g id="Grupo_144093" data-name="Grupo 144093">
                <g id="Grupo_144092" data-name="Grupo 144092" clip-path="url(#clip-path-7)">
                  <path id="Trazado_206271" data-name="Trazado 206271" d="M443.164,433.187l-.046-1.835-21.977,1.335s-1.006.474-.868,1.188Z" transform="translate(-420.259 -431.352)" fill="#fff"/>
                </g>
              </g>
            </g>
            <path id="Trazado_206272" data-name="Trazado 206272" d="M437.392,424.513c.007.112.567.146,1.128.488s.868.8.969.756c.1-.025-.084-.688-.77-1.091s-1.355-.256-1.327-.154" transform="translate(-145.904 -141.57)" fill="#1a2e35"/>
            <path id="Trazado_206273" data-name="Trazado 206273" d="M433.833,426.144c-.022.109.468.285.862.746s.518.958.629.95c.106.014.163-.642-.337-1.207s-1.154-.6-1.154-.489" transform="translate(-144.717 -142.136)" fill="#1a2e35"/>
            <path id="Trazado_206274" data-name="Trazado 206274" d="M431.441,429.589c.1.021.241-.542-.065-1.146s-.835-.832-.88-.737c-.061.093.289.412.532.911s.3.964.413.972" transform="translate(-143.602 -142.666)" fill="#1a2e35"/>
            <path id="Trazado_206275" data-name="Trazado 206275" d="M437.57,420.295c.05.1.558-.069,1.192-.045s1.132.209,1.187.111c.062-.083-.431-.482-1.177-.5s-1.259.349-1.2.435" transform="translate(-145.962 -140.056)" fill="#1a2e35"/>
            <g id="Grupo_144097" data-name="Grupo 144097" transform="translate(291.13 271.376)" opacity="0.3">
              <g id="Grupo_144096" data-name="Grupo 144096">
                <g id="Grupo_144095" data-name="Grupo 144095" clip-path="url(#clip-path-8)">
                  <path id="Trazado_206276" data-name="Trazado 206276" d="M436.855,407.526l.136,2.1,11.314-.331v-2.081Z" transform="translate(-436.855 -407.213)"/>
                </g>
              </g>
            </g>
            <path id="Trazado_206277" data-name="Trazado 206277" d="M437.4,415.976a2.143,2.143,0,0,0,1.146-.041,5.154,5.154,0,0,0,1.188-.4,5.452,5.452,0,0,0,.648-.369,1.411,1.411,0,0,0,.339-.281.486.486,0,0,0,.033-.6.613.613,0,0,0-.5-.241,1.5,1.5,0,0,0-.428.073,4.111,4.111,0,0,0-.706.266,4.047,4.047,0,0,0-1.036.726c-.516.508-.685.931-.646.951.051.035.3-.322.828-.744a4.6,4.6,0,0,1,1.006-.607,4.33,4.33,0,0,1,.652-.223c.241-.071.447-.079.513.027.023.041.027.057-.021.129a1.158,1.158,0,0,1-.249.2,5.943,5.943,0,0,1-.6.365,6.315,6.315,0,0,1-1.1.458,7.892,7.892,0,0,0-1.077.307" transform="translate(-145.908 -138.116)" fill="#1a2e35"/>
            <path id="Trazado_206278" data-name="Trazado 206278" d="M436.837,415.369a1.828,1.828,0,0,0,.269-1.116,3.72,3.72,0,0,0-.507-1.938.951.951,0,0,0-.748-.557.537.537,0,0,0-.47.335,1.55,1.55,0,0,0-.1.424,2.561,2.561,0,0,0,.022.772,2.644,2.644,0,0,0,.525,1.169c.466.58.936.7.944.662.035-.057-.361-.261-.72-.821a2.64,2.64,0,0,1-.4-1.067,2.35,2.35,0,0,1,0-.663c.028-.244.113-.443.205-.421.114-.005.313.173.413.364a3.834,3.834,0,0,1,.3.612,4.121,4.121,0,0,1,.257,1.138c.051.671-.055,1.093.006,1.108" transform="translate(-145.192 -137.353)" fill="#1a2e35"/>
            <path id="Trazado_206279" data-name="Trazado 206279" d="M476.394,119.705a2.079,2.079,0,0,0-.278,2.6,7.032,7.032,0,0,0,2.029,1.963,4.762,4.762,0,0,1,1.813,2.135c.547,1.661-.661,3.558-.011,5.182.566,1.416,2.3,2.014,3.074,3.331.79,1.354.358,3.074-.216,4.532s-1.284,2.989-.982,4.526a8.538,8.538,0,0,1,.542,2.52c-.141,1.244-1.4,2.035-2.579,2.446a11.965,11.965,0,0,1-6.069.462,5.413,5.413,0,0,1-3.749-2.161,6.728,6.728,0,0,1-.656-3.711,108.657,108.657,0,0,1,2.732-21.966" transform="translate(-156.549 -39.931)" fill="#1a2e35"/>
            <path id="Trazado_206280" data-name="Trazado 206280" d="M417.81,179.41l7.072-16.844s4.924-15.332,12.768-15.075l1.891,13.79-10.865,23.4-11.66-5.015" transform="translate(-139.107 -49.198)" fill="#e1e1e1"/>
            <path id="Trazado_206281" data-name="Trazado 206281" d="M431.559,209.038S418.787,234.239,419,242.12c.119,4.385,6.818,99.5,6.818,99.5h19.272l-3.565-99.214,20.218,99.9,17.064-2.776L465.187,232.7s-2.332-14.541-7.132-20.508Z" transform="translate(-139.768 -69.73)" fill="#1a2e35"/>
            <path id="Trazado_206282" data-name="Trazado 206282" d="M452.183,243.468a39.365,39.365,0,0,1,.369,5.206,39.44,39.44,0,0,1,.022,5.219,39.221,39.221,0,0,1-.369-5.207,39.3,39.3,0,0,1-.022-5.219" transform="translate(-150.816 -81.215)" fill="#375a64"/>
            <path id="Trazado_206283" data-name="Trazado 206283" d="M483.795,254.091a1.9,1.9,0,0,1-.6.136,8.874,8.874,0,0,1-1.687.063,10.258,10.258,0,0,1-8.812-6.005,8.832,8.832,0,0,1-.559-1.593,1.906,1.906,0,0,1-.095-.612c.063-.017.243.848.874,2.1a10.656,10.656,0,0,0,8.61,5.867c1.394.131,2.266-.019,2.273.046" transform="translate(-157.459 -82.087)" fill="#375a64"/>
            <path id="Trazado_206284" data-name="Trazado 206284" d="M426.77,244.348a5.7,5.7,0,0,1-.67,1.547,15.7,15.7,0,0,1-5.585,5.83,5.693,5.693,0,0,1-1.516.736,20.966,20.966,0,0,0,7.771-8.112" transform="translate(-139.768 -81.509)" fill="#375a64"/>
            <path id="Trazado_206285" data-name="Trazado 206285" d="M452.662,358.767a1.515,1.515,0,0,1-.034-.265c-.016-.193-.038-.451-.065-.78-.051-.7-.124-1.711-.217-3l-.734-11.031c-.587-9.333-1.4-22.2-2.291-36.4-.869-14.223-1.663-27.091-2.177-36.418a33.751,33.751,0,0,1,1.17-10.975,7.768,7.768,0,0,1,1.384-2.668,2.884,2.884,0,0,1,.561-.547.134.134,0,1,1,.023.027,3.166,3.166,0,0,0-.53.564,7.983,7.983,0,0,0-1.31,2.665,34.467,34.467,0,0,0-1.054,10.924c.584,9.332,1.389,22.2,2.277,36.406.855,14.209,1.629,27.074,2.191,36.409.263,4.646.476,8.412.624,11.038.065,1.289.117,2.3.153,3,.013.33.023.588.031.781a1.481,1.481,0,0,1,0,.267" transform="translate(-149.149 -85.57)" fill="#375a64"/>
            <path id="Trazado_206286" data-name="Trazado 206286" d="M500.305,357.6c-.095.013-3.247-22.215-7.04-49.641s-6.792-49.68-6.7-49.694,3.246,22.211,7.04,49.646,6.791,49.676,6.7,49.689" transform="translate(-162.308 -86.151)" fill="#375a64"/>
            <path id="Trazado_206287" data-name="Trazado 206287" d="M464.176,188.853l3.631-18.377,2.808-19.767a18.326,18.326,0,0,0-8.968-4.269l-16.844.7-6.346,14.882.668,30.773Z" transform="translate(-146.259 -48.849)" fill="#e1e1e1"/>
            <path id="Trazado_206288" data-name="Trazado 206288" d="M467.447,146.9s-8.05,17.858-12.285,19.033c-1.9,7.565-3.58,47.575-3.58,47.575l26.5-1.1-7.844-25.946,3.153-13.016s-3.438-20.583.242-24.142a11.905,11.905,0,0,0-6.19-2.4" transform="translate(-150.638 -49.004)" fill="#727997"/>
            <path id="Trazado_206289" data-name="Trazado 206289" d="M441.131,146.4a68.039,68.039,0,0,0-.664,10.588,13.222,13.222,0,0,0,3.59,8.536l-3.514,47.793-18.76-2.734s3.87-11.96,6.954-17.164c0,0,1.469-2.47,4.156-7.151,0,0-1.876-15.25-1.945-17.4-.026-.811,4.86-20.873,4.86-20.873a7,7,0,0,1,5.323-1.591" transform="translate(-140.697 -48.812)" fill="#727997"/>
            <path id="Trazado_206290" data-name="Trazado 206290" d="M441.313,109.739c-2.4-.632-3.881-1.488-3.881-2.431,0-1.945,6.288-3.522,14.045-3.522s14.046,1.577,14.046,3.522c0,.938-1.461,1.79-3.844,2.421" transform="translate(-145.918 -34.621)" fill="#feca2e"/>
            <g id="Grupo_144100" data-name="Grupo 144100" transform="translate(293.294 69.774)" opacity="0.4">
              <g id="Grupo_144099" data-name="Grupo 144099">
                <g id="Grupo_144098" data-name="Grupo 144098" clip-path="url(#clip-path-9)">
                  <path id="Trazado_206291" data-name="Trazado 206291" d="M443.544,109.976c-2.131-.56-3.493-1.321-3.439-2.155.151-2.32,5.573-3.122,12.449-3.122S465,106.1,465,107.821c0,.831-1.295,1.586-3.407,2.146" transform="translate(-440.103 -104.699)"/>
                </g>
              </g>
            </g>
            <path id="Trazado_206292" data-name="Trazado 206292" d="M472.982,109.723a2.658,2.658,0,0,0,1.269,2.649,12.166,12.166,0,0,1,2.48,1.887,4.121,4.121,0,0,1,.357,4.06,9.253,9.253,0,0,1-2.64,3.31c-.812.706-1.873,1.4-2.89,1.05" transform="translate(-157.301 -36.601)" fill="#1a2e35"/>
            <path id="Trazado_206293" data-name="Trazado 206293" d="M478.337,150.507c-.334,0-1.567,3.14-2.486,5.969a18.934,18.934,0,0,0,1.541,15.22l5.829,10.246-17.549,5.895,2.567,8.216,24.57-6.592a7.162,7.162,0,0,0,4.335-10.52l-12.806-22.011s-4.161-6.429-6-6.422" transform="translate(-155.338 -50.206)" fill="#e1e1e1"/>
            <path id="Trazado_206294" data-name="Trazado 206294" d="M463.9,106.914a9.5,9.5,0,0,0-9.984-9.3,9.691,9.691,0,0,0-9.017,9.722,98.926,98.926,0,0,0,.307,10.545c.765,4.816,3.861,6.283,5.088,6.68a6.332,6.332,0,0,0,1.315.131.031.031,0,0,1,.032.033l-.264,5.7c.043,3.7,2.541,6.64,6.241,6.64s6.147-3.2,6.172-6.913Z" transform="translate(-148.408 -32.558)" fill="#ffc09d"/>
            <path id="Trazado_206295" data-name="Trazado 206295" d="M447.612,115.605a.775.775,0,0,0,.748.782.74.74,0,0,0,.8-.7.775.775,0,0,0-.746-.782.742.742,0,0,0-.8.7" transform="translate(-149.313 -38.33)" fill="#1a2e35"/>
            <path id="Trazado_206296" data-name="Trazado 206296" d="M446.854,113.524c.1.1.684-.333,1.517-.331s1.445.419,1.536.317c.044-.045-.054-.228-.32-.422a2.13,2.13,0,0,0-1.23-.379,2.05,2.05,0,0,0-1.208.39c-.257.2-.343.38-.3.425" transform="translate(-149.056 -37.597)" fill="#1a2e35"/>
            <path id="Trazado_206297" data-name="Trazado 206297" d="M459.848,115.605a.775.775,0,0,0,.747.782.741.741,0,0,0,.8-.7.775.775,0,0,0-.746-.782.742.742,0,0,0-.8.7" transform="translate(-153.395 -38.33)" fill="#1a2e35"/>
            <path id="Trazado_206298" data-name="Trazado 206298" d="M459.157,113.758c.1.1.684-.333,1.517-.331s1.445.419,1.536.317c.044-.045-.053-.228-.321-.422a2.124,2.124,0,0,0-1.229-.379,2.048,2.048,0,0,0-1.208.39c-.256.2-.344.38-.3.425" transform="translate(-153.16 -37.675)" fill="#1a2e35"/>
            <path id="Trazado_206299" data-name="Trazado 206299" d="M453.557,119.968a5.551,5.551,0,0,0-1.355-.245c-.213-.022-.414-.064-.451-.209a1.087,1.087,0,0,1,.143-.632l.63-1.621a27.866,27.866,0,0,0,1.414-4.242,28.008,28.008,0,0,0-1.753,4.118c-.21.57-.412,1.112-.6,1.631a1.232,1.232,0,0,0-.111.836.535.535,0,0,0,.351.312,1.442,1.442,0,0,0,.361.05,5.411,5.411,0,0,0,1.374,0" transform="translate(-150.588 -37.7)" fill="#1a2e35"/>
            <path id="Trazado_206300" data-name="Trazado 206300" d="M454.989,137.175a13.284,13.284,0,0,0,7.249-2.157s-1.271,4.256-7.32,3.691Z" transform="translate(-151.75 -45.039)" fill="#ff9b6c"/>
            <path id="Trazado_206301" data-name="Trazado 206301" d="M455.108,126.18a1.5,1.5,0,0,1,1.348-.558,1.372,1.372,0,0,1,.947.508.868.868,0,0,1,.067.994,1.01,1.01,0,0,1-1.094.277,3.166,3.166,0,0,1-1.066-.636.929.929,0,0,1-.238-.247.28.28,0,0,1,0-.311" transform="translate(-151.786 -41.902)" fill="#ff9b6c"/>
            <path id="Trazado_206302" data-name="Trazado 206302" d="M456.973,124.313c-.135-.008-.137.9-.912,1.54s-1.739.543-1.745.67c-.013.057.215.176.622.187a2.253,2.253,0,0,0,1.457-.508,1.963,1.963,0,0,0,.707-1.291c.035-.379-.067-.6-.129-.6" transform="translate(-151.549 -41.468)" fill="#1a2e35"/>
            <path id="Trazado_206303" data-name="Trazado 206303" d="M458.6,111.661c.082.227.915.119,1.893.237.981.1,1.77.385,1.9.181.058-.1-.079-.311-.4-.53a3.32,3.32,0,0,0-2.89-.319c-.359.145-.54.323-.5.431" transform="translate(-152.977 -37.039)" fill="#1a2e35"/>
            <path id="Trazado_206304" data-name="Trazado 206304" d="M447.31,110.943c.147.189.721-.007,1.412-.017.69-.033,1.276.127,1.411-.071.059-.1-.033-.286-.289-.465a2.045,2.045,0,0,0-2.275.07c-.245.195-.325.39-.26.482" transform="translate(-149.206 -36.72)" fill="#1a2e35"/>
            <path id="Trazado_206305" data-name="Trazado 206305" d="M460.223,123.727a.118.118,0,1,1-.038.025" transform="translate(-153.497 -41.27)" fill="#1a2e35"/>
            <path id="Trazado_206306" data-name="Trazado 206306" d="M452.9,105.885a5.317,5.317,0,0,0,3.921,2.276c1.024.08,2.186-.1,2.959.575a4.44,4.44,0,0,1,.974,1.993,4.824,4.824,0,0,0,2.065,2.63c.777.438,1.741.621,2.3,1.314a4.3,4.3,0,0,1,.548,2.705,2.625,2.625,0,0,0,1.082,2.442q.045-5.134.09-10.269a4.07,4.07,0,0,0-.177-1.509,3.765,3.765,0,0,0-2.738-1.887,41.6,41.6,0,0,0-9.7-1.058" transform="translate(-151.079 -35.059)" fill="#1a2e35"/>
            <path id="Trazado_206307" data-name="Trazado 206307" d="M440.33,100.837s2.009-8.256,2.18-8.658,2.525-4.017,8.15-5.05h4.648s6.6,2.123,7.805,3.73,1.721,9.412,1.721,9.412L451.8,97.437,442.933,99.6Z" transform="translate(-146.884 -29.064)" fill="#feca2e"/>
            <path id="Trazado_206308" data-name="Trazado 206308" d="M456.507,85.709h-2a3.231,3.231,0,0,0-.792,2.1c-.093,1.445-.419,11.359-.419,11.359l5.827-.265-.187-12.246,1.979.439-.063-.694-.524-.618Z" transform="translate(-151.211 -28.591)" fill="#feca2e"/>
            <path id="Trazado_206309" data-name="Trazado 206309" d="M444.049,105.992l.114-3,8.77-2.612,10.953,3.227v3.227a26.93,26.93,0,0,0-19.837-.839" transform="translate(-148.125 -33.484)" fill="#375a64"/>
            <path id="Trazado_206310" data-name="Trazado 206310" d="M443.269,102.331l-.385.374-3.157,1.982a49.988,49.988,0,0,1,12.339-1.637,58.439,58.439,0,0,1,13.454,2.185l-4.156-2.5a7.163,7.163,0,0,0-5.09-2.269l-7.878-.154a7.16,7.16,0,0,0-5.126,2.02" transform="translate(-146.683 -33.461)" fill="#feca2e"/>
            <path id="Trazado_206311" data-name="Trazado 206311" d="M453.47,95.8a25.372,25.372,0,0,1,.06-4.2,25.536,25.536,0,0,1,.406-4.176,25.368,25.368,0,0,1-.06,4.2,25.461,25.461,0,0,1-.406,4.176" transform="translate(-151.248 -29.166)" fill="#1a2e35"/>
            <path id="Trazado_206312" data-name="Trazado 206312" d="M463.671,87.572a7.636,7.636,0,0,1-1.47-.188.392.392,0,0,0-.361.37q.014.418.029.863c.015.632.031,1.3.047,2,.024,1.421.027,2.708.011,3.64a6.533,6.533,0,0,1-.1,1.507,6.59,6.59,0,0,1-.149-1.507c-.047-.931-.088-2.218-.113-3.639-.007-.7-.013-1.371-.02-2q0-.456,0-.885a.654.654,0,0,1,.64-.594,5.454,5.454,0,0,1,1.478.433" transform="translate(-153.962 -29.068)" fill="#1a2e35"/>
            <path id="Trazado_206313" data-name="Trazado 206313" d="M439.434,104.417c-.005-.011.078-.065.244-.159s.42-.213.751-.354.739-.3,1.187-.533a3.355,3.355,0,0,0,1.28-1.055c.376-.48.429-1.238.948-1.879a1.76,1.76,0,0,1,1.076-.621,8.643,8.643,0,0,1,1.258-.117c1.7-.087,3.571-.111,5.533-.059s3.829.173,5.524.321a3.6,3.6,0,0,1,2.317.828,6.049,6.049,0,0,1,.678.888l.291.42.147.2a.544.544,0,0,0,.156.115c1.124.578,2.1.986,2.73,1.318.321.161.567.295.731.39s.247.153.241.163a10.03,10.03,0,0,1-1.029-.431c-.656-.3-1.619-.658-2.793-1.226a.782.782,0,0,1-.233-.172l-.157-.2-.305-.421a5.868,5.868,0,0,0-.659-.835,3.35,3.35,0,0,0-2.143-.714c-1.689-.13-3.551-.241-5.505-.293s-3.817-.037-5.509.032c-.834.031-1.692.028-2.127.6-.466.536-.543,1.295-.969,1.838a3.508,3.508,0,0,1-1.395,1.086c-.469.219-.887.361-1.223.485-.676.238-1.032.411-1.045.387" transform="translate(-146.585 -33.229)" fill="#1a2e35"/>
            <path id="Trazado_206314" data-name="Trazado 206314" d="M441.194,106.456c-.007-.009.06-.068.2-.171a3.609,3.609,0,0,1,.632-.4,11.209,11.209,0,0,1,2.586-.9,29.292,29.292,0,0,1,8.977-.533c1.747.125,3.422.211,4.938.427a37.591,37.591,0,0,1,3.968.837c.557.154,1.055.319,1.484.484a2.585,2.585,0,0,1,1.034.6,1.066,1.066,0,0,1,.295.7c0,.179-.055.261-.063.257a1.053,1.053,0,0,0-.329-.865,2.556,2.556,0,0,0-1-.514c-.43-.146-.926-.292-1.481-.429-1.108-.264-2.458-.545-3.948-.758-1.5-.2-3.166-.273-4.92-.4a31.639,31.639,0,0,0-8.9.427,12.839,12.839,0,0,0-2.58.781c-.587.253-.863.482-.888.448" transform="translate(-147.172 -34.801)" fill="#1a2e35"/>
            <path id="Trazado_206315" data-name="Trazado 206315" d="M454.889,100.571a2.417,2.417,0,0,1,.414-.016l1.13.017c.954.027,2.272.09,3.723.212.726.061,1.417.129,2.044.2a8.694,8.694,0,0,1,1.661.275,1.626,1.626,0,0,1,.9.683.782.782,0,0,1,.129.4,1.927,1.927,0,0,0-.175-.368,1.627,1.627,0,0,0-.888-.618,9.367,9.367,0,0,0-1.644-.241l-2.041-.189c-1.449-.121-2.764-.2-3.716-.251l-1.128-.061a2.41,2.41,0,0,1-.413-.038" transform="translate(-151.741 -33.543)" fill="#fafafa"/>
            <path id="Trazado_206316" data-name="Trazado 206316" d="M461.3,95.062a1.278,1.278,0,0,1-.058-.293c-.028-.189-.061-.464-.1-.8-.07-.68-.141-1.623-.173-2.668s-.015-1.99.015-2.673c.016-.342.032-.618.049-.809a1.226,1.226,0,0,1,.039-.3,1.19,1.19,0,0,1,.015.3c0,.269,0,.536-.005.809,0,.682,0,1.625.026,2.666s.086,1.982.132,2.664c.017.272.036.539.053.807a1.282,1.282,0,0,1,0,.3" transform="translate(-153.765 -29.195)" fill="#fafafa"/>
            <path id="Trazado_206317" data-name="Trazado 206317" d="M471.323,104.387a1.128,1.128,0,0,1,.269.085l.715.279,2.337.967a8.91,8.91,0,0,1,1.268.6,1.652,1.652,0,0,1,.735.886,1.114,1.114,0,0,1-.023.777.58.58,0,0,1-.172.228c-.011-.009.061-.083.122-.249a1.111,1.111,0,0,0-.021-.726,1.583,1.583,0,0,0-.71-.808,9.9,9.9,0,0,0-1.253-.58l-2.322-1-.7-.319a1.117,1.117,0,0,1-.249-.135" transform="translate(-157.223 -34.821)" fill="#fafafa"/>
            <path id="Trazado_206318" data-name="Trazado 206318" d="M456.378,86.074a4.8,4.8,0,0,1,.82-.034c.506,0,1.206,0,1.978.015a14.069,14.069,0,0,1,1.984.1.993.993,0,0,1,.538.292c.1.114.111.2.105.2a.972.972,0,0,0-.664-.394c-.485-.081-1.2-.03-1.966-.061-.772-.014-1.471-.034-1.977-.056a4.814,4.814,0,0,1-.818-.064" transform="translate(-152.238 -28.701)" fill="#fafafa"/>
            <path id="Trazado_206319" data-name="Trazado 206319" d="M443.872,108.128a13.268,13.268,0,0,0,.566,7.931,27.81,27.81,0,0,1,.454-4.912,6.562,6.562,0,0,1,.754-2.271,3.637,3.637,0,0,1,2.242-1c.818-.177,1.731-.309,2.034-1.09a23.384,23.384,0,0,0-6.05,1.346" transform="translate(-147.948 -35.62)" fill="#1a2e35"/>
            <path id="Trazado_206320" data-name="Trazado 206320" d="M450.185,140.557a3.744,3.744,0,0,0-2.4,1.07,11.2,11.2,0,0,1-1.618,2.109c-.664.511-1.565.67-2.167,1.253-1.182,1.143-.6,3.14-1.114,4.7a11.544,11.544,0,0,1-1.487,2.456,3.044,3.044,0,0,0-.518,2.719,2.365,2.365,0,0,0,1.857,1.311,4.976,4.976,0,0,0,2.331-.32q-.047-.926-.093-1.852a2.627,2.627,0,0,0,.434,1,.9.9,0,0,0,.974.326c.536-.214.552-.954.5-1.528a9.243,9.243,0,0,1,1.1-6.156c.57-.833,1.534-1.71,2.021-2.594Z" transform="translate(-147.017 -46.887)" fill="#1a2e35"/>
            <path id="Trazado_206321" data-name="Trazado 206321" d="M403.269,189.232s1.194-2.6,2.93-2.5,6.618.651,6.618.651l.542,2.387-10.633-.542" transform="translate(-134.341 -62.29)" fill="#ffc09d"/>
            <path id="Trazado_206322" data-name="Trazado 206322" d="M411.143,185.5l2.975-9.231a1.159,1.159,0,0,1,2.218.672l-2.577,9.077Z" transform="translate(-137.148 -58.531)" fill="#4dd0e1"/>
            <path id="Trazado_206323" data-name="Trazado 206323" d="M395.231,190.506h28.949l19.2,26.094L416.3,216.2Z" transform="translate(-131.84 -63.548)" fill="#1a2e35"/>
            <path id="Trazado_206324" data-name="Trazado 206324" d="M444.613,204.716a23.06,23.06,0,0,1,3.875-.121c1.517.152,7.215,1.443,7.215,1.443l2.419,7.569-2.828-.252-1.9.917a45.818,45.818,0,0,1-7.181.639s-1.143-.642-.8-1.29c0,0-2.588-.3-2.321-2.36a2.141,2.141,0,0,1-1.675-1.865l-4.742-.26a.938.938,0,0,1-.884-.857c-.045-.532.672-.717,1.206-.74l7.39-.319a1.085,1.085,0,0,0,.812-1.745Z" transform="translate(-145.369 -68.233)" fill="#ffc09d"/>
            <g id="Grupo_144103" data-name="Grupo 144103" transform="translate(301.105 150.054)" opacity="0.5">
              <g id="Grupo_144102" data-name="Grupo 144102">
                <g id="Grupo_144101" data-name="Grupo 144101" clip-path="url(#clip-path-10)">
                  <path id="Trazado_206325" data-name="Trazado 206325" d="M452.123,229.873l22.007-4.71,2.462,8.144-24.77,2.734Z" transform="translate(-451.823 -225.163)" fill="#fff"/>
                </g>
              </g>
            </g>
            <g id="Grupo_144106" data-name="Grupo 144106" transform="translate(282.328 149.355)" opacity="0.5">
              <g id="Grupo_144105" data-name="Grupo 144105">
                <g id="Grupo_144104" data-name="Grupo 144104" clip-path="url(#clip-path-11)">
                  <path id="Trazado_206326" data-name="Trazado 206326" d="M441.818,229.379l-14.789-5.265-3.382,8.013,17.8,3.289Z" transform="translate(-423.647 -224.114)" fill="#fff"/>
                </g>
              </g>
            </g>
            <path id="Trazado_206327" data-name="Trazado 206327" d="M477.238,123.6c.032-.021.221.371.059,1a2.805,2.805,0,0,1-1.563,1.84,2.891,2.891,0,0,1-2.4-.276c-.541-.347-.694-.738-.662-.75.047-.038.266.279.783.536a2.942,2.942,0,0,0,2.155.165,2.829,2.829,0,0,0,1.453-1.589,5.36,5.36,0,0,0,.176-.926" transform="translate(-157.671 -41.23)" fill="#375a64"/>
            <path id="Trazado_206328" data-name="Trazado 206328" d="M476.93,122.232c.031.02-.167.434-.721.923a2.847,2.847,0,0,1-1.15.608,2.211,2.211,0,0,1-1.6-.173,2.739,2.739,0,0,1-1.114-1.154,3.822,3.822,0,0,1-.383-1.232,2.636,2.636,0,0,1,0-1.166,7.28,7.28,0,0,1,.239,1.121,3.126,3.126,0,0,0,1.419,2.125,1.98,1.98,0,0,0,1.368.169,2.887,2.887,0,0,0,1.072-.49c.556-.408.828-.766.872-.73" transform="translate(-157.417 -40.042)" fill="#375a64"/>
            <path id="Trazado_206329" data-name="Trazado 206329" d="M481.845,174.839c-.01.007-.073-.063-.185-.2s-.278-.346-.467-.629a19.075,19.075,0,0,1-1.459-2.486,21.225,21.225,0,0,1-.178-18.458,19.02,19.02,0,0,1,1.411-2.514c.183-.287.35-.493.455-.638s.171-.214.181-.207a7.443,7.443,0,0,1-.521.916,24.073,24.073,0,0,0-1.3,2.544,21.952,21.952,0,0,0,.176,18.251,24.163,24.163,0,0,0,1.352,2.519,7.419,7.419,0,0,1,.538.906" transform="translate(-159.294 -49.938)" fill="#1a2e35"/>
            <path id="Trazado_206330" data-name="Trazado 206330" d="M456.076,168.642a6.867,6.867,0,0,1,.79-.65,26.563,26.563,0,0,0,2.08-1.836,32.953,32.953,0,0,0,5.493-7.281,73.746,73.746,0,0,0,3.917-8.288l1.064-2.575a5.921,5.921,0,0,1,.429-.93,5.659,5.659,0,0,1-.3.978c-.217.622-.541,1.517-.962,2.617a61.633,61.633,0,0,1-3.844,8.37,30.513,30.513,0,0,1-5.625,7.286,20.286,20.286,0,0,1-2.168,1.767c-.267.194-.489.324-.635.417s-.229.134-.236.124" transform="translate(-152.136 -49.064)" fill="#1a2e35"/>
            <path id="Trazado_206331" data-name="Trazado 206331" d="M447.418,147.8c.067.019-.305,1.144-.57,3.021a22.034,22.034,0,0,0-.2,3.314,21.955,21.955,0,0,0,1.6,7.926,21.943,21.943,0,0,0,1.477,2.974c.974,1.626,1.755,2.517,1.7,2.561a3.739,3.739,0,0,1-.57-.6,8.32,8.32,0,0,1-.606-.764c-.221-.309-.49-.65-.734-1.064a19.885,19.885,0,0,1-1.563-2.981,20.841,20.841,0,0,1-1.628-8.046,19.9,19.9,0,0,1,.281-3.354c.063-.475.179-.9.263-1.266a8.1,8.1,0,0,1,.261-.939,3.777,3.777,0,0,1,.289-.779" transform="translate(-148.884 -49.304)" fill="#1a2e35"/>
            <path id="Trazado_206332" data-name="Trazado 206332" d="M441.713,146.046c.093.021-1,5.281-2.441,11.749s-2.687,11.7-2.78,11.674,1-5.28,2.441-11.75,2.687-11.694,2.78-11.673" transform="translate(-145.602 -48.718)" fill="#1a2e35"/>
            <path id="Trazado_206333" data-name="Trazado 206333" d="M389.507,130.672l2.22-7.729s.8-3.141,1-3.875c.253-.971-.427-1.284-.836-.625-.155.25-1.885,3.44-1.885,3.44s1.4-5.235,1.454-5.426c.454-1.709-.608-1.541-.924-.932-.327.63-2.294,5.777-2.294,5.777,1.864-6.732,1.306-7.331.8-7.443s-2.152,6.045-2.152,6.045a5.767,5.767,0,0,0-1.613-1.8c-1.62-1.136-4.346-.041-4.484.725s.83.99.83.99a2.454,2.454,0,0,1,3.9,2.263,1.527,1.527,0,0,1-2.992.264c-.646-3.05-1.7-2.07-1.7-2.07l.988,6.722-1.142,3.365" transform="translate(-126.984 -37.98)" fill="#c78976"/>
            <path id="Trazado_206334" data-name="Trazado 206334" d="M327.166,95.826c2.531-.666,4.086-1.567,4.086-2.56,0-2.048-6.621-3.709-14.788-3.709s-14.789,1.661-14.789,3.709c0,.988,1.539,1.885,4.047,2.55" transform="translate(-100.632 -29.875)" fill="#feca2e"/>
            <g id="Grupo_144109" data-name="Grupo 144109" transform="translate(202.53 60.324)" opacity="0.4">
              <g id="Grupo_144108" data-name="Grupo 144108">
                <g id="Grupo_144107" data-name="Grupo 144107" clip-path="url(#clip-path-12)">
                  <path id="Trazado_206335" data-name="Trazado 206335" d="M326.5,96.075c2.244-.59,3.678-1.391,3.621-2.269-.158-2.443-5.869-3.287-13.107-3.287s-13.107,1.472-13.107,3.287c0,.875,1.363,1.671,3.587,2.259" transform="translate(-303.906 -90.519)"/>
                </g>
              </g>
            </g>
            <path id="Trazado_206336" data-name="Trazado 206336" d="M330.089,86.453s-2.115-8.693-2.3-9.117-2.659-4.23-8.581-5.317h-4.894s-6.949,2.236-8.218,3.928-1.813,9.91-1.813,9.91l13.726-2.984,9.335,2.277Z" transform="translate(-101.503 -24.024)" fill="#feca2e"/>
            <path id="Trazado_206337" data-name="Trazado 206337" d="M321.956,70.524h2.1a3.4,3.4,0,0,1,.834,2.209c.1,1.521.442,11.96.442,11.96l-6.135-.279.2-12.894-2.084.463.065-.731.552-.652Z" transform="translate(-105.848 -23.525)" fill="#feca2e"/>
            <path id="Trazado_206338" data-name="Trazado 206338" d="M270.438,396.955,266.4,412.991l-6.853,11.762a1.694,1.694,0,0,0,2.263,2.346c3.078-1.66,14.368-7.824,14.6-9.015.267-1.378,5.386-16.632,5.386-16.632Z" transform="translate(-86.501 -132.415)" fill="#bddcf6"/>
            <g id="Grupo_144112" data-name="Grupo 144112" transform="translate(173.755 284.595)" opacity="0.6">
              <g id="Grupo_144111" data-name="Grupo 144111">
                <g id="Grupo_144110" data-name="Grupo 144110" clip-path="url(#clip-path-3)">
                  <path id="Trazado_206339" data-name="Trazado 206339" d="M260.728,437.164l16.446-10.115-.187.675a2.544,2.544,0,0,1-1.024,1.433c-1.341.91-5.1,3.34-13.637,8a1.692,1.692,0,0,1-1.6.011" transform="translate(-260.728 -427.049)" fill="#fff"/>
                </g>
              </g>
            </g>
            <g id="Grupo_144115" data-name="Grupo 144115" transform="translate(187.687 278.49)" opacity="0.6">
              <g id="Grupo_144114" data-name="Grupo 144114">
                <g id="Grupo_144113" data-name="Grupo 144113" clip-path="url(#clip-path-14)">
                  <path id="Trazado_206340" data-name="Trazado 206340" d="M282.3,417.947a1.025,1.025,0,0,0-.627,1.216.985.985,0,0,0,1.2.632,1.081,1.081,0,0,0,.657-1.291,1.022,1.022,0,0,0-1.32-.519" transform="translate(-281.634 -417.888)" fill="#fff"/>
                </g>
              </g>
            </g>
            <path id="Trazado_206341" data-name="Trazado 206341" d="M267.686,432.005a3.656,3.656,0,0,0-2.793-2.484c0-.043.233-.111.62-.061a2.7,2.7,0,0,1,2.161,1.921c.1.379.055.622.012.624" transform="translate(-88.362 -143.252)" fill="#1a2e35"/>
            <path id="Trazado_206342" data-name="Trazado 206342" d="M265.131,435.124c-.095.048-.463-.612-1.222-1.076a13.836,13.836,0,0,0-1.5-.631,1.88,1.88,0,0,1,1.694.323c.862.534,1.124,1.363,1.03,1.383" transform="translate(-87.533 -144.55)" fill="#1a2e35"/>
            <path id="Trazado_206343" data-name="Trazado 206343" d="M271.394,428.548a8.711,8.711,0,0,0-3.987-2.992,4.632,4.632,0,0,1,3.987,2.992" transform="translate(-89.201 -141.947)" fill="#1a2e35"/>
            <path id="Trazado_206344" data-name="Trazado 206344" d="M273.789,422.165c-.069.084-.848-.528-1.982-.886-1.13-.374-2.119-.334-2.126-.443a4.205,4.205,0,0,1,4.108,1.328" transform="translate(-89.959 -140.336)" fill="#1a2e35"/>
            <path id="Trazado_206345" data-name="Trazado 206345" d="M275.651,415.163a5.381,5.381,0,0,0-4.3-1.03c-.017-.041.213-.193.638-.3a3.691,3.691,0,0,1,3.229.774c.33.292.465.531.432.56" transform="translate(-90.517 -138.011)" fill="#1a2e35"/>
            <path id="Trazado_206346" data-name="Trazado 206346" d="M274.145,411.522a1.417,1.417,0,0,1,.145-.609,4.339,4.339,0,0,1,.916-1.446,1.928,1.928,0,0,1,1.042-.667.68.68,0,0,1,.7.351,1.107,1.107,0,0,1,.053.789,2.4,2.4,0,0,1-2.614,1.577,2.779,2.779,0,0,1-2.243-2.128.965.965,0,0,1,.17-.785.669.669,0,0,1,.768-.155,2.371,2.371,0,0,1,.9.836,4.841,4.841,0,0,1,.745,1.539,1.476,1.476,0,0,1,.093.618,7.746,7.746,0,0,0-1.043-2,2.208,2.208,0,0,0-.8-.709.356.356,0,0,0-.419.081.663.663,0,0,0-.081.522,2.479,2.479,0,0,0,1.966,1.822,2.079,2.079,0,0,0,2.238-1.306.8.8,0,0,0-.014-.552.369.369,0,0,0-.383-.2,1.745,1.745,0,0,0-.892.548,6.432,6.432,0,0,0-1.243,1.875" transform="translate(-90.775 -136.23)" fill="#1a2e35"/>
            <path id="Trazado_206347" data-name="Trazado 206347" d="M334.185,403.639l-.886,12.793s12.706,5.2,12.773,7.578l-24.868-.828.563-19.991Z" transform="translate(-107.146 -134.496)" fill="#bddcf6"/>
            <path id="Trazado_206348" data-name="Trazado 206348" d="M327.49,421.041a1.016,1.016,0,0,0-.741,1.136.978.978,0,0,0,1.12.744,1.072,1.072,0,0,0,.778-1.207,1.013,1.013,0,0,0-1.25-.645" transform="translate(-108.991 -140.438)" fill="#e1e1e1"/>
            <g id="Grupo_144118" data-name="Grupo 144118" transform="translate(214.058 286.674)" opacity="0.6">
              <g id="Grupo_144117" data-name="Grupo 144117">
                <g id="Grupo_144116" data-name="Grupo 144116" clip-path="url(#clip-path-15)">
                  <path id="Trazado_206349" data-name="Trazado 206349" d="M321.2,432.181l.136-2.013,23.791,1.546s1.091.518.94,1.294Z" transform="translate(-321.204 -430.168)" fill="#fff"/>
                </g>
              </g>
            </g>
            <path id="Trazado_206350" data-name="Trazado 206350" d="M338.807,422.827c-.008.121-.617.156-1.228.526-.62.355-.946.87-1.056.819-.111-.027.094-.748.841-1.183s1.472-.273,1.442-.163" transform="translate(-112.247 -141.004)" fill="#1a2e35"/>
            <path id="Trazado_206351" data-name="Trazado 206351" d="M342.972,424.612c.024.119-.509.308-.938.808-.445.487-.566,1.039-.688,1.03-.115.015-.175-.7.371-1.31s1.256-.643,1.255-.527" transform="translate(-113.84 -141.623)" fill="#1a2e35"/>
            <path id="Trazado_206352" data-name="Trazado 206352" d="M345.825,428.363c-.111.022-.26-.59.074-1.245s.91-.9.959-.8c.065.1-.316.447-.582.988s-.33,1.046-.451,1.054" transform="translate(-115.316 -142.204)" fill="#1a2e35"/>
            <path id="Trazado_206353" data-name="Trazado 206353" d="M338.486,418.242c-.055.109-.606-.077-1.294-.053s-1.23.223-1.289.116c-.067-.09.469-.522,1.28-.539s1.367.383,1.3.476" transform="translate(-112.048 -139.357)" fill="#1a2e35"/>
            <path id="Trazado_206354" data-name="Trazado 206354" d="M338.11,413.548a2.33,2.33,0,0,1-1.246-.048,5.621,5.621,0,0,1-1.29-.443,5.9,5.9,0,0,1-.7-.4,1.535,1.535,0,0,1-.367-.305.53.53,0,0,1-.034-.648.668.668,0,0,1,.542-.26,1.617,1.617,0,0,1,.464.08,4.561,4.561,0,0,1,.766.291,4.395,4.395,0,0,1,1.123.792c.559.553.741,1.014.7,1.036-.057.038-.325-.351-.9-.812a4.966,4.966,0,0,0-1.09-.663,4.615,4.615,0,0,0-.707-.244c-.261-.078-.485-.087-.557.027-.026.044-.029.061.023.141a1.28,1.28,0,0,0,.269.223,6.69,6.69,0,0,0,.646.4,6.922,6.922,0,0,0,1.189.5,8.511,8.511,0,0,1,1.169.337" transform="translate(-111.541 -137.247)" fill="#1a2e35"/>
            <path id="Trazado_206355" data-name="Trazado 206355" d="M339.588,412.9a1.989,1.989,0,0,1-.289-1.214,4.031,4.031,0,0,1,.558-2.1,1.029,1.029,0,0,1,.815-.6.582.582,0,0,1,.509.365,1.692,1.692,0,0,1,.113.46,2.783,2.783,0,0,1-.027.839,2.871,2.871,0,0,1-.574,1.269c-.508.628-1.019.756-1.028.715-.038-.063.393-.283.785-.89a2.866,2.866,0,0,0,.433-1.158,2.552,2.552,0,0,0,0-.72c-.03-.266-.122-.482-.222-.458-.123-.006-.34.186-.449.393a4.174,4.174,0,0,0-.331.665,4.449,4.449,0,0,0-.283,1.234c-.059.729.056,1.188-.011,1.2" transform="translate(-113.183 -136.425)" fill="#1a2e35"/>
            <path id="Trazado_206356" data-name="Trazado 206356" d="M309.28,124.692l14.951-.686c.085-1.586-.725-11.4-.725-11.4s5.651-.879,5.721-6.529-.787-16.93-.787-16.93l-.1-.494c-6.54-2.81-14.116-3.062-19.757,1.28l-.838.645Z" transform="translate(-102.658 -28.887)" fill="#c78976"/>
            <path id="Trazado_206357" data-name="Trazado 206357" d="M327.72,124.454a13.138,13.138,0,0,1-7.366-2.093s1.741,4.066,7.379,3.557Z" transform="translate(-106.863 -40.817)" fill="#bf654e"/>
            <path id="Trazado_206358" data-name="Trazado 206358" d="M306.91,101.263c-.1-.042-3.882-1.148-3.759,2.714s3.976,2.942,3.979,2.831-.221-5.545-.221-5.545" transform="translate(-101.124 -33.72)" fill="#c78976"/>
            <path id="Trazado_206359" data-name="Trazado 206359" d="M306.4,106.016c-.017-.012-.066.049-.178.105a.673.673,0,0,1-.5.026,1.666,1.666,0,0,1-.818-1.469,2.223,2.223,0,0,1,.158-.969.778.778,0,0,1,.489-.533.343.343,0,0,1,.4.172c.055.107.033.185.054.19s.081-.067.045-.225a.429.429,0,0,0-.16-.237.508.508,0,0,0-.375-.087.946.946,0,0,0-.684.621,2.285,2.285,0,0,0-.2,1.084,1.746,1.746,0,0,0,1.035,1.637.72.72,0,0,0,.612-.122c.117-.1.134-.186.121-.193" transform="translate(-101.616 -34.353)" fill="#bf654e"/>
            <path id="Trazado_206360" data-name="Trazado 206360" d="M335.027,100.655a.807.807,0,0,1-.778.814.772.772,0,0,1-.831-.728.808.808,0,0,1,.777-.815.773.773,0,0,1,.832.728" transform="translate(-111.221 -33.333)" fill="#1a2e35"/>
            <path id="Trazado_206361" data-name="Trazado 206361" d="M335.412,99.383c-.1.105-.711-.347-1.579-.345s-1.5.437-1.6.331c-.047-.047.055-.237.333-.439a2.216,2.216,0,0,1,1.28-.395,2.125,2.125,0,0,1,1.257.406c.267.205.358.4.309.443" transform="translate(-110.822 -32.869)" fill="#1a2e35"/>
            <path id="Trazado_206362" data-name="Trazado 206362" d="M322.22,101.11a.806.806,0,0,1-.778.814.772.772,0,0,1-.832-.727.808.808,0,0,1,.778-.814.772.772,0,0,1,.832.728" transform="translate(-106.948 -33.485)" fill="#1a2e35"/>
            <path id="Trazado_206363" data-name="Trazado 206363" d="M322.6,99.626c-.1.105-.712-.347-1.58-.345s-1.5.437-1.6.33c-.046-.047.055-.237.333-.439a2.211,2.211,0,0,1,1.28-.4,2.131,2.131,0,0,1,1.257.406c.267.205.357.4.309.443" transform="translate(-106.55 -32.95)" fill="#1a2e35"/>
            <path id="Trazado_206364" data-name="Trazado 206364" d="M328.726,106.092a5.737,5.737,0,0,1,1.41-.255c.221-.023.431-.067.469-.218a1.131,1.131,0,0,0-.148-.657l-.656-1.689a29.048,29.048,0,0,1-1.473-4.416,29.052,29.052,0,0,1,1.825,4.287l.627,1.7a1.283,1.283,0,0,1,.115.87.553.553,0,0,1-.365.324,1.476,1.476,0,0,1-.377.053,5.646,5.646,0,0,1-1.429,0" transform="translate(-109.52 -32.977)" fill="#1a2e35"/>
            <path id="Trazado_206365" data-name="Trazado 206365" d="M325.024,110.615c.141-.008.143.934.95,1.6s1.81.565,1.817.7c.013.059-.224.183-.648.194a2.344,2.344,0,0,1-1.517-.528,2.045,2.045,0,0,1-.736-1.344c-.035-.394.069-.627.134-.622" transform="translate(-108.374 -36.899)" fill="#1a2e35"/>
            <path id="Trazado_206366" data-name="Trazado 206366" d="M322.555,94.619c-.086.236-.953.124-1.971.247-1.021.1-1.843.4-1.978.189-.06-.1.083-.323.415-.552a3.456,3.456,0,0,1,3.008-.333c.375.151.562.337.526.449" transform="translate(-106.275 -31.346)" fill="#1a2e35"/>
            <path id="Trazado_206367" data-name="Trazado 206367" d="M335.049,95.587c-.153.2-.751-.007-1.47-.017-.719-.035-1.328.133-1.469-.073-.061-.1.035-.3.3-.484a2.127,2.127,0,0,1,2.367.073c.255.2.338.406.271.5" transform="translate(-110.779 -31.586)" fill="#1a2e35"/>
            <path id="Trazado_206368" data-name="Trazado 206368" d="M320.919,223.914l-2.466,127.657a1.565,1.565,0,0,1-1.579,1.535L302,352.976a1.565,1.565,0,0,1-1.551-1.6l2.3-109.875L283.413,350.563a2.808,2.808,0,0,1-2.861,2.315l-12.471-.431a2.807,2.807,0,0,1-2.677-3.237L284.99,223.392Z" transform="translate(-88.522 -74.519)" fill="#1a2e35"/>
            <path id="Trazado_206369" data-name="Trazado 206369" d="M358.186,137.413l-9.241-2.229-6.1,16.545L325.992,136.65c-1.793-1.313-4.885-1.476-7.237-1.767l-.178-.021c-.912-.108-1.359-.24-1.908-.306-4.062,3.056-11.015,3.25-15,.1,0,0-3.026.684-4.833,1.03-5.691,1.091-9.787,5.236-10.925,9.063l7.123,16.429,1.365,15.607-3.944,13.973a2.425,2.425,0,0,0,2.027,3.065l35.291.538.576-.286a6.549,6.549,0,0,0,.949-4.471c-1.525-6.686-.462-26.628-.782-32.749,6.921,6.726,14.559,12.305,20.141,8.85,4.639-2.873,9.532-28.29,9.532-28.29" transform="translate(-95.372 -44.885)" fill="#e1e1e1"/>
            <path id="Trazado_206370" data-name="Trazado 206370" d="M309.949,134.117h0" transform="translate(-103.392 -44.738)" fill="#ff4f5b"/>
            <path id="Trazado_206371" data-name="Trazado 206371" d="M307.839,94.972c.15,1.567.1,3.155.251,4.722a5.356,5.356,0,0,0,.562,1.691,1.555,1.555,0,0,0,2.948.013,4.624,4.624,0,0,0,.344-2.024,6.481,6.481,0,0,1,.211-2.05,10.99,10.99,0,0,1,1.17-2,2.5,2.5,0,0,0,.362-2.2,11.5,11.5,0,0,0-5.849,1.849" transform="translate(-102.688 -31.063)" fill="#1a2e35"/>
            <path id="Trazado_206372" data-name="Trazado 206372" d="M328.634,91.88l-.121-3.161-9.234-2.751-11.532,3.4v3.4a28.357,28.357,0,0,1,20.886-.884" transform="translate(-102.658 -28.677)" fill="#375a64"/>
            <path id="Trazado_206373" data-name="Trazado 206373" d="M326.316,88.026l.406.394,3.323,2.087a52.627,52.627,0,0,0-12.992-1.725,61.527,61.527,0,0,0-14.165,2.3l4.377-2.633a7.537,7.537,0,0,1,5.359-2.388l8.294-.162a7.541,7.541,0,0,1,5.4,2.127" transform="translate(-101.037 -28.654)" fill="#feca2e"/>
            <path id="Trazado_206374" data-name="Trazado 206374" d="M328.865,81.154a28.148,28.148,0,0,1-.419-4.4,28.2,28.2,0,0,1-.072-4.417,28.158,28.158,0,0,1,.418,4.4,28.2,28.2,0,0,1,.072,4.416" transform="translate(-109.52 -24.131)" fill="#1a2e35"/>
            <path id="Trazado_206375" data-name="Trazado 206375" d="M317.311,72.489a6,6,0,0,1,1.556-.45.681.681,0,0,1,.666.62q0,.45,0,.931c-.007.664-.015,1.37-.022,2.109-.025,1.5-.068,2.851-.116,3.831a7.359,7.359,0,0,1-.149,1.587,7.2,7.2,0,0,1-.1-1.587c-.015-.981-.011-2.336.014-3.833.017-.74.034-1.445.049-2.109.01-.314.02-.616.029-.91a.42.42,0,0,0-.388-.4,8.476,8.476,0,0,1-1.548.2" transform="translate(-105.848 -24.031)" fill="#1a2e35"/>
            <path id="Trazado_206376" data-name="Trazado 206376" d="M330.724,90.227c-.013.024-.387-.159-1.1-.411-.354-.132-.793-.281-1.287-.512a3.688,3.688,0,0,1-1.465-1.144c-.447-.57-.527-1.368-1.02-1.936-.461-.607-1.367-.6-2.245-.636-1.782-.073-3.743-.089-5.8-.034s-4.019.171-5.8.309a3.532,3.532,0,0,0-2.262.755,6.328,6.328,0,0,0-.694.881l-.321.442-.165.21a.82.82,0,0,1-.243.18c-1.236.6-2.249.98-2.94,1.294a11.242,11.242,0,0,1-1.082.456,1.014,1.014,0,0,1,.255-.171c.173-.1.432-.239.771-.409.668-.349,1.692-.776,2.876-1.385a.6.6,0,0,0,.167-.123l.155-.207.307-.441a6.278,6.278,0,0,1,.713-.934,3.783,3.783,0,0,1,2.435-.868c1.785-.155,3.749-.283,5.816-.337s4.036-.029,5.825.061a9.15,9.15,0,0,1,1.323.122,1.843,1.843,0,0,1,1.129.652c.545.672.6,1.469,1,1.977a3.541,3.541,0,0,0,1.352,1.112c.472.241.9.409,1.25.56s.615.277.791.371a1,1,0,0,1,.258.165" transform="translate(-101.509 -28.414)" fill="#1a2e35"/>
            <path id="Trazado_206377" data-name="Trazado 206377" d="M329.389,92.373a.85.85,0,0,1-.247-.121,5.23,5.23,0,0,0-.686-.354,13.441,13.441,0,0,0-2.717-.826,33.239,33.239,0,0,0-9.371-.452c-1.847.132-3.6.213-5.181.42-1.568.224-2.99.52-4.157.8-.585.145-1.108.3-1.559.453a2.7,2.7,0,0,0-1.057.544,1.106,1.106,0,0,0-.345.913c-.007,0-.061-.083-.064-.271a1.125,1.125,0,0,1,.311-.736,2.727,2.727,0,0,1,1.088-.632c.452-.173.976-.346,1.563-.508a39.632,39.632,0,0,1,4.176-.879c1.6-.227,3.36-.318,5.2-.45a30.927,30.927,0,0,1,9.451.559,11.857,11.857,0,0,1,2.723.944,3.833,3.833,0,0,1,.666.417c.143.109.214.17.207.179" transform="translate(-101.409 -30.069)" fill="#1a2e35"/>
            <path id="Trazado_206378" data-name="Trazado 206378" d="M323.248,70.911a5.272,5.272,0,0,1-.862.065l-2.083.059c-.81.032-1.559-.021-2.069.065a1.014,1.014,0,0,0-.7.417c-.006,0,.011-.089.112-.208a1.047,1.047,0,0,1,.566-.305A14.948,14.948,0,0,1,320.3,70.9l2.083-.017a5.286,5.286,0,0,1,.864.033" transform="translate(-105.922 -23.643)" fill="#fafafa"/>
            <path id="Trazado_206379" data-name="Trazado 206379" d="M322.4,86.173a2.7,2.7,0,0,1-.435.039l-1.188.063c-1,.054-2.386.137-3.913.265l-2.149.2a9.849,9.849,0,0,0-1.731.255,1.71,1.71,0,0,0-.936.653,1.928,1.928,0,0,0-.183.389.835.835,0,0,1,.137-.417,1.713,1.713,0,0,1,.951-.718,9.175,9.175,0,0,1,1.748-.289c.66-.075,1.387-.147,2.152-.211,1.528-.128,2.916-.2,3.92-.224l1.19-.019a2.646,2.646,0,0,1,.436.015" transform="translate(-104.032 -28.74)" fill="#fafafa"/>
            <path id="Trazado_206380" data-name="Trazado 206380" d="M320.739,80.373a1.384,1.384,0,0,1,0-.314l.057-.85c.049-.717.107-1.709.14-2.8s.033-2.089.027-2.808c0-.29,0-.571-.007-.852a1.37,1.37,0,0,1,.013-.313,1.305,1.305,0,0,1,.041.311c.017.2.035.492.051.852.031.719.047,1.715.015,2.814s-.107,2.092-.181,2.808c-.037.359-.071.648-.1.848a1.376,1.376,0,0,1-.059.308" transform="translate(-106.989 -24.162)" fill="#fafafa"/>
            <path id="Trazado_206381" data-name="Trazado 206381" d="M307.537,90.191a1.247,1.247,0,0,1-.262.14l-.735.335-2.445,1.056a10.462,10.462,0,0,0-1.32.611,1.673,1.673,0,0,0-.748.854,1.173,1.173,0,0,0-.021.766c.065.174.141.252.13.261a.614.614,0,0,1-.18-.241,1.174,1.174,0,0,1-.023-.816,1.735,1.735,0,0,1,.774-.931,9.343,9.343,0,0,1,1.334-.63l2.461-1.02.752-.294a1.235,1.235,0,0,1,.283-.091" transform="translate(-100.698 -30.085)" fill="#fafafa"/>
            <path id="Trazado_206382" data-name="Trazado 206382" d="M307.839,133.412l.818-5.647,7.692,2.824,2.171,3.826,1.349-4.2,4.22-1.453,1.8,3.754-3.1,4.382-5.809,1.174Z" transform="translate(-102.688 -42.619)" fill="#e1e1e1"/>
            <path id="Trazado_206383" data-name="Trazado 206383" d="M318.654,136.719c-.011.011-.112-.068-.287-.232a8.9,8.9,0,0,1-.705-.762,11.385,11.385,0,0,1-1.856-3.2l.282,0-1.777,4.478-.894,2.211-.093.232-.179-.173c-1.553-1.5-2.893-2.814-3.839-3.761l-1.1-1.121a2.125,2.125,0,0,1-.369-.433,2.107,2.107,0,0,1,.449.349l1.168,1.05c.986.9,2.356,2.186,3.923,3.673l-.273.059.885-2.215,1.818-4.462.149-.366.133.37a12.558,12.558,0,0,0,1.712,3.2c.525.71.88,1.077.852,1.1" transform="translate(-102.688 -44.049)" fill="#1a2e35"/>
            <path id="Trazado_206384" data-name="Trazado 206384" d="M331.438,133.739a5.963,5.963,0,0,1-.9,1.244,12.417,12.417,0,0,1-2.945,2.589l-.17.1-.07-.191c-.253-.685-.542-1.426-.85-2.194-.463-1.15-.9-2.246-1.232-3.218l.3-.024c-.254,1.274-.566,2.316-.756,3.053a7.1,7.1,0,0,1-.337,1.157,4.813,4.813,0,0,1,.156-1.2c.139-.754.409-1.806.632-3.068l.1-.564.2.539c.355.958.8,2.041,1.262,3.195.309.769.6,1.517.839,2.211l-.239-.086a14.058,14.058,0,0,0,2.96-2.442,13.23,13.23,0,0,1,1.056-1.106" transform="translate(-108.234 -43.842)" fill="#1a2e35"/>
            <path id="Trazado_206385" data-name="Trazado 206385" d="M326.878,196.413a3.746,3.746,0,0,1,.039-.59q.066-.621.179-1.679c.1-.727.151-1.623.227-2.662q.056-.781.119-1.663.035-.887.074-1.869c.119-2.618.115-5.742.05-9.208-.088-3.465-.279-7.273-.551-11.266-.578-7.986-1.363-15.194-1.957-20.408-.3-2.583-.536-4.684-.706-6.175q-.114-1.059-.181-1.68a3.743,3.743,0,0,1-.039-.589,3.77,3.77,0,0,1,.109.58l.246,1.673c.2,1.453.49,3.558.815,6.162.656,5.208,1.481,12.417,2.061,20.413.273,4,.454,7.811.524,11.283.047,3.473.027,6.6-.125,9.226q-.052.982-.1,1.871-.077.882-.145,1.665c-.095,1.039-.168,1.935-.286,2.661q-.154,1.055-.243,1.674a3.747,3.747,0,0,1-.109.58" transform="translate(-108.121 -46.242)" fill="#1a2e35"/>
            <path id="Trazado_206386" data-name="Trazado 206386" d="M318.35,135.858l1.745.911-.324,2.942-2.723-.571Z" transform="translate(-105.76 -45.319)" fill="#ff4f5b"/>
            <path id="Trazado_206387" data-name="Trazado 206387" d="M318.35,135.858l1.745.911-.324,2.942-2.723-.571Z" transform="translate(-105.76 -45.319)" fill="#12263f"/>
            <path id="Trazado_206388" data-name="Trazado 206388" d="M325.01,136.37l1.321-1.163,1.208,3.076-1.732.832Z" transform="translate(-108.416 -45.102)" fill="#0f2771"/>
            <path id="Trazado_206389" data-name="Trazado 206389" d="M321.7,142.62l-.815,34.772,5.877,5.811,2.845-7.719-5.643-33.048Z" transform="translate(-107.04 -47.513)" fill="#0f2771"/>
            <path id="Trazado_206390" data-name="Trazado 206390" d="M321.441,135.476c.4-.046.953-.155,1.39-.249a.964.964,0,0,1,1.049.485l.742,1.368a.966.966,0,0,1,.1.644l-.3,1.535a.968.968,0,0,1-.758.764l-1.677.339a.966.966,0,0,1-1.054-.51L320.1,138.2a.964.964,0,0,1-.022-.827l.584-1.324a.972.972,0,0,1,.784-.571" transform="translate(-106.742 -45.102)" fill="#0f2771"/>
            <path id="Trazado_206391" data-name="Trazado 206391" d="M324.181,136.166a3.636,3.636,0,0,1-.448.557c-.289.331-.694.782-1.149,1.274s-.872.932-1.179,1.246a3.716,3.716,0,0,1-.52.49,3.6,3.6,0,0,1,.445-.554c.289-.331.7-.783,1.152-1.276s.874-.934,1.181-1.249a3.677,3.677,0,0,1,.518-.488" transform="translate(-107.04 -45.422)" fill="#1a2e35"/>
            <path id="Trazado_206392" data-name="Trazado 206392" d="M322.488,137.838a8.048,8.048,0,0,1-1.523-1.462,8.05,8.05,0,0,1,1.523,1.462" transform="translate(-107.066 -45.491)" fill="#1a2e35"/>
            <path id="Trazado_206393" data-name="Trazado 206393" d="M326.092,139.964a18.6,18.6,0,0,1,.417-2.005,1.991,1.991,0,0,0-.421-1.308,1.171,1.171,0,0,1-.2-.572c.021,0,.083.215.288.522a6.123,6.123,0,0,1,.341.563,1.314,1.314,0,0,1,.133.814c-.114.57-.264,1.052-.361,1.413a2.607,2.607,0,0,1-.194.572" transform="translate(-108.707 -45.393)" fill="#1a2e35"/>
            <g id="Grupo_144121" data-name="Grupo 144121" transform="translate(197.474 125.453)" opacity="0.3">
              <g id="Grupo_144120" data-name="Grupo 144120">
                <g id="Grupo_144119" data-name="Grupo 144119" clip-path="url(#clip-path-16)">
                  <path id="Trazado_206394" data-name="Trazado 206394" d="M296.482,201.531a6.66,6.66,0,0,0,5.8,1.665c1.461-.295,2.849-1.09,4.336-.993,1.629.106,2.975,1.247,4.461,1.921,2.775,1.257,6.013.855,8.957.071a6.667,6.667,0,0,0,3.641-1.946,6.515,6.515,0,0,0,1.12-3.025,31.141,31.141,0,0,0,.439-5.994,5.744,5.744,0,0,0-.967-3.573,4.132,4.132,0,0,0-2.686-1.355,10.554,10.554,0,0,0-3.064.171,50.65,50.65,0,0,0-22.2,9.521" transform="translate(-296.319 -188.248)"/>
                </g>
              </g>
            </g>
            <path id="Trazado_206395" data-name="Trazado 206395" d="M301.808,181.7s-18.673,8.352-20.573,8.769c-6.3,1.383-13.511-4.572-11.508-11.36.744-2.524,10.791-30.449,10.791-30.449l9.562,13.213-4.046,13.523,10.593-.7Z" transform="translate(-89.861 -49.589)" fill="#e1e1e1"/>
            <path id="Trazado_206396" data-name="Trazado 206396" d="M303.985,181.416a3.644,3.644,0,0,1-.738.1l-2.043.173c-1.738.135-4.17.3-6.939.48l-.233.015.067-.225c.2-.674.41-1.375.623-2.092.945-3.158,1.817-6.01,2.465-8.07l.783-2.434a5.062,5.062,0,0,1,.331-.88,5.048,5.048,0,0,1-.207.916l-.682,2.465c-.59,2.077-1.427,4.94-2.372,8.1l-.628,2.091-.166-.209c2.77-.162,5.2-.29,6.945-.367l2.049-.076a3.615,3.615,0,0,1,.745.013" transform="translate(-98.083 -56.203)" fill="#1a2e35"/>
            <path id="Trazado_206397" data-name="Trazado 206397" d="M305.679,199.87c.035.085-4.065,1.855-9.155,3.953s-9.247,3.731-9.282,3.646,4.063-1.854,9.156-3.953,9.246-3.731,9.281-3.646" transform="translate(-95.818 -66.671)" fill="#1a2e35"/>
            <path id="Trazado_206398" data-name="Trazado 206398" d="M310.774,182.816l-1.474-7.17a.922.922,0,0,1,.907-1.108l18.559.087a.921.921,0,0,1,.911,1.029l-1.916,16.427a1.281,1.281,0,0,1-1.282,1.132l-12.1-.094a1.281,1.281,0,0,1-1.231-.965Z" transform="translate(-103.169 -58.222)" fill="#375a64"/>
            <path id="Trazado_206399" data-name="Trazado 206399" d="M309.067,181.293h0a1.95,1.95,0,0,1,1.823,1.245,4.209,4.209,0,0,0,1.243,1.986,4.4,4.4,0,0,0,3.313.488c.828-.406,4.142-3.388,4.722-3.056s1.077,1.077.5,1.739-3.645,2.651-3.066,3.314,7.042-2.255,8.036-2,1.574.868.994,1.267-4.971,2.056-5.219,2.636c0,0,6.628-1.74,6.876-1.326s.662,1.077,0,1.326-6.38,1.74-6.876,1.988a12.049,12.049,0,0,1-2.555.746,27.254,27.254,0,0,0-2.67.847,5.851,5.851,0,0,1-4.122-.111l-.671-.273a2.63,2.63,0,0,1-1.633-2.594l.135-2.259-.723-1.865Z" transform="translate(-103.098 -60.475)" fill="#c78976"/>
            <path id="Trazado_206400" data-name="Trazado 206400" d="M325.1,178.345a.674.674,0,1,1-.674-.674.674.674,0,0,1,.674.674" transform="translate(-107.998 -59.267)" fill="#fafafa"/>
            <rect id="Rectángulo_44965" data-name="Rectángulo 44965" width="7.595" height="2.456" transform="translate(222.037 107.637)" fill="#1a2e35"/>
            <path id="Trazado_206401" data-name="Trazado 206401" d="M301.942,229.022l-8.069-.2.381-2.443,7.969.309Z" transform="translate(-98.029 -75.516)" fill="#375a64"/>
            <path id="Trazado_206402" data-name="Trazado 206402" d="M329.451,229.074l-20.272-.149.268-2.241,19.983.053Z" transform="translate(-103.135 -75.617)" fill="#375a64"/>
            <path id="Trazado_206403" data-name="Trazado 206403" d="M321.267,226.094v2.7a.737.737,0,0,0,.668.791h5.581a.737.737,0,0,0,.668-.791v-2.7a.737.737,0,0,0-.668-.791h-5.581a.737.737,0,0,0-.668.791m6.044,2.493h-5.17V226.3h5.17Z" transform="translate(-107.168 -75.156)" fill="#fafafa"/>
            <path id="Trazado_206404" data-name="Trazado 206404" d="M342.206,226.761v2.288l4.283.075.061-2.438Z" transform="translate(-114.152 -75.617)" fill="#375a64"/>
            <path id="Trazado_206405" data-name="Trazado 206405" d="M278.508,349.659s.006-.1.034-.3l.135-.878.548-3.371c.49-2.942,1.2-7.169,2.065-12.387,1.745-10.474,4.151-24.916,6.808-40.868,2.639-15.967,4.974-30.43,6.625-40.9l1.935-12.407c.229-1.451.408-2.585.532-3.373.063-.373.111-.663.147-.876.035-.2.062-.3.062-.3s0,.1-.027.3-.065.506-.113.88c-.109.79-.266,1.927-.467,3.383-.406,2.937-1.04,7.181-1.826,12.424-1.589,10.486-3.886,24.955-6.525,40.924s-5.095,30.4-6.909,40.852c-.916,5.209-1.657,9.431-2.174,12.369-.264,1.445-.469,2.574-.612,3.359-.071.371-.127.66-.168.872s-.069.3-.069.3" transform="translate(-92.904 -78.057)" fill="#375a64"/>
            <path id="Trazado_206406" data-name="Trazado 206406" d="M335.682,350.175c-.1,0,.072-25.978.375-58.015s.626-58.019.722-58.017-.072,25.973-.375,58.021-.626,58.013-.722,58.012" transform="translate(-111.967 -78.105)" fill="#375a64"/>
            <path id="Trazado_206407" data-name="Trazado 206407" d="M336.636,408.837c0,.1-4.054.173-9.054.173s-9.055-.077-9.055-.173,4.053-.173,9.055-.173,9.054.077,9.054.173" transform="translate(-106.254 -136.321)" fill="#375a64"/>
            <path id="Trazado_206408" data-name="Trazado 206408" d="M284.522,407.829a2.959,2.959,0,0,1-.726.069l-1.98.068-6.534.159c-2.553.052-4.866.074-6.54.057-.837-.007-1.514-.022-1.982-.042a2.98,2.98,0,0,1-.727-.066,2.966,2.966,0,0,1,.726-.069l1.981-.068,6.534-.159c2.552-.053,4.864-.074,6.538-.057.837.007,1.514.022,1.982.042a2.973,2.973,0,0,1,.727.066" transform="translate(-88.743 -136.005)" fill="#375a64"/>
            <path id="Trazado_206409" data-name="Trazado 206409" d="M370.966,166.549a16.349,16.349,0,0,1-.173-3.353,16.353,16.353,0,0,1,.173-3.353,16.357,16.357,0,0,1,.173,3.353,16.353,16.353,0,0,1-.173,3.353" transform="translate(-123.688 -53.32)" fill="#1a2e35"/>
            <path id="Trazado_206410" data-name="Trazado 206410" d="M373.358,166.989a23.472,23.472,0,0,1-2.435-7.113,32.217,32.217,0,0,1,1.26,3.542,32.326,32.326,0,0,1,1.176,3.571" transform="translate(-123.727 -53.331)" fill="#1a2e35"/>
          </g>
        </g>
      </g>
    </g>
  </g>
</svg>
