<svg xmlns="http://www.w3.org/2000/svg" xmlns:xlink="http://www.w3.org/1999/xlink" width="470" height="402" viewBox="0 0 470 402">
  <defs>
    <clipPath id="clip-path">
      <rect id="Rectángulo_44942" data-name="Rectángulo 44942" width="348.388" height="366.383" fill="none"/>
    </clipPath>
    <clipPath id="clip-path-3">
      <rect id="Rectángulo_44918" data-name="Rectángulo 44918" width="49.951" height="35.396" fill="none"/>
    </clipPath>
    <clipPath id="clip-path-5">
      <rect id="Rectángulo_44919" data-name="Rectángulo 44919" width="1.882" height="47.878" fill="none"/>
    </clipPath>
    <clipPath id="clip-path-6">
      <rect id="Rectángulo_44920" data-name="Rectángulo 44920" width="53.735" height="20.893" fill="none"/>
    </clipPath>
    <clipPath id="clip-path-7">
      <rect id="Rectángulo_44921" data-name="Rectángulo 44921" width="2.335" height="2.373" fill="none"/>
    </clipPath>
    <clipPath id="clip-path-8">
      <rect id="Rectángulo_44922" data-name="Rectángulo 44922" width="28.839" height="16.325" fill="none"/>
    </clipPath>
    <clipPath id="clip-path-9">
      <rect id="Rectángulo_44923" data-name="Rectángulo 44923" width="6.217" height="21" fill="none"/>
    </clipPath>
    <clipPath id="clip-path-10">
      <rect id="Rectángulo_44924" data-name="Rectángulo 44924" width="4.358" height="6.651" fill="none"/>
    </clipPath>
    <clipPath id="clip-path-11">
      <rect id="Rectángulo_44925" data-name="Rectángulo 44925" width="15.189" height="25.865" fill="none"/>
    </clipPath>
    <clipPath id="clip-path-12">
      <rect id="Rectángulo_44926" data-name="Rectángulo 44926" width="9.273" height="27.006" fill="none"/>
    </clipPath>
    <clipPath id="clip-path-13">
      <rect id="Rectángulo_44927" data-name="Rectángulo 44927" width="37.486" height="50.82" fill="none"/>
    </clipPath>
    <clipPath id="clip-path-14">
      <rect id="Rectángulo_44928" data-name="Rectángulo 44928" width="16.785" height="13.084" fill="none"/>
    </clipPath>
    <clipPath id="clip-path-15">
      <rect id="Rectángulo_44929" data-name="Rectángulo 44929" width="2.578" height="1.651" fill="none"/>
    </clipPath>
    <clipPath id="clip-path-16">
      <rect id="Rectángulo_44930" data-name="Rectángulo 44930" width="8.391" height="5.594" fill="none"/>
    </clipPath>
    <clipPath id="clip-path-17">
      <rect id="Rectángulo_44931" data-name="Rectángulo 44931" width="6.486" height="3.89" fill="none"/>
    </clipPath>
    <clipPath id="clip-path-18">
      <rect id="Rectángulo_44932" data-name="Rectángulo 44932" width="19.729" height="28.062" fill="none"/>
    </clipPath>
    <clipPath id="clip-path-19">
      <rect id="Rectángulo_44933" data-name="Rectángulo 44933" width="6.459" height="15.099" fill="none"/>
    </clipPath>
    <clipPath id="clip-path-20">
      <rect id="Rectángulo_44934" data-name="Rectángulo 44934" width="5.945" height="12.013" fill="none"/>
    </clipPath>
    <clipPath id="clip-path-21">
      <rect id="Rectángulo_44935" data-name="Rectángulo 44935" width="40.316" height="104.528" fill="none"/>
    </clipPath>
    <clipPath id="clip-path-22">
      <rect id="Rectángulo_44936" data-name="Rectángulo 44936" width="34.295" height="43.117" fill="none"/>
    </clipPath>
    <clipPath id="clip-path-23">
      <rect id="Rectángulo_44937" data-name="Rectángulo 44937" width="2.253" height="5.577" fill="none"/>
    </clipPath>
    <clipPath id="clip-path-24">
      <rect id="Rectángulo_44938" data-name="Rectángulo 44938" width="18.075" height="25.709" fill="none"/>
    </clipPath>
    <clipPath id="clip-path-25">
      <rect id="Rectángulo_44939" data-name="Rectángulo 44939" width="8.925" height="26.276" fill="none"/>
    </clipPath>
    <clipPath id="clip-path-26">
      <rect id="Rectángulo_44940" data-name="Rectángulo 44940" width="21.62" height="12.203" fill="none"/>
    </clipPath>
  </defs>
  <g id="Grupo_146521" data-name="Grupo 146521" transform="translate(-16059 -599)">
    <rect id="Rectángulo_44908" data-name="Rectángulo 44908" width="190" height="402" transform="translate(16339 599)" fill="#4dd0e1"/>
    <rect id="Rectángulo_44909" data-name="Rectángulo 44909" width="459" height="384" rx="20" transform="translate(16059 608)" fill="#fff"/>
    <g id="Grupo_144079" data-name="Grupo 144079" transform="translate(16129.926 617)">
      <g id="Grupo_144078" data-name="Grupo 144078" clip-path="url(#clip-path)">
        <g id="Grupo_144077" data-name="Grupo 144077">
          <g id="Grupo_144076" data-name="Grupo 144076" clip-path="url(#clip-path)">
            <path id="Trazado_205991" data-name="Trazado 205991" d="M481.012,352.6c5.943-3.431,15.548-3.431,21.453,0s5.874,9-.069,12.427-15.549,3.431-21.454,0-5.874-8.995.07-12.427" transform="translate(-158.485 -116.411)" fill="#e1e1e1"/>
            <path id="Trazado_205993" data-name="Trazado 205993" d="M466,396.355a.38.38,0,0,1,0,.72l-2.788,1.62a1.369,1.369,0,0,1-1.243,0L399.512,362.8a.38.38,0,0,1,0-.719l2.788-1.621a1.369,1.369,0,0,1,1.243,0Z" transform="translate(-132.783 -119.833)" fill="#e1e1e1"/>
            <path id="Trazado_205996" data-name="Trazado 205996" d="M171.253,436.337l12.133,7.006a4.336,4.336,0,0,0,4.334,0l61.761-35.658a.866.866,0,0,0-.007-1.505l-12.3-6.945a4.331,4.331,0,0,0-4.3.021l-61.628,35.581a.866.866,0,0,0,0,1.5" transform="translate(-56.811 -132.591)" fill="#e1e1e1"/>
            <path id="Trazado_205997" data-name="Trazado 205997" d="M323.163,16.042l3.233-1.879-.19,96.757-3.233,1.879Z" transform="translate(-107.414 -4.71)" fill="#f0f0f0"/>
            <path id="Trazado_205998" data-name="Trazado 205998" d="M322.973,161.014l3.233-1.879L363.427,180.5l-3.233,1.879Z" transform="translate(-107.414 -52.925)" fill="#f5f5f5"/>
            <path id="Trazado_205999" data-name="Trazado 205999" d="M317.6,7.356l44.661,25.661-.214,105.306-44.661-25.661ZM358.335,131.9l.19-96.757L321.3,13.779l-.19,96.757L358.335,131.9" transform="translate(-105.555 -2.446)" fill="#e1e1e1"/>
            <path id="Trazado_206000" data-name="Trazado 206000" d="M317.7,6.42l3.233-1.879L365.6,30.2l-3.233,1.879Z" transform="translate(-105.661 -1.51)" fill="#f5f5f5"/>
            <path id="Trazado_206001" data-name="Trazado 206001" d="M384.511,44.868l3.233-1.879-.214,105.306-3.233,1.879Z" transform="translate(-127.809 -14.297)" fill="#f0f0f0"/>
            <path id="Trazado_206002" data-name="Trazado 206002" d="M322.984,69.852l3.233-1.879,34.171,19.654v3.739Z" transform="translate(-107.418 -22.606)" fill="#f5f5f5"/>
            <path id="Trazado_206003" data-name="Trazado 206003" d="M322.98,70.788h0l37.4,21.514v4.269l-37.41-21.494Z" transform="translate(-107.414 -23.543)" fill="#e1e1e1"/>
            <path id="Trazado_206004" data-name="Trazado 206004" d="M360.388,92.3l-37.4-21.514Z" transform="translate(-107.418 -23.543)" fill="#e1e1e1"/>
            <path id="Trazado_206005" data-name="Trazado 206005" d="M408.473,65.121l3.233-1.879L411.516,160l-3.233,1.879Z" transform="translate(-135.787 -21.033)" fill="#f0f0f0"/>
            <path id="Trazado_206006" data-name="Trazado 206006" d="M408.283,210.094l3.233-1.879,37.221,21.365-3.233,1.879Z" transform="translate(-135.786 -69.248)" fill="#f5f5f5"/>
            <path id="Trazado_206007" data-name="Trazado 206007" d="M402.906,56.436l44.66,25.66L447.352,187.4l-44.661-25.661Zm40.739,124.545.19-96.757L406.613,62.858l-.19,96.757,37.221,21.365" transform="translate(-133.927 -18.769)" fill="#e1e1e1"/>
            <path id="Trazado_206008" data-name="Trazado 206008" d="M403.012,55.5l3.233-1.879,44.661,25.661-3.234,1.879Z" transform="translate(-134.033 -17.833)" fill="#f5f5f5"/>
            <path id="Trazado_206009" data-name="Trazado 206009" d="M469.821,93.947l3.233-1.879-.214,105.306-3.233,1.879Z" transform="translate(-156.182 -30.62)" fill="#f0f0f0"/>
            <path id="Trazado_206010" data-name="Trazado 206010" d="M408.294,118.931l3.233-1.879L445.7,136.706v3.739Z" transform="translate(-135.79 -38.929)" fill="#f5f5f5"/>
            <path id="Trazado_206011" data-name="Trazado 206011" d="M408.29,119.867h0l37.4,21.514v4.27l-37.41-21.495Z" transform="translate(-135.787 -39.865)" fill="#e1e1e1"/>
            <path id="Trazado_206012" data-name="Trazado 206012" d="M445.7,141.381l-37.4-21.514Z" transform="translate(-135.79 -39.865)" fill="#e1e1e1"/>
            <path id="Trazado_206013" data-name="Trazado 206013" d="M257.533,293.108a10.758,10.758,0,0,1-9.761,0,3.467,3.467,0,0,1-2.038-2.827v4a3.465,3.465,0,0,0,2.038,2.826,10.755,10.755,0,0,0,9.761,0,3.414,3.414,0,0,0,2.006-2.826v-4a3.416,3.416,0,0,1-2.006,2.827" transform="translate(-81.726 -96.541)" fill="#e1e1e1"/>
            <path id="Trazado_206014" data-name="Trazado 206014" d="M247.772,291.116a10.758,10.758,0,0,0,9.761,0,3.416,3.416,0,0,0,2.006-2.827,3.465,3.465,0,0,0-2.038-2.827,10.756,10.756,0,0,0-9.761,0,3.416,3.416,0,0,0-2.006,2.827,3.467,3.467,0,0,0,2.038,2.827" transform="translate(-81.726 -94.549)" fill="#f0f0f0"/>
            <path id="Trazado_206015" data-name="Trazado 206015" d="M253.148,15.647V198.52a.981.981,0,0,0,.577.8,3.044,3.044,0,0,0,2.762,0,.968.968,0,0,0,.568-.8V15.647Z" transform="translate(-84.192 -5.204)" fill="#e1e1e1"/>
            <path id="Trazado_206016" data-name="Trazado 206016" d="M253.97,13.017a3.254,3.254,0,0,1,1.477,2.558c0,.94-.668,1.319-1.487.847a3.253,3.253,0,0,1-1.476-2.558c0-.94.668-1.319,1.486-.847" transform="translate(-83.971 -4.261)" fill="#e1e1e1"/>
            <path id="Trazado_206017" data-name="Trazado 206017" d="M270.364,2.694c0-.024,0-.047,0-.071l0-.033V2.575c0-.008,0-.017,0-.025,0-.025,0-.049-.008-.073s-.007-.049-.011-.074v0c0-.023-.007-.047-.012-.071s-.01-.051-.016-.077c0-.009,0-.018-.006-.027l0-.017c0-.011,0-.023-.008-.034s-.013-.052-.021-.079-.011-.038-.016-.057l0-.011,0-.011-.025-.077c-.008-.025-.017-.05-.026-.075l-.005-.013,0-.012-.018-.047-.029-.071-.022-.051,0-.009,0-.01c-.01-.024-.021-.047-.032-.071l-.038-.078-.006-.012-.008-.015c-.011-.021-.021-.041-.032-.061s-.028-.051-.043-.077l-.021-.038-.009-.016-.041-.065c-.02-.032-.039-.063-.06-.095l-.009-.015c-.03-.045-.061-.089-.093-.133h0c-.022-.029-.043-.058-.066-.087l-.055-.067,0,0h0l-.057-.067-.058-.063-.009-.01-.01-.011L269.417.62l-.063-.061L269.335.54,269.32.526,269.289.5,269.224.44l-.029-.024L269.18.4l-.022-.017c-.021-.017-.043-.034-.065-.05L269.045.3,269.036.3l-.008-.005-.063-.042L268.9.211,268.888.2l-.047-.026L268.78.145l-.039-.018-.009,0L268.72.117l-.059-.025L268.6.069l-.01,0-.009,0-.04-.013L268.48.033l-.029-.007-.013,0-.019,0-.065-.011-.039,0h-.027a.606.606,0,0,0-.069,0h-.077c-.029,0-.057.007-.085.012h0l-.018,0a.872.872,0,0,0-.084.023l-.007,0a.761.761,0,0,0-.113.053l-14.7,8.552a.771.771,0,0,1,.114-.053.779.779,0,0,1,.09-.026l.018,0a.749.749,0,0,1,.111-.014h.023a.905.905,0,0,1,.112,0h.014a1.034,1.034,0,0,1,.123.019l.013,0a1.279,1.279,0,0,1,.13.037l.009,0a1.516,1.516,0,0,1,.141.057l.009,0a1.624,1.624,0,0,1,.147.076q.075.043.148.094l.009.006c.045.032.091.065.135.1l.015.012q.064.052.126.11l.015.014c.042.039.083.08.123.122l.01.011c.043.046.085.093.125.142h0c.041.05.081.1.121.155h0c.035.048.069.1.1.148.02.031.04.063.059.095s.033.053.049.08l.021.039c.026.045.051.091.075.138l.008.015c.029.057.055.113.081.172l0,.009c.025.057.047.113.069.171l0,.011c.022.059.041.117.059.176l0,.011c.017.057.032.113.045.17l0,.016c.013.059.025.117.035.175v0c.009.059.016.117.021.174v.014c0,.058.007.115.007.172s0,.11-.008.162v.015c0,.047-.012.093-.02.138l0,.017c-.009.043-.019.084-.031.123,0,.007-.005.014-.007.021-.013.037-.026.072-.041.106l0,.011a1.043,1.043,0,0,1-.059.108l-.009.012a.854.854,0,0,1-.057.077l-.023.025q-.027.028-.056.054a.238.238,0,0,1-.024.02.631.631,0,0,1-.085.06l14.7-8.552a.75.75,0,0,0,.085-.059l.024-.021c.019-.017.038-.035.056-.054l.023-.025a.942.942,0,0,0,.057-.076l.009-.013,0,0a.881.881,0,0,0,.056-.1v0l.005-.011c.01-.023.02-.045.029-.069s.008-.025.013-.037l.007-.021.007-.019q.011-.037.02-.076c0-.009,0-.019.005-.028l0-.017c0-.009,0-.018.005-.027s.008-.047.011-.071,0-.027,0-.041V2.906c0-.023,0-.047,0-.07s0-.047,0-.071v0c0-.022,0-.044,0-.067" transform="translate(-84.186 0)" fill="#e6e6e6"/>
            <path id="Trazado_206018" data-name="Trazado 206018" d="M19.991,100.954V248.763L175.75,158.994V10.709Z" transform="translate(-6.649 -3.562)" fill="#bddcf6"/>
            <path id="Trazado_206019" data-name="Trazado 206019" d="M23.126,143.032a6.864,6.864,0,0,1,3.115,5.395c-.006,1.983-1.41,2.783-3.136,1.787a6.863,6.863,0,0,1-3.114-5.395c.005-1.984,1.409-2.783,3.135-1.787" transform="translate(-6.649 -47.427)" fill="#0f2771"/>
            <path id="Trazado_206020" data-name="Trazado 206020" d="M183.086,12.833c0-.05,0-.1-.007-.151,0-.023,0-.047-.005-.069l0-.03c0-.017,0-.035,0-.053,0-.051-.011-.1-.017-.154s-.014-.1-.023-.157v-.009c-.008-.049-.017-.1-.026-.149s-.021-.108-.033-.163c0-.019-.009-.038-.013-.057l-.008-.034c-.006-.024-.011-.048-.017-.072-.014-.055-.028-.11-.044-.166s-.023-.081-.035-.121c0-.007,0-.015-.007-.023s0-.015-.007-.022c-.017-.053-.033-.107-.051-.162s-.037-.106-.056-.159l-.011-.029c0-.008-.006-.016-.009-.024-.012-.033-.024-.067-.037-.1-.019-.05-.04-.1-.061-.152s-.031-.073-.047-.109l-.008-.019-.009-.021c-.022-.05-.045-.1-.069-.151s-.052-.11-.079-.165l-.013-.025-.017-.032c-.022-.044-.045-.087-.067-.131s-.06-.107-.09-.161l-.046-.081-.018-.032c-.027-.047-.057-.091-.086-.137-.041-.067-.082-.134-.125-.2l-.02-.031c-.064-.1-.129-.19-.2-.281h0c-.045-.061-.091-.122-.139-.182s-.077-.1-.115-.143l0,0v0c-.04-.048-.08-.095-.121-.141l-.121-.135-.02-.021-.022-.023c-.029-.031-.057-.061-.086-.09s-.087-.087-.131-.13l-.041-.039-.031-.029L180.82,8.2c-.045-.041-.092-.081-.139-.121l-.062-.051-.031-.025-.045-.037c-.045-.036-.091-.071-.137-.1s-.067-.048-.1-.071l-.018-.013-.017-.012c-.043-.03-.088-.059-.132-.087s-.088-.055-.133-.081l-.031-.018-.1-.055c-.043-.023-.085-.045-.127-.066l-.083-.039-.02-.01-.024-.011c-.042-.019-.083-.036-.125-.053s-.084-.033-.126-.047l-.021-.007-.019-.006-.085-.028-.129-.035-.061-.013-.027-.006-.039-.009c-.046-.009-.092-.016-.137-.022-.028,0-.055-.006-.083-.009l-.029,0-.028,0c-.049,0-.1,0-.146,0-.021,0-.042,0-.063,0l-.049,0c-.017,0-.034,0-.05,0a1.583,1.583,0,0,0-.18.026h0l-.037.011a1.42,1.42,0,0,0-.178.049l-.013.006a1.531,1.531,0,0,0-.24.111L21.357,97.766a1.533,1.533,0,0,1,.24-.111,1.5,1.5,0,0,1,.191-.055l.037-.011a1.755,1.755,0,0,1,.234-.029l.049,0a1.886,1.886,0,0,1,.237,0l.029,0a2.3,2.3,0,0,1,.26.04l.027.006a2.71,2.71,0,0,1,.275.077l.019.006c.1.034.2.073.3.119l.021.009c.1.047.2.1.309.161s.21.127.313.2l.019.013q.143.1.284.214l.031.025c.089.074.178.152.265.232l.031.029c.089.083.175.169.26.259l.021.022c.091.1.179.2.264.3l0,0c.088.105.173.214.256.326h0c.075.1.147.207.217.312.043.066.084.133.125.2s.071.113.1.17c.016.027.031.055.046.082.054.1.107.193.158.291l.017.032q.09.179.17.362l.008.019c.052.119.1.24.145.36l.009.024c.045.123.087.248.125.372a.225.225,0,0,0,.007.023q.053.179.1.358l.008.034c.028.123.053.247.072.369v0c.02.124.034.246.045.368l0,.03c.01.121.015.242.015.361s-.006.233-.016.343l0,.03c-.01.1-.025.2-.043.291,0,.013,0,.025-.007.037-.019.09-.041.177-.067.26-.005.016-.011.031-.015.046a2.38,2.38,0,0,1-.087.223l-.01.024a2.07,2.07,0,0,1-.125.228l-.019.026a1.642,1.642,0,0,1-.122.161c-.015.018-.031.035-.047.052a1.453,1.453,0,0,1-.117.114l-.051.043a1.538,1.538,0,0,1-.181.126h0l156.393-90.4a1.509,1.509,0,0,0,.181-.125l.051-.043a1.567,1.567,0,0,0,.117-.114q.025-.025.048-.052a1.719,1.719,0,0,0,.121-.161c.006-.009.013-.017.019-.027l0-.006a1.978,1.978,0,0,0,.118-.214l0-.008.01-.024c.021-.047.043-.1.061-.145.009-.025.017-.052.026-.077l.015-.046c0-.014.01-.027.014-.041.015-.051.029-.1.041-.16,0-.019.008-.039.012-.059l.007-.037c0-.019.008-.037.011-.057.009-.049.016-.1.023-.149,0-.028.005-.057.009-.085l0-.03,0-.035c0-.048.007-.1.009-.148s0-.1,0-.151v-.009c0-.047,0-.093,0-.141" transform="translate(-7.103 -2.378)" fill="#d268cc"/>
            <path id="Trazado_206021" data-name="Trazado 206021" d="M183.086,12.833c0-.05,0-.1-.007-.151,0-.023,0-.047-.005-.069l0-.03c0-.017,0-.035,0-.053,0-.051-.011-.1-.017-.154s-.014-.1-.023-.157v-.009c-.008-.049-.017-.1-.026-.149s-.021-.108-.033-.163c0-.019-.009-.038-.013-.057l-.008-.034c-.006-.024-.011-.048-.017-.072-.014-.055-.028-.11-.044-.166s-.023-.081-.035-.121c0-.007,0-.015-.007-.023s0-.015-.007-.022c-.017-.053-.033-.107-.051-.162s-.037-.106-.056-.159l-.011-.029c0-.008-.006-.016-.009-.024-.012-.033-.024-.067-.037-.1-.019-.05-.04-.1-.061-.152s-.031-.073-.047-.109l-.008-.019-.009-.021c-.022-.05-.045-.1-.069-.151s-.052-.11-.079-.165l-.013-.025-.017-.032c-.022-.044-.045-.087-.067-.131s-.06-.107-.09-.161l-.046-.081-.018-.032c-.027-.047-.057-.091-.086-.137-.041-.067-.082-.134-.125-.2l-.02-.031c-.064-.1-.129-.19-.2-.281h0c-.045-.061-.091-.122-.139-.182s-.077-.1-.115-.143l0,0v0c-.04-.048-.08-.095-.121-.141l-.121-.135-.02-.021-.022-.023c-.029-.031-.057-.061-.086-.09s-.087-.087-.131-.13l-.041-.039-.031-.029L180.82,8.2c-.045-.041-.092-.081-.139-.121l-.062-.051-.031-.025-.045-.037c-.045-.036-.091-.071-.137-.1s-.067-.048-.1-.071l-.018-.013-.017-.012c-.043-.03-.088-.059-.132-.087s-.088-.055-.133-.081l-.031-.018-.1-.055c-.043-.023-.085-.045-.127-.066l-.083-.039-.02-.01-.024-.011c-.042-.019-.083-.036-.125-.053s-.084-.033-.126-.047l-.021-.007-.019-.006-.085-.028-.129-.035-.061-.013-.027-.006-.039-.009c-.046-.009-.092-.016-.137-.022-.028,0-.055-.006-.083-.009l-.029,0-.028,0c-.049,0-.1,0-.146,0-.021,0-.042,0-.063,0l-.049,0c-.017,0-.034,0-.05,0a1.583,1.583,0,0,0-.18.026h0l-.037.011a1.42,1.42,0,0,0-.178.049l-.013.006a1.531,1.531,0,0,0-.24.111L21.357,97.766a1.533,1.533,0,0,1,.24-.111,1.5,1.5,0,0,1,.191-.055l.037-.011a1.755,1.755,0,0,1,.234-.029l.049,0a1.886,1.886,0,0,1,.237,0l.029,0a2.3,2.3,0,0,1,.26.04l.027.006a2.71,2.71,0,0,1,.275.077l.019.006c.1.034.2.073.3.119l.021.009c.1.047.2.1.309.161s.21.127.313.2l.019.013q.143.1.284.214l.031.025c.089.074.178.152.265.232l.031.029c.089.083.175.169.26.259l.021.022c.091.1.179.2.264.3l0,0c.088.105.173.214.256.326h0c.075.1.147.207.217.312.043.066.084.133.125.2s.071.113.1.17c.016.027.031.055.046.082.054.1.107.193.158.291l.017.032q.09.179.17.362l.008.019c.052.119.1.24.145.36l.009.024c.045.123.087.248.125.372a.225.225,0,0,0,.007.023q.053.179.1.358l.008.034c.028.123.053.247.072.369v0c.02.124.034.246.045.368l0,.03c.01.121.015.242.015.361s-.006.233-.016.343l0,.03c-.01.1-.025.2-.043.291,0,.013,0,.025-.007.037-.019.09-.041.177-.067.26-.005.016-.011.031-.015.046a2.38,2.38,0,0,1-.087.223l-.01.024a2.07,2.07,0,0,1-.125.228l-.019.026a1.642,1.642,0,0,1-.122.161c-.015.018-.031.035-.047.052a1.453,1.453,0,0,1-.117.114l-.051.043a1.538,1.538,0,0,1-.181.126h0l156.393-90.4a1.509,1.509,0,0,0,.181-.125l.051-.043a1.567,1.567,0,0,0,.117-.114q.025-.025.048-.052a1.719,1.719,0,0,0,.121-.161c.006-.009.013-.017.019-.027l0-.006a1.978,1.978,0,0,0,.118-.214l0-.008.01-.024c.021-.047.043-.1.061-.145.009-.025.017-.052.026-.077l.015-.046c0-.014.01-.027.014-.041.015-.051.029-.1.041-.16,0-.019.008-.039.012-.059l.007-.037c0-.019.008-.037.011-.057.009-.049.016-.1.023-.149,0-.028.005-.057.009-.085l0-.03,0-.035c0-.048.007-.1.009-.148s0-.1,0-.151v-.009c0-.047,0-.093,0-.141" transform="translate(-7.103 -2.378)" fill="#feca2e"/>
            <path id="Trazado_206022" data-name="Trazado 206022" d="M21.448,429.332a10.758,10.758,0,0,1-9.761,0,3.468,3.468,0,0,1-2.038-2.827v4a3.466,3.466,0,0,0,2.038,2.827,10.755,10.755,0,0,0,9.761,0,3.414,3.414,0,0,0,2.006-2.827v-4a3.416,3.416,0,0,1-2.006,2.827" transform="translate(-3.209 -141.847)" fill="#e1e1e1"/>
            <path id="Trazado_206023" data-name="Trazado 206023" d="M11.688,427.34a10.757,10.757,0,0,0,9.761,0,3.416,3.416,0,0,0,2.006-2.827,3.465,3.465,0,0,0-2.038-2.827,10.755,10.755,0,0,0-9.761,0,3.416,3.416,0,0,0-2.006,2.827,3.467,3.467,0,0,0,2.038,2.827" transform="translate(-3.209 -139.855)" fill="#f0f0f0"/>
            <path id="Trazado_206024" data-name="Trazado 206024" d="M17.064,151.871V334.744a.98.98,0,0,0,.577.8,3.044,3.044,0,0,0,2.762,0,.967.967,0,0,0,.568-.8V151.871Z" transform="translate(-5.675 -50.509)" fill="#e1e1e1"/>
            <path id="Trazado_206025" data-name="Trazado 206025" d="M1.486,158.916a3.254,3.254,0,0,1,1.477,2.558c0,.94-.668,1.319-1.486.847A3.253,3.253,0,0,1,0,159.763c0-.94.668-1.319,1.486-.847" transform="translate(0 -52.784)" fill="#e1e1e1"/>
            <path id="Trazado_206026" data-name="Trazado 206026" d="M17.88,148.593c0-.024,0-.047,0-.071l0-.033v-.015c0-.008,0-.017,0-.025,0-.025,0-.049-.008-.073s-.007-.049-.011-.075v0c0-.023-.007-.047-.012-.071s-.01-.051-.016-.077l-.006-.027,0-.017c0-.011,0-.023-.008-.034s-.013-.052-.021-.079-.011-.038-.017-.057l0-.011,0-.011-.025-.077c-.008-.025-.017-.05-.026-.075l-.005-.013,0-.012-.018-.047-.029-.071-.022-.052,0-.009,0-.01c-.01-.024-.021-.048-.032-.071l-.038-.078-.006-.012-.008-.015c-.011-.021-.021-.041-.032-.062s-.028-.051-.043-.076l-.021-.038-.009-.016-.041-.065c-.02-.032-.039-.064-.06-.095L17.326,147c-.03-.045-.061-.089-.093-.133h0c-.022-.029-.043-.058-.066-.087l-.055-.067,0,0h0l-.057-.067-.058-.063a.065.065,0,0,0-.009-.01l-.01-.011-.041-.043-.063-.061-.019-.018-.015-.014-.03-.029-.066-.057-.029-.024L16.7,146.3l-.022-.017c-.021-.017-.043-.034-.065-.05l-.047-.034-.009-.006-.008-.005-.063-.042-.063-.038L16.4,146.1l-.047-.027-.061-.031-.039-.018-.009,0-.012-.005-.059-.025-.059-.023-.01,0-.009,0-.04-.013L16,145.932l-.029-.007-.013,0-.019,0-.065-.011-.039,0h-.027c-.023,0-.047,0-.069,0h-.077c-.029,0-.057.007-.085.012h0l-.018,0a.863.863,0,0,0-.084.023l-.006,0a.739.739,0,0,0-.114.053l-14.7,8.552a.731.731,0,0,1,.113-.053.779.779,0,0,1,.09-.026l.018,0a.748.748,0,0,1,.111-.014H1a.9.9,0,0,1,.112,0H1.13a1.04,1.04,0,0,1,.123.019l.013,0a1.284,1.284,0,0,1,.13.037l.009,0a1.518,1.518,0,0,1,.141.057l.009,0a1.628,1.628,0,0,1,.147.076q.075.043.148.094l.009.006c.045.032.091.065.135.1l.015.012q.064.052.126.11l.015.013c.042.039.083.081.123.123l.01.011c.043.046.085.093.125.142h0c.041.05.081.1.121.155h0c.035.048.069.1.1.147.021.031.04.063.059.1s.033.053.049.08l.021.039c.026.045.051.091.075.138l.008.015c.029.057.055.113.081.172l0,.009c.025.057.047.113.069.171l0,.011c.022.059.041.117.059.176l0,.011c.017.057.032.113.045.17l0,.016c.013.059.025.117.035.175v0c.009.059.016.117.021.174v.014c0,.058.007.115.007.172s0,.11-.008.162v.015c0,.047-.012.093-.02.137l0,.018c-.009.043-.019.084-.031.123l-.007.021c-.013.037-.026.072-.041.106l0,.011a1.042,1.042,0,0,1-.059.108l-.009.012a.758.758,0,0,1-.057.076l-.023.025q-.027.028-.056.054l-.023.02a.689.689,0,0,1-.086.06l14.7-8.552a.751.751,0,0,0,.085-.059l.024-.021a.707.707,0,0,0,.055-.054l.023-.025a.817.817,0,0,0,.058-.076l.009-.013,0,0a.816.816,0,0,0,.056-.1v0l.005-.011c.01-.023.02-.045.029-.069s.008-.025.013-.037l.007-.021.007-.019q.011-.037.02-.076c0-.009,0-.019.005-.028l0-.017c0-.009,0-.018.005-.027s.008-.047.011-.071,0-.027,0-.041v-.031c0-.023,0-.047,0-.07s0-.047,0-.072v0c0-.022,0-.045,0-.067" transform="translate(-0.216 -48.523)" fill="#e6e6e6"/>
            <path id="Trazado_206027" data-name="Trazado 206027" d="M76.367,286.38l-.02-6.973-13.79,7.962.019,6.973Z" transform="translate(-20.805 -92.925)" fill="#d268cc"/>
            <path id="Trazado_206028" data-name="Trazado 206028" d="M76.318,269.286l-13.791,7.962L62.547,284l13.791-7.962Z" transform="translate(-20.795 -89.559)" fill="#4dd0e1"/>
            <line id="Línea_291" data-name="Línea 291" x1="13.791" y2="7.962" transform="translate(41.771 193.455)" fill="none" stroke="#d268cc" stroke-linecap="round" stroke-linejoin="round" stroke-width="0"/>
            <path id="Trazado_206029" data-name="Trazado 206029" d="M62.576,298.31l-.02-6.973Z" transform="translate(-20.805 -96.893)" fill="#d268cc"/>
            <path id="Trazado_206030" data-name="Trazado 206030" d="M102.457,215.655l-13.791,7.962L88.721,243l13.79-7.962Z" transform="translate(-29.488 -71.722)" fill="#4dd0e1"/>
            <path id="Trazado_206031" data-name="Trazado 206031" d="M88.805,272.686l13.791-7.962-.057-20.021-13.79,7.962Z" transform="translate(-29.516 -81.383)" fill="#d268cc"/>
            <path id="Trazado_206032" data-name="Trazado 206032" d="M114.877,191.429l.144,50.772-.073-25.8,13.791-7.962-.071-24.974Z" transform="translate(-38.206 -61.018)" fill="#4dd0e1"/>
            <path id="Trazado_206033" data-name="Trazado 206033" d="M155.014,199.036,141.223,207l.043,14.886,13.79-7.962Z" transform="translate(-46.968 -66.195)" fill="#4dd0e1"/>
            <path id="Trazado_206034" data-name="Trazado 206034" d="M115.056,254.646l13.791-7.962-.073-25.8-13.791,7.962Z" transform="translate(-38.241 -73.462)" fill="#d268cc"/>
            <path id="Trazado_206035" data-name="Trazado 206035" d="M193.806,203.494l13.791-7.962-.105-37.189L193.7,166.3Z" transform="translate(-64.421 -52.661)" fill="#d268cc"/>
            <path id="Trazado_206036" data-name="Trazado 206036" d="M167.56,223.275l13.791-7.962-.079-27.917-13.791,7.962Z" transform="translate(-55.7 -62.324)" fill="#d268cc"/>
            <path id="Trazado_206037" data-name="Trazado 206037" d="M141.33,244.679l13.791-7.962-.044-15.375-13.79,7.962Z" transform="translate(-46.989 -73.614)" fill="#d268cc"/>
            <path id="Trazado_206038" data-name="Trazado 206038" d="M76.367,286.38l-.02-6.973-13.79,7.962.019,6.973Z" transform="translate(-20.805 -92.925)" fill="#12263f"/>
            <path id="Trazado_206039" data-name="Trazado 206039" d="M88.805,272.686l13.791-7.962-.057-20.021-13.79,7.962Z" transform="translate(-29.516 -81.383)" fill="#12263f"/>
            <path id="Trazado_206040" data-name="Trazado 206040" d="M115.056,254.646l13.791-7.962-.073-25.8-13.791,7.962Z" transform="translate(-38.241 -73.462)" fill="#12263f"/>
            <path id="Trazado_206041" data-name="Trazado 206041" d="M193.806,203.494l13.791-7.962-.105-37.189L193.7,166.3Z" transform="translate(-64.421 -52.661)" fill="#12263f"/>
            <path id="Trazado_206042" data-name="Trazado 206042" d="M167.56,223.275l13.791-7.962-.079-27.917-13.791,7.962Z" transform="translate(-55.7 -62.324)" fill="#12263f"/>
            <path id="Trazado_206043" data-name="Trazado 206043" d="M141.33,244.679l13.791-7.962-.044-15.375-13.79,7.962Z" transform="translate(-46.989 -73.614)" fill="#12263f"/>
            <path id="Trazado_206044" data-name="Trazado 206044" d="M193.65,148.364l13.791-7.962-.1-36-13.791,7.962Z" transform="translate(-64.37 -34.721)" fill="#4dd0e1"/>
            <line id="Línea_292" data-name="Línea 292" y1="7.962" x2="13.791" transform="translate(129.385 142.87)" fill="none" stroke="#d268cc" stroke-linecap="round" stroke-linejoin="round" stroke-width="0"/>
            <path id="Trazado_206045" data-name="Trazado 206045" d="M193.7,170.272l.105,37.189Z" transform="translate(-64.421 -56.629)" fill="#d268cc"/>
            <path id="Trazado_206046" data-name="Trazado 206046" d="M167.366,154.86l.155,54.947-.079-27.917,13.79-7.962-.076-27.03Z" transform="translate(-55.662 -48.855)" fill="#4dd0e1"/>
            <line id="Línea_293" data-name="Línea 293" x1="13.791" y2="7.962" transform="translate(111.859 152.989)" fill="none" stroke="#d268cc" stroke-linecap="round" stroke-linejoin="round" stroke-width="0"/>
            <path id="Trazado_206047" data-name="Trazado 206047" d="M122.153,130.926l34.8-60.274,4.166,2.374,2.516-17.388L149.858,66.606l3.993,2.275-31.717,54.937L101.64,112.139,62.432,183.628l39.228-64.371Z" transform="translate(-20.764 -18.504)" fill="#d268cc"/>
            <path id="Trazado_206048" data-name="Trazado 206048" d="M122.153,130.926l34.8-60.274,4.166,2.374,2.516-17.388L149.858,66.606l3.993,2.275-31.717,54.937L101.64,112.139,62.432,183.628l39.228-64.371Z" transform="translate(-20.764 -18.504)"/>
            <path id="Trazado_206049" data-name="Trazado 206049" d="M173.047,195.326l-.007-2.264-126.086,72.8-.294-103.492-1.97,1.137L44.985,267l-9.315,5.377.006,2.264,9.315-5.377.03,10.73,1.97-1.137-.031-10.731Z" transform="translate(-11.863 -54)" fill="#d268cc"/>
            <path id="Trazado_206050" data-name="Trazado 206050" d="M173.047,195.326l-.007-2.264-126.086,72.8-.294-103.492-1.97,1.137L44.985,267l-9.315,5.377.006,2.264,9.315-5.377.03,10.73,1.97-1.137-.031-10.731Z" transform="translate(-11.863 -54)" fill="#d2e1f1"/>
            <path id="Trazado_206051" data-name="Trazado 206051" d="M408.657,267.141l-.116,44.474a2.559,2.559,0,0,0,1.163,2.012l57.761,33.349V348.3l1.414-.894.007,0,.04-.026,0,0a.833.833,0,0,0,.3-.717l.121-46.232-1.456.92Z" transform="translate(-135.872 -88.846)" fill="#d268cc"/>
            <path id="Trazado_206052" data-name="Trazado 206052" d="M408.657,267.141l-.116,44.474a2.559,2.559,0,0,0,1.163,2.012l57.761,33.349V348.3l1.414-.894.007,0,.04-.026,0,0a.833.833,0,0,0,.3-.717l.121-46.232-1.456.92Z" transform="translate(-135.872 -88.846)" fill="#0f2771"/>
            <path id="Trazado_206053" data-name="Trazado 206053" d="M467.7,294.449l-58.353-33.69a.771.771,0,0,0-.9-.025v-.007l-1.38.869,1.107.629,0,.984,0,1.759,59.234,34.2,1.456-.92.005-1.785a2.559,2.559,0,0,0-1.161-2.011" transform="translate(-135.383 -86.671)" fill="#d268cc"/>
            <path id="Trazado_206054" data-name="Trazado 206054" d="M467.166,300.922l-.122,46.232c0,.74-.525,1.038-1.169.666l-58.353-33.69a2.564,2.564,0,0,1-1.163-2.012l.121-46.232Z" transform="translate(-135.147 -88.428)" fill="#4dd0e1"/>
            <path id="Trazado_206055" data-name="Trazado 206055" d="M408.8,264.077a1.119,1.119,0,0,1,.509.88c0,.322-.23.455-.512.292a1.126,1.126,0,0,1-.509-.88c0-.324.232-.454.512-.292" transform="translate(-135.787 -87.803)" fill="#f5f5f5"/>
            <path id="Trazado_206056" data-name="Trazado 206056" d="M411.018,265.36a1.118,1.118,0,0,1,.509.88c0,.322-.23.454-.512.292a1.122,1.122,0,0,1-.509-.88c0-.324.23-.454.512-.292" transform="translate(-136.526 -88.23)" fill="#f5f5f5"/>
            <path id="Trazado_206057" data-name="Trazado 206057" d="M413.24,266.643a1.119,1.119,0,0,1,.509.88c0,.322-.23.454-.512.292a1.121,1.121,0,0,1-.509-.88c0-.324.23-.455.512-.292" transform="translate(-137.265 -88.657)" fill="#f5f5f5"/>
            <path id="Trazado_206058" data-name="Trazado 206058" d="M466.07,295.826a2.559,2.559,0,0,1,1.161,2.012l0,1.784-60.685-35.037,0-1.784c0-.739.527-1.036,1.171-.665ZM409.7,265.43c.282.163.511.031.512-.292a1.118,1.118,0,0,0-.509-.88c-.282-.163-.511-.033-.512.292a1.122,1.122,0,0,0,.509.88m1.483.856c.282.163.511.031.512-.292a1.118,1.118,0,0,0-.509-.88c-.282-.164-.511-.033-.512.291a1.123,1.123,0,0,0,.509.881m-2.966-1.713c.282.163.511.031.512-.292a1.118,1.118,0,0,0-.509-.88c-.28-.162-.511-.033-.512.292a1.126,1.126,0,0,0,.508.88" transform="translate(-135.207 -87.128)" fill="#d268cc"/>
            <path id="Trazado_206059" data-name="Trazado 206059" d="M466.07,295.826a2.559,2.559,0,0,1,1.161,2.012l0,1.784-60.685-35.037,0-1.784c0-.739.527-1.036,1.171-.665ZM409.7,265.43c.282.163.511.031.512-.292a1.118,1.118,0,0,0-.509-.88c-.282-.163-.511-.033-.512.292a1.122,1.122,0,0,0,.509.88m1.483.856c.282.163.511.031.512-.292a1.118,1.118,0,0,0-.509-.88c-.282-.164-.511-.033-.512.291a1.123,1.123,0,0,0,.509.881m-2.966-1.713c.282.163.511.031.512-.292a1.118,1.118,0,0,0-.509-.88c-.28-.162-.511-.033-.512.292a1.126,1.126,0,0,0,.508.88" transform="translate(-135.207 -87.128)" fill="#0f2771"/>
            <path id="Trazado_206060" data-name="Trazado 206060" d="M467.7,294.449l-58.353-33.69a.771.771,0,0,0-.9-.025v-.007l-1.377.867a.829.829,0,0,1,.82.086l58.353,33.691a2.556,2.556,0,0,1,1.161,2.011l-.005,1.784,1.456-.92.005-1.785a2.559,2.559,0,0,0-1.161-2.011" transform="translate(-135.384 -86.671)" fill="#d2e1f1"/>
            <g id="Grupo_144009" data-name="Grupo 144009" transform="translate(276.72 213.523)" opacity="0.5">
              <g id="Grupo_144008" data-name="Grupo 144008">
                <g id="Grupo_144007" data-name="Grupo 144007" clip-path="url(#clip-path-3)">
                  <g id="Grupo_144006" data-name="Grupo 144006">
                    <g id="Grupo_144005" data-name="Grupo 144005">
                      <g id="Grupo_144004" data-name="Grupo 144004" clip-path="url(#clip-path-3)">
                        <path id="Trazado_206061" data-name="Trazado 206061" d="M414.611,326.517l49.886,28.8.065-35.122c-1.665-.7-3.832.055-5.391.967a39.138,39.138,0,0,0-4.261,3.336,8.429,8.429,0,0,1-4.88,2.119c-2.56.049-4.755-1.742-7.209-2.467-3.6-1.064-7.424.226-10.99,1.4s-7.525,2.239-10.982.772a22.323,22.323,0,0,0-3.112-1.391,3.236,3.236,0,0,0-3.127,1.582" transform="translate(-414.611 -319.923)" fill="#fff"/>
                      </g>
                    </g>
                  </g>
                </g>
              </g>
            </g>
            <path id="Trazado_206062" data-name="Trazado 206062" d="M426.419,309.472l0,1.3-10.388-6,0-1.3Z" transform="translate(-138.362 -100.929)" fill="#fff"/>
            <path id="Trazado_206063" data-name="Trazado 206063" d="M416.04,300.18l0,1.3,13.3,7.681v-1.3Z" transform="translate(-138.365 -99.834)" fill="#fff"/>
            <path id="Trazado_206064" data-name="Trazado 206064" d="M432.889,302.192l0,1.3-16.827-9.715,0-1.3Z" transform="translate(-138.372 -97.272)" fill="#fff"/>
            <path id="Trazado_206065" data-name="Trazado 206065" d="M440.706,303.406l0,1.3-24.636-14.223,0-1.3Z" transform="translate(-138.375 -96.176)" fill="#fff"/>
            <path id="Trazado_206066" data-name="Trazado 206066" d="M440.715,300.112l0,1.3-24.635-14.223,0-1.3Z" transform="translate(-138.378 -95.081)" fill="#fff"/>
            <path id="Trazado_206067" data-name="Trazado 206067" d="M429.355,288.729l-.006,2.024L416.087,283.1l.006-2.024Z" transform="translate(-138.382 -93.479)" fill="#fff"/>
            <path id="Trazado_206068" data-name="Trazado 206068" d="M453.638,311.435l4.812,3.473-1.366,4.581-1.079-2.521-33.654,4.4,32.361-7.415Z" transform="translate(-140.465 -103.577)" fill="#feca2e"/>
            <g id="Grupo_144012" data-name="Grupo 144012" transform="translate(331.593 148.141)" opacity="0.1">
              <g id="Grupo_144011" data-name="Grupo 144011">
                <g id="Grupo_144010" data-name="Grupo 144010" clip-path="url(#clip-path-5)">
                  <path id="Trazado_206069" data-name="Trazado 206069" d="M497.132,269.113a.832.832,0,0,1-.3.718v.007l1.415-.9.006,0,.041-.025,0,0a.836.836,0,0,0,.3-.717l.121-46.233-1.456.921Z" transform="translate(-496.827 -221.96)"/>
                </g>
              </g>
            </g>
            <path id="Trazado_206070" data-name="Trazado 206070" d="M408.657,172.1l-.116,44.474a2.561,2.561,0,0,0,1.163,2.012l57.761,33.348v1.321l1.414-.894.007,0,.04-.026,0,0a.833.833,0,0,0,.3-.717l.121-46.232-1.456.92Z" transform="translate(-135.872 -57.237)" fill="#d268cc"/>
            <path id="Trazado_206071" data-name="Trazado 206071" d="M408.657,172.1l-.116,44.474a2.561,2.561,0,0,0,1.163,2.012l57.761,33.348v1.321l1.414-.894.007,0,.04-.026,0,0a.833.833,0,0,0,.3-.717l.121-46.232-1.456.92Z" transform="translate(-135.872 -57.237)" fill="#0f2771"/>
            <path id="Trazado_206072" data-name="Trazado 206072" d="M467.7,199.408l-58.353-33.69a.77.77,0,0,0-.9-.025v-.007l-1.38.869,1.107.629,0,.984,0,1.759,59.234,34.2,1.456-.921.005-1.784a2.559,2.559,0,0,0-1.161-2.011" transform="translate(-135.383 -55.062)" fill="#d268cc"/>
            <path id="Trazado_206073" data-name="Trazado 206073" d="M467.166,205.881l-.122,46.232c0,.74-.525,1.038-1.169.666l-58.353-33.69a2.564,2.564,0,0,1-1.163-2.012l.121-46.232Z" transform="translate(-135.147 -56.82)" fill="#4dd0e1"/>
            <path id="Trazado_206074" data-name="Trazado 206074" d="M408.8,169.036a1.119,1.119,0,0,1,.509.88c0,.322-.23.454-.512.292a1.125,1.125,0,0,1-.509-.88c0-.324.232-.454.512-.292" transform="translate(-135.787 -56.195)" fill="#f5f5f5"/>
            <path id="Trazado_206075" data-name="Trazado 206075" d="M411.018,170.319a1.118,1.118,0,0,1,.509.88c0,.322-.23.454-.512.292a1.121,1.121,0,0,1-.509-.88c0-.324.23-.454.512-.292" transform="translate(-136.526 -56.621)" fill="#f5f5f5"/>
            <path id="Trazado_206076" data-name="Trazado 206076" d="M413.24,171.6a1.119,1.119,0,0,1,.509.88c0,.322-.23.455-.512.292a1.122,1.122,0,0,1-.509-.88c0-.324.23-.454.512-.292" transform="translate(-137.265 -57.048)" fill="#f5f5f5"/>
            <path id="Trazado_206077" data-name="Trazado 206077" d="M466.07,200.785a2.558,2.558,0,0,1,1.161,2.012l0,1.784-60.685-35.037,0-1.784c0-.74.527-1.037,1.171-.665Zm-56.374-30.4c.282.163.511.031.512-.292a1.118,1.118,0,0,0-.509-.88c-.282-.163-.511-.033-.512.292a1.122,1.122,0,0,0,.509.88m1.483.856c.282.163.511.031.512-.292a1.119,1.119,0,0,0-.509-.88c-.282-.163-.511-.033-.512.291a1.124,1.124,0,0,0,.509.881m-2.966-1.713c.282.163.511.031.512-.292a1.118,1.118,0,0,0-.509-.88c-.28-.162-.511-.033-.512.292a1.127,1.127,0,0,0,.508.88" transform="translate(-135.207 -55.519)" fill="#d268cc"/>
            <path id="Trazado_206078" data-name="Trazado 206078" d="M466.07,200.785a2.558,2.558,0,0,1,1.161,2.012l0,1.784-60.685-35.037,0-1.784c0-.74.527-1.037,1.171-.665Zm-56.374-30.4c.282.163.511.031.512-.292a1.118,1.118,0,0,0-.509-.88c-.282-.163-.511-.033-.512.292a1.122,1.122,0,0,0,.509.88m1.483.856c.282.163.511.031.512-.292a1.119,1.119,0,0,0-.509-.88c-.282-.163-.511-.033-.512.291a1.124,1.124,0,0,0,.509.881m-2.966-1.713c.282.163.511.031.512-.292a1.118,1.118,0,0,0-.509-.88c-.28-.162-.511-.033-.512.292a1.127,1.127,0,0,0,.508.88" transform="translate(-135.207 -55.519)" fill="#fff"/>
            <path id="Trazado_206079" data-name="Trazado 206079" d="M467.7,199.408l-58.353-33.69a.771.771,0,0,0-.9-.025v-.007l-1.377.867a.829.829,0,0,1,.82.086l58.353,33.691a2.556,2.556,0,0,1,1.161,2.011l-.005,1.784,1.456-.921.005-1.784a2.559,2.559,0,0,0-1.161-2.011" transform="translate(-135.384 -55.062)" fill="#d2e1f1"/>
            <path id="Trazado_206080" data-name="Trazado 206080" d="M424.785,229.8l-.045,5.124-3.706-2.14-.017,6.239,3.706,2.139-3.706-2.139.062-11.363Z" transform="translate(-140.022 -75.716)" fill="#0f2771"/>
            <path id="Trazado_206081" data-name="Trazado 206081" d="M433.133,224l-.059,10.193-3.705-2.14-.024,8.253,3.706,2.139-3.706-2.139.083-18.446Z" transform="translate(-142.791 -73.785)" fill="#0f2771"/>
            <path id="Trazado_206082" data-name="Trazado 206082" d="M441.442,242.226l-.047,2.873-3.679-2.122-.045,6.6,3.706,2.139-3.706-2.139.066-9.488Z" transform="translate(-145.56 -79.848)" fill="#0f2771"/>
            <path id="Trazado_206083" data-name="Trazado 206083" d="M449.762,235.748l-.041,11.273-3.706-2.14L446,250.629l3.706,2.14L446,250.629l.057-17.02Z" transform="translate(-148.33 -77.694)" fill="#0f2771"/>
            <path id="Trazado_206084" data-name="Trazado 206084" d="M416.445,231.022l-.036,2.244-3.706-2.14-.014,5.1,3.706,2.14-3.706-2.14.051-7.339Z" transform="translate(-137.252 -76.122)" fill="#d2e1f1"/>
            <path id="Trazado_206085" data-name="Trazado 206085" d="M458.068,246.294l-.027,9.441-3.7-2.138-.011,3.75,3.7,2.138-3.7-2.138.037-13.191Z" transform="translate(-151.1 -81.201)" fill="#0f2771"/>
            <path id="Trazado_206086" data-name="Trazado 206086" d="M466.4,247.5l-.031,11.161-3.706-2.14-.012,4.432,3.706,2.139-3.706-2.139.044-15.592Z" transform="translate(-153.869 -81.603)" fill="#0f2771"/>
            <path id="Trazado_206087" data-name="Trazado 206087" d="M474.746,243.909l-.043,15.173L471,256.943l-.017,6.027,3.706,2.14-3.706-2.14.06-21.2Z" transform="translate(-156.638 -80.407)" fill="#0f2771"/>
            <path id="Trazado_206088" data-name="Trazado 206088" d="M483.087,235.67l-.053,22.477-3.7-2.138-.021,7.431,3.7,2.138-3.7-2.138.074-29.908Z" transform="translate(-159.408 -77.668)" fill="#0f2771"/>
            <path id="Trazado_206089" data-name="Trazado 206089" d="M491.395,229.677l-.039,31.593-3.706-2.139-.016,5.523,3.705,2.139-3.705-2.139.055-37.117Z" transform="translate(-162.177 -75.674)" fill="#0f2771"/>
            <path id="Trazado_206090" data-name="Trazado 206090" d="M441.4,246.54l-.019,6.614-3.706-2.139.045-6.6Z" transform="translate(-145.56 -81.289)" fill="#d2e1f1"/>
            <path id="Trazado_206091" data-name="Trazado 206091" d="M449.72,252.638l-.016,5.748L446,256.247l.017-5.749Z" transform="translate(-148.33 -83.311)" fill="#d2e1f1"/>
            <path id="Trazado_206092" data-name="Trazado 206092" d="M416.409,234.384l-.015,5.1-3.706-2.139.015-5.1Z" transform="translate(-137.252 -77.24)" fill="#0f2771"/>
            <path id="Trazado_206093" data-name="Trazado 206093" d="M458.041,260.44l-.011,3.75-3.7-2.138.011-3.75Z" transform="translate(-151.1 -85.906)" fill="#d268cc"/>
            <path id="Trazado_206094" data-name="Trazado 206094" d="M474.7,266.643l-.017,6.027-3.706-2.139L471,264.5Z" transform="translate(-156.638 -87.968)" fill="#d2e1f1"/>
            <path id="Trazado_206095" data-name="Trazado 206095" d="M483.034,269.346l-.021,7.432-3.7-2.138.021-7.432Z" transform="translate(-159.408 -88.868)" fill="#d2e1f1"/>
            <path id="Trazado_206096" data-name="Trazado 206096" d="M424.74,237.48l-.018,6.238-3.706-2.139.018-6.238Z" transform="translate(-140.021 -78.269)" fill="#d268cc"/>
            <path id="Trazado_206097" data-name="Trazado 206097" d="M433.074,239.27l-.023,8.253-3.706-2.139.023-8.253Z" transform="translate(-142.791 -78.865)" fill="#d2e1f1"/>
            <path id="Trazado_206098" data-name="Trazado 206098" d="M466.371,264.226l-.013,4.431-3.706-2.139.013-4.432Z" transform="translate(-153.869 -87.164)" fill="#d268cc"/>
            <path id="Trazado_206099" data-name="Trazado 206099" d="M491.356,277.014l-.016,5.523-3.705-2.14.016-5.523Z" transform="translate(-162.177 -91.417)" fill="#d2e1f1"/>
            <path id="Trazado_206100" data-name="Trazado 206100" d="M441.4,250.19l-.019,4.178-3.706-2.139.045-4.161Z" transform="translate(-145.56 -82.502)"/>
            <path id="Trazado_206101" data-name="Trazado 206101" d="M416.409,237.354l-.015,3.113-3.706-2.139.015-3.114Z" transform="translate(-137.252 -78.227)"/>
            <path id="Trazado_206102" data-name="Trazado 206102" d="M458.041,260.44l-.011,3.75-3.7-2.138.011-3.75Z" transform="translate(-151.1 -85.906)"/>
            <path id="Trazado_206103" data-name="Trazado 206103" d="M424.74,237.48l-.018,6.238-3.706-2.139.018-6.238Z" transform="translate(-140.021 -78.269)" fill="#0f2771"/>
            <path id="Trazado_206104" data-name="Trazado 206104" d="M466.371,264.226l-.013,4.431-3.706-2.139.013-4.432Z" transform="translate(-153.869 -87.164)"/>
            <path id="Trazado_206105" data-name="Trazado 206105" d="M433.188,217.723l-.009,3.065-3.706-2.14.009-3.065Z" transform="translate(-142.834 -71.698)" fill="#d268cc"/>
            <path id="Trazado_206106" data-name="Trazado 206106" d="M416.479,227.148l0,1.465-3.706-2.139,0-1.466Z" transform="translate(-137.279 -74.833)" fill="#d268cc"/>
            <path id="Trazado_206107" data-name="Trazado 206107" d="M458.094,243.445l0,.779-3.7-2.138,0-.779Z" transform="translate(-151.12 -80.253)" fill="#d268cc"/>
            <path id="Trazado_206108" data-name="Trazado 206108" d="M449.8,231.378l-.005,1.794-3.706-2.14.005-1.794Z" transform="translate(-148.36 -76.24)" fill="#d268cc"/>
            <path id="Trazado_206109" data-name="Trazado 206109" d="M441.486,237.2l-.006,2.235-3.706-2.139.007-2.235Z" transform="translate(-145.594 -78.175)" fill="#d268cc"/>
            <path id="Trazado_206110" data-name="Trazado 206110" d="M424.826,225.057l-.006,2.044-3.706-2.14.006-2.044Z" transform="translate(-140.054 -74.138)" fill="#d268cc"/>
            <path id="Trazado_206111" data-name="Trazado 206111" d="M474.787,239.323l-.005,1.938-3.706-2.139.005-1.937Z" transform="translate(-156.67 -78.883)" fill="#d268cc"/>
            <path id="Trazado_206112" data-name="Trazado 206112" d="M491.432,225.479l0,1.681-3.706-2.14,0-1.681Z" transform="translate(-162.206 -74.278)" fill="#d268cc"/>
            <path id="Trazado_206113" data-name="Trazado 206113" d="M466.432,244.135l0,1.125-3.706-2.14,0-1.125Z" transform="translate(-153.892 -80.483)" fill="#d268cc"/>
            <path id="Trazado_206114" data-name="Trazado 206114" d="M483.136,230.022l-.007,2.649-3.7-2.138.007-2.649Z" transform="translate(-159.447 -75.789)" fill="#d268cc"/>
            <g id="Grupo_144015" data-name="Grupo 144015" transform="translate(275.491 143.885)" opacity="0.8">
              <g id="Grupo_144014" data-name="Grupo 144014">
                <g id="Grupo_144013" data-name="Grupo 144013" clip-path="url(#clip-path-6)">
                  <path id="Trazado_206115" data-name="Trazado 206115" d="M433.188,217.723l-.009,3.065-3.706-2.14.009-3.065Z" transform="translate(-418.324 -215.583)" fill="#fff"/>
                  <path id="Trazado_206116" data-name="Trazado 206116" d="M416.479,227.148l0,1.465-3.706-2.139,0-1.466Z" transform="translate(-412.769 -218.718)" fill="#fff"/>
                  <path id="Trazado_206117" data-name="Trazado 206117" d="M458.094,243.445l0,.779-3.7-2.138,0-.779Z" transform="translate(-426.61 -224.138)" fill="#fff"/>
                  <path id="Trazado_206118" data-name="Trazado 206118" d="M449.8,231.378l-.005,1.794-3.706-2.14.005-1.794Z" transform="translate(-423.851 -220.124)" fill="#fff"/>
                  <path id="Trazado_206119" data-name="Trazado 206119" d="M441.486,237.2l-.006,2.235-3.706-2.139.007-2.235Z" transform="translate(-421.085 -222.059)" fill="#fff"/>
                  <path id="Trazado_206120" data-name="Trazado 206120" d="M424.826,225.057l-.006,2.044-3.706-2.14.006-2.044Z" transform="translate(-415.545 -218.022)" fill="#fff"/>
                  <path id="Trazado_206121" data-name="Trazado 206121" d="M474.787,239.323l-.005,1.938-3.706-2.139.005-1.937Z" transform="translate(-432.161 -222.767)" fill="#fff"/>
                  <path id="Trazado_206122" data-name="Trazado 206122" d="M491.432,225.479l0,1.681-3.706-2.14,0-1.681Z" transform="translate(-437.697 -218.163)" fill="#fff"/>
                  <path id="Trazado_206123" data-name="Trazado 206123" d="M466.432,244.135l0,1.125-3.706-2.14,0-1.125Z" transform="translate(-429.383 -224.367)" fill="#fff"/>
                  <path id="Trazado_206124" data-name="Trazado 206124" d="M483.136,230.022l-.007,2.649-3.7-2.138.007-2.649Z" transform="translate(-434.937 -219.674)" fill="#fff"/>
                </g>
              </g>
            </g>
            <path id="Trazado_206125" data-name="Trazado 206125" d="M261.621,307.737l-10.83,6.252V376.73l10.83,6.253,10.83-6.253V313.989Z" transform="translate(-83.408 -102.347)" fill="#d268cc"/>
            <path id="Trazado_206126" data-name="Trazado 206126" d="M250.792,313.989l10.83-6.252,10.83,6.252-10.83,6.252Z" transform="translate(-83.408 -102.347)" fill="#0f2771"/>
            <path id="Trazado_206127" data-name="Trazado 206127" d="M261.621,323.357V386.1l-10.83-6.252V317.105Z" transform="translate(-83.408 -105.463)" fill="#bddcf6"/>
            <path id="Trazado_206128" data-name="Trazado 206128" d="M267.018,323.357V386.1l10.83-6.252V317.105Z" transform="translate(-88.805 -105.463)" fill="#12263f"/>
            <path id="Trazado_206129" data-name="Trazado 206129" d="M237.928,343.135l-10.83,6.252v48.77l10.83,6.252,10.83-6.252v-48.77Z" transform="translate(-75.528 -114.119)" fill="#d268cc"/>
            <path id="Trazado_206130" data-name="Trazado 206130" d="M227.1,349.387l10.83-6.252,10.83,6.252-10.83,6.252Z" transform="translate(-75.528 -114.12)" fill="#0f2771"/>
            <path id="Trazado_206131" data-name="Trazado 206131" d="M237.928,358.755v48.769l-10.83-6.252V352.5Z" transform="translate(-75.528 -117.235)" fill="#bddcf6"/>
            <path id="Trazado_206132" data-name="Trazado 206132" d="M243.325,358.755v48.769l10.83-6.252V352.5Z" transform="translate(-80.925 -117.235)" fill="#727997"/>
            <path id="Trazado_206133" data-name="Trazado 206133" d="M213.2,395.592l-10.83,6.252v23.212l10.83,6.252,10.83-6.252V401.845Z" transform="translate(-67.303 -131.566)" fill="#d268cc"/>
            <path id="Trazado_206134" data-name="Trazado 206134" d="M202.368,401.845l10.83-6.252,10.83,6.252L213.2,408.1Z" transform="translate(-67.303 -131.566)" fill="#0f2771"/>
            <path id="Trazado_206135" data-name="Trazado 206135" d="M213.2,411.213v23.212l-10.83-6.252V404.961Z" transform="translate(-67.303 -134.682)" fill="#bddcf6"/>
            <path id="Trazado_206136" data-name="Trazado 206136" d="M218.594,411.213v23.212l10.83-6.252V404.961Z" transform="translate(-72.7 -134.682)" fill="#12263f"/>
            <path id="Trazado_206137" data-name="Trazado 206137" d="M188.467,386.224l-10.83,6.252V431.4l10.83,6.253L199.3,431.4V392.477Z" transform="translate(-59.079 -128.45)" fill="#d268cc"/>
            <path id="Trazado_206138" data-name="Trazado 206138" d="M177.637,392.477l10.83-6.252,10.83,6.252-10.83,6.253Z" transform="translate(-59.078 -128.45)" fill="#0f2771"/>
            <path id="Trazado_206139" data-name="Trazado 206139" d="M188.467,401.845v38.919l-10.83-6.252V395.593Z" transform="translate(-59.079 -131.566)" fill="#bddcf6"/>
            <path id="Trazado_206140" data-name="Trazado 206140" d="M193.864,401.845v38.919l10.83-6.252V395.593Z" transform="translate(-64.475 -131.566)" fill="#727997"/>
            <path id="Trazado_206141" data-name="Trazado 206141" d="M262.67,361.765l2.637,11.259-4.44-.086c-3.445,8.7-17.651,39.823-50.85,58.991,9.755-5.887,19.434-14.78,27.717-25.472a133.555,133.555,0,0,0,18.887-33.589l-4.512-.083Z" transform="translate(-69.847 -120.316)" fill="#feca2e"/>
            <path id="Trazado_206142" data-name="Trazado 206142" d="M360.837,75.958A4.105,4.105,0,0,0,359.3,74.4l-21.086-12.1c-1.847-1.06-6.219.376-6.219,3.346V80.726a4.116,4.116,0,0,0,2.074,3.573l16.269,9.3h0l-2.81-1.606,1.349,3.825a.225.225,0,0,0,.28.138l-.005.015c.238-.123,1.3-.691,1.9-1.091l.01-.007.041-.026,0-.007a.222.222,0,0,0,.055-.049l.331-.537,3.664,2.094A4.065,4.065,0,0,0,361.371,93V77.973a4.1,4.1,0,0,0-.535-2.015" transform="translate(-110.416 -20.606)" fill="#feca2e"/>
            <g id="Grupo_144018" data-name="Grupo 144018" transform="translate(238.739 72.99)" opacity="0.2">
              <g id="Grupo_144017" data-name="Grupo 144017">
                <g id="Grupo_144016" data-name="Grupo 144016" clip-path="url(#clip-path-7)">
                  <path id="Trazado_206143" data-name="Trazado 206143" d="M359.708,110.555a.22.22,0,0,1-.054.049l0,.007-.04.026-.01.007c-.6.4-1.664.968-1.9,1.091l.006-.016a.215.215,0,0,0,.132-.093l1.307-2.116-.258-.148h0l1.15.657Z" transform="translate(-357.704 -109.362)" fill="#fff"/>
                </g>
              </g>
            </g>
            <g id="Grupo_144021" data-name="Grupo 144021" transform="translate(221.582 41.353)" opacity="0.4">
              <g id="Grupo_144020" data-name="Grupo 144020">
                <g id="Grupo_144019" data-name="Grupo 144019" clip-path="url(#clip-path-8)">
                  <path id="Trazado_206144" data-name="Trazado 206144" d="M356.743,78.284a4.2,4.2,0,0,0-1.1-1.381l0,0a3.839,3.839,0,0,0-.5-.342l-21.086-12.1A1.372,1.372,0,0,0,332,65.653c0-2.969,4.372-4.406,6.219-3.346L359.3,74.4a4.105,4.105,0,0,1,1.533,1.555Z" transform="translate(-331.998 -61.959)" fill="#fff"/>
                </g>
              </g>
            </g>
            <g id="Grupo_144024" data-name="Grupo 144024" transform="translate(244.739 55.352)" opacity="0.2">
              <g id="Grupo_144023" data-name="Grupo 144023">
                <g id="Grupo_144022" data-name="Grupo 144022" clip-path="url(#clip-path-9)">
                  <path id="Trazado_206145" data-name="Trazado 206145" d="M368.745,102.133V90.018c0-.165-.011-3.238-.033-3.4a4.264,4.264,0,0,0-.431-1.359l4.094-2.325a4.111,4.111,0,0,1,.534,2.015V99.977a4.065,4.065,0,0,1-6.216,3.347,1.372,1.372,0,0,0,2.052-1.191" transform="translate(-366.693 -82.934)" fill="#fff"/>
                </g>
              </g>
            </g>
            <path id="Trazado_206146" data-name="Trazado 206146" d="M347.138,80.293l5.282,10.165-2.991-1.727-.014,4.966-4.623-2.669.015-4.966-2.991-1.727Z" transform="translate(-113.681 -26.704)" fill="#fff"/>
            <path id="Trazado_206147" data-name="Trazado 206147" d="M313.14,175.117a7.161,7.161,0,0,0-5.827,4.692l-6.781,18.979-14.915-9.134a5.751,5.751,0,0,1-1.98-2.655l-.691-1.9a7.119,7.119,0,0,0-2.437-3.254,24.478,24.478,0,0,1-4.467-4.294,2.692,2.692,0,0,0-.191,3.4,18.9,18.9,0,0,0,1.781,2.043l-1.6.111a5.572,5.572,0,0,1-3.3-.808l-4.07-2.5a.775.775,0,0,0-1.178.653,17.639,17.639,0,0,0,1.176,5.889,6.642,6.642,0,0,0,3.885,3.932c2.161.826,4.263,1.545,5.463,1.944a6.8,6.8,0,0,1,1.912,1l1.2.9L297.3,209.8a7.051,7.051,0,0,0,10.783-2.3l5.279-10.592,3.094-22.22Z" transform="translate(-88.958 -58.098)" fill="#ffa8a7"/>
            <g id="Grupo_144027" data-name="Grupo 144027" transform="translate(211.575 137.306)" opacity="0.2">
              <g id="Grupo_144026" data-name="Grupo 144026">
                <g id="Grupo_144025" data-name="Grupo 144025" clip-path="url(#clip-path-10)">
                  <path id="Trazado_206148" data-name="Trazado 206148" d="M317,209.111l4.358,3.266-3.149-6.652Z" transform="translate(-317.004 -205.726)"/>
                </g>
              </g>
            </g>
            <path id="Trazado_206149" data-name="Trazado 206149" d="M333.29,174.69l-3.43.352a8.142,8.142,0,0,0-6.826,5.332L318.1,193.86c2.456,5.994,11.011,6.694,11.011,6.694l2.928-5.15Z" transform="translate(-105.794 -58.098)" fill="#375a64"/>
            <g id="Grupo_144030" data-name="Grupo 144030" transform="translate(212.308 116.592)" opacity="0.4">
              <g id="Grupo_144029" data-name="Grupo 144029">
                <g id="Grupo_144028" data-name="Grupo 144028" clip-path="url(#clip-path-11)">
                  <path id="Trazado_206150" data-name="Trazado 206150" d="M333.29,174.69l-3.43.352a8.142,8.142,0,0,0-6.826,5.332L318.1,193.86c2.456,5.994,11.011,6.694,11.011,6.694l2.928-5.15Z" transform="translate(-318.102 -174.69)" fill="#fff"/>
                </g>
              </g>
            </g>
            <path id="Trazado_206151" data-name="Trazado 206151" d="M318.708,385.965a7.16,7.16,0,0,0,5.375,1.976,16.229,16.229,0,0,0,5.686-1.434c1.818-.747,4.1-2.84,6.067-2.8a47.622,47.622,0,0,0,5.751-.394,30,30,0,0,0-.818-7.788l-9.178-.243c-2.477,3.394-7.3,6.218-10.942,7.277a3.215,3.215,0,0,0-2.265,2.414c0,.019,0,.038.007.058a3.88,3.88,0,0,0,.317.934" transform="translate(-105.888 -124.811)" fill="#375a64"/>
            <path id="Trazado_206152" data-name="Trazado 206152" d="M335.806,387.708c-1.966-.039-4.249,2.054-6.067,2.8a16.243,16.243,0,0,1-5.686,1.434,7.157,7.157,0,0,1-5.375-1.976,3.881,3.881,0,0,1-.317-.934c0-.019,0-.039-.007-.058a2.927,2.927,0,0,0,.007,1.223,3.9,3.9,0,0,0,.317.935,7.16,7.16,0,0,0,5.375,1.976,16.215,16.215,0,0,0,5.686-1.434c1.818-.747,4.1-2.841,6.067-2.8a42.708,42.708,0,0,0,5.661-.327c.045-.41.071-.821.09-1.231a47.61,47.61,0,0,1-5.751.394" transform="translate(-105.857 -128.813)" fill="#1a2e35"/>
            <path id="Trazado_206153" data-name="Trazado 206153" d="M377.013,390.125a13.375,13.375,0,0,1-.276,2.784,6.449,6.449,0,0,1-2.545,4.06,8.17,8.17,0,0,1-4.045,1.076,8.945,8.945,0,0,1-3.7-.382,4.2,4.2,0,0,1-2.165-1.768c0,.016,0,.032.009.048a3.875,3.875,0,0,0,2.492,2.594,8.942,8.942,0,0,0,3.7.382,8.176,8.176,0,0,0,4.044-1.076,6.442,6.442,0,0,0,2.545-4.06,13.24,13.24,0,0,0,.276-2.784,4.707,4.707,0,0,1,1.493-3.4,9.038,9.038,0,0,0,.651-.67,1.657,1.657,0,0,0,.4-1.214c-.014-.174-.033-.343-.054-.509-.336.394-1.131,1.332-1.331,1.52a4.7,4.7,0,0,0-1.492,3.4" transform="translate(-121.153 -128.11)" fill="#1a2e35"/>
            <path id="Trazado_206154" data-name="Trazado 206154" d="M369.958,378.047a10.149,10.149,0,0,1-.715,5.643,21.488,21.488,0,0,1-2.987,4.912,14.432,14.432,0,0,0-1.564,2.281,4.088,4.088,0,0,0-.443,2.632,4.2,4.2,0,0,0,2.165,1.768,8.945,8.945,0,0,0,3.7.382,8.17,8.17,0,0,0,4.045-1.076,6.449,6.449,0,0,0,2.545-4.06,13.329,13.329,0,0,0,.276-2.784,4.7,4.7,0,0,1,1.492-3.4c.2-.188.994-1.126,1.331-1.52a10.3,10.3,0,0,0-1.374-3.938Z" transform="translate(-121.12 -125.731)" fill="#375a64"/>
            <path id="Trazado_206155" data-name="Trazado 206155" d="M332.215,242.22l.765,52.35,2.47,36.641c6.254,3.954,10.782.719,10.782.719,2.373-17.36,2.7-28.035,1.4-35.259l1.186-28.25,3.558,29.328,5.985,35.951c6.415,4.16,10.943,0,10.943,0,0-13.308,1.186-28.188-2.479-37.784A220.539,220.539,0,0,0,365.1,242.76Z" transform="translate(-110.488 -80.557)" fill="#1a2e35"/>
            <g id="Grupo_144033" data-name="Grupo 144033" transform="translate(229.059 174.09)" opacity="0.3">
              <g id="Grupo_144032" data-name="Grupo 144032">
                <g id="Grupo_144031" data-name="Grupo 144031" clip-path="url(#clip-path-12)">
                  <path id="Trazado_206156" data-name="Trazado 206156" d="M351.165,263.827l1.309,10.788-.555,13.232-2.411-21.75c-5.579-2.184-6.307-5.257-6.307-5.257a17.171,17.171,0,0,0,7.964,2.987" transform="translate(-343.201 -260.84)"/>
                </g>
              </g>
            </g>
            <path id="Trazado_206157" data-name="Trazado 206157" d="M343.607,173.72l-6.12.647c-5.014,4.421-7.6,13.693-6.524,23.938a181.663,181.663,0,0,1,.755,21.133c13.586,9.92,30.731,2.7,32.887.54l-1.009-12.56a8.711,8.711,0,0,1,.688-4.135c1.282-2.98,3.571-8.844,3.879-13.389a23.773,23.773,0,0,0-2.48-11.7l-8.9-3.882Z" transform="translate(-109.991 -57.776)" fill="#375a64"/>
            <g id="Grupo_144036" data-name="Grupo 144036" transform="translate(220.73 115.944)" opacity="0.5">
              <g id="Grupo_144035" data-name="Grupo 144035">
                <g id="Grupo_144034" data-name="Grupo 144034" clip-path="url(#clip-path-13)">
                  <path id="Trazado_206158" data-name="Trazado 206158" d="M343.607,173.72l-6.12.647c-5.014,4.421-7.6,13.693-6.524,23.938a181.663,181.663,0,0,1,.755,21.133c13.586,9.92,30.731,2.7,32.887.54l-1.009-12.56a8.711,8.711,0,0,1,.688-4.135c1.282-2.98,3.571-8.844,3.879-13.389a23.773,23.773,0,0,0-2.48-11.7l-8.9-3.882Z" transform="translate(-330.721 -173.72)" fill="#fff"/>
                </g>
              </g>
            </g>
            <path id="Trazado_206159" data-name="Trazado 206159" d="M344.969,187.089a66.27,66.27,0,0,0-5.04,23.91l2.519,5.418,3.95-5.176a204.3,204.3,0,0,1,.475-23.8Z" transform="translate(-113.053 -62.222)" fill="#375a64"/>
            <path id="Trazado_206160" data-name="Trazado 206160" d="M347.134,180.425a18.458,18.458,0,0,0,.214,4.448,3.556,3.556,0,0,0,1.9.35,15.555,15.555,0,0,0,3.057-3.693l-3.057-1.105Z" transform="translate(-115.433 -60.006)" fill="#375a64"/>
            <path id="Trazado_206161" data-name="Trazado 206161" d="M350.333,176.726c2.636.97,4.979,5.661,4.979,5.661,6.92-5.877,8-9.543,8-9.543a13.836,13.836,0,0,0-3.352-3.541Z" transform="translate(-116.514 -56.307)" fill="#375a64"/>
            <path id="Trazado_206162" data-name="Trazado 206162" d="M348.436,177.524c-2.011.054-3.79,2.857-3.79,2.857-.324-4.906,3.79-8.68,3.79-8.68Z" transform="translate(-114.616 -57.104)" fill="#375a64"/>
            <g id="Grupo_144039" data-name="Grupo 144039" transform="translate(230.012 112.996)" opacity="0.35">
              <g id="Grupo_144038" data-name="Grupo 144038">
                <g id="Grupo_144037" data-name="Grupo 144037" clip-path="url(#clip-path-14)">
                  <path id="Trazado_206163" data-name="Trazado 206163" d="M350.333,176.726c2.636.97,4.979,5.661,4.979,5.661,6.92-5.877,8-9.543,8-9.543a13.836,13.836,0,0,0-3.352-3.541Z" transform="translate(-346.525 -169.303)" fill="#fff"/>
                  <path id="Trazado_206164" data-name="Trazado 206164" d="M348.436,177.524c-2.011.054-3.79,2.857-3.79,2.857-.324-4.906,3.79-8.68,3.79-8.68Z" transform="translate(-344.628 -170.101)" fill="#fff"/>
                </g>
              </g>
            </g>
            <path id="Trazado_206165" data-name="Trazado 206165" d="M358.441,138.726a5.452,5.452,0,0,0-3.488-1.877l-18.214,1.715c-2.1,4.517-.422,7.5-.422,7.5-.284,6.89-.519,11.269,2.466,12.72a13.764,13.764,0,0,0,6.651.936,15.669,15.669,0,0,0,6.1-1.645l.1-.052a5.216,5.216,0,0,0,2.61-3.479,28.4,28.4,0,0,0,.626-4.077,16.8,16.8,0,0,1,.254-2.324,4.165,4.165,0,0,1,1.022-2.063,2.337,2.337,0,0,1,2.1-.711,1.885,1.885,0,0,1,.376.143c.519-3.06.671-5.713-.179-6.788" transform="translate(-111.641 -45.513)" fill="#1a2e35"/>
            <path id="Trazado_206166" data-name="Trazado 206166" d="M352.365,140.339a6.469,6.469,0,0,0,.24,3.872,28.063,28.063,0,0,1,1.157,3.761,6.2,6.2,0,0,1-.5,3.8,4.409,4.409,0,0,1-2.9,2.351c-1.956.422-3.868-.738-5.831-1.123a8.06,8.06,0,0,0-5.482.984.949.949,0,0,1-1.433-.769c-.233-3.965-.23-10.178.348-13.1Z" transform="translate(-112.235 -46.599)" fill="#ffa8a7"/>
            <path id="Trazado_206167" data-name="Trazado 206167" d="M362.566,166.991v0l-.008,0Z" transform="translate(-120.58 -55.537)" fill="#ffa8a7"/>
            <path id="Trazado_206168" data-name="Trazado 206168" d="M364.913,160.229s-.036,1.608-.078,3.529a5.514,5.514,0,0,0,1.7-2.67,2.456,2.456,0,0,1-1.619-.86" transform="translate(-121.337 -53.289)" fill="#37474f"/>
            <path id="Trazado_206169" data-name="Trazado 206169" d="M345.575,150.986l-3.322,4.083,3.048,1.093Z" transform="translate(-113.826 -50.215)" fill="#f28f8f"/>
            <path id="Trazado_206170" data-name="Trazado 206170" d="M349.72,161.778l-2.566.8a1.571,1.571,0,0,0,1.729.807,1.448,1.448,0,0,0,.837-1.608" transform="translate(-115.456 -53.804)" fill="#f28f8f"/>
            <g id="Grupo_144042" data-name="Grupo 144042" transform="translate(231.698 107.974)" opacity="0.3">
              <g id="Grupo_144041" data-name="Grupo 144041">
                <g id="Grupo_144040" data-name="Grupo 144040" clip-path="url(#clip-path-15)">
                  <path id="Trazado_206171" data-name="Trazado 206171" d="M349.72,161.778l-2.566.8a1.571,1.571,0,0,0,1.729.807,1.448,1.448,0,0,0,.837-1.608" transform="translate(-347.154 -161.778)"/>
                </g>
              </g>
            </g>
            <path id="Trazado_206172" data-name="Trazado 206172" d="M348.485,163.541a1.43,1.43,0,0,0,.84.051,1.3,1.3,0,0,0,.834-1.175,1.5,1.5,0,0,0-.991.184,1.541,1.541,0,0,0-.683.94" transform="translate(-115.899 -54.01)" fill="#f28f8f"/>
            <path id="Trazado_206173" data-name="Trazado 206173" d="M353.092,151.841a.912.912,0,1,1-.862-.974.918.918,0,0,1,.862.974" transform="translate(-116.825 -50.175)" fill="#1a2e35"/>
            <path id="Trazado_206174" data-name="Trazado 206174" d="M341.655,150.768a.912.912,0,1,1-.862-.974.918.918,0,0,1,.862.974" transform="translate(-113.021 -49.818)" fill="#1a2e35"/>
            <path id="Trazado_206175" data-name="Trazado 206175" d="M340.454,145.516l-2.094,1.307a1.331,1.331,0,0,1,.471-1.43,1.522,1.522,0,0,1,1.623.122" transform="translate(-112.512 -48.294)" fill="#1a2e35"/>
            <path id="Trazado_206176" data-name="Trazado 206176" d="M353.225,146.035l1.945,1.528a1.336,1.336,0,0,0-.318-1.473,1.523,1.523,0,0,0-1.627-.055" transform="translate(-117.475 -48.499)" fill="#1a2e35"/>
            <path id="Trazado_206177" data-name="Trazado 206177" d="M364.74,151.077a2.579,2.579,0,0,0-1.261-1.339,1.9,1.9,0,0,0-.376-.143,2.338,2.338,0,0,0-2.1.711,4.164,4.164,0,0,0-1.022,2.063,16.828,16.828,0,0,0-.254,2.324,28.633,28.633,0,0,1-.649,4.175,5.136,5.136,0,0,1-2.6,3.384l-.09.048a15.658,15.658,0,0,1-6.1,1.645l.009,1.836v4.374l8.609-5.1a2.089,2.089,0,0,0,1.021-1.756c.02-.994.043-2.089.066-3.1.041-1.92.077-3.529.077-3.529a2.461,2.461,0,0,0,1.62.86,2.171,2.171,0,0,0,.85-.044,3.211,3.211,0,0,0,1.893-1.643,6.065,6.065,0,0,0,.606-2.5,5.107,5.107,0,0,0-.3-2.271" transform="translate(-116.5 -49.738)" fill="#ffa8a7"/>
            <g id="Grupo_144045" data-name="Grupo 144045" transform="translate(233.793 110.2)" opacity="0.2">
              <g id="Grupo_144044" data-name="Grupo 144044">
                <g id="Grupo_144043" data-name="Grupo 144043" clip-path="url(#clip-path-16)">
                  <path id="Trazado_206178" data-name="Trazado 206178" d="M357.623,167.352a5.929,5.929,0,0,0,1.063-2.239,5.173,5.173,0,0,1-2.2,2.317l-.09.048a15.656,15.656,0,0,1-6.1,1.645l.008,1.584a15.293,15.293,0,0,0,3.605-.768,8.132,8.132,0,0,0,3.715-2.586" transform="translate(-350.294 -165.113)"/>
                </g>
              </g>
            </g>
            <path id="Trazado_206179" data-name="Trazado 206179" d="M356,134.622c-2.141,1.9-5.543,2.774-8.385,3.136a22.3,22.3,0,0,1-8.512-.723,5.037,5.037,0,0,1-3.045-1.742,4.406,4.406,0,0,1,2.915-6.614c2.694-.5,5.277,1.6,8.012,1.439a14.245,14.245,0,0,0,3.435-.923,5.24,5.24,0,0,1,3.493-.155,3.555,3.555,0,0,1,1.987,2.2,6.124,6.124,0,0,1,.1,3.383" transform="translate(-111.554 -42.771)" fill="#1a2e35"/>
            <path id="Trazado_206180" data-name="Trazado 206180" d="M311.6,224.452l-6.25-25.543a3.018,3.018,0,0,0-1.423-1.891l-15.6-8.983a.6.6,0,0,0-.3-.077v-.006a1.471,1.471,0,0,0-1.415.994h0a.588.588,0,0,0-.041.4l6.25,25.543a3.023,3.023,0,0,0,1.423,1.891l15.6,8.983a.582.582,0,0,0,.409.067v.006a1.8,1.8,0,0,0,1.3-.988c.007-.017.016-.032.022-.049l.007-.016h0a.587.587,0,0,0,.013-.329" transform="translate(-95.306 -62.506)" fill="#636363"/>
            <path id="Trazado_206181" data-name="Trazado 206181" d="M310.743,225.415l-6.25-25.543a3.018,3.018,0,0,0-1.423-1.891L287.473,189a.6.6,0,0,0-.848.272.581.581,0,0,0-.041.4l6.25,25.542a3.024,3.024,0,0,0,1.423,1.892l15.6,8.983a.586.586,0,0,0,.409.067.6.6,0,0,0,.48-.736" transform="translate(-95.306 -62.829)" fill="#12263f"/>
            <path id="Trazado_206182" data-name="Trazado 206182" d="M355.452,178.862c-3.5,3.559-7.554,15.281-9.262,20.585h0l-3.77,10.567c-5.431.279-5.985,1.022-10.451,1.808-1.421.25-4.665.941-6.811,1.186a11.4,11.4,0,0,1-1.183-.025c-1.813-.246-3.231-2.1-8.32-2.676l.811,3.275c-3.247.655-7.177-3.874-8.84-3.143s.68,2.418.68,2.418a3.3,3.3,0,0,0,1.344,3.441c.017,2.052,1.887,3.781,6.617,4.9,2.494.5,5.187-.479,7.493-.479.293,0,.95-.009,1.863-.025l20.809.456a6.506,6.506,0,0,0,5.816-3.585c1.777-3.537,4.316-8.64,4.98-10.249,9.069-21.689,8.317-26.3-1.773-28.453" transform="translate(-102.111 -59.486)" fill="#ffa8a7"/>
            <g id="Grupo_144048" data-name="Grupo 144048" transform="translate(240.308 147.404)" opacity="0.2">
              <g id="Grupo_144047" data-name="Grupo 144047">
                <g id="Grupo_144046" data-name="Grupo 144046" clip-path="url(#clip-path-17)">
                  <path id="Trazado_206183" data-name="Trazado 206183" d="M360.055,223.981a27,27,0,0,1,6.486.765,14.578,14.578,0,0,0-5.371-3.89Z" transform="translate(-360.055 -220.856)"/>
                </g>
              </g>
            </g>
            <path id="Trazado_206184" data-name="Trazado 206184" d="M374.023,178.862c-7.7,7.972-11.157,23.283-11.157,23.283,6.74,7.294,14.133,4.069,14.133,4.069a75.568,75.568,0,0,0,5.126-14.54c1.852-10.111-1.952-11.611-8.1-12.811" transform="translate(-120.682 -59.486)" fill="#375a64"/>
            <g id="Grupo_144051" data-name="Grupo 144051" transform="translate(242.185 119.376)" opacity="0.4">
              <g id="Grupo_144050" data-name="Grupo 144050">
                <g id="Grupo_144049" data-name="Grupo 144049" clip-path="url(#clip-path-18)">
                  <path id="Trazado_206185" data-name="Trazado 206185" d="M374.023,178.862c-7.7,7.972-11.157,23.283-11.157,23.283,6.74,7.294,14.133,4.069,14.133,4.069a75.568,75.568,0,0,0,5.126-14.54c1.852-10.111-1.952-11.611-8.1-12.811" transform="translate(-362.867 -178.862)" fill="#fff"/>
                </g>
              </g>
            </g>
            <path id="Trazado_206186" data-name="Trazado 206186" d="M335.791,232.84h-2.762v-3.306l2.762-.341Z" transform="translate(-110.758 -76.225)" fill="#37474f"/>
            <path id="Trazado_206187" data-name="Trazado 206187" d="M335.791,240.346h-2.762V237.04l2.762-.341Z" transform="translate(-110.758 -78.721)" fill="#37474f"/>
            <path id="Trazado_206188" data-name="Trazado 206188" d="M336.526,236.08c0-1.213-1.275-2.2-2.847-2.2s-2.848.983-2.848,2.2v.714H331a3.164,3.164,0,0,0,5.36,0h.168Z" transform="translate(-110.027 -77.785)" fill="#1a2e35"/>
            <path id="Trazado_206189" data-name="Trazado 206189" d="M336.526,237.151c0,1.213-1.275,2.2-2.847,2.2s-2.848-.984-2.848-2.2,1.275-2.2,2.848-2.2,2.847.983,2.847,2.2" transform="translate(-110.027 -78.141)" fill="#375a64"/>
            <path id="Trazado_206190" data-name="Trazado 206190" d="M334.064,239.48a1.932,1.932,0,0,1-2.056-1.454,1.2,1.2,0,0,0-.019.147,2.145,2.145,0,0,0,4.15,0,1.21,1.21,0,0,0-.019-.147,1.933,1.933,0,0,1-2.056,1.454" transform="translate(-110.413 -79.163)" fill="#1a2e35"/>
            <path id="Trazado_206191" data-name="Trazado 206191" d="M334.074,238.756a1.542,1.542,0,1,0-2.056-1.454,1.933,1.933,0,0,0,2.056,1.454" transform="translate(-110.422 -78.438)" fill="#37474f"/>
            <path id="Trazado_206192" data-name="Trazado 206192" d="M118.094,306.5c-4.706-3.762-8.607,3.3-11.456,11.161-1.729,4.772-3.5,9.431-4.63,12.355a5.933,5.933,0,0,0,.8,5.706l8.387,11.147,3.742-8.093-4.644-7.043,4.726-8.642Z" transform="translate(-33.794 -101.59)" fill="#bddcf6"/>
            <g id="Grupo_144054" data-name="Grupo 144054" transform="translate(76.388 212.756)" opacity="0.2">
              <g id="Grupo_144053" data-name="Grupo 144053">
                <g id="Grupo_144052" data-name="Grupo 144052" clip-path="url(#clip-path-19)">
                  <path id="Trazado_206193" data-name="Trazado 206193" d="M115.816,333.872l3.473-6.351,1.622-8.749-5.4,3.2a15.269,15.269,0,0,0,.3,11.9" transform="translate(-114.452 -318.773)"/>
                </g>
              </g>
            </g>
            <g id="Grupo_144057" data-name="Grupo 144057" transform="translate(75.198 233.269)" opacity="0.2">
              <g id="Grupo_144056" data-name="Grupo 144056">
                <g id="Grupo_144055" data-name="Grupo 144055" clip-path="url(#clip-path-20)">
                  <path id="Trazado_206194" data-name="Trazado 206194" d="M112.669,358.593l2.2,2.927,3.742-8.093-2.584-3.919a29.471,29.471,0,0,1-2,4.981,16.035,16.035,0,0,0-1.356,4.1" transform="translate(-112.669 -349.508)"/>
                </g>
              </g>
            </g>
            <path id="Trazado_206195" data-name="Trazado 206195" d="M144.209,519.924c.2-.7.361-1.414.507-2.129a11.094,11.094,0,0,0,3.6,3.672,15.928,15.928,0,0,0,4.087,1.71,28.611,28.611,0,0,0,7.769,1.089,3.406,3.406,0,0,0,2.451-.686,1.821,1.821,0,0,0,.439-1.829,1.762,1.762,0,0,0-.481-.72c.291.071.582.146.873.208a8.758,8.758,0,0,1,2.963.959,2.536,2.536,0,0,1,1.255,2.641,3.289,3.289,0,0,1-2.027,1.864,14.967,14.967,0,0,1-10.6.556c-2.146-.7-4.214-1.9-6.471-1.838-1.288.035-2.7.461-3.783-.24a2.9,2.9,0,0,1-1.145-2.477,10.579,10.579,0,0,1,.568-2.78" transform="translate(-47.772 -172.208)" fill="#37474f"/>
            <path id="Trazado_206196" data-name="Trazado 206196" d="M118.315,495.611a4.548,4.548,0,0,0,1.251,1.523,3.721,3.721,0,0,0,3.163.673,6.578,6.578,0,0,0,2.689-1.855l2.82-2.746a3.645,3.645,0,0,0,1.465-2.6,2.461,2.461,0,0,0-2.164-2.038,5.055,5.055,0,0,0-1.888.114c.091-.069.184-.139.28-.207a12.762,12.762,0,0,1,2.308-1.291,4.093,4.093,0,0,1,2.793-.369,3.011,3.011,0,0,1,1.92,2.773,5.269,5.269,0,0,1-1.212,3.308,23.61,23.61,0,0,1-2.5,2.574,30.857,30.857,0,0,0-3.212,3.638,19.659,19.659,0,0,1-2.277,2.78,4.648,4.648,0,0,1-3.23,1.368,2.739,2.739,0,0,1-2.4-1.529,4.283,4.283,0,0,1-.216-1.883c.059-1.416.215-2.826.414-4.229" transform="translate(-39.207 -161.863)" fill="#37474f"/>
            <path id="Trazado_206197" data-name="Trazado 206197" d="M152.69,472.888a1.768,1.768,0,0,0-.481-.72,33.437,33.437,0,0,1-10.755-4.729c.505-11.747,4.768-42.268,4.768-42.268a433.081,433.081,0,0,0-.5-51.078l-32.266-3.22c-.824,2.935-2.9,13.994,3.37,43.1-5.243,14.613-1.569,22.787,0,40.762l.053.033c-.029.137-.059.275-.085.412-.119.635-.2,1.276-.29,1.915a4.549,4.549,0,0,0,1.251,1.523,3.722,3.722,0,0,0,3.164.673,6.576,6.576,0,0,0,2.688-1.855l2.821-2.746a3.65,3.65,0,0,0,1.465-2.6,2.461,2.461,0,0,0-2.164-2.038,5.06,5.06,0,0,0-1.889.114c-.305.232-.589.456-.878.663l5.422-32.766,1.269-23.53,3.189,29.317c-4.458,12.722,2.086,19.778,2.086,40.118a29.425,29.425,0,0,1-.589,4.97,11.087,11.087,0,0,0,3.6,3.672,15.928,15.928,0,0,0,4.087,1.71A28.586,28.586,0,0,0,149.8,475.4a3.4,3.4,0,0,0,2.451-.685,1.821,1.821,0,0,0,.438-1.829" transform="translate(-37.402 -123.345)" fill="#ffa8a7"/>
            <g id="Grupo_144060" data-name="Grupo 144060" transform="translate(75.059 247.529)" opacity="0.2">
              <g id="Grupo_144059" data-name="Grupo 144059">
                <g id="Grupo_144058" data-name="Grupo 144058" clip-path="url(#clip-path-21)">
                  <path id="Trazado_206198" data-name="Trazado 206198" d="M152.69,472.888a1.768,1.768,0,0,0-.481-.72,33.437,33.437,0,0,1-10.755-4.729c.505-11.747,4.768-42.268,4.768-42.268a433.081,433.081,0,0,0-.5-51.078l-32.266-3.22c-.824,2.935-2.9,13.994,3.37,43.1-5.243,14.613-1.569,22.787,0,40.762l.053.033c-.029.137-.059.275-.085.412-.119.635-.2,1.276-.29,1.915a4.549,4.549,0,0,0,1.251,1.523,3.722,3.722,0,0,0,3.164.673,6.576,6.576,0,0,0,2.688-1.855l2.821-2.746a3.65,3.65,0,0,0,1.465-2.6,2.461,2.461,0,0,0-2.164-2.038,5.06,5.06,0,0,0-1.889.114c-.305.232-.589.456-.878.663l5.422-32.766,1.269-23.53,3.189,29.317c-4.458,12.722,2.086,19.778,2.086,40.118a29.425,29.425,0,0,1-.589,4.97,11.087,11.087,0,0,0,3.6,3.672,15.928,15.928,0,0,0,4.087,1.71A28.586,28.586,0,0,0,149.8,475.4a3.4,3.4,0,0,0,2.451-.685,1.821,1.821,0,0,0,.438-1.829" transform="translate(-112.462 -370.874)"/>
                </g>
              </g>
            </g>
            <g id="Grupo_144063" data-name="Grupo 144063" transform="translate(75.06 247.529)" opacity="0.2">
              <g id="Grupo_144062" data-name="Grupo 144062">
                <g id="Grupo_144061" data-name="Grupo 144061" clip-path="url(#clip-path-22)">
                  <path id="Trazado_206199" data-name="Trazado 206199" d="M146.715,409.313c.13-9.677.015-22.579-.986-35.219l-32.267-3.22c-.774,2.761-2.658,12.712,2.339,38.1a24.41,24.41,0,0,0,12.826,4.724l1.034-19.166,2.112,19.421a22.305,22.305,0,0,0,14.942-4.635" transform="translate(-112.463 -370.874)"/>
                </g>
              </g>
            </g>
            <path id="Trazado_206200" data-name="Trazado 206200" d="M145.193,373.078l-32.29-2.2c-3.134,8.888-2.5,19.5,0,34.779,3.907,4.839,18.357,8.723,26.924,3.978l1.02-10.553,1.169,10.837c2.595-.964,4.911-1.806,5.446-5.623a233.945,233.945,0,0,0-2.269-31.213" transform="translate(-36.844 -123.345)" fill="#0f2771"/>
            <path id="Trazado_206201" data-name="Trazado 206201" d="M154.606,282.348l2.253,4.219-2,1.358c-.115-1.8-.133-3.774-.248-5.577" transform="translate(-51.419 -93.903)" fill="#f28f8f"/>
            <g id="Grupo_144066" data-name="Grupo 144066" transform="translate(103.187 188.445)" opacity="0.3">
              <g id="Grupo_144065" data-name="Grupo 144065">
                <g id="Grupo_144064" data-name="Grupo 144064" clip-path="url(#clip-path-23)">
                  <path id="Trazado_206202" data-name="Trazado 206202" d="M154.606,282.348l2.253,4.219-2,1.358c-.115-1.8-.133-3.774-.248-5.577" transform="translate(-154.606 -282.348)"/>
                </g>
              </g>
            </g>
            <path id="Trazado_206203" data-name="Trazado 206203" d="M193.9,358.249a24.468,24.468,0,0,0,8.028,2.343,14.949,14.949,0,0,0,8.171-1.414,11.032,11.032,0,0,0,5.42-6.261l-.015-.017a2.568,2.568,0,0,0-3.2-.481,10.665,10.665,0,0,1-8.044.963,18.1,18.1,0,0,0,2.271-2.841c.326-.5.626-1.166.3-1.667a1.136,1.136,0,0,0-1.285-.345,3.845,3.845,0,0,0-1.2.768,16.255,16.255,0,0,1-7.026,3.294c-1.05,1.78-2.37,3.878-3.421,5.659" transform="translate(-64.486 -115.892)" fill="#ffa8a7"/>
            <path id="Trazado_206204" data-name="Trazado 206204" d="M137.468,309.37c-4.211-1.3-16.463-3.977-19.567-1.177-2.712,2.447-4.475,10.878-.819,21.706a12.843,12.843,0,0,1-.431,9.45,56.159,56.159,0,0,0-3.7,10.641c9.845,10.031,27.183,8.484,33.747,4.211a159.9,159.9,0,0,0-2.066-23.956Z" transform="translate(-37.564 -102.089)" fill="#bddcf6"/>
            <path id="Trazado_206205" data-name="Trazado 206205" d="M144.27,273.158a16.2,16.2,0,0,1,2.546,7.284,48.388,48.388,0,0,1,.11,7.783,5,5,0,0,1-.712,2.881,3.966,3.966,0,0,1-3.2,1.259c-1.188.008-2.266,0-3.558-.043l-.256,5.373c-4.241,2.353-9.01.712-10.248-.96l.216-5.263c6.595,1.238,10.155-1.022,10.775-5.109a4.61,4.61,0,0,1-3.807-.989,4.363,4.363,0,0,1-1.252-3.613,2.859,2.859,0,0,1,.683-1.6,2.587,2.587,0,0,1,2.7-.567,4.114,4.114,0,0,1,2.13,1.9,10.465,10.465,0,0,1,.988,2.73,2.467,2.467,0,0,0,.794-2.674c-.178-.487-.529-.95-.455-1.463.085-.579.673-.936.951-1.451a1.965,1.965,0,0,0,.1-1.452,5.8,5.8,0,0,0-.638-1.343,13.15,13.15,0,0,1,2.138-2.679" transform="translate(-42.887 -90.847)" fill="#ffa8a7"/>
            <g id="Grupo_144069" data-name="Grupo 144069" transform="translate(86.065 182.311)" opacity="0.2">
              <g id="Grupo_144068" data-name="Grupo 144068">
                <g id="Grupo_144067" data-name="Grupo 144067" clip-path="url(#clip-path-24)">
                  <path id="Trazado_206206" data-name="Trazado 206206" d="M144.27,273.158a16.2,16.2,0,0,1,2.546,7.284,48.388,48.388,0,0,1,.11,7.783,5,5,0,0,1-.712,2.881,3.966,3.966,0,0,1-3.2,1.259c-1.188.008-2.266,0-3.558-.043l-.256,5.373c-4.241,2.353-9.01.712-10.248-.96l.216-5.263c6.595,1.238,10.155-1.022,10.775-5.109a4.61,4.61,0,0,1-3.807-.989,4.363,4.363,0,0,1-1.252-3.613,2.859,2.859,0,0,1,.683-1.6,2.587,2.587,0,0,1,2.7-.567,4.114,4.114,0,0,1,2.13,1.9,10.465,10.465,0,0,1,.988,2.73,2.467,2.467,0,0,0,.794-2.674c-.178-.487-.529-.95-.455-1.463.085-.579.673-.936.951-1.451a1.965,1.965,0,0,0,.1-1.452,5.8,5.8,0,0,0-.638-1.343,13.15,13.15,0,0,1,2.138-2.679" transform="translate(-128.952 -273.158)"/>
                </g>
              </g>
            </g>
            <g id="Grupo_144072" data-name="Grupo 144072" transform="translate(99.465 212.058)" opacity="0.2">
              <g id="Grupo_144071" data-name="Grupo 144071">
                <g id="Grupo_144070" data-name="Grupo 144070" clip-path="url(#clip-path-25)">
                  <path id="Trazado_206207" data-name="Trazado 206207" d="M157.954,344c-.593-5.961-1.326-10.179-1.326-10.179l-5.522-16.1-2.078,2.869c1.257,7.6,4.24,17.037,8.925,23.407" transform="translate(-149.029 -317.727)"/>
                </g>
              </g>
            </g>
            <g id="Grupo_144075" data-name="Grupo 144075" transform="translate(129.411 232.572)" opacity="0.2">
              <g id="Grupo_144074" data-name="Grupo 144074">
                <g id="Grupo_144073" data-name="Grupo 144073" clip-path="url(#clip-path-26)">
                  <path id="Trazado_206208" data-name="Trazado 206208" d="M193.9,358.249a24.468,24.468,0,0,0,8.028,2.343,14.949,14.949,0,0,0,8.171-1.414,11.032,11.032,0,0,0,5.42-6.261l-.015-.017a2.568,2.568,0,0,0-3.2-.481,10.665,10.665,0,0,1-8.044.963,18.1,18.1,0,0,0,2.271-2.841c.326-.5.626-1.166.3-1.667a1.136,1.136,0,0,0-1.285-.345,3.845,3.845,0,0,0-1.2.768,16.255,16.255,0,0,1-7.026,3.294c-1.05,1.78-2.37,3.878-3.421,5.659" transform="translate(-193.897 -348.464)"/>
                </g>
              </g>
            </g>
            <path id="Trazado_206209" data-name="Trazado 206209" d="M149.207,310.149c7.761-3.385,8.651,4.01,12.912,11.871,2.61,5.054,5.829,9.925,5.829,9.925a58.555,58.555,0,0,0,14.366,6.6c1.693,4.458-2.229,8.834-2.229,8.834l-16.653-7.262a15.131,15.131,0,0,1-6.825-5.925c-6-9.726-10.389-16.611-7.4-24.048" transform="translate(-49.303 -102.869)" fill="#bddcf6"/>
            <path id="Trazado_206210" data-name="Trazado 206210" d="M137.51,269.966c1.748-1.94,3.575-4.041,3.951-6.624a6.651,6.651,0,0,0-11.931-4.91c-4.2-1.88-10.2-.681-13.092,2.9-2.982,3.695-3.128,8.9-2.633,13.618s1.486,9.557.288,14.152c-1.075,4.124-3.874,7.867-3.77,12.128a10.677,10.677,0,0,0,3.746,7.592,15.107,15.107,0,0,0,7.882,3.414,14.836,14.836,0,0,0,7.617-.794,10.282,10.282,0,0,0,5.545-5.139c1.331-2.96.931-6.4.2-9.558s-1.77-6.318-1.645-9.561c.227-5.9,4.224-11.322,3.841-17.214" transform="translate(-36.69 -85.063)" fill="#1a2e35"/>
          </g>
        </g>
      </g>
    </g>
  </g>
</svg>
