<svg xmlns="http://www.w3.org/2000/svg" xmlns:xlink="http://www.w3.org/1999/xlink" width="292.619" height="304.658" viewBox="0 0 292.619 304.658">
  <defs>
    <clipPath id="clip-path">
      <rect id="Rectángulo_45510" data-name="Rectángulo 45510" width="292.619" height="304.658" fill="none"/>
    </clipPath>
    <clipPath id="clip-path-3">
      <rect id="Rectángulo_45503" data-name="Rectángulo 45503" width="164.722" height="172.972" fill="none"/>
    </clipPath>
    <clipPath id="clip-path-4">
      <path id="Trazado_207048" data-name="Trazado 207048" d="M235.026,218.741c.106,47.765-36.683,86.576-82.17,86.687S70.41,266.907,70.3,219.143s36.683-86.576,82.17-86.687,82.446,38.521,82.551,86.286" transform="translate(-70.305 -132.456)" fill="none"/>
    </clipPath>
    <linearGradient id="linear-gradient" x1="-0.014" y1="1.113" x2="-0.012" y2="1.113" gradientUnits="objectBoundingBox">
      <stop offset="0" stop-color="#ffc444"/>
      <stop offset="0.996" stop-color="#f36f56"/>
      <stop offset="1" stop-color="#f36f56"/>
    </linearGradient>
    <clipPath id="clip-path-5">
      <path id="Trazado_207049" data-name="Trazado 207049" d="M74.749,221c0,46.324,35.761,83.875,79.874,83.875S234.5,267.321,234.5,221s-35.761-83.875-79.875-83.875S74.749,174.675,74.749,221" transform="translate(-74.749 -137.123)" fill="none"/>
    </clipPath>
    <linearGradient id="linear-gradient-2" x1="-0.084" y1="1.176" x2="-0.081" y2="1.176" xlink:href="#linear-gradient"/>
    <clipPath id="clip-path-6">
      <path id="Trazado_207050" data-name="Trazado 207050" d="M74.749,222.41c0,45.333,35,82.083,78.167,82.083s78.167-36.749,78.167-82.083-35-82.082-78.167-82.082S74.749,177.077,74.749,222.41" transform="translate(-74.749 -140.328)" fill="none"/>
    </clipPath>
    <linearGradient id="linear-gradient-3" x1="-0.076" y1="1.207" x2="-0.073" y2="1.207" gradientUnits="objectBoundingBox">
      <stop offset="0" stop-color="#ebeff2"/>
      <stop offset="0.004" stop-color="#ebeff2"/>
      <stop offset="1" stop-color="#fff"/>
    </linearGradient>
    <clipPath id="clip-path-8">
      <rect id="Rectángulo_45508" data-name="Rectángulo 45508" width="24.469" height="118.52" fill="none"/>
    </clipPath>
    <clipPath id="clip-path-9">
      <path id="Trazado_207060" data-name="Trazado 207060" d="M427.13,276.909l-15.532.5v111.7a2.954,2.954,0,0,0,3.223,3.192l14.077,3.129a44.843,44.843,0,0,0,7.169-3.447Z" transform="translate(-411.598 -276.909)" fill="none"/>
    </clipPath>
    <linearGradient id="linear-gradient-4" x1="-5.709" y1="1.249" x2="-5.695" y2="1.249" gradientUnits="objectBoundingBox">
      <stop offset="0" stop-color="#311944"/>
      <stop offset="1" stop-color="#893976"/>
    </linearGradient>
  </defs>
  <g id="Grupo_146529" data-name="Grupo 146529" transform="translate(-320 -1939)">
    <g id="Grupo_145243" data-name="Grupo 145243" transform="translate(320 1939)">
      <g id="Grupo_145242" data-name="Grupo 145242" clip-path="url(#clip-path)">
        <g id="Grupo_145230" data-name="Grupo 145230">
          <g id="Grupo_145229" data-name="Grupo 145229" clip-path="url(#clip-path)">
            <path id="Trazado_207037" data-name="Trazado 207037" d="M51.254,298.66c-6.219-11.485-7.351-21.522-7.206-27.919.158-6.968,1.852-11.525,2.186-11.923l-.156-.142-.029-.348c-.159.014-.253.144-.373.378-1.7,3.359-5.822,20.03,5.113,40.226Z" transform="translate(-19.156 -113.792)" fill="#beb8f2"/>
            <path id="Trazado_207038" data-name="Trazado 207038" d="M184,382.868l.374-.4C166.446,364.077,165.129,334.056,165.4,322a9.485,9.485,0,0,0,0-.953l-.526.083.263-.041-.263.04c.008.069,0,.435-.01.859a118.4,118.4,0,0,0,2.005,24.987c2.925,15.151,8.69,27.227,17.135,35.891" transform="translate(-72.607 -141.421)" fill="#beb8f2"/>
            <path id="Trazado_207039" data-name="Trazado 207039" d="M113.769,422.93l-.178-.2.09.258-.3-.094v-.332l0,0c.258-.269,18.431-13.779,37.379-6.755l-.178.523c-18.759-6.954-36.647,6.462-36.809,6.6m-.179-.2-.091-.26Z" transform="translate(-49.941 -182.269)" fill="#beb8f2"/>
            <path id="Trazado_207040" data-name="Trazado 207040" d="M264.636,461.819c-3.313-4-7.3-12.221-7.466-28.628-.01-.931-.01-.931-.111-1.03l-.364.405.182-.2-.256.067c.009.064.012.39.016.767.171,16.574,4.224,24.91,7.595,28.985Z" transform="translate(-113.041 -190.365)" fill="#beb8f2"/>
            <path id="Trazado_207041" data-name="Trazado 207041" d="M233.215,471.563l.306-.454c-7.7-5.653-21.681-2.817-29.332-.623-.243.07-.4.115-.457.127l.106.544c.063-.013.231-.061.492-.136,7.561-2.168,21.367-4.98,28.885.542" transform="translate(-89.743 -206.064)" fill="#beb8f2"/>
            <path id="Trazado_207042" data-name="Trazado 207042" d="M387.23,200.791l1.295-2.852a2.3,2.3,0,0,0-.645-2.87l-3.353-2.06a36.935,36.935,0,0,0,1.864-8.109l3.743-.263a2.139,2.139,0,0,0,1.744-2.252v-3.129a1.836,1.836,0,0,0-1.744-2.03l-3.644.208a34.372,34.372,0,0,0-1.691-8.067l3.082-2.286a1.93,1.93,0,0,0,.271-.248l.395,1.026,5.062-6.224L387,161.069a1.631,1.631,0,0,0-1.093-.65,1.55,1.55,0,0,0-1.1.3l-3.044,2.212a27.908,27.908,0,0,0-5.024-6.021l.229-.479,4.653.951.591-7.7-7.066-1.166a1.741,1.741,0,0,0-2.179,1.005l-1.756,3.622c-2.257-1.122-.387-2.3-2.951-2.645l2.682-3.951c0-1.231-7.857-2.051-8.919-2.051h-2.841a2.123,2.123,0,0,0-1.95,2.259v4.23a25.182,25.182,0,0,0-7.619,2.473l4.853-3.566s-8.548-1.62-9.521-.977l-2.6,1.719a2.5,2.5,0,0,0-.753,3.174l1.968,3.807a22.316,22.316,0,0,0-4.7,5.556l-4.571-1.032a2.044,2.044,0,0,0-2.892.944l-1.566,3.05a2.446,2.446,0,0,0,.782,3.2l3.685,2.209a36.941,36.941,0,0,0-2.012,8.993l-4.421.253a2.44,2.44,0,0,0-2.158,2.5v3.491A2.127,2.127,0,0,0,327.537,189l5.024.805a33.488,33.488,0,0,0,2.055,7.4l-4,2.911a2.631,2.631,0,0,0-.782,3.295l1.566,2.851c.587,1.068,9.9,1.718,9.9,1.718l-2.956-4.146a26.816,26.816,0,0,0,5.587,5.592l-2.334,4.813a2.32,2.32,0,0,0,.753,3.078l2.6,1.388a1.7,1.7,0,0,0,.511.173l-.011.049,8.116,1,.794-6.125a23.05,23.05,0,0,0,2.876.26v5.24a1.972,1.972,0,0,0,1.182,1.926l-.035.153,8.04,1,.161-9.935a26.566,26.566,0,0,0,4.244-2.065l2.143,4.148a1.619,1.619,0,0,0,1.179.9l7.77,1.054-2.662-7.324-1.074.33-1.771-3.472a33.172,33.172,0,0,0,4.929-6.27l3.468,2.079a1.736,1.736,0,0,0,2.424-1.027M360.6,198.107c-7.607.678-13.917-6-13.917-14.924S353,166.789,360.6,166.511c7.42-.271,13.3,6.43,13.3,14.963s-5.882,15.973-13.3,16.634m32.49-17.142,5.264-2.491-5.264-.638Zm-6.461,21.266,6.022.812.879-2.053-4.988-3.033Z" transform="translate(-143.472 -63.651)" fill="#bfc8d6"/>
            <path id="Trazado_207043" data-name="Trazado 207043" d="M404.293,179.377l-3.623.209a34.315,34.315,0,0,0-1.682-8.044l3.064-2.281a2.465,2.465,0,0,0,.641-2.944l-1.288-2.679a1.578,1.578,0,0,0-2.41-.715l-3.026,2.207a27.772,27.772,0,0,0-5-6l1.742-3.648a2.412,2.412,0,0,0-.664-2.963l-2.318-1.581a1.7,1.7,0,0,0-2.51.822l-1.746,3.612a22.962,22.962,0,0,0-7.227-2.22v-4.171a2.084,2.084,0,0,0-1.908-2.227h-2.826a2.116,2.116,0,0,0-1.939,2.254v4.218A25.007,25.007,0,0,0,364,155.7l-1.887-3.711a1.88,1.88,0,0,0-2.754-.816l-2.586,1.715a2.5,2.5,0,0,0-.749,3.165l1.957,3.8a32.549,32.549,0,0,0-5.677,6.7l-3.54-2.18a2.031,2.031,0,0,0-2.875.942l-1.557,3.042a2.443,2.443,0,0,0,.777,3.186l3.664,2.2a36.952,36.952,0,0,0-2,8.968l-4.4.254a2.432,2.432,0,0,0-2.145,2.494v3.481a2.084,2.084,0,0,0,2.145,2.218l4.512-.319a33.68,33.68,0,0,0,2.2,8.487l-3.981,2.9a2.629,2.629,0,0,0-.777,3.286l1.557,2.842a1.889,1.889,0,0,0,2.875.573l4.027-3a26.686,26.686,0,0,0,5.555,5.574l-2.321,4.8a2.316,2.316,0,0,0,.749,3.069l2.586,1.383a2.064,2.064,0,0,0,2.754-1.17l2.3-4.819a22.8,22.8,0,0,0,7.162,1.355v5.225a1.819,1.819,0,0,0,1.939,2l2.826-.361a2.438,2.438,0,0,0,1.908-2.472v-5.167a25.84,25.84,0,0,0,6.842-2.9l2.131,4.135a1.582,1.582,0,0,0,2.51.5l2.318-1.878a2.588,2.588,0,0,0,.664-3.048l-2.068-4.066a33.142,33.142,0,0,0,4.9-6.254l3.448,2.071a1.725,1.725,0,0,0,2.41-1.024l1.288-2.845a2.294,2.294,0,0,0-.641-2.862l-3.334-2.053a36.965,36.965,0,0,0,1.854-8.087l3.721-.263a2.133,2.133,0,0,0,1.734-2.247V181.4a1.828,1.828,0,0,0-1.734-2.024m-29.361,20.834c-7.563.679-13.837-5.974-13.837-14.876s6.273-16.35,13.837-16.631c7.377-.274,13.226,6.406,13.226,14.914s-5.848,15.93-13.226,16.592" transform="translate(-149.872 -64.645)" fill="#d8dee8"/>
            <path id="Trazado_207044" data-name="Trazado 207044" d="M251.2,117.015l1.732-3.816a3.072,3.072,0,0,0-.862-3.84l-4.486-2.756a49.414,49.414,0,0,0,2.494-10.849l5.007-.351a2.862,2.862,0,0,0,2.334-3.013V88.2a2.457,2.457,0,0,0-2.334-2.717l-4.876.279a46,46,0,0,0-2.263-10.794l4.123-3.058a2.55,2.55,0,0,0,.363-.332l.528,1.372,6.772-8.328-8.841-.754a2.188,2.188,0,0,0-1.462-.87,2.073,2.073,0,0,0-1.473.407l-4.073,2.96a37.311,37.311,0,0,0-6.721-8.056l.307-.641,6.225,1.272.79-10.306-9.453-1.56a2.328,2.328,0,0,0-2.914,1.345l-2.349,4.846c-3.019-1.5-.517-3.082-3.949-3.539l3.589-5.285c0-1.647-10.513-2.744-11.933-2.744h-3.8a2.841,2.841,0,0,0-2.609,3.023v5.659a33.709,33.709,0,0,0-10.193,3.309l6.493-4.771s-11.437-2.166-12.738-1.307l-3.48,2.3a3.342,3.342,0,0,0-1.007,4.246l2.632,5.094a29.858,29.858,0,0,0-6.288,7.434l-6.115-1.381a2.734,2.734,0,0,0-3.869,1.263L174.4,70.65a3.271,3.271,0,0,0,1.045,4.275l4.93,2.955a49.447,49.447,0,0,0-2.692,12.032l-5.914.339a3.265,3.265,0,0,0-2.888,3.345v4.671a2.845,2.845,0,0,0,2.452,2.968l6.721,1.078a44.773,44.773,0,0,0,2.749,9.895l-5.358,3.894a3.52,3.52,0,0,0-1.045,4.409l2.095,3.814c.785,1.43,13.243,2.3,13.243,2.3l-3.955-5.548a35.877,35.877,0,0,0,7.474,7.482L190.136,135a3.1,3.1,0,0,0,1.007,4.118l3.48,1.856a2.254,2.254,0,0,0,.684.231l-.013.065,10.857,1.338,1.063-8.195a31.008,31.008,0,0,0,3.847.348v7.01a2.639,2.639,0,0,0,1.582,2.577l-.048.2,10.757,1.343.215-13.291a35.642,35.642,0,0,0,5.678-2.763l2.867,5.549a2.164,2.164,0,0,0,1.577,1.2l10.4,1.409-3.561-9.8-1.436.441L236.72,124a44.414,44.414,0,0,0,6.594-8.389l4.639,2.781c1.139.683,2.59.065,3.243-1.374m-35.622-3.59c-10.177.906-18.619-8.024-18.619-19.968s8.442-21.934,18.619-22.306c9.927-.363,17.8,8.6,17.8,20.019s-7.869,21.371-17.8,22.255m43.469-22.934,7.043-3.334-7.043-.854ZM250.4,118.943l8.057,1.087,1.176-2.747-6.674-4.058Z" transform="translate(-74.392 -18.369)" fill="#bfc8d6"/>
            <path id="Trazado_207045" data-name="Trazado 207045" d="M274.027,88.364l-4.848.28a45.894,45.894,0,0,0-2.25-10.762l4.1-3.051a3.3,3.3,0,0,0,.858-3.939l-1.722-3.584a2.111,2.111,0,0,0-3.225-.956l-4.05,2.953a37.155,37.155,0,0,0-6.683-8.029l2.33-4.881a3.225,3.225,0,0,0-.888-3.964l-3.1-2.115a2.268,2.268,0,0,0-3.358,1.1l-2.336,4.833a30.709,30.709,0,0,0-9.669-2.97V47.7a2.789,2.789,0,0,0-2.553-2.98l-3.78,0a2.832,2.832,0,0,0-2.594,3.016V53.38a33.462,33.462,0,0,0-10.134,3.3L217.6,51.719a2.514,2.514,0,0,0-3.684-1.093l-3.461,2.295a3.339,3.339,0,0,0-1,4.234l2.617,5.078a43.511,43.511,0,0,0-7.6,8.957l-4.736-2.916a2.716,2.716,0,0,0-3.847,1.261l-2.083,4.07a3.267,3.267,0,0,0,1.04,4.262l4.9,2.945a49.447,49.447,0,0,0-2.677,12l-5.881.34a3.254,3.254,0,0,0-2.87,3.337v4.658a2.789,2.789,0,0,0,2.87,2.968l6.037-.427a45.046,45.046,0,0,0,2.946,11.355l-5.327,3.885a3.517,3.517,0,0,0-1.04,4.4l2.083,3.8a2.528,2.528,0,0,0,3.847.767l5.387-4.009a35.7,35.7,0,0,0,7.431,7.458l-3.1,6.423a3.1,3.1,0,0,0,1,4.106l3.461,1.85a2.76,2.76,0,0,0,3.684-1.566l3.078-6.447a30.5,30.5,0,0,0,9.582,1.812v6.99a2.435,2.435,0,0,0,2.594,2.682l3.78-.485a3.261,3.261,0,0,0,2.553-3.308v-6.912a34.6,34.6,0,0,0,9.154-3.88l2.851,5.532a2.117,2.117,0,0,0,3.358.669l3.1-2.513a3.461,3.461,0,0,0,.888-4.078l-2.767-5.441a44.3,44.3,0,0,0,6.557-8.368l4.613,2.772c1.132.68,2.575.064,3.225-1.371L271.886,116a3.068,3.068,0,0,0-.858-3.829l-4.46-2.746a49.405,49.405,0,0,0,2.48-10.82l4.978-.352a2.853,2.853,0,0,0,2.32-3.006V91.072a2.446,2.446,0,0,0-2.32-2.708m-39.282,27.875c-10.119.908-18.512-7.993-18.512-19.9s8.393-21.875,18.512-22.25c9.87-.366,17.695,8.571,17.695,19.954s-7.825,21.313-17.695,22.2" transform="translate(-82.955 -19.699)" fill="#d8dee8"/>
            <path id="Trazado_207046" data-name="Trazado 207046" d="M207.247,215.559c.106,48.253-25.542,87.632-71.22,88.927-.706.02-12.363,0-13.073,0-46.663.114-84.577-39.516-84.685-88.516s37.631-88.813,84.293-88.927c1.091,0,11.334.1,12.415.139,45.156,1.688,72.165,40.523,72.271,88.376" transform="translate(-16.857 -55.962)" fill="#f79731"/>
            <path id="Trazado_207047" data-name="Trazado 207047" d="M235.479,216.977c.107,49-37.632,88.813-84.293,88.927S66.608,266.388,66.5,217.388s37.631-88.813,84.294-88.926,84.577,39.516,84.685,88.515" transform="translate(-29.293 -56.587)" fill="#feca2e"/>
            <g id="Grupo_145228" data-name="Grupo 145228" transform="translate(39.336 74.11)" opacity="0.3" style="mix-blend-mode: multiply;isolation: isolate">
              <g id="Grupo_145227" data-name="Grupo 145227">
                <g id="Grupo_145226" data-name="Grupo 145226" clip-path="url(#clip-path-3)">
                  <g id="Grupo_145225" data-name="Grupo 145225" transform="translate(0 0)">
                    <g id="Grupo_145224" data-name="Grupo 145224" clip-path="url(#clip-path-4)">
                      <rect id="Rectángulo_45502" data-name="Rectángulo 45502" width="236.816" height="234.902" transform="matrix(0.582, -0.813, 0.813, 0.582, -82.051, 114.486)" fill="url(#linear-gradient)"/>
                    </g>
                  </g>
                </g>
              </g>
            </g>
          </g>
        </g>
        <g id="Grupo_145232" data-name="Grupo 145232" transform="translate(41.822 76.721)">
          <g id="Grupo_145231" data-name="Grupo 145231" clip-path="url(#clip-path-5)">
            <rect id="Rectángulo_45505" data-name="Rectángulo 45505" width="208.37" height="213.063" transform="matrix(0.937, -0.35, 0.35, 0.937, -55.015, 20.563)" fill="url(#linear-gradient-2)"/>
          </g>
        </g>
        <g id="Grupo_145234" data-name="Grupo 145234" transform="translate(41.822 78.514)">
          <g id="Grupo_145233" data-name="Grupo 145233" clip-path="url(#clip-path-6)">
            <rect id="Rectángulo_45506" data-name="Rectángulo 45506" width="208.293" height="203.675" transform="translate(-53.539 144.3) rotate(-69.644)" fill="url(#linear-gradient-3)"/>
          </g>
        </g>
        <g id="Grupo_145241" data-name="Grupo 145241">
          <g id="Grupo_145240" data-name="Grupo 145240" clip-path="url(#clip-path)">
            <path id="Trazado_207051" data-name="Trazado 207051" d="M229.206,230.3l59.543,23.09a72.421,72.421,0,0,0,2.984-20.654c0-37.041-27.695-67.289-62.527-69.156Z" transform="translate(-100.964 -72.057)" fill="#feca2e"/>
            <path id="Trazado_207052" data-name="Trazado 207052" d="M215.12,285.22A4.976,4.976,0,1,1,210.15,280a5.1,5.1,0,0,1,4.97,5.219" transform="translate(-90.381 -123.339)" fill="#0f2771"/>
            <path id="Trazado_207053" data-name="Trazado 207053" d="M211.59,215a3.223,3.223,0,0,0-3.141,3.3v35.18a3.145,3.145,0,1,0,6.282,0v-35.18a3.223,3.223,0,0,0-3.141-3.3" transform="translate(-91.821 -94.705)" fill="#0f2771"/>
            <path id="Trazado_207054" data-name="Trazado 207054" d="M169.208,275.359l-56.272-16.543a2,2,0,0,0-2.434,1.228,1.776,1.776,0,0,0,1.158,2.325l56.272,16.544a2,2,0,0,0,2.434-1.229,1.775,1.775,0,0,0-1.158-2.325" transform="translate(-48.627 -113.97)" fill="#0f2771"/>
            <path id="Trazado_207055" data-name="Trazado 207055" d="M129.287,514.371c8.172-13.884,27.3-30.9,42.64-37.941l-.159-.347c-15.4,7.064-34.6,24.153-42.81,38.094Z" transform="translate(-56.805 -209.712)" fill="#fcfdfe"/>
            <path id="Trazado_207056" data-name="Trazado 207056" d="M213.292,442.073l0-.383c-8.772-.109-17.151-4.649-24.906-13.493-5.686-6.485-10.909-15.089-15.526-25.576l-.35.154c4.632,10.522,9.877,19.16,15.588,25.674,7.829,8.929,16.3,13.513,25.189,13.623" transform="translate(-75.992 -177.353)" fill="#fcfdfe"/>
            <path id="Trazado_207057" data-name="Trazado 207057" d="M69.915,459.109l.025-.382c-16.524-1.057-31.45,7.909-41.061,15.616l.239.3c9.559-7.665,24.4-16.581,40.8-15.532" transform="translate(-12.721 -202.03)" fill="#fcfdfe"/>
            <path id="Trazado_207058" data-name="Trazado 207058" d="M28.734,394.747l.268-.273C15.7,381.4,12.9,362.022,12.416,351.634l-.382.018c.486,10.444,3.3,29.93,16.7,43.095" transform="translate(-5.301 -154.893)" fill="#fcfdfe"/>
            <path id="Trazado_207059" data-name="Trazado 207059" d="M445.352,226.9,438.346,179.6l-15.66,1.576a5.19,5.19,0,0,0-4.427,2.515l-20.565,47.919a2.218,2.218,0,0,0,1.82,3.182l5.872-.247v111.7a2.953,2.953,0,0,0,3.223,3.192l14.077,3.129c1.684-.218,17.447-8.71,17.447-10.629V229.971l3.56-.018a2.142,2.142,0,0,0,1.66-3.053" transform="translate(-175.095 -79.115)" fill="#0f2771"/>
            <g id="Grupo_145239" data-name="Grupo 145239" transform="translate(230.291 154.932)" opacity="0.3" style="mix-blend-mode: multiply;isolation: isolate">
              <g id="Grupo_145238" data-name="Grupo 145238">
                <g id="Grupo_145237" data-name="Grupo 145237" clip-path="url(#clip-path-8)">
                  <g id="Grupo_145236" data-name="Grupo 145236" transform="translate(0 0)">
                    <g id="Grupo_145235" data-name="Grupo 145235" clip-path="url(#clip-path-9)">
                      <rect id="Rectángulo_45507" data-name="Rectángulo 45507" width="39.058" height="120.646" transform="matrix(0.992, -0.125, 0.125, 0.992, -14.664, 1.843)" fill="url(#linear-gradient-4)"/>
                    </g>
                  </g>
                </g>
              </g>
            </g>
            <path id="Trazado_207061" data-name="Trazado 207061" d="M474.369,230.668,454.017,180.72a1.815,1.815,0,0,0-3.439-.17l-21.418,50.263a2.206,2.206,0,0,0,1.8,3.166l3.82-.025v115.54a2.928,2.928,0,0,0,3.192,3.174l28.237-3.651a3.8,3.8,0,0,0,2.989-3.845V233.731l3.527-.023a2.134,2.134,0,0,0,1.643-3.04" transform="translate(-188.957 -79.022)" fill="#4dd0e1"/>
            <path id="Trazado_207062" data-name="Trazado 207062" d="M347.629,419.059l-14.707-3.417a2.993,2.993,0,0,1-3.356-3.156V321.248a3.6,3.6,0,0,1,3.356-3.683l31.535-.928c1.732-.051,16.4.779,16.4.779l-13.267,90.349c0,1.906-19.96,11.294-19.96,11.294" transform="translate(-145.172 -139.476)" fill="#0f2771"/>
            <path id="Trazado_207063" data-name="Trazado 207063" d="M392.669,415.495l-31.233,4.039a2.968,2.968,0,0,1-3.324-3.137V322.481a3.58,3.58,0,0,1,3.324-3.665l31.233-.93a3.164,3.164,0,0,1,3.1,3.342v90.432a3.842,3.842,0,0,1-3.1,3.835" transform="translate(-157.747 -140.027)" fill="#4dd0e1"/>
            <path id="Trazado_207064" data-name="Trazado 207064" d="M258.655,450.753l-15.509-3.421a3.212,3.212,0,0,1-3.694-3.289l.469-63.932a4.011,4.011,0,0,1,3.693-3.98l34.645-2.066c1.9-.114,17.838,2.082,17.838,2.082l-14.86,62.708c0,2-20.659,11.65-22.581,11.9" transform="translate(-105.477 -164.772)" fill="#0f2771"/>
            <path id="Trazado_207065" data-name="Trazado 207065" d="M306.849,447.319l-34.318,4.438a3.183,3.183,0,0,1-3.658-3.269v-65.97a3.986,3.986,0,0,1,3.658-3.963l34.318-2.071a3.259,3.259,0,0,1,3.4,3.391v63.407a4.105,4.105,0,0,1-3.4,4.037" transform="translate(-118.437 -165.837)" fill="#4dd0e1"/>
            <path id="Trazado_207066" data-name="Trazado 207066" d="M158.6,485.531l-14.516-2.889A3.468,3.468,0,0,1,140,479.209V445.988a4.5,4.5,0,0,1,4.087-4.323l38.262-3.444c2.094-.189,16.592,1.508,16.592,1.508L186.132,473.48c0,2.1-25.408,11.777-27.532,12.051" transform="translate(-61.669 -193.028)" fill="#0f2771"/>
            <path id="Trazado_207067" data-name="Trazado 207067" d="M212.33,482.311l-37.883,4.9A3.434,3.434,0,0,1,170.4,483.8V448.665a4.467,4.467,0,0,1,4.046-4.3l37.883-3.444a3.377,3.377,0,0,1,3.749,3.434v33.7a4.41,4.41,0,0,1-3.749,4.26" transform="translate(-75.061 -194.215)" fill="#4dd0e1"/>
            <path id="Trazado_207068" data-name="Trazado 207068" d="M76.681,473.7l-42.462,4.384a5.214,5.214,0,0,0-4.106,2.818,4.143,4.143,0,0,0-.439,1.823v18.255c0,2.3,1.95,4.191,4.545,5.111l15,2.982c2.357-.3,31.651-10.726,31.651-12.931l7.037-8.465,7.122-12.061S79,473.464,76.681,473.7" transform="translate(-13.071 -208.656)" fill="#0f2771"/>
            <path id="Trazado_207069" data-name="Trazado 207069" d="M107.718,505.661,65.682,511.1a3.732,3.732,0,0,1-4.5-3.568V486.354a4.933,4.933,0,0,1,4.5-4.62l42.036-4.387a3.594,3.594,0,0,1,4.152,3.539v20.266a4.766,4.766,0,0,1-4.152,4.509" transform="translate(-26.951 -210.259)" fill="#4dd0e1"/>
          </g>
        </g>
      </g>
    </g>
  </g>
</svg>
