<svg xmlns="http://www.w3.org/2000/svg" xmlns:xlink="http://www.w3.org/1999/xlink" width="148" height="148" viewBox="0 0 148 148">
  <defs>
    <clipPath id="clip-path">
      <rect id="Rectángulo_45206" data-name="Rectángulo 45206" width="128.726" height="127.829" fill="none"/>
    </clipPath>
    <clipPath id="clip-path-2">
      <path id="Trazado_206592" data-name="Trazado 206592" d="M63.4,0a61.723,61.723,0,0,0-6.474.326c-.409.043-.876.09-1.5.172C29.848,3.842,13.839,27.573,11.938,30.477c-16.033,24.5-17.054,64.042,3.929,83,9.234,8.342,19.982,10.014,32.713,12.384,7.891,1.469,33.416,5.766,55.744-9.143a49.092,49.092,0,0,0,8.621-7c19.862-20.473,19.813-57.83,4.2-81.95A59.653,59.653,0,0,0,105.4,14.448C90.474,1.942,73.025.005,63.492,0Z" transform="translate(0 -0.001)" fill="none"/>
    </clipPath>
    <linearGradient id="linear-gradient" x1="0.165" y1="0.826" x2="0.166" y2="0.826" gradientUnits="objectBoundingBox">
      <stop offset="0" stop-color="#dae3fe"/>
      <stop offset="1" stop-color="#e9effd"/>
    </linearGradient>
    <clipPath id="clip-path-4">
      <rect id="Rectángulo_45132" data-name="Rectángulo 45132" width="69.186" height="65.358" fill="none"/>
    </clipPath>
    <clipPath id="clip-path-5">
      <rect id="Rectángulo_45140" data-name="Rectángulo 45140" width="79.964" height="80.012" fill="none"/>
    </clipPath>
    <clipPath id="clip-path-6">
      <rect id="Rectángulo_45133" data-name="Rectángulo 45133" width="22.62" height="79.79" fill="none"/>
    </clipPath>
    <clipPath id="clip-path-7">
      <rect id="Rectángulo_45134" data-name="Rectángulo 45134" width="61.297" height="80.01" fill="none"/>
    </clipPath>
    <clipPath id="clip-path-8">
      <rect id="Rectángulo_45135" data-name="Rectángulo 45135" width="73.578" height="0.418" fill="none"/>
    </clipPath>
    <clipPath id="clip-path-9">
      <rect id="Rectángulo_45136" data-name="Rectángulo 45136" width="52.259" height="0.418" fill="none"/>
    </clipPath>
    <clipPath id="clip-path-10">
      <rect id="Rectángulo_45137" data-name="Rectángulo 45137" width="79.964" height="0.418" fill="none"/>
    </clipPath>
    <clipPath id="clip-path-12">
      <rect id="Rectángulo_45139" data-name="Rectángulo 45139" width="52.496" height="0.31" fill="none"/>
    </clipPath>
    <clipPath id="clip-path-13">
      <path id="Trazado_206602" data-name="Trazado 206602" d="M53.875,190.318c-3.1.077-5.567,2.879-5.567,6.311v57.237c0,4.709,3.386,8.559,7.632,8.68,18.862.539,84.834,1.846,102.789,1.553a6.091,6.091,0,0,0,5.675-6.207c.346-13.3.909-45.272-1.172-60.116a6.183,6.183,0,0,0-5.672-5.565c-14.071-.5-71.051-1.964-96.046-1.964-3.079,0-5.671.022-7.64.071" transform="translate(-48.308 -190.247)" fill="none"/>
    </clipPath>
    <linearGradient id="linear-gradient-2" x1="-0.1" y1="1.105" x2="-0.098" y2="1.105" gradientUnits="objectBoundingBox">
      <stop offset="0" stop-color="#09005d"/>
      <stop offset="1" stop-color="#1a0f91"/>
    </linearGradient>
    <clipPath id="clip-path-14">
      <path id="Trazado_206603" data-name="Trazado 206603" d="M61.735,203.341V257.72a4.813,4.813,0,0,0,4.471,5.03l100.127,1.371a4.665,4.665,0,0,0,4.483-4.878l.167-53.893a3.431,3.431,0,0,0-3.152-3.593l-102.512-2.3h-.087a3.7,3.7,0,0,0-3.5,3.88" transform="translate(-61.735 -199.461)" fill="none"/>
    </clipPath>
    <linearGradient id="linear-gradient-3" x1="-0.42" y1="0.91" x2="-0.416" y2="0.91" gradientUnits="objectBoundingBox">
      <stop offset="0" stop-color="#4f52ff"/>
      <stop offset="1" stop-color="#4042e2"/>
    </linearGradient>
    <clipPath id="clip-path-16">
      <rect id="Rectángulo_45144" data-name="Rectángulo 45144" width="102.613" height="58.566" fill="none"/>
    </clipPath>
    <clipPath id="clip-path-17">
      <rect id="Rectángulo_45145" data-name="Rectángulo 45145" width="110.114" height="2.352" fill="none"/>
    </clipPath>
    <clipPath id="clip-path-18">
      <path id="Trazado_206614" data-name="Trazado 206614" d="M61.678,501.167s-3.949,1.7-3.722,3.48c0,0,4.082-.783,4.812-1.949s.328-1.842.328-1.842Z" transform="translate(-57.946 -500.856)" fill="none"/>
    </clipPath>
    <linearGradient id="linear-gradient-4" x1="-1.989" y1="1.425" x2="-1.953" y2="1.425" xlink:href="#linear-gradient-2"/>
    <clipPath id="clip-path-19">
      <path id="Trazado_206615" data-name="Trazado 206615" d="M70.375,494.621l.388,1.4a.667.667,0,0,0,.648.487,1.5,1.5,0,0,0,.5-.076.573.573,0,0,0,.362-.609l-.2-1.733Z" transform="translate(-70.375 -494.091)" fill="none"/>
    </clipPath>
    <linearGradient id="linear-gradient-5" x1="-5.958" y1="3.559" x2="-5.871" y2="3.559" gradientUnits="objectBoundingBox">
      <stop offset="0" stop-color="#febbba"/>
      <stop offset="1" stop-color="#ff928e"/>
    </linearGradient>
    <clipPath id="clip-path-20">
      <path id="Trazado_206616" data-name="Trazado 206616" d="M63.187,440.737c-3.614,2.108.183,12.222.183,12.222a3.67,3.67,0,0,0,2.3-.523s-1.94-7.4,1.429-8.693a19.4,19.4,0,0,1,7.707-1.1l-.726-3.453-.02-.229s-.425-.02-1.12-.02c-2.179,0-7.017.193-9.757,1.791" transform="translate(-61.627 -438.946)" fill="none"/>
    </clipPath>
    <linearGradient id="linear-gradient-6" x1="-0.841" y1="1.54" x2="-0.826" y2="1.54" gradientUnits="objectBoundingBox">
      <stop offset="0" stop-color="#e1473d"/>
      <stop offset="1" stop-color="#e9605a"/>
    </linearGradient>
    <clipPath id="clip-path-21">
      <path id="Trazado_206617" data-name="Trazado 206617" d="M56.677,509.614a3.232,3.232,0,0,0-1.462.787,2.652,2.652,0,0,0,2.262.838,6.858,6.858,0,0,0,3.57-1.494.99.99,0,0,0,.175-.742s-.527-.557-.9-.571h-.008c-.4,0-2.819,1-3.639,1.182" transform="translate(-55.215 -508.432)" fill="none"/>
    </clipPath>
    <linearGradient id="linear-gradient-7" x1="-4.097" y1="1.076" x2="-4.029" y2="1.076" xlink:href="#linear-gradient-2"/>
    <clipPath id="clip-path-22">
      <path id="Trazado_206618" data-name="Trazado 206618" d="M56.366,515.367a2.652,2.652,0,0,1-2.262-.838c-.383.373-.513.765-.093.927a7.813,7.813,0,0,0,4.76-.568,3.084,3.084,0,0,0,1.166-1.016,6.858,6.858,0,0,1-3.57,1.494" transform="translate(-53.751 -513.873)" fill="none"/>
    </clipPath>
    <linearGradient id="linear-gradient-8" x1="-4.428" y1="0.93" x2="-4.354" y2="0.93" xlink:href="#linear-gradient-3"/>
    <clipPath id="clip-path-23">
      <path id="Trazado_206619" data-name="Trazado 206619" d="M74.491,504.736a.427.427,0,0,0,.165.581,1.681,1.681,0,0,0,.438.153.658.658,0,0,0,.612-.184,5.9,5.9,0,0,0,.967-1.161l-1.336-.927Z" transform="translate(-74.438 -503.198)" fill="none"/>
    </clipPath>
    <linearGradient id="linear-gradient-9" x1="-6.397" y1="2.407" x2="-6.31" y2="2.407" xlink:href="#linear-gradient-5"/>
    <clipPath id="clip-path-24">
      <path id="Trazado_206620" data-name="Trazado 206620" d="M84.229,436.965l.185,1.142c.1.627.056,1.239-.521,1.5-2.016.926-3.435,3.068-4.406,4.554-1.121,1.716-3.807,8.778-3.807,8.778A3.707,3.707,0,0,0,77.35,454c2.263-1.315,4.75-5.894,6.135-8.226s5.4-2.934,7.238-3.854,1.2-5.416,1.2-5.416Z" transform="translate(-75.68 -436.504)" fill="none"/>
    </clipPath>
    <linearGradient id="linear-gradient-10" x1="-1.082" y1="1.285" x2="-1.068" y2="1.285" xlink:href="#linear-gradient-6"/>
    <clipPath id="clip-path-26">
      <path id="Trazado_206622" data-name="Trazado 206622" d="M45.6,405.166c-1.12.46-2.314,2.449-2.314,2.449a.738.738,0,0,0,.928.205c.5-.316,1.788-1.141,1.788-1.141a6.932,6.932,0,0,0-.432,1.1c0,.173.561.146.592-.323.015-.238.26-.413.5-.528a.481.481,0,0,1,.634.215,5.731,5.731,0,0,0,2.524,2.557,3.686,3.686,0,0,0,.543-2.166,6.725,6.725,0,0,1-2.689-1.909,2.273,2.273,0,0,0-1.423-.587,1.689,1.689,0,0,0-.647.129" transform="translate(-43.283 -405.037)" fill="none"/>
    </clipPath>
    <linearGradient id="linear-gradient-11" x1="-1.8" y1="3.989" x2="-1.76" y2="3.989" xlink:href="#linear-gradient-5"/>
    <clipPath id="clip-path-28">
      <path id="Trazado_206624" data-name="Trazado 206624" d="M97.813,361.139l.707,2.985a1.173,1.173,0,0,0,.8.851,2.173,2.173,0,0,0,2.5-.7.76.76,0,0,0,.078-.82l-2.209-3.352Z" transform="translate(-97.813 -360.107)" fill="none"/>
    </clipPath>
    <linearGradient id="linear-gradient-12" x1="-3.742" y1="7.777" x2="-3.702" y2="7.777" xlink:href="#linear-gradient-5"/>
    <clipPath id="clip-path-30">
      <path id="Trazado_206626" data-name="Trazado 206626" d="M119.059,414.414c-1.008,1.479-5.867.122-5.867.122-3.173-.332-3.643,3.417-3.643,3.417.571.307,1.025-.225,1.42-.758.32-.431.6-.862.872-.847a5.837,5.837,0,0,0,1.59-.32.853.853,0,0,1,.64.054c1.209.61,5.657,2.644,7.964.83a5.34,5.34,0,0,0-2.851-2.826.772.772,0,0,1-.125.329" transform="translate(-109.549 -414.085)" fill="none"/>
    </clipPath>
    <linearGradient id="linear-gradient-13" x1="-3.056" y1="2.422" x2="-3.029" y2="2.422" xlink:href="#linear-gradient-5"/>
    <clipPath id="clip-path-31">
      <path id="Trazado_206627" data-name="Trazado 206627" d="M84.683,349.542c0,.057,1,3.537,1.516,5.31a.942.942,0,0,0,1.27.607l.4-.167c.544-.228,1.5-.93,1.549-1.518l-.181-4.2a15.34,15.34,0,0,0-3.37-.592c-.66,0-1.159.142-1.183.564" transform="translate(-84.683 -348.978)" fill="none"/>
    </clipPath>
    <linearGradient id="linear-gradient-14" x1="-2.474" y1="5.41" x2="-2.443" y2="5.41" xlink:href="#linear-gradient-5"/>
    <clipPath id="clip-path-32">
      <path id="Trazado_206628" data-name="Trazado 206628" d="M82.886,341.731a.36.36,0,0,1-.452.094.284.284,0,0,0-.321.039.354.354,0,0,1-.512-.108,1.073,1.073,0,0,0-1.3-.51,1.713,1.713,0,0,0-.861,2.532c.405.792,1.735.36,2.38-.113a1.537,1.537,0,0,1,1.5.062.357.357,0,0,1,.191.243l.348,1.562c.387.038.767.108,1.148.182C85,345.6,85,345.5,85,345.427c.014-.518.617-.881.881-1.015a.353.353,0,0,0,.179-.214.931.931,0,0,0-.743-1.3.36.36,0,0,1-.268-.444.933.933,0,0,0-.634-1.24,1.376,1.376,0,0,0-.452-.08,1.392,1.392,0,0,0-1.08.594" transform="translate(-79.209 -341.137)" fill="none"/>
    </clipPath>
    <linearGradient id="linear-gradient-15" x1="-3.968" y1="6.281" x2="-3.92" y2="6.281" xlink:href="#linear-gradient-2"/>
    <clipPath id="clip-path-33">
      <path id="Trazado_206629" data-name="Trazado 206629" d="M102.819,354.521c-.5.4.144,1.813.144,1.813s.982.3,1.083-1.031c.054-.706-.279-1-.656-1a.933.933,0,0,0-.572.214" transform="translate(-102.628 -354.307)" fill="none"/>
    </clipPath>
    <linearGradient id="linear-gradient-16" x1="-8.32" y1="14.56" x2="-8.236" y2="14.56" xlink:href="#linear-gradient-5"/>
    <clipPath id="clip-path-34">
      <path id="Trazado_206630" data-name="Trazado 206630" d="M49.689,425.022a.508.508,0,0,0,.507.509l11.352.012h.026a.508.508,0,0,0-.025-1.015L50.2,424.514h-.009a.506.506,0,0,0-.5.508" transform="translate(-49.689 -424.514)" fill="none"/>
    </clipPath>
    <linearGradient id="linear-gradient-17" x1="-14.533" y1="2.508" x2="-14.334" y2="2.508" xlink:href="#linear-gradient-2"/>
    <clipPath id="clip-path-35">
      <path id="Trazado_206631" data-name="Trazado 206631" d="M7.134,386.068a.755.755,0,0,0-.7,1.032l3.389,8.576a1.1,1.1,0,0,0,1.019.692H22.588l-4.37-9.267a1.8,1.8,0,0,0-1.63-1.033Z" transform="translate(-6.378 -386.068)" fill="none"/>
    </clipPath>
    <linearGradient id="linear-gradient-18" x1="-0.408" y1="2.288" x2="-0.386" y2="2.288" xlink:href="#linear-gradient-2"/>
    <clipPath id="clip-path-37">
      <path id="Trazado_206664" data-name="Trazado 206664" d="M331.695,163.2c-1.429,1.743-12,20.261-12.023,20.268l-.536.988a11.67,11.67,0,0,0,5.765-3.278l-1.016-1.064a.584.584,0,0,1,.046-.851c2.545-2.144,9.966-8.018,9.394-11.971l5.776,3.364-3.467-7.5-2.952-.352a1.11,1.11,0,0,0-.989.4" transform="translate(-319.136 -162.79)" fill="none"/>
    </clipPath>
    <linearGradient id="linear-gradient-19" x1="-2.46" y1="3.167" x2="-2.452" y2="3.167" xlink:href="#linear-gradient-5"/>
    <clipPath id="clip-path-38">
      <path id="Trazado_206665" data-name="Trazado 206665" d="M317.895,239.851a.226.226,0,0,1-.313-.3l.078-.158a5.849,5.849,0,0,0-1.222,2.235.184.184,0,0,0,.23.216c1.625-.484,5.147-2.953,6.215-3.718a.66.66,0,0,0,.249-.761,1.5,1.5,0,0,0-.868-.787,17.4,17.4,0,0,1-4.369,3.271" transform="translate(-316.433 -236.58)" fill="none"/>
    </clipPath>
    <linearGradient id="linear-gradient-20" x1="-9.066" y1="9.563" x2="-9.037" y2="9.563" xlink:href="#linear-gradient-2"/>
    <clipPath id="clip-path-39">
      <path id="Trazado_206666" data-name="Trazado 206666" d="M345.962,171.72a1.108,1.108,0,0,0-.888.59,67.308,67.308,0,0,0-6.05,18.437c-.018.012-1.6,3.834-1.622,3.845l-.325,1.076a11.669,11.669,0,0,0,4.982-4.377l-1.21-.836a.585.585,0,0,1-.127-.843c2.058-2.614,8.136-9.869,6.777-13.625l6.338,2.126-4.914-6.644Z" transform="translate(-337.077 -171.467)" fill="none"/>
    </clipPath>
    <linearGradient id="linear-gradient-21" x1="-2.552" y1="3.249" x2="-2.543" y2="3.249" xlink:href="#linear-gradient-5"/>
    <clipPath id="clip-path-40">
      <path id="Trazado_206667" data-name="Trazado 206667" d="M336.518,255.852a.226.226,0,0,1-.366-.229l.044-.17a5.853,5.853,0,0,0-.745,2.437.184.184,0,0,0,.269.166c1.494-.8,4.443-3.934,5.334-4.9a.661.661,0,0,0,.089-.8,1.5,1.5,0,0,0-1.009-.6,17.405,17.405,0,0,1-3.617,4.087" transform="translate(-335.452 -251.765)" fill="none"/>
    </clipPath>
    <linearGradient id="linear-gradient-22" x1="-9.473" y1="7.977" x2="-9.444" y2="7.977" xlink:href="#linear-gradient-2"/>
    <clipPath id="clip-path-41">
      <path id="Trazado_206668" data-name="Trazado 206668" d="M378.655,170.179s4.114,2.5,12.458,1.811c2.8-.232,3.765-.861,3.545-2.678s-2.9-5.8-2.9-5.8-10.128-1-11.341-.527-5.15-.16-5.15-.16c4.768,1.979,4.012,5.622,3.387,7.357" transform="translate(-375.268 -162.822)" fill="none"/>
    </clipPath>
    <linearGradient id="linear-gradient-23" x1="-4.085" y1="4.776" x2="-4.074" y2="4.776" xlink:href="#linear-gradient-3"/>
    <clipPath id="clip-path-42">
      <path id="Trazado_206669" data-name="Trazado 206669" d="M380.928,72.363c.046.349,6.128,17.275,6.128,17.275l9.308,1.459a4.061,4.061,0,0,0,4.318-2.314,8.17,8.17,0,0,0-4.011-10.84l-1.374-.631a22.294,22.294,0,0,1-5.825-4.274,8.522,8.522,0,0,0-5.5-2.364Z" transform="translate(-380.928 -70.673)" fill="none"/>
    </clipPath>
    <linearGradient id="linear-gradient-24" x1="-2.947" y1="3.886" x2="-2.939" y2="3.886" xlink:href="#linear-gradient-2"/>
    <clipPath id="clip-path-44">
      <path id="Trazado_206672" data-name="Trazado 206672" d="M367.649,133.194c3.548,5.7,8.227,2.077,8.227,2.077l-1.238-2.87c-3.2,3.094-6.385-.716-6.385-.716Z" transform="translate(-367.649 -131.685)" fill="none"/>
    </clipPath>
    <linearGradient id="linear-gradient-25" x1="-8.952" y1="10.654" x2="-8.928" y2="10.654" xlink:href="#linear-gradient-5"/>
    <clipPath id="clip-path-46">
      <path id="Trazado_206674" data-name="Trazado 206674" d="M397.588,85.43c-.257.137-1.038,1.1-.977,1.381l1.406,2.921a.564.564,0,0,0,.074.193c.371.57,2.775.543,2.93-.411l-2.351-4.372c-.136-.044-.241-.083-.32-.118Zm.761-.405.173-.092c.15-.08-.024-.129-.184-.129-.183,0-.348.064.011.221" transform="translate(-396.607 -84.803)" fill="none"/>
    </clipPath>
    <linearGradient id="linear-gradient-26" x1="-15.908" y1="22.156" x2="-15.867" y2="22.156" xlink:href="#linear-gradient-5"/>
    <clipPath id="clip-path-47">
      <path id="Trazado_206675" data-name="Trazado 206675" d="M385.356,78.608a5.173,5.173,0,0,0,.9,3.355c1.161,1.878,2.317,1.793,2.9,1.124a4.127,4.127,0,0,0,.971-3.659c-.194-1.133-1.752-1.885-3.042-1.885-.843,0-1.57.321-1.728,1.065" transform="translate(-385.33 -77.543)" fill="none"/>
    </clipPath>
    <linearGradient id="linear-gradient-27" x1="-11.952" y1="13.644" x2="-11.921" y2="13.644" xlink:href="#linear-gradient-5"/>
    <clipPath id="clip-path-48">
      <path id="Trazado_206676" data-name="Trazado 206676" d="M378.732,72.655c-.2,1.73,1.673,1.818,1.673,1.818l-.024-.744c1.443-2.152,3.323.317,3.323.317l.159-.09s-.2-.805.355-.736,1.015,1.087,1.015,1.087,1.2.241.964-1.234-1.481-2.148-3.605-2.739a4,4,0,0,0-1.071-.154,2.706,2.706,0,0,0-2.789,2.474" transform="translate(-378.716 -70.181)" fill="none"/>
    </clipPath>
    <linearGradient id="linear-gradient-28" x1="-10.174" y1="13.559" x2="-10.147" y2="13.559" xlink:href="#linear-gradient-2"/>
    <clipPath id="clip-path-49">
      <path id="Trazado_206677" data-name="Trazado 206677" d="M399.636,79.505c-.886.262.088,1.526.088,1.526l.708.271c.053-.514.085-1.827-.6-1.827a.685.685,0,0,0-.194.03" transform="translate(-399.264 -79.475)" fill="none"/>
    </clipPath>
    <linearGradient id="linear-gradient-29" x1="-39.591" y1="44.694" x2="-39.491" y2="44.694" xlink:href="#linear-gradient-5"/>
    <clipPath id="clip-path-50">
      <path id="Trazado_206678" data-name="Trazado 206678" d="M380.933,132.1a2.051,2.051,0,0,0,.857.392c.546.056-.036.457.558,1.5a1.124,1.124,0,0,0,1.444.651s4.445,3.83,8.692,3.8c0,0,1.047-.344.538-2.354,0,0-6.709-.934-8.918-3a4.927,4.927,0,0,0-1.84-1.132c-.416-.066-.885-.11-1.229-.137h-.013a.155.155,0,0,0-.088.282" transform="translate(-380.867 -131.819)" fill="none"/>
    </clipPath>
    <linearGradient id="linear-gradient-30" x1="-7.22" y1="14.424" x2="-7.201" y2="14.424" xlink:href="#linear-gradient-5"/>
    <clipPath id="clip-path-51">
      <path id="Trazado_206680" data-name="Trazado 206680" d="M363.042,119.53l-2.319.306c-.211.035-.311.331-.192.569l2.063,4.117a.456.456,0,0,0,.462.283l1.862-.239c.465-.077.669-.745.382-1.249l-1.525-3.371a.765.765,0,0,0-.639-.424.554.554,0,0,0-.093.008" transform="translate(-360.48 -119.522)" fill="none"/>
    </clipPath>
    <linearGradient id="linear-gradient-31" x1="-9.512" y1="8.854" x2="-9.485" y2="8.854" xlink:href="#linear-gradient-2"/>
    <clipPath id="clip-path-53">
      <rect id="Rectángulo_45182" data-name="Rectángulo 45182" width="1.578" height="5.3" fill="none"/>
    </clipPath>
    <clipPath id="clip-path-54">
      <path id="Trazado_206683" data-name="Trazado 206683" d="M364.154,125.887a6.12,6.12,0,0,0-1.869.774c-.181.279,1.378,2.548,1.378,2.548,1.384-1.329.837-3.325.512-3.325a.073.073,0,0,0-.022,0" transform="translate(-362.27 -125.884)" fill="none"/>
    </clipPath>
    <linearGradient id="linear-gradient-32" x1="-23.426" y1="24.58" x2="-23.361" y2="24.58" xlink:href="#linear-gradient-5"/>
    <clipPath id="clip-path-55">
      <path id="Trazado_206684" data-name="Trazado 206684" d="M468.029,458.932c.626.125,4.192,2.246,4.192-.18v-2.71s-4.371,2.854-4.192,2.89" transform="translate(-468.024 -456.042)" fill="none"/>
    </clipPath>
    <linearGradient id="linear-gradient-33" x1="-20.157" y1="3.611" x2="-20.114" y2="3.611" xlink:href="#linear-gradient-5"/>
    <clipPath id="clip-path-56">
      <path id="Trazado_206685" data-name="Trazado 206685" d="M460.891,396.913a3.551,3.551,0,0,0,.457,1.759s-.906.721-.751,1.551.473.914.473.914a13.3,13.3,0,0,0,.131,1.8c.082,0-1.436,9.011.261,9.207s3.069,1.4,3.151-2.743a14.165,14.165,0,0,1-1.763-5.24c-.2-2.6.123-3.732-.171-4.486-.256-.657-1.374-2.918-1.7-2.918-.048,0-.079.049-.087.16" transform="translate(-460.579 -396.753)" fill="none"/>
    </clipPath>
    <linearGradient id="linear-gradient-34" x1="-5.996" y1="3.636" x2="-5.982" y2="3.636" xlink:href="#linear-gradient-5"/>
    <clipPath id="clip-path-57">
      <path id="Trazado_206686" data-name="Trazado 206686" d="M454.863,396.161c-.2.271.9,2.659.917,2.778.057.428.225.534.343.521a10.893,10.893,0,0,0-.557-3.008c-.158-.412-.287-.55-.4-.55s-.206.126-.3.258" transform="translate(-454.84 -395.902)" fill="none"/>
    </clipPath>
    <linearGradient id="linear-gradient-35" x1="-35.177" y1="8.339" x2="-35.099" y2="8.339" xlink:href="#linear-gradient-5"/>
    <clipPath id="clip-path-58">
      <path id="Trazado_206687" data-name="Trazado 206687" d="M400.771,513.794a5.561,5.561,0,0,0-2.25,1.318.309.309,0,0,0-.085.351.325.325,0,0,0,.309.2c1.441-.03,4.258-.115,4.258-.328a3.724,3.724,0,0,0-.3-.953,2.93,2.93,0,0,0-1.71-.6c-.072,0-.146,0-.22.01" transform="translate(-398.413 -513.784)" fill="none"/>
    </clipPath>
    <linearGradient id="linear-gradient-36" x1="-22.151" y1="1.101" x2="-22.095" y2="1.101" xlink:href="#linear-gradient-2"/>
    <clipPath id="clip-path-59">
      <path id="Trazado_206688" data-name="Trazado 206688" d="M409.817,510.4c-.049.587,1.445.465,1.445.465l.661-1.249-1.69-.514a4.229,4.229,0,0,0-.417,1.3" transform="translate(-409.816 -509.106)" fill="none"/>
    </clipPath>
    <linearGradient id="linear-gradient-37" x1="-36.087" y1="2.048" x2="-35.999" y2="2.048" xlink:href="#linear-gradient-5"/>
    <clipPath id="clip-path-61">
      <path id="Trazado_206690" data-name="Trazado 206690" d="M375.528,509.935l1.078,1.077,1.371-1.3-1.028-1.421Z" transform="translate(-375.528 -508.294)" fill="none"/>
    </clipPath>
    <linearGradient id="linear-gradient-38" x1="-27.04" y1="1.595" x2="-26.968" y2="1.595" xlink:href="#linear-gradient-5"/>
    <clipPath id="clip-path-62">
      <path id="Trazado_206691" data-name="Trazado 206691" d="M488.48,407.463l1.668,3.287a.684.684,0,0,0,.6.391,3.933,3.933,0,0,0,3.492-1.937.49.49,0,0,0-.049-.54l-2.684-3.451Z" transform="translate(-488.48 -405.212)" fill="none"/>
    </clipPath>
    <linearGradient id="linear-gradient-39" x1="-19.518" y1="5.042" x2="-19.478" y2="5.042" xlink:href="#linear-gradient-5"/>
    <clipPath id="clip-path-63">
      <path id="Trazado_206692" data-name="Trazado 206692" d="M473.846,384.177s-.684,3.939.387,5.566,4.173,1.668,6.044-.863l-.324-5.469Z" transform="translate(-473.63 -383.411)" fill="none"/>
    </clipPath>
    <linearGradient id="linear-gradient-40" x1="-10.465" y1="3.442" x2="-10.443" y2="3.442" xlink:href="#linear-gradient-5"/>
    <clipPath id="clip-path-64">
      <path id="Trazado_206693" data-name="Trazado 206693" d="M467.515,369.28a.2.2,0,0,1-.285.123c-2.968-1.617-2.794,1.979-1.8,3,1.015,1.05,3.453.628,5.081.331s1.33.152,1.33.152a5.116,5.116,0,0,1-.041,1.649.2.2,0,0,0,.194.228h.388a.2.2,0,0,1,.2.18l.185,2.193c.012.144.246.3.37.227,1.436-.843,2.116-2.991,2.275-3.471a.2.2,0,0,1,.134-.126c.385-.108,1.7-.569,1.262-1.734a1.176,1.176,0,0,0-1.3-.893.2.2,0,0,1-.208-.263c.16-.428.209-1.183-.761-2.048a2.26,2.26,0,0,0-2.911-.061.2.2,0,0,1-.292-.089,1.854,1.854,0,0,0-1.884-1.126h-.014a2.022,2.022,0,0,0-1.915,1.725" transform="translate(-464.778 -367.555)" fill="none"/>
    </clipPath>
    <linearGradient id="linear-gradient-41" x1="-7.479" y1="2.623" x2="-7.463" y2="2.623" xlink:href="#linear-gradient-2"/>
    <clipPath id="clip-path-65">
      <path id="Trazado_206694" data-name="Trazado 206694" d="M493.287,394.653l-.137,1.069c.95,0,2.364-1.129,1.825-2.027a.429.429,0,0,0-.372-.245c-.572,0-1.316,1.2-1.316,1.2" transform="translate(-493.15 -393.45)" fill="none"/>
    </clipPath>
    <linearGradient id="linear-gradient-42" x1="-36.235" y1="10.173" x2="-36.162" y2="10.173" xlink:href="#linear-gradient-5"/>
    <clipPath id="clip-path-66">
      <path id="Trazado_206695" data-name="Trazado 206695" d="M445.649,428.476c3.342,1.209,9.713-2.726,9.713-2.726l-2.751-3.134s-5.231,2.2-6.211,1.077-.441-7.443-.441-7.443l-2.2-.589s-2.71,11.15,1.894,12.815" transform="translate(-442.963 -415.661)" fill="none"/>
    </clipPath>
    <linearGradient id="linear-gradient-43" x1="-6.398" y1="1.78" x2="-6.384" y2="1.78" xlink:href="#linear-gradient-5"/>
    <clipPath id="clip-path-68">
      <path id="Trazado_206698" data-name="Trazado 206698" d="M360.73,514.733a4.2,4.2,0,0,0-2.792.61.378.378,0,0,0,.188.7c1.3.021,3.427.043,4.506-.021,1.616-.1,1.861-.05,1.158-1.026a9.781,9.781,0,0,1-1.746-.616Z" transform="translate(-357.754 -514.382)" fill="none"/>
    </clipPath>
    <linearGradient id="linear-gradient-44" x1="-12.355" y1="1.315" x2="-12.321" y2="1.315" xlink:href="#linear-gradient-2"/>
    <clipPath id="clip-path-69">
      <path id="Trazado_206699" data-name="Trazado 206699" d="M496.035,438.748a7.19,7.19,0,0,1-3.636,4.321,12.713,12.713,0,0,1-2.9,1.205.058.058,0,0,0,.013.114l.014,0a12.83,12.83,0,0,0,2.925-1.216,7.3,7.3,0,0,0,3.694-4.4.058.058,0,0,0-.043-.07l-.013,0a.058.058,0,0,0-.056.044" transform="translate(-489.457 -438.704)" fill="none"/>
    </clipPath>
    <linearGradient id="linear-gradient-45" x1="-16.253" y1="3.513" x2="-16.22" y2="3.513" xlink:href="#linear-gradient-6"/>
    <clipPath id="clip-path-70">
      <path id="Trazado_206700" data-name="Trazado 206700" d="M444.159,390.531l-2.553.487a.35.35,0,0,0-.261.471l2.371,6.075a.35.35,0,0,0,.427.208l2.134-.641a.107.107,0,0,0,.072-.134l-1.964-6.331a.2.2,0,0,0-.189-.139.2.2,0,0,0-.037,0" transform="translate(-441.322 -390.527)" fill="none"/>
    </clipPath>
    <linearGradient id="linear-gradient-46" x1="-11.809" y1="4.199" x2="-11.782" y2="4.199" xlink:href="#linear-gradient-2"/>
    <clipPath id="clip-path-72">
      <path id="Trazado_206703" data-name="Trazado 206703" d="M448.745,391.826l-.557.117c-.038.008-.065.03-.061.05l0,.019c0,.02.038.03.076.021l.557-.117c.038-.008.065-.03.061-.05l0-.019c0-.015-.024-.024-.05-.024a.121.121,0,0,0-.026,0" transform="translate(-448.126 -391.823)" fill="none"/>
    </clipPath>
    <linearGradient id="linear-gradient-47" x1="-97.396" y1="56.211" x2="-97.178" y2="56.211" gradientUnits="objectBoundingBox">
      <stop offset="0" stop-color="#8d55d1"/>
      <stop offset="0.996" stop-color="#1c2873"/>
      <stop offset="1" stop-color="#1c2873"/>
    </linearGradient>
    <clipPath id="clip-path-73">
      <path id="Trazado_206704" data-name="Trazado 206704" d="M443.341,399.764c-.367.685.575,2.473.608,2.754,0,0-.192,1.348.763,1.213s.5-1.1.422-1.781a6.814,6.814,0,0,0-.85-1.892c-.159-.343.282-1.494-.073-1.824a.178.178,0,0,0-.119-.057c-.274,0-.427.984-.751,1.588" transform="translate(-443.257 -398.176)" fill="none"/>
    </clipPath>
    <linearGradient id="linear-gradient-48" x1="-30.23" y1="5.292" x2="-30.161" y2="5.292" xlink:href="#linear-gradient-5"/>
    <clipPath id="clip-path-74">
      <path id="Trazado_206705" data-name="Trazado 206705" d="M487.716,422.2a.058.058,0,0,0,.015.08.056.056,0,0,0,.033.01.058.058,0,0,0,.048-.025c.026-.038,2.609-3.775,3.994-3.187a.058.058,0,1,0,.045-.107.918.918,0,0,0-.361-.071c-1.493,0-3.675,3.154-3.774,3.3" transform="translate(-487.706 -418.901)" fill="none"/>
    </clipPath>
    <linearGradient id="linear-gradient-49" x1="-25.75" y1="6.495" x2="-25.697" y2="6.495" xlink:href="#linear-gradient-6"/>
    <clipPath id="clip-path-75">
      <path id="Trazado_206706" data-name="Trazado 206706" d="M463.194,407.418h0Zm-.113-1.281c-.036.007-.083.035-.1.125a2.674,2.674,0,0,0,.2,1.14c-.006.02-.022.062-.037.1a1.656,1.656,0,0,0,.044,1.628.058.058,0,0,0,.094-.068,1.554,1.554,0,0,1-.031-1.518c.044-.11.059-.147.038-.183a2.6,2.6,0,0,1-.2-1.08.222.222,0,0,1,.008-.03h0a2.672,2.672,0,0,1,.693.859.058.058,0,0,0,.1-.061c-.173-.279-.59-.914-.8-.914l-.018,0" transform="translate(-462.95 -406.135)" fill="none"/>
    </clipPath>
    <linearGradient id="linear-gradient-50" x1="-95.476" y1="9.877" x2="-95.27" y2="9.877" xlink:href="#linear-gradient-5"/>
  </defs>
  <g id="Grupo_146527" data-name="Grupo 146527" transform="translate(-16017 -1431.422)">
    <g id="Elipse_4811" data-name="Elipse 4811" transform="translate(9452.266 -2547.991)">
      <circle id="Elipse_4814" data-name="Elipse 4814" cx="74" cy="74" r="74" transform="translate(6564.735 3979.413)" fill="#4dcedf"/>
      <circle id="Elipse_4815" data-name="Elipse 4815" cx="73.5" cy="73.5" r="73.5" transform="translate(6565.235 3979.913)" fill="#4dcedf"/>
    </g>
    <g id="Grupo_144617" data-name="Grupo 144617" transform="translate(16026.637 1441.508)">
      <g id="Grupo_144616" data-name="Grupo 144616" clip-path="url(#clip-path)">
        <g id="Grupo_144455" data-name="Grupo 144455" transform="translate(0 0)">
          <g id="Grupo_144454" data-name="Grupo 144454" clip-path="url(#clip-path-2)">
            <rect id="Rectángulo_45131" data-name="Rectángulo 45131" width="190.645" height="190.367" transform="matrix(0.729, -0.685, 0.685, 0.729, -70.799, 61.703)" fill="url(#linear-gradient)"/>
          </g>
        </g>
        <g id="Grupo_144484" data-name="Grupo 144484">
          <g id="Grupo_144483" data-name="Grupo 144483" clip-path="url(#clip-path)">
            <path id="Trazado_206593" data-name="Trazado 206593" d="M93.3,76.2c-.989,22.534-21.509,39.937-45.833,38.869S4.223,94.87,5.212,72.335,26.722,32.4,51.046,33.466,94.286,53.668,93.3,76.2" transform="translate(-3.926 -25.354)" fill="#91b3fa"/>
            <g id="Grupo_144458" data-name="Grupo 144458" transform="translate(8.35 13.289)" opacity="0.19">
              <g id="Grupo_144457" data-name="Grupo 144457">
                <g id="Grupo_144456" data-name="Grupo 144456" clip-path="url(#clip-path-4)">
                  <path id="Trazado_206594" data-name="Trazado 206594" d="M103.782,87.742c0,18.048-15.488,32.679-34.593,32.679S34.6,105.79,34.6,87.742,50.084,55.063,69.19,55.063s34.593,14.631,34.593,32.679" transform="translate(-34.597 -55.063)" fill="#fff"/>
                </g>
              </g>
            </g>
            <g id="Grupo_144482" data-name="Grupo 144482" transform="translate(5.228 9.124)" opacity="0.68">
              <g id="Grupo_144481" data-name="Grupo 144481">
                <g id="Grupo_144480" data-name="Grupo 144480" clip-path="url(#clip-path-5)">
                  <g id="Grupo_144461" data-name="Grupo 144461" transform="translate(28.769 0.222)" style="mix-blend-mode: soft-light;isolation: isolate">
                    <g id="Grupo_144460" data-name="Grupo 144460">
                      <g id="Grupo_144459" data-name="Grupo 144459" clip-path="url(#clip-path-6)">
                        <path id="Trazado_206595" data-name="Trazado 206595" d="M163.484,78.493s0,.675-.014,1.942-.058,3.125-.181,5.487-.333,5.228-.739,8.5a88.906,88.906,0,0,1-1.985,10.887,48.382,48.382,0,0,1-1.924,6.036,25.634,25.634,0,0,1-1.434,3.026,12.109,12.109,0,0,1-2.069,2.783,5.467,5.467,0,0,1-1.47,1.032,3.45,3.45,0,0,1-1.808.314,3.886,3.886,0,0,1-1.736-.648,6.885,6.885,0,0,1-1.384-1.235,15.039,15.039,0,0,1-2.024-3.126,31.079,31.079,0,0,1-1.471-3.484,58.62,58.62,0,0,1-2.056-7.447c-.543-2.553-.969-5.162-1.305-7.8a134.278,134.278,0,0,1-1.02-16.095c0-2.7.087-5.406.233-8.094s.371-5.362.676-8.005.693-5.256,1.194-7.817a60.017,60.017,0,0,1,1.918-7.478,31.011,31.011,0,0,1,1.4-3.507,14.731,14.731,0,0,1,1.96-3.15,6.592,6.592,0,0,1,1.36-1.238,3.732,3.732,0,0,1,1.708-.633,3.651,3.651,0,0,1,.455-.011,3.809,3.809,0,0,1,.455.051,3.768,3.768,0,0,1,.862.269,5.6,5.6,0,0,1,1.468,1,12.218,12.218,0,0,1,2.126,2.716,25.275,25.275,0,0,1,1.509,2.981,46.823,46.823,0,0,1,2.064,5.983,83.6,83.6,0,0,1,2.175,10.847c.224,1.632.4,3.165.531,4.584s.226,2.726.3,3.907c.141,2.362.188,4.22.21,5.487s.019,1.943.019,1.943m-.586,0s.005-.673-.01-1.934-.055-3.112-.184-5.464c-.065-1.176-.154-2.476-.278-3.89s-.276-2.941-.483-4.568-.464-3.353-.8-5.163-.732-3.7-1.248-5.653a46.545,46.545,0,0,0-1.978-5.965,25.006,25.006,0,0,0-1.458-2.967,11.985,11.985,0,0,0-2.053-2.69,5.406,5.406,0,0,0-1.4-.978,3.177,3.177,0,0,0-1.678-.3,3.542,3.542,0,0,0-1.615.622,6.38,6.38,0,0,0-1.3,1.215,14.505,14.505,0,0,0-1.89,3.121,30.78,30.78,0,0,0-1.344,3.491,59.736,59.736,0,0,0-1.817,7.456c-.468,2.554-.822,5.161-1.095,7.8a151.356,151.356,0,0,0-.73,16.044,133.581,133.581,0,0,0,.879,16.03c.313,2.63.715,5.229,1.233,7.772a58.144,58.144,0,0,0,1.978,7.408,30.7,30.7,0,0,0,1.423,3.452A14.712,14.712,0,0,0,149,116.392a6.554,6.554,0,0,0,1.306,1.187,3.568,3.568,0,0,0,1.588.611,3.074,3.074,0,0,0,1.641-.3,5.143,5.143,0,0,0,1.372-.983,11.766,11.766,0,0,0,1.982-2.719,25.284,25.284,0,0,0,1.386-2.993,47.958,47.958,0,0,0,1.854-6c.48-1.958.85-3.857,1.156-5.67s.542-3.543.732-5.172.331-3.157.443-4.572.2-2.716.256-3.892c.119-2.352.157-4.2.173-5.465s.012-1.935.012-1.935" transform="translate(-140.864 -38.727)" fill="#fff"/>
                      </g>
                    </g>
                  </g>
                  <g id="Grupo_144464" data-name="Grupo 144464" transform="translate(8.268)" style="mix-blend-mode: soft-light;isolation: isolate">
                    <g id="Grupo_144463" data-name="Grupo 144463">
                      <g id="Grupo_144462" data-name="Grupo 144462" clip-path="url(#clip-path-7)">
                        <path id="Trazado_206596" data-name="Trazado 206596" d="M117.215,77.8s0,.216-.013.635q-.007.314-.016.779c-.007.309-.009.666-.039,1.076s-.051.865-.081,1.367-.1,1.045-.152,1.634-.146,1.219-.236,1.891-.22,1.382-.35,2.132c-.034.187-.064.378-.1.569l-.126.58-.262,1.2-.322,1.251-.167.646-.2.653a44.091,44.091,0,0,1-2.054,5.573,42.114,42.114,0,0,1-3.216,5.937,36.766,36.766,0,0,1-4.693,5.825,30.326,30.326,0,0,1-6.433,4.959c-.3.188-.619.338-.933.5l-.474.245-.238.123c-.08.04-.163.073-.244.111l-.985.437c-.083.036-.164.075-.249.108l-.254.095-.51.19c-.675.273-1.386.457-2.09.677-.358.089-.72.169-1.081.255-.181.04-.361.09-.545.121l-.553.091-.555.092c-.185.031-.37.064-.559.077l-1.129.111c-.188.024-.378.024-.569.031l-.571.018-.573.018c-.2,0-.383-.01-.577-.014-.382-.015-.763-.016-1.148-.042l-1.161-.113-.291-.029-.288-.047-.578-.1-.579-.1c-.193-.034-.383-.086-.575-.128a23.487,23.487,0,0,1-4.523-1.476l-.551-.244-.276-.122-.268-.138-1.077-.555c-.7-.411-1.408-.808-2.077-1.278-.339-.227-.684-.448-1.007-.7s-.661-.488-.984-.742l-.95-.792L69.5,111l-.228-.21-.456-.422-.457-.423c-.15-.144-.292-.3-.438-.443-.289-.3-.588-.591-.87-.9l-.833-.938c-.142-.154-.274-.317-.4-.481l-.4-.49-.4-.491c-.13-.165-.251-.338-.376-.507-.248-.341-.5-.678-.746-1.023-.467-.7-.951-1.4-1.378-2.137-.454-.719-.848-1.475-1.261-2.223-.2-.378-.381-.765-.572-1.147l-.284-.576-.261-.587c-.172-.393-.352-.783-.519-1.179l-.475-1.2c-.165-.4-.3-.806-.445-1.213l-.214-.611c-.071-.2-.145-.407-.2-.614-.252-.826-.514-1.651-.719-2.493l-.164-.629-.082-.314-.07-.317-.279-1.271-.07-.318-.058-.32-.115-.641-.115-.642c-.04-.214-.077-.428-.1-.643-.115-.862-.249-1.722-.319-2.59-.191-1.731-.243-3.475-.27-5.216l.027-1.3.014-.649c0-.216.023-.436.035-.653l.078-1.309c.028-.436.081-.867.12-1.3.071-.868.2-1.728.321-2.59.027-.216.064-.43.1-.643l.115-.641.115-.641.058-.32.07-.318.28-1.271.07-.317.082-.314.164-.628c.206-.841.468-1.666.721-2.492.06-.207.134-.41.205-.614l.214-.61c.143-.406.28-.815.446-1.213l.476-1.2c.167-.4.347-.785.519-1.178L60.414,57l.285-.576c.192-.382.376-.768.573-1.146.413-.747.808-1.5,1.262-2.221.427-.735.911-1.431,1.379-2.135.243-.345.5-.682.746-1.022.126-.169.246-.341.377-.506l.4-.49.4-.49c.131-.164.263-.327.4-.481L67.065,47c.281-.308.581-.6.869-.9.146-.148.288-.3.438-.443l.457-.422.456-.421.228-.21.237-.2.95-.791c.324-.254.657-.494.984-.74s.667-.473,1.006-.7c.668-.469,1.379-.864,2.076-1.274l1.076-.553.268-.138.276-.121.551-.243a23.927,23.927,0,0,1,4.516-1.473,22.692,22.692,0,0,1,4.614-.553c.193,0,.379-.015.578-.014l.569.018.567.018c.189.007.377.007.566.032l1.13.112c.188.014.373.046.558.078l.554.092.552.092c.183.032.363.082.544.122.361.086.722.167,1.079.256.7.219,1.412.405,2.087.676l.51.189.254.094c.084.033.166.072.248.107l.985.435c.081.037.164.07.244.11l.237.122.474.244c.314.165.634.315.932.5a30.19,30.19,0,0,1,6.431,4.948,36.765,36.765,0,0,1,4.694,5.817,42.126,42.126,0,0,1,3.219,5.931,44.1,44.1,0,0,1,2.058,5.57l.2.653.168.646.323,1.25.263,1.2.127.58c.039.191.07.382.1.569.131.75.271,1.458.352,2.131s.189,1.3.237,1.891.121,1.133.153,1.633.057.955.082,1.362.033.768.04,1.079.013.573.017.783c.009.422.014.639.014.639Zm-.671-.007-.011-.631c0-.208-.008-.467-.013-.774s-.006-.663-.035-1.065-.047-.852-.074-1.346-.092-1.032-.143-1.614-.139-1.2-.225-1.868-.211-1.365-.337-2.107c-.033-.185-.062-.373-.1-.563l-.122-.574-.254-1.191-.313-1.237-.162-.639-.191-.645a44.132,44.132,0,0,0-1.97-5.525,41.607,41.607,0,0,0-3.112-5.9,36.317,36.317,0,0,0-4.576-5.805A29.215,29.215,0,0,0,98.6,41.352c-.294-.187-.61-.337-.919-.5l-.467-.244-.234-.123c-.079-.04-.16-.073-.241-.11l-.972-.437c-.082-.036-.162-.075-.245-.108l-.251-.095-.5-.19c-.665-.274-1.368-.456-2.063-.675-.354-.089-.711-.169-1.068-.254-.179-.04-.357-.09-.538-.121l-.546-.092L90,38.308c-.183-.031-.366-.064-.551-.078l-1.112-.112c-.185-.024-.375-.025-.563-.032l-.567-.019-.569-.019c-.181,0-.376.011-.564.016a22.44,22.44,0,0,0-4.563.563,22.735,22.735,0,0,0-4.457,1.482l-.542.244-.272.122-.264.139-1.06.556c-.685.411-1.385.807-2.041,1.277-.333.227-.67.45-.986.7s-.646.49-.962.745L70,44.689l-.232.2-.222.211-.445.423-.446.423c-.146.144-.284.3-.427.443-.281.3-.573.59-.846.9l-.81.937c-.138.154-.266.316-.393.48l-.384.489-.384.489c-.127.165-.243.337-.365.505-.24.34-.487.675-.723,1.019-.452.7-.92,1.394-1.332,2.126-.439.715-.817,1.466-1.215,2.208-.19.376-.366.759-.55,1.139l-.273.571-.25.583c-.165.39-.337.776-.5,1.169l-.453,1.189c-.158.394-.287.8-.423,1.2l-.2.6c-.068.2-.138.4-.194.608-.236.818-.493,1.631-.687,2.463l-.157.621L58.009,66l-.067.313-.265,1.255-.066.314-.055.316-.108.633-.108.633c-.038.211-.072.422-.1.635-.111.85-.241,1.7-.307,2.554-.037.427-.088.854-.114,1.281l-.072,1.281c-.01.214-.028.426-.032.642L56.7,76.5l-.023,1.29a53.439,53.439,0,0,0,1,10.226l.266,1.254.067.313.079.311.157.62c.2.832.452,1.645.689,2.462.056.205.127.406.195.607l.2.6c.136.4.265.807.424,1.2l.454,1.188c.16.392.332.779.5,1.168l.25.582.274.571c.184.379.361.762.551,1.138.4.741.778,1.492,1.217,2.206.412.731.881,1.422,1.333,2.123.236.344.483.679.723,1.018.122.168.239.34.365.5l.384.489.384.488c.127.164.255.326.393.479l.81.935c.274.307.565.6.846.9.143.147.281.3.427.443l.446.422.445.422.222.21.232.2.928.793c.316.254.642.5.962.743s.652.476.985.7c.656.468,1.356.862,2.041,1.272l1.059.553.264.138.272.122.542.243a23.146,23.146,0,0,0,4.45,1.479c.189.043.376.095.566.13l.571.1.569.1.284.049.285.029,1.136.117c.38.028.765.031,1.145.048.188.005.386.018.565.017l.565-.02.564-.02c.187-.007.375-.008.561-.033l1.113-.113c.185-.014.368-.047.551-.078l.547-.092.545-.092c.181-.032.358-.082.537-.122.356-.086.713-.166,1.066-.255.694-.219,1.394-.4,2.059-.675l.5-.189.251-.094c.083-.033.163-.072.245-.107l.971-.434c.08-.037.162-.07.241-.11l.234-.122.467-.244c.309-.165.625-.314.919-.5a29.08,29.08,0,0,0,6.31-4.948,36.3,36.3,0,0,0,4.577-5.8,41.578,41.578,0,0,0,3.116-5.894,44.158,44.158,0,0,0,1.974-5.522l.191-.645.163-.638.313-1.236.254-1.191.123-.574c.038-.189.067-.377.1-.563.126-.741.261-1.441.338-2.106s.182-1.285.226-1.868.115-1.12.144-1.613.053-.941.075-1.342.03-.759.035-1.068.01-.569.014-.779c.007-.419.011-.635.011-.635Z" transform="translate(-55.918 -37.806)" fill="#fff"/>
                      </g>
                    </g>
                  </g>
                  <g id="Grupo_144467" data-name="Grupo 144467" transform="translate(3.193 23.987)" style="mix-blend-mode: soft-light;isolation: isolate">
                    <g id="Grupo_144466" data-name="Grupo 144466">
                      <g id="Grupo_144465" data-name="Grupo 144465" clip-path="url(#clip-path-8)">
                        <path id="Trazado_206597" data-name="Trazado 206597" d="M34.936,137.359l3.158-.033,8.327-.061,11.772-.051,13.5-.02,13.495.024,6.209.025,5.563.03c3.446.015,6.317.052,8.327.066l3.158.035a.03.03,0,0,1,0,.059l-3.158.035c-2.01.014-4.881.05-8.327.066l-5.563.031-6.209.024-13.495.024-13.5-.02-11.772-.051-8.327-.062-3.158-.033a.044.044,0,0,1,0-.088" transform="translate(-34.892 -137.194)" fill="#fff"/>
                      </g>
                    </g>
                  </g>
                  <g id="Grupo_144470" data-name="Grupo 144470" transform="translate(13.853 8.597)" style="mix-blend-mode: soft-light;isolation: isolate">
                    <g id="Grupo_144469" data-name="Grupo 144469">
                      <g id="Grupo_144468" data-name="Grupo 144468" clip-path="url(#clip-path-9)">
                        <path id="Trazado_206598" data-name="Trazado 206598" d="M79.1,73.594l2.242-.033,5.912-.061,3.95-.027c1.4-.008,2.879-.024,4.408-.024l9.581-.02,9.581.024c1.529,0,3.007.013,4.408.025l3.95.03c2.446.015,4.485.052,5.912.066l2.243.035a.03.03,0,0,1,0,.059l-2.243.035c-1.427.014-3.465.05-5.912.066l-3.95.031c-1.4.012-2.879.023-4.408.024l-9.581.024-9.581-.02c-1.529,0-3.007-.016-4.408-.024l-3.95-.027-5.912-.062L79.1,73.682a.044.044,0,0,1,0-.088" transform="translate(-79.06 -73.429)" fill="#fff"/>
                      </g>
                    </g>
                  </g>
                  <g id="Grupo_144473" data-name="Grupo 144473" transform="translate(0 39.376)" style="mix-blend-mode: soft-light;isolation: isolate">
                    <g id="Grupo_144472" data-name="Grupo 144472">
                      <g id="Grupo_144471" data-name="Grupo 144471" clip-path="url(#clip-path-10)">
                        <path id="Trazado_206599" data-name="Trazado 206599" d="M21.706,201.125l3.433-.033,9.05-.061,12.8-.051,14.668-.02,14.667.024,6.749.025,6.046.03,9.05.066,3.433.035a.03.03,0,0,1,0,.059l-3.433.035-9.05.066-6.046.031-6.749.024-14.667.024-14.668-.02-12.8-.051-9.05-.062-3.433-.033a.044.044,0,0,1,0-.088" transform="translate(-21.662 -200.96)" fill="#fff"/>
                      </g>
                    </g>
                  </g>
                  <g id="Grupo_144476" data-name="Grupo 144476" transform="translate(3.193 54.765)" style="mix-blend-mode: soft-light;isolation: isolate">
                    <g id="Grupo_144475" data-name="Grupo 144475">
                      <g id="Grupo_144474" data-name="Grupo 144474" clip-path="url(#clip-path-8)">
                        <path id="Trazado_206600" data-name="Trazado 206600" d="M34.936,264.89l3.158-.033,8.327-.061,11.772-.051,13.5-.02,13.495.024,6.209.025,5.563.03c3.446.015,6.317.052,8.327.066l3.158.035a.03.03,0,0,1,0,.059l-3.158.035c-2.01.014-4.881.05-8.327.066l-5.563.031-6.209.024-13.495.024-13.5-.02-11.772-.051-8.327-.062-3.158-.033a.044.044,0,0,1,0-.088" transform="translate(-34.892 -264.725)" fill="#fff"/>
                      </g>
                    </g>
                  </g>
                  <g id="Grupo_144479" data-name="Grupo 144479" transform="translate(15.056 70.209)" style="mix-blend-mode: soft-light;isolation: isolate">
                    <g id="Grupo_144478" data-name="Grupo 144478" transform="translate(0)">
                      <g id="Grupo_144477" data-name="Grupo 144477" clip-path="url(#clip-path-12)">
                        <path id="Trazado_206601" data-name="Trazado 206601" d="M136.387,329.026H84.2a.155.155,0,1,1,0-.309h52.187a.155.155,0,1,1,0,.309" transform="translate(-84.046 -328.717)" fill="#fff"/>
                      </g>
                    </g>
                  </g>
                </g>
              </g>
            </g>
          </g>
        </g>
        <g id="Grupo_144486" data-name="Grupo 144486" transform="translate(11.659 45.915)">
          <g id="Grupo_144485" data-name="Grupo 144485" clip-path="url(#clip-path-13)">
            <rect id="Rectángulo_45142" data-name="Rectángulo 45142" width="117.006" height="74.146" transform="translate(0 0)" fill="url(#linear-gradient-2)"/>
          </g>
        </g>
        <g id="Grupo_144488" data-name="Grupo 144488" transform="translate(14.899 48.139)">
          <g id="Grupo_144487" data-name="Grupo 144487" clip-path="url(#clip-path-14)">
            <rect id="Rectángulo_45143" data-name="Rectángulo 45143" width="75.614" height="115.341" transform="matrix(0.103, -0.995, 0.995, 0.103, -6.631, 64.014)" fill="url(#linear-gradient-3)"/>
          </g>
        </g>
        <g id="Grupo_144496" data-name="Grupo 144496">
          <g id="Grupo_144495" data-name="Grupo 144495" clip-path="url(#clip-path)">
            <g id="Grupo_144491" data-name="Grupo 144491" transform="translate(18.59 50.358)" opacity="0.12">
              <g id="Grupo_144490" data-name="Grupo 144490">
                <g id="Grupo_144489" data-name="Grupo 144489" clip-path="url(#clip-path-16)">
                  <path id="Trazado_206604" data-name="Trazado 206604" d="M77.026,212.173v49.253a4.423,4.423,0,0,0,4.2,4.556l94.045,1.242a4.293,4.293,0,0,0,4.211-4.418l.157-48.813a3.151,3.151,0,0,0-2.961-3.255L80.394,208.66a3.4,3.4,0,0,0-3.368,3.513" transform="translate(-77.026 -208.659)" fill="#fff"/>
                </g>
              </g>
            </g>
            <g id="Grupo_144494" data-name="Grupo 144494" transform="translate(14.76 112.66)" opacity="0.65">
              <g id="Grupo_144493" data-name="Grupo 144493">
                <g id="Grupo_144492" data-name="Grupo 144492" clip-path="url(#clip-path-17)">
                  <path id="Trazado_206605" data-name="Trazado 206605" d="M171.133,469.158h0L61.294,467.084a.139.139,0,0,1-.136-.142.142.142,0,0,1,.142-.136l109.836,2.074a.139.139,0,0,1,0,.278" transform="translate(-61.158 -466.806)" fill="#fff"/>
                </g>
              </g>
            </g>
            <path id="Trazado_206606" data-name="Trazado 206606" d="M124.315,301.941a6.594,6.594,0,0,1-6.432-6.048l-.61-7.622a6.453,6.453,0,0,1,1.639-4.887,5.9,5.9,0,0,1,4.373-1.917l59.506-.109a5.792,5.792,0,0,1,4.6,2.1,6.158,6.158,0,0,1,1.17,5.16l-1.629,7.994a7.693,7.693,0,0,1-7.367,5.925l-55.247-.593" transform="translate(-88.954 -213.455)" fill="#bdd0fb"/>
            <path id="Trazado_206607" data-name="Trazado 206607" d="M187.657,287.77l-59.506.109a4.587,4.587,0,0,0-4.473,5.132l.61,7.622a5.068,5.068,0,0,0,4.906,4.624l55.172.593a6.114,6.114,0,0,0,5.908-4.687l1.629-7.994a4.283,4.283,0,0,0-4.246-5.4" transform="translate(-93.817 -218.319)" fill="#91b3fa"/>
            <path id="Trazado_206608" data-name="Trazado 206608" d="M157.874,305.471l-2.746,8.39h-.011a1.164,1.164,0,0,1-.811.789H154.3c-.011,0-.032.011-.043.011h-.022c-.011,0-.022.011-.032.011h-.259c-.011,0-.022-.011-.033-.011h-.022c-.011,0-.032-.011-.043-.011h-.011a1.2,1.2,0,0,1-.822-.789l-1.73-5.287-1.73,5.287a1.163,1.163,0,0,1-.811.789h-.011c-.021,0-.032.011-.043.011h-.021c-.011,0-.022.011-.033.011h-.259c-.011,0-.022-.011-.033-.011h-.021c-.022,0-.032-.011-.043-.011h-.011a1.178,1.178,0,0,1-.822-.789l-2.746-8.39v-.022a1.284,1.284,0,0,1-.065-.4,1.182,1.182,0,0,1,.746-1.124.909.909,0,0,1,.335-.054,1.131,1.131,0,0,1,1.06.833c.011.022.951,2.887,1.73,5.266.778-2.379,1.719-5.244,1.719-5.266a1.207,1.207,0,0,1,.67-.757l.011-.011c.011,0,.022-.011.033-.011h.011c.011,0,.011-.011.021-.011h.022a.04.04,0,0,1,.032-.011l.011-.011c.022,0,.032,0,.043-.011h.011c.021,0,.032,0,.043-.011h.065c.022,0,.032,0,.043-.011h.1a.04.04,0,0,0,.033.011h.065a.094.094,0,0,0,.054.011.084.084,0,0,0,.043.011c.011,0,.011,0,.011.011.021,0,.032,0,.043.011h.021a.038.038,0,0,0,.022.011h.011c.011,0,.021.011.032.011l.011.011a1.207,1.207,0,0,1,.67.757c0,.022.941,2.887,1.719,5.266.779-2.379,1.719-5.244,1.719-5.266a1.153,1.153,0,0,1,1.071-.833.908.908,0,0,1,.335.054,1.182,1.182,0,0,1,.746,1.124,1.291,1.291,0,0,1-.065.4Z" transform="translate(-109.724 -230.526)" fill="#fff"/>
            <path id="Trazado_206609" data-name="Trazado 206609" d="M215.268,305.471l-2.746,8.39h-.011a1.164,1.164,0,0,1-.811.789h-.011c-.011,0-.032.011-.043.011h-.021c-.011,0-.022.011-.032.011h-.259c-.011,0-.022-.011-.033-.011h-.022c-.011,0-.032-.011-.043-.011h-.011a1.2,1.2,0,0,1-.822-.789l-1.73-5.287-1.73,5.287a1.163,1.163,0,0,1-.811.789h-.011c-.021,0-.032.011-.043.011h-.021c-.011,0-.022.011-.033.011h-.259c-.011,0-.022-.011-.033-.011h-.021c-.022,0-.032-.011-.043-.011h-.011a1.178,1.178,0,0,1-.822-.789l-2.746-8.39v-.022a1.284,1.284,0,0,1-.065-.4,1.182,1.182,0,0,1,.746-1.124.909.909,0,0,1,.335-.054,1.13,1.13,0,0,1,1.059.833c.011.022.952,2.887,1.73,5.266.778-2.379,1.719-5.244,1.719-5.266a1.207,1.207,0,0,1,.67-.757l.011-.011c.011,0,.022-.011.033-.011h.011c.011,0,.011-.011.021-.011h.022a.04.04,0,0,1,.032-.011l.011-.011c.022,0,.032,0,.043-.011h.011c.021,0,.032,0,.043-.011h.065c.022,0,.032,0,.043-.011h.1a.04.04,0,0,0,.033.011h.065a.1.1,0,0,0,.054.011.084.084,0,0,0,.043.011c.011,0,.011,0,.011.011.021,0,.032,0,.043.011H209a.038.038,0,0,0,.022.011h.011c.011,0,.021.011.032.011l.011.011a1.207,1.207,0,0,1,.67.757c0,.022.941,2.887,1.719,5.266.779-2.379,1.719-5.244,1.719-5.266a1.153,1.153,0,0,1,1.071-.833.91.91,0,0,1,.335.054,1.182,1.182,0,0,1,.746,1.124,1.291,1.291,0,0,1-.065.4Z" transform="translate(-153.266 -230.526)" fill="#fff"/>
            <path id="Trazado_206610" data-name="Trazado 206610" d="M272.662,305.471l-2.746,8.39h-.011a1.164,1.164,0,0,1-.811.789h-.011c-.011,0-.032.011-.043.011h-.021c-.011,0-.022.011-.032.011h-.26c-.011,0-.021-.011-.032-.011h-.022c-.011,0-.032-.011-.043-.011h-.011a1.2,1.2,0,0,1-.822-.789l-1.73-5.287-1.73,5.287a1.163,1.163,0,0,1-.811.789h-.011c-.021,0-.032.011-.043.011h-.021c-.011,0-.022.011-.033.011h-.259c-.011,0-.022-.011-.033-.011H263.1c-.022,0-.032-.011-.043-.011h-.011a1.178,1.178,0,0,1-.822-.789l-2.746-8.39v-.022a1.283,1.283,0,0,1-.065-.4,1.182,1.182,0,0,1,.746-1.124.909.909,0,0,1,.335-.054,1.13,1.13,0,0,1,1.059.833c.011.022.952,2.887,1.73,5.266.778-2.379,1.719-5.244,1.719-5.266a1.207,1.207,0,0,1,.67-.757l.011-.011c.011,0,.022-.011.033-.011h.011c.011,0,.011-.011.021-.011h.022a.04.04,0,0,1,.032-.011l.011-.011c.022,0,.032,0,.043-.011h.011c.021,0,.032,0,.043-.011h.065c.021,0,.032,0,.043-.011h.1a.04.04,0,0,0,.033.011h.065a.094.094,0,0,0,.054.011.084.084,0,0,0,.043.011c.011,0,.011,0,.011.011.021,0,.032,0,.043.011h.021a.038.038,0,0,0,.022.011h.011c.011,0,.021.011.032.011l.011.011a1.207,1.207,0,0,1,.67.757c0,.022.94,2.887,1.719,5.266.779-2.379,1.719-5.244,1.719-5.266a1.153,1.153,0,0,1,1.071-.833.908.908,0,0,1,.335.054,1.182,1.182,0,0,1,.746,1.124,1.291,1.291,0,0,1-.065.4Z" transform="translate(-196.809 -230.526)" fill="#fff"/>
            <path id="Trazado_206611" data-name="Trazado 206611" d="M323.563,307.513a.464.464,0,1,1-.928,0V294.668a.464.464,0,1,1,.928,0Z" transform="translate(-244.769 -223.2)" fill="#fff"/>
            <path id="Trazado_206612" data-name="Trazado 206612" d="M368.761,322.59l-6.925-8.448a.251.251,0,0,1,.135-.4l6.117-1.468a.636.636,0,0,0,.191-1.156l-17.452-11.03a.636.636,0,0,0-.967.641l3.628,21.91a.636.636,0,0,0,1.173.222l3.386-5.683a.251.251,0,0,1,.413-.026l6.449,8.272a1.14,1.14,0,0,0,1.54.242l2.07-1.408a1.14,1.14,0,0,0,.241-1.666" transform="translate(-265.418 -227.588)" fill="#fff"/>
            <rect id="Rectángulo_45146" data-name="Rectángulo 45146" width="1.221" height="13.208" transform="translate(27.933 111.992)" fill="#7d97f4"/>
            <path id="Trazado_206613" data-name="Trazado 206613" d="M106.8,517.322h-10.7v-.414a.381.381,0,0,1,.382-.381h9.9a.411.411,0,0,1,.411.411Z" transform="translate(-72.912 -391.867)" fill="#7d97f4"/>
            <rect id="Rectángulo_45147" data-name="Rectángulo 45147" width="14.294" height="4.054" rx="2.027" transform="translate(21.621 108.847)" fill="#7d97f4"/>
          </g>
        </g>
        <g id="Grupo_144498" data-name="Grupo 144498" transform="translate(13.985 120.878)">
          <g id="Grupo_144497" data-name="Grupo 144497" clip-path="url(#clip-path-18)">
            <rect id="Rectángulo_45149" data-name="Rectángulo 45149" width="6.691" height="5.467" transform="translate(-1.387 0.404) rotate(-19.047)" fill="url(#linear-gradient-4)"/>
          </g>
        </g>
        <g id="Grupo_144500" data-name="Grupo 144500" transform="translate(16.985 119.245)">
          <g id="Grupo_144499" data-name="Grupo 144499" clip-path="url(#clip-path-19)">
            <rect id="Rectángulo_45150" data-name="Rectángulo 45150" width="2.78" height="2.407" transform="translate(-0.511 2.307) rotate(-77.52)" fill="url(#linear-gradient-5)"/>
          </g>
        </g>
        <g id="Grupo_144502" data-name="Grupo 144502" transform="translate(14.873 105.937)">
          <g id="Grupo_144501" data-name="Grupo 144501" clip-path="url(#clip-path-20)">
            <rect id="Rectángulo_45151" data-name="Rectángulo 45151" width="15.236" height="14.216" transform="translate(-2.054 0)" fill="url(#linear-gradient-6)"/>
          </g>
        </g>
        <g id="Grupo_144504" data-name="Grupo 144504" transform="translate(13.326 122.706)">
          <g id="Grupo_144503" data-name="Grupo 144503" clip-path="url(#clip-path-21)">
            <rect id="Rectángulo_45152" data-name="Rectángulo 45152" width="3.562" height="6.389" transform="translate(-0.329 2.842) rotate(-83.4)" fill="url(#linear-gradient-7)"/>
          </g>
        </g>
        <g id="Grupo_144506" data-name="Grupo 144506" transform="translate(12.972 124.02)">
          <g id="Grupo_144505" data-name="Grupo 144505" clip-path="url(#clip-path-22)">
            <rect id="Rectángulo_45153" data-name="Rectángulo 45153" width="3.244" height="6.61" transform="translate(-0.564 1.828) rotate(-77.52)" fill="url(#linear-gradient-8)"/>
          </g>
        </g>
        <g id="Grupo_144508" data-name="Grupo 144508" transform="translate(17.965 121.443)">
          <g id="Grupo_144507" data-name="Grupo 144507" clip-path="url(#clip-path-23)">
            <rect id="Rectángulo_45154" data-name="Rectángulo 45154" width="2.762" height="2.743" transform="translate(-0.55 2.213) rotate(-77.52)" fill="url(#linear-gradient-9)"/>
          </g>
        </g>
        <g id="Grupo_144510" data-name="Grupo 144510" transform="translate(18.265 105.347)">
          <g id="Grupo_144509" data-name="Grupo 144509" clip-path="url(#clip-path-24)">
            <rect id="Rectángulo_45155" data-name="Rectángulo 45155" width="16.876" height="17.496" transform="translate(0 0)" fill="url(#linear-gradient-10)"/>
          </g>
        </g>
        <g id="Grupo_144512" data-name="Grupo 144512">
          <g id="Grupo_144511" data-name="Grupo 144511" clip-path="url(#clip-path)">
            <path id="Trazado_206621" data-name="Trazado 206621" d="M70.884,394.4c2.57.733,3.72-6.5,3.71-6.674l3.94,4.607s-2.348,4.131-5.893,4.571a4.182,4.182,0,0,1-2.3-.337,3.683,3.683,0,0,0,.543-2.166" transform="translate(-53.365 -294.15)" fill="#feca2e"/>
          </g>
        </g>
        <g id="Grupo_144514" data-name="Grupo 144514" transform="translate(10.446 97.753)">
          <g id="Grupo_144513" data-name="Grupo 144513" clip-path="url(#clip-path-26)">
            <rect id="Rectángulo_45157" data-name="Rectángulo 45157" width="6.088" height="7.949" transform="matrix(0.216, -0.976, 0.976, 0.216, -0.984, 4.444)" fill="url(#linear-gradient-11)"/>
          </g>
        </g>
        <g id="Grupo_144516" data-name="Grupo 144516">
          <g id="Grupo_144515" data-name="Grupo 144515" clip-path="url(#clip-path)">
            <path id="Trazado_206623" data-name="Trazado 206623" d="M100.032,373.353s-3.453-2.356-11.793,1.9a2.714,2.714,0,0,0-.457,2.316c.4,1.227,5.354,7.87,5.547,10.989a8.867,8.867,0,0,0,7.779.017s1.474-8.234-1.076-15.227" transform="translate(-66.515 -282.754)" fill="#feca2e"/>
          </g>
        </g>
        <g id="Grupo_144518" data-name="Grupo 144518" transform="translate(23.606 86.909)">
          <g id="Grupo_144517" data-name="Grupo 144517" clip-path="url(#clip-path-28)">
            <rect id="Rectángulo_45159" data-name="Rectángulo 45159" width="6.062" height="5.26" transform="translate(-1.113 5.029) rotate(-77.52)" fill="url(#linear-gradient-12)"/>
          </g>
        </g>
        <g id="Grupo_144520" data-name="Grupo 144520">
          <g id="Grupo_144519" data-name="Grupo 144519" clip-path="url(#clip-path)">
            <path id="Trazado_206625" data-name="Trazado 206625" d="M136.706,384.732c.234-1.625-4.062-4.776-4.062-4.776l1.5-4.562s8.2,5.849,6.473,10.626a3.34,3.34,0,0,1-1.065,1.537,5.339,5.339,0,0,0-2.85-2.826" transform="translate(-100.631 -284.795)" fill="#feca2e"/>
          </g>
        </g>
        <g id="Grupo_144522" data-name="Grupo 144522" transform="translate(26.439 99.937)">
          <g id="Grupo_144521" data-name="Grupo 144521" clip-path="url(#clip-path-30)">
            <rect id="Rectángulo_45161" data-name="Rectángulo 45161" width="9.192" height="13.304" transform="translate(-1.683 3.918) rotate(-66.755)" fill="url(#linear-gradient-13)"/>
          </g>
        </g>
        <g id="Grupo_144524" data-name="Grupo 144524" transform="translate(20.438 84.223)">
          <g id="Grupo_144523" data-name="Grupo 144523" clip-path="url(#clip-path-31)">
            <rect id="Rectángulo_45162" data-name="Rectángulo 45162" width="7.667" height="8.202" transform="matrix(0.83, -0.557, 0.557, 0.83, -3.104, 2.082)" fill="url(#linear-gradient-14)"/>
          </g>
        </g>
        <g id="Grupo_144526" data-name="Grupo 144526" transform="translate(19.117 82.331)">
          <g id="Grupo_144525" data-name="Grupo 144525" clip-path="url(#clip-path-32)">
            <rect id="Rectángulo_45163" data-name="Rectángulo 45163" width="5.05" height="7.481" transform="matrix(0.056, -0.998, 0.998, 0.056, -0.43, 4.564)" fill="url(#linear-gradient-15)"/>
          </g>
        </g>
        <g id="Grupo_144528" data-name="Grupo 144528" transform="translate(24.769 85.51)">
          <g id="Grupo_144527" data-name="Grupo 144527" clip-path="url(#clip-path-33)">
            <rect id="Rectángulo_45164" data-name="Rectángulo 45164" width="2.874" height="2.927" transform="matrix(0.754, -0.657, 0.657, 0.754, -1.464, 1.004)" fill="url(#linear-gradient-16)"/>
          </g>
        </g>
        <g id="Grupo_144530" data-name="Grupo 144530" transform="translate(11.992 102.453)">
          <g id="Grupo_144529" data-name="Grupo 144529" clip-path="url(#clip-path-34)">
            <rect id="Rectángulo_45165" data-name="Rectángulo 45165" width="1.209" height="12.382" transform="matrix(0.015, -1, 1, 0.015, -0.015, 1.028)" fill="url(#linear-gradient-17)"/>
          </g>
        </g>
        <g id="Grupo_144532" data-name="Grupo 144532" transform="translate(1.539 93.175)">
          <g id="Grupo_144531" data-name="Grupo 144531" clip-path="url(#clip-path-35)">
            <rect id="Rectángulo_45166" data-name="Rectángulo 45166" width="10.538" height="16.5" transform="matrix(0.015, -1, 1, 0.015, -0.293, 10.298)" fill="url(#linear-gradient-18)"/>
          </g>
        </g>
        <g id="Grupo_144534" data-name="Grupo 144534">
          <g id="Grupo_144533" data-name="Grupo 144533" clip-path="url(#clip-path)">
            <path id="Trazado_206632" data-name="Trazado 206632" d="M14.36,455.973a.49.49,0,0,1-.188-.038.457.457,0,0,1-.25-.607l10-22.516a.483.483,0,0,1,.627-.242.457.457,0,0,1,.25.607l-10,22.516a.478.478,0,0,1-.439.279" transform="translate(-10.532 -328.144)" fill="#91b3fa"/>
            <path id="Trazado_206633" data-name="Trazado 206633" d="M29.609,455.973a.478.478,0,0,1-.439-.279l-10-22.516a.457.457,0,0,1,.25-.607.483.483,0,0,1,.627.242l10,22.516a.457.457,0,0,1-.25.607.488.488,0,0,1-.188.038" transform="translate(-14.511 -328.144)" fill="#91b3fa"/>
            <path id="Trazado_206634" data-name="Trazado 206634" d="M142.675,455.973a.489.489,0,0,1-.188-.038.457.457,0,0,1-.25-.607l10-22.516a.483.483,0,0,1,.627-.242.457.457,0,0,1,.25.607l-10,22.516a.478.478,0,0,1-.439.279" transform="translate(-107.879 -328.144)" fill="#91b3fa"/>
            <path id="Trazado_206635" data-name="Trazado 206635" d="M157.924,455.973a.478.478,0,0,1-.439-.279l-10-22.516a.457.457,0,0,1,.25-.607.483.483,0,0,1,.627.242l10,22.516a.457.457,0,0,1-.25.607.488.488,0,0,1-.188.038" transform="translate(-111.858 -328.144)" fill="#91b3fa"/>
            <path id="Trazado_206636" data-name="Trazado 206636" d="M49.649,428.926a.548.548,0,0,0-.095-.416.433.433,0,0,0-.347-.183H3.694a.507.507,0,0,0-.436.268.64.64,0,0,0-.034.556l.493,1.2a.69.69,0,0,0,.627.449h44.55a.542.542,0,0,0,.513-.474Z" transform="translate(-2.41 -324.953)" fill="#91b3fa"/>
            <path id="Trazado_206637" data-name="Trazado 206637" d="M428.419,16.151l-10.159-.529a1.38,1.38,0,0,0-1.468,1.44l.263,9.343a1.371,1.371,0,0,0,1.466,1.308l9.647-.477a1.327,1.327,0,0,0,1.213-1.3l.235-8.369a1.336,1.336,0,0,0-1.2-1.417" transform="translate(-316.201 -11.851)" fill="#bdd0fb"/>
            <path id="Trazado_206638" data-name="Trazado 206638" d="M430.626,32.336a3.826,3.826,0,1,1,3.827-3.826,3.831,3.831,0,0,1-3.827,3.826m0-7.012a3.185,3.185,0,1,0,3.185,3.185,3.189,3.189,0,0,0-3.185-3.185" transform="translate(-323.795 -18.726)" fill="#fff"/>
            <path id="Trazado_206639" data-name="Trazado 206639" d="M437.688,36.8V34.051a.379.379,0,0,1,.573-.326l2.318,1.375a.379.379,0,0,1,0,.652l-2.318,1.375a.379.379,0,0,1-.573-.326" transform="translate(-332.055 -25.545)" fill="#fff" fill-rule="evenodd"/>
            <path id="Trazado_206640" data-name="Trazado 206640" d="M22.12,323.643l-8.5-.442a1.154,1.154,0,0,0-1.228,1.2l.22,7.816a1.147,1.147,0,0,0,1.227,1.094l8.071-.4a1.11,1.11,0,0,0,1.015-1.087l.2-7a1.117,1.117,0,0,0-1-1.186" transform="translate(-9.401 -245.197)" fill="#91b3fa"/>
            <path id="Trazado_206641" data-name="Trazado 206641" d="M21.8,337.291H17.264a.387.387,0,0,1-.371-.278l-1.285-4.4-1.3-.227a.387.387,0,1,1,.133-.762l1.541.268a.386.386,0,0,1,.3.272l1.271,4.351h3.921l.581-3.132a.387.387,0,1,1,.761.141l-.64,3.449a.387.387,0,0,1-.38.316" transform="translate(-10.609 -251.585)" fill="#fff"/>
            <path id="Trazado_206642" data-name="Trazado 206642" d="M28.011,337.939H21.976a.387.387,0,1,1,0-.774h6.035a.387.387,0,0,1,0,.774" transform="translate(-16.379 -255.793)" fill="#fff"/>
            <path id="Trazado_206643" data-name="Trazado 206643" d="M30.632,341.2a.387.387,0,0,1-.387-.387v-2.94a.387.387,0,0,1,.774,0v2.94a.387.387,0,0,1-.387.387" transform="translate(-22.946 -256.036)" fill="#fff"/>
            <path id="Trazado_206644" data-name="Trazado 206644" d="M39.609,341.2a.387.387,0,0,1-.387-.387v-2.94a.387.387,0,0,1,.774,0v2.94a.387.387,0,0,1-.387.387" transform="translate(-29.756 -256.036)" fill="#fff"/>
            <path id="Trazado_206645" data-name="Trazado 206645" d="M29.647,344.351H24.54a.387.387,0,1,1,0-.774h5.107a.387.387,0,1,1,0,.774" transform="translate(-18.324 -260.657)" fill="#fff"/>
            <path id="Trazado_206646" data-name="Trazado 206646" d="M29.476,356.63a.536.536,0,1,1-.536-.536.536.536,0,0,1,.536.536" transform="translate(-21.549 -270.153)" fill="#fff"/>
            <path id="Trazado_206647" data-name="Trazado 206647" d="M43.008,356.63a.536.536,0,1,1-.536-.536.536.536,0,0,1,.536.536" transform="translate(-31.815 -270.153)" fill="#fff"/>
            <path id="Trazado_206648" data-name="Trazado 206648" d="M475.118,312.666l-8.559-.445a1.163,1.163,0,0,0-1.237,1.213l.221,7.871a1.155,1.155,0,0,0,1.235,1.1l8.127-.4a1.118,1.118,0,0,0,1.022-1.094l.2-7.051a1.125,1.125,0,0,0-1.008-1.194" transform="translate(-353.02 -236.867)" fill="#91b3fa"/>
            <path id="Trazado_206649" data-name="Trazado 206649" d="M478.353,326.043h-6.026a.934.934,0,0,1-.933-.933v-4.323a.934.934,0,0,1,.933-.933h6.026a.934.934,0,0,1,.933.933v4.323a.934.934,0,0,1-.933.933m-6.026-5.416a.16.16,0,0,0-.16.16v4.323a.16.16,0,0,0,.16.16h6.026a.16.16,0,0,0,.16-.16v-4.323a.16.16,0,0,0-.16-.16Z" transform="translate(-357.626 -242.659)" fill="#fff"/>
            <path id="Trazado_206650" data-name="Trazado 206650" d="M475.731,324.49a.384.384,0,0,1-.224-.071l-3.36-2.383a.387.387,0,0,1,.448-.631l3.136,2.224,3.094-2.2a.387.387,0,1,1,.448.631l-3.318,2.357a.386.386,0,0,1-.224.071" transform="translate(-358.074 -243.782)" fill="#fff"/>
            <path id="Trazado_206651" data-name="Trazado 206651" d="M472.623,331.851l-.115-.765.054.383-.326-.208c.069-.112,1.276-2.224,2.071-3.616a.387.387,0,1,1,.672.383l-1.038,1.816-.715,1.249c-.418.728-.418.728-.6.758" transform="translate(-358.266 -248.421)" fill="#fff"/>
            <path id="Trazado_206652" data-name="Trazado 206652" d="M493.525,331.85c-.184-.031-.184-.031-.6-.757l-.716-1.249-1.038-1.816a.387.387,0,1,1,.672-.383c.795,1.392,2,3.5,2.071,3.616l-.326.208Z" transform="translate(-372.592 -248.421)" fill="#fff"/>
            <path id="Trazado_206653" data-name="Trazado 206653" d="M482.035,64.162l-8.559-.445a1.163,1.163,0,0,0-1.237,1.213l.221,7.871a1.155,1.155,0,0,0,1.235,1.1l8.127-.4a1.118,1.118,0,0,0,1.022-1.094l.2-7.051a1.125,1.125,0,0,0-1.008-1.194" transform="translate(-358.267 -48.338)" fill="#91b3fa"/>
            <path id="Trazado_206654" data-name="Trazado 206654" d="M487.4,71.639a.219.219,0,0,0-.291.207v3.927a1.852,1.852,0,0,0-1.174-.4,1.344,1.344,0,1,0,1.638,1.311c0-.006,0-.012,0-.019h0v-3.9a2.045,2.045,0,0,1,1.348.994.194.194,0,0,0,.358-.117c-.064-1.217-1.3-1.8-1.879-2" transform="translate(-367.418 -54.34)" fill="#fff"/>
            <path id="Trazado_206655" data-name="Trazado 206655" d="M74.881,165.874a1.856,1.856,0,1,1-.543-2.568,1.859,1.859,0,0,1,.543,2.568m-2.494-1.623a1.12,1.12,0,1,0,1.549-.328,1.121,1.121,0,0,0-1.549.328" transform="translate(-54.221 -123.666)" fill="#fff"/>
            <path id="Trazado_206656" data-name="Trazado 206656" d="M61.441,152.618a3.965,3.965,0,0,1,5.479-1.159,3.816,3.816,0,0,1,.324.236.27.27,0,0,0,.418-.094l.242-.53a.272.272,0,0,0-.084-.329q-.144-.109-.3-.21a5.071,5.071,0,0,0-7.008,1.483,5,5,0,0,0-.307.545.271.271,0,0,0,.135.368l.522.226a.268.268,0,0,0,.348-.129,3.761,3.761,0,0,1,.23-.407" transform="translate(-45.656 -113.582)" fill="#fff"/>
            <path id="Trazado_206657" data-name="Trazado 206657" d="M50.8,142.089a6.822,6.822,0,0,1,9.429-2l0,0a.268.268,0,0,0,.391-.111l.237-.52-.1-.343a7.929,7.929,0,0,0-10.887,2.364,7.834,7.834,0,0,0-.541.979.268.268,0,0,0,.139.357l.52.225a.268.268,0,0,0,.349-.13,6.754,6.754,0,0,1,.459-.828" transform="translate(-37.411 -104.61)" fill="#fff"/>
            <path id="Trazado_206658" data-name="Trazado 206658" d="M40.175,131.568A9.68,9.68,0,0,1,53.2,128.521a.27.27,0,0,0,.385-.117l.236-.516a.27.27,0,0,0-.107-.345,10.758,10.758,0,0,0-15.235,4.825.27.27,0,0,0,.14.357l.52.225a.27.27,0,0,0,.352-.138,9.606,9.606,0,0,1,.683-1.243" transform="translate(-29.176 -95.646)" fill="#fff"/>
            <path id="Trazado_206659" data-name="Trazado 206659" d="M444.849,262.74l-8.641-.45a1.174,1.174,0,0,0-1.249,1.225l.223,7.946a1.166,1.166,0,0,0,1.247,1.113l8.205-.405a1.129,1.129,0,0,0,1.032-1.105l.2-7.118a1.136,1.136,0,0,0-1.018-1.206" transform="translate(-329.985 -198.987)" fill="#91b3fa"/>
            <path id="Trazado_206660" data-name="Trazado 206660" d="M448.009,267.916H441.9c-.566,0-1.284.411-1.284,1v3.4c0,.56.724,1.024,1.284,1.024h4.2c.145,0,.24.269.24.413v.5c0,.207.2.283.3.317a.4.4,0,0,0,.23.085.29.29,0,0,0,.22-.1l.914-1.067c.571-.012.813-.615.813-1.175v-3.4c0-.556-.253-1-.809-1m.19,4.393c0,.263.022.559-.19.559h-.228l-1.129,1.073V273.2c0-.145.138-.335-.007-.335H441.9c-.26,0-.82-.3-.82-.559v-3.258c0-.38.557-.361.82-.361h6.109c.258,0,.19-.037.19.221Z" transform="translate(-334.276 -203.256)" fill="#fff"/>
            <path id="Trazado_206661" data-name="Trazado 206661" d="M450.985,274.483a.155.155,0,0,1-.155.155h-5.571a.155.155,0,1,1,0-.309h5.571a.155.155,0,0,1,.155.155" transform="translate(-337.681 -208.121)" fill="#fff"/>
            <path id="Trazado_206662" data-name="Trazado 206662" d="M450.985,278.33a.155.155,0,0,1-.155.155h-5.571a.155.155,0,1,1,0-.309h5.571a.155.155,0,0,1,.155.155" transform="translate(-337.681 -211.039)" fill="#fff"/>
            <path id="Trazado_206663" data-name="Trazado 206663" d="M450.985,284.1a.155.155,0,0,1-.155.155h-5.571a.155.155,0,1,1,0-.309h5.571a.155.155,0,0,1,.155.155" transform="translate(-337.681 -215.418)" fill="#fff"/>
          </g>
        </g>
        <g id="Grupo_144536" data-name="Grupo 144536" transform="translate(77.021 39.288)">
          <g id="Grupo_144535" data-name="Grupo 144535" clip-path="url(#clip-path-37)">
            <rect id="Rectángulo_45168" data-name="Rectángulo 45168" width="29.39" height="29.129" transform="translate(-10.574 13.175) rotate(-51.251)" fill="url(#linear-gradient-19)"/>
          </g>
        </g>
        <g id="Grupo_144538" data-name="Grupo 144538" transform="translate(76.369 57.097)">
          <g id="Grupo_144537" data-name="Grupo 144537" clip-path="url(#clip-path-38)">
            <rect id="Rectángulo_45169" data-name="Rectángulo 45169" width="8.338" height="7.512" transform="matrix(0.924, -0.382, 0.382, 0.924, -1.899, 0.774)" fill="url(#linear-gradient-20)"/>
          </g>
        </g>
        <g id="Grupo_144540" data-name="Grupo 144540" transform="translate(81.351 41.382)">
          <g id="Grupo_144539" data-name="Grupo 144539" clip-path="url(#clip-path-39)">
            <rect id="Rectángulo_45170" data-name="Rectángulo 45170" width="29.405" height="27.047" transform="matrix(0.531, -0.848, 0.848, 0.531, -10.884, 17.386)" fill="url(#linear-gradient-21)"/>
          </g>
        </g>
        <g id="Grupo_144542" data-name="Grupo 144542" transform="translate(80.959 60.762)">
          <g id="Grupo_144541" data-name="Grupo 144541" clip-path="url(#clip-path-40)">
            <rect id="Rectángulo_45171" data-name="Rectángulo 45171" width="8.411" height="8.545" transform="translate(-2.954 2.001) rotate(-34.128)" fill="url(#linear-gradient-22)"/>
          </g>
        </g>
        <g id="Grupo_144544" data-name="Grupo 144544" transform="translate(90.568 39.296)">
          <g id="Grupo_144543" data-name="Grupo 144543" clip-path="url(#clip-path-41)">
            <rect id="Rectángulo_45172" data-name="Rectángulo 45172" width="21.894" height="19.586" transform="matrix(0.819, -0.574, 0.574, 0.819, -4.781, 3.042)" fill="url(#linear-gradient-23)"/>
          </g>
        </g>
        <g id="Grupo_144546" data-name="Grupo 144546" transform="translate(91.934 17.056)">
          <g id="Grupo_144545" data-name="Grupo 144545" clip-path="url(#clip-path-42)">
            <rect id="Rectángulo_45173" data-name="Rectángulo 45173" width="29.812" height="29.655" transform="matrix(0.786, -0.619, 0.619, 0.786, -10.063, 7.923)" fill="url(#linear-gradient-24)"/>
          </g>
        </g>
        <g id="Grupo_144548" data-name="Grupo 144548">
          <g id="Grupo_144547" data-name="Grupo 144547" clip-path="url(#clip-path)">
            <path id="Trazado_206670" data-name="Trazado 206670" d="M420.45,94.055a.052.052,0,0,1-.041-.02.052.052,0,0,1,.008-.073,3.1,3.1,0,0,0,.8-2.814,7,7,0,0,0-1.341-3.233,14.323,14.323,0,0,0-5.152-3.689l-.394-.2c-1.949-1.008-4.119-2.257-5.21-4.338a.052.052,0,1,1,.091-.048c1.077,2.055,3.232,3.294,5.166,4.294l.394.2a14.4,14.4,0,0,1,5.187,3.719,7.1,7.1,0,0,1,1.361,3.281,3.2,3.2,0,0,1-.837,2.909.051.051,0,0,1-.032.011" transform="translate(-310.377 -60.397)" fill="#91b3fa"/>
            <path id="Trazado_206671" data-name="Trazado 206671" d="M424.966,102.745h0a.052.052,0,0,1-.048-.055,6.26,6.26,0,0,0-.521-3.161,8.187,8.187,0,0,0-3.716-3.284c-.267-.142-.538-.28-.809-.418a13.577,13.577,0,0,1-3.5-2.264.052.052,0,0,1,.073-.074,13.489,13.489,0,0,0,3.47,2.245c.271.139.543.277.81.418a8.283,8.283,0,0,1,3.761,3.331,6.364,6.364,0,0,1,.531,3.213.052.052,0,0,1-.052.048" transform="translate(-315.872 -70.915)" fill="#91b3fa"/>
          </g>
        </g>
        <g id="Grupo_144550" data-name="Grupo 144550" transform="translate(88.729 31.781)">
          <g id="Grupo_144549" data-name="Grupo 144549" clip-path="url(#clip-path-44)">
            <rect id="Rectángulo_45175" data-name="Rectángulo 45175" width="9.822" height="9.105" transform="translate(-1.816 0.491) rotate(-15.124)" fill="url(#linear-gradient-25)"/>
          </g>
        </g>
        <g id="Grupo_144552" data-name="Grupo 144552">
          <g id="Grupo_144551" data-name="Grupo 144551" clip-path="url(#clip-path)">
            <path id="Trazado_206673" data-name="Trazado 206673" d="M396.177,118.077a61.153,61.153,0,0,1-4.655-4.938,4.174,4.174,0,0,1-.707-3.757,51.831,51.831,0,0,1,2.061-5.189c.174-.584,3.672-.559,3.672-.559s3.294.512,3.32,6.092a7.29,7.29,0,0,0,1.068,3.765c.795,1.3,1.568,3.254,2.487,5.114Z" transform="translate(-296.362 -78.621)" fill="#feca2e"/>
          </g>
        </g>
        <g id="Grupo_144554" data-name="Grupo 144554" transform="translate(95.718 20.467)">
          <g id="Grupo_144553" data-name="Grupo 144553" clip-path="url(#clip-path-46)">
            <rect id="Rectángulo_45177" data-name="Rectángulo 45177" width="5.966" height="4.826" transform="translate(-0.421 5.668) rotate(-86.328)" fill="url(#linear-gradient-26)"/>
          </g>
        </g>
        <g id="Grupo_144556" data-name="Grupo 144556" transform="translate(92.997 18.714)">
          <g id="Grupo_144555" data-name="Grupo 144555" clip-path="url(#clip-path-47)">
            <rect id="Rectángulo_45178" data-name="Rectángulo 45178" width="7.664" height="8.062" transform="matrix(0.886, -0.463, 0.463, 0.886, -2.824, 1.351)" fill="url(#linear-gradient-27)"/>
          </g>
        </g>
        <g id="Grupo_144558" data-name="Grupo 144558" transform="translate(91.4 16.938)">
          <g id="Grupo_144557" data-name="Grupo 144557" clip-path="url(#clip-path-48)">
            <rect id="Rectángulo_45179" data-name="Rectángulo 45179" width="8.916" height="8.324" transform="matrix(0.786, -0.619, 0.619, 0.786, -2.311, 1.671)" fill="url(#linear-gradient-28)"/>
          </g>
        </g>
        <g id="Grupo_144560" data-name="Grupo 144560" transform="translate(96.359 19.181)">
          <g id="Grupo_144559" data-name="Grupo 144559" clip-path="url(#clip-path-49)">
            <rect id="Rectángulo_45180" data-name="Rectángulo 45180" width="2.413" height="2.438" transform="translate(-1.264 0.392) rotate(-27.588)" fill="url(#linear-gradient-29)"/>
          </g>
        </g>
        <g id="Grupo_144562" data-name="Grupo 144562" transform="translate(91.92 31.814)">
          <g id="Grupo_144561" data-name="Grupo 144561" clip-path="url(#clip-path-50)">
            <rect id="Rectángulo_45181" data-name="Rectángulo 45181" width="12.724" height="6.657" transform="translate(-0.059 0)" fill="url(#linear-gradient-30)"/>
          </g>
        </g>
        <g id="Grupo_144564" data-name="Grupo 144564" transform="translate(86.999 28.846)">
          <g id="Grupo_144563" data-name="Grupo 144563" clip-path="url(#clip-path-51)">
            <path id="Trazado_206679" data-name="Trazado 206679" d="M361.335,111.382l-3.477,6.786-5.465-4.746,3.477-6.786Z" transform="translate(-354.345 -109.746)" fill="url(#linear-gradient-31)"/>
          </g>
        </g>
        <g id="Grupo_144569" data-name="Grupo 144569">
          <g id="Grupo_144568" data-name="Grupo 144568" clip-path="url(#clip-path)">
            <path id="Trazado_206681" data-name="Trazado 206681" d="M419.984,109.074s6.319,9.359.968,11.507l-.968-2.611s.64-1.446-1.245-5.074a3.1,3.1,0,0,1-.346-1.553c.064-1.569.346-4.483,1.59-2.269" transform="translate(-317.416 -82.142)" fill="#feca2e"/>
            <g id="Grupo_144567" data-name="Grupo 144567" transform="translate(101.211 30.64)" opacity="0.43">
              <g id="Grupo_144566" data-name="Grupo 144566">
                <g id="Grupo_144565" data-name="Grupo 144565" clip-path="url(#clip-path-53)">
                  <path id="Trazado_206682" data-name="Trazado 206682" d="M420.724,132.257a.113.113,0,0,0,.1-.067c.027-.061.64-1.537-1.248-5.172a.113.113,0,1,0-.2.1c1.827,3.518,1.248,4.962,1.241,4.976a.114.114,0,0,0,.059.149.116.116,0,0,0,.045.009" transform="translate(-419.365 -126.957)" fill="#fff"/>
                </g>
              </g>
            </g>
          </g>
        </g>
        <g id="Grupo_144571" data-name="Grupo 144571" transform="translate(87.431 30.381)">
          <g id="Grupo_144570" data-name="Grupo 144570" clip-path="url(#clip-path-54)">
            <rect id="Rectángulo_45184" data-name="Rectángulo 45184" width="3.709" height="3.978" transform="translate(-1.004 0.226) rotate(-15.124)" fill="url(#linear-gradient-32)"/>
          </g>
        </g>
        <g id="Grupo_144573" data-name="Grupo 144573" transform="translate(112.954 110.063)">
          <g id="Grupo_144572" data-name="Grupo 144572" clip-path="url(#clip-path-55)">
            <rect id="Rectángulo_45185" data-name="Rectángulo 45185" width="5.565" height="4.885" transform="translate(-0.709 5.08) rotate(-83.991)" fill="url(#linear-gradient-33)"/>
          </g>
        </g>
        <g id="Grupo_144575" data-name="Grupo 144575" transform="translate(111.157 95.754)">
          <g id="Grupo_144574" data-name="Grupo 144574" clip-path="url(#clip-path-56)">
            <rect id="Rectángulo_45186" data-name="Rectángulo 45186" width="17.36" height="7.55" transform="translate(-3.545 16.334) rotate(-80.51)" fill="url(#linear-gradient-34)"/>
          </g>
        </g>
        <g id="Grupo_144577" data-name="Grupo 144577" transform="translate(109.772 95.548)">
          <g id="Grupo_144576" data-name="Grupo 144576" clip-path="url(#clip-path-57)">
            <rect id="Rectángulo_45187" data-name="Rectángulo 45187" width="3.094" height="3.889" transform="matrix(0.878, -0.479, 0.479, 0.878, -1.675, 0.82)" fill="url(#linear-gradient-35)"/>
          </g>
        </g>
        <g id="Grupo_144579" data-name="Grupo 144579" transform="translate(96.154 123.998)">
          <g id="Grupo_144578" data-name="Grupo 144578" clip-path="url(#clip-path-58)">
            <rect id="Rectángulo_45188" data-name="Rectángulo 45188" width="4.346" height="4.784" transform="translate(-0.943 1.152) rotate(-51.503)" fill="url(#linear-gradient-36)"/>
          </g>
        </g>
        <g id="Grupo_144581" data-name="Grupo 144581" transform="translate(98.906 122.869)">
          <g id="Grupo_144580" data-name="Grupo 144580" clip-path="url(#clip-path-59)">
            <rect id="Rectángulo_45189" data-name="Rectángulo 45189" width="2.731" height="2.593" transform="translate(-0.742 0.305) rotate(-23.726)" fill="url(#linear-gradient-37)"/>
          </g>
        </g>
        <g id="Grupo_144583" data-name="Grupo 144583">
          <g id="Grupo_144582" data-name="Grupo 144582" clip-path="url(#clip-path)">
            <path id="Trazado_206689" data-name="Trazado 206689" d="M428.806,467.084c-1.036-5.655-1.79-9.287-1.79-9.287s-11.48-7.406-12.655-5.594-4.544,14.178-4.544,14.178l2.246.612s4.293-5.815,4.685-10.78c1.105,3.621,2.135,12.274,10.64,12.522a1.4,1.4,0,0,0,1.419-1.651" transform="translate(-310.911 -342.85)" fill="#7d97f4"/>
          </g>
        </g>
        <g id="Grupo_144585" data-name="Grupo 144585" transform="translate(90.631 122.673)">
          <g id="Grupo_144584" data-name="Grupo 144584" clip-path="url(#clip-path-61)">
            <rect id="Rectángulo_45191" data-name="Rectángulo 45191" width="3.335" height="3.474" transform="translate(-1.001 0.44) rotate(-23.726)" fill="url(#linear-gradient-38)"/>
          </g>
        </g>
        <g id="Grupo_144587" data-name="Grupo 144587" transform="translate(117.891 97.795)">
          <g id="Grupo_144586" data-name="Grupo 144586" clip-path="url(#clip-path-62)">
            <rect id="Rectángulo_45192" data-name="Rectángulo 45192" width="6.035" height="5.959" transform="translate(-0.107 5.928) rotate(-88.961)" fill="url(#linear-gradient-39)"/>
          </g>
        </g>
        <g id="Grupo_144589" data-name="Grupo 144589" transform="translate(114.307 92.534)">
          <g id="Grupo_144588" data-name="Grupo 144588" clip-path="url(#clip-path-63)">
            <rect id="Rectángulo_45193" data-name="Rectángulo 45193" width="10.706" height="10.634" transform="translate(-4.442 4.464) rotate(-48.33)" fill="url(#linear-gradient-40)"/>
          </g>
        </g>
        <g id="Grupo_144591" data-name="Grupo 144591" transform="translate(112.171 88.707)">
          <g id="Grupo_144590" data-name="Grupo 144590" clip-path="url(#clip-path-64)">
            <rect id="Rectángulo_45194" data-name="Rectángulo 45194" width="14.807" height="16.094" transform="matrix(0.468, -0.884, 0.884, 0.468, -4.602, 7.722)" fill="url(#linear-gradient-41)"/>
          </g>
        </g>
        <g id="Grupo_144593" data-name="Grupo 144593" transform="translate(119.018 94.956)">
          <g id="Grupo_144592" data-name="Grupo 144592" clip-path="url(#clip-path-65)">
            <rect id="Rectángulo_45195" data-name="Rectángulo 45195" width="3.272" height="3.279" transform="translate(-1.13 1.27) rotate(-48.33)" fill="url(#linear-gradient-42)"/>
          </g>
        </g>
        <g id="Grupo_144595" data-name="Grupo 144595" transform="translate(106.906 100.317)">
          <g id="Grupo_144594" data-name="Grupo 144594" clip-path="url(#clip-path-66)">
            <rect id="Rectángulo_45196" data-name="Rectángulo 45196" width="16.257" height="16.011" transform="translate(-3.996 0.315) rotate(-8.622)" fill="url(#linear-gradient-43)"/>
          </g>
        </g>
        <g id="Grupo_144597" data-name="Grupo 144597">
          <g id="Grupo_144596" data-name="Grupo 144596" clip-path="url(#clip-path)">
            <path id="Trazado_206696" data-name="Trazado 206696" d="M476.289,412.521a5.74,5.74,0,0,0-2.491,1.764,6.209,6.209,0,0,0-1.585,3.18c-.007.039-.014.078-.02.117a16.17,16.17,0,0,1-4.5,3.765,31.157,31.157,0,0,0,2.918,3.711s.218-.047.585-.141c-.356,3.209-.549,5.694-.549,5.694a19.885,19.885,0,0,0,8.179,4.716c4.08-3,4.7-11.6,4.7-11.6.32-10.192-4.388-11.835-7.237-11.209" transform="translate(-354.816 -312.874)" fill="#feca2e"/>
            <path id="Trazado_206697" data-name="Trazado 206697" d="M411.135,469.541s-1.837,5.46-10.9,2.4c-4.4-1.484-10.549-10.089-10.549-10.089s-1.518,4.163-9.452,9.746l-1.763-1.583s8.032-13.843,12.145-12.407,21.777,8.391,20.52,11.933" transform="translate(-287.129 -347.088)" fill="#91b3fa"/>
          </g>
        </g>
        <g id="Grupo_144599" data-name="Grupo 144599" transform="translate(86.342 124.142)">
          <g id="Grupo_144598" data-name="Grupo 144598" clip-path="url(#clip-path-68)">
            <rect id="Rectángulo_45198" data-name="Rectángulo 45198" width="6.977" height="3.496" transform="translate(-0.481 0.128) rotate(-15.909)" fill="url(#linear-gradient-44)"/>
          </g>
        </g>
        <g id="Grupo_144601" data-name="Grupo 144601" transform="translate(118.127 105.878)">
          <g id="Grupo_144600" data-name="Grupo 144600" clip-path="url(#clip-path-69)">
            <rect id="Rectángulo_45199" data-name="Rectángulo 45199" width="7.251" height="6.342" transform="translate(-0.585 0.06) rotate(-5.88)" fill="url(#linear-gradient-45)"/>
          </g>
        </g>
        <g id="Grupo_144603" data-name="Grupo 144603" transform="translate(106.51 94.251)">
          <g id="Grupo_144602" data-name="Grupo 144602" clip-path="url(#clip-path-70)">
            <rect id="Rectángulo_45200" data-name="Rectángulo 45200" width="8.857" height="8.091" transform="translate(-3.239 5.356) rotate(-58.945)" fill="url(#linear-gradient-46)"/>
          </g>
        </g>
        <g id="Grupo_144605" data-name="Grupo 144605">
          <g id="Grupo_144604" data-name="Grupo 144604" clip-path="url(#clip-path)">
            <path id="Trazado_206701" data-name="Trazado 206701" d="M444.719,393.033a.2.2,0,0,1,.153-.265l1.695-.286a.2.2,0,0,1,.222.137l1.668,5.393a.107.107,0,0,1-.077.136l-1.519.365a.107.107,0,0,1-.125-.067Z" transform="translate(-337.379 -297.757)" fill="#91b3fa"/>
          </g>
        </g>
        <g id="Grupo_144607" data-name="Grupo 144607" transform="translate(108.152 94.564)">
          <g id="Grupo_144606" data-name="Grupo 144606" clip-path="url(#clip-path-72)">
            <path id="Trazado_206702" data-name="Trazado 206702" d="M447.278,391.36l.611.28.5-.315-.611-.28Z" transform="translate(-447.483 -391.232)" fill="url(#linear-gradient-47)"/>
          </g>
        </g>
        <g id="Grupo_144609" data-name="Grupo 144609" transform="translate(106.977 96.097)">
          <g id="Grupo_144608" data-name="Grupo 144608" clip-path="url(#clip-path-73)">
            <rect id="Rectángulo_45202" data-name="Rectángulo 45202" width="3.516" height="6.029" transform="translate(-1.126 0.128) rotate(-8.622)" fill="url(#linear-gradient-48)"/>
          </g>
        </g>
        <g id="Grupo_144611" data-name="Grupo 144611" transform="translate(117.704 101.099)">
          <g id="Grupo_144610" data-name="Grupo 144610" clip-path="url(#clip-path-74)">
            <rect id="Rectángulo_45203" data-name="Rectángulo 45203" width="4.564" height="4.21" transform="matrix(0.995, -0.102, 0.102, 0.995, -0.395, -0.37)" fill="url(#linear-gradient-49)"/>
          </g>
        </g>
        <g id="Grupo_144613" data-name="Grupo 144613" transform="translate(111.73 98.018)">
          <g id="Grupo_144612" data-name="Grupo 144612" clip-path="url(#clip-path-75)">
            <rect id="Rectángulo_45204" data-name="Rectángulo 45204" width="1.168" height="3.018" transform="translate(-0.203 0)" fill="url(#linear-gradient-50)"/>
          </g>
        </g>
        <g id="Grupo_144615" data-name="Grupo 144615">
          <g id="Grupo_144614" data-name="Grupo 144614" clip-path="url(#clip-path)">
            <path id="Trazado_206707" data-name="Trazado 206707" d="M467.1,378.109a.1.1,0,0,1-.089-.051,2.47,2.47,0,0,1-.425-1.964,1.2,1.2,0,0,1,.6-.709.1.1,0,0,1,.082.188.987.987,0,0,0-.488.589,2.292,2.292,0,0,0,.409,1.792.1.1,0,0,1-.089.155" transform="translate(-353.925 -284.782)" fill="#91b3fa"/>
          </g>
        </g>
      </g>
    </g>
  </g>
</svg>
