<svg xmlns="http://www.w3.org/2000/svg" xmlns:xlink="http://www.w3.org/1999/xlink" width="190.333" height="115" viewBox="0 0 190.333 115">
  <defs>
    <clipPath id="clip-path">
      <rect id="Rectángulo_44887" data-name="Rectángulo 44887" width="93.313" height="90.105" fill="#0f2771"/>
    </clipPath>
  </defs>
  <g id="Grupo_146519" data-name="Grupo 146519" transform="translate(-179.667 -395)">
    <g id="Grupo_146439" data-name="Grupo 146439">
      <g id="Grupo_143955" data-name="Grupo 143955" transform="translate(0 -5)">
        <rect id="Rectángulo_41430" data-name="Rectángulo 41430" width="85" height="28" rx="14" transform="translate(285 407.5)" fill="#feca2e" opacity="0.2"/>
        <rect id="Rectángulo_41431" data-name="Rectángulo 41431" width="85" height="28" rx="14" transform="translate(180 479)" fill="#4dd0e1" opacity="0.2"/>
        <rect id="Rectángulo_43994" data-name="Rectángulo 43994" width="190" height="115" transform="translate(179.667 400)" fill="none"/>
      </g>
      <g id="Grupo_143957" data-name="Grupo 143957" transform="translate(230 405.114)">
        <g id="Grupo_143956" data-name="Grupo 143956" transform="translate(0 0)" clip-path="url(#clip-path)">
          <path id="Trazado_205923" data-name="Trazado 205923" d="M46.654,72.481A46.707,46.707,0,0,1,0,25.823a1.53,1.53,0,0,1,1.531-1.531H91.78a1.53,1.53,0,0,1,1.531,1.531A46.709,46.709,0,0,1,46.654,72.481M3.09,27.355a43.593,43.593,0,0,0,87.132,0Z" transform="translate(0.001 17.624)" fill="#0f2771"/>
          <path id="Trazado_205924" data-name="Trazado 205924" d="M46.655,48.984C20.492,48.984,0,38.811,0,25.823a1.532,1.532,0,0,1,1.532-1.531H91.78a1.53,1.53,0,0,1,1.531,1.531c0,12.988-20.494,23.162-46.656,23.162M3.2,27.355c1.76,10.212,20.946,18.567,43.459,18.567s41.7-8.355,43.462-18.567Z" transform="translate(0 17.624)" fill="#0f2771"/>
          <path id="Trazado_205925" data-name="Trazado 205925" d="M36.778,72.481c-12.988,0-23.162-20.5-23.162-46.658a1.532,1.532,0,0,1,1.532-1.531H58.407a1.531,1.531,0,0,1,1.532,1.531c0,26.162-10.174,46.658-23.162,46.658M16.693,27.355c.387,22.955,9.427,42.061,20.085,42.061s19.7-19.107,20.085-42.061Z" transform="translate(9.879 17.624)" fill="#0f2771"/>
          <path id="Trazado_205926" data-name="Trazado 205926" d="M43.7,31.085a1.532,1.532,0,0,1-1.532-1.532V20.681a1.532,1.532,0,0,1,3.065,0v8.873A1.532,1.532,0,0,1,43.7,31.085" transform="translate(30.597 13.894)" fill="#0f2771"/>
          <path id="Trazado_205927" data-name="Trazado 205927" d="M27.683,35.322a1.532,1.532,0,0,1-1.532-1.532V14.842a1.532,1.532,0,0,1,3.065,0V33.79a1.532,1.532,0,0,1-1.532,1.532" transform="translate(18.973 9.657)" fill="#0f2771"/>
          <path id="Trazado_205928" data-name="Trazado 205928" d="M34.338,28.386a1.532,1.532,0,0,1-1.532-1.532V24.4a1.532,1.532,0,1,1,3.065,0v2.45a1.532,1.532,0,0,1-1.532,1.532" transform="translate(23.801 16.594)" fill="#0f2771"/>
          <path id="Trazado_205929" data-name="Trazado 205929" d="M34.338,22.294a1.532,1.532,0,0,1-1.532-1.532v-2.45a1.532,1.532,0,0,1,3.065,0v2.45a1.532,1.532,0,0,1-1.532,1.532" transform="translate(23.801 12.175)" fill="#0f2771"/>
          <path id="Trazado_205930" data-name="Trazado 205930" d="M51.493,28.386a1.532,1.532,0,0,1-1.532-1.532V24.4a1.532,1.532,0,1,1,3.065,0v2.45a1.532,1.532,0,0,1-1.532,1.532" transform="translate(36.248 16.594)" fill="#0f2771"/>
          <path id="Trazado_205931" data-name="Trazado 205931" d="M51.493,22.808a1.532,1.532,0,0,1-1.532-1.532v-2.45a1.532,1.532,0,0,1,3.065,0v2.45a1.532,1.532,0,0,1-1.532,1.532" transform="translate(36.248 12.548)" fill="#0f2771"/>
          <path id="Trazado_205932" data-name="Trazado 205932" d="M11.661,31.085a1.532,1.532,0,0,1-1.532-1.532V20.681a1.532,1.532,0,0,1,3.065,0v8.873a1.532,1.532,0,0,1-1.532,1.532" transform="translate(7.349 13.894)" fill="#0f2771"/>
          <path id="Trazado_205933" data-name="Trazado 205933" d="M21.027,28.386A1.532,1.532,0,0,1,19.5,26.854V24.4a1.532,1.532,0,1,1,3.065,0v2.45a1.532,1.532,0,0,1-1.532,1.532" transform="translate(14.144 16.594)" fill="#0f2771"/>
          <path id="Trazado_205934" data-name="Trazado 205934" d="M21.027,22.294A1.532,1.532,0,0,1,19.5,20.762v-2.45a1.532,1.532,0,0,1,3.065,0v2.45a1.532,1.532,0,0,1-1.532,1.532" transform="translate(14.144 12.175)" fill="#0f2771"/>
          <path id="Trazado_205935" data-name="Trazado 205935" d="M3.873,28.386a1.532,1.532,0,0,1-1.532-1.532V24.4a1.532,1.532,0,0,1,3.065,0v2.45a1.532,1.532,0,0,1-1.532,1.532" transform="translate(1.698 16.594)" fill="#0f2771"/>
          <path id="Trazado_205936" data-name="Trazado 205936" d="M3.873,22.808a1.532,1.532,0,0,1-1.532-1.532v-2.45a1.532,1.532,0,0,1,3.065,0v2.45a1.532,1.532,0,0,1-1.532,1.532" transform="translate(1.698 12.548)" fill="#0f2771"/>
          <path id="Trazado_205937" data-name="Trazado 205937" d="M32.51,26.031a1.526,1.526,0,0,1-1.082-.449L19.943,14.1a1.538,1.538,0,0,1,0-2.167L31.428.449a1.532,1.532,0,0,1,2.167,0L45.077,11.932a1.532,1.532,0,0,1,0,2.167L33.6,25.583a1.537,1.537,0,0,1-1.085.449M23.194,13.016l9.316,9.318,9.32-9.318L32.51,3.7Z" transform="translate(14.145 0)" fill="#0f2771"/>
          <path id="Trazado_205938" data-name="Trazado 205938" d="M48.532,31.87a1.526,1.526,0,0,1-1.082-.449L35.965,19.938a1.535,1.535,0,0,1,0-2.167L47.45,6.288a1.53,1.53,0,0,1,2.166,0L61.1,17.771a1.532,1.532,0,0,1,0,2.167L49.616,31.422a1.533,1.533,0,0,1-1.084.449M39.214,18.855l9.318,9.318,9.32-9.318-9.32-9.318Z" transform="translate(25.769 4.236)" fill="#0f2771"/>
          <path id="Trazado_205939" data-name="Trazado 205939" d="M16.489,31.87a1.526,1.526,0,0,1-1.082-.449L3.922,19.938a1.535,1.535,0,0,1,0-2.167L15.407,6.288a1.53,1.53,0,0,1,2.166,0L29.056,17.771a1.532,1.532,0,0,1,0,2.167L17.573,31.422a1.53,1.53,0,0,1-1.084.449M7.171,18.855l9.318,9.318,9.32-9.318-9.32-9.318Z" transform="translate(2.521 4.236)" fill="#0f2771"/>
        </g>
      </g>
    </g>
  </g>
</svg>
