<svg xmlns="http://www.w3.org/2000/svg" xmlns:xlink="http://www.w3.org/1999/xlink" width="400" height="231" viewBox="0 0 400 231">
  <defs>
    <clipPath id="clip-path">
      <rect id="Rectángulo_46080" data-name="Rectángulo 46080" width="400" height="231" transform="translate(915 5034)" fill="#fff" stroke="#707070" stroke-width="1"/>
    </clipPath>
  </defs>
  <g id="Grupo_146534" data-name="Grupo 146534" transform="translate(-1020 -5034)">
    <g id="Enmascarar_grupo_145569" data-name="Enmascarar grupo 145569" transform="translate(105)" clip-path="url(#clip-path)">
      <g id="Growth_analytics-pana" data-name="Growth analytics-pana" transform="translate(886.68 4981.67)">
        <g id="freepik--background-complete--inject-68" transform="translate(101.162 52.33)">
          <rect id="Rectángulo_46026" data-name="Rectángulo 46026" width="91.655" height="81.997" transform="translate(213.326 0.406)" fill="#fafafa"/>
          <path id="Trazado_208368" data-name="Trazado 208368" d="M444.094,134.733V128.8c0-3.849,0-9.482-.053-16.641,0-14.328-.062-34.8-.106-59.441l.2.212H352.5l.238-.247v82l-.212-.221,66.283.115,18.7.053h.062l-18.645.053-66.424.106h-.221V52.33h92.105v.212c0,24.719-.088,45.21-.106,59.564,0,7.151,0,12.766-.062,16.6v4.361A10.164,10.164,0,0,1,444.094,134.733Z" transform="translate(-139.122 -52.33)" fill="#e0e0e0"/>
          <path id="Trazado_208369" data-name="Trazado 208369" d="M389.41,69.258c0,.141-4.82.247-10.771.247s-10.779-.106-10.779-.247,4.829-.238,10.779-.238S389.41,69.126,389.41,69.258Z" transform="translate(-140.947 -54.286)" fill="#e0e0e0"/>
          <path id="Trazado_208370" data-name="Trazado 208370" d="M428.4,76.237c0,.132-13.242.238-29.6.238s-29.592-.106-29.592-.238,13.242-.247,29.592-.247S428.4,76.1,428.4,76.237Z" transform="translate(-141.105 -55.102)" fill="#e0e0e0"/>
          <rect id="Rectángulo_46027" data-name="Rectángulo 46027" width="3.858" height="3.858" transform="translate(227.072 31.561)" fill="#e0e0e0"/>
          <rect id="Rectángulo_46028" data-name="Rectángulo 46028" width="3.858" height="3.858" transform="translate(236.58 31.561)" fill="#e0e0e0"/>
          <rect id="Rectángulo_46029" data-name="Rectángulo 46029" width="3.858" height="3.858" transform="translate(246.256 31.384)" fill="#e0e0e0"/>
          <rect id="Rectángulo_46030" data-name="Rectángulo 46030" width="3.858" height="3.858" transform="translate(255.587 31.561)" fill="#e0e0e0"/>
          <rect id="Rectángulo_46031" data-name="Rectángulo 46031" width="3.858" height="3.858" transform="translate(265.095 31.561)" fill="#e0e0e0"/>
          <rect id="Rectángulo_46032" data-name="Rectángulo 46032" width="3.858" height="3.858" transform="translate(274.594 31.561)" fill="#e0e0e0"/>
          <rect id="Rectángulo_46033" data-name="Rectángulo 46033" width="3.858" height="3.858" transform="translate(284.102 31.561)" fill="#ebebeb"/>
          <rect id="Rectángulo_46034" data-name="Rectángulo 46034" width="3.858" height="3.858" transform="translate(227.072 39.771)" fill="#ebebeb"/>
          <rect id="Rectángulo_46035" data-name="Rectángulo 46035" width="3.858" height="3.858" transform="translate(236.58 39.771)" fill="#e0e0e0"/>
          <rect id="Rectángulo_46036" data-name="Rectángulo 46036" width="3.858" height="3.858" transform="translate(246.088 39.771)" fill="#ebebeb"/>
          <rect id="Rectángulo_46037" data-name="Rectángulo 46037" width="3.858" height="3.858" transform="translate(255.587 39.771)" fill="#e0e0e0"/>
          <rect id="Rectángulo_46038" data-name="Rectángulo 46038" width="3.858" height="3.858" transform="translate(265.095 39.771)" fill="#e0e0e0"/>
          <rect id="Rectángulo_46039" data-name="Rectángulo 46039" width="3.858" height="3.858" transform="translate(274.771 39.595)" fill="#e0e0e0"/>
          <rect id="Rectángulo_46040" data-name="Rectángulo 46040" width="3.858" height="3.858" transform="translate(284.102 39.771)" fill="#e0e0e0"/>
          <rect id="Rectángulo_46041" data-name="Rectángulo 46041" width="3.858" height="3.858" transform="translate(227.072 47.982)" fill="#e0e0e0"/>
          <rect id="Rectángulo_46042" data-name="Rectángulo 46042" width="3.858" height="3.858" transform="translate(236.756 47.805)" fill="#e0e0e0"/>
          <rect id="Rectángulo_46043" data-name="Rectángulo 46043" width="3.858" height="3.858" transform="translate(246.088 47.982)" fill="#e0e0e0"/>
          <rect id="Rectángulo_46044" data-name="Rectángulo 46044" width="3.858" height="3.858" transform="translate(255.587 47.982)" fill="#ebebeb"/>
          <rect id="Rectángulo_46045" data-name="Rectángulo 46045" width="3.858" height="3.858" transform="translate(265.095 47.982)" fill="#e0e0e0"/>
          <rect id="Rectángulo_46046" data-name="Rectángulo 46046" width="3.858" height="3.858" transform="translate(274.594 47.982)" fill="#e0e0e0"/>
          <rect id="Rectángulo_46047" data-name="Rectángulo 46047" width="3.858" height="3.858" transform="translate(284.102 47.982)" fill="#e0e0e0"/>
          <rect id="Rectángulo_46048" data-name="Rectángulo 46048" width="3.858" height="3.858" transform="translate(227.072 56.183)" fill="#e0e0e0"/>
          <rect id="Rectángulo_46049" data-name="Rectángulo 46049" width="3.858" height="3.858" transform="translate(236.58 56.183)" fill="#e0e0e0"/>
          <rect id="Rectángulo_46050" data-name="Rectángulo 46050" width="3.858" height="3.858" transform="translate(246.088 56.183)" fill="#e0e0e0"/>
          <rect id="Rectángulo_46051" data-name="Rectángulo 46051" width="3.858" height="3.858" transform="translate(255.764 56.015)" fill="#e0e0e0"/>
          <rect id="Rectángulo_46052" data-name="Rectángulo 46052" width="3.858" height="3.858" transform="translate(265.095 56.183)" fill="#e0e0e0"/>
          <rect id="Rectángulo_46053" data-name="Rectángulo 46053" width="3.858" height="3.858" transform="translate(274.594 56.183)" fill="#ebebeb"/>
          <rect id="Rectángulo_46054" data-name="Rectángulo 46054" width="3.858" height="3.858" transform="translate(284.102 56.183)" fill="#e0e0e0"/>
          <rect id="Rectángulo_46055" data-name="Rectángulo 46055" width="3.858" height="3.858" transform="translate(227.072 64.393)" fill="#e0e0e0"/>
          <rect id="Rectángulo_46056" data-name="Rectángulo 46056" width="3.858" height="3.858" transform="translate(236.58 64.393)" fill="#ebebeb"/>
          <rect id="Rectángulo_46057" data-name="Rectángulo 46057" width="3.858" height="3.858" transform="translate(246.088 64.393)" fill="#e0e0e0"/>
          <rect id="Rectángulo_46058" data-name="Rectángulo 46058" width="3.858" height="3.858" transform="translate(255.587 64.393)" fill="#e0e0e0"/>
          <rect id="Rectángulo_46059" data-name="Rectángulo 46059" width="3.858" height="3.858" transform="translate(265.095 64.393)" fill="#e0e0e0"/>
          <rect id="Rectángulo_46060" data-name="Rectángulo 46060" width="3.858" height="3.858" transform="translate(274.771 64.217)" fill="#e0e0e0"/>
          <rect id="Rectángulo_46061" data-name="Rectángulo 46061" width="3.858" height="3.858" transform="translate(284.102 64.393)" fill="#e0e0e0"/>
          <rect id="Rectángulo_46062" data-name="Rectángulo 46062" width="163.049" height="75.19" transform="translate(0 244.658)" fill="#f5f5f5"/>
          <path id="Trazado_208371" data-name="Trazado 208371" d="M270.489,401.635H115.05v-67.7H270.489ZM116.065,400.62H269.5V334.955H116.065Z" transform="translate(-111.324 -85.327)" fill="#e0e0e0"/>
          <rect id="Rectángulo_46063" data-name="Rectángulo 46063" width="39.833" height="75.19" transform="translate(163.04 244.658)" fill="#e0e0e0"/>
          <path id="Trazado_208372" data-name="Trazado 208372" d="M115.6,357.616H270.018a.2.2,0,1,0,0-.406H115.6a.2.2,0,1,0,0,.406Z" transform="translate(-111.365 -88.054)" fill="#e0e0e0"/>
          <path id="Trazado_208373" data-name="Trazado 208373" d="M203.574,354.7a171.265,171.265,0,0,0,.053-20.42.212.212,0,0,0-.424,0,171.266,171.266,0,0,0,.053,20.42.159.159,0,0,0,.318,0Z" transform="translate(-121.621 -85.342)" fill="#e0e0e0"/>
          <path id="Trazado_208374" data-name="Trazado 208374" d="M250.18,345.591a2.11,2.11,0,1,1-2.11-2.1A2.11,2.11,0,0,1,250.18,345.591Z" transform="translate(-126.664 -86.446)" fill="#e0e0e0"/>
          <path id="Trazado_208375" data-name="Trazado 208375" d="M158.382,345.591a2.1,2.1,0,1,1-2.1-2.1A2.1,2.1,0,0,1,158.382,345.591Z" transform="translate(-115.909 -86.446)" fill="#e0e0e0"/>
          <path id="Trazado_208376" data-name="Trazado 208376" d="M204.91,372a2.11,2.11,0,1,1-2.11-2.1,2.11,2.11,0,0,1,2.11,2.1Z" transform="translate(-121.359 -89.541)" fill="#e0e0e0"/>
          <path id="Trazado_208377" data-name="Trazado 208377" d="M131.8,414.64l-8.4,47.2h4.723l15.476-47.2Z" transform="translate(-112.303 -94.783)" fill="#e0e0e0"/>
          <path id="Trazado_208378" data-name="Trazado 208378" d="M280.873,414.64l7.027,47.284h-4.723L269.07,414.64Z" transform="translate(-129.372 -94.783)" fill="#e0e0e0"/>
          <path id="Trazado_208379" data-name="Trazado 208379" d="M316.583,414.64l7.954,47.284h-4.723L304.78,414.64Z" transform="translate(-133.556 -94.783)" fill="#e0e0e0"/>
          <path id="Trazado_208380" data-name="Trazado 208380" d="M204.75,396.111a2.11,2.11,0,1,1-2.11-2.1A2.11,2.11,0,0,1,204.75,396.111Z" transform="translate(-121.34 -92.366)" fill="#e0e0e0"/>
          <path id="Trazado_208381" data-name="Trazado 208381" d="M115.6,384H270.018a.2.2,0,1,0,0-.406H115.6a.2.2,0,1,0,0,.406Z" transform="translate(-111.365 -91.145)" fill="#e0e0e0"/>
          <rect id="Rectángulo_46064" data-name="Rectángulo 46064" width="10.038" height="49.297" transform="matrix(0.005, 1, -1, 0.005, 113.772, 209.095)" fill="#e0e0e0"/>
          <rect id="Rectángulo_46065" data-name="Rectángulo 46065" width="15.591" height="54.947" transform="matrix(0.005, 1, -1, 0.005, 119.663, 228.842)" fill="#f5f5f5"/>
          <path id="Trazado_208382" data-name="Trazado 208382" d="M234.455,327.031a57.349,57.349,0,0,1-.265-7.8,57.349,57.349,0,0,1,.265-7.8,56.819,56.819,0,0,1,.265,7.8A56.819,56.819,0,0,1,234.455,327.031Z" transform="translate(-125.285 -82.691)" fill="#e0e0e0"/>
          <path id="Trazado_208383" data-name="Trazado 208383" d="M237.061,327.031a58.557,58.557,0,0,1-.265-7.8,58.555,58.555,0,0,1,.265-7.8,55.914,55.914,0,0,1,.274,7.8A55.914,55.914,0,0,1,237.061,327.031Z" transform="translate(-125.586 -82.691)" fill="#e0e0e0"/>
          <path id="Trazado_208384" data-name="Trazado 208384" d="M193.574,327.031a56.438,56.438,0,0,1-.274-7.8,56.438,56.438,0,0,1,.274-7.8,58.555,58.555,0,0,1,.265,7.8,58.555,58.555,0,0,1-.265,7.8Z" transform="translate(-120.493 -82.691)" fill="#e0e0e0"/>
          <path id="Trazado_208385" data-name="Trazado 208385" d="M196.185,327.031a57.345,57.345,0,0,1-.265-7.8,57.344,57.344,0,0,1,.265-7.8,56.821,56.821,0,0,1,.265,7.8A56.822,56.822,0,0,1,196.185,327.031Z" transform="translate(-120.8 -82.691)" fill="#e0e0e0"/>
          <path id="Trazado_208386" data-name="Trazado 208386" d="M201.93,320.524c0-.15,5.535-.274,12.36-.274s12.36.124,12.36.274-5.535.265-12.36.265S201.93,320.665,201.93,320.524Z" transform="translate(-121.505 -83.723)" fill="#e0e0e0"/>
          <rect id="Rectángulo_46066" data-name="Rectángulo 46066" width="10.038" height="67.801" transform="matrix(0.005, 1, -1, 0.005, 140.33, 218.729)" fill="#ebebeb"/>
          <path id="Trazado_208387" data-name="Trazado 208387" d="M258.422,309.188a3.249,3.249,0,1,1,3.2-3.249,3.249,3.249,0,0,1-3.2,3.249Z" transform="translate(-127.737 -81.666)" fill="#e0e0e0"/>
          <rect id="Rectángulo_46067" data-name="Rectángulo 46067" width="2.004" height="45.386" transform="translate(121.865 223.276) rotate(90)" fill="#e0e0e0"/>
          <path id="Trazado_208388" data-name="Trazado 208388" d="M436.948,414.775l-1.262,23.2a1.563,1.563,0,0,1-1.554,1.483l-41.749.309a1.58,1.58,0,0,1-1.58-1.563l-.132-18.133a1.563,1.563,0,0,1,1.563-1.58h25.681a1.527,1.527,0,0,0,1.1-.459l4.414-4.414a1.563,1.563,0,0,1,1.095-.459l10.823-.079a1.571,1.571,0,0,1,1.6,1.7Z" transform="translate(-143.62 -94.6)" fill="#4dd0e1"/>
          <g id="Grupo_146488" data-name="Grupo 146488" transform="translate(247.05 318.479)" opacity="0.3">
            <path id="Trazado_208389" data-name="Trazado 208389" d="M436.948,414.775l-1.262,23.2a1.563,1.563,0,0,1-1.554,1.483l-41.749.309a1.58,1.58,0,0,1-1.58-1.563l-.132-18.133a1.563,1.563,0,0,1,1.563-1.58h25.681a1.527,1.527,0,0,0,1.1-.459l4.414-4.414a1.563,1.563,0,0,1,1.095-.459l10.823-.079a1.571,1.571,0,0,1,1.6,1.7Z" transform="translate(-390.67 -413.08)"/>
          </g>
          <rect id="Rectángulo_46068" data-name="Rectángulo 46068" width="45.616" height="27.262" transform="translate(292.836 348.122) rotate(179.58)" fill="#f5f5f5"/>
          <path id="Trazado_208390" data-name="Trazado 208390" d="M439.513,418.37l-3.275,28.453a1.015,1.015,0,0,1-1,.883l-44.459.327a1.006,1.006,0,0,1-1.006-.927L387.329,418.7a1.006,1.006,0,0,1,1-1.095l50.18-.362a1.006,1.006,0,0,1,1.006,1.13Z" transform="translate(-143.228 -95.088)" fill="#e0e0e0"/>
          <path id="Trazado_208391" data-name="Trazado 208391" d="M450.858,409.786l-1.262,23.2a1.563,1.563,0,0,1-1.554,1.483l-41.749.309a1.571,1.571,0,0,1-1.58-1.554l-.132-18.063a1.571,1.571,0,0,1,1.571-1.58h25.673a1.563,1.563,0,0,0,1.112-.459l4.414-4.414a1.562,1.562,0,0,1,1.1-.459l10.823-.079a1.563,1.563,0,0,1,1.58,1.616Z" transform="translate(-145.25 -94.025)" fill="#ebebeb"/>
          <rect id="Rectángulo_46069" data-name="Rectángulo 46069" width="45.624" height="27.262" transform="translate(305.122 343.745) rotate(179.58)" fill="#f5f5f5"/>
          <path id="Trazado_208392" data-name="Trazado 208392" d="M453.423,413.415l-3.275,28.453a1,1,0,0,1-.989.883l-44.459.327a1.006,1.006,0,0,1-1.015-.883l-2.445-28.418a1,1,0,0,1,1-1.086l50.18-.371a1,1,0,0,1,1.006,1.095Z" transform="translate(-144.858 -94.511)" fill="#ebebeb"/>
          <path id="Trazado_208393" data-name="Trazado 208393" d="M466.538,415.926l-1.262,23.21a1.563,1.563,0,0,1-1.554,1.474l-41.749.309a1.571,1.571,0,0,1-1.58-1.554L420.26,421.3a1.58,1.58,0,0,1,1.571-1.58H447.5a1.6,1.6,0,0,0,1.112-.459l4.414-4.414a1.6,1.6,0,0,1,1.1-.459l10.823-.079a1.563,1.563,0,0,1,1.58,1.616Z" transform="translate(-147.087 -94.744)" fill="#f5f5f5"/>
          <rect id="Rectángulo_46070" data-name="Rectángulo 46070" width="45.616" height="27.262" transform="translate(318.961 349.179) rotate(179.58)" fill="#fafafa"/>
          <path id="Trazado_208394" data-name="Trazado 208394" d="M469.073,419.565,465.8,448.018a1,1,0,0,1-.989.883l-44.459.327a1.006,1.006,0,0,1-1.015-.883l-2.445-28.409a1.015,1.015,0,0,1,1-1.095l50.18-.371a1.006,1.006,0,0,1,1.006,1.095Z" transform="translate(-146.692 -95.232)" fill="#f5f5f5"/>
          <path id="Trazado_208395" data-name="Trazado 208395" d="M416.92,424.1v39.462h56.933V424.1Zm18.583,7.063a2.913,2.913,0,0,1,2.913-2.913h13.94a2.913,2.913,0,1,1,0,5.827h-13.94a2.913,2.913,0,0,1-2.887-2.878Z" transform="translate(-146.696 -95.892)" fill="#ebebeb"/>
          <path id="Trazado_208396" data-name="Trazado 208396" d="M382.15,424.1v39.462h30.7V424.1Z" transform="translate(-142.622 -95.892)" fill="#e0e0e0"/>
        </g>
        <g id="freepik--Plant--inject-68" transform="translate(30.465 243.842)">
          <path id="Trazado_208397" data-name="Trazado 208397" d="M53.1,376.6A28.665,28.665,0,0,0,40.8,372.358c-2.013-.212-4.2-.15-5.818,1.068a1.192,1.192,0,0,0-.6,1.059,1.289,1.289,0,0,0,.565.733A17.656,17.656,0,0,0,53.1,376.6" transform="translate(-31.175 -281.329)" fill="#4dd0e1"/>
          <path id="Trazado_208398" data-name="Trazado 208398" d="M53.491,374.21a59.9,59.9,0,0,1-7.945-6.992A20.067,20.067,0,0,1,40.567,358a3.69,3.69,0,0,1,.388-3.081c6.339,4.944,11.309,11.344,12.536,19.29" transform="translate(-31.88 -279.297)" fill="#4dd0e1"/>
          <path id="Trazado_208399" data-name="Trazado 208399" d="M55.465,374.583a28.586,28.586,0,0,1,.141-10.435,14.125,14.125,0,0,1,5.562-8.608c1.095,2.56.627,5.509-.15,8.184a39.921,39.921,0,0,1-5.509,11.645" transform="translate(-33.598 -279.37)" fill="#4dd0e1"/>
          <path id="Trazado_208400" data-name="Trazado 208400" d="M60.491,389.72a18.2,18.2,0,0,0-9.87,4.988,18.672,18.672,0,0,0-5.641,9.711c3.7-.23,6.833-2.834,9.111-5.756s3.849-6.136,6.348-8.872" transform="translate(-32.417 -283.375)" fill="#4dd0e1"/>
          <path id="Trazado_208401" data-name="Trazado 208401" d="M63.855,388.674a24.331,24.331,0,0,1,2.807-23.024c2.145,7.645,1.36,16.27-2.807,23.024" transform="translate(-34.43 -280.554)" fill="#4dd0e1"/>
          <path id="Trazado_208402" data-name="Trazado 208402" d="M71.1,402.8a17.6,17.6,0,0,0-16.827,9.711,1.315,1.315,0,0,0-.115,1.324,1.28,1.28,0,0,0,1.121.327c3.311-.212,6.25-2.207,8.678-4.485s4.538-4.9,7.222-6.86" transform="translate(-33.479 -284.903)" fill="#4dd0e1"/>
          <path id="Trazado_208403" data-name="Trazado 208403" d="M72.893,399.106a31.323,31.323,0,0,1-.318-17.506c.618-2.26,1.651-4.626,3.734-5.685a.75.75,0,0,1,.574-.1.733.733,0,0,1,.362.415,10.594,10.594,0,0,1,.874,5.041,32.047,32.047,0,0,1-.786,5.085c-.662,3.108-1.006,6.445-2.71,9.128a19.071,19.071,0,0,0-1.086,2c-.327.68-.327.883-.618,1.466" transform="translate(-35.523 -281.743)" fill="#4dd0e1"/>
          <path id="Trazado_208404" data-name="Trazado 208404" d="M97.6,403.3a22.519,22.519,0,0,1,3.955-18.539c.283-.371.662-.768,1.121-.724.715.071.883,1.015.883,1.766a33.547,33.547,0,0,1-5.941,17.551" transform="translate(-38.512 -282.709)" fill="#4dd0e1"/>
          <path id="Trazado_208405" data-name="Trazado 208405" d="M99.9,406.528a27.006,27.006,0,0,0,22.15-4.5,17.886,17.886,0,0,0-11.989-1.474A16.93,16.93,0,0,0,99.9,406.528" transform="translate(-38.853 -284.592)" fill="#4dd0e1"/>
          <path id="Trazado_208406" data-name="Trazado 208406" d="M101.77,401.217a25.613,25.613,0,0,1,20.1-11.627c-.883,3.24-3.575,5.756-6.577,7.275a36.676,36.676,0,0,1-9.649,2.825c-1.28.247-3.046.521-3.876,1.527" transform="translate(-39.072 -283.359)" fill="#4dd0e1"/>
          <path id="Trazado_208407" data-name="Trazado 208407" d="M97.766,377.249a58.212,58.212,0,0,0,2.569-11.795,19.608,19.608,0,0,0-2.348-11.644c-3.884,7.531-4.282,16.323-.335,23.836" transform="translate(-38.264 -279.167)" fill="#4dd0e1"/>
          <path id="Trazado_208408" data-name="Trazado 208408" d="M113,370.763c4.547-8.263,13.825-14.876,23.218-15.8-3.62,9.022-13.5,16-23.218,15.8" transform="translate(-40.388 -279.302)" fill="#4dd0e1"/>
          <path id="Trazado_208409" data-name="Trazado 208409" d="M109.74,374.519c6.789,1.033,12.571,5.368,18.91,7.99a8.4,8.4,0,0,0,4.273.821,3.726,3.726,0,0,0,3.222-2.6,3.77,3.77,0,0,0-1.121-3.328,9.305,9.305,0,0,0-3.108-1.88c-6.913-2.878-14.311-2.949-21.594-1.2" transform="translate(-40.006 -281.434)" fill="#4dd0e1"/>
          <path id="Trazado_208410" data-name="Trazado 208410" d="M105.3,380.046c1.536.441,2.057,1.236,3.275,2.269a35.313,35.313,0,0,0,14.337,7.363c.547.141,1.262.194,1.536-.3s-.062-.953-.371-1.342a19.819,19.819,0,0,0-8.661-5.88c-3.3-1.227-6.18-2.719-10.117-2.392" transform="translate(-39.485 -282.203)" fill="#4dd0e1"/>
          <path id="Trazado_208411" data-name="Trazado 208411" d="M100.28,347.43a27.147,27.147,0,0,0,20.8,7.063,1.412,1.412,0,0,0,.945-.344c.53-.565-.106-1.448-.715-1.925-6.109-4.767-13.525-6.745-21.029-4.811" transform="translate(-38.897 -278.331)" fill="#4dd0e1"/>
          <path id="Trazado_208412" data-name="Trazado 208412" d="M106.23,344.6a29,29,0,0,1,25.955-4.282,20.6,20.6,0,0,1-12.36,5.429,38.984,38.984,0,0,1-13.587-1.148" transform="translate(-39.594 -277.427)" fill="#4dd0e1"/>
          <path id="Trazado_208413" data-name="Trazado 208413" d="M103.395,327.954c-.6-6.1-.212-10.921-.636-17.056,0-.494-.132-1.077-.591-1.254-.644-.247-1.174.538-1.386,1.183a19.563,19.563,0,0,0,2.6,16.994" transform="translate(-38.852 -273.986)" fill="#4dd0e1"/>
          <path id="Trazado_208414" data-name="Trazado 208414" d="M103.36,328.6a35.737,35.737,0,0,0,10.117-9.844c2-2.728,3.681-6,3.222-9.358a9.711,9.711,0,0,0-7.292,3.62,20.42,20.42,0,0,0-3.717,7.5c-.812,2.648-1.377,5.438-2.331,8.078" transform="translate(-39.258 -273.963)" fill="#4dd0e1"/>
          <path id="Trazado_208415" data-name="Trazado 208415" d="M114.6,325.97A81.732,81.732,0,0,0,139.489,311.3c-2.975-1.2-6.374-.486-9.349.715a29.486,29.486,0,0,0-15.67,13.957" transform="translate(-40.56 -274.113)" fill="#4dd0e1"/>
          <path id="Trazado_208416" data-name="Trazado 208416" d="M106.53,333.984a50.3,50.3,0,0,0,13.816.062c4.555-.768,8.713-2.525,12.9-4.282a1.527,1.527,0,0,0,.883-.671,1.015,1.015,0,0,0-.318-1.1,2.649,2.649,0,0,0-1.095-.512,23.931,23.931,0,0,0-13.949.83,64.676,64.676,0,0,0-12.236,5.677" transform="translate(-39.629 -276)" fill="#4dd0e1"/>
          <path id="Trazado_208417" data-name="Trazado 208417" d="M76.5,345.084a24.443,24.443,0,0,1-.221-20.234c1.907,2.9,2.136,6.6,1.766,10.055s-1.4,7.018-1.465,10.488" transform="translate(-35.841 -275.774)" fill="#4dd0e1"/>
          <path id="Trazado_208418" data-name="Trazado 208418" d="M59.847,340.61a28.25,28.25,0,0,0-20.967,8.934,19.678,19.678,0,0,0,11.477-2.128,58.478,58.478,0,0,0,9.817-6.586" transform="translate(-31.703 -277.62)" fill="#4dd0e1"/>
          <path id="Trazado_208419" data-name="Trazado 208419" d="M50.481,337.371c-3.831-.309-7.513-.786-11.194.344a13.437,13.437,0,0,0-8.537,7.239,20.252,20.252,0,0,0,10.5-1.986,60.111,60.111,0,0,0,9.234-5.6" transform="translate(-30.75 -277.198)" fill="#4dd0e1"/>
          <path id="Trazado_208420" data-name="Trazado 208420" d="M64.228,336.79c-3.443-2.26-6.974-4.555-10.991-5.491s-8.652-.247-11.477,2.781c3.249,1.907,7.186,2.128,10.947,2.128s8.378-.044,11.927,1.209" transform="translate(-32.04 -276.484)" fill="#4dd0e1"/>
          <path id="Trazado_208421" data-name="Trazado 208421" d="M66.353,334.576c-5.888-5.774-8.122-16.165-5.756-24.066a36.655,36.655,0,0,1,5.756,24.066" transform="translate(-34.138 -274.093)" fill="#4dd0e1"/>
          <path id="Trazado_208422" data-name="Trazado 208422" d="M85.58,316.7c1.1-2.578,1.889-5.3,2.887-7.945a22.75,22.75,0,0,1,4.114-7.257,10.859,10.859,0,0,1,7.292-3.779,29.38,29.38,0,0,1-14.125,19.043" transform="translate(-37.175 -272.595)" fill="#4dd0e1"/>
          <path id="Trazado_208423" data-name="Trazado 208423" d="M80.239,321.712c-1.836-2.534-3.964-5.968-6.453-7.857s-5.738-3.028-8.775-2.3a20.455,20.455,0,0,0,15.229,10.161" transform="translate(-34.764 -274.19)" fill="#4dd0e1"/>
          <path id="Trazado_208424" data-name="Trazado 208424" d="M82.5,316.945a43.8,43.8,0,0,1-2.9-9.411A14.7,14.7,0,0,1,81.072,298c3.231,6.109,4.273,12.669,1.6,19.043" transform="translate(-36.446 -272.628)" fill="#4dd0e1"/>
          <path id="Trazado_208425" data-name="Trazado 208425" d="M85.61,296.283c1.827-6.056,7.38-10.514,13.366-12.563a4.97,4.97,0,0,1,2.339-.353,2.048,2.048,0,0,1,1.766,1.439c.212,1.033-.636,1.96-1.439,2.648a45.332,45.332,0,0,1-16,8.828" transform="translate(-37.178 -270.911)" fill="#4dd0e1"/>
          <path id="Trazado_208426" data-name="Trazado 208426" d="M85.671,289.653c.238-3.911.477-7.866,1.766-11.565s3.717-7.177,7.283-8.828c.6,3.946-1.139,7.866-3.231,11.265s-4.635,6.595-5.888,10.382" transform="translate(-37.177 -269.26)" fill="#4dd0e1"/>
          <path id="Trazado_208427" data-name="Trazado 208427" d="M84.074,292.582c-1.518-4.414-1.669-10.02-4.317-13.86-1.845-2.693-4.8-4.52-6.4-7.372a11.23,11.23,0,0,0,.38,8.369,24.11,24.11,0,0,0,4.882,6.992c1.96,2.092,3.637,3.664,5.456,5.871" transform="translate(-35.668 -269.505)" fill="#4dd0e1"/>
          <path id="Trazado_208428" data-name="Trazado 208428" d="M85.579,425.184c-.115,0-.221-29.442-.23-65.762s.079-65.762.2-65.762.212,29.442.221,65.762S85.694,425.184,85.579,425.184Z" transform="translate(-37.148 -272.119)" fill="#263238"/>
          <path id="Trazado_208429" data-name="Trazado 208429" d="M111.338,342.73a6.292,6.292,0,0,1-1.112.415l-3.046,1.033c-2.569.883-6.1,2.136-9.923,3.708s-7.372,2.949-9.411,4.714a6.974,6.974,0,0,0-1.9,2.5c-.291.7-.344,1.121-.38,1.112s0-.115,0-.309a4.936,4.936,0,0,1,.221-.883,6.612,6.612,0,0,1,1.836-2.648,16.648,16.648,0,0,1,4.087-2.543c1.633-.759,3.443-1.554,5.359-2.34,3.884-1.571,7.416-2.754,10.064-3.637,1.3-.4,2.357-.7,3.09-.883a7.188,7.188,0,0,1,1.112-.238Z" transform="translate(-37.171 -277.869)" fill="#263238"/>
          <path id="Trazado_208430" data-name="Trazado 208430" d="M120.036,319.27a1.916,1.916,0,0,1-.309.327l-.945.883-3.531,3.2-11.742,10.453c-4.582,4.079-8.537,7.945-11.283,10.912-1.377,1.465-2.454,2.648-3.2,3.531l-.883.98q-.291.335-.318.318a2.128,2.128,0,0,1,.256-.38c.177-.23.433-.583.795-1.024.7-.883,1.766-2.128,3.1-3.62A147.008,147.008,0,0,1,103.2,333.827c4.6-4.07,8.828-7.725,11.83-10.364l3.611-3.1,1-.83C119.9,319.349,120.027,319.252,120.036,319.27Z" transform="translate(-37.438 -275.12)" fill="#263238"/>
          <path id="Trazado_208431" data-name="Trazado 208431" d="M100,339.467c-.124-.062.883-2.269,1.766-5.067s1.413-5.147,1.536-5.129a17.179,17.179,0,0,1-1.13,5.3,36.191,36.191,0,0,1-1.43,3.531A5.571,5.571,0,0,1,100,339.467Z" transform="translate(-38.863 -276.292)" fill="#263238"/>
          <path id="Trazado_208432" data-name="Trazado 208432" d="M83.372,358.146a4.98,4.98,0,0,1-.706-.821L80.9,355.012c-1.518-1.969-3.62-4.679-5.977-7.645s-4.52-5.632-6.083-7.557l-1.925-2.286a5.006,5.006,0,0,1-.636-.883,5.412,5.412,0,0,1,.768.768c.468.512,1.139,1.262,1.951,2.2,1.624,1.88,3.831,4.511,6.18,7.486s4.414,5.712,5.88,7.725c.733,1.006,1.315,1.827,1.7,2.4a5.3,5.3,0,0,1,.609.927Z" transform="translate(-34.913 -277.155)" fill="#263238"/>
          <path id="Trazado_208433" data-name="Trazado 208433" d="M78.862,351.618A10.461,10.461,0,0,1,76.5,347.2a12.421,12.421,0,0,1-.53-4.467h.185c-.088.344-.15.521-.177.512a2.861,2.861,0,0,1,0-.539h.185a20.482,20.482,0,0,0,.75,4.344,33.611,33.611,0,0,0,1.951,4.564Z" transform="translate(-36.045 -277.866)" fill="#263238"/>
          <path id="Trazado_208434" data-name="Trazado 208434" d="M69.308,342.176a7.945,7.945,0,0,0-1.651-.962,11.044,11.044,0,0,0-4.582-.362,28.7,28.7,0,0,0-4.617.742,13.34,13.34,0,0,1-1.9.459,6.5,6.5,0,0,1,1.819-.742,20.475,20.475,0,0,1,4.661-.883,9.976,9.976,0,0,1,4.732.512,2.94,2.94,0,0,1,1.536,1.236Z" transform="translate(-33.774 -277.589)" fill="#263238"/>
          <path id="Trazado_208435" data-name="Trazado 208435" d="M66.624,339.541c0,.071-.962-.38-2.525-.883a25.989,25.989,0,0,0-6.3-1.333,26.307,26.307,0,0,0-6.427.327c-1.633.291-2.648.6-2.648.53a2.394,2.394,0,0,1,.671-.291,17.386,17.386,0,0,1,1.907-.53,22.257,22.257,0,0,1,6.524-.459A22.751,22.751,0,0,1,64.2,338.34a15.727,15.727,0,0,1,1.766.821A2.508,2.508,0,0,1,66.624,339.541Z" transform="translate(-32.856 -277.178)" fill="#263238"/>
          <path id="Trazado_208436" data-name="Trazado 208436" d="M85.145,327.555a51.548,51.548,0,0,1-1.845-6.418,51.1,51.1,0,0,1-1.43-6.506,53.42,53.42,0,0,1,1.88,6.418,52.625,52.625,0,0,1,1.395,6.506Z" transform="translate(-36.74 -274.576)" fill="#263238"/>
          <path id="Trazado_208437" data-name="Trazado 208437" d="M85.04,328.349a30.448,30.448,0,0,0-2.048-3.831,16.544,16.544,0,0,0-3-3.108,2.861,2.861,0,0,1,1.156.6,9.12,9.12,0,0,1,2.2,2.26,8.449,8.449,0,0,1,1.7,4.079Z" transform="translate(-36.52 -275.371)" fill="#263238"/>
          <path id="Trazado_208438" data-name="Trazado 208438" d="M82.027,419.156s-.132-.706-.468-1.96A28.3,28.3,0,0,0,79.6,412.1a70.687,70.687,0,0,0-10.47-14.708c-2.331-2.648-4.591-5.173-6.515-7.583a54.34,54.34,0,0,1-4.652-6.709,32.665,32.665,0,0,1-2.348-4.988c-.221-.618-.38-1.095-.459-1.421a2.119,2.119,0,0,1-.124-.512s.247.671.733,1.872a37.267,37.267,0,0,0,2.454,4.891,55.953,55.953,0,0,0,4.705,6.621c1.925,2.384,4.193,4.882,6.524,7.548A65.745,65.745,0,0,1,79.837,411.97a25.6,25.6,0,0,1,1.863,5.191c.132.636.221,1.13.256,1.474a2.11,2.11,0,0,1,.071.521Z" transform="translate(-33.595 -281.788)" fill="#263238"/>
          <path id="Trazado_208439" data-name="Trazado 208439" d="M108.914,395.11a11.205,11.205,0,0,1-1.218.689,25.719,25.719,0,0,0-3.161,2.083,37.474,37.474,0,0,0-4.158,3.787c-1.457,1.545-2.957,3.328-4.485,5.244-3.063,3.84-5.924,7.239-7.645,9.958a36.908,36.908,0,0,0-1.916,3.275,8.889,8.889,0,0,1-.671,1.227.846.846,0,0,1,.115-.344c.115-.221.212-.547.406-.953A30.9,30.9,0,0,1,88,416.713a107.954,107.954,0,0,1,7.557-10.064c1.536-1.924,3.055-3.708,4.538-5.253a34.746,34.746,0,0,1,4.255-3.752,22.117,22.117,0,0,1,3.266-2c.406-.2.733-.327.953-.424A1.351,1.351,0,0,1,108.914,395.11Z" transform="translate(-37.184 -284.006)" fill="#263238"/>
          <path id="Trazado_208440" data-name="Trazado 208440" d="M110.327,404.758a17.276,17.276,0,0,1-2.569.38,33.728,33.728,0,0,0-6.109,1.2,18.46,18.46,0,0,0-5.474,2.869,18.27,18.27,0,0,0-1.916,1.766,2.25,2.25,0,0,1,.388-.591,9.373,9.373,0,0,1,1.342-1.368,16.473,16.473,0,0,1,5.527-3.046,27.167,27.167,0,0,1,6.18-1.095A15.013,15.013,0,0,1,110.327,404.758Z" transform="translate(-38.192 -285.135)" fill="#263238"/>
          <path id="Trazado_208441" data-name="Trazado 208441" d="M95.109,409.542c-.132-.071,1.033-1.845,1.933-4.229s1.042-4.52,1.192-4.494a4.1,4.1,0,0,1-.044,1.377,14.4,14.4,0,0,1-.75,3.258,15.793,15.793,0,0,1-1.492,2.984C95.488,409.163,95.162,409.578,95.109,409.542Z" transform="translate(-38.29 -284.675)" fill="#263238"/>
          <path id="Trazado_208442" data-name="Trazado 208442" d="M116.4,369.2a2.112,2.112,0,0,1-.415.221l-1.209.547c-.53.23-1.174.521-1.9.883s-1.58.759-2.463,1.3l-1.4.795c-.486.283-.971.618-1.483.936-1.033.627-2.075,1.4-3.178,2.189a54.946,54.946,0,0,0-12.209,12.7c-.75,1.139-1.492,2.2-2.083,3.258-.3.521-.618,1.015-.883,1.51s-.512.98-.75,1.439a27.383,27.383,0,0,0-1.209,2.5c-.327.733-.618,1.395-.83,1.933s-.38.883-.512,1.227a1.492,1.492,0,0,1-.2.415,2.2,2.2,0,0,1,.124-.45l.433-1.254c.185-.547.433-1.218.768-1.969s.68-1.624,1.165-2.543c.23-.459.477-.945.724-1.448s.574-1.006.883-1.536c.583-1.077,1.315-2.154,2.057-3.3a52.555,52.555,0,0,1,12.36-12.766c1.121-.795,2.181-1.563,3.231-2.181.521-.318,1.006-.644,1.5-.883l1.43-.777c.883-.521,1.766-.883,2.5-1.245s1.395-.636,1.942-.883l1.236-.477a2.285,2.285,0,0,1,.38-.132Z" transform="translate(-37.185 -280.97)" fill="#263238"/>
          <path id="Trazado_208443" data-name="Trazado 208443" d="M99.63,382.762a2.966,2.966,0,0,1,1.015-1.51,6.365,6.365,0,0,1,4.079-1.563,11.185,11.185,0,0,1,4.291.839,6.18,6.18,0,0,1,1.616.786,9.082,9.082,0,0,1-1.713-.5,13.092,13.092,0,0,0-4.185-.7,6.692,6.692,0,0,0-3.893,1.368,13.516,13.516,0,0,0-1.209,1.28Z" transform="translate(-38.821 -282.199)" fill="#263238"/>
          <path id="Trazado_208444" data-name="Trazado 208444" d="M96.52,385.358a15.185,15.185,0,0,0,1.156-3.761,14.849,14.849,0,0,0-.265-3.937,2.55,2.55,0,0,1,.486,1.1,7.946,7.946,0,0,1,.2,2.878,7.61,7.61,0,0,1-.883,2.763A2.758,2.758,0,0,1,96.52,385.358Z" transform="translate(-38.457 -281.962)" fill="#263238"/>
          <path id="Trazado_208445" data-name="Trazado 208445" d="M62.57,429.64c.636,11.256,4.026,22.7,9.243,34.262h22.68c4.979-11.477,8.131-22.874,8.7-34.262Z" transform="translate(-34.478 -288.052)" fill="#455a64"/>
          <path id="Trazado_208446" data-name="Trazado 208446" d="M99.983,450.232c0,.124-7.46.221-16.677.221s-16.677-.1-16.677-.221,7.469-.212,16.677-.212S99.983,450.117,99.983,450.232Z" transform="translate(-34.954 -290.44)" fill="#fafafa"/>
          <path id="Trazado_208447" data-name="Trazado 208447" d="M99.69,454.852c0,.124-7,.212-15.635.212s-15.635-.088-15.635-.212,7-.212,15.635-.212S99.69,454.737,99.69,454.852Z" transform="translate(-35.164 -290.982)" fill="#fafafa"/>
        </g>
        <g id="freepik--Chart--inject-68" transform="translate(54.24 52.966)">
          <path id="Trazado_208448" data-name="Trazado 208448" d="M256.447,210.641H57.89V53.631l198.68-.371Z" transform="translate(-57.705 -53.075)" fill="#fafafa"/>
          <path id="Trazado_208449" data-name="Trazado 208449" d="M256.422,210.617c0-1.465,0-62.981-.088-157.381l.212.168-198.371.406h-.309l.247-.2V210.617l-.212-.177,198.557.177L57.9,210.785H57.68V53.4h.556l198.371-.353h.212v.177C256.6,147.636,256.431,209.151,256.422,210.617Z" transform="translate(-57.68 -53.05)" fill="#263238"/>
          <path id="Trazado_208450" data-name="Trazado 208450" d="M244.743,202.624H242.06l-7.707.053-28.339.088-93.509.079H71.93v-.256c0-26.714.071-49.685.1-66.009,0-8.131.053-14.611.071-19.069V110.66a4.325,4.325,0,0,1,0,.45c0,.309,0,.75,0,1.315v5.085c0,4.458.044,10.938.071,19.069,0,16.323.062,39.295.1,66.009l-.256-.256h40.319l93.509.079,28.339.088,7.707.053h2Z" transform="translate(-59.35 -59.8)" fill="#263238"/>
          <rect id="Rectángulo_46071" data-name="Rectángulo 46071" width="17.427" height="17.427" transform="translate(26.856 120.117)" fill="#4dd0e1"/>
          <rect id="Rectángulo_46072" data-name="Rectángulo 46072" width="17.427" height="29.893" transform="translate(52.413 107.652)" fill="#4dd0e1"/>
          <rect id="Rectángulo_46073" data-name="Rectángulo 46073" width="17.427" height="44.044" transform="translate(78.068 93.5)" fill="#4dd0e1"/>
          <rect id="Rectángulo_46074" data-name="Rectángulo 46074" width="17.427" height="59.803" transform="translate(102.946 77.742)" fill="#4dd0e1"/>
          <rect id="Rectángulo_46075" data-name="Rectángulo 46075" width="17.427" height="79.984" transform="translate(128.398 57.56)" fill="#4dd0e1"/>
          <rect id="Rectángulo_46076" data-name="Rectángulo 46076" width="17.427" height="94.542" transform="translate(153.656 42.173)" fill="#4dd0e1"/>
          <g id="Grupo_146489" data-name="Grupo 146489" transform="translate(52.413 107.652)" opacity="0.5">
            <rect id="Rectángulo_46077" data-name="Rectángulo 46077" width="17.427" height="29.893" fill="#fff"/>
          </g>
          <g id="Grupo_146490" data-name="Grupo 146490" transform="translate(102.946 77.742)" opacity="0.5">
            <rect id="Rectángulo_46078" data-name="Rectángulo 46078" width="17.427" height="59.803" fill="#fff"/>
          </g>
          <g id="Grupo_146491" data-name="Grupo 146491" transform="translate(153.656 42.173)" opacity="0.5">
            <rect id="Rectángulo_46079" data-name="Rectángulo 46079" width="17.427" height="94.542" fill="#fff"/>
          </g>
          <path id="Trazado_208451" data-name="Trazado 208451" d="M88.1,158.468a1.341,1.341,0,0,1,.23-.168l.68-.468,2.648-1.766,9.994-6.577,34.589-22.609.4-.265V134.9l-.415-.221,13.631-9.137L197.959,93.4l14.611-9.711,3.99-2.648,1.042-.662a1.924,1.924,0,0,1,.371-.212,3.158,3.158,0,0,1-.335.256l-1.015.715-3.937,2.648L198.18,93.7l-48.008,32.267-13.6,9.128-.415.283v-8.307l.4.221-34.722,22.468-10.073,6.462-2.7,1.7-.706.433A1.352,1.352,0,0,1,88.1,158.468Z" transform="translate(-61.244 -56.228)" fill="#263238"/>
          <path id="Trazado_208452" data-name="Trazado 208452" d="M234.058,87.546a8.157,8.157,0,0,1-.185-2.145c-.053-1.333-.079-3.187-.088-5.3l.274.274h-.671c-2.234,0-4.255,0-5.712-.079A10.285,10.285,0,0,1,225.3,80.1a10.665,10.665,0,0,1,2.384-.115c1.457-.053,3.478-.079,5.712-.079h.936v.265c0,2.083,0,3.937-.088,5.3a8.989,8.989,0,0,1-.185,2.075Z" transform="translate(-77.321 -56.197)" fill="#263238"/>
          <path id="Trazado_208453" data-name="Trazado 208453" d="M91.247,104.45s-2.075,19.246.574,29.787l25.717-1.13s-5.509-18.981-2.128-27.368Z" transform="translate(-61.523 -59.073)" fill="#ebebeb"/>
          <path id="Trazado_208454" data-name="Trazado 208454" d="M91.47,103.75s.177,20.782,1.227,27.12l26.07-1.236s-2.3-20.429-1.413-25.884Z" transform="translate(-61.639 -58.991)" fill="#4dd0e1"/>
          <path id="Trazado_208455" data-name="Trazado 208455" d="M114.019,113.636c0,.088-3.9.406-8.731.7s-8.749.45-8.758.353,3.9-.415,8.731-.706S114.01,113.539,114.019,113.636Z" transform="translate(-62.232 -60.146)" fill="#fff"/>
          <path id="Trazado_208456" data-name="Trazado 208456" d="M114.029,118.616c0,.1-3.9.406-8.731.7s-8.758.45-8.758.353,3.9-.406,8.731-.7S114.02,118.519,114.029,118.616Z" transform="translate(-62.233 -60.729)" fill="#fff"/>
          <path id="Trazado_208457" data-name="Trazado 208457" d="M110.006,123.514a6.26,6.26,0,0,1-1.448.2c-.883.088-2.145.185-3.531.265s-2.648.141-3.531.159a5.658,5.658,0,0,1-1.465,0,6.409,6.409,0,0,1,1.457-.2c.883-.088,2.145-.185,3.531-.265s2.648-.141,3.531-.159A5.614,5.614,0,0,1,110.006,123.514Z" transform="translate(-62.642 -61.301)" fill="#fff"/>
          <path id="Trazado_208458" data-name="Trazado 208458" d="M156.128,76.864c0,.15-15.246.265-34.051.265S88,77.014,88,76.864s15.238-.274,34.042-.274S156.128,76.714,156.128,76.864Z" transform="translate(-61.233 -55.808)" fill="#263238"/>
          <path id="Trazado_208459" data-name="Trazado 208459" d="M112.97,83.894c0,.15-5.721.265-12.766.265s-12.774-.115-12.774-.265,5.721-.274,12.774-.274S112.97,83.744,112.97,83.894Z" transform="translate(-61.166 -56.632)" fill="#263238"/>
          <path id="Trazado_208460" data-name="Trazado 208460" d="M130.415,83.894a22.738,22.738,0,0,1-4.917.265,22.737,22.737,0,0,1-4.917-.265,22.38,22.38,0,0,1,4.917-.274A22.38,22.38,0,0,1,130.415,83.894Z" transform="translate(-65.05 -56.632)" fill="#263238"/>
        </g>
        <g id="freepik--character-1--inject-68" transform="translate(263.289 89.856)">
          <path id="Trazado_208461" data-name="Trazado 208461" d="M349.5,415.69l22.388,18.363L349.182,462.03c-2.534-2.331,3.84-21.188,3.84-21.188L338.2,429.665Z" transform="translate(-299.599 -132.432)" fill="#4dd0e1"/>
          <g id="Grupo_146492" data-name="Grupo 146492" transform="translate(58.663 298.553)" opacity="0.6">
            <path id="Trazado_208462" data-name="Trazado 208462" d="M361.486,433.267a1.483,1.483,0,0,1,1.951.265,1.43,1.43,0,0,1-.247,1.933,1.572,1.572,0,0,1-2.066-.291,1.466,1.466,0,0,1,.486-1.978" transform="translate(-360.924 -433.015)" fill="#fff"/>
          </g>
          <g id="Grupo_146493" data-name="Grupo 146493" transform="translate(49.028 299.687)" opacity="0.6">
            <path id="Trazado_208463" data-name="Trazado 208463" d="M373.175,436.163l-2.251-1.863-20.808,27.73s-.459,1.686.539,2.251Z" transform="translate(-350.011 -434.3)" fill="#fff"/>
          </g>
          <path id="Trazado_208464" data-name="Trazado 208464" d="M354.407,444.384c.141.106.75-.53,1.766-.883s1.845-.2,1.9-.38-.883-.6-2.092-.2S354.257,444.3,354.407,444.384Z" transform="translate(-301.495 -135.603)" fill="#263238"/>
          <path id="Trazado_208465" data-name="Trazado 208465" d="M353.078,448.885c.106.141.821-.265,1.766-.256s1.677.371,1.766.23-.6-.883-1.766-.839S352.955,448.805,353.078,448.885Z" transform="translate(-301.34 -136.22)" fill="#263238"/>
          <path id="Trazado_208466" data-name="Trazado 208466" d="M355.1,453.994c.132-.1-.4-.883-1.43-1.1s-1.854.141-1.766.291.786.079,1.633.309S354.981,454.118,355.1,453.994Z" transform="translate(-301.204 -136.783)" fill="#263238"/>
          <path id="Trazado_208467" data-name="Trazado 208467" d="M350.891,440.914c.168,0,.494-.742,1.165-1.465s1.413-1.139,1.36-1.307-1.024,0-1.81.883S350.732,440.888,350.891,440.914Z" transform="translate(-301.078 -135.056)" fill="#263238"/>
          <path id="Trazado_208468" data-name="Trazado 208468" d="M347.7,436.719a3.841,3.841,0,0,0,1.13-1.4,8.183,8.183,0,0,0,.742-1.836,8.832,8.832,0,0,0,.23-1.148,2.209,2.209,0,0,0,0-.689.75.75,0,0,0-.671-.653.945.945,0,0,0-.8.344,2.189,2.189,0,0,0-.353.583,6.541,6.541,0,0,0-.406,1.112,6.241,6.241,0,0,0-.2,1.978,3.081,3.081,0,0,0,.468,1.766c.1,0-.071-.689,0-1.766a7.47,7.47,0,0,1,.309-1.819,6.857,6.857,0,0,1,.406-1.006c.168-.362.371-.618.556-.583s.1,0,.132.159a1.623,1.623,0,0,1,0,.5,8.2,8.2,0,0,1-.177,1.086,10.727,10.727,0,0,1-.583,1.766,13.428,13.428,0,0,0-.777,1.607Z" transform="translate(-300.672 -134.225)" fill="#263238"/>
          <path id="Trazado_208469" data-name="Trazado 208469" d="M347.411,437.072c.062,0-.212-.7-1.059-1.466a5.888,5.888,0,0,0-1.686-1.059,6.337,6.337,0,0,0-1.139-.335,1.5,1.5,0,0,0-1.43.327.83.83,0,0,0-.088.883,2.375,2.375,0,0,0,.4.556,3.841,3.841,0,0,0,.945.768,4.043,4.043,0,0,0,1.933.574,2.427,2.427,0,0,0,1.766-.441,14.678,14.678,0,0,1-1.766,0,4.414,4.414,0,0,1-1.677-.627,4.071,4.071,0,0,1-.786-.689c-.256-.283-.406-.591-.291-.671a1.024,1.024,0,0,1,.883-.124,6.294,6.294,0,0,1,2.648,1.139C346.935,436.569,347.332,437.125,347.411,437.072Z" transform="translate(-300.034 -134.595)" fill="#263238"/>
          <path id="Trazado_208470" data-name="Trazado 208470" d="M357.457,435.659l-.238,28.948-36.028-.15c.23-3.443,18.9-10.267,18.9-10.267L339.5,435.65Z" transform="translate(-297.605 -134.771)" fill="#4dd0e1"/>
          <g id="Grupo_146494" data-name="Grupo 146494" transform="translate(51.853 317.877)" opacity="0.6">
            <path id="Trazado_208471" data-name="Trazado 208471" d="M354.949,454.927a1.483,1.483,0,0,1,1.015,1.686,1.413,1.413,0,0,1-1.66,1.015,1.554,1.554,0,0,1-1.068-1.766,1.474,1.474,0,0,1,1.845-.883" transform="translate(-353.211 -454.905)" fill="#fff"/>
          </g>
          <g id="Grupo_146495" data-name="Grupo 146495" transform="translate(23.534 326.799)" opacity="0.6">
            <path id="Trazado_208472" data-name="Trazado 208472" d="M357.211,467.932V465.01l-34.642,1.174s-1.607.706-1.421,1.836Z" transform="translate(-321.133 -465.01)" fill="#fff"/>
          </g>
          <path id="Trazado_208473" data-name="Trazado 208473" d="M341.89,456.418c0,.177.883.256,1.766.83s1.324,1.307,1.483,1.236-.088-1.086-1.148-1.766S341.855,456.25,341.89,456.418Z" transform="translate(-300.031 -137.185)" fill="#263238"/>
          <path id="Trazado_208474" data-name="Trazado 208474" d="M337.61,458.181c-.044.168.715.468,1.315,1.218s.759,1.536.936,1.527.291-1-.468-1.916S337.61,458.013,337.61,458.181Z" transform="translate(-299.529 -137.403)" fill="#263238"/>
          <path id="Trazado_208475" data-name="Trazado 208475" d="M334.971,462.9c.159,0,.415-.839,0-1.766s-1.271-1.36-1.342-1.209.433.662.786,1.465S334.839,462.884,334.971,462.9Z" transform="translate(-299.062 -137.612)" fill="#263238"/>
          <path id="Trazado_208476" data-name="Trazado 208476" d="M342.269,451.543c.079.159.883-.079,1.88,0s1.766.388,1.863.238-.653-.777-1.827-.883S342.19,451.4,342.269,451.543Z" transform="translate(-300.075 -136.556)" fill="#263238"/>
          <path id="Trazado_208477" data-name="Trazado 208477" d="M343.27,446.408a3.373,3.373,0,0,0,1.766,0,8.2,8.2,0,0,0,1.889-.574,7.393,7.393,0,0,0,1.042-.547,2.358,2.358,0,0,0,.547-.415.759.759,0,0,0,.079-.936.883.883,0,0,0-.768-.406,2.012,2.012,0,0,0-.68.088,6.967,6.967,0,0,0-1.121.38,6.5,6.5,0,0,0-1.669,1.086c-.883.768-1.121,1.421-1.068,1.457s.494-.486,1.342-1.121a7.258,7.258,0,0,1,1.616-.883,6.234,6.234,0,0,1,1.042-.318c.38-.1.706-.1.8.071s0,.088,0,.2a1.766,1.766,0,0,1-.4.309,10.048,10.048,0,0,1-2.71,1.2A11.477,11.477,0,0,0,343.27,446.408Z" transform="translate(-300.193 -135.694)" fill="#263238"/>
          <path id="Trazado_208478" data-name="Trazado 208478" d="M343.218,446.32a2.913,2.913,0,0,0,.477-1.766,5.642,5.642,0,0,0-.238-1.978,6.048,6.048,0,0,0-.45-1.1,1.5,1.5,0,0,0-1.148-.883.883.883,0,0,0-.759.494,2.807,2.807,0,0,0-.185.662,4.033,4.033,0,0,0,0,1.218,4.14,4.14,0,0,0,.768,1.863c.7.936,1.43,1.156,1.448,1.095a7.621,7.621,0,0,1-1.086-1.333,4.044,4.044,0,0,1-.565-1.7,3.772,3.772,0,0,1,0-1.042c.053-.388.2-.7.344-.653a1.335,1.335,0,0,1,.627.591,5.3,5.3,0,0,1,.441.98,6.118,6.118,0,0,1,.344,1.766C343.306,445.631,343.121,446.293,343.218,446.32Z" transform="translate(-299.911 -135.35)" fill="#263238"/>
          <path id="Trazado_208479" data-name="Trazado 208479" d="M355.862,245.71s5.041,5.412,7.522,10.594,4.07,17.542,4.07,17.542,6.974,15.529,5.915,23.474S365.2,359.6,365.2,359.6s.353,52.82-4.679,62.239l-1.121,5.1L339.1,423.335h0l-1.148-2.79-3.09-103.838-12.66-70.52Z" transform="translate(-297.724 -112.515)" fill="#0f2771"/>
          <path id="Trazado_208480" data-name="Trazado 208480" d="M349.8,266.953a2.72,2.72,0,0,0,.132-.83c.062-.53.1-1.307.106-2.269a66.863,66.863,0,0,0-.441-7.478c-.335-2.825-.627-5.376-.883-7.425a26.683,26.683,0,0,0-.4-3.072,16.065,16.065,0,0,0,.044,3.108c.124,1.907.415,4.538.724,7.442s.53,5.527.592,7.425A22.99,22.99,0,0,0,349.8,266.953Z" transform="translate(-300.777 -112.535)" fill="#455a64"/>
          <path id="Trazado_208481" data-name="Trazado 208481" d="M345.71,254.459a13.242,13.242,0,0,0,1.015-4.2,13.41,13.41,0,0,0,.115-4.317,33.457,33.457,0,0,0-.6,4.255,35.769,35.769,0,0,0-.53,4.264Z" transform="translate(-300.479 -112.542)" fill="#455a64"/>
          <path id="Trazado_208482" data-name="Trazado 208482" d="M330.936,250.617a2.289,2.289,0,0,1,.786-1.165,1.474,1.474,0,0,1,1.386-.141,1.439,1.439,0,0,1,0,2.693,1.492,1.492,0,0,1-1.386-.185c-.706-.53-.653-1.227-.742-1.2s-.079.15-.044.433a1.624,1.624,0,0,0,.574,1.033,1.766,1.766,0,0,0,1.766.353,1.88,1.88,0,0,0,.062-3.531,1.766,1.766,0,0,0-1.766.283,1.633,1.633,0,0,0-.609,1.015C330.865,250.467,330.909,250.617,330.936,250.617Z" transform="translate(-298.743 -112.875)" fill="#455a64"/>
          <path id="Trazado_208483" data-name="Trazado 208483" d="M338.167,380.65a2,2,0,0,0,0,.565v1.624c0,1.413,0,3.452.1,5.977.115,5.041.388,12,.724,19.678s.556,14.646.662,19.687c.053,2.472.088,4.494.124,5.968,0,.662,0,1.2.044,1.624a4.063,4.063,0,0,0,.044.565,2.373,2.373,0,0,0,.053-.565v-1.624c0-1.413.044-3.452,0-5.977,0-5.041-.185-12.006-.521-19.7s-.644-14.584-.883-19.678c-.106-2.463-.185-4.485-.256-5.959,0-.662-.062-1.2-.079-1.624A3.608,3.608,0,0,0,338.167,380.65Z" transform="translate(-299.592 -128.327)" fill="#455a64"/>
          <path id="Trazado_208484" data-name="Trazado 208484" d="M305.649,260.054s-9.994,67.978-11.062,79.6,40.257,72.78,40.257,72.78l18.9-19.678-27.12-50.427,8.828-50.815-12.254-44.9-15.953-.247Z" transform="translate(-294.486 -112.592)" fill="#0f2771"/>
          <path id="Trazado_208485" data-name="Trazado 208485" d="M364.676,410.7a10.882,10.882,0,0,1-.15,1.483c-.15.971-.362,2.392-.7,4.229-.68,3.681-1.766,9.014-3.24,15.679v.141h-.141L340.142,428.7h-.159v-.159c-.565-13.94-1.245-30.6-1.969-48.467-.75-19.228-1.439-37.079-2.013-51.681h0c-1.518-11.75-2.781-21.461-3.664-28.25-.424-3.381-.759-6.03-.989-7.857-.106-.883-.185-1.58-.247-2.066a6.383,6.383,0,0,1-.062-.706s.053.238.124.7.168,1.174.3,2.057c.256,1.827.618,4.476,1.095,7.848l3.823,28.25h0c.591,14.62,1.315,32.444,2.092,51.672.7,17.868,1.351,34.527,1.9,48.467l-.159-.177,20.305,3.646-.168.115c1.51-6.657,2.648-11.98,3.372-15.644.362-1.836.627-3.258.777-4.22.079-.477.132-.883.159-1.095A3.7,3.7,0,0,1,364.676,410.7Z" transform="translate(-298.76 -117.647)" fill="#263238"/>
          <path id="Trazado_208486" data-name="Trazado 208486" d="M377.12,161.76a39.33,39.33,0,0,1,8.828,11.689c2.975,6.091,21.144,41.422,18.628,45.263s-9.923,7.063-10.665,6.957-14.664-8.484-14.664-8.484-8.661-27.632-8.758-27.7S377.12,161.76,377.12,161.76Z" transform="translate(-303.382 -102.678)" fill="#e0e0e0"/>
          <path id="Trazado_208487" data-name="Trazado 208487" d="M297.534,215s-3.417,51.08-3.028,53.773,7.151,15.847,7.151,15.847l4.529-15.423-3.69-7.486,5.977-42.084Z" transform="translate(-294.475 -108.917)" fill="#b78876"/>
          <path id="Trazado_208488" data-name="Trazado 208488" d="M321.459,157.48l7.266-1.13s-.344,13,10.921,13.463c12.792.53,15.008-13.136,15.008-13.136s12.36,2.278,14.62,4.361-8.466,56.616-8.466,56.616l1.024,35.216s-13.7,6.877-29.734,7.063a35.074,35.074,0,0,1-25.319-10.409l-2.957-7.636,5.6-28.25Z" transform="translate(-295.57 -102.044)" fill="#feca2e"/>
          <path id="Trazado_208489" data-name="Trazado 208489" d="M320.592,157.91s-8.961,2.648-11.68,6.286-12.492,45.245-12.492,45.245l12.086,4.644Z" transform="translate(-294.703 -102.227)" fill="#feca2e"/>
          <path id="Trazado_208490" data-name="Trazado 208490" d="M316.264,173.78a1.767,1.767,0,0,1,0,.45,11.482,11.482,0,0,1-.177,1.262c-.177,1.165-.424,2.728-.715,4.635-.618,3.982-1.457,9.349-2.375,15.291s-1.669,11.335-2.251,15.317c-.283,1.907-.512,3.469-.68,4.635l-.212,1.262c-.044.291-.079.441-.1.433a1.669,1.669,0,0,1,0-.441c0-.344.071-.768.124-1.271.106-1.1.291-2.693.53-4.661.486-3.937,1.218-9.358,2.119-15.344s1.81-11.371,2.516-15.273c.344-1.951.644-3.531.883-4.617.1-.494.185-.883.256-1.245A1.5,1.5,0,0,1,316.264,173.78Z" transform="translate(-296.264 -104.087)" fill="#263238"/>
          <path id="Trazado_208491" data-name="Trazado 208491" d="M348.389,198.5a9.528,9.528,0,0,1-.8,1.139,37.614,37.614,0,0,1-2.4,2.94,61.683,61.683,0,0,1-19.943,15.008c-1.448.68-2.648,1.192-3.487,1.5a9.386,9.386,0,0,1-1.324.441,8.19,8.19,0,0,1,1.254-.609c.821-.362,1.986-.883,3.417-1.624a68.605,68.605,0,0,0,19.837-14.9c1.086-1.174,1.942-2.145,2.516-2.834A6.691,6.691,0,0,1,348.389,198.5Z" transform="translate(-297.516 -106.983)" fill="#263238"/>
          <path id="Trazado_208492" data-name="Trazado 208492" d="M315.469,175.172c-.053.124-1.722-.53-3.831-1.121A29.682,29.682,0,0,1,307.78,173,16.341,16.341,0,0,1,315.469,175.172Z" transform="translate(-296.034 -103.995)" fill="#455a64"/>
          <path id="Trazado_208493" data-name="Trazado 208493" d="M369.775,180.128a2.438,2.438,0,0,1-.547,0l-1.563-.071-5.712-.318-18.866-1.28c-7.372-.574-14.037-1.024-18.875-1.121-2.41-.062-4.37-.071-5.721-.062h-1.563a2.118,2.118,0,0,1-.539,0,1.942,1.942,0,0,1,.539-.071c.353,0,.883-.062,1.554-.088,1.351-.062,3.319-.106,5.738-.088,4.847,0,11.53.415,18.9.989l18.857,1.413,5.712.477,1.554.159a2.224,2.224,0,0,1,.53.062Z" transform="translate(-297.043 -104.467)" fill="#455a64"/>
          <path id="Trazado_208494" data-name="Trazado 208494" d="M313.318,186.352a22.635,22.635,0,0,1-4.414-.362,21.974,21.974,0,0,1-4.414-.821,21.848,21.848,0,0,1,4.414.362A21.248,21.248,0,0,1,313.318,186.352Z" transform="translate(-295.649 -105.421)" fill="#455a64"/>
          <path id="Trazado_208495" data-name="Trazado 208495" d="M366.861,196.192a1.765,1.765,0,0,1-.539,0l-1.527-.062c-1.333-.071-3.258-.185-5.641-.353-4.75-.335-11.327-.883-18.539-1.969-3.6-.547-7.01-1.2-10.1-1.766s-5.888-1.059-8.254-1.342-4.282-.38-5.606-.415-2.066,0-2.075-.053a2.384,2.384,0,0,1,.539-.062c.353,0,.883-.062,1.536-.062a47.018,47.018,0,0,1,5.65.274c2.375.238,5.182.68,8.281,1.245s6.506,1.209,10.1,1.766c7.177,1.095,13.737,1.686,18.478,2.1l5.624.494,1.527.159a2.763,2.763,0,0,1,.547.044Z" transform="translate(-296.831 -106)" fill="#455a64"/>
          <path id="Trazado_208496" data-name="Trazado 208496" d="M335.627,210.255a4.582,4.582,0,0,1-.945,0c-.6,0-1.474-.124-2.551-.23-2.145-.212-5.112-.565-8.378-1.015s-6.18-.883-8.343-1.307c-1.059-.185-1.916-.353-2.507-.477a4.281,4.281,0,0,1-.883-.238,3.477,3.477,0,0,1,.945.062l2.534.335,8.352,1.174,8.36,1.148,2.525.371a3.274,3.274,0,0,1,.892.177Z" transform="translate(-296.531 -107.977)" fill="#455a64"/>
          <path id="Trazado_208497" data-name="Trazado 208497" d="M366.385,217.348a5.247,5.247,0,0,1-1.183-.044l-3.213-.291c-2.71-.265-6.453-.662-10.594-1.13s-7.866-.883-10.594-1.271l-3.2-.441a5.536,5.536,0,0,1-1.165-.221,7.061,7.061,0,0,1,1.183.044l3.214.291c2.7.265,6.445.671,10.594,1.139s7.857.883,10.594,1.271l3.2.433A6.867,6.867,0,0,1,366.385,217.348Z" transform="translate(-299.392 -108.793)" fill="#455a64"/>
          <path id="Trazado_208498" data-name="Trazado 208498" d="M361.8,233.777a2.066,2.066,0,0,1-.538-.053l-1.527-.247-5.606-.989c-4.732-.812-11.283-1.969-18.539-2.7-3.646-.362-7.133-.583-10.3-.644s-6.039,0-8.44,0-4.361-.106-5.7-.23c-.671-.062-1.183-.115-1.536-.168a3.962,3.962,0,0,1-.538-.1,2.208,2.208,0,0,1,.547,0l1.545.088c1.342.062,3.284.106,5.685.079s5.3-.124,8.449-.079,6.683.247,10.338.609c7.31.733,13.86,1.942,18.583,2.843,2.357.459,4.264.883,5.579,1.13l1.51.327A2.483,2.483,0,0,1,361.8,233.777Z" transform="translate(-296.185 -110.514)" fill="#455a64"/>
          <path id="Trazado_208499" data-name="Trazado 208499" d="M361.653,252.41a2.514,2.514,0,0,1-.565.106c-.38.062-.936.124-1.651.177a34.138,34.138,0,0,1-6.1-.168c-5.147-.521-12.024-2.366-19.767-3.531s-14.8-2.092-19.872-2.887a56.106,56.106,0,0,1-5.994-1.095,12.1,12.1,0,0,1-1.571-.547,2.3,2.3,0,0,1-.512-.265,2.949,2.949,0,0,1,.547.177,15.957,15.957,0,0,0,1.554.53c1.386.344,3.452.592,5.994.945,5.085.706,12.139,1.536,19.9,2.754s14.646,3.037,19.731,3.628a38.592,38.592,0,0,0,6.056.318C360.858,252.472,361.644,252.357,361.653,252.41Z" transform="translate(-295.781 -112.338)" fill="#455a64"/>
          <path id="Trazado_208500" data-name="Trazado 208500" d="M311.547,200.746a34.2,34.2,0,0,1-5.509-.733,33.669,33.669,0,0,1-5.438-1.183,67.432,67.432,0,0,1,10.947,1.916Z" transform="translate(-295.193 -107.022)" fill="#455a64"/>
          <path id="Trazado_208501" data-name="Trazado 208501" d="M309.481,214.872a.975.975,0,0,1-.512,0,4.458,4.458,0,0,1-1.3-.45l-3.99-1.916c-3.125-1.492-5.694-2.648-5.641-2.746a7.063,7.063,0,0,1,1.766.565c1.059.406,2.507,1.015,4.079,1.766s2.957,1.474,3.946,2.039a6.505,6.505,0,0,0,1.651.742Z" transform="translate(-294.893 -108.303)" fill="#455a64"/>
          <path id="Trazado_208502" data-name="Trazado 208502" d="M306,258.75a2.779,2.779,0,0,1,.565.115l1.589.415c1.377.353,3.39.83,5.888,1.3s5.509.883,8.828,1.245,7.063.512,10.947.786c7.769.556,14.814.883,19.917.715,2.543-.062,4.6-.23,6.021-.344l1.633-.159a2.426,2.426,0,0,1,.583,0,2.79,2.79,0,0,1-.565.115c-.371.062-.883.15-1.633.247-1.413.168-3.478.388-6.03.494a181.544,181.544,0,0,1-19.961-.583c-3.876-.274-7.592-.459-10.956-.83s-6.374-.83-8.881-1.342-4.5-1.033-5.88-1.448c-.68-.194-1.209-.371-1.563-.494A3.529,3.529,0,0,1,306,258.75Z" transform="translate(-295.826 -114.043)" fill="#455a64"/>
          <path id="Trazado_208503" data-name="Trazado 208503" d="M301.51,275.145q3.937,5.88,8.069,11.636c.124.159.265.335.468.335s.406-.309.468-.565a8.828,8.828,0,0,0-.68-5.014,39.235,39.235,0,0,1-1.827-4.785c-.415-1.722-.406-3.531-1.148-5.182-.406-.883-.962-1.669-1.377-2.534a5.932,5.932,0,0,0-3-3.046" transform="translate(-295.299 -114.891)" fill="#b78876"/>
          <path id="Trazado_208504" data-name="Trazado 208504" d="M375.3,183.58a9.884,9.884,0,0,1-.177,1.448l-.653,3.911c-.565,3.3-1.377,7.857-2.313,12.889s-1.766,9.579-2.445,12.863c-.318,1.58-.583,2.887-.786,3.884a10.11,10.11,0,0,1-.353,1.413,8.625,8.625,0,0,1,.177-1.448c.168-1,.38-2.322.644-3.911.574-3.3,1.386-7.857,2.313-12.889s1.766-9.57,2.445-12.854c.318-1.58.591-2.9.795-3.893A7.943,7.943,0,0,1,375.3,183.58Z" transform="translate(-303.157 -105.235)" fill="#263238"/>
          <path id="Trazado_208505" data-name="Trazado 208505" d="M391.312,186.81a13.3,13.3,0,0,1-2.384.839c-1.483.45-3.531,1.059-5.835,1.7s-4.37,1.192-5.88,1.571a13.527,13.527,0,0,1-2.463.521,13.3,13.3,0,0,1,2.384-.883c1.483-.45,3.531-1.059,5.836-1.7s4.361-1.192,5.871-1.571a13.524,13.524,0,0,1,2.472-.477Z" transform="translate(-303.881 -105.614)" fill="#455a64"/>
          <path id="Trazado_208506" data-name="Trazado 208506" d="M399.965,205.15a2.648,2.648,0,0,1-.8.477,12.359,12.359,0,0,1-2.428.795c-2.11.468-5.006,1.015-8.184,1.766s-6.047,1.483-8.113,2.039l-2.454.653a3.532,3.532,0,0,1-.883.194,3.434,3.434,0,0,1,.883-.362c.565-.2,1.395-.477,2.419-.795,2.048-.636,4.9-1.439,8.1-2.181s6.118-1.254,8.219-1.633a15.522,15.522,0,0,0,2.428-.644A4.919,4.919,0,0,1,399.965,205.15Z" transform="translate(-304.157 -107.763)" fill="#455a64"/>
          <path id="Trazado_208507" data-name="Trazado 208507" d="M382.372,221.535,369.13,256.08l3.752,14.47,23.836-39.771S388.208,220.775,382.372,221.535Z" transform="translate(-303.223 -109.678)" fill="#b78876"/>
          <path id="Trazado_208508" data-name="Trazado 208508" d="M367.858,259.94,356.09,278.7l.274,4.829,14.973,6.356,1.086-17.833Z" transform="translate(-301.695 -114.182)" fill="#b78876"/>
          <path id="Trazado_208509" data-name="Trazado 208509" d="M374.391,294.793c0,.062-1.218-.759-3.284-1.766a17.652,17.652,0,0,0-1.721-.742c-.618-.238-1.333-.406-2.066-.636a44.3,44.3,0,0,1-4.688-1.766c-3.24-1.439-6.091-2.869-8.175-3.876L352,284.773a4.908,4.908,0,0,1-.883-.5,3.531,3.531,0,0,1,.953.344l2.507,1.095,8.228,3.752c1.616.7,3.187,1.28,4.635,1.766.715.247,1.421.424,2.066.689a16.1,16.1,0,0,1,1.766.8,23.255,23.255,0,0,1,2.348,1.43A3.777,3.777,0,0,1,374.391,294.793Z" transform="translate(-301.112 -117.033)" fill="#263238"/>
          <path id="Trazado_208510" data-name="Trazado 208510" d="M318.79,116.823c0-6.109,7.133-16.986,13.242-16.774l15.644,6.7a3.593,3.593,0,0,1,3.434,3.417l1.554,41.643a10.991,10.991,0,0,1-10.488,11.4h0a11.247,11.247,0,0,1-11.653-10.329c-.2-2.957-.256-6.356-.256-6.339s-7.857-.786-10.126-10.823C318.975,130.754,318.8,123.612,318.79,116.823Z" transform="translate(-297.324 -95.447)" fill="#b78876"/>
          <path id="Trazado_208511" data-name="Trazado 208511" d="M321.89,126.964a1.315,1.315,0,0,0,1.342,1.236,1.245,1.245,0,0,0,1.262-1.262,1.3,1.3,0,0,0-1.333-1.227,1.236,1.236,0,0,0-1.271,1.254Z" transform="translate(-297.687 -98.454)" fill="#263238"/>
          <path id="Trazado_208512" data-name="Trazado 208512" d="M321.125,123.585c.177.159,1.112-.636,2.516-.724s2.472.547,2.648.371-.115-.38-.583-.68a3.69,3.69,0,0,0-2.11-.5,3.443,3.443,0,0,0-1.978.786C321.169,123.2,321.01,123.514,321.125,123.585Z" transform="translate(-297.594 -98.024)" fill="#263238"/>
          <path id="Trazado_208513" data-name="Trazado 208513" d="M337,126.362a1.307,1.307,0,0,0,1.333,1.236,1.254,1.254,0,0,0,1.271-1.262,1.315,1.315,0,0,0-1.342-1.236A1.236,1.236,0,0,0,337,126.362Z" transform="translate(-299.458 -98.383)" fill="#263238"/>
          <path id="Trazado_208514" data-name="Trazado 208514" d="M336.737,122.866c.177.159,1.112-.636,2.507-.715s2.472.547,2.648.362-.115-.38-.583-.671a3.531,3.531,0,0,0-2.1-.5,3.443,3.443,0,0,0-1.986.786C336.781,122.477,336.648,122.8,336.737,122.866Z" transform="translate(-299.424 -97.941)" fill="#263238"/>
          <path id="Trazado_208515" data-name="Trazado 208515" d="M331.269,133.647a9.6,9.6,0,0,0-2.3-.256c-.353,0-.7-.062-.777-.309a1.872,1.872,0,0,1,.168-1.068l.883-2.79c1.218-3.973,2.075-7.23,1.916-7.274a47.79,47.79,0,0,0-2.5,7.063l-.83,2.807a2.013,2.013,0,0,0-.1,1.413.883.883,0,0,0,.618.486,2.65,2.65,0,0,0,.618.044A8.661,8.661,0,0,0,331.269,133.647Z" transform="translate(-298.362 -98.014)" fill="#263238"/>
          <path id="Trazado_208516" data-name="Trazado 208516" d="M331.63,152.142a25.84,25.84,0,0,0,13.348-4.5s-2.975,7.186-13.189,6.895Z" transform="translate(-298.829 -101.024)" fill="#aa6550"/>
          <path id="Trazado_208517" data-name="Trazado 208517" d="M332.661,138.857a2.5,2.5,0,0,1,2.2-1.077,2.269,2.269,0,0,1,1.642.742,1.457,1.457,0,0,1,.221,1.669,1.7,1.7,0,0,1-1.766.583,5.3,5.3,0,0,1-1.863-.953,1.624,1.624,0,0,1-.424-.388.468.468,0,0,1,0-.521" transform="translate(-298.941 -99.868)" fill="#aa6550"/>
          <path id="Trazado_208518" data-name="Trazado 208518" d="M335.93,136c-.229,0-.132,1.518-1.368,2.648s-2.86,1.1-2.852,1.315.38.274,1.059.247a3.814,3.814,0,0,0,2.392-1.015,3.284,3.284,0,0,0,1.042-2.242C336.221,136.353,336.027,136,335.93,136Z" transform="translate(-298.838 -99.66)" fill="#263238"/>
          <path id="Trazado_208519" data-name="Trazado 208519" d="M336.049,118.289c.159.371,1.545.1,3.2.185s3.019.459,3.214.1c.088-.168-.168-.512-.724-.883a5.544,5.544,0,0,0-4.891-.221C336.261,117.8,336.005,118.113,336.049,118.289Z" transform="translate(-299.346 -97.434)" fill="#263238"/>
          <path id="Trazado_208520" data-name="Trazado 208520" d="M321.414,118.945c.265.3,1.209-.088,2.366-.177s2.154.071,2.366-.274c.088-.168-.088-.477-.539-.75a3.249,3.249,0,0,0-1.96-.4,3.328,3.328,0,0,0-1.854.759C321.405,118.46,321.3,118.8,321.414,118.945Z" transform="translate(-297.627 -97.472)" fill="#263238"/>
          <path id="Trazado_208521" data-name="Trazado 208521" d="M328.488,148.268l-.194-2.313s-4.414-1.112-6.709-3.946c-2.746-3.328-4.37-10.258-3.84-14.54.468-3.761.071-8.908,6.109-10.258,2.648-.6,2.119-5.394,3.531-7.945,1.448-2.648,1.218-3.531,4.211-4.123a31.72,31.72,0,0,1,8.749.088c-.883.742-1.51,1.58-1.36,2.331a18.792,18.792,0,0,0,2.348,4.282,20.852,20.852,0,0,1,3.673,10.594c.265,4.344-.839,8.661-2.216,12.783s-3.2,11.8-4.123,16.059-1.068,12.492,2.013,15.573c5.3,5.3,16.977,2.852,14.7,1.262-3.637-2.181-6.842-4.211-6.056-10a8.21,8.21,0,0,0,8.828,5.244,16.447,16.447,0,0,1-3-11.662,8.042,8.042,0,0,0,5.8,2.251,23.836,23.836,0,0,0,6.277-1.059c1.545-.406,3.355-1.086,3.655-2.648.344-1.854-1.722-3.2-3.531-3.752s-3.982-1.121-4.573-2.9c-.662-2,1.174-4,1.183-6.109,0-2.648-2.648-4.317-4.414-6.268-3.152-3.531-3.628-8.581-4.132-13.242s-1.421-9.808-5.059-12.81a12.1,12.1,0,0,0-2.719-1.571,9.985,9.985,0,0,0-4.008-5.562,17.471,17.471,0,0,0-6.983-2.71,24.207,24.207,0,0,0-14.6,1.624,18.169,18.169,0,0,0-9.711,10.779c-.6,1.951-.883,4.07-2.03,5.73s-3.787,2.578-5.253,1.165a14.434,14.434,0,0,0,1.192,5.738l-2.754-.318a6.692,6.692,0,0,0,4.626,7.945c-1.766,1.554-1.907,4.3-1.059,6.462a17.351,17.351,0,0,0,4.149,5.544,5.341,5.341,0,0,0-4.414,5.6,7.364,7.364,0,0,1,.177,2.472c-.309,1.271-1.616,1.969-2.5,2.931a4.97,4.97,0,0,0,2.136,8.087l1.766.75s1.386-3.143,2.807-4.308,7.831-4.794,12.633-5.562l4.8-.768Z" transform="translate(-295.493 -94.837)" fill="#263238"/>
          <path id="Trazado_208522" data-name="Trazado 208522" d="M355.852,169.041a2.031,2.031,0,0,1-.742.132,4.149,4.149,0,0,1-2.066-.547c-1.677-.883-3.478-3.116-4.67-6.242a11.99,11.99,0,0,1-.636-2.551,12.9,12.9,0,0,1,0-2.86,17.657,17.657,0,0,1,2.013-5.924c1.015-1.96,2.3-3.884,3.531-5.906a38.78,38.78,0,0,0,3.3-6.542,23.6,23.6,0,0,0,1.589-7.063,18.625,18.625,0,0,0-.168-3.452,17.762,17.762,0,0,0-.83-3.2c-1.545-4.079-4.229-7.063-6.418-9.535-1.13-1.209-2.163-2.3-3.063-3.266a6.912,6.912,0,0,1-1.722-2.922,3.734,3.734,0,0,1,.062-2.145,1.871,1.871,0,0,1,.353-.653,3.112,3.112,0,0,0-.265.689,3.7,3.7,0,0,0,0,2.066,6.9,6.9,0,0,0,1.766,2.8c.883.953,1.977,2,3.116,3.213a30.287,30.287,0,0,1,6.568,9.605,17.966,17.966,0,0,1,.883,3.284,19.685,19.685,0,0,1,.177,3.531,23.669,23.669,0,0,1-1.616,7.248,37.734,37.734,0,0,1-3.346,6.612c-1.262,2.031-2.543,3.937-3.531,5.862a17.436,17.436,0,0,0-2.013,5.774,11.406,11.406,0,0,0,.574,5.3c1.121,3.072,2.852,5.3,4.414,6.18a4.176,4.176,0,0,0,1.978.609C355.6,169.085,355.843,169.014,355.852,169.041Z" transform="translate(-300.494 -96.187)" fill="#455a64"/>
          <path id="Trazado_208523" data-name="Trazado 208523" d="M359.607,119.1c-.071,0-.344-.98-1.051-2.463a10.489,10.489,0,0,0-1.58-2.384,9.111,9.111,0,0,0-2.8-2.057,27.258,27.258,0,0,1-3.161-1.766,6.065,6.065,0,0,1-1.96-2.251,3.531,3.531,0,0,1-.38-1.978,1.378,1.378,0,0,1,.229-.7,4.639,4.639,0,0,1-.053.715,3.752,3.752,0,0,0,.486,1.766,6.18,6.18,0,0,0,1.916,2.048,31.855,31.855,0,0,0,3.134,1.669,9.1,9.1,0,0,1,2.9,2.181,9.818,9.818,0,0,1,1.554,2.657,11.92,11.92,0,0,1,.644,1.88C359.607,118.831,359.642,119.087,359.607,119.1Z" transform="translate(-300.824 -96.086)" fill="#455a64"/>
          <path id="Trazado_208524" data-name="Trazado 208524" d="M305.66,120.181a10.544,10.544,0,0,0,1.766.883,8.2,8.2,0,0,0,5.359,0,10.073,10.073,0,0,0,5.73-5.376,15.192,15.192,0,0,0,1.342-4.582,18.673,18.673,0,0,1,1.254-5.1,12.262,12.262,0,0,1,7.548-6.515,13.737,13.737,0,0,1,8.21.168,11.945,11.945,0,0,1,4.767,2.852,7.254,7.254,0,0,1,.953,1.183,1.808,1.808,0,0,1,.247.468,13.153,13.153,0,0,0-1.324-1.527,12.36,12.36,0,0,0-4.741-2.648,13.719,13.719,0,0,0-7.99-.079,11.954,11.954,0,0,0-7.248,6.3,18.029,18.029,0,0,0-1.227,4.988,15.554,15.554,0,0,1-1.413,4.7,10.311,10.311,0,0,1-6.012,5.5,8.149,8.149,0,0,1-5.518-.159,6.18,6.18,0,0,1-1.333-.733A2,2,0,0,1,305.66,120.181Z" transform="translate(-295.786 -95.318)" fill="#455a64"/>
          <path id="Trazado_208525" data-name="Trazado 208525" d="M308.91,156.453c0-.044.486-.177,1.315-.547a10.929,10.929,0,0,0,3.161-2.128,12.438,12.438,0,0,0,3.055-4.723,10.726,10.726,0,0,0,.194-6.78c-.733-2.339-1.933-4.494-2.172-6.727a10.594,10.594,0,0,1,.945-5.712,10.214,10.214,0,0,1,2.287-3.169,7.649,7.649,0,0,1,.83-.671c.2-.132.309-.2.318-.185s-.388.335-1.024.98a10.974,10.974,0,0,0-2.11,3.178,10.594,10.594,0,0,0-.83,5.526c.256,2.128,1.43,4.229,2.2,6.648a10.965,10.965,0,0,1-.238,7.063,12.359,12.359,0,0,1-3.231,4.811,10.223,10.223,0,0,1-3.319,2.057,6.517,6.517,0,0,1-1.015.318A1.086,1.086,0,0,1,308.91,156.453Z" transform="translate(-296.167 -98.466)" fill="#455a64"/>
        </g>
        <g id="freepik--character-2--inject-68" transform="translate(239.483 82.454)">
          <path id="Trazado_208526" data-name="Trazado 208526" d="M366.126,109.774A17.48,17.48,0,0,1,382.82,93h.883c9.764.15,15.1,8.519,14.681,18.275l-.071,39.047s-15.246,9-15.829,9.3l-6.807,4.882.079-21.947s-9.429-1.051-9.949-10.409C365.578,127.589,365.817,118.24,366.126,109.774Z" transform="translate(-279.017 -87.219)" fill="#ffbe9d"/>
          <path id="Trazado_208527" data-name="Trazado 208527" d="M377,148.533a22.768,22.768,0,0,0,12.112-4.123s-2.6,6.86-11.971,6.418Z" transform="translate(-280.339 -93.243)" fill="#eb996e"/>
          <path id="Trazado_208528" data-name="Trazado 208528" d="M368.87,120.082a1.342,1.342,0,0,0,1.342,1.3,1.289,1.289,0,0,0,1.333-1.271,1.342,1.342,0,0,0-1.351-1.289,1.28,1.28,0,0,0-1.324,1.262Z" transform="translate(-279.387 -90.244)" fill="#263238"/>
          <path id="Trazado_208529" data-name="Trazado 208529" d="M368.687,116.9c.168.168,1.148-.618,2.587-.68s2.525.618,2.648.433-.106-.388-.583-.706a3.7,3.7,0,0,0-2.145-.556,3.531,3.531,0,0,0-2.057.759C368.74,116.511,368.6,116.811,368.687,116.9Z" transform="translate(-279.362 -89.842)" fill="#263238"/>
          <path id="Trazado_208530" data-name="Trazado 208530" d="M385,119.742a1.351,1.351,0,0,0,1.351,1.3,1.28,1.28,0,0,0,1.324-1.271,1.333,1.333,0,0,0-1.342-1.289A1.28,1.28,0,0,0,385,119.742Z" transform="translate(-281.277 -90.205)" fill="#263238"/>
          <path id="Trazado_208531" data-name="Trazado 208531" d="M384.717,116.509c.168.168,1.156-.618,2.587-.68s2.525.618,2.648.433-.106-.388-.583-.706a3.7,3.7,0,0,0-2.145-.556,3.531,3.531,0,0,0-2.057.759C384.77,116.121,384.628,116.438,384.717,116.509Z" transform="translate(-281.241 -89.796)" fill="#263238"/>
          <path id="Trazado_208532" data-name="Trazado 208532" d="M378.844,127.456a9.932,9.932,0,0,0-2.357-.318c-.371,0-.715-.079-.795-.327a1.872,1.872,0,0,1,.2-1.095c.3-.883.627-1.854.962-2.852,1.333-4.043,2.287-7.363,2.119-7.416s-1.377,3.187-2.71,7.23l-.883,2.86a2.11,2.11,0,0,0-.132,1.448.883.883,0,0,0,.627.512,2.825,2.825,0,0,0,.627.062,9.19,9.19,0,0,0,2.339-.106Z" transform="translate(-280.126 -89.85)" fill="#263238"/>
          <path id="Trazado_208533" data-name="Trazado 208533" d="M383.584,130c-.23,0-.168,1.563-1.457,2.728s-2.958,1.068-2.958,1.289.38.283,1.086.274a3.893,3.893,0,0,0,2.472-.989,3.382,3.382,0,0,0,1.121-2.278C383.884,130.344,383.69,130,383.584,130Z" transform="translate(-280.594 -91.555)" fill="#263238"/>
          <path id="Trazado_208534" data-name="Trazado 208534" d="M384,110.19c.159.38,1.589.132,3.284.265s3.081.53,3.293.168c.088-.168-.168-.53-.733-.883a5.756,5.756,0,0,0-5.006-.335C384.246,109.687,383.946,110,384,110.19Z" transform="translate(-281.159 -89.092)" fill="#263238"/>
          <path id="Trazado_208535" data-name="Trazado 208535" d="M369.077,112.148c.274.318,1.245-.062,2.437-.132s2.207.124,2.428-.23c.1-.168-.079-.486-.53-.777a3.531,3.531,0,0,0-3.92.291C369.086,111.653,369.006,112,369.077,112.148Z" transform="translate(-279.408 -89.275)" fill="#263238"/>
          <path id="Trazado_208536" data-name="Trazado 208536" d="M401.48,121.519c.15-.071,6.348-2.181,6.418,4.229s-6.374,5.165-6.392,4.979S401.48,121.519,401.48,121.519Z" transform="translate(-283.208 -90.515)" fill="#ffbe9d"/>
          <path id="Trazado_208537" data-name="Trazado 208537" d="M403.058,128.569a1.874,1.874,0,0,0,.3.159,1.121,1.121,0,0,0,.883,0,2.772,2.772,0,0,0,1.245-2.49,3.593,3.593,0,0,0-.327-1.6,1.289,1.289,0,0,0-.883-.883.556.556,0,0,0-.653.309c-.088.185-.044.309-.079.327s-.141-.106-.088-.371a.7.7,0,0,1,.247-.406.883.883,0,0,1,.618-.177,1.58,1.58,0,0,1,1.174.989,3.841,3.841,0,0,1,.406,1.766,2.857,2.857,0,0,1-1.6,2.79,1.192,1.192,0,0,1-1.024-.159C403.075,128.719,403,128.578,403.058,128.569Z" transform="translate(-283.391 -90.785)" fill="#eb996e"/>
          <path id="Trazado_208538" data-name="Trazado 208538" d="M392.291,99.176l-26.661,1.686a12.209,12.209,0,0,1,3.734-4.7,20.888,20.888,0,0,1,11.9-4.847c4.352-.256,13.437,4.679,16.712,7.548,2.648,2.3,2.693,4.414,2.693,4.414.538,3.443-1.236,7.46-1.863,10.885-.327,1.766-.883,7.063-.883,7.063h0c-1.474.053-2.066-1.095-1.9-2.56v-5.712a8.616,8.616,0,0,1-3.046-9.949C393.386,102.513,394.092,100.068,392.291,99.176Z" transform="translate(-279.007 -87.021)" fill="#455a64"/>
          <path id="Trazado_208539" data-name="Trazado 208539" d="M390.412,123.364a.177.177,0,0,0,.185-.15.159.159,0,0,0-.132-.194.168.168,0,0,0-.185.15.177.177,0,0,0,.132.194Z" transform="translate(-281.895 -90.737)" fill="#eb996e"/>
          <path id="Trazado_208540" data-name="Trazado 208540" d="M387.272,122.788a.2.2,0,1,0-.132-.221.194.194,0,0,0,.132.221Z" transform="translate(-281.527 -90.663)" fill="#eb996e"/>
          <path id="Trazado_208541" data-name="Trazado 208541" d="M385.171,122.811c.088,0,.168-.106.177-.247s-.044-.265-.132-.274-.168.106-.185.247S385.083,122.8,385.171,122.811Z" transform="translate(-281.28 -90.651)" fill="#eb996e"/>
          <path id="Trazado_208542" data-name="Trazado 208542" d="M388.978,125.4c.079,0,.15-.053.15-.106s-.071-.106-.159-.1-.159.053-.159.106S388.881,125.4,388.978,125.4Z" transform="translate(-281.723 -90.992)" fill="#eb996e"/>
          <path id="Trazado_208543" data-name="Trazado 208543" d="M386.081,124.842a.185.185,0,1,0-.145-.181A.185.185,0,0,0,386.081,124.842Z" transform="translate(-281.386 -90.908)" fill="#eb996e"/>
          <path id="Trazado_208544" data-name="Trazado 208544" d="M371.152,123.713a.179.179,0,0,0,.053-.353.168.168,0,0,0-.185.15.177.177,0,0,0,.132.2Z" transform="translate(-279.638 -90.776)" fill="#eb996e"/>
          <path id="Trazado_208545" data-name="Trazado 208545" d="M368.98,123.606a.185.185,0,0,0,.168-.194.164.164,0,1,0-.318-.018.185.185,0,0,0,.15.212Z" transform="translate(-279.382 -90.758)" fill="#eb996e"/>
          <path id="Trazado_208546" data-name="Trazado 208546" d="M372.982,123.693a.139.139,0,1,0-.132-.159.15.15,0,0,0,.132.159Z" transform="translate(-279.853 -90.783)" fill="#eb996e"/>
          <path id="Trazado_208547" data-name="Trazado 208547" d="M371.547,125.874a.185.185,0,0,0,.132-.344.187.187,0,0,0-.132.344Z" transform="translate(-279.689 -91.03)" fill="#eb996e"/>
          <path id="Trazado_208548" data-name="Trazado 208548" d="M369.7,125.605a.134.134,0,0,0-.079-.256.135.135,0,1,0,.079.256Z" transform="translate(-279.462 -91.009)" fill="#eb996e"/>
          <path id="Trazado_208549" data-name="Trazado 208549" d="M397.489,98.66a7.8,7.8,0,0,0-1.766-6.8,7.875,7.875,0,0,0-6.506-2.648,24.206,24.206,0,0,1-3.717.424c-2.322-.15-4.176-1.933-6.356-2.746a8.148,8.148,0,0,0-9.446,3.231c-.759,1.245-1.227,2.772-2.445,3.584-1.042.706-2.4.706-3.593,1.121a5.933,5.933,0,0,0-3.752,6.039,7.01,7.01,0,0,0,4.5,5.7,8.519,8.519,0,0,0,7.354-.821c1.969-1.2,3.7-3.187,6-3.213s4.564,2.128,6.886,1.571a6.6,6.6,0,0,0,2.984-2.189,5.35,5.35,0,0,1,3.108-1.96c1.245-.132,1.969,1.563,1.571,2.746l5.217-4.043" transform="translate(-278.334 -86.452)" fill="#263238"/>
          <path id="Trazado_208550" data-name="Trazado 208550" d="M366.06,97.691l.044.088a2.4,2.4,0,0,0,.168.256,4.184,4.184,0,0,0,.8.883,4.582,4.582,0,0,0,1.624.883,4.485,4.485,0,0,0,2.428.044,4.776,4.776,0,0,0,2.49-1.554,33.282,33.282,0,0,0,1.766-2.887A3.814,3.814,0,0,1,376.6,94.1a3.77,3.77,0,0,1,1.766-.459,4.052,4.052,0,0,1,1.836.415,3.39,3.39,0,0,1,1.395,1.315c.344.574.609,1.209,1.015,1.766a2.216,2.216,0,0,0,1.766.971,3.293,3.293,0,0,0,1.836-.618,7.062,7.062,0,0,0,1.368-1.227,5.994,5.994,0,0,1,2.569-2,3.337,3.337,0,0,1,2.71.521,4.573,4.573,0,0,1,1.545,1.766,7.178,7.178,0,0,1,.618,1.7c.124.486.185.883.23,1.13s.062.4.071.4,0,0,0-.106v-.3a9.986,9.986,0,0,0-.177-1.139,7.363,7.363,0,0,0-.591-1.766,4.742,4.742,0,0,0-1.58-1.854,3.575,3.575,0,0,0-2.86-.574,6.109,6.109,0,0,0-2.648,2.039,6.851,6.851,0,0,1-1.333,1.192,3.046,3.046,0,0,1-1.7.565,1.925,1.925,0,0,1-1.545-.883,19.364,19.364,0,0,1-1.006-1.766,3.673,3.673,0,0,0-1.5-1.413,4.343,4.343,0,0,0-1.951-.441,3.726,3.726,0,0,0-3.2,1.766,32.253,32.253,0,0,1-1.7,2.878,4.555,4.555,0,0,1-2.375,1.518,4.414,4.414,0,0,1-2.34,0,4.82,4.82,0,0,1-1.6-.795,5.792,5.792,0,0,1-1.165-1.006Z" transform="translate(-279.057 -87.258)" fill="#455a64"/>
          <path id="Trazado_208551" data-name="Trazado 208551" d="M360.568,98.6a1.882,1.882,0,0,0-.088.521,4.256,4.256,0,0,0,.194,1.421,4.953,4.953,0,0,0,1.086,1.845,5.721,5.721,0,0,0,2.172,1.448,8.634,8.634,0,0,0,4.679.335,12.355,12.355,0,0,0,1.386-.335,1.651,1.651,0,0,0,.486-.185s-.724.168-1.907.344a9.093,9.093,0,0,1-4.555-.4,5.791,5.791,0,0,1-2.092-1.368,5.226,5.226,0,0,1-1.077-1.766,5.862,5.862,0,0,1-.282-1.863Z" transform="translate(-278.403 -87.875)" fill="#455a64"/>
          <path id="Trazado_208552" data-name="Trazado 208552" d="M389.018,430.225l5.147,17.833s-16.394,11.221-15.767,14.611l34.933-8.74-6.886-28.109Z" transform="translate(-280.501 -126.217)" fill="#4dd0e1"/>
          <path id="Trazado_208553" data-name="Trazado 208553" d="M407.87,446.23a1.474,1.474,0,0,1,1.395,1.386,1.413,1.413,0,0,1-1.351,1.395,1.563,1.563,0,0,1-1.474-1.474,1.466,1.466,0,0,1,1.571-1.289" transform="translate(-283.789 -128.608)" fill="#e0e0e0"/>
          <g id="Grupo_146496" data-name="Grupo 146496" transform="translate(97.833 324.905)" opacity="0.6">
            <path id="Trazado_208554" data-name="Trazado 208554" d="M413.352,457.287l-.8-2.807-33.194,9.429s-1.386,1.068-.936,2.119Z" transform="translate(-378.328 -454.48)" fill="#fff"/>
          </g>
          <path id="Trazado_208555" data-name="Trazado 208555" d="M395.569,450.951c.044.168.883,0,1.889.371s1.607.945,1.766.839-.362-1.033-1.554-1.421S395.49,450.774,395.569,450.951Z" transform="translate(-282.515 -129.118)" fill="#263238"/>
          <path id="Trazado_208556" data-name="Trazado 208556" d="M391.85,453.7c0,.177.812.283,1.571.883s1.112,1.3,1.28,1.254,0-1.042-.883-1.766S391.806,453.541,391.85,453.7Z" transform="translate(-282.079 -129.466)" fill="#263238"/>
          <path id="Trazado_208557" data-name="Trazado 208557" d="M390.453,458.926c.168,0,.185-.883-.486-1.766s-1.563-1-1.6-.839.583.539,1.121,1.227S390.277,458.953,390.453,458.926Z" transform="translate(-281.671 -129.784)" fill="#263238"/>
          <path id="Trazado_208558" data-name="Trazado 208558" d="M394.748,446.069c.106.132.83-.291,1.81-.468s1.81-.062,1.863-.23-.821-.6-1.978-.371S394.634,445.955,394.748,446.069Z" transform="translate(-282.417 -128.457)" fill="#263238"/>
          <path id="Trazado_208559" data-name="Trazado 208559" d="M401.918,435.544l.812,18.539s-18.539,7.063-18.76,10.488l36-.274L419.9,435.35Z" transform="translate(-281.156 -127.333)" fill="#4dd0e1"/>
          <path id="Trazado_208560" data-name="Trazado 208560" d="M417.582,454.7a1.474,1.474,0,0,1,1.033,1.677,1.412,1.412,0,0,1-1.642,1.033,1.563,1.563,0,0,1-1.086-1.766,1.474,1.474,0,0,1,1.836-.883" transform="translate(-284.893 -129.599)" fill="#e0e0e0"/>
          <g id="Grupo_146497" data-name="Grupo 146497" transform="translate(102.798 334.042)" opacity="0.6">
            <path id="Trazado_208561" data-name="Trazado 208561" d="M419.969,467.752l-.115-2.922-34.483,1.36s-1.6.715-1.4,1.836Z" transform="translate(-383.951 -464.83)" fill="#fff"/>
          </g>
          <path id="Trazado_208562" data-name="Trazado 208562" d="M404.55,456.346c0,.177.883.247,1.766.8s1.342,1.3,1.5,1.227-.106-1.086-1.174-1.766S404.515,456.187,404.55,456.346Z" transform="translate(-283.567 -129.772)" fill="#263238"/>
          <path id="Trazado_208563" data-name="Trazado 208563" d="M400.29,458.162c0,.168.724.468,1.324,1.2s.786,1.527.962,1.518.274-1.006-.494-1.907S400.29,458.012,400.29,458.162Z" transform="translate(-283.068 -129.999)" fill="#263238"/>
          <path id="Trazado_208564" data-name="Trazado 208564" d="M397.71,462.914c.159,0,.4-.883-.062-1.766s-1.28-1.342-1.36-1.192.441.653.8,1.448S397.534,462.9,397.71,462.914Z" transform="translate(-282.599 -130.213)" fill="#263238"/>
          <path id="Trazado_208565" data-name="Trazado 208565" d="M404.879,451.479c.071.159.883-.088,1.872,0s1.766.371,1.863.221-.662-.777-1.836-.83S404.791,451.337,404.879,451.479Z" transform="translate(-283.605 -129.151)" fill="#263238"/>
          <path id="Trazado_208566" data-name="Trazado 208566" d="M423.44,281.89v14.655L419.5,353.664s2.454,27.7,3.955,43.347c1.307,13.578-.83,37.238-.83,37.238H399.675l-8.2-78.889-5.085-49.2L377.56,283.77Z" transform="translate(-280.405 -109.352)" fill="#263238"/>
          <path id="Trazado_208567" data-name="Trazado 208567" d="M359.81,284.627l5.588,79.631,23.183,59.661,1.068,3.593,13.693-3.311L393.154,283.02Z" transform="translate(-278.325 -109.484)" fill="#263238"/>
          <path id="Trazado_208568" data-name="Trazado 208568" d="M387.668,310.05a1.175,1.175,0,0,0,0,.327c0,.238,0,.565,0,.971,0,.883.062,2.136.115,3.734.088,3.249.327,7.945.653,13.737.689,11.583,1.978,27.571,3.99,45.157s4.167,33.494,5.765,45.024c.812,5.73,1.474,10.373,1.933,13.6.23,1.589.415,2.834.539,3.7.071.406.115.724.15.962a2.8,2.8,0,0,0,.071.327,1.6,1.6,0,0,0,0-.336l-.124-1.006c-.106-.883-.265-2.119-.468-3.708-.424-3.24-1.033-7.892-1.766-13.622-1.518-11.477-3.655-27.368-5.641-45.024s-3.346-33.547-4.114-45.139c-.371-5.783-.644-10.47-.786-13.71-.088-1.607-.15-2.86-.194-3.734,0-.406-.053-.733-.062-.971S387.668,310.05,387.668,310.05Z" transform="translate(-281.588 -112.652)" fill="#455a64"/>
          <path id="Trazado_208569" data-name="Trazado 208569" d="M409.939,283.53a2.771,2.771,0,0,0,.088.883,13.46,13.46,0,0,0,.653,2.216A14.619,14.619,0,0,0,422.1,295.8a12.484,12.484,0,0,0,2.3.15,2.869,2.869,0,0,0,.883-.088c0-.079-1.209,0-3.1-.362a15.652,15.652,0,0,1-6.718-3.09,15.485,15.485,0,0,1-4.467-5.9A26.551,26.551,0,0,1,409.939,283.53Z" transform="translate(-284.198 -109.544)" fill="#455a64"/>
          <path id="Trazado_208570" data-name="Trazado 208570" d="M386,287.313a1.174,1.174,0,1,0,.344-.839,1.183,1.183,0,0,0-.344.839Z" transform="translate(-281.394 -109.849)" fill="#455a64"/>
          <path id="Trazado_208571" data-name="Trazado 208571" d="M363.2,298.3a7.742,7.742,0,0,0,1.616-1.518,18.266,18.266,0,0,0,4.326-9.667,7.539,7.539,0,0,0,.053-2.207c-.071,0-.115.839-.353,2.163a21.285,21.285,0,0,1-4.255,9.517A21.337,21.337,0,0,0,363.2,298.3Z" transform="translate(-278.722 -109.706)" fill="#455a64"/>
          <path id="Trazado_208572" data-name="Trazado 208572" d="M376.422,161.81a19.289,19.289,0,0,1-1.28,3.161,6.572,6.572,0,0,1-1.933,2.834c-.106-.1.759-1.315,1.518-3.028A9.679,9.679,0,0,1,376.422,161.81Z" transform="translate(-279.894 -95.281)" fill="#263238"/>
          <path id="Trazado_208573" data-name="Trazado 208573" d="M378.491,158.44l19.051-16.05,4.017,6.18s16.615,12.174,19.766,15.617l-4.158,55.291s4.414,29.08,4.732,31.367,2.913,22.362,2.913,22.362c.344,3.8-2.79,8.413-3.425,8.413,0,0-3.214-3.84-6.657-3.531s-26.785,6.595-26.785,6.595l-28.356-6.3,3.01-55.909,1.006-37.388,2.472-14.3,5.606-5.588,3.328-8.731s1.051,11.141,1.2,10.709S378.491,158.44,378.491,158.44Z" transform="translate(-278.299 -93.006)" fill="#4dd0e1"/>
          <path id="Trazado_208574" data-name="Trazado 208574" d="M403.577,150.48a6.479,6.479,0,0,1-.759,1.042c-.521.644-1.3,1.563-2.287,2.648-1.969,2.207-4.856,5.1-7.945,8.352-1.536,1.607-2.984,3.161-4.238,4.626l-.15.168-.159-.15c-2.11-2.1-3.628-4.114-4.794-5.438l-1.368-1.554a3.53,3.53,0,0,1-.477-.565,2.57,2.57,0,0,1,.574.468c.353.327.883.83,1.457,1.474,1.227,1.289,2.8,3.266,4.9,5.3h-.309c1.245-1.483,2.693-3.063,4.238-4.67,3.125-3.258,6.039-6.109,8.069-8.254,1.015-1.068,1.827-1.951,2.384-2.551a6.831,6.831,0,0,1,.865-.892Z" transform="translate(-280.855 -93.954)" fill="#263238"/>
          <path id="Trazado_208575" data-name="Trazado 208575" d="M370.048,253.344a.881.881,0,0,1,0-.221v-.636c0-.592.079-1.4.141-2.428.141-2.145.335-5.191.583-8.925.521-7.539,1.28-17.957,2.2-29.451s1.81-21.894,2.56-29.416c.371-3.761.706-6.8.962-8.9.141-1.015.256-1.827.335-2.41l.1-.627a1.033,1.033,0,0,1,0-.212.688.688,0,0,1,0,.221l-.053.627c-.062.591-.141,1.4-.247,2.419-.194,2.145-.477,5.182-.812,8.908-.662,7.531-1.518,17.93-2.428,29.433s-1.766,21.859-2.331,29.425c-.309,3.743-.556,6.78-.733,8.925-.1,1.024-.168,1.827-.221,2.419a5.146,5.146,0,0,1-.071.636.814.814,0,0,1,.018.212Z" transform="translate(-279.523 -96.256)" fill="#263238"/>
          <g id="Grupo_146498" data-name="Grupo 146498" transform="translate(83.56 127.639)" opacity="0.3">
            <path id="Trazado_208576" data-name="Trazado 208576" d="M362.566,238.066c2.154,1.077,4.626,1.448,6.745,2.6a24.233,24.233,0,0,1,4.105,3.125c9.04,7.787,20.411,13.366,32.338,13.578,4.1.071,8.475-.609,11.477-3.346,1.677-1.5,2.869-3.84,2.225-6-.786-2.648-3.77-3.8-6.392-4.608l-24.437-7.636a111.9,111.9,0,0,0-15.644-4.061,55.5,55.5,0,0,0-10.823-.636" transform="translate(-362.16 -231.032)"/>
          </g>
          <path id="Trazado_208577" data-name="Trazado 208577" d="M389.854,275.639c-.062.106-5.959-3.072-13.172-7.107s-13-7.4-12.942-7.513,5.959,3.072,13.172,7.107S389.916,275.524,389.854,275.639Z" transform="translate(-278.786 -106.906)" fill="#263238"/>
          <path id="Trazado_208578" data-name="Trazado 208578" d="M372.156,295.36a5.293,5.293,0,0,1,0-1.156l.159-3.125c.124-2.648.141-6.286.088-10.32s-.062-7.7-.053-10.338v-3.134a5.816,5.816,0,0,1,.079-1.156,5.11,5.11,0,0,1,.106,1.148c0,.83.062,1.88.106,3.134.071,2.648.141,6.3.194,10.338s0,7.707-.23,10.356c-.1,1.315-.212,2.384-.309,3.116a6,6,0,0,1-.141,1.139Z" transform="translate(-279.768 -107.505)" fill="#263238"/>
          <g id="Grupo_146499" data-name="Grupo 146499" transform="translate(119.711 99.166)" opacity="0.3">
            <path id="Trazado_208579" data-name="Trazado 208579" d="M403.11,223.888c2.057-7.945,1.863-16.994,1.642-25.108,1.457,5.579,3.081,14.125,4.282,19.961l-2.313,5.624Z" transform="translate(-403.11 -198.78)"/>
          </g>
          <g id="Grupo_146500" data-name="Grupo 146500" transform="translate(98.188 58.954)" opacity="0.3">
            <path id="Trazado_208580" data-name="Trazado 208580" d="M378.73,168.15c.062-.159.132-.318.2-.477a23.142,23.142,0,0,1,2.022-3.7,66.014,66.014,0,0,1,6.18,6.559c2.852-2.975,5.7-5.95,8.272-9.164a69.494,69.494,0,0,0,5.624-8.14l-13.242,14.125-7.054-7.645Z" transform="translate(-378.73 -153.23)"/>
          </g>
          <path id="Trazado_208581" data-name="Trazado 208581" d="M307.343,249.673l47.134,1.051L355.325,235l-56.775,4.635Z" transform="translate(-271.147 -103.858)" fill="#ffbe9d"/>
          <path id="Trazado_208582" data-name="Trazado 208582" d="M268.031,195.35c0,.062-.521,1.156-.521,1.156,4.114,7.848,19.051,36.258,19.051,36.258l18.363,8.9,43.85-1.766v-2.375l-22.565-8.934-28.2.7-15.14-30.016a2.781,2.781,0,0,0-1.951-1.474Z" transform="translate(-267.51 -99.212)" fill="#455a64"/>
          <path id="Trazado_208583" data-name="Trazado 208583" d="M308.962,246.134a9.49,9.49,0,0,1-1.174-1.766c-.671-1.13-1.563-2.7-2.525-4.414s-1.819-3.346-2.41-4.511a10.524,10.524,0,0,1-.883-1.933,9.463,9.463,0,0,1,1.165,1.766c.671,1.13,1.571,2.7,2.534,4.414s1.819,3.355,2.41,4.52a9.906,9.906,0,0,1,.883,1.925Z" transform="translate(-271.548 -103.683)" fill="#263238"/>
          <path id="Trazado_208584" data-name="Trazado 208584" d="M313.119,242.358l18.76-.618-14.161-7.38-15.158.335Z" transform="translate(-271.617 -103.783)" fill="#263238"/>
          <path id="Trazado_208585" data-name="Trazado 208585" d="M353.584,243.158a1.6,1.6,0,0,1-.459.053l-1.315.044-4.829.132c-4.07.115-9.711.318-15.891.556s-11.856.388-15.935.415h-6.136a1.457,1.457,0,0,1-.459-.044,1.9,1.9,0,0,1,.459,0l1.307-.053,4.829-.132c4.07-.106,9.711-.318,15.891-.547s11.848-.4,15.891-.424h6.144a1.9,1.9,0,0,1,.5,0Z" transform="translate(-272.32 -104.812)" fill="#263238"/>
          <path id="Trazado_208586" data-name="Trazado 208586" d="M302.234,240.519a3.529,3.529,0,0,1-.318-.53l-.83-1.545c-.733-1.395-1.766-3.337-2.984-5.721l-9.711-18.963-7.2-14.311.132.106-10.02-2.039-2.79-.6a6.047,6.047,0,0,1-.98-.256,6.346,6.346,0,0,1,1.006.141l2.807.494,10.055,1.872h.088l.044.088c2.11,4.123,4.608,9.022,7.292,14.284l9.579,19.016,2.86,5.791.759,1.589a2.447,2.447,0,0,1,.212.583Z" transform="translate(-267.512 -99.365)" fill="#263238"/>
          <path id="Trazado_208587" data-name="Trazado 208587" d="M293.583,233.912s.777-.777,2.34,1.218,4.158,7.8,4.158,7.8l2.86,1.3s-2.507-2.94-2.507-4.158,1.9-1.209,2.94.521a51.019,51.019,0,0,0,4.079,5.112s-.953,3.531-1.218,3.364-5.023-.415-5.023-.415l-1.3-.609s-3.214,0-3.381-.883-5.465-4.5-5.465-5.3v-5s-2.428-5.9-1.907-6.5S291.853,228.456,293.583,233.912Z" transform="translate(-270.038 -103.246)" fill="#ffbe9d"/>
          <path id="Trazado_208588" data-name="Trazado 208588" d="M294.475,234.356a.539.539,0,0,0-.23.071.477.477,0,0,0-.283.494h0c.2.636.441,1.624.706,2.834s.547,2.648,1,4.114a7.4,7.4,0,0,0,1.527,2.648c.565.742,1.095,1.421,1.58,2.048a12.021,12.021,0,0,1,1.36,1.96,13.242,13.242,0,0,1-1.616-1.766l-1.66-1.986a12.2,12.2,0,0,1-.936-1.236,6.392,6.392,0,0,1-.7-1.536,37,37,0,0,1-.936-4.185c-.2-1.086-.38-2.031-.53-2.852h0a.6.6,0,0,1,.468-.6C294.4,234.294,294.475,234.338,294.475,234.356Z" transform="translate(-270.586 -103.779)" fill="#eb996e"/>
          <path id="Trazado_208589" data-name="Trazado 208589" d="M293.413,244.951a30.369,30.369,0,0,1-2.083-7.151,30.367,30.367,0,0,1,2.083,7.151Z" transform="translate(-270.301 -104.186)" fill="#eb996e"/>
          <path id="Trazado_208590" data-name="Trazado 208590" d="M303.536,240.632a1.289,1.289,0,0,0-.353.071,1.156,1.156,0,0,0-.759.3c-.221.238-.132.68.106,1.139l.742,1.571.75,1.536c.256.45.539.883.75,1.183.45.68.644,1.165.583,1.192a6.6,6.6,0,0,1-.883-1.006,12.592,12.592,0,0,1-.883-1.148c-.256-.477-.539-1.006-.812-1.571s-.477-1.068-.706-1.58a2.542,2.542,0,0,1-.221-.795.989.989,0,0,1,.256-.742,1.236,1.236,0,0,1,1.006-.265C303.421,240.553,303.536,240.6,303.536,240.632Z" transform="translate(-271.533 -104.502)" fill="#eb996e"/>
          <path id="Trazado_208591" data-name="Trazado 208591" d="M399.84,171.891a2.939,2.939,0,0,1,.45-.883,14,14,0,0,1,1.642-2.075,31.034,31.034,0,0,1,2.852-2.648,13.7,13.7,0,0,1,4.052-2.648,11.477,11.477,0,0,1,4.8-.486,33.277,33.277,0,0,1,3.867.583c1.095.2,1.977.38,2.578.512a3.337,3.337,0,0,1,.936.247,4.413,4.413,0,0,1-.971-.079c-.609-.071-1.5-.194-2.6-.362a37.731,37.731,0,0,0-3.84-.486,11.538,11.538,0,0,0-4.617.5,13.718,13.718,0,0,0-3.937,2.507,38.647,38.647,0,0,0-2.9,2.569,35.411,35.411,0,0,0-2.322,2.746Z" transform="translate(-283.016 -95.431)" fill="#263238"/>
          <path id="Trazado_208592" data-name="Trazado 208592" d="M365.78,222.53l.653,11.909s17.657,8.254,29.213,11.23,25.161,2.516,25.161,2.516l-4.856-19.352Z" transform="translate(-279.025 -102.397)" fill="#ffbe9d"/>
          <path id="Trazado_208593" data-name="Trazado 208593" d="M326.824,224.446a2.534,2.534,0,0,1,1.289-2.437c1.536-.945,4.75-3.037,4.75-3.037l9.711-.883,18.372,3.92.653,11.909s-9.358.521-11.53.441-8.219-2.022-8.219-2.022-10.144,1.289-10.594.733-1.13-1.209-.486-1.616,8.457-2.419,8.457-2.419l-5.235-.4s-7.654,1.607-8.21,1.368-1.289-1.209-.812-1.933l.486-.724a1.624,1.624,0,0,1,.8-2.013l.724-.247Z" transform="translate(-274.225 -101.876)" fill="#ffbe9d"/>
          <path id="Trazado_208594" data-name="Trazado 208594" d="M340.762,225.128a6.374,6.374,0,0,1-2.348.388,23.928,23.928,0,0,0-5.606.486,28.893,28.893,0,0,0-2.869,1.218,22.953,22.953,0,0,1-2.428.883,7.84,7.84,0,0,1-2.331.468c0-.062.883-.291,2.225-.777.689-.247,1.492-.565,2.357-.962a24.464,24.464,0,0,1,2.9-1.262,11.185,11.185,0,0,1,3.169-.415H338.4C339.861,225.216,340.744,225.057,340.762,225.128Z" transform="translate(-274.267 -102.699)" fill="#eb996e"/>
          <path id="Trazado_208595" data-name="Trazado 208595" d="M340.056,221.981a5.2,5.2,0,0,1-2.1.265,11.2,11.2,0,0,0-4.909.644c-1.819.759-3.461,1.492-4.67,1.978a9.183,9.183,0,0,1-1.986.7,9.869,9.869,0,0,1,1.854-1c1.174-.556,2.79-1.342,4.635-2.11a7.946,7.946,0,0,1,2.79-.618c.883,0,1.651.053,2.3.079A13.429,13.429,0,0,0,340.056,221.981Z" transform="translate(-274.409 -102.316)" fill="#eb996e"/>
          <path id="Trazado_208596" data-name="Trazado 208596" d="M426.143,166.7s4.9,7.8,5.668,11.618,2.648,43.965,1.9,44.724a20.879,20.879,0,0,1-2.092,1.713s4.414.953,3.046,3.24a40.662,40.662,0,0,1-2.648,3.99s-.653,7.425-1.466,7.619a59.537,59.537,0,0,0-5.438,2.807s-13.331-7.186-14.54-10.991S406.509,220,406.509,220l2.287-5.3-6.851-32.356s-3.681-10.347,2.94-14.584S423.653,162.427,426.143,166.7Z" transform="translate(-283.143 -95.537)" fill="#4dd0e1"/>
          <path id="Trazado_208597" data-name="Trazado 208597" d="M403.53,191.7a2.451,2.451,0,0,1,.141.486c.079.353.194.821.335,1.421.283,1.28.689,3.09,1.192,5.368l4.087,18.892V218l-2.278,5.3v-.168c1.307,3.628,2.648,7.583,4.158,11.6l.238.512.353.468a6.63,6.63,0,0,0,.768.883,10.713,10.713,0,0,0,.883.821c.291.265.592.521.883.759,1.209,1,2.481,1.889,3.743,2.737,2.525,1.7,5.05,3.187,7.469,4.529h-.2c1.156-.653,2.287-1.271,3.4-1.845.565-.291,1.1-.574,1.677-.812l.221-.088a.524.524,0,0,0,.2-.071.883.883,0,0,0,.159-.256,6.173,6.173,0,0,0,.256-.812,51.205,51.205,0,0,0,.936-6.365v-.053h0a28.121,28.121,0,0,0,1.766-2.569c.274-.415.521-.812.759-1.209a4.3,4.3,0,0,0,.283-.574,1.28,1.28,0,0,0,.044-.574,2.43,2.43,0,0,0-1.474-1.51,8.359,8.359,0,0,0-1.7-.618h-.159l.132-.1c.742-.521,1.271-.936,1.616-1.227a5.32,5.32,0,0,1,.521-.424c.009.009,0,.053-.106.132s-.194.2-.362.353a20.309,20.309,0,0,1-1.58,1.289v-.132a8.61,8.61,0,0,1,1.766.583,5.545,5.545,0,0,1,.945.591,1.889,1.889,0,0,1,.68,1.059,1.705,1.705,0,0,1,0,.7,5.287,5.287,0,0,1-.309.636q-.344.591-.742,1.218c-.53.883-1.121,1.713-1.766,2.648v-.079a50.641,50.641,0,0,1-.883,6.427,5.537,5.537,0,0,1-.274.883.882.882,0,0,1-.362.459l-.221.079-.2.079c-.539.238-1.086.521-1.642.812-1.095.583-2.225,1.209-3.381,1.854l-.1.062-.106-.062c-2.437-1.333-4.97-2.816-7.522-4.52A45.024,45.024,0,0,1,414,238.658a8.361,8.361,0,0,1-.883-.786c-.265-.283-.6-.53-.883-.83a7.537,7.537,0,0,1-.812-.936c-.124-.168-.247-.327-.371-.5l-.283-.583c-1.492-4.061-2.843-7.945-4.14-11.609v-.168l2.3-5.3v.124c-1.607-7.725-2.957-14.266-3.929-18.928-.459-2.287-.821-4.105-1.077-5.394-.115-.6-.2-1.077-.274-1.439A4.181,4.181,0,0,1,403.53,191.7Z" transform="translate(-283.448 -98.784)" fill="#263238"/>
          <path id="Trazado_208598" data-name="Trazado 208598" d="M433.809,231.619a3.05,3.05,0,0,1-.671.283,6.525,6.525,0,0,1-1.986.3,3.442,3.442,0,0,1-1.377-.344,12.456,12.456,0,0,1-1.377-.795c-.927-.618-1.863-1.368-2.913-2.075-2.075-1.448-4.026-2.648-5.429-3.531a14.724,14.724,0,0,1-2.225-1.527,15.522,15.522,0,0,1,2.392,1.245c1.448.83,3.434,2,5.526,3.461,1.051.715,2,1.483,2.887,2.1a5.3,5.3,0,0,0,2.543,1.165,7.248,7.248,0,0,0,1.916-.15,2.834,2.834,0,0,1,.715-.132Z" transform="translate(-285.124 -102.561)" fill="#263238"/>
          <path id="Trazado_208599" data-name="Trazado 208599" d="M433.757,239.415a1.969,1.969,0,0,1-.883.2,4.688,4.688,0,0,1-2.348-.424,38.614,38.614,0,0,1-6.595-4.158,64.067,64.067,0,0,1-5.791-5.209c-.706-.706-1.262-1.28-1.633-1.7a3.142,3.142,0,0,1-.556-.662,23.572,23.572,0,0,1,2.419,2.128c1.457,1.342,3.461,3.213,5.844,5.067a47.411,47.411,0,0,0,6.445,4.229,4.874,4.874,0,0,0,2.207.539A7.847,7.847,0,0,1,433.757,239.415Z" transform="translate(-284.903 -102.975)" fill="#263238"/>
          <g id="Grupo_146501" data-name="Grupo 146501" transform="translate(132.857 121.555)" opacity="0.3">
            <path id="Trazado_208600" data-name="Trazado 208600" d="M418,224.14a15.812,15.812,0,0,0,3.222,3.425l5.677,4.944c1.086.945,2.366,1.951,3.8,1.766a4.785,4.785,0,0,0,1.978-.927c.547-.388,1.165-.953,1.006-1.607a5.553,5.553,0,0,1-4.829-.512,14.493,14.493,0,0,1-1.766-1.4,43.329,43.329,0,0,0-9.075-5.571" transform="translate(-418 -224.14)"/>
          </g>
          <path id="Trazado_208601" data-name="Trazado 208601" d="M362.768,235.763a4.845,4.845,0,0,1-1.112.132l-3.063.194-4.547.221-2.648.115a7.626,7.626,0,0,1-1.448-.247l-1.421-.335c-1.978-.494-3.84-.989-5.527-1.448h.079c-2.525.23-4.661.415-6.18.521l-1.766.115a2.912,2.912,0,0,1-.636,0,2.039,2.039,0,0,1,.618-.132l1.766-.23c1.5-.185,3.637-.424,6.18-.689h.079l5.518,1.413,1.421.344a8.131,8.131,0,0,0,1.342.238l2.648-.088,4.538-.124,3.063-.044a5.874,5.874,0,0,1,1.095.044Z" transform="translate(-275.359 -103.738)" fill="#eb996e"/>
        </g>
        <g id="freepik--Floor--inject-68" transform="translate(28.32 419.462)">
          <path id="Trazado_208602" data-name="Trazado 208602" d="M419.73,468.42c0,.132-87.629.23-195.7.23s-195.714-.1-195.714-.23,87.612-.23,195.714-.23S419.73,468.3,419.73,468.42Z" transform="translate(-28.32 -468.19)" fill="#263238"/>
        </g>
      </g>
    </g>
  </g>
</svg>
